<?xml version="1.0" encoding="utf-8"?>
<!-- Generator: Adobe Illustrator 15.1.0, SVG Export Plug-In . SVG Version: 6.00 Build 0)  -->
<!DOCTYPE svg PUBLIC "-//W3C//DTD SVG 1.1//EN" "http://www.w3.org/Graphics/SVG/1.1/DTD/svg11.dtd">
<svg version="1.1" id="圖層_1" xmlns="http://www.w3.org/2000/svg" xmlns:xlink="http://www.w3.org/1999/xlink" x="0px" y="0px"
	 width="100px" height="100px" viewBox="0 0 100 100" enable-background="new 0 0 100 100" xml:space="preserve">
<g>
	<path fill="#FFFFFF" d="M50.084,22.341H12.199v55.318h37.885h37.717V22.341H50.084z M82.77,72.632H50.084H17.227V27.371h32.857
		H82.77V72.632z"/>
	<rect x="52.598" y="37.429" fill="#FFFFFF" width="5.027" height="5.03"/>
	<rect x="52.598" y="47.486" fill="#FFFFFF" width="5.027" height="5.03"/>
	<rect x="52.598" y="57.544" fill="#FFFFFF" width="5.027" height="5.03"/>
	<rect x="62.654" y="37.429" fill="#FFFFFF" width="15.088" height="5.03"/>
	<rect x="62.654" y="47.486" fill="#FFFFFF" width="15.088" height="5.03"/>
	<rect x="62.654" y="57.544" fill="#FFFFFF" width="15.088" height="5.03"/>
	<path fill="#FFFFFF" d="M45.057,42.459c0-5.534-4.529-10.061-10.061-10.061c-5.532,0-10.059,4.526-10.059,10.061
		c0,5.528,4.527,10.059,10.059,10.059C40.528,52.518,45.057,47.987,45.057,42.459z"/>
	<path fill="#FFFFFF" d="M34.996,52.518c-6.941,0-12.572,5.631-12.572,12.57v2.514h12.572h12.57v-2.514
		C47.566,58.146,41.936,52.518,34.996,52.518z"/>
</g>
</svg>
