<?xml version="1.0" encoding="utf-8"?>
<!-- Generator: Adobe Illustrator 15.1.0, SVG Export Plug-In . SVG Version: 6.00 Build 0)  -->
<!DOCTYPE svg PUBLIC "-//W3C//DTD SVG 1.1//EN" "http://www.w3.org/Graphics/SVG/1.1/DTD/svg11.dtd">
<svg version="1.1" id="圖層_1" xmlns="http://www.w3.org/2000/svg" xmlns:xlink="http://www.w3.org/1999/xlink" x="0px" y="0px"
	 width="100px" height="100px" viewBox="0 0 100 100" enable-background="new 0 0 100 100" xml:space="preserve">
<g>
	<g>
		<path fill="#FFFFFF" d="M48.069,43.243c-2.489,0.809-3.85,3.48-3.041,5.968c0.809,2.49,3.479,3.85,5.968,3.041
			c2.486-0.809,3.85-3.48,3.041-5.968c-0.1-0.305-0.229-0.589-0.378-0.858l-0.013-0.023C52.559,43.489,50.243,42.537,48.069,43.243z
			"/>
		<g>
			<path fill="#FFFFFF" d="M59.211,71.505c-1.184,1.91-2.546,3.946-4.15,6.202l-0.229,0.318c-1.005,1.416-2.256,3.174-3.601,3.555
				c-0.313,0.088-0.615,0.132-0.92,0.132c-1.843,0-3.642-1.676-5.309-3.489c-0.886-0.967-1.62-2.136-2.398-3.371
				c-0.382-0.612-0.766-1.22-1.167-1.812l-0.164-0.24c-0.606-0.888-1.197-1.755-1.758-2.618l-2.774-4.854
				c-1.767-3.404-3.29-6.753-4.538-9.964c-1.482-3.817-2.698-8.127-3.702-13.11l-3.625,4.046c0.913,3.926,1.979,7.444,3.227,10.655
				c0.914,2.354,1.969,4.774,3.151,7.233l2.607,5.101c0.034,0.062,0.069,0.126,0.103,0.19c1.113,2.045,2.417,3.955,3.675,5.801
				l0.164,0.24c0.371,0.545,0.724,1.106,1.077,1.67c0.848,1.351,1.726,2.748,2.886,4.011c2.347,2.552,5.004,4.913,8.546,4.913
				c0.707,0,1.417-0.1,2.119-0.299c2.836-0.801,4.657-3.366,5.987-5.241l0.224-0.312c2.524-3.545,4.502-6.609,6.103-9.46
				L59.211,71.505z"/>
		</g>
		<g>
			<path fill="#FFFFFF" d="M24.526,44.757l3.68-4.002c5.991-6.141,12.604-11.18,19.685-15.041l-5.011-2.206
				c-5.452,3.27-10.616,7.213-15.422,11.801L23.5,39.317c-6.883,7.392-10.32,13.416-10.468,13.676
				c-1.46,2.584-1.146,4.698-0.625,6.021c1.772,4.491,8.373,6.571,12.318,7.813c0.353,0.11,0.675,0.214,0.959,0.308
				c2.273,0.744,4.441,1.34,6.568,1.813l-2.619-5.209c-0.847-0.24-1.702-0.498-2.581-0.785c-0.299-0.101-0.636-0.205-1.005-0.319
				c-2.558-0.809-8.546-2.695-9.548-5.234c-0.158-0.404-0.296-1.078,0.362-2.241C16.89,55.107,19.467,50.607,24.526,44.757z"/>
		</g>
		<g>
			<path fill="#FFFFFF" d="M76.593,21.255c-0.075-1.433-0.882-2.974-1.61-3.94c-1.547-2.045-4.258-3.366-6.902-3.366
				c-0.548,0-1.09,0.056-1.607,0.167c-5.484,1.175-10.863,2.985-16.029,5.379l5.139,2.578c3.851-1.559,7.799-2.798,11.813-3.656
				c1.365-0.296,3.223,0.419,4.074,1.55c0.428,0.565,0.719,1.28,0.732,1.529c0.182,3.302,0.104,6.65-0.237,9.952l-0.038,0.378
				c-0.105,1.028-0.214,2.068-0.33,3.108l-0.736,5.314c-0.075,0.428-0.154,0.855-0.239,1.28c-0.876,4.38-1.869,8.265-3.044,11.88
				c-1.122,3.457-2.607,7.066-4.479,10.96l5.354-1.091c1.317-2.952,2.42-5.773,3.308-8.514c1.075-3.308,2.004-6.82,2.83-10.696
				l0.967-5.367c0.305-2.156,0.527-4.318,0.744-6.425l0.041-0.378C76.704,28.369,76.789,24.786,76.593,21.255z"/>
		</g>
		<g>
			<path fill="#FFFFFF" d="M54.141,22.65l-4.98-2.558c-8.871-4.251-15.325-5.751-15.56-5.804c-1.849-0.469-3.526-0.527-4.951-0.176
				c-5.558,1.356-5.708,6.938-5.798,10.269l-0.004,0.152c-0.105,3.891-0.123,8.379,0.42,13.011l4.075-3.99
				c-0.19-3.138-0.173-6.173-0.098-8.9l0.004-0.152c0.11-4.102,0.497-5.64,2.448-6.117c0.271-0.067,0.579-0.1,0.92-0.1
				c0.561,0,1.203,0.091,1.956,0.278c0.056,0.015,4.821,1.122,11.687,4.125l4.922,2.32c7.688,3.891,14.592,8.681,20.598,14.241
				l0.716-5.271C65.551,29.708,60.084,25.911,54.141,22.65z"/>
		</g>
	</g>
	<g>
		<path fill="#FFFFFF" d="M86.92,53.055c-2.947-4.721-6.419-9.167-10.327-13.27l-1.028,5.408c2.828,3.211,5.395,6.616,7.623,10.189
			c0.457,0.732,0.563,1.535,0.313,2.392c-0.372,1.271-1.474,2.504-2.81,3.144c-1.146,0.548-2.559,0.952-3.924,1.342
			c-0.563,0.158-1.119,0.319-1.654,0.486c-1.146,0.354-2.342,0.68-3.65,0.987c-1.16,0.271-2.357,0.547-3.574,0.809l-5.347,0.993
			c-0.366,0.053-0.735,0.103-1.103,0.149c-4.027,0.519-8.076,0.778-12.09,0.778c-3.362-0.003-6.99-0.308-10.979-0.896l2.761,4.799
			c2.905,0.324,5.646,0.494,8.273,0.498c3.475,0,7.017-0.193,10.553-0.574l5.49-0.775c2.408-0.435,4.787-0.974,7.021-1.498
			c1.412-0.334,2.704-0.683,3.946-1.068c0.507-0.158,1.03-0.309,1.56-0.461c1.541-0.438,3.131-0.894,4.613-1.6
			c2.452-1.172,4.418-3.425,5.133-5.883C88.32,56.957,88.036,54.841,86.92,53.055z"/>
	</g>
</g>
</svg>
