<?xml version="1.0" encoding="utf-8"?>
<!-- Generator: Adobe Illustrator 15.1.0, SVG Export Plug-In . SVG Version: 6.00 Build 0)  -->
<!DOCTYPE svg PUBLIC "-//W3C//DTD SVG 1.1//EN" "http://www.w3.org/Graphics/SVG/1.1/DTD/svg11.dtd">
<svg version="1.1" id="圖層_1" xmlns="http://www.w3.org/2000/svg" xmlns:xlink="http://www.w3.org/1999/xlink" x="0px" y="0px"
	 width="100px" height="100px" viewBox="0 0 100 100" enable-background="new 0 0 100 100" xml:space="preserve">
<g>
	<path fill="#FFFFFF" d="M76.684,24.885c-10.815-1.368-18-6.779-22.16-11.15c-2.457-2.584-6.588-2.584-9.046,0
		c-4.16,4.371-11.344,9.782-22.16,11.15c-4.529,0.571-7.729,4.737-7.175,9.267c1.386,11.37,4.752,30.264,11.197,37.307
		c5.742,6.275,12.964,11.814,17.692,15.164c2.977,2.109,6.961,2.109,9.94,0c4.727-3.35,11.95-8.889,17.692-15.164
		c6.444-7.043,9.81-25.937,11.194-37.307C84.412,29.622,81.213,25.456,76.684,24.885z M75.254,36.12
		c-0.561,4.11-1.638,11.3-2.927,16.28c-2.429,9.369-4.749,12.629-5.632,13.597c-3.863,4.219-11.246,9.996-14.756,12.662
		c-1.146,0.87-2.733,0.87-3.879,0c-3.507-2.666-10.893-8.443-14.754-12.662c-0.885-0.968-3.205-4.228-5.634-13.597
		c-1.289-4.98-2.367-12.17-2.927-16.28c-0.237-1.734,0.914-3.363,2.634-3.694c9.205-1.781,16.037-5.982,20.771-10.081
		c1.061-0.914,2.637-0.914,3.698,0c4.733,4.099,11.565,8.3,20.771,10.081C74.34,32.757,75.491,34.386,75.254,36.12z"/>
	<path fill="#FFFFFF" d="M59.932,43.116L49.801,53.152l-6.923-5.633c-1.301-1.055-3.211-0.858-4.266,0.439
		c-1.061,1.301-0.864,3.211,0.437,4.269l9.038,7.354c0.56,0.454,1.236,0.68,1.913,0.68c0.775,0,1.547-0.296,2.137-0.879
		l12.066-11.953c1.189-1.181,1.197-3.1,0.021-4.292C63.043,41.947,61.121,41.938,59.932,43.116z"/>
</g>
</svg>
