<?xml version="1.0" encoding="utf-8"?>
<!-- Generator: Adobe Illustrator 15.1.0, SVG Export Plug-In . SVG Version: 6.00 Build 0)  -->
<!DOCTYPE svg PUBLIC "-//W3C//DTD SVG 1.1//EN" "http://www.w3.org/Graphics/SVG/1.1/DTD/svg11.dtd">
<svg version="1.1" id="圖層_1" xmlns="http://www.w3.org/2000/svg" xmlns:xlink="http://www.w3.org/1999/xlink" x="0px" y="0px"
	 width="100px" height="100px" viewBox="0 0 100 100" enable-background="new 0 0 100 100" xml:space="preserve">
<g>
	<g>
		<g>
			<path fill="#FFFFFF" d="M92.936,38.019c0-1.84-1.916-3.056-3.58-2.279l-5.09,2.373c-3.322,1.55-7.175,1.646-10.572,0.267
				c-0.029-0.012-0.057-0.023-0.086-0.035l-10.604-3.858c-5.262-1.916-10.875-0.091-14.107,3.938l-3.19-3.337
				c1.037-2.426,1.614-5.095,1.614-7.896c0-11.098-9.029-20.124-20.127-20.124c-11.098,0-20.128,9.025-20.128,20.123
				s9.029,20.127,20.127,20.127c2.769,0,5.405-0.563,7.808-1.576l6.428,6.797l-6.223,2.9c-3.782,1.764-5.414,6.252-3.653,10.031
				c0.794,1.698,2.159,3.018,3.87,3.746c-0.542,1.781-0.407,3.674,0.384,5.373c1.28,2.745,4.008,4.355,6.853,4.355
				c0.422,0,0.847-0.037,1.269-0.107c0.053,0.926,0.275,1.854,0.691,2.745c1.497,3.211,4.907,4.808,8.115,4.251
				c0.057,0.938,0.287,1.866,0.697,2.742c1.758,3.773,6.258,5.408,10.031,3.65l13.107-6.111c6.037-2.815,11.313-6.801,15.68-11.836
				l0.072-0.086c0.396-0.457,0.613-1.043,0.613-1.648C92.936,65.289,92.936,47.98,92.936,38.019z M27.192,42.288
				c-8.323,0-15.094-6.773-15.094-15.097c0-8.324,6.771-15.094,15.094-15.094c8.323,0,15.094,6.771,15.094,15.094
				C42.286,35.514,35.515,42.288,27.192,42.288z M39.458,43.134c1.339-1.028,2.543-2.224,3.583-3.554l8.07,8.44l-4.879,2.276
				L39.458,43.134z M74.441,81.555l-13.109,6.113c-1.254,0.586-2.757,0.041-3.344-1.216c-0.588-1.263-0.043-2.757,1.22-3.347
				l4.56-2.127c1.26-0.586,1.805-2.082,1.219-3.343c-0.59-1.257-2.086-1.802-3.346-1.216c-0.968,0.451-8.154,3.803-9.121,4.254
				c-1.258,0.586-2.753,0.041-3.339-1.219c-0.586-1.257-0.041-2.757,1.214-3.344l4.561-2.123c1.26-0.59,1.802-2.086,1.216-3.346
				c-0.586-1.258-2.083-1.806-3.343-1.217c-4.975,2.32-3.554,1.658-9.118,4.254c-1.257,0.586-2.757,0.041-3.343-1.219
				c-0.589-1.257-0.041-2.757,1.216-3.343l9.119-4.255c1.259-0.586,1.804-2.082,1.218-3.342c-0.588-1.261-2.083-1.803-3.343-1.217
				l-9.12,4.254c-1.26,0.586-2.754,0.045-3.343-1.219c-0.589-1.26-0.044-2.754,1.216-3.343l23.965-11.174
				c1.26-0.589,1.805-2.086,1.217-3.346c-0.587-1.257-2.084-1.802-3.344-1.216l-3.24,1.512l-3.507-3.665
				c1.89-2.851,5.511-4.116,8.862-2.897l10.563,3.844c4.676,1.887,9.975,1.749,14.549-0.384l1.512-0.703c0,9.615,0,22.884,0,29.628
				C84.113,75.809,79.587,79.158,74.441,81.555z"/>
		</g>
	</g>
	<g>
		<g>
			<path fill="#FFFFFF" d="M36.517,20.382c-0.981-0.981-2.575-0.981-3.557,0l-8.285,8.282l-3.252-3.252
				c-0.981-0.981-2.575-0.981-3.557,0c-0.984,0.981-0.984,2.575,0,3.56l5.03,5.03c0.981,0.984,2.575,0.984,3.557,0l10.063-10.063
				C37.501,22.958,37.501,21.364,36.517,20.382z"/>
		</g>
	</g>
</g>
</svg>
