<?xml version="1.0" encoding="utf-8"?>
<!-- Generator: Adobe Illustrator 15.1.0, SVG Export Plug-In . SVG Version: 6.00 Build 0)  -->
<!DOCTYPE svg PUBLIC "-//W3C//DTD SVG 1.1//EN" "http://www.w3.org/Graphics/SVG/1.1/DTD/svg11.dtd">
<svg version="1.1" id="圖層_1" xmlns="http://www.w3.org/2000/svg" xmlns:xlink="http://www.w3.org/1999/xlink" x="0px" y="0px"
	 width="100px" height="100px" viewBox="0 0 100 100" enable-background="new 0 0 100 100" xml:space="preserve">
<g>
	<path fill="#FFFFFF" stroke="#FFFFFF" stroke-width="1.875" stroke-miterlimit="10" d="M77.148,33.326c0,1.872,0,3.754,0,5.635
		c-2.221,9.541-7.094,17.199-11.91,24.432c-2.413,3.64-4.704,7.375-7.314,10.854c-2.537,3.426-5.127,6.816-8.145,9.814
		c-5.203-6.895-10.67-13.595-15.442-20.871c-4.749-7.233-9.161-15.124-11.484-24.646c0-1.597,0-3.204,0-4.809
		c1.046-6.958,4.172-13.074,8.555-17.12c4.421-4.083,10.872-7.189,18.176-7.305C64.706,9.061,75.088,20.218,77.148,33.326z
		 M56.877,70.076c4.365-6.143,8.77-12.495,12.328-19.428c1.872-3.629,3.718-7.748,4.393-11.688
		c1.276-7.641-2.371-14.377-6.268-18.584c-3.656-3.921-8.874-7.063-15.246-7.516c-9.035-0.647-15.334,3.044-19.418,7.516
		c-3.39,3.693-6.521,9.231-6.478,15.877c0.035,4.384,1.934,9.097,3.762,12.727c5.537,11.014,13.125,20.846,19.828,29.865
		C52.333,76.421,54.586,73.316,56.877,70.076z"/>
	<path fill="#FFFFFF" stroke="#FFFFFF" stroke-width="1.875" stroke-miterlimit="10" d="M48.73,21.408
		c5.555-0.498,10.348,2.183,12.745,4.809c3.406,3.737,5.271,11.795,2.094,17.75c-0.887,1.668-2.82,4.011-4.596,5.227
		c-9.534,6.542-23.127,0.524-24.211-10.649c-0.727-7.241,3.311-13.081,7.723-15.451C44.028,22.259,46.202,21.655,48.73,21.408z
		 M38.098,36.663c0.035,7.216,6.691,12.832,14.2,11.688c4.97-0.737,9.246-5.263,9.604-10.854c0.513-8.076-6.01-13.702-13.793-12.521
		C42.51,25.807,38.054,30.619,38.098,36.663z"/>
	<g>
		<path fill="#FFFFFF" stroke="#FFFFFF" stroke-width="1.875" stroke-miterlimit="10" d="M70.277,77.007
			c-2.543-1.141-5.161-1.515-7.689-2.196l-2.3,3.055c2.394,0.22,4.386,0.514,6.866,1.228c1.738,0.505,5.148,1.411,5.005,3.337
			c-0.07,1.135-2.396,2.174-3.958,2.725c-8.607,2.992-20.856,2.813-30.697,1.242c-3.434-0.541-9.486-1.525-9.398-4.172
			c0.053-1.836,3.158-2.608,5.007-3.132c2.449-0.69,4.163-0.995,6.788-1.241l-2.147-2.918c-5.142,0.379-18.425,5.062-11.121,10.842
			c7.028,5.545,28.428,6.229,39.902,2.918c3.727-1.074,9.176-2.776,8.971-6.682C75.373,79.563,72.373,77.948,70.277,77.007z"/>
	</g>
</g>
</svg>
