<?xml version="1.0" encoding="utf-8"?>
<!-- Generator: Adobe Illustrator 15.1.0, SVG Export Plug-In . SVG Version: 6.00 Build 0)  -->
<!DOCTYPE svg PUBLIC "-//W3C//DTD SVG 1.1//EN" "http://www.w3.org/Graphics/SVG/1.1/DTD/svg11.dtd">
<svg version="1.1" id="圖層_1" xmlns="http://www.w3.org/2000/svg" xmlns:xlink="http://www.w3.org/1999/xlink" x="0px" y="0px"
	 width="1236.108px" height="933.283px" viewBox="0 0 1236.108 933.283" enable-background="new 0 0 1236.108 933.283"
	 xml:space="preserve">
<g>
	<path opacity="0.3" fill="#FFFFFF" d="M246.299,826.293c-12.916-32.756-11.793-70.771-31.103-101.294
		c-23.119-36.538-64.801-56.723-89.748-91.93c-36.867-52.026-55.039-117.154-47.623-180.64c3.568-30.59,13.044-60.84,31.012-85.124
		c27.693-37.433,72.644-57.108,117.563-66.645c66.854-14.191,144.157-6.242,207.592-33.332
		c35.005-14.957,34.503-57.469,45.593-88.875c12.545-35.526,34.608-67.03,61.981-91.748
		c50.416-45.514,120.118-68.974,187.692-61.115c72.134,8.397,147.653,58.582,166.218,135.049
		c8.587,35.371,4.842,74.122,21.41,106.489c20.791,40.607,64.753,70.242,98.566,98.354c37.347,31.046,66.653,72.563,83.616,118.736
		c0.194,0.517,0.385,1.045,0.57,1.566c28.77,79.799-0.612,168.978-70.4,217.191c0,0-148.493,102.579-148.498,102.583
		C730.067,909.652,562.815,957.005,385.643,921.715c-38.336-7.633-107.707-43.62-129.402-76.141
		C252.146,839.439,248.931,832.977,246.299,826.293"/>
	<path opacity="0.3" fill="#FFFFFF" d="M203.616,300.785c-1.604,35.175,11.782,70.774,3.41,105.908
		c-10.027,42.062-42.914,74.666-55.102,116.059c-18.012,61.167-14.091,128.67,13.504,186.323
		c13.293,27.782,32.064,53.326,56.932,70.473c38.332,26.436,87.234,30.477,132.819,24.938
		c67.845-8.246,138.397-40.825,207.188-35.762c37.961,2.804,51.268,43.182,71.941,69.298c23.384,29.541,54.466,52.193,88.374,66.702
		c62.447,26.714,135.992,26.31,197.369-3.028c65.518-31.327,120.689-103.284,113.463-181.638
		c-3.34-36.245-19.447-71.688-14.266-107.679c6.506-45.155,38.488-87.439,61.364-124.995
		c25.266-41.478,39.531-90.251,40.608-139.429c0.018-0.554,0.027-1.115,0.032-1.669c1.35-84.815-55.354-159.653-137.002-182.642
		c0,0-173.728-48.903-173.735-48.903c-176.277-49.628-349.852-40.21-506.016,50.606c-33.791,19.647-87.75,76.179-97.732,113.978
		C204.885,286.453,203.938,293.61,203.616,300.785"/>
	<path opacity="0.1" fill="#FFFFFF" d="M54.55,372.015C-7.499,613.687-49.593,755.89,118.268,850.609
		c77.849,43.926,351.3,3.029,452.165,17.607c233.974,33.818,542.082,82.141,652.772-45.619
		c39.921-46.078-26.327-217.035-17.753-276.367c32.353-223.844,52.567-498.967-265.791-544.98
		c-93.927-13.574-225.682,87.485-361.907,106.186c-167.003,22.924-270.791-75.216-401.646,26.943
		C111.71,184.654,73.855,296.818,54.55,372.015z"/>
	<path opacity="0.3" fill="#FFFFFF" d="M1011.055,396.064c41.479,161.557,69.618,256.618-42.595,319.937
		c-52.042,29.365-234.843,2.026-302.271,11.771c-156.41,22.606-362.378,54.91-436.374-30.496
		c-26.687-30.803,17.6-145.088,11.868-184.751c-21.628-149.638-35.142-333.556,177.68-364.314
		c62.789-9.076,150.866,58.482,241.933,70.983c111.64,15.324,181.022-50.28,268.497,18.012
		C972.843,270.815,998.148,345.795,1011.055,396.064z"/>
	<g>
		<path opacity="0.5" fill="#FFFFFF" d="M1016.973,677.372c-5.544-11.214-28.068-20.222-38.147-22.261
			c-53.806-10.891-110.163-9.369-164.663-9.187c-59.358,0.198-115.989,10.271-174.856,14.936
			c-30.613,2.42-62.965-1.937-93.649-3.064c-50.525-1.857-101.038-4.036-151.543-6.534c-43.547-2.156-88.742,2.678-127.152,28.132
			c-4.364,2.894-8.773,6.39-10.762,11.582c-12.476,32.614,143.028,28.514,163.286,29.074c102.195,2.823,204.464,4.28,306.671,1.344
			c75.993-2.18,155.195-2.046,230.561-13.417c16.665-2.515,39.349-3.416,53.749-13.816
			C1018.43,688.405,1019.578,682.644,1016.973,677.372"/>
		<path fill="none" stroke="#BDDCF2" stroke-width="2.176" stroke-miterlimit="10" d="M985.087,221.094
			c1.409,0,2.863,0.028,4.353,0.085"/>
		<path fill="none" stroke="#BDDCF2" stroke-width="2.176" stroke-miterlimit="10" stroke-dasharray="8.7367,8.7367" d="
			M998.153,221.786c28.104,2.852,62.412,14.724,58.398,39.028c-6.393,38.746-178.599,24.459-219.731,24.861
			c-82.717,0.81-166.304,1.12-247.402,19.205c-19.723,4.396-47.966,14.104-45.82,39.265c0.749,8.788,5.929,16.74,12.519,22.693
			c23.684,21.388,56.683,23.437,87.319,27.193c46.335,5.679,266.735-1.893,338.778,21.733c14.19,4.65,31.917,10.647,32.507,30.915
			c1.503,51.537-126.487,48.997-164.876,49.979c-102.467,2.613-205.05,1.575-307.518-0.445
			c-82.809-1.634-165.879-3.08-248.555-8.424c-30.816-1.993-81.222-2.592-104.725-25.729c-13.143-12.934-14.867-36.453,5.913-48.468
			c14.644-8.47,57.606-4.765,74.145-6.188c50.003-4.301,34.882-34.634-5.645-38.517"/>
		<path fill="none" stroke="#BDDCF2" stroke-width="2.176" stroke-miterlimit="10" d="M259.104,368.578
			c-1.424-0.064-2.874-0.1-4.351-0.1"/>
		<path fill="#F0FAFF" d="M988.021,258.781l-13.195-69.745c-0.79-4.171-5.794-5.922-9.007-3.153l-53.806,46.298
			c-3.216,2.77-2.23,7.979,1.774,9.379l66.997,23.446C984.787,266.408,988.806,262.947,988.021,258.781"/>
		<path fill="#ABD4ED" d="M977.854,257.72c-0.378,0-0.759-0.063-1.125-0.191l-55.106-19.286c-1.153-0.404-2.009-1.398-2.233-2.593
			c-0.228-1.202,0.205-2.44,1.13-3.236l44.256-38.08c0.921-0.795,2.206-1.041,3.361-0.637c1.152,0.402,2.009,1.398,2.234,2.599
			l10.853,57.363c0.228,1.201-0.209,2.438-1.131,3.233C979.464,257.431,978.662,257.72,977.854,257.72 M924.577,234.667
			l52.069,18.219l-10.253-54.203L924.577,234.667z"/>
		<path fill="#ABD4ED" d="M953.929,234.299L953.929,234.299c-1.045-0.364-1.614-1.486-1.297-2.543l5.464-19.172
			c0.533-1.768,2.433-2.737,4.175-2.127c1.745,0.61,2.627,2.551,1.938,4.266l-7.679,18.394
			C956.117,234.144,954.972,234.664,953.929,234.299"/>
		<path fill="#ABD4ED" d="M954.329,239.526c-0.383,1.096-1.584,1.675-2.682,1.292c-1.099-0.385-1.674-1.585-1.291-2.682
			c0.385-1.096,1.583-1.675,2.683-1.292C954.135,237.23,954.712,238.429,954.329,239.526"/>
		<path fill="#F0FAFF" d="M250.562,345.018l-43.378-21.592c-2.591-1.294-5.607,0.71-5.429,3.6l2.988,48.363
			c0.178,2.889,3.418,4.505,5.834,2.901l40.389-26.769C253.379,349.919,253.154,346.309,250.562,345.018"/>
		<path fill="#ABD4ED" d="M245.794,350.107c-0.157,0.208-0.349,0.389-0.57,0.536l-33.218,22.019
			c-0.694,0.46-1.589,0.519-2.333,0.145c-0.749-0.37-1.242-1.115-1.293-1.948l-2.461-39.779c-0.05-0.831,0.345-1.629,1.042-2.095
			c0.692-0.459,1.586-0.512,2.333-0.142l35.682,17.761c0.745,0.371,1.238,1.116,1.289,1.949
			C246.301,349.117,246.128,349.669,245.794,350.107 M211.279,369.58l31.388-20.805l-33.713-16.785L211.279,369.58z"/>
		<path fill="#ABD4ED" d="M223.185,353.466L223.185,353.466c-0.628,0.416-1.475,0.264-1.918-0.348l-8.173-10.878
			c-0.744-1.021-0.485-2.453,0.564-3.149c1.052-0.699,2.474-0.378,3.121,0.706l6.837,11.763
			C224.003,352.207,223.813,353.047,223.185,353.466"/>
		<path fill="#ABD4ED" d="M226.191,355.401c0.438,0.662,0.261,1.554-0.403,1.991c-0.66,0.44-1.551,0.258-1.992-0.403
			c-0.435-0.659-0.256-1.551,0.406-1.992C224.864,354.56,225.755,354.74,226.191,355.401"/>
		<circle fill="none" stroke="#BDDCF2" stroke-width="2.176" stroke-miterlimit="10" cx="280.612" cy="438.935" r="3.615"/>
		<circle fill="none" stroke="#BDDCF2" stroke-width="2.176" stroke-miterlimit="10" cx="816.834" cy="372.09" r="3.613"/>
		<path fill="none" stroke="#BDDCF2" stroke-width="2.176" stroke-miterlimit="10" d="M535.947,270.858
			c0,1.998-1.618,3.616-3.617,3.616c-1.992,0-3.609-1.618-3.609-3.616c0-1.994,1.617-3.612,3.609-3.612
			C534.329,267.246,535.947,268.864,535.947,270.858z"/>
		<circle fill="none" stroke="#BDDCF2" stroke-width="2.176" stroke-miterlimit="10" cx="527.997" cy="545.589" r="3.613"/>
		
			<line fill="none" stroke="#BDDCF2" stroke-width="2.176" stroke-linecap="round" stroke-linejoin="round" stroke-miterlimit="10" x1="612.188" y1="332.875" x2="612.188" y2="341.047"/>
		
			<line fill="none" stroke="#BDDCF2" stroke-width="2.176" stroke-linecap="round" stroke-linejoin="round" stroke-miterlimit="10" x1="616.276" y1="336.962" x2="608.101" y2="336.962"/>
		
			<line fill="none" stroke="#BDDCF2" stroke-width="2.176" stroke-linecap="round" stroke-linejoin="round" stroke-miterlimit="10" x1="758.872" y1="228.458" x2="758.872" y2="236.632"/>
		
			<line fill="none" stroke="#BDDCF2" stroke-width="2.176" stroke-linecap="round" stroke-linejoin="round" stroke-miterlimit="10" x1="762.96" y1="232.542" x2="754.786" y2="232.542"/>
		
			<line fill="none" stroke="#BDDCF2" stroke-width="2.176" stroke-linecap="round" stroke-linejoin="round" stroke-miterlimit="10" x1="985.81" y1="448.916" x2="985.81" y2="457.087"/>
		
			<line fill="none" stroke="#BDDCF2" stroke-width="2.176" stroke-linecap="round" stroke-linejoin="round" stroke-miterlimit="10" x1="989.894" y1="453.001" x2="981.722" y2="453.001"/>
		<path fill="#26387A" d="M685.555,682.548c0,0-15.214,6.488-15.2,9.738c0.01,1.859,20.917-0.807,22.178-2.066
			c2.016-2.014-0.816-7.392-0.816-7.392L685.555,682.548z"/>
		<path fill="#FFB288" d="M684.58,673.477l0.979,9.352c0,0,0.499,1.513,2.63,1.678c2.127,0.169,3.528-1.678,3.528-1.678
			l-0.754-11.706"/>
		<path fill="#26387A" d="M711.146,458.973c5.534,22.294,3.48,33.62-4.628,50.438c-4.911,56.548-8.343,112.874-14.949,168.011
			l-6.992,0.399c-15.873-53.68-30.48-133.933-28.617-207.289"/>
		<path fill="none" stroke="#0061A6" stroke-width="1.088" stroke-miterlimit="10" d="M707.698,466.635
			c2.021,5.179,2.529,11.006,2.352,16.515c-0.27,8.459-3.708,16.118-5.933,24.141c-2.972,10.698-3.2,21.356-4.01,32.323
			c-1.272,17.163-2.572,34.325-3.88,51.48c-2.133,27.983-4.286,55.968-6.454,83.948c-0.063,0.83-0.13,1.662-0.193,2.492"/>
		<path fill="#26387A" d="M746.211,684.724c0,0-15.214,6.488-15.199,9.738c0.007,1.86,20.917-0.805,22.177-2.064
			c2.017-2.016-0.815-7.394-0.815-7.394L746.211,684.724z"/>
		<path fill="#FFB288" d="M745.236,675.652l0.978,9.353c0,0,0.502,1.512,2.632,1.679c2.126,0.167,3.529-1.679,3.529-1.679
			l-0.756-11.704"/>
		<path fill="#26387A" d="M761.73,457.087c6.996,21.878,5.698,33.313-1.276,50.63c-1.161,56.752-5.064,116.01-8.008,171.46h-7.185
			c-19.394-52.511-40.167-133.588-43.162-206.91"/>
		<path fill="none" stroke="#0061A6" stroke-width="1.088" stroke-miterlimit="10" d="M758.265,466.149
			c0,0,8.112,18.98-5.599,45.635c-1.581,25.157-2.396,167.396-2.396,167.396"/>
		<path fill="none" stroke="#0061A6" stroke-width="1.088" stroke-miterlimit="10" d="M738.202,472.161
			c1.388,2.155,3.589,3.679,5.95,4.628c2.362,0.945,4.895,1.365,7.417,1.679c2.998,0.372,6.024,0.612,9.041,0.463"/>
		<path fill="none" stroke="#0061A6" stroke-width="1.088" stroke-miterlimit="10" d="M739.195,475.716
			c2.595,2.353,5.899,3.797,9.294,4.577c3.396,0.785,6.9,0.943,10.383,0.984"/>
		<path fill="#FFB288" d="M678.702,351.339c-24.192,42.101-50.235,80.227-65.675,126.261l-4.603-2.445
			c1.176-42.744,15.027-104.892,33.219-143.589"/>
		<path fill="#D9F0FF" d="M666.879,307.378c0,0-7.489,2.098-16.287,7.952c-8.282,5.511-14.554,13.706-18.81,22.697
			c-4.254,8.99-6.602,18.778-8.099,28.612c0,0,10.127,5.059,21.734,6.512c11.605,1.449,23.953,0,23.953,0"/>
		<path fill="#D9F0FF" d="M648.84,332.261c-2.573,45.531-0.611,92.364,0.544,136.656c0,0,15.875,4.225,54.451,4.225
			c38.43,0,63.594-11.717,63.594-11.717c-7.447-45.515-13.367-101.364-31.602-138.834c0,0-20.574-22.195-40.875-23.106
			c-4.083-0.183-8.155,1.313-12.046,3.122c-2.865,1.331-16.027,4.545-16.027,4.545L648.84,332.261z"/>
		<path fill="none" stroke="#94C1F2" stroke-width="1.088" stroke-miterlimit="10" d="M648.623,336.319
			c-1.008,8.752-1.008,35.771-1.008,35.771"/>
		
			<path fill="none" stroke="#B4E8FD" stroke-width="10.8801" stroke-linecap="round" stroke-linejoin="round" stroke-miterlimit="10" d="
			M686.99,483.247c64.44-7.146,91.475,74.532,106.146,106.221c34.688,74.897,165.558,66.543,225.199,66.543
			c78.111,0,112.395,26.327,75.934,40.133"/>
		<path fill="#FDAE2B" d="M709.196,486.935c0,33.149-25.09,53.158-46.533,53.158h-35.172V433.775h35.172
			C684.106,433.775,709.196,453.783,709.196,486.935"/>
		<path fill="#EF8417" d="M691.072,486.935c0,32.394-19.183,58.655-42.844,58.655h-38.813v-117.31h38.813
			C671.89,428.281,691.072,454.541,691.072,486.935"/>
		<g opacity="0.5">
			<g>
				<defs>
					<rect id="SVGID_1_" x="675.151" y="454.888" width="32.271" height="36.318"/>
				</defs>
				<clipPath id="SVGID_2_">
					<use xlink:href="#SVGID_1_"  overflow="visible"/>
				</clipPath>
				<path clip-path="url(#SVGID_2_)" fill="#FDAE2B" d="M699.669,454.89c-8.391,11.437-16.59,23.016-24.516,34.783
					c1.121-0.22,2.182-0.772,2.999-1.574c-0.001,0.885-1.404,2.408-0.162,2.976c1.241,0.565,2.555-0.891,3.851-0.493
					c1.221-0.285,2.354-1.81,3.245-2.688c-0.397,0.909-0.485,1.563-0.544,2.052c8.563-3.327,16.219-11.312,22.88-17.736
					C705.785,465.676,703.085,459.881,699.669,454.89"/>
			</g>
		</g>
		<path fill="#FFC840" d="M655.032,486.935c0,32.394-19.184,58.655-42.844,58.655c-23.664,0-42.844-26.262-42.844-58.655
			c0-32.395,19.18-58.654,42.844-58.654C635.849,428.281,655.032,454.541,655.032,486.935"/>
		<path fill="#EF8417" d="M615.769,507.72c0,4.813-3.287,8.716-7.342,8.716c-4.06,0-7.348-3.902-7.348-8.716
			s3.288-8.717,7.348-8.717C612.481,499.003,615.769,502.907,615.769,507.72"/>
		<path fill="#EF8417" d="M615.769,466.149c0,4.813-3.287,8.72-7.342,8.72c-4.06,0-7.348-3.906-7.348-8.72
			c0-4.815,3.288-8.718,7.348-8.718C612.481,457.431,615.769,461.333,615.769,466.149"/>
		<path fill="#FFB288" d="M747.551,365.863c0,0,2.72,27.707-9.669,50.746c-10.593,19.7-31.639,45.199-48.642,59.254l-4.084-0.998
			c5.916-22.707,24.597-63.027,25.757-78.146c1.159-15.118,0.883-32.632,1.159-41.057"/>
		<path fill="#D9F0FF" d="M694.95,299.485c0,0,22.805,1.56,36.032,12.739c18.885,15.957,21.684,47.188,21.684,54.441
			c-5.707,6.167-18.187,6.486-27.279,6.486c-9.094,0-15.738-4.354-15.738-4.354l-1.854-34.45"/>
		<path fill="#FFB288" d="M686.813,471.493c-2.592,0.259-5.109,1.519-7.293,3.222c-1.998,1.562-4.454,4.17-4.196,5.367
			c0.272,1.256,3.544-1.158,3.942-0.671c0.397,0.487-5.603,9.552-4.475,10.231c1.13,0.682,6.237-7.536,6.237-7.536
			s-4.957,8.777-3.039,8.969c1.604,0.16,6.005-8.143,6.005-8.143s-3.721,7.424-2.447,7.702c1.274,0.278,4.726-7.112,4.726-7.112
			s-2.81,6.316-1.729,6.424c0.541,0.056,3.312-3.09,4.473-6.894c1.138-3.748,2.47-6.996,1.445-9.918"/>
		
			<line fill="none" stroke="#94C1F2" stroke-width="1.088" stroke-miterlimit="10" x1="710.603" y1="337.964" x2="710.603" y2="369.357"/>
		<path fill="#26387A" d="M647.695,270.53c-0.12,1.359-0.176,2.728-0.165,4.094c0.026,2.958,0.406,6.055,2.11,8.479
			c1.171,1.657,2.931,2.899,4.894,3.433c1.385,0.378,3.205,0.214,3.802-1.093c0.211-0.462,0.222-0.987,0.219-1.499
			c-0.018-5.058-1.003-10.114-2.89-14.813"/>
		<path fill="#FFB288" d="M682.103,273.382c-1.956-7.624-8.107-18.305-18.121-16.16c-6.284,1.346-12.076,5.626-13.924,11.624
			c-2.21,7.162,1.371,15.492,5.662,21.336c1.586,2.16,3.457,4.211,5.903,5.478c5.798,2.995,13.619,0.538,17.556-4.453
			C683.111,286.215,683.647,279.418,682.103,273.382"/>
		<path fill="#FFB288" d="M668.063,293.323l3.27,11.951l-4.45,2.104c0,0,3.395,4.517,10.111,3.543
			c13.663-1.968,17.957-11.437,17.957-11.437l-7.709-0.803l-8.539-14.556"/>
		<path fill="#26387A" d="M688.769,265.066c-0.958-5.242-4.692-9.69-9.244-12.456c-8.086-4.911-19.595-5.307-26.794,1.459
			c-4.099,3.852-11.476,17.509-2.661,20.218c2.753,0.848,5.588-0.827,7.98-2.429c2.437-1.629,4.875-3.257,7.312-4.885
			c0.873-0.587,1.807-1.192,2.855-1.232c1.724-0.07,3.153,1.424,3.769,3.034c0.619,1.607,0.665,3.372,1.064,5.054
			c0.286,1.183,0.805,2.401,1.832,3.056c1.026,0.658,2.648,0.467,3.166-0.638c0.361-0.766,0.106-1.662,0.093-2.507
			c-0.018-0.845,0.459-1.886,1.303-1.847c0.302,0.013,0.579,0.17,0.819,0.353c2.127,1.659,1.435,4.979,2.144,7.582
			c0.091,0.34-0.621,5.609-0.385,5.876C688.816,284.126,689.452,268.817,688.769,265.066"/>
		<path fill="#FFB288" d="M678.72,272.564c-0.154-0.964,0.764-1.855,1.735-1.958c0.97-0.104,1.913,0.387,2.661,1.012
			c1.277,1.066,2.196,2.627,2.227,4.29c0.019,1.301-0.5,2.561-1.211,3.651c-0.487,0.742-1.111,1.456-1.955,1.723
			c-1.082,0.34-2.295-0.153-3.068-0.978"/>
		<path fill="#26387A" d="M436.407,682.216c0,0,14.672,2.448,15.078,5.67c0.23,1.847-20.567,4.049-21.98,2.959
			c-2.256-1.738,0.512-8.252,0.512-8.252L436.407,682.216z"/>
		<path fill="#FFB288" d="M435.241,673.219l1.201,9.276c0,0-0.307,1.563-2.393,2.006c-2.091,0.438-3.715-1.216-3.715-1.216
			l-1.73-11.578"/>
		<path fill="#26387A" d="M380.386,461.837c-2.623,22.822-2.765,33.79,7.434,49.424c4.834,22.085,12.253,44.686,17.862,67.291
			c-2.416,26.998,14.511,69.999,23.616,100.713l6.58-1.125c8.848-55.274,12.115-140.048,4.175-214.25"/>
		<path fill="none" stroke="#0061A6" stroke-width="1.088" stroke-miterlimit="10" d="M384.668,492.759
			c0,0,25.244,80.149,25.244,84.5s0.691,19.314,1.809,29.016c2.052,17.77,18.154,70.152,18.154,70.152"/>
		<polygon fill="#0061A6" points="429.089,680.498 428.071,676.496 436.556,676.179 436.667,679.873 		"/>
		<path fill="#26387A" d="M322.29,682.673c0,0,11.483,8.293,10.464,11.213c-0.583,1.675-19.258-5.244-20.002-6.77
			c-1.189-2.44,3.929-6.828,3.929-6.828L322.29,682.673z"/>
		<path fill="#FFB288" d="M325.104,674.504l-2.899,8.423c0,0-0.924,1.204-2.889,0.693c-1.972-0.506-2.66-2.606-2.66-2.606
			l3.427-10.605"/>
		<path fill="#26387A" d="M331.069,457.087c-6.994,21.878-5.695,33.313,1.275,50.63c0.427,20.729,0.633,41.704,0.872,62.682
			c-14.765,36.963-17.106,70.132-15.237,105.33l7.124,2.641c0,0,42.402-73.907,50.201-103.126
			c8.944-33.516,14.023-69.35,15.398-102.977"/>
		<path fill="none" stroke="#0061A6" stroke-width="1.088" stroke-miterlimit="10" d="M332.817,461.837
			c0,0-7.714,22.581,2.403,44.34c0,6.073,3.48,56.574,2.101,64.375c-0.659,3.744-7.59,21.593-12.218,38.971
			c-5.123,19.22-6.205,64.551-6.205,64.551"/>
		<polygon fill="#0061A6" points="316.655,675.723 317.785,670.966 326.899,675.207 325.104,679.279 		"/>
		<path fill="#EF9467" d="M449.674,288.103l-5.712-4.873v-10.102c0-1.57-2.128-10.977-4.039-10.977
			c-1.918,0-2.355-2.351-3.312-1.395c-0.956,0.961,0.781,11.584,0,12.371c-0.783,0.783-1.8-5.049-2.524-4.324
			c-0.726,0.725-0.786,5.001-0.786,7.188c0,2.186,1.751,6.216,3.485,7.951c1.731,1.732,9.404,10.027,9.404,10.027L449.674,288.103z"
			/>
		<path fill="#D9F0FF" d="M446.812,284.871l-4.774,5.433c0,0,18.866,24.972,24.841,33.334c-5.451-1.91-13.271-6.692-17.797-9.659
			c-8.872-5.819-17.77-8.903-23.923-8.903c-13.069,0-6.229,43.071,8.929,49.378c28.756,4.32,60.986,1.587,65.923-8.521
			C507.325,330.952,465.176,295.665,446.812,284.871"/>
		<path fill="none" stroke="#94C1F2" stroke-width="1.088" stroke-miterlimit="10" d="M466.878,323.637
			c0,0,3.598,10.048,9.994,13.325"/>
		<path fill="#D9F0FF" d="M359.134,316.472c-34.281,38.503-33.76,104.693-33.76,149.683c0,0,25.165,17.182,63.591,17.182
			c38.577,0,54.454-9.471,54.454-9.471c1.152-45.587-6.977-65.245,0.543-140.647c0,0-12.268-28.144-18.804-28.144
			c-6.541,0-32.117-2.52-32.117-2.52L359.134,316.472z"/>
		<path fill="none" stroke="#94C1F2" stroke-width="1.088" stroke-miterlimit="10" d="M442.063,355.462
			c0,0,0.779-13.172,3.977-16.367"/>
		<path fill="#FFB288" d="M404.372,273.689c1.274-7.77,6.807-18.864,16.969-17.609c6.379,0.786,11.324,5.195,14.896,10.355
			c3.064,4.426,1.905,8.66-2.451,19.867c-1.391,2.287-4.388,6.385-6.712,7.859c-5.511,3.491-13.519,1.734-17.879-2.892
			C404.838,286.641,403.36,279.838,404.372,273.689"/>
		<path fill="#26387A" d="M405.729,272.74c1.464-0.218,0.01-1.169,0.656,0.163c0.413,0.85,0.537,1.099,1.364,1.374
			c0.813,0.271,0.831,1.018,1.507,1.521c1.056,0.788,1.958-0.282,2.403-1.19c0.824-1.684,0.8-3.714,0.605-5.533
			c-0.155-1.434-0.633-3.697,0.771-4.693c1.147-0.813,3.686,0.366,4.863,0.709c1.822,0.527,3.629,1.118,5.442,1.671
			c4.378,1.331,9.003,2.501,13.605,1.882c4.028-0.542,8.186-2.638,10.112-6.368c2.311-4.469-2.309-10.314-7.018-10.321
			c-1.231,0-2.402,0.5-3.606,0.746c-0.448,0.092-0.915,0.151-1.353,0.021c-1.025-0.304-1.48-1.457-2.062-2.358
			c-1.741-2.711-4.722-3.543-7.799-3.208c-3.487,0.382-6.46,2.058-9.78,2.962c-1.76,0.479-3.281,0.025-5.037,0.081
			c-1.813,0.06-3.674,1.248-4.472,2.921c-1.423-1.49-4.597,2.162-5.388,3.123c-3.478,4.228-4.574,10.319-4.667,15.66
			c-0.084,4.676,0.695,11.477,5.818,13.355c2.167,0.794,3.532,1.219,3.626-0.768c-0.951-2.061-1.171-6.148-1.367-7.865
			c-0.197-1.717,0.309-3.765,1.902-4.438"/>
		<path fill="#FFB288" d="M422.413,292.243l-1.115,11.741l3.858,1.091c0,0-2.039,5.27-8.77,6.166
			c-13.678,1.823-23.346-8.688-23.346-8.688l4.565-0.882l6.914-21.8"/>
		<path fill="#FFB288" d="M408.014,272.658c0.068-0.974-0.926-1.779-1.903-1.797c-0.975-0.02-1.871,0.552-2.562,1.24
			c-3.828,3.812,0.983,13.101,4.759,8.302"/>
		<path fill="#26387A" d="M433.808,286.097c-0.616,1.437-3.042,2.011-4.369,2.16c-6.439,0.71-11.777-3.449-17.94-4.212
			c-1.223-0.15-2.613-0.251-3.522,0.575c-0.863,0.784-0.945,2.09-0.966,3.253c-0.024,1.44-0.052,2.884,0.076,4.318
			c0.111,1.242,0.349,2.503,0.993,3.569c2.781,4.631,12.066,5.411,16.773,5.126c1.898-0.117,3.875-0.481,5.367-1.607
			c2.121-1.599,2.579-4.389,3.37-6.847C434.566,289.402,433.808,286.097,433.808,286.097"/>
		<path fill="#FFB288" d="M429.239,291.154c-0.204-0.135-0.441-0.25-0.685-0.25c-3.006,0-4.67-0.718-7.018-0.9
			c-0.399-0.029-0.81-0.058-1.192,0.06c-0.835,0.253-1.315,1.119-1.485,1.954c-0.169,0.848,0.252,1.498,1.024,1.88
			c1.389,0.692,2.961,0.94,4.505,0.982c1.35,0.04,3.111,0.154,4.224-0.755C429.247,293.604,430.183,291.833,429.239,291.154"/>
		
			<path fill="none" stroke="#B4E8FD" stroke-width="10.8801" stroke-linecap="round" stroke-linejoin="round" stroke-miterlimit="10" d="
			M400.937,461.074c-74.886-3.914-118.482,34.731-149.444,105.123c-40.181,91.35-96.348,98.646-121.644,98.145"/>
		<path fill="#FDAE2B" d="M372.205,467.173c2.756,33.036,29.421,50.887,50.791,49.104l35.054-2.922l-8.836-105.949l-35.055,2.922
			C392.788,412.11,369.448,434.133,372.205,467.173"/>
		<path fill="#EF8417" d="M390.267,465.666c2.693,32.282,23.99,56.858,47.569,54.889l38.677-3.225l-9.752-116.904l-38.675,3.229
			C404.507,405.619,387.574,433.386,390.267,465.666"/>
		<path fill="#FFC840" d="M426.183,462.67c2.693,32.28,23.992,56.856,47.571,54.889c23.577-1.964,40.511-29.731,37.817-62.011
			c-2.691-32.282-23.989-56.858-47.567-54.891C440.425,402.624,423.488,430.389,426.183,462.67"/>
		<path fill="#FDAE2B" d="M467.036,480.12c0.4,4.797,4,8.411,8.045,8.075c4.042-0.337,6.994-4.5,6.594-9.296
			c-0.4-4.799-3.999-8.413-8.042-8.077C469.588,471.159,466.637,475.322,467.036,480.12"/>
		<path fill="#FDAE2B" d="M463.583,438.693c0.398,4.799,3.998,8.412,8.043,8.075c4.039-0.337,6.993-4.502,6.594-9.298
			c-0.399-4.799-4-8.412-8.043-8.074C466.132,429.733,463.18,433.896,463.583,438.693"/>
		<path fill="#E2E8ED" d="M472.114,444.124c4.4-0.368,54.668-4.563,54.668-4.563c3.334-0.275,5.809-3.231,5.529-6.601
			c-0.281-3.369-3.21-5.874-6.545-5.599c0,0-50.488,4.214-54.671,4.56C466.913,432.271,467.714,444.492,472.114,444.124"/>
		<path fill="#E2E8ED" d="M475.569,485.551c4.403-0.369,54.669-4.565,54.669-4.565c3.334-0.275,5.812-3.23,5.528-6.598
			c-0.282-3.371-3.211-5.876-6.547-5.6c0,0-50.485,4.213-54.668,4.563S471.167,485.918,475.569,485.551"/>
		<path fill="#FFB288" d="M340.87,365.863c0,0-2.719,27.707,9.669,50.746c10.594,19.7,31.64,45.199,48.644,59.254l4.083-0.998
			c-5.917-22.707-24.595-63.027-25.755-78.146c-1.164-15.118-0.885-32.632-1.164-41.057"/>
		<path fill="#D9F0FF" d="M393.037,302.555c0,0-24.025,1.383-37.843,11.823c-23.891,18.045-19.204,66.51-12.249,90.206
			c6.954,23.696,40.412,59.249,51.217,66.908c1.773,0,6.974-0.44,6.786-4.516c-5.974-18.478-23.013-67.074-23.013-67.074
			l2.695-65.559"/>
		<path fill="#FFB288" d="M401.608,471.493c2.594,0.259,5.108,1.519,7.294,3.222c1.995,1.562,4.453,4.17,4.195,5.367
			c-0.272,1.256-3.543-1.158-3.941-0.671c-0.399,0.487,5.602,9.552,4.474,10.231c-1.134,0.682-6.238-7.536-6.238-7.536
			s4.961,8.777,3.042,8.969c-1.606,0.16-6.008-8.143-6.008-8.143s3.724,7.424,2.448,7.702s-4.726-7.112-4.726-7.112
			s2.81,6.316,1.729,6.424c-0.541,0.056-3.313-3.09-4.473-6.894c-1.142-3.748-2.473-6.996-1.443-9.918"/>
		<path fill="none" stroke="#94C1F2" stroke-width="1.088" stroke-miterlimit="10" d="M384.673,419.212
			c-3.83-11.023-6.737-19.31-6.737-19.31l5.048-55.022"/>
		<path fill="none" stroke="#94C1F2" stroke-width="1.088" stroke-miterlimit="10" d="M337.46,358.244
			c-0.139,14.926,1.66,33.309,5.485,46.341c3.349,11.405,12.836,25.555,22.979,38.023"/>
		<path fill="#FFB288" d="M851.333,277.203l3.862-2.639c0,0,1.794-8.405,2.778-9.918c1.047-1.598,3.035-4.898,5.29-6.421
			c0.94-0.633,5.242-3.067,6.325-1.98c0.535,0.532-1.277,5.396-2.109,6.229c-0.834,0.834-3.283,4.563-2.899,5.73
			c0.382,1.164,2.417-1.387,2.899-1.87c0.483-0.483,1.129-1.078,1.354-0.458c0.378,1.039-1.794,6.896-3.493,8.595
			c-1.699,1.699-4.457,3.305-6.374,3.305l-5.998,5.302"/>
		<path fill="#26387A" d="M897.868,249.528c6.389,3.765,10.343,10.854,11.872,17.953c0.275,1.276,0.509,2.645,1.389,3.609
			c0.703,0.764,1.708,1.153,2.649,1.591c5.296,2.453,9.349,7.258,11.211,12.752c0.798,2.348,0.174,5.664,1.1,7.67
			c1.135,2.453,5.306,3.01,7.547,3.754c6.715,2.225,11.651,8.987,11.727,16.059c0.072,7.071-4.725,13.936-11.394,16.297
			c1.796,2.512,2.05,5.899,1.219,8.871c-0.833,2.973-2.639,5.586-4.684,7.897c-8.453,9.563-21.49,14.675-34.241,14.124
			c-3.674-0.156-7.359-0.765-10.768-2.154c-3.853-1.574-7.238-4.102-10.49-6.709c-3.921-3.141-7.833-6.578-9.944-11.131
			c-2.112-4.557-1.974-10.519,1.606-14.041c-4.136,0.86-8.551-1.385-10.88-4.915c-2.326-3.521-2.748-8.074-1.813-12.195
			c0.932-4.118,3.107-7.864,5.637-11.247c1.777-2.374,3.818-4.782,4.193-7.727c0.629-4.913-2.111-9.299-2.826-14.184
			c-1.106-7.601-0.763-14.134,5.744-18.176c2.088-5.413,4.613-9.588,10.609-11.184C884.438,244.552,891.509,245.784,897.868,249.528
			"/>
		<path fill="#B6E9FE" d="M882.218,307.284c-21.708-5.684-46.558,3.292-52.091,3.265c7.584-7.578,21.501-24.462,26.311-30.295
			c0-4.007-2.434-5.126-2.434-5.126s-59.536,30.785-53.554,50.888c6.25,20.986,64.575,10.688,69.235,16.713"/>
		<path fill="#FFB288" d="M886.471,502.676c-0.067,1.777-7.84,39.999-8.412,44.104c-1.663,11.94,4.646,23.923,4.031,42.442
			c-0.744,22.512-10.32,83.021-11.537,85.707c-1.218,2.684-7.056,0.221-7.056,0.221s-16.828-81.171-17.777-114.388
			c-0.784-27.358,3.192-86.571,3.192-86.571"/>
		<path fill="#26387A" d="M871.15,675.967c0,0,0.976,2.054,0.931,2.982c-0.125,2.521-0.204,4.245-0.204,4.245l-1.099,0.072
			l-0.379-2.06c0,0-2.911,0.51-5.875,2.459c-1.432,0.942-8.649,0.857-9.76,0.271c-1.245-0.658-0.889-1.84-0.471-2.327
			c0.415-0.484,8.221-3.892,8.221-3.892"/>
		<path fill="#FFB288" d="M863.497,675.153c-0.629,1.523-6.797,4.882-6.228,5.332c0.567,0.453,4.149,0.475,8.127-0.849
			c3.625-1.205,5.677-2.557,5.793-3.506l-0.694-2.551"/>
		<path fill="#FFB288" d="M940.487,504.265c-0.011,1.777-6.617,40.219-7.063,44.339c-1.298,11.986,5.372,23.772,5.325,42.302
			c-0.061,22.524-7.788,83.298-8.923,86.018c-1.132,2.717-7.042,0.438-7.042,0.438s-19.296-80.622-21.259-113.793
			c-1.617-27.321,0.554-86.626,0.554-86.626"/>
		<path fill="#26387A" d="M930.456,677.942c0,0,1.039,2.022,1.022,2.952c-0.047,2.525-0.077,4.248-0.077,4.248l-1.094,0.106
			l-0.441-2.043c0,0-2.896,0.597-5.796,2.635c-1.406,0.986-8.622,1.12-9.75,0.565c-1.263-0.617-0.943-1.812-0.542-2.306
			c0.401-0.498,8.1-4.142,8.1-4.142"/>
		<path fill="#FFB288" d="M922.782,677.361c-0.585,1.544-6.646,5.09-6.063,5.523c0.58,0.436,4.165,0.346,8.099-1.098
			c3.585-1.318,5.596-2.729,5.682-3.684l-0.77-2.527"/>
		<path fill="#2858AD" d="M920.858,405.958c0,0,17.248,11.297,23.821,38.401c8.865,36.55-4.192,108.119-4.192,108.119
			s-27.017,7.895-56.401,7.646c-29.388-0.25-46.796-10.179-46.853-11.957c-0.056-1.777-4.381-55.959,1.59-92.718
			c6.701-41.26,23.773-52.38,23.773-52.38"/>
		<path fill="#B6E9FE" d="M897.472,306.591c2.675-0.994,9.613,1.436,22.599,6.414c5.708,6.17,8.207,19.697,9.438,31.676
			c-3.367,29.144-7.131,45.056-5.317,54.895c0.43,2.328,2.568,4.094,2.226,7.344c-0.703,6.72-11.709,7.74-32.603,10.111
			c-20.893,2.373-39.699-7.114-38.571-10.08c1.13-2.967,4.692-5.56,5.255-7.526c0.564-1.963,2.272-26.932,0.013-29.899
			c-2.258-2.961-8.082-11.486-8.082-19.793c0-11.686,6.434-16.931,10.643-23.352c7.022-10.706,12.352-17.418,19.146-19.097
			C893.092,304.599,897.472,306.591,897.472,306.591"/>
		<path fill="none" stroke="#6CB1EF" stroke-width="1.088" stroke-miterlimit="10" d="M862.31,321.364c0,0,0.764,5.017-1.796,9.201
			c-0.79,1.283-5.532,6.121-6.468,9.2"/>
		<path fill="#FFB288" d="M892.473,292.368c5.702-5.667,6.606-16.414,4.013-23.681c-2.92-8.177-14.567-14.305-22.592-9.18
			C858.142,269.561,874.126,310.59,892.473,292.368"/>
		<path fill="#FFB288" d="M881.618,291.365l0.296,17.492c0,0-0.656,3.89,6.183,4.133c9.374,0.332,9.374-6.4,9.374-6.4l-5.421-18.021
			"/>
		<path fill="#26387A" d="M888.706,251.781c-1.924-1.271-3.992-1.326-5.98-0.143c-1.219,0.722-2.071,1.92-3.371,2.498
			c-0.921,0.408-2.013,0.477-2.983,0.741c-4.544,1.232-8.853,4.704-10.767,9.034c-1.931,4.357-1.314,11.441,2.294,14.553
			c-0.155-3.367,0.853-8.211,2.649-11.066c0.941-1.496,2.432-2.973,4.187-2.773c1.976,0.223,3.049,2.334,4.472,3.72
			c2.157,2.101,5.254,2.524,8.102,2.951c3.223,0.479,5.709,1.045,7.296,4.213c0.693,1.371,1.066,2.884,1.438,4.377
			c0.439,1.775,0.883,3.563,0.985,5.385c0.067,1.134,0.003,2.303,0.357,3.383c0.712,2.154,2.904,3.458,5.059,4.187
			c1.649,0.557,4.437,1.075,5.473-0.801c0.869-1.563,1.614-3.77,1.913-5.525c0.989-5.877-0.872-11.961-4.042-17.008
			c-3.478-5.537-8.43-9.244-12.899-13.85C891.521,254.242,890.171,252.747,888.706,251.781"/>
		<path fill="#FFB288" d="M893.103,278.703c0.346-1.335,1.327-2.691,2.704-2.902c4.454-0.676,3.778,5.974,2.057,8.314
			c-1.002,1.359-3.593,3.142-4.761-0.638"/>
		<path fill="#FFB288" d="M940.349,414.89l-2.098,4.478c0,0-7.906,1.881-8.741,3.272c-1.326,2.201-3.313,5.242-3.313,6.972
			c0,1.732,0.166,9.323,2.332,9.323c1.361,0,4.544-6.19,5.203-7.059c1.549-2.045,7.804-3.53,7.804-8.916l3.826-8.07"/>
		<path fill="#B6E9FE" d="M897.472,306.36c0,0,18.451-4.695,32.865,4.4c11.207,7.072,40.034,42.245,40.04,62.394
			c0.003,13.583-26.968,47.227-26.968,47.227l-4.478-3.203c0,0,2.612-26.438,10.448-41.011c-5.78-5.782-28.32-23.735-33.98-29.394"
			/>
		<path fill="none" stroke="#6CB1EF" stroke-width="1.088" stroke-miterlimit="10" d="M912.47,344.913
			c4.031,3.58,14.647,12.125,14.647,12.125"/>
		<path fill="#94C1F2" d="M368.483,275.206l-22.291-17.961c0,0,10.023-37.022-3.247-49.951c-7.061-6.88-15.987-11.572-25.203-15.071
			c-20.511-7.786-45.013-9.551-63.291,2.579c-13.485,8.947-21.686,24.287-25.354,40.049c-3.229,13.876-2.959,29.647,5.718,40.952
			c3.897,5.075,9.231,8.896,14.902,11.866c17.637,9.241,64.29,12.73,84.528-0.834c5.606-3.754,5.115-8.833,7.463-16.769
			L368.483,275.206z"/>
		<g>
			<path fill="#FFFFFF" d="M241.022,241.433c0-4.349,1.169-7.752,3.502-10.21c2.333-2.461,5.348-3.69,9.039-3.69
				c2.42,0,4.6,0.578,6.54,1.733c1.939,1.155,3.421,2.766,4.44,4.831c1.02,2.067,1.526,4.411,1.526,7.033
				c0,2.655-0.535,5.03-1.607,7.127s-2.59,3.682-4.558,4.762c-1.964,1.078-4.084,1.614-6.357,1.614
				c-2.465,0-4.671-0.595-6.611-1.786c-1.939-1.19-3.41-2.815-4.414-4.877C241.524,245.91,241.022,243.729,241.022,241.433z
				 M244.597,241.486c0,3.156,0.849,5.643,2.547,7.458c1.694,1.819,3.824,2.726,6.387,2.726c2.607,0,4.753-0.917,6.439-2.751
				c1.684-1.834,2.527-4.438,2.527-7.808c0-2.133-0.36-3.993-1.08-5.584c-0.721-1.589-1.774-2.82-3.163-3.697
				c-1.388-0.875-2.944-1.313-4.673-1.313c-2.452,0-4.563,0.841-6.332,2.525C245.48,234.728,244.597,237.544,244.597,241.486z"/>
			<path fill="#FFFFFF" d="M267.832,244.701c0-3.512,0.976-6.113,2.929-7.806c1.632-1.406,3.621-2.109,5.967-2.109
				c2.608,0,4.741,0.856,6.396,2.565c1.655,1.708,2.482,4.07,2.482,7.082c0,2.441-0.365,4.362-1.098,5.762
				c-0.733,1.401-1.798,2.486-3.198,3.262c-1.399,0.773-2.926,1.159-4.583,1.159c-2.655,0-4.803-0.851-6.439-2.554
				C268.649,250.359,267.832,247.906,267.832,244.701z M271.137,244.701c0,2.432,0.528,4.25,1.591,5.459
				c1.058,1.208,2.394,1.813,4,1.813c1.598,0,2.924-0.606,3.986-1.823c1.059-1.215,1.59-3.065,1.59-5.556
				c0-2.347-0.536-4.123-1.602-5.332c-1.063-1.208-2.389-1.814-3.975-1.814c-1.606,0-2.942,0.602-4,1.804
				C271.665,240.457,271.137,242.273,271.137,244.701z"/>
			<path fill="#FFFFFF" d="M288.316,261.459v-26.245h2.929v2.465c0.691-0.961,1.472-1.688,2.341-2.168
				c0.87-0.484,1.922-0.726,3.163-0.726c1.619,0,3.048,0.418,4.288,1.251c1.237,0.834,2.173,2.01,2.804,3.527
				c0.631,1.521,0.948,3.185,0.948,4.995c0,1.941-0.349,3.688-1.048,5.243c-0.695,1.555-1.708,2.744-3.035,3.574
				c-1.328,0.826-2.726,1.239-4.19,1.239c-1.071,0-2.032-0.226-2.888-0.677c-0.848-0.453-1.55-1.024-2.096-1.717v9.237H288.316z
				 M291.229,244.806c0,2.443,0.492,4.248,1.482,5.416c0.986,1.166,2.185,1.751,3.591,1.751c1.427,0,2.651-0.605,3.671-1.813
				c1.018-1.209,1.527-3.081,1.527-5.619c0-2.416-0.498-4.228-1.492-5.431c-0.994-1.204-2.183-1.805-3.565-1.805
				c-1.369,0-2.579,0.64-3.634,1.921C291.756,240.507,291.229,242.369,291.229,244.806z"/>
			<path fill="#FFFFFF" d="M306.282,248.525l3.178-0.502c0.18,1.275,0.678,2.254,1.493,2.932c0.815,0.679,1.954,1.019,3.421,1.019
				c1.477,0,2.573-0.302,3.287-0.902c0.717-0.601,1.073-1.307,1.073-2.118c0-0.725-0.315-1.297-0.948-1.715
				c-0.441-0.285-1.536-0.648-3.285-1.088c-2.36-0.596-3.995-1.11-4.906-1.547c-0.911-0.436-1.602-1.037-2.071-1.803
				c-0.473-0.771-0.707-1.617-0.707-2.547c0-0.848,0.194-1.629,0.58-2.349c0.388-0.721,0.915-1.32,1.583-1.795
				c0.498-0.37,1.183-0.684,2.045-0.938c0.863-0.257,1.79-0.386,2.776-0.386c1.492,0,2.799,0.216,3.921,0.644
				c1.129,0.43,1.959,1.01,2.496,1.742c0.536,0.733,0.902,1.712,1.105,2.938l-3.145,0.431c-0.142-0.978-0.555-1.74-1.242-2.286
				c-0.684-0.549-1.65-0.822-2.901-0.822c-1.476,0-2.53,0.244-3.163,0.73c-0.631,0.488-0.946,1.061-0.946,1.717
				c0,0.417,0.131,0.792,0.395,1.126c0.261,0.344,0.672,0.631,1.23,0.855c0.321,0.12,1.269,0.393,2.841,0.823
				c2.274,0.607,3.862,1.104,4.763,1.49c0.897,0.388,1.603,0.953,2.118,1.688c0.509,0.741,0.767,1.656,0.767,2.752
				c0,1.072-0.313,2.082-0.937,3.028c-0.628,0.947-1.531,1.682-2.708,2.197c-1.18,0.519-2.514,0.776-4.003,0.776
				c-2.466,0-4.344-0.512-5.636-1.535C307.464,252.056,306.64,250.538,306.282,248.525z"/>
			<path fill="#FFFFFF" d="M326.516,247.687l-0.981-13.883v-5.807h3.984v5.807l-0.929,13.883H326.516z M325.676,254.188v-3.662
				h3.696v3.662H325.676z"/>
		</g>
	</g>
</g>
</svg>
