<?xml version="1.0" encoding="utf-8"?>
<!-- Generator: Adobe Illustrator 15.1.0, SVG Export Plug-In . SVG Version: 6.00 Build 0)  -->
<!DOCTYPE svg PUBLIC "-//W3C//DTD SVG 1.1//EN" "http://www.w3.org/Graphics/SVG/1.1/DTD/svg11.dtd">
<svg version="1.1" id="圖層_1" xmlns="http://www.w3.org/2000/svg" xmlns:xlink="http://www.w3.org/1999/xlink" x="0px" y="0px"
	 width="43.665px" height="43.665px" viewBox="0 0 43.665 43.665" enable-background="new 0 0 43.665 43.665" xml:space="preserve">
<g>
	<path fill-rule="evenodd" clip-rule="evenodd" fill="#FFFFFF" d="M107.37,12.553c-0.331,1.23-1.998,2.22-2.911,3.29
		c0.173,9.7-6.701,17.417-16.075,18.101c-4.075,0.297-7.754-0.74-10.759-2.531c3.458,0.051,6.977-0.849,8.86-2.786
		c-3.126-0.121-4.666-1.83-5.695-4.05c0.571-0.095,1.858,0.086,2.658-0.127c-0.471-0.532-1.205-0.451-1.771-0.759
		c-1.753-0.949-2.878-2.788-3.038-5.316c0.879,0.176,1.498,0.612,2.532,0.633c-1.076-1.024-2.667-3.109-2.532-5.568
		c0.055-0.998,0.428-1.754,0.759-2.659c3.011,3.402,6.851,5.977,12.785,6.456c-1.25-6.451,6.614-9.96,10.758-5.695
		c1.408-0.281,2.651-0.725,3.67-1.394c-0.062,1.332-1.469,2.411-2.405,3.292C105.406,13.288,106.524,13.056,107.37,12.553z"/>
</g>
<path fill="#FFFFFF" d="M24.052,11.207c-0.158,1.379,0.289,3.311-0.209,4.992c-1.316,0-2.635,0-3.951,0c0,1.872,0,3.744,0,5.616
	c1.387,0,2.773,0,4.16,0c0,6.032,0,12.064,0,18.098c2.287,0,4.576,0,6.864,0c0.138-5.964-0.277-12.481,0.208-18.098
	c1.525,0,3.051,0,4.576,0c-0.027-1.992,0.818-4.141,0.624-5.616c-1.803,0-3.605,0-5.408,0c0.097-1.706-0.288-3.894,0.416-4.992
	c1.255-0.618,3.37-0.374,5.2-0.416c0-1.803,0-3.605,0-5.408C30.06,4.615,24.706,5.485,24.052,11.207z"/>
<g>
	<path fill="#FFFFFF" d="M-113.46,12.867c-1.784-3.223-4.986-5.5-9.387-5.798c-1.168-0.079-2.418-0.046-3.773-0.046
		c-2.533,0-5.33-0.128-7.685,0.046c-3.475,0.257-5.999,1.889-7.822,3.865c-1.457,1.578-2.462,3.513-2.853,5.936
		c-0.397,2.464-0.206,5.956,0.459,7.961c0.467,1.406,1.262,2.678,2.162,3.728c1.746,2.037,4.373,3.6,7.684,4.096
		c0,0.936,0,1.969,0,3.037c0,1.022-0.196,2.168,0.093,2.944c0.374,1.007,1.622,1.521,2.646,1.151
		c0.713-0.258,1.277-1.111,1.83-1.703c1.453-1.557,2.797-3,4.273-4.556c0.348-0.366,0.649-0.764,0.964-0.828
		c0.657-0.136,1.334,0.031,1.885,0c3.93-0.224,6.804-2.232,8.65-4.647c1.11-1.453,1.988-3.21,2.254-5.384
		c0.137-1.119,0.099-2.446,0.092-3.728C-112.001,16.468-112.544,14.522-113.46,12.867z M-115.209,25.797
		c-1.383,2.452-4.139,4.633-7.731,4.878c-0.45,0.03-0.976,0-1.472,0c-0.447,0-1.016-0.111-1.427,0
		c-0.26,0.07-0.644,0.573-0.92,0.874c-1.858,2.023-3.656,3.936-5.521,5.936c-0.057,0.061-0.194,0.162-0.275,0.23
		c0,0-0.229,0.207-0.229,0.046c0-2.347,0-4.693,0-7.04c-3.311,0.074-5.759-1.11-7.456-2.808c-1.791-1.789-2.876-4.023-2.876-7.362
		c0-1.784,0.027-3.294,0.425-4.647c0.744-2.526,2.448-4.46,4.654-5.66c1.151-0.626,2.527-1.096,4.098-1.196
		c2.209-0.142,4.135,0,6.351,0c2.125,0,4.378-0.146,6.075,0.23c3.313,0.734,5.666,2.811,6.811,5.798
		c0.297,0.775,0.55,1.626,0.645,2.53C-113.737,20.664-114.121,23.868-115.209,25.797z"/>
	<path fill="#FFFFFF" d="M-117.867,19.916c0,0.29-0.235,0.524-0.525,0.524h-20.45c-0.29,0-0.525-0.234-0.525-0.524l0,0
		c0-0.29,0.235-0.525,0.525-0.525h20.45C-118.102,19.39-117.867,19.625-117.867,19.916L-117.867,19.916z"/>
	<path fill="#FFFFFF" d="M-120.867,15.708c0,0.289-0.235,0.524-0.525,0.524h-14.45c-0.29,0-0.525-0.235-0.525-0.524l0,0
		c0-0.29,0.235-0.525,0.525-0.525h14.45C-121.102,15.183-120.867,15.418-120.867,15.708L-120.867,15.708z"/>
	<path fill="#FFFFFF" d="M-120.867,23.99c0,0.289-0.235,0.524-0.525,0.524h-14.45c-0.29,0-0.525-0.235-0.525-0.524l0,0
		c0-0.29,0.235-0.525,0.525-0.525h14.45C-121.102,23.464-120.867,23.7-120.867,23.99L-120.867,23.99z"/>
</g>
<path fill="#FFFFFF" d="M183.988,27.013c-1.563,0-2.948,0.703-3.901,1.794l-11.78-5.939c0.068-0.335,0.104-0.682,0.104-1.036
	c0-0.368-0.041-0.727-0.114-1.073l11.765-5.932c0.954,1.107,2.35,1.823,3.926,1.823c2.873,0,5.202-2.33,5.202-5.203
	c0-2.872-2.329-5.202-5.202-5.202c-2.874,0-5.203,2.33-5.203,5.202c0,0.346,0.037,0.684,0.102,1.011l-11.793,5.946
	c-0.953-1.079-2.332-1.774-3.885-1.774c-2.874,0-5.203,2.33-5.203,5.202c0,2.873,2.329,5.203,5.203,5.203
	c1.567,0,2.956-0.708,3.91-1.805l11.772,5.936c-0.069,0.34-0.106,0.69-0.106,1.05c0,2.873,2.329,5.203,5.203,5.203
	c2.873,0,5.202-2.33,5.202-5.203C189.19,29.343,186.861,27.013,183.988,27.013z"/>
<g>
	<g>
		<path fill-rule="evenodd" clip-rule="evenodd" fill="#1E90FF" d="M107.37,12.553c-0.33,1.23-1.998,2.22-2.91,3.29
			c0.172,9.7-6.701,17.417-16.075,18.101c-4.075,0.297-7.755-0.74-10.759-2.531c3.457,0.051,6.977-0.849,8.859-2.786
			c-3.127-0.121-4.666-1.83-5.695-4.05c0.57-0.095,1.858,0.086,2.658-0.127c-0.471-0.532-1.205-0.451-1.771-0.759
			c-1.754-0.949-2.879-2.788-3.039-5.316c0.88,0.176,1.498,0.612,2.532,0.633c-1.076-1.024-2.667-3.109-2.532-5.568
			c0.055-0.998,0.429-1.754,0.76-2.659c3.011,3.402,6.851,5.977,12.785,6.456c-1.25-6.451,6.613-9.96,10.758-5.695
			c1.408-0.281,2.651-0.725,3.67-1.394c-0.061,1.332-1.469,2.411-2.404,3.292C105.407,13.288,106.524,13.056,107.37,12.553z"/>
	</g>
</g>
<path fill-rule="evenodd" clip-rule="evenodd" fill="#00BFFF" d="M36.532,10.791c-1.83,0.042-3.945-0.202-5.2,0.416
	c-0.704,1.099-0.319,3.286-0.416,4.992c1.803,0,3.605,0,5.408,0c0.194,1.476-0.651,3.624-0.624,5.616c-1.525,0-3.051,0-4.576,0
	c-0.485,5.616-0.07,12.134-0.208,18.098c-2.288,0-4.577,0-6.864,0c0-6.033,0-12.065,0-18.098c-1.387,0-2.773,0-4.16,0
	c0-1.872,0-3.744,0-5.616c1.316,0,2.635,0,3.951,0c0.498-1.682,0.051-3.613,0.209-4.992c0.654-5.722,6.008-6.592,12.48-5.824
	C36.532,7.186,36.532,8.988,36.532,10.791z"/>
<g>
	<g>
		<path fill="#00CED1" d="M-33.664,13.587c-0.678-0.853-1.52-1.596-2.352-2.222c-0.626-0.471-1.322-0.9-1.917-1.263
			c-0.568-0.346-1.2-0.633-1.786-0.872c-2.129-0.865-4.807-1.518-7.753-1.393c-0.028,0.001-0.058,0-0.087,0
			c-1.857,0-3.531,0.289-4.879,0.697c-0.173,0.051-0.348,0.037-0.523,0.086c-0.9,0.254-1.759,0.665-2.569,1.046
			c-2.72,1.277-4.872,3.136-6.315,5.576c-0.684,1.154-1.386,2.651-1.525,4.398c-0.232,2.923,0.595,5.327,1.787,7.014
			c0.469,0.663,0.897,1.274,1.437,1.828c1.892,1.946,4.364,3.451,7.144,4.313c0.931,0.289,1.639,0.441,2.701,0.609
			c0.457,0.072,1.119,0.082,1.393,0.262c0.112,0.073,0.33,0.438,0.35,0.523c0.062,0.273-0.057,0.555-0.088,0.827
			c-0.039,0.348-0.039,0.813-0.087,1.263c-0.081,0.779-0.345,1.476,0,1.916c0.19,0.245,0.562,0.387,1.002,0.306
			c0.345-0.063,0.829-0.415,1.308-0.653c1.496-0.746,2.791-1.469,4.094-2.309c2.295-1.48,4.275-2.856,6.055-4.617
			c1.107-1.096,2.031-2.127,2.963-3.441c1.174-1.657,2.269-3.646,2.395-6.186c0.102-2.038-0.359-3.54-0.914-4.835
			C-32.317,15.337-32.991,14.433-33.664,13.587z M-54.833,24.958c-0.809,0-2.174,0.19-2.613-0.22
			c-0.467-0.434-0.261-2.449-0.261-3.659c0-0.659,0-1.363,0-1.958c0-0.991-0.149-1.874,0.74-1.961
			c1.165-0.113,0.871,1.837,0.871,3.137c0,0.396,0,0.895,0,1.525c0,0.523-0.122,1.349,0,1.524c0.081,0.114,1.106,0.043,1.481,0.043
			c0.965,0,1.829-0.047,1.83,0.784C-52.785,25.077-53.871,24.958-54.833,24.958z M-50.433,24.653
			c-0.252,0.512-1.432,0.39-1.48-0.219c-0.127-1.568,0-3.57,0-5.184c0-0.369-0.152-1.388,0-1.785
			c0.031-0.084,0.313-0.262,0.435-0.306c0.182-0.067,0.714-0.086,0.915,0.13c0.285,0.31,0.174,1.123,0.174,1.743
			c0,1.172,0,2.704,0,3.79C-50.39,23.368-50.263,24.304-50.433,24.653z M-43.421,24.958c-0.54,0.023-0.838-0.628-1.132-1.002
			c-0.685-0.874-1.193-1.479-1.872-2.397c-0.177-0.236-0.898-1.199-0.959-1.176c-0.161,0.067-0.082,0.694-0.087,0.96
			c-0.017,0.949,0.214,2.84-0.13,3.311c-0.204,0.275-0.881,0.42-1.221,0.085c-0.444-0.438-0.218-2.462-0.218-3.613
			c0-0.627,0-1.425,0-1.917c0-0.991-0.088-1.916,0.653-2.048c0.613-0.109,1.053,0.646,1.395,1.088
			c0.771,1.002,1.574,2.229,2.482,3.225c0.013,0.014,0.15,0.297,0.262,0.218c0.096-0.069,0.043-0.871,0.043-1.045
			c0-0.813-0.194-2.712,0.088-3.18c0.154-0.258,0.631-0.374,0.783-0.35c0.803,0.123,0.653,1.047,0.653,2.047
			c0,1.306,0,2.301,0,3.528C-42.68,23.655-42.455,24.913-43.421,24.958z M-39.761,22.561c0,0.266-0.063,0.695,0,0.785
			c0.082,0.114,1.236,0.043,1.655,0.043c0.825,0,1.688-0.066,1.655,0.826c-0.037,0.98-1.389,0.742-2.483,0.742
			c-0.878,0-1.833,0.101-2.178-0.22c-0.377-0.348-0.218-2.579-0.218-3.57c0-0.632,0-1.235,0-1.917c0-1.053-0.136-1.896,0.653-2.091
			c0.439-0.108,1.397-0.044,2.265-0.044c1.082,0,1.8-0.07,1.917,0.653c0.03,0.188,0.074,0.389-0.044,0.566
			c-0.273,0.414-0.927,0.349-1.742,0.349c-0.492,0-1.338-0.082-1.438,0c-0.008,0.007-0.133,1.416-0.043,1.525
			c0.119,0.142,1.042,0.043,1.35,0.043c0.81,0,1.596-0.097,1.873,0.349c0.17,0.271,0.074,0.75,0,0.871
			c0.01-0.015-0.322,0.294-0.348,0.305c-0.449,0.179-1.535,0.035-2.178,0.045C-39.823,21.83-39.761,21.765-39.761,22.561z"/>
		<path fill="#FFFFFF" d="M-54.615,23.389c-0.375,0-1.4,0.071-1.481-0.043c-0.122-0.176,0-1.001,0-1.524c0-0.631,0-1.13,0-1.525
			c0-1.3,0.294-3.25-0.871-3.137c-0.89,0.087-0.74,0.97-0.74,1.961c0,0.595,0,1.299,0,1.958c0,1.21-0.206,3.226,0.261,3.659
			c0.439,0.41,1.805,0.22,2.613,0.22c0.963,0,2.049,0.119,2.049-0.784C-52.786,23.342-53.65,23.389-54.615,23.389z"/>
		<path fill="#FFFFFF" d="M-50.39,19.033c0-0.62,0.111-1.434-0.174-1.743c-0.201-0.216-0.733-0.197-0.915-0.13
			c-0.121,0.044-0.403,0.222-0.435,0.306c-0.152,0.397,0,1.416,0,1.785c0,1.613-0.127,3.615,0,5.184
			c0.049,0.608,1.229,0.73,1.48,0.219c0.17-0.349,0.043-1.285,0.043-1.83C-50.39,21.737-50.39,20.205-50.39,19.033z"/>
		<path fill="#FFFFFF" d="M-42.68,19.163c0-1,0.149-1.924-0.653-2.047c-0.152-0.024-0.629,0.092-0.783,0.35
			c-0.282,0.468-0.088,2.367-0.088,3.18c0,0.174,0.053,0.976-0.043,1.045c-0.111,0.079-0.249-0.204-0.262-0.218
			c-0.908-0.995-1.712-2.223-2.482-3.225c-0.342-0.441-0.781-1.197-1.395-1.088c-0.741,0.132-0.653,1.057-0.653,2.048
			c0,0.492,0,1.29,0,1.917c0,1.151-0.227,3.175,0.218,3.613c0.34,0.335,1.017,0.19,1.221-0.085c0.344-0.471,0.113-2.361,0.13-3.311
			c0.005-0.266-0.074-0.893,0.087-0.96c0.061-0.023,0.782,0.939,0.959,1.176c0.679,0.918,1.188,1.523,1.872,2.397
			c0.294,0.374,0.592,1.025,1.132,1.002c0.967-0.045,0.741-1.303,0.741-2.267C-42.68,21.463-42.68,20.468-42.68,19.163z"/>
		<path fill="#FFFFFF" d="M-39.064,21.822c0.643-0.01,1.729,0.134,2.178-0.045c0.025-0.011,0.357-0.319,0.348-0.305
			c0.074-0.121,0.17-0.601,0-0.871c-0.277-0.445-1.063-0.349-1.873-0.349c-0.308,0-1.23,0.099-1.35-0.043
			c-0.09-0.109,0.035-1.519,0.043-1.525c0.1-0.082,0.945,0,1.438,0c0.815,0,1.469,0.065,1.742-0.349
			c0.118-0.178,0.074-0.378,0.044-0.566c-0.117-0.724-0.835-0.653-1.917-0.653c-0.867,0-1.825-0.064-2.265,0.044
			c-0.789,0.195-0.653,1.038-0.653,2.091c0,0.682,0,1.285,0,1.917c0,0.991-0.159,3.223,0.218,3.57c0.345,0.32,1.3,0.22,2.178,0.22
			c1.095,0,2.446,0.238,2.483-0.742c0.033-0.893-0.83-0.826-1.655-0.826c-0.419,0-1.573,0.071-1.655-0.043
			c-0.063-0.09,0-0.52,0-0.785C-39.761,21.765-39.823,21.83-39.064,21.822z"/>
	</g>
</g>
<g>
	<path fill="#ABC1CE" d="M-113.46,12.867c-1.784-3.223-4.986-5.5-9.388-5.798c-1.168-0.079-2.418-0.046-3.773-0.046
		c-2.532,0-5.329-0.128-7.684,0.046c-3.476,0.257-6,1.889-7.822,3.865c-1.457,1.578-2.463,3.513-2.854,5.936
		c-0.397,2.464-0.206,5.956,0.459,7.961c0.468,1.406,1.263,2.678,2.162,3.728c1.746,2.037,4.373,3.6,7.684,4.096
		c0,0.936,0,1.969,0,3.037c0,1.022-0.195,2.168,0.094,2.944c0.374,1.007,1.621,1.521,2.646,1.151
		c0.713-0.258,1.277-1.111,1.829-1.703c1.452-1.557,2.797-3,4.273-4.556c0.349-0.366,0.649-0.764,0.964-0.828
		c0.657-0.136,1.334,0.031,1.885,0c3.93-0.224,6.805-2.232,8.65-4.647c1.111-1.453,1.988-3.21,2.255-5.384
		c0.137-1.119,0.099-2.446,0.092-3.728C-112.001,16.468-112.544,14.522-113.46,12.867z M-115.209,25.797
		c-1.383,2.452-4.139,4.633-7.73,4.878c-0.449,0.03-0.977,0-1.473,0c-0.446,0-1.016-0.111-1.426,0
		c-0.26,0.07-0.645,0.573-0.921,0.874c-1.858,2.023-3.655,3.936-5.521,5.936c-0.057,0.061-0.194,0.162-0.274,0.23
		c0,0-0.229,0.207-0.229,0.046c0-2.347,0-4.693,0-7.04c-3.312,0.074-5.76-1.11-7.457-2.808c-1.79-1.789-2.876-4.023-2.876-7.362
		c0-1.784,0.027-3.294,0.425-4.647c0.744-2.526,2.448-4.46,4.654-5.66c1.15-0.626,2.527-1.096,4.098-1.196
		c2.209-0.142,4.135,0,6.352,0c2.125,0,4.378-0.146,6.074,0.23c3.313,0.734,5.666,2.811,6.811,5.798
		c0.297,0.775,0.55,1.626,0.645,2.53C-113.737,20.664-114.121,23.868-115.209,25.797z"/>
	<path fill="#ABC1CE" d="M-117.867,19.916c0,0.29-0.235,0.524-0.524,0.524h-20.451c-0.289,0-0.524-0.234-0.524-0.524l0,0
		c0-0.29,0.235-0.525,0.524-0.525h20.451C-118.102,19.39-117.867,19.625-117.867,19.916L-117.867,19.916z"/>
	<path fill="#ABC1CE" d="M-120.867,15.708c0,0.289-0.235,0.524-0.524,0.524h-14.451c-0.289,0-0.524-0.235-0.524-0.524l0,0
		c0-0.29,0.235-0.525,0.524-0.525h14.451C-121.102,15.183-120.867,15.418-120.867,15.708L-120.867,15.708z"/>
	<path fill="#ABC1CE" d="M-120.867,23.99c0,0.289-0.235,0.524-0.524,0.524h-14.451c-0.289,0-0.524-0.235-0.524-0.524l0,0
		c0-0.29,0.235-0.525,0.524-0.525h14.451C-121.102,23.464-120.867,23.7-120.867,23.99L-120.867,23.99z"/>
</g>
<path fill="#00008B" d="M183.988,27.013c-1.563,0-2.947,0.703-3.901,1.794l-11.78-5.939c0.068-0.335,0.104-0.682,0.104-1.036
	c0-0.368-0.04-0.727-0.114-1.073l11.766-5.932c0.954,1.107,2.35,1.823,3.926,1.823c2.873,0,5.202-2.33,5.202-5.203
	c0-2.872-2.329-5.202-5.202-5.202s-5.203,2.33-5.203,5.202c0,0.346,0.037,0.684,0.103,1.011l-11.794,5.946
	c-0.953-1.079-2.332-1.774-3.885-1.774c-2.873,0-5.203,2.33-5.203,5.202c0,2.873,2.33,5.203,5.203,5.203
	c1.567,0,2.956-0.708,3.91-1.805l11.772,5.936c-0.069,0.34-0.106,0.69-0.106,1.05c0,2.873,2.33,5.203,5.203,5.203
	s5.202-2.33,5.202-5.203C189.19,29.343,186.861,27.013,183.988,27.013z"/>
</svg>
