<?xml version="1.0" encoding="utf-8"?>
<!-- Generator: Adobe Illustrator 15.1.0, SVG Export Plug-In . SVG Version: 6.00 Build 0)  -->
<!DOCTYPE svg PUBLIC "-//W3C//DTD SVG 1.1//EN" "http://www.w3.org/Graphics/SVG/1.1/DTD/svg11.dtd">
<svg version="1.1" id="圖層_1" xmlns="http://www.w3.org/2000/svg" xmlns:xlink="http://www.w3.org/1999/xlink" x="0px" y="0px"
	 width="43.665px" height="43.665px" viewBox="0 0 43.665 43.665" enable-background="new 0 0 43.665 43.665" xml:space="preserve">
<rect x="-38.472" y="132.112" fill-rule="evenodd" clip-rule="evenodd" fill="#ABC1CE" width="43.665" height="43.665"/>
<rect x="-38.472" y="263.107" fill-rule="evenodd" clip-rule="evenodd" fill="#1E90FF" width="43.665" height="43.665"/>
<g>
	<path fill-rule="evenodd" clip-rule="evenodd" fill="#FFFFFF" d="M-1.767,275.661c-0.331,1.23-1.998,2.22-2.911,3.29
		c0.173,9.7-6.701,17.417-16.075,18.101c-4.075,0.297-7.754-0.74-10.759-2.531c3.458,0.051,6.977-0.849,8.86-2.786
		c-3.126-0.121-4.666-1.83-5.695-4.05c0.571-0.095,1.858,0.086,2.658-0.127c-0.471-0.532-1.205-0.451-1.771-0.759
		c-1.753-0.949-2.878-2.788-3.038-5.316c0.879,0.176,1.498,0.612,2.532,0.633c-1.076-1.024-2.667-3.109-2.532-5.568
		c0.055-0.998,0.428-1.754,0.759-2.659c3.011,3.402,6.851,5.977,12.785,6.456c-1.25-6.451,6.614-9.96,10.758-5.695
		c1.408-0.281,2.651-0.725,3.67-1.394c-0.062,1.332-1.469,2.411-2.405,3.292C-3.731,276.396-2.613,276.164-1.767,275.661z"/>
</g>
<path fill-rule="evenodd" clip-rule="evenodd" fill="#00BFFF" d="M-38.472,219.442v43.665H5.193v-43.665H-38.472z M-1.939,230.233
	c-1.83,0.042-3.945-0.202-5.2,0.416c-0.704,1.099-0.319,3.286-0.416,4.992c1.803,0,3.605,0,5.408,0
	c0.194,1.476-0.651,3.624-0.624,5.616c-1.525,0-3.051,0-4.576,0c-0.485,5.616-0.07,12.134-0.208,18.098c-2.288,0-4.577,0-6.864,0
	c0-6.033,0-12.065,0-18.098c-1.387,0-2.773,0-4.16,0c0-1.872,0-3.744,0-5.616c1.316,0,2.635,0,3.951,0
	c0.498-1.682,0.051-3.613,0.209-4.992c0.654-5.722,6.008-6.592,12.48-5.824C-1.939,226.628-1.939,228.431-1.939,230.233z"/>
<g>
	<g>
		<path fill="#FFFFFF" d="M-3.472,189.367c-0.678-0.853-1.521-1.596-2.353-2.222c-0.625-0.471-1.321-0.9-1.917-1.263
			c-0.568-0.346-1.2-0.633-1.786-0.872c-2.128-0.865-4.807-1.518-7.753-1.393c-0.028,0.001-0.058,0-0.087,0
			c-1.856,0-3.531,0.289-4.878,0.697c-0.173,0.051-0.347,0.037-0.523,0.086c-0.9,0.254-1.759,0.665-2.57,1.046
			c-2.72,1.277-4.872,3.136-6.316,5.576c-0.683,1.154-1.385,2.651-1.525,4.398c-0.232,2.923,0.595,5.327,1.787,7.014
			c0.469,0.663,0.898,1.274,1.437,1.828c1.892,1.946,4.365,3.451,7.144,4.313c0.931,0.289,1.639,0.441,2.701,0.609
			c0.457,0.072,1.12,0.082,1.393,0.262c0.112,0.073,0.33,0.438,0.349,0.523c0.062,0.273-0.057,0.555-0.087,0.827
			c-0.039,0.348-0.04,0.813-0.087,1.263c-0.082,0.779-0.344,1.476,0,1.916c0.191,0.245,0.562,0.387,1.002,0.306
			c0.345-0.063,0.829-0.415,1.307-0.653c1.496-0.746,2.792-1.469,4.095-2.309c2.294-1.48,4.274-2.856,6.054-4.617
			c1.107-1.096,2.032-2.127,2.962-3.441c1.174-1.657,2.269-3.646,2.396-6.186c0.102-2.038-0.36-3.54-0.915-4.835
			C-2.126,191.117-2.8,190.213-3.472,189.367z M-24.642,200.737c-0.81,0-2.174,0.19-2.613-0.22
			c-0.467-0.434-0.261-2.449-0.261-3.659c0-0.659,0-1.363,0-1.958c0-0.991-0.15-1.874,0.74-1.961
			c1.165-0.113,0.871,1.837,0.871,3.137c0,0.396,0,0.895,0,1.525c0,0.523-0.122,1.349,0,1.524c0.081,0.114,1.107,0.043,1.482,0.043
			c0.964,0,1.829-0.047,1.829,0.784C-22.594,200.856-23.68,200.737-24.642,200.737z M-20.242,200.433
			c-0.252,0.512-1.432,0.39-1.481-0.219c-0.126-1.568,0-3.57,0-5.184c0-0.369-0.152-1.388,0-1.785
			c0.032-0.084,0.314-0.262,0.435-0.306c0.182-0.067,0.714-0.086,0.915,0.13c0.286,0.31,0.174,1.123,0.174,1.743
			c0,1.172,0,2.704,0,3.79C-20.199,199.147-20.072,200.084-20.242,200.433z M-13.23,200.737c-0.541,0.023-0.839-0.628-1.132-1.002
			c-0.685-0.874-1.193-1.479-1.873-2.397c-0.176-0.236-0.898-1.199-0.958-1.176c-0.161,0.067-0.083,0.694-0.087,0.96
			c-0.016,0.949,0.214,2.84-0.13,3.311c-0.204,0.275-0.881,0.42-1.22,0.085c-0.444-0.438-0.218-2.462-0.218-3.613
			c0-0.627,0-1.425,0-1.917c0-0.991-0.088-1.916,0.653-2.048c0.614-0.109,1.053,0.646,1.394,1.088
			c0.771,1.002,1.575,2.229,2.482,3.225c0.013,0.014,0.151,0.297,0.262,0.218c0.096-0.069,0.044-0.871,0.044-1.045
			c0-0.813-0.195-2.712,0.087-3.18c0.154-0.258,0.63-0.374,0.784-0.35c0.802,0.123,0.653,1.047,0.653,2.047c0,1.306,0,2.301,0,3.528
			C-12.489,199.435-12.264,200.692-13.23,200.737z M-9.57,198.341c0,0.266-0.063,0.695,0,0.785c0.082,0.114,1.236,0.043,1.655,0.043
			c0.826,0,1.688-0.066,1.655,0.826c-0.037,0.98-1.388,0.742-2.483,0.742c-0.878,0-1.833,0.101-2.178-0.22
			c-0.377-0.348-0.218-2.579-0.218-3.57c0-0.632,0-1.235,0-1.917c0-1.053-0.136-1.896,0.653-2.091
			c0.439-0.108,1.397-0.044,2.265-0.044c1.082,0,1.8-0.07,1.917,0.653c0.03,0.188,0.074,0.389-0.043,0.566
			c-0.274,0.414-0.927,0.349-1.742,0.349c-0.493,0-1.339-0.082-1.438,0c-0.007,0.007-0.133,1.416-0.043,1.525
			c0.119,0.142,1.042,0.043,1.35,0.043c0.81,0,1.596-0.097,1.874,0.349c0.169,0.271,0.074,0.75,0,0.871
			c0.009-0.015-0.323,0.294-0.349,0.305c-0.449,0.179-1.535,0.035-2.178,0.045C-9.632,197.609-9.57,197.545-9.57,198.341z"/>
		<path fill="#00CED1" d="M-38.472,175.777v43.665H5.193v-43.665H-38.472z M-3.124,203.263c-0.931,1.314-1.855,2.346-2.962,3.441
			c-1.78,1.761-3.76,3.137-6.054,4.617c-1.303,0.84-2.599,1.563-4.095,2.309c-0.479,0.238-0.962,0.59-1.307,0.653
			c-0.44,0.081-0.811-0.061-1.002-0.306c-0.344-0.44-0.082-1.137,0-1.916c0.048-0.45,0.048-0.915,0.087-1.263
			c0.03-0.272,0.149-0.554,0.087-0.827c-0.019-0.085-0.237-0.45-0.349-0.523c-0.273-0.18-0.937-0.189-1.393-0.262
			c-1.063-0.168-1.771-0.32-2.701-0.609c-2.779-0.862-5.251-2.367-7.144-4.313c-0.539-0.554-0.968-1.165-1.437-1.828
			c-1.192-1.687-2.019-4.091-1.787-7.014c0.14-1.747,0.842-3.244,1.525-4.398c1.444-2.44,3.596-4.299,6.316-5.576
			c0.811-0.381,1.669-0.792,2.57-1.046c0.176-0.049,0.35-0.035,0.523-0.086c1.348-0.408,3.022-0.697,4.878-0.697
			c0.029,0,0.059,0.001,0.087,0c2.946-0.125,5.625,0.527,7.753,1.393c0.586,0.239,1.218,0.526,1.786,0.872
			c0.595,0.362,1.291,0.792,1.917,1.263c0.832,0.626,1.674,1.369,2.353,2.222c0.672,0.846,1.346,1.75,1.83,2.875
			c0.555,1.295,1.016,2.797,0.915,4.835C-0.854,199.617-1.949,201.605-3.124,203.263z"/>
		<path fill="#00CED1" d="M-24.423,199.169c-0.375,0-1.401,0.071-1.482-0.043c-0.122-0.176,0-1.001,0-1.524c0-0.631,0-1.13,0-1.525
			c0-1.3,0.294-3.25-0.871-3.137c-0.89,0.087-0.74,0.97-0.74,1.961c0,0.595,0,1.299,0,1.958c0,1.21-0.206,3.226,0.261,3.659
			c0.439,0.41,1.804,0.22,2.613,0.22c0.962,0,2.048,0.119,2.048-0.784C-22.595,199.122-23.459,199.169-24.423,199.169z"/>
		<path fill="#00CED1" d="M-20.199,194.813c0-0.62,0.112-1.434-0.174-1.743c-0.201-0.216-0.733-0.197-0.915-0.13
			c-0.121,0.044-0.403,0.222-0.435,0.306c-0.152,0.397,0,1.416,0,1.785c0,1.613-0.126,3.615,0,5.184
			c0.049,0.608,1.229,0.73,1.481,0.219c0.17-0.349,0.043-1.285,0.043-1.83C-20.199,197.517-20.199,195.984-20.199,194.813z"/>
		<path fill="#00CED1" d="M-12.489,194.942c0-1,0.149-1.924-0.653-2.047c-0.153-0.024-0.63,0.092-0.784,0.35
			c-0.282,0.468-0.087,2.367-0.087,3.18c0,0.174,0.052,0.976-0.044,1.045c-0.11,0.079-0.249-0.204-0.262-0.218
			c-0.908-0.995-1.711-2.223-2.482-3.225c-0.341-0.441-0.78-1.197-1.394-1.088c-0.741,0.132-0.653,1.057-0.653,2.048
			c0,0.492,0,1.29,0,1.917c0,1.151-0.227,3.175,0.218,3.613c0.339,0.335,1.017,0.19,1.22-0.085c0.344-0.471,0.114-2.361,0.13-3.311
			c0.004-0.266-0.074-0.893,0.087-0.96c0.06-0.023,0.782,0.939,0.958,1.176c0.679,0.918,1.188,1.523,1.873,2.397
			c0.293,0.374,0.592,1.025,1.132,1.002c0.966-0.045,0.741-1.303,0.741-2.267C-12.489,197.243-12.489,196.248-12.489,194.942z"/>
		<path fill="#00CED1" d="M-8.874,197.602c0.643-0.01,1.729,0.134,2.178-0.045c0.026-0.011,0.357-0.319,0.349-0.305
			c0.074-0.121,0.169-0.601,0-0.871c-0.277-0.445-1.064-0.349-1.874-0.349c-0.308,0-1.23,0.099-1.35-0.043
			c-0.09-0.109,0.036-1.519,0.043-1.525c0.099-0.082,0.945,0,1.438,0c0.815,0,1.468,0.065,1.742-0.349
			c0.118-0.178,0.074-0.378,0.043-0.566c-0.117-0.724-0.835-0.653-1.917-0.653c-0.868,0-1.825-0.064-2.265,0.044
			c-0.789,0.195-0.653,1.038-0.653,2.091c0,0.682,0,1.285,0,1.917c0,0.991-0.159,3.223,0.218,3.57c0.345,0.32,1.299,0.22,2.178,0.22
			c1.095,0,2.446,0.238,2.483-0.742c0.034-0.893-0.829-0.826-1.655-0.826c-0.419,0-1.573,0.071-1.655-0.043
			c-0.063-0.09,0-0.52,0-0.785C-9.57,197.545-9.632,197.609-8.874,197.602z"/>
	</g>
</g>
<g>
	<path fill="#FFFFFF" d="M-1.845,144.979c-1.784-3.223-4.986-5.5-9.387-5.798c-1.168-0.079-2.418-0.046-3.773-0.046
		c-2.533,0-5.33-0.128-7.685,0.046c-3.475,0.257-5.999,1.889-7.822,3.865c-1.457,1.578-2.462,3.513-2.853,5.936
		c-0.397,2.464-0.206,5.956,0.459,7.961c0.467,1.406,1.262,2.678,2.162,3.728c1.746,2.037,4.373,3.6,7.684,4.096
		c0,0.936,0,1.969,0,3.037c0,1.022-0.196,2.168,0.093,2.944c0.374,1.007,1.622,1.521,2.646,1.151
		c0.713-0.258,1.277-1.111,1.83-1.703c1.453-1.557,2.797-3,4.273-4.556c0.348-0.366,0.649-0.764,0.964-0.828
		c0.657-0.136,1.334,0.031,1.885,0c3.93-0.224,6.804-2.232,8.65-4.647c1.11-1.453,1.988-3.21,2.254-5.384
		c0.137-1.119,0.099-2.446,0.092-3.728C-0.386,148.581-0.929,146.635-1.845,144.979z M-3.593,157.91
		c-1.383,2.452-4.139,4.633-7.731,4.878c-0.45,0.03-0.976,0-1.472,0c-0.447,0-1.016-0.111-1.427,0
		c-0.26,0.07-0.644,0.573-0.92,0.874c-1.858,2.023-3.656,3.936-5.521,5.936c-0.057,0.061-0.194,0.162-0.275,0.23
		c0,0-0.229,0.207-0.229,0.046c0-2.347,0-4.693,0-7.04c-3.311,0.074-5.759-1.11-7.456-2.808c-1.791-1.789-2.876-4.023-2.876-7.362
		c0-1.784,0.027-3.294,0.425-4.647c0.744-2.526,2.448-4.46,4.654-5.66c1.151-0.626,2.527-1.096,4.098-1.196
		c2.209-0.142,4.135,0,6.351,0c2.125,0,4.378-0.146,6.075,0.23c3.313,0.734,5.666,2.811,6.811,5.798
		c0.297,0.775,0.55,1.626,0.645,2.53C-2.122,152.776-2.505,155.98-3.593,157.91z"/>
	<path fill="#FFFFFF" d="M-6.251,152.028c0,0.29-0.235,0.524-0.525,0.524h-20.45c-0.29,0-0.525-0.234-0.525-0.524l0,0
		c0-0.29,0.235-0.525,0.525-0.525h20.45C-6.486,151.503-6.251,151.738-6.251,152.028L-6.251,152.028z"/>
	<path fill="#FFFFFF" d="M-9.251,147.821c0,0.289-0.235,0.524-0.525,0.524h-14.45c-0.29,0-0.525-0.235-0.525-0.524l0,0
		c0-0.29,0.235-0.525,0.525-0.525h14.45C-9.486,147.296-9.251,147.531-9.251,147.821L-9.251,147.821z"/>
	<path fill="#FFFFFF" d="M-9.251,156.103c0,0.289-0.235,0.524-0.525,0.524h-14.45c-0.29,0-0.525-0.235-0.525-0.524l0,0
		c0-0.29,0.235-0.525,0.525-0.525h14.45C-9.486,155.577-9.251,155.813-9.251,156.103L-9.251,156.103z"/>
</g>
<rect x="-38.472" y="306.772" fill-rule="evenodd" clip-rule="evenodd" fill="#00008B" width="43.665" height="43.665"/>
<path fill="#FFFFFF" d="M-6.244,333.786c-1.563,0-2.948,0.703-3.901,1.794l-11.78-5.939c0.068-0.335,0.104-0.682,0.104-1.036
	c0-0.368-0.041-0.727-0.114-1.073l11.765-5.932c0.954,1.107,2.35,1.823,3.926,1.823c2.873,0,5.202-2.33,5.202-5.203
	c0-2.872-2.329-5.202-5.202-5.202c-2.874,0-5.203,2.33-5.203,5.202c0,0.346,0.037,0.684,0.102,1.011l-11.793,5.946
	c-0.953-1.079-2.332-1.774-3.885-1.774c-2.874,0-5.203,2.33-5.203,5.202c0,2.873,2.329,5.203,5.203,5.203
	c1.567,0,2.956-0.708,3.91-1.805l11.772,5.936c-0.069,0.34-0.106,0.69-0.106,1.05c0,2.873,2.329,5.203,5.203,5.203
	c2.873,0,5.202-2.33,5.202-5.203C-1.042,336.116-3.371,333.786-6.244,333.786z"/>
<rect x="-38.11" y="72.329" fill-rule="evenodd" clip-rule="evenodd" fill="#ABC1CE" width="43.665" height="43.665"/>
<rect x="92.885" y="72.329" fill-rule="evenodd" clip-rule="evenodd" fill="#1E90FF" width="43.665" height="43.665"/>
<g>
	<path fill-rule="evenodd" clip-rule="evenodd" fill="#FFFFFF" d="M129.59,84.882c-0.331,1.23-1.998,2.22-2.911,3.29
		c0.173,9.7-6.701,17.417-16.075,18.101c-4.075,0.297-7.754-0.74-10.759-2.531c3.458,0.051,6.977-0.849,8.86-2.786
		c-3.126-0.121-4.666-1.83-5.695-4.05c0.571-0.095,1.858,0.086,2.658-0.127c-0.471-0.532-1.205-0.451-1.771-0.759
		c-1.753-0.949-2.878-2.788-3.038-5.316c0.879,0.176,1.498,0.612,2.532,0.633c-1.076-1.024-2.667-3.109-2.532-5.568
		c0.055-0.998,0.428-1.754,0.759-2.659c3.011,3.402,6.851,5.977,12.785,6.456c-1.25-6.451,6.614-9.96,10.758-5.695
		c1.408-0.281,2.651-0.725,3.67-1.394c-0.062,1.332-1.469,2.411-2.405,3.292C127.626,85.617,128.744,85.385,129.59,84.882z"/>
</g>
<path fill-rule="evenodd" clip-rule="evenodd" fill="#00BFFF" d="M49.22,72.329v43.665h43.665V72.329H49.22z M85.752,83.12
	c-1.83,0.042-3.945-0.202-5.2,0.416c-0.704,1.099-0.319,3.286-0.416,4.992c1.803,0,3.605,0,5.408,0
	c0.194,1.476-0.651,3.624-0.624,5.616c-1.525,0-3.051,0-4.576,0c-0.485,5.616-0.07,12.134-0.208,18.098c-2.288,0-4.577,0-6.864,0
	c0-6.033,0-12.065,0-18.098c-1.387,0-2.773,0-4.16,0c0-1.872,0-3.744,0-5.616c1.316,0,2.635,0,3.951,0
	c0.498-1.682,0.051-3.613,0.209-4.992c0.654-5.722,6.008-6.592,12.48-5.824C85.752,79.515,85.752,81.317,85.752,83.12z"/>
<g>
	<g>
		<path fill="#FFFFFF" d="M40.554,85.919c-0.678-0.853-1.521-1.596-2.353-2.222c-0.625-0.471-1.321-0.9-1.917-1.263
			c-0.568-0.346-1.2-0.633-1.786-0.872c-2.128-0.865-4.807-1.518-7.753-1.393c-0.028,0.001-0.058,0-0.087,0
			c-1.856,0-3.531,0.289-4.878,0.697c-0.173,0.051-0.347,0.037-0.523,0.086c-0.9,0.254-1.759,0.665-2.57,1.046
			c-2.72,1.277-4.872,3.136-6.316,5.576c-0.683,1.154-1.385,2.651-1.525,4.398c-0.232,2.923,0.595,5.327,1.787,7.014
			c0.469,0.663,0.898,1.274,1.437,1.828c1.892,1.946,4.365,3.451,7.144,4.313c0.931,0.289,1.639,0.441,2.701,0.609
			c0.457,0.072,1.12,0.082,1.393,0.262c0.112,0.073,0.33,0.438,0.349,0.523c0.062,0.273-0.057,0.555-0.087,0.827
			c-0.039,0.348-0.04,0.813-0.087,1.263c-0.082,0.779-0.344,1.476,0,1.916c0.191,0.245,0.562,0.387,1.002,0.306
			c0.345-0.063,0.829-0.415,1.307-0.653c1.496-0.746,2.792-1.469,4.095-2.309c2.294-1.48,4.274-2.856,6.054-4.617
			c1.107-1.096,2.032-2.127,2.962-3.441c1.174-1.657,2.269-3.646,2.396-6.186c0.102-2.038-0.36-3.54-0.915-4.835
			C41.9,87.669,41.227,86.765,40.554,85.919z M19.384,97.289c-0.81,0-2.174,0.19-2.613-0.22c-0.467-0.434-0.261-2.449-0.261-3.659
			c0-0.659,0-1.363,0-1.958c0-0.991-0.15-1.874,0.74-1.961c1.165-0.113,0.871,1.837,0.871,3.137c0,0.396,0,0.895,0,1.525
			c0,0.523-0.122,1.349,0,1.524c0.081,0.114,1.107,0.043,1.482,0.043c0.964,0,1.829-0.047,1.829,0.784
			C21.432,97.408,20.347,97.289,19.384,97.289z M23.784,96.984c-0.252,0.512-1.432,0.39-1.481-0.219c-0.126-1.568,0-3.57,0-5.184
			c0-0.369-0.152-1.388,0-1.785c0.032-0.084,0.314-0.262,0.435-0.306c0.182-0.067,0.714-0.086,0.915,0.13
			c0.286,0.31,0.174,1.123,0.174,1.743c0,1.172,0,2.704,0,3.79C23.827,95.699,23.954,96.636,23.784,96.984z M30.796,97.289
			c-0.541,0.023-0.839-0.628-1.132-1.002c-0.685-0.874-1.193-1.479-1.873-2.397c-0.176-0.236-0.898-1.199-0.958-1.176
			c-0.161,0.067-0.083,0.694-0.087,0.96c-0.016,0.949,0.214,2.84-0.13,3.311c-0.204,0.275-0.881,0.42-1.22,0.085
			c-0.444-0.438-0.218-2.462-0.218-3.613c0-0.627,0-1.425,0-1.917c0-0.991-0.088-1.916,0.653-2.048
			c0.614-0.109,1.053,0.646,1.394,1.088c0.771,1.002,1.575,2.229,2.482,3.225c0.013,0.014,0.151,0.297,0.262,0.218
			c0.096-0.069,0.044-0.871,0.044-1.045c0-0.813-0.195-2.712,0.087-3.18c0.154-0.258,0.63-0.374,0.784-0.35
			c0.802,0.123,0.653,1.047,0.653,2.047c0,1.306,0,2.301,0,3.528C31.537,95.986,31.763,97.244,30.796,97.289z M34.456,94.893
			c0,0.266-0.063,0.695,0,0.785c0.082,0.114,1.236,0.043,1.655,0.043c0.826,0,1.688-0.066,1.655,0.826
			c-0.037,0.98-1.388,0.742-2.483,0.742c-0.878,0-1.833,0.101-2.178-0.22c-0.377-0.348-0.218-2.579-0.218-3.57
			c0-0.632,0-1.235,0-1.917c0-1.053-0.136-1.896,0.653-2.091c0.439-0.108,1.397-0.044,2.265-0.044c1.082,0,1.8-0.07,1.917,0.653
			c0.03,0.188,0.074,0.389-0.043,0.566c-0.274,0.414-0.927,0.349-1.742,0.349c-0.493,0-1.339-0.082-1.438,0
			c-0.007,0.007-0.133,1.416-0.043,1.525c0.119,0.142,1.042,0.043,1.35,0.043c0.81,0,1.596-0.097,1.874,0.349
			c0.169,0.271,0.074,0.75,0,0.871c0.009-0.015-0.323,0.294-0.349,0.305c-0.449,0.179-1.535,0.035-2.178,0.045
			C34.395,94.161,34.456,94.097,34.456,94.893z"/>
		<path fill="#00CED1" d="M5.555,72.329v43.665h43.665V72.329H5.555z M40.903,99.814c-0.931,1.314-1.855,2.346-2.962,3.441
			c-1.78,1.761-3.76,3.137-6.054,4.617c-1.303,0.84-2.599,1.563-4.095,2.309c-0.479,0.238-0.962,0.59-1.307,0.653
			c-0.44,0.081-0.811-0.061-1.002-0.306c-0.344-0.44-0.082-1.137,0-1.916c0.048-0.45,0.048-0.915,0.087-1.263
			c0.03-0.272,0.149-0.554,0.087-0.827c-0.019-0.085-0.237-0.45-0.349-0.523c-0.273-0.18-0.937-0.189-1.393-0.262
			c-1.063-0.168-1.771-0.32-2.701-0.609c-2.779-0.862-5.251-2.367-7.144-4.313c-0.539-0.554-0.968-1.165-1.437-1.828
			c-1.192-1.687-2.019-4.091-1.787-7.014c0.14-1.747,0.842-3.244,1.525-4.398c1.444-2.44,3.596-4.299,6.316-5.576
			c0.811-0.381,1.669-0.792,2.57-1.046c0.176-0.049,0.35-0.035,0.523-0.086c1.348-0.408,3.022-0.697,4.878-0.697
			c0.029,0,0.059,0.001,0.087,0c2.946-0.125,5.625,0.527,7.753,1.393c0.586,0.239,1.218,0.526,1.786,0.872
			c0.595,0.362,1.291,0.792,1.917,1.263c0.832,0.626,1.674,1.369,2.353,2.222c0.672,0.846,1.346,1.75,1.83,2.875
			c0.555,1.295,1.016,2.797,0.915,4.835C43.172,96.169,42.077,98.157,40.903,99.814z"/>
		<path fill="#00CED1" d="M19.603,95.721c-0.375,0-1.401,0.071-1.482-0.043c-0.122-0.176,0-1.001,0-1.524c0-0.631,0-1.13,0-1.525
			c0-1.3,0.294-3.25-0.871-3.137c-0.89,0.087-0.74,0.97-0.74,1.961c0,0.595,0,1.299,0,1.958c0,1.21-0.206,3.226,0.261,3.659
			c0.439,0.41,1.804,0.22,2.613,0.22c0.962,0,2.048,0.119,2.048-0.784C21.432,95.674,20.567,95.721,19.603,95.721z"/>
		<path fill="#00CED1" d="M23.827,91.364c0-0.62,0.112-1.434-0.174-1.743c-0.201-0.216-0.733-0.197-0.915-0.13
			c-0.121,0.044-0.403,0.222-0.435,0.306c-0.152,0.397,0,1.416,0,1.785c0,1.613-0.126,3.615,0,5.184
			c0.049,0.608,1.229,0.73,1.481,0.219c0.17-0.349,0.043-1.285,0.043-1.83C23.827,94.068,23.827,92.536,23.827,91.364z"/>
		<path fill="#00CED1" d="M31.537,91.494c0-1,0.149-1.924-0.653-2.047c-0.153-0.024-0.63,0.092-0.784,0.35
			c-0.282,0.468-0.087,2.367-0.087,3.18c0,0.174,0.052,0.976-0.044,1.045c-0.11,0.079-0.249-0.204-0.262-0.218
			c-0.908-0.995-1.711-2.223-2.482-3.225c-0.341-0.441-0.78-1.197-1.394-1.088c-0.741,0.132-0.653,1.057-0.653,2.048
			c0,0.492,0,1.29,0,1.917c0,1.151-0.227,3.175,0.218,3.613c0.339,0.335,1.017,0.19,1.22-0.085c0.344-0.471,0.114-2.361,0.13-3.311
			c0.004-0.266-0.074-0.893,0.087-0.96c0.06-0.023,0.782,0.939,0.958,1.176c0.679,0.918,1.188,1.523,1.873,2.397
			c0.293,0.374,0.592,1.025,1.132,1.002c0.966-0.045,0.741-1.303,0.741-2.267C31.537,93.795,31.537,92.8,31.537,91.494z"/>
		<path fill="#00CED1" d="M35.153,94.153c0.643-0.01,1.729,0.134,2.178-0.045c0.026-0.011,0.357-0.319,0.349-0.305
			c0.074-0.121,0.169-0.601,0-0.871c-0.277-0.445-1.064-0.349-1.874-0.349c-0.308,0-1.23,0.099-1.35-0.043
			c-0.09-0.109,0.036-1.519,0.043-1.525c0.099-0.082,0.945,0,1.438,0c0.815,0,1.468,0.065,1.742-0.349
			c0.118-0.178,0.074-0.378,0.043-0.566c-0.117-0.724-0.835-0.653-1.917-0.653c-0.868,0-1.825-0.064-2.265,0.044
			c-0.789,0.195-0.653,1.038-0.653,2.091c0,0.682,0,1.285,0,1.917c0,0.991-0.159,3.223,0.218,3.57c0.345,0.32,1.299,0.22,2.178,0.22
			c1.095,0,2.446,0.238,2.483-0.742c0.034-0.893-0.829-0.826-1.655-0.826c-0.419,0-1.573,0.071-1.655-0.043
			c-0.063-0.09,0-0.52,0-0.785C34.456,94.097,34.395,94.161,35.153,94.153z"/>
	</g>
</g>
<g>
	<path fill="#FFFFFF" d="M-1.483,85.196c-1.784-3.223-4.986-5.5-9.387-5.798c-1.168-0.079-2.418-0.046-3.773-0.046
		c-2.533,0-5.33-0.128-7.685,0.046c-3.475,0.257-5.999,1.889-7.822,3.865c-1.457,1.578-2.462,3.513-2.853,5.936
		c-0.397,2.464-0.206,5.956,0.459,7.961c0.467,1.406,1.262,2.678,2.162,3.728c1.746,2.037,4.373,3.6,7.684,4.096
		c0,0.936,0,1.969,0,3.037c0,1.022-0.196,2.168,0.093,2.944c0.374,1.007,1.622,1.521,2.646,1.151
		c0.713-0.258,1.277-1.111,1.83-1.703c1.453-1.557,2.797-3,4.273-4.556c0.348-0.366,0.649-0.764,0.964-0.828
		c0.657-0.136,1.334,0.031,1.885,0c3.93-0.224,6.804-2.232,8.65-4.647c1.11-1.453,1.988-3.21,2.254-5.384
		c0.137-1.119,0.099-2.446,0.092-3.728C-0.024,88.797-0.567,86.851-1.483,85.196z M-3.231,98.126
		c-1.383,2.452-4.139,4.633-7.731,4.878c-0.45,0.03-0.976,0-1.472,0c-0.447,0-1.016-0.111-1.427,0
		c-0.26,0.07-0.644,0.573-0.92,0.874c-1.858,2.023-3.656,3.936-5.521,5.936c-0.057,0.061-0.194,0.162-0.275,0.23
		c0,0-0.229,0.207-0.229,0.046c0-2.347,0-4.693,0-7.04c-3.311,0.074-5.759-1.11-7.456-2.808c-1.791-1.789-2.876-4.023-2.876-7.362
		c0-1.784,0.027-3.294,0.425-4.647c0.744-2.526,2.448-4.46,4.654-5.66c1.151-0.626,2.527-1.096,4.098-1.196
		c2.209-0.142,4.135,0,6.351,0c2.125,0,4.378-0.146,6.075,0.23c3.313,0.734,5.666,2.811,6.811,5.798
		c0.297,0.775,0.55,1.626,0.645,2.53C-1.76,92.993-2.143,96.197-3.231,98.126z"/>
	<path fill="#FFFFFF" d="M-5.889,92.245c0,0.29-0.235,0.524-0.525,0.524h-20.45c-0.29,0-0.525-0.234-0.525-0.524l0,0
		c0-0.29,0.235-0.525,0.525-0.525h20.45C-6.124,91.719-5.889,91.955-5.889,92.245L-5.889,92.245z"/>
	<path fill="#FFFFFF" d="M-8.889,88.038c0,0.289-0.235,0.524-0.525,0.524h-14.45c-0.29,0-0.525-0.235-0.525-0.524l0,0
		c0-0.29,0.235-0.525,0.525-0.525h14.45C-9.124,87.512-8.889,87.748-8.889,88.038L-8.889,88.038z"/>
	<path fill="#FFFFFF" d="M-8.889,96.319c0,0.289-0.235,0.524-0.525,0.524h-14.45c-0.29,0-0.525-0.235-0.525-0.524l0,0
		c0-0.29,0.235-0.525,0.525-0.525h14.45C-9.124,95.793-8.889,96.029-8.889,96.319L-8.889,96.319z"/>
</g>
<rect x="136.55" y="72.329" fill-rule="evenodd" clip-rule="evenodd" fill="#00008B" width="43.665" height="43.665"/>
<path fill="#FFFFFF" d="M168.778,99.342c-1.563,0-2.948,0.703-3.901,1.794l-11.78-5.939c0.068-0.335,0.104-0.682,0.104-1.036
	c0-0.368-0.041-0.727-0.114-1.073l11.765-5.932c0.954,1.107,2.35,1.823,3.926,1.823c2.873,0,5.202-2.33,5.202-5.203
	c0-2.872-2.329-5.202-5.202-5.202c-2.874,0-5.203,2.33-5.203,5.202c0,0.346,0.037,0.684,0.102,1.011l-11.793,5.946
	c-0.953-1.079-2.332-1.774-3.885-1.774c-2.874,0-5.203,2.33-5.203,5.202c0,2.873,2.329,5.203,5.203,5.203
	c1.567,0,2.956-0.708,3.91-1.805l11.772,5.936c-0.069,0.34-0.106,0.69-0.106,1.05c0,2.873,2.329,5.203,5.203,5.203
	c2.873,0,5.202-2.33,5.202-5.203C173.98,101.672,171.651,99.342,168.778,99.342z"/>
<rect fill-rule="evenodd" clip-rule="evenodd" fill="#ABC1CE" width="43.665" height="43.665"/>
<rect x="220.753" fill-rule="evenodd" clip-rule="evenodd" fill="#1E90FF" width="43.665" height="43.665"/>
<g>
	<path fill-rule="evenodd" clip-rule="evenodd" fill="#FFFFFF" d="M257.458,12.554c-0.331,1.23-1.998,2.22-2.911,3.29
		c0.173,9.7-6.701,17.417-16.075,18.101c-4.075,0.297-7.754-0.74-10.759-2.531c3.458,0.051,6.977-0.849,8.86-2.786
		c-3.126-0.121-4.666-1.83-5.695-4.05c0.571-0.095,1.858,0.086,2.658-0.127c-0.471-0.532-1.205-0.451-1.771-0.759
		c-1.753-0.949-2.878-2.788-3.038-5.316c0.879,0.176,1.498,0.612,2.532,0.633c-1.076-1.024-2.667-3.109-2.532-5.568
		c0.055-0.998,0.428-1.754,0.759-2.659c3.011,3.402,6.851,5.977,12.785,6.456c-1.25-6.451,6.614-9.96,10.758-5.695
		c1.408-0.281,2.651-0.725,3.67-1.394c-0.062,1.332-1.469,2.411-2.405,3.292C255.494,13.288,256.612,13.057,257.458,12.554z"/>
</g>
<path fill-rule="evenodd" clip-rule="evenodd" fill="#00BFFF" d="M150.087,0v43.665h43.665V0H150.087z M186.62,10.792
	c-1.83,0.042-3.945-0.202-5.2,0.416c-0.704,1.099-0.319,3.286-0.416,4.992c1.803,0,3.605,0,5.408,0
	c0.194,1.476-0.651,3.624-0.624,5.616c-1.525,0-3.051,0-4.576,0c-0.485,5.616-0.07,12.134-0.208,18.098c-2.288,0-4.577,0-6.864,0
	c0-6.033,0-12.065,0-18.098c-1.387,0-2.773,0-4.16,0c0-1.872,0-3.744,0-5.616c1.316,0,2.635,0,3.951,0
	c0.498-1.682,0.051-3.613,0.209-4.992c0.654-5.722,6.008-6.592,12.48-5.824C186.62,7.186,186.62,8.989,186.62,10.792z"/>
<g>
	<g>
		<path fill="#FFFFFF" d="M116.422,13.59c-0.678-0.853-1.521-1.596-2.353-2.222c-0.625-0.471-1.321-0.9-1.917-1.263
			c-0.568-0.346-1.2-0.633-1.786-0.872c-2.128-0.865-4.807-1.518-7.753-1.393c-0.028,0.001-0.058,0-0.087,0
			c-1.856,0-3.531,0.289-4.878,0.697c-0.173,0.051-0.347,0.037-0.523,0.086c-0.9,0.254-1.759,0.665-2.57,1.046
			c-2.72,1.277-4.872,3.136-6.316,5.576c-0.683,1.154-1.385,2.651-1.525,4.398c-0.232,2.923,0.595,5.327,1.787,7.014
			c0.469,0.663,0.898,1.274,1.437,1.828c1.892,1.946,4.365,3.451,7.144,4.313c0.931,0.289,1.639,0.441,2.701,0.609
			c0.457,0.072,1.12,0.082,1.393,0.262c0.112,0.073,0.33,0.438,0.349,0.523c0.062,0.273-0.057,0.555-0.087,0.827
			c-0.039,0.348-0.04,0.813-0.087,1.263c-0.082,0.779-0.344,1.476,0,1.916c0.191,0.245,0.562,0.387,1.002,0.306
			c0.345-0.063,0.829-0.415,1.307-0.653c1.496-0.746,2.792-1.469,4.095-2.309c2.294-1.48,4.274-2.856,6.054-4.617
			c1.107-1.096,2.032-2.127,2.962-3.441c1.174-1.657,2.269-3.646,2.396-6.186c0.102-2.038-0.36-3.54-0.915-4.835
			C117.768,15.34,117.094,14.436,116.422,13.59z M95.252,24.96c-0.81,0-2.174,0.19-2.613-0.22c-0.467-0.434-0.261-2.449-0.261-3.659
			c0-0.659,0-1.363,0-1.958c0-0.991-0.15-1.874,0.74-1.961c1.165-0.113,0.871,1.837,0.871,3.137c0,0.396,0,0.895,0,1.525
			c0,0.523-0.122,1.349,0,1.524c0.081,0.114,1.107,0.043,1.482,0.043c0.964,0,1.829-0.047,1.829,0.784
			C97.3,25.08,96.214,24.96,95.252,24.96z M99.652,24.656c-0.252,0.512-1.432,0.39-1.481-0.219c-0.126-1.568,0-3.57,0-5.184
			c0-0.369-0.152-1.388,0-1.785c0.032-0.084,0.314-0.262,0.435-0.306c0.182-0.067,0.714-0.086,0.915,0.13
			c0.286,0.31,0.174,1.123,0.174,1.743c0,1.172,0,2.704,0,3.79C99.695,23.371,99.822,24.307,99.652,24.656z M106.664,24.96
			c-0.541,0.023-0.839-0.628-1.132-1.002c-0.685-0.874-1.193-1.479-1.873-2.397c-0.176-0.236-0.898-1.199-0.958-1.176
			c-0.161,0.067-0.083,0.694-0.087,0.96c-0.016,0.949,0.214,2.84-0.13,3.311c-0.204,0.275-0.881,0.42-1.22,0.085
			c-0.444-0.438-0.218-2.462-0.218-3.613c0-0.627,0-1.425,0-1.917c0-0.991-0.088-1.916,0.653-2.048
			c0.614-0.109,1.053,0.646,1.394,1.088c0.771,1.002,1.575,2.229,2.482,3.225c0.013,0.014,0.151,0.297,0.262,0.218
			c0.096-0.069,0.044-0.871,0.044-1.045c0-0.813-0.195-2.712,0.087-3.18c0.154-0.258,0.63-0.374,0.784-0.35
			c0.802,0.123,0.653,1.047,0.653,2.047c0,1.306,0,2.301,0,3.528C107.405,23.658,107.63,24.916,106.664,24.96z M110.324,22.564
			c0,0.266-0.063,0.695,0,0.785c0.082,0.114,1.236,0.043,1.655,0.043c0.826,0,1.688-0.066,1.655,0.826
			c-0.037,0.98-1.388,0.742-2.483,0.742c-0.878,0-1.833,0.101-2.178-0.22c-0.377-0.348-0.218-2.579-0.218-3.57
			c0-0.632,0-1.235,0-1.917c0-1.053-0.136-1.896,0.653-2.091c0.439-0.108,1.397-0.044,2.265-0.044c1.082,0,1.8-0.07,1.917,0.653
			c0.03,0.188,0.074,0.389-0.043,0.566c-0.274,0.414-0.927,0.349-1.742,0.349c-0.493,0-1.339-0.082-1.438,0
			c-0.007,0.007-0.133,1.416-0.043,1.525c0.119,0.142,1.042,0.043,1.35,0.043c0.81,0,1.596-0.097,1.874,0.349
			c0.169,0.271,0.074,0.75,0,0.871c0.009-0.015-0.323,0.294-0.349,0.305c-0.449,0.179-1.535,0.035-2.178,0.045
			C110.262,21.833,110.324,21.768,110.324,22.564z"/>
		<path fill="#00CED1" d="M81.422,0v43.665h43.665V0H81.422z M116.771,27.486c-0.931,1.314-1.855,2.346-2.962,3.441
			c-1.78,1.761-3.76,3.137-6.054,4.617c-1.303,0.84-2.599,1.563-4.095,2.309c-0.479,0.238-0.962,0.59-1.307,0.653
			c-0.44,0.081-0.811-0.061-1.002-0.306c-0.344-0.44-0.082-1.137,0-1.916c0.048-0.45,0.048-0.915,0.087-1.263
			c0.03-0.272,0.149-0.554,0.087-0.827c-0.019-0.085-0.237-0.45-0.349-0.523c-0.273-0.18-0.937-0.189-1.393-0.262
			c-1.063-0.168-1.771-0.32-2.701-0.609c-2.779-0.862-5.251-2.367-7.144-4.313c-0.539-0.554-0.968-1.165-1.437-1.828
			c-1.192-1.687-2.019-4.091-1.787-7.014c0.14-1.747,0.842-3.244,1.525-4.398c1.444-2.44,3.596-4.299,6.316-5.576
			c0.811-0.381,1.669-0.792,2.57-1.046c0.176-0.049,0.35-0.035,0.523-0.086c1.348-0.408,3.022-0.697,4.878-0.697
			c0.029,0,0.059,0.001,0.087,0c2.946-0.125,5.625,0.527,7.753,1.393c0.586,0.239,1.218,0.526,1.786,0.872
			c0.595,0.362,1.291,0.792,1.917,1.263c0.832,0.626,1.674,1.369,2.353,2.222c0.672,0.846,1.346,1.75,1.83,2.875
			c0.555,1.295,1.016,2.797,0.915,4.835C119.04,23.84,117.945,25.829,116.771,27.486z"/>
		<path fill="#00CED1" d="M95.471,23.392c-0.375,0-1.401,0.071-1.482-0.043c-0.122-0.176,0-1.001,0-1.524c0-0.631,0-1.13,0-1.525
			c0-1.3,0.294-3.25-0.871-3.137c-0.89,0.087-0.74,0.97-0.74,1.961c0,0.595,0,1.299,0,1.958c0,1.21-0.206,3.226,0.261,3.659
			c0.439,0.41,1.804,0.22,2.613,0.22c0.962,0,2.048,0.119,2.048-0.784C97.299,23.345,96.435,23.392,95.471,23.392z"/>
		<path fill="#00CED1" d="M99.695,19.036c0-0.62,0.112-1.434-0.174-1.743c-0.201-0.216-0.733-0.197-0.915-0.13
			c-0.121,0.044-0.403,0.222-0.435,0.306c-0.152,0.397,0,1.416,0,1.785c0,1.613-0.126,3.615,0,5.184
			c0.049,0.608,1.229,0.73,1.481,0.219c0.17-0.349,0.043-1.285,0.043-1.83C99.695,21.74,99.695,20.208,99.695,19.036z"/>
		<path fill="#00CED1" d="M107.405,19.166c0-1,0.149-1.924-0.653-2.047c-0.153-0.024-0.63,0.092-0.784,0.35
			c-0.282,0.468-0.087,2.367-0.087,3.18c0,0.174,0.052,0.976-0.044,1.045c-0.11,0.079-0.249-0.204-0.262-0.218
			c-0.908-0.995-1.711-2.223-2.482-3.225c-0.341-0.441-0.78-1.197-1.394-1.088c-0.741,0.132-0.653,1.057-0.653,2.048
			c0,0.492,0,1.29,0,1.917c0,1.151-0.227,3.175,0.218,3.613c0.339,0.335,1.017,0.19,1.22-0.085c0.344-0.471,0.114-2.361,0.13-3.311
			c0.004-0.266-0.074-0.893,0.087-0.96c0.06-0.023,0.782,0.939,0.958,1.176c0.679,0.918,1.188,1.523,1.873,2.397
			c0.293,0.374,0.592,1.025,1.132,1.002c0.966-0.045,0.741-1.303,0.741-2.267C107.405,21.466,107.405,20.471,107.405,19.166z"/>
		<path fill="#00CED1" d="M111.021,21.825c0.643-0.01,1.729,0.134,2.178-0.045c0.026-0.011,0.357-0.319,0.349-0.305
			c0.074-0.121,0.169-0.601,0-0.871c-0.277-0.445-1.064-0.349-1.874-0.349c-0.308,0-1.23,0.099-1.35-0.043
			c-0.09-0.109,0.036-1.519,0.043-1.525c0.099-0.082,0.945,0,1.438,0c0.815,0,1.468,0.065,1.742-0.349
			c0.118-0.178,0.074-0.378,0.043-0.566c-0.117-0.724-0.835-0.653-1.917-0.653c-0.868,0-1.825-0.064-2.265,0.044
			c-0.789,0.195-0.653,1.038-0.653,2.091c0,0.682,0,1.285,0,1.917c0,0.991-0.159,3.223,0.218,3.57c0.345,0.32,1.299,0.22,2.178,0.22
			c1.095,0,2.446,0.238,2.483-0.742c0.034-0.893-0.829-0.826-1.655-0.826c-0.419,0-1.573,0.071-1.655-0.043
			c-0.063-0.09,0-0.52,0-0.785C110.324,21.768,110.262,21.833,111.021,21.825z"/>
	</g>
</g>
<g>
	<path fill="#FFFFFF" d="M36.627,12.867c-1.784-3.223-4.986-5.5-9.387-5.798c-1.168-0.079-2.418-0.046-3.773-0.046
		c-2.533,0-5.33-0.128-7.685,0.046c-3.475,0.257-5.999,1.889-7.822,3.865c-1.457,1.578-2.462,3.513-2.853,5.936
		c-0.397,2.464-0.206,5.956,0.459,7.961c0.467,1.406,1.262,2.678,2.162,3.728c1.746,2.037,4.373,3.6,7.684,4.096
		c0,0.936,0,1.969,0,3.037c0,1.022-0.196,2.168,0.093,2.944c0.374,1.007,1.622,1.521,2.646,1.151
		c0.713-0.258,1.277-1.111,1.83-1.703c1.453-1.557,2.797-3,4.273-4.556c0.348-0.366,0.649-0.764,0.964-0.828
		c0.657-0.136,1.334,0.031,1.885,0c3.93-0.224,6.804-2.232,8.65-4.647c1.11-1.453,1.988-3.21,2.254-5.384
		c0.137-1.119,0.099-2.446,0.092-3.728C38.086,16.469,37.543,14.522,36.627,12.867z M34.878,25.798
		c-1.383,2.452-4.139,4.633-7.731,4.878c-0.45,0.03-0.976,0-1.472,0c-0.447,0-1.016-0.111-1.427,0
		c-0.26,0.07-0.644,0.573-0.92,0.874c-1.858,2.023-3.656,3.936-5.521,5.936c-0.057,0.061-0.194,0.162-0.275,0.23
		c0,0-0.229,0.207-0.229,0.046c0-2.347,0-4.693,0-7.04c-3.311,0.074-5.759-1.11-7.456-2.808c-1.791-1.789-2.876-4.023-2.876-7.362
		c0-1.784,0.027-3.294,0.425-4.647c0.744-2.526,2.448-4.46,4.654-5.66c1.151-0.626,2.527-1.096,4.098-1.196
		c2.209-0.142,4.135,0,6.351,0c2.125,0,4.378-0.146,6.075,0.23c3.313,0.734,5.666,2.811,6.811,5.798
		c0.297,0.775,0.55,1.626,0.645,2.53C36.35,20.664,35.967,23.868,34.878,25.798z"/>
	<path fill="#FFFFFF" d="M32.221,19.916c0,0.29-0.235,0.524-0.525,0.524h-20.45c-0.29,0-0.525-0.234-0.525-0.524l0,0
		c0-0.29,0.235-0.525,0.525-0.525h20.45C31.986,19.391,32.221,19.626,32.221,19.916L32.221,19.916z"/>
	<path fill="#FFFFFF" d="M29.221,15.709c0,0.289-0.235,0.524-0.525,0.524h-14.45c-0.29,0-0.525-0.235-0.525-0.524l0,0
		c0-0.29,0.235-0.525,0.525-0.525h14.45C28.986,15.184,29.221,15.419,29.221,15.709L29.221,15.709z"/>
	<path fill="#FFFFFF" d="M29.221,23.99c0,0.289-0.235,0.524-0.525,0.524h-14.45c-0.29,0-0.525-0.235-0.525-0.524l0,0
		c0-0.29,0.235-0.525,0.525-0.525h14.45C28.986,23.465,29.221,23.7,29.221,23.99L29.221,23.99z"/>
</g>
<rect x="301.848" fill-rule="evenodd" clip-rule="evenodd" fill="#00008B" width="43.665" height="43.665"/>
<path fill="#FFFFFF" d="M334.075,27.014c-1.563,0-2.948,0.703-3.901,1.794l-11.78-5.939c0.068-0.335,0.104-0.682,0.104-1.036
	c0-0.368-0.041-0.727-0.114-1.073l11.765-5.932c0.954,1.107,2.35,1.823,3.926,1.823c2.873,0,5.202-2.33,5.202-5.203
	c0-2.872-2.329-5.202-5.202-5.202c-2.874,0-5.203,2.33-5.203,5.202c0,0.346,0.037,0.684,0.102,1.011l-11.793,5.946
	c-0.953-1.079-2.332-1.774-3.885-1.774c-2.874,0-5.203,2.33-5.203,5.202c0,2.873,2.329,5.203,5.203,5.203
	c1.567,0,2.956-0.708,3.91-1.805l11.772,5.936c-0.069,0.34-0.106,0.69-0.106,1.05c0,2.873,2.329,5.203,5.203,5.203
	c2.873,0,5.202-2.33,5.202-5.203C339.277,29.344,336.948,27.014,334.075,27.014z"/>
<g>
	<g>
		<path fill-rule="evenodd" clip-rule="evenodd" fill="#1E90FF" d="M439.704,166.113c-0.33,1.23-1.998,2.22-2.91,3.29
			c0.172,9.7-6.701,17.417-16.075,18.101c-4.075,0.297-7.755-0.74-10.759-2.531c3.457,0.051,6.977-0.849,8.859-2.786
			c-3.127-0.121-4.666-1.83-5.695-4.05c0.57-0.095,1.858,0.086,2.658-0.127c-0.471-0.532-1.205-0.451-1.771-0.759
			c-1.754-0.949-2.879-2.788-3.039-5.316c0.88,0.176,1.498,0.612,2.532,0.633c-1.076-1.024-2.667-3.109-2.532-5.568
			c0.055-0.998,0.429-1.754,0.76-2.659c3.011,3.402,6.851,5.977,12.785,6.456c-1.25-6.451,6.613-9.96,10.758-5.695
			c1.408-0.281,2.651-0.725,3.67-1.394c-0.061,1.332-1.469,2.411-2.404,3.292C437.741,166.848,438.858,166.616,439.704,166.113z"/>
	</g>
</g>
<path fill-rule="evenodd" clip-rule="evenodd" fill="#00BFFF" d="M439.532,120.686c-1.83,0.042-3.945-0.202-5.2,0.416
	c-0.704,1.099-0.319,3.286-0.416,4.992c1.803,0,3.605,0,5.408,0c0.194,1.476-0.651,3.624-0.624,5.616c-1.525,0-3.051,0-4.576,0
	c-0.485,5.616-0.07,12.134-0.208,18.098c-2.288,0-4.577,0-6.864,0c0-6.033,0-12.065,0-18.098c-1.387,0-2.773,0-4.16,0
	c0-1.872,0-3.744,0-5.616c1.316,0,2.635,0,3.951,0c0.498-1.682,0.051-3.613,0.209-4.992c0.654-5.722,6.008-6.592,12.48-5.824
	C439.532,117.08,439.532,118.883,439.532,120.686z"/>
<g>
	<g>
		<path fill="#00CED1" d="M437.999,79.819c-0.678-0.853-1.52-1.596-2.352-2.222c-0.626-0.471-1.322-0.9-1.917-1.263
			c-0.568-0.346-1.2-0.633-1.786-0.872c-2.129-0.865-4.807-1.518-7.753-1.393c-0.028,0.001-0.058,0-0.087,0
			c-1.857,0-3.531,0.289-4.879,0.697c-0.173,0.051-0.348,0.037-0.523,0.086c-0.9,0.254-1.759,0.665-2.569,1.046
			c-2.72,1.277-4.872,3.136-6.315,5.576c-0.684,1.154-1.386,2.651-1.525,4.398c-0.232,2.923,0.595,5.327,1.787,7.014
			c0.469,0.663,0.897,1.274,1.437,1.828c1.892,1.946,4.364,3.451,7.144,4.313c0.931,0.289,1.639,0.441,2.701,0.609
			c0.457,0.072,1.119,0.082,1.393,0.262c0.112,0.073,0.33,0.438,0.35,0.523c0.062,0.273-0.057,0.555-0.088,0.827
			c-0.039,0.348-0.039,0.813-0.087,1.263c-0.081,0.779-0.345,1.476,0,1.916c0.19,0.245,0.562,0.387,1.002,0.306
			c0.345-0.063,0.829-0.415,1.308-0.653c1.496-0.746,2.791-1.469,4.094-2.309c2.295-1.48,4.275-2.856,6.055-4.617
			c1.107-1.096,2.031-2.127,2.963-3.441c1.174-1.657,2.269-3.646,2.395-6.186c0.102-2.038-0.359-3.54-0.914-4.835
			C439.345,81.569,438.671,80.665,437.999,79.819z M416.829,91.189c-0.809,0-2.174,0.19-2.613-0.22
			c-0.467-0.434-0.261-2.449-0.261-3.659c0-0.659,0-1.363,0-1.958c0-0.991-0.149-1.874,0.74-1.961
			c1.165-0.113,0.871,1.837,0.871,3.137c0,0.396,0,0.895,0,1.525c0,0.523-0.122,1.349,0,1.524c0.081,0.114,1.106,0.043,1.481,0.043
			c0.965,0,1.829-0.047,1.83,0.784C418.877,91.309,417.792,91.189,416.829,91.189z M421.229,90.885
			c-0.252,0.512-1.432,0.39-1.48-0.219c-0.127-1.568,0-3.57,0-5.184c0-0.369-0.152-1.388,0-1.785
			c0.031-0.084,0.313-0.262,0.435-0.306c0.182-0.067,0.714-0.086,0.915,0.13c0.285,0.31,0.174,1.123,0.174,1.743
			c0,1.172,0,2.704,0,3.79C421.272,89.6,421.399,90.536,421.229,90.885z M428.241,91.189c-0.54,0.023-0.838-0.628-1.132-1.002
			c-0.685-0.874-1.193-1.479-1.872-2.397c-0.177-0.236-0.898-1.199-0.959-1.176c-0.161,0.067-0.082,0.694-0.087,0.96
			c-0.017,0.949,0.214,2.84-0.13,3.311c-0.204,0.275-0.881,0.42-1.221,0.085c-0.444-0.438-0.218-2.462-0.218-3.613
			c0-0.627,0-1.425,0-1.917c0-0.991-0.088-1.916,0.653-2.048c0.613-0.109,1.053,0.646,1.395,1.088
			c0.771,1.002,1.574,2.229,2.482,3.225c0.013,0.014,0.15,0.297,0.262,0.218c0.096-0.069,0.043-0.871,0.043-1.045
			c0-0.813-0.194-2.712,0.088-3.18c0.154-0.258,0.631-0.374,0.783-0.35c0.803,0.123,0.653,1.047,0.653,2.047
			c0,1.306,0,2.301,0,3.528C428.982,89.887,429.208,91.145,428.241,91.189z M431.901,88.793c0,0.266-0.063,0.695,0,0.785
			c0.082,0.114,1.236,0.043,1.655,0.043c0.825,0,1.688-0.066,1.655,0.826c-0.037,0.98-1.389,0.742-2.483,0.742
			c-0.878,0-1.833,0.101-2.178-0.22c-0.377-0.348-0.218-2.579-0.218-3.57c0-0.632,0-1.235,0-1.917c0-1.053-0.136-1.896,0.653-2.091
			c0.439-0.108,1.397-0.044,2.265-0.044c1.082,0,1.8-0.07,1.917,0.653c0.03,0.188,0.074,0.389-0.044,0.566
			c-0.273,0.414-0.927,0.349-1.742,0.349c-0.492,0-1.338-0.082-1.438,0c-0.008,0.007-0.133,1.416-0.043,1.525
			c0.119,0.142,1.042,0.043,1.35,0.043c0.81,0,1.596-0.097,1.873,0.349c0.17,0.271,0.074,0.75,0,0.871
			c0.01-0.015-0.322,0.294-0.348,0.305c-0.449,0.179-1.535,0.035-2.178,0.045C431.839,88.062,431.901,87.997,431.901,88.793z"/>
		<path fill="#FFFFFF" d="M417.047,89.621c-0.375,0-1.4,0.071-1.481-0.043c-0.122-0.176,0-1.001,0-1.524c0-0.631,0-1.13,0-1.525
			c0-1.3,0.294-3.25-0.871-3.137c-0.89,0.087-0.74,0.97-0.74,1.961c0,0.595,0,1.299,0,1.958c0,1.21-0.206,3.226,0.261,3.659
			c0.439,0.41,1.805,0.22,2.613,0.22c0.963,0,2.049,0.119,2.049-0.784C418.876,89.574,418.012,89.621,417.047,89.621z"/>
		<path fill="#FFFFFF" d="M421.272,85.265c0-0.62,0.111-1.434-0.174-1.743c-0.201-0.216-0.733-0.197-0.915-0.13
			c-0.121,0.044-0.403,0.222-0.435,0.306c-0.152,0.397,0,1.416,0,1.785c0,1.613-0.127,3.615,0,5.184
			c0.049,0.608,1.229,0.73,1.48,0.219c0.17-0.349,0.043-1.285,0.043-1.83C421.272,87.969,421.272,86.437,421.272,85.265z"/>
		<path fill="#FFFFFF" d="M428.982,85.395c0-1,0.149-1.924-0.653-2.047c-0.152-0.024-0.629,0.092-0.783,0.35
			c-0.282,0.468-0.088,2.367-0.088,3.18c0,0.174,0.053,0.976-0.043,1.045c-0.111,0.079-0.249-0.204-0.262-0.218
			c-0.908-0.995-1.712-2.223-2.482-3.225c-0.342-0.441-0.781-1.197-1.395-1.088c-0.741,0.132-0.653,1.057-0.653,2.048
			c0,0.492,0,1.29,0,1.917c0,1.151-0.227,3.175,0.218,3.613c0.34,0.335,1.017,0.19,1.221-0.085c0.344-0.471,0.113-2.361,0.13-3.311
			c0.005-0.266-0.074-0.893,0.087-0.96c0.061-0.023,0.782,0.939,0.959,1.176c0.679,0.918,1.188,1.523,1.872,2.397
			c0.294,0.374,0.592,1.025,1.132,1.002c0.967-0.045,0.741-1.303,0.741-2.267C428.982,87.695,428.982,86.7,428.982,85.395z"/>
		<path fill="#FFFFFF" d="M432.598,88.054c0.643-0.01,1.729,0.134,2.178-0.045c0.025-0.011,0.357-0.319,0.348-0.305
			c0.074-0.121,0.17-0.601,0-0.871c-0.277-0.445-1.063-0.349-1.873-0.349c-0.308,0-1.23,0.099-1.35-0.043
			c-0.09-0.109,0.035-1.519,0.043-1.525c0.1-0.082,0.945,0,1.438,0c0.815,0,1.469,0.065,1.742-0.349
			c0.118-0.178,0.074-0.378,0.044-0.566c-0.117-0.724-0.835-0.653-1.917-0.653c-0.867,0-1.825-0.064-2.265,0.044
			c-0.789,0.195-0.653,1.038-0.653,2.091c0,0.682,0,1.285,0,1.917c0,0.991-0.159,3.223,0.218,3.57c0.345,0.32,1.3,0.22,2.178,0.22
			c1.095,0,2.446,0.238,2.483-0.742c0.033-0.893-0.83-0.826-1.655-0.826c-0.419,0-1.573,0.071-1.655-0.043
			c-0.063-0.09,0-0.52,0-0.785C431.901,87.997,431.839,88.062,432.598,88.054z"/>
	</g>
</g>
<g>
	<path fill="#ABC1CE" d="M439.626,35.432c-1.784-3.223-4.986-5.5-9.388-5.798c-1.168-0.079-2.418-0.046-3.773-0.046
		c-2.532,0-5.329-0.128-7.684,0.046c-3.476,0.257-6,1.889-7.822,3.865c-1.457,1.578-2.463,3.513-2.854,5.936
		c-0.397,2.464-0.206,5.956,0.459,7.961c0.468,1.406,1.263,2.678,2.162,3.728c1.746,2.037,4.373,3.6,7.684,4.096
		c0,0.936,0,1.969,0,3.037c0,1.022-0.195,2.168,0.094,2.944c0.374,1.007,1.621,1.521,2.646,1.151
		c0.713-0.258,1.277-1.111,1.829-1.703c1.452-1.557,2.797-3,4.273-4.556c0.349-0.366,0.649-0.764,0.964-0.828
		c0.657-0.136,1.334,0.031,1.885,0c3.93-0.224,6.805-2.232,8.65-4.647c1.111-1.453,1.988-3.21,2.255-5.384
		c0.137-1.119,0.099-2.446,0.092-3.728C441.085,39.033,440.542,37.087,439.626,35.432z M437.877,48.362
		c-1.383,2.452-4.139,4.633-7.73,4.878c-0.449,0.03-0.977,0-1.473,0c-0.446,0-1.016-0.111-1.426,0
		c-0.26,0.07-0.645,0.573-0.921,0.874c-1.858,2.023-3.655,3.936-5.521,5.936c-0.057,0.061-0.194,0.162-0.274,0.23
		c0,0-0.229,0.207-0.229,0.046c0-2.347,0-4.693,0-7.04c-3.312,0.074-5.76-1.11-7.457-2.808c-1.79-1.789-2.876-4.023-2.876-7.362
		c0-1.784,0.027-3.294,0.425-4.647c0.744-2.526,2.448-4.46,4.654-5.66c1.15-0.626,2.527-1.096,4.098-1.196
		c2.209-0.142,4.135,0,6.352,0c2.125,0,4.378-0.146,6.074,0.23c3.313,0.734,5.666,2.811,6.811,5.798
		c0.297,0.775,0.55,1.626,0.645,2.53C439.35,43.229,438.966,46.433,437.877,48.362z"/>
	<path fill="#ABC1CE" d="M435.22,42.48c0,0.29-0.235,0.524-0.524,0.524h-20.451c-0.289,0-0.524-0.234-0.524-0.524l0,0
		c0-0.29,0.235-0.525,0.524-0.525h20.451C434.985,41.955,435.22,42.19,435.22,42.48L435.22,42.48z"/>
	<path fill="#ABC1CE" d="M432.22,38.273c0,0.289-0.235,0.524-0.524,0.524h-14.451c-0.289,0-0.524-0.235-0.524-0.524l0,0
		c0-0.29,0.235-0.525,0.524-0.525h14.451C431.985,37.748,432.22,37.983,432.22,38.273L432.22,38.273z"/>
	<path fill="#ABC1CE" d="M432.22,46.555c0,0.289-0.235,0.524-0.524,0.524h-14.451c-0.289,0-0.524-0.235-0.524-0.524l0,0
		c0-0.29,0.235-0.525,0.524-0.525h14.451C431.985,46.029,432.22,46.265,432.22,46.555L432.22,46.555z"/>
</g>
<path fill="#00008B" d="M435.227,224.276c-1.563,0-2.947,0.703-3.901,1.794l-11.78-5.939c0.068-0.335,0.104-0.682,0.104-1.036
	c0-0.368-0.04-0.727-0.114-1.073l11.766-5.932c0.954,1.107,2.35,1.823,3.926,1.823c2.873,0,5.202-2.33,5.202-5.203
	c0-2.872-2.329-5.202-5.202-5.202s-5.203,2.33-5.203,5.202c0,0.346,0.037,0.684,0.103,1.011l-11.794,5.946
	c-0.953-1.079-2.332-1.774-3.885-1.774c-2.873,0-5.203,2.33-5.203,5.202c0,2.873,2.33,5.203,5.203,5.203
	c1.567,0,2.956-0.708,3.91-1.805l11.772,5.936c-0.069,0.34-0.106,0.69-0.106,1.05c0,2.873,2.33,5.203,5.203,5.203
	s5.202-2.33,5.202-5.203C440.429,226.606,438.1,224.276,435.227,224.276z"/>
</svg>
