<?xml version="1.0" encoding="utf-8"?>
<!-- Generator: Adobe Illustrator 15.1.0, SVG Export Plug-In . SVG Version: 6.00 Build 0)  -->
<!DOCTYPE svg PUBLIC "-//W3C//DTD SVG 1.1//EN" "http://www.w3.org/Graphics/SVG/1.1/DTD/svg11.dtd">
<svg version="1.1" id="圖層_1" xmlns="http://www.w3.org/2000/svg" xmlns:xlink="http://www.w3.org/1999/xlink" x="0px" y="0px"
	 width="43.665px" height="43.665px" viewBox="0 0 43.665 43.665" enable-background="new 0 0 43.665 43.665" xml:space="preserve">
<rect x="-119.894" y="132.112" fill-rule="evenodd" clip-rule="evenodd" fill="#ABC1CE" width="43.665" height="43.665"/>
<rect x="-119.894" y="263.107" fill-rule="evenodd" clip-rule="evenodd" fill="#1E90FF" width="43.665" height="43.665"/>
<g>
	<path fill-rule="evenodd" clip-rule="evenodd" fill="#FFFFFF" d="M-83.189,275.661c-0.331,1.23-1.998,2.22-2.911,3.29
		c0.173,9.7-6.701,17.417-16.075,18.101c-4.075,0.297-7.754-0.74-10.759-2.531c3.458,0.051,6.977-0.849,8.86-2.786
		c-3.126-0.121-4.666-1.83-5.695-4.05c0.571-0.095,1.858,0.086,2.658-0.127c-0.471-0.532-1.205-0.451-1.771-0.759
		c-1.753-0.949-2.878-2.788-3.038-5.316c0.879,0.176,1.498,0.612,2.532,0.633c-1.076-1.024-2.667-3.109-2.532-5.568
		c0.055-0.998,0.428-1.754,0.759-2.659c3.011,3.402,6.851,5.977,12.785,6.456c-1.25-6.451,6.614-9.96,10.758-5.695
		c1.408-0.281,2.651-0.725,3.67-1.394c-0.062,1.332-1.469,2.411-2.405,3.292C-85.153,276.395-84.035,276.164-83.189,275.661z"/>
</g>
<path fill-rule="evenodd" clip-rule="evenodd" fill="#00BFFF" d="M-119.894,219.442v43.665h43.665v-43.665H-119.894z
	 M-83.362,230.233c-1.83,0.042-3.945-0.202-5.2,0.416c-0.704,1.099-0.319,3.286-0.416,4.992c1.803,0,3.605,0,5.408,0
	c0.194,1.476-0.651,3.624-0.624,5.616c-1.525,0-3.051,0-4.576,0c-0.485,5.616-0.07,12.134-0.208,18.098c-2.288,0-4.577,0-6.864,0
	c0-6.033,0-12.065,0-18.098c-1.387,0-2.773,0-4.16,0c0-1.872,0-3.744,0-5.616c1.316,0,2.635,0,3.951,0
	c0.498-1.682,0.051-3.613,0.209-4.992c0.654-5.722,6.008-6.592,12.48-5.824C-83.362,226.627-83.362,228.43-83.362,230.233z"/>
<g>
	<g>
		<path fill="#FFFFFF" d="M-84.895,189.367c-0.678-0.853-1.521-1.596-2.353-2.222c-0.625-0.471-1.321-0.9-1.917-1.263
			c-0.568-0.346-1.2-0.633-1.786-0.872c-2.128-0.865-4.807-1.518-7.753-1.393c-0.028,0.001-0.058,0-0.087,0
			c-1.856,0-3.531,0.289-4.878,0.697c-0.173,0.051-0.347,0.037-0.523,0.086c-0.9,0.254-1.759,0.665-2.57,1.046
			c-2.72,1.277-4.872,3.136-6.316,5.576c-0.683,1.154-1.385,2.651-1.525,4.398c-0.232,2.923,0.595,5.327,1.787,7.014
			c0.469,0.663,0.898,1.274,1.437,1.828c1.892,1.946,4.365,3.451,7.144,4.313c0.931,0.289,1.639,0.441,2.701,0.609
			c0.457,0.072,1.12,0.082,1.393,0.262c0.112,0.073,0.33,0.438,0.349,0.523c0.062,0.273-0.057,0.555-0.087,0.827
			c-0.039,0.348-0.04,0.813-0.087,1.263c-0.082,0.779-0.344,1.476,0,1.916c0.191,0.245,0.562,0.387,1.002,0.306
			c0.345-0.063,0.829-0.415,1.307-0.653c1.496-0.746,2.792-1.469,4.095-2.309c2.294-1.48,4.274-2.856,6.054-4.617
			c1.107-1.096,2.032-2.127,2.962-3.441c1.174-1.657,2.269-3.646,2.396-6.186c0.102-2.038-0.36-3.54-0.915-4.835
			C-83.548,191.117-84.222,190.212-84.895,189.367z M-106.064,200.737c-0.81,0-2.174,0.19-2.613-0.22
			c-0.467-0.434-0.261-2.449-0.261-3.659c0-0.659,0-1.363,0-1.958c0-0.991-0.15-1.874,0.74-1.961
			c1.165-0.113,0.871,1.837,0.871,3.137c0,0.396,0,0.895,0,1.525c0,0.523-0.122,1.349,0,1.524c0.081,0.114,1.107,0.043,1.482,0.043
			c0.964,0,1.829-0.047,1.829,0.784C-104.017,200.856-105.102,200.737-106.064,200.737z M-101.665,200.432
			c-0.252,0.512-1.432,0.39-1.481-0.219c-0.126-1.568,0-3.57,0-5.184c0-0.369-0.152-1.388,0-1.785
			c0.032-0.084,0.314-0.262,0.435-0.306c0.182-0.067,0.714-0.086,0.915,0.13c0.286,0.31,0.174,1.123,0.174,1.743
			c0,1.172,0,2.704,0,3.79C-101.622,199.147-101.495,200.083-101.665,200.432z M-94.652,200.737
			c-0.541,0.023-0.839-0.628-1.132-1.002c-0.685-0.874-1.193-1.479-1.873-2.397c-0.176-0.236-0.898-1.199-0.958-1.176
			c-0.161,0.067-0.083,0.694-0.087,0.96c-0.016,0.949,0.214,2.84-0.13,3.311c-0.204,0.275-0.881,0.42-1.22,0.085
			c-0.444-0.438-0.218-2.462-0.218-3.613c0-0.627,0-1.425,0-1.917c0-0.991-0.088-1.916,0.653-2.048
			c0.614-0.109,1.053,0.646,1.394,1.088c0.771,1.002,1.575,2.229,2.482,3.225c0.013,0.014,0.151,0.297,0.262,0.218
			c0.096-0.069,0.044-0.871,0.044-1.045c0-0.813-0.195-2.712,0.087-3.18c0.154-0.258,0.63-0.374,0.784-0.35
			c0.802,0.123,0.653,1.047,0.653,2.047c0,1.306,0,2.301,0,3.528C-93.912,199.434-93.686,200.692-94.652,200.737z M-90.993,198.34
			c0,0.266-0.063,0.695,0,0.785c0.082,0.114,1.236,0.043,1.655,0.043c0.826,0,1.688-0.066,1.655,0.826
			c-0.037,0.98-1.388,0.742-2.483,0.742c-0.878,0-1.833,0.101-2.178-0.22c-0.377-0.348-0.218-2.579-0.218-3.57
			c0-0.632,0-1.235,0-1.917c0-1.053-0.136-1.896,0.653-2.091c0.439-0.108,1.397-0.044,2.265-0.044c1.082,0,1.8-0.07,1.917,0.653
			c0.03,0.188,0.074,0.389-0.043,0.566c-0.274,0.414-0.927,0.349-1.742,0.349c-0.493,0-1.339-0.082-1.438,0
			c-0.007,0.007-0.133,1.416-0.043,1.525c0.119,0.142,1.042,0.043,1.35,0.043c0.81,0,1.596-0.097,1.874,0.349
			c0.169,0.271,0.074,0.75,0,0.871c0.009-0.015-0.323,0.294-0.349,0.305c-0.449,0.179-1.535,0.035-2.178,0.045
			C-91.054,197.609-90.993,197.544-90.993,198.34z"/>
		<path fill="#00CED1" d="M-119.894,175.777v43.665h43.665v-43.665H-119.894z M-84.546,203.262
			c-0.931,1.314-1.855,2.346-2.962,3.441c-1.78,1.761-3.76,3.137-6.054,4.617c-1.303,0.84-2.599,1.563-4.095,2.309
			c-0.479,0.238-0.962,0.59-1.307,0.653c-0.44,0.081-0.811-0.061-1.002-0.306c-0.344-0.44-0.082-1.137,0-1.916
			c0.048-0.45,0.048-0.915,0.087-1.263c0.03-0.272,0.149-0.554,0.087-0.827c-0.019-0.085-0.237-0.45-0.349-0.523
			c-0.273-0.18-0.937-0.189-1.393-0.262c-1.063-0.168-1.771-0.32-2.701-0.609c-2.779-0.862-5.251-2.367-7.144-4.313
			c-0.539-0.554-0.968-1.165-1.437-1.828c-1.192-1.687-2.019-4.091-1.787-7.014c0.14-1.747,0.842-3.244,1.525-4.398
			c1.444-2.44,3.596-4.299,6.316-5.576c0.811-0.381,1.669-0.792,2.57-1.046c0.176-0.049,0.35-0.035,0.523-0.086
			c1.348-0.408,3.022-0.697,4.878-0.697c0.029,0,0.059,0.001,0.087,0c2.946-0.125,5.625,0.527,7.753,1.393
			c0.586,0.239,1.218,0.526,1.786,0.872c0.595,0.362,1.291,0.792,1.917,1.263c0.832,0.626,1.674,1.369,2.353,2.222
			c0.672,0.846,1.346,1.75,1.83,2.875c0.555,1.295,1.016,2.797,0.915,4.835C-82.277,199.617-83.372,201.605-84.546,203.262z"/>
		<path fill="#00CED1" d="M-105.846,199.168c-0.375,0-1.401,0.071-1.482-0.043c-0.122-0.176,0-1.001,0-1.524c0-0.631,0-1.13,0-1.525
			c0-1.3,0.294-3.25-0.871-3.137c-0.89,0.087-0.74,0.97-0.74,1.961c0,0.595,0,1.299,0,1.958c0,1.21-0.206,3.226,0.261,3.659
			c0.439,0.41,1.804,0.22,2.613,0.22c0.962,0,2.048,0.119,2.048-0.784C-104.017,199.122-104.881,199.168-105.846,199.168z"/>
		<path fill="#00CED1" d="M-101.622,194.812c0-0.62,0.112-1.434-0.174-1.743c-0.201-0.216-0.733-0.197-0.915-0.13
			c-0.121,0.044-0.403,0.222-0.435,0.306c-0.152,0.397,0,1.416,0,1.785c0,1.613-0.126,3.615,0,5.184
			c0.049,0.608,1.229,0.73,1.481,0.219c0.17-0.349,0.043-1.285,0.043-1.83C-101.622,197.516-101.622,195.984-101.622,194.812z"/>
		<path fill="#00CED1" d="M-93.912,194.942c0-1,0.149-1.924-0.653-2.047c-0.153-0.024-0.63,0.092-0.784,0.35
			c-0.282,0.468-0.087,2.367-0.087,3.18c0,0.174,0.052,0.976-0.044,1.045c-0.11,0.079-0.249-0.204-0.262-0.218
			c-0.908-0.995-1.711-2.223-2.482-3.225c-0.341-0.441-0.78-1.197-1.394-1.088c-0.741,0.132-0.653,1.057-0.653,2.048
			c0,0.492,0,1.29,0,1.917c0,1.151-0.227,3.175,0.218,3.613c0.339,0.335,1.017,0.19,1.22-0.085c0.344-0.471,0.114-2.361,0.13-3.311
			c0.004-0.266-0.074-0.893,0.087-0.96c0.06-0.023,0.782,0.939,0.958,1.176c0.679,0.918,1.188,1.523,1.873,2.397
			c0.293,0.374,0.592,1.025,1.132,1.002c0.966-0.045,0.741-1.303,0.741-2.267C-93.912,197.243-93.912,196.248-93.912,194.942z"/>
		<path fill="#00CED1" d="M-90.296,197.601c0.643-0.01,1.729,0.134,2.178-0.045c0.026-0.011,0.357-0.319,0.349-0.305
			c0.074-0.121,0.169-0.601,0-0.871c-0.277-0.445-1.064-0.349-1.874-0.349c-0.308,0-1.23,0.099-1.35-0.043
			c-0.09-0.109,0.036-1.519,0.043-1.525c0.099-0.082,0.945,0,1.438,0c0.815,0,1.468,0.065,1.742-0.349
			c0.118-0.178,0.074-0.378,0.043-0.566c-0.117-0.724-0.835-0.653-1.917-0.653c-0.868,0-1.825-0.064-2.265,0.044
			c-0.789,0.195-0.653,1.038-0.653,2.091c0,0.682,0,1.285,0,1.917c0,0.991-0.159,3.223,0.218,3.57c0.345,0.32,1.299,0.22,2.178,0.22
			c1.095,0,2.446,0.238,2.483-0.742c0.034-0.893-0.829-0.826-1.655-0.826c-0.419,0-1.573,0.071-1.655-0.043
			c-0.063-0.09,0-0.52,0-0.785C-90.993,197.544-91.054,197.609-90.296,197.601z"/>
	</g>
</g>
<g>
	<path fill="#FFFFFF" d="M-83.267,144.979c-1.784-3.223-4.986-5.5-9.387-5.798c-1.168-0.079-2.418-0.046-3.773-0.046
		c-2.533,0-5.33-0.128-7.685,0.046c-3.475,0.257-5.999,1.889-7.822,3.865c-1.457,1.578-2.462,3.513-2.853,5.936
		c-0.397,2.464-0.206,5.956,0.459,7.961c0.467,1.406,1.262,2.678,2.162,3.728c1.746,2.037,4.373,3.6,7.684,4.096
		c0,0.936,0,1.969,0,3.037c0,1.022-0.196,2.168,0.093,2.944c0.374,1.007,1.622,1.521,2.646,1.151
		c0.713-0.258,1.277-1.111,1.83-1.703c1.453-1.557,2.797-3,4.273-4.556c0.348-0.366,0.649-0.764,0.964-0.828
		c0.657-0.136,1.334,0.031,1.885,0c3.93-0.224,6.804-2.232,8.65-4.647c1.11-1.453,1.988-3.21,2.254-5.384
		c0.137-1.119,0.099-2.446,0.092-3.728C-81.808,148.581-82.351,146.634-83.267,144.979z M-85.016,157.91
		c-1.383,2.452-4.139,4.633-7.731,4.878c-0.45,0.03-0.976,0-1.472,0c-0.447,0-1.016-0.111-1.427,0
		c-0.26,0.07-0.644,0.573-0.92,0.874c-1.858,2.023-3.656,3.936-5.521,5.936c-0.057,0.061-0.194,0.162-0.275,0.23
		c0,0-0.229,0.207-0.229,0.046c0-2.347,0-4.693,0-7.04c-3.311,0.074-5.759-1.11-7.456-2.808c-1.791-1.789-2.876-4.023-2.876-7.362
		c0-1.784,0.027-3.294,0.425-4.647c0.744-2.526,2.448-4.46,4.654-5.66c1.151-0.626,2.527-1.096,4.098-1.196
		c2.209-0.142,4.135,0,6.351,0c2.125,0,4.378-0.146,6.075,0.23c3.313,0.734,5.666,2.811,6.811,5.798
		c0.297,0.775,0.55,1.626,0.645,2.53C-83.544,152.776-83.927,155.98-85.016,157.91z"/>
	<path fill="#FFFFFF" d="M-87.673,152.028c0,0.29-0.235,0.524-0.525,0.524h-20.45c-0.29,0-0.525-0.234-0.525-0.524l0,0
		c0-0.29,0.235-0.525,0.525-0.525h20.45C-87.908,151.502-87.673,151.738-87.673,152.028L-87.673,152.028z"/>
	<path fill="#FFFFFF" d="M-90.673,147.821c0,0.289-0.235,0.524-0.525,0.524h-14.45c-0.29,0-0.525-0.235-0.525-0.524l0,0
		c0-0.29,0.235-0.525,0.525-0.525h14.45C-90.908,147.295-90.673,147.531-90.673,147.821L-90.673,147.821z"/>
	<path fill="#FFFFFF" d="M-90.673,156.102c0,0.289-0.235,0.524-0.525,0.524h-14.45c-0.29,0-0.525-0.235-0.525-0.524l0,0
		c0-0.29,0.235-0.525,0.525-0.525h14.45C-90.908,155.577-90.673,155.812-90.673,156.102L-90.673,156.102z"/>
</g>
<rect x="-119.894" y="306.772" fill-rule="evenodd" clip-rule="evenodd" fill="#00008B" width="43.665" height="43.665"/>
<path fill="#FFFFFF" d="M-87.667,333.786c-1.563,0-2.948,0.703-3.901,1.794l-11.78-5.939c0.068-0.335,0.104-0.682,0.104-1.036
	c0-0.368-0.041-0.727-0.114-1.073l11.765-5.932c0.954,1.107,2.35,1.823,3.926,1.823c2.873,0,5.202-2.33,5.202-5.203
	c0-2.872-2.329-5.202-5.202-5.202c-2.874,0-5.203,2.33-5.203,5.202c0,0.346,0.037,0.684,0.102,1.011l-11.793,5.946
	c-0.953-1.079-2.332-1.774-3.885-1.774c-2.874,0-5.203,2.33-5.203,5.202c0,2.873,2.329,5.203,5.203,5.203
	c1.567,0,2.956-0.708,3.91-1.805l11.772,5.936c-0.069,0.34-0.106,0.69-0.106,1.05c0,2.873,2.329,5.203,5.203,5.203
	c2.873,0,5.202-2.33,5.202-5.203C-82.464,336.116-84.793,333.786-87.667,333.786z"/>
<rect x="-119.532" y="72.328" fill-rule="evenodd" clip-rule="evenodd" fill="#ABC1CE" width="43.665" height="43.665"/>
<rect x="11.463" y="72.328" fill-rule="evenodd" clip-rule="evenodd" fill="#1E90FF" width="43.665" height="43.665"/>
<g>
	<path fill-rule="evenodd" clip-rule="evenodd" fill="#FFFFFF" d="M48.167,84.882c-0.331,1.23-1.998,2.22-2.911,3.29
		c0.173,9.7-6.701,17.417-16.075,18.101c-4.075,0.297-7.754-0.74-10.759-2.531c3.458,0.051,6.977-0.849,8.86-2.786
		c-3.126-0.121-4.666-1.83-5.695-4.05c0.571-0.095,1.858,0.086,2.658-0.127c-0.471-0.532-1.205-0.451-1.771-0.759
		c-1.753-0.949-2.878-2.788-3.038-5.316c0.879,0.176,1.498,0.612,2.532,0.633c-1.076-1.024-2.667-3.109-2.532-5.568
		c0.055-0.998,0.428-1.754,0.759-2.659c3.011,3.402,6.851,5.977,12.785,6.456c-1.25-6.451,6.614-9.96,10.758-5.695
		c1.408-0.281,2.651-0.725,3.67-1.394c-0.062,1.332-1.469,2.411-2.405,3.292C46.204,85.616,47.322,85.385,48.167,84.882z"/>
</g>
<path fill-rule="evenodd" clip-rule="evenodd" fill="#00BFFF" d="M-32.203,72.329v43.665h43.665V72.329H-32.203z M4.33,83.12
	c-1.83,0.042-3.945-0.202-5.2,0.416c-0.704,1.099-0.319,3.286-0.416,4.992c1.803,0,3.605,0,5.408,0
	c0.194,1.476-0.651,3.624-0.624,5.616c-1.525,0-3.051,0-4.576,0c-0.485,5.616-0.07,12.134-0.208,18.098c-2.288,0-4.577,0-6.864,0
	c0-6.033,0-12.065,0-18.098c-1.387,0-2.773,0-4.16,0c0-1.872,0-3.744,0-5.616c1.316,0,2.635,0,3.951,0
	c0.498-1.682,0.051-3.613,0.209-4.992c0.654-5.722,6.008-6.592,12.48-5.824C4.33,79.514,4.33,81.317,4.33,83.12z"/>
<g>
	<g>
		<path fill="#FFFFFF" d="M-40.868,85.918c-0.678-0.853-1.521-1.596-2.353-2.222c-0.625-0.471-1.321-0.9-1.917-1.263
			c-0.568-0.346-1.2-0.633-1.786-0.872c-2.128-0.865-4.807-1.518-7.753-1.393c-0.028,0.001-0.058,0-0.087,0
			c-1.856,0-3.531,0.289-4.878,0.697c-0.173,0.051-0.347,0.037-0.523,0.086c-0.9,0.254-1.759,0.665-2.57,1.046
			c-2.72,1.277-4.872,3.136-6.316,5.576c-0.683,1.154-1.385,2.651-1.525,4.398c-0.232,2.923,0.595,5.327,1.787,7.014
			c0.469,0.663,0.898,1.274,1.437,1.828c1.892,1.946,4.365,3.451,7.144,4.313c0.931,0.289,1.639,0.441,2.701,0.609
			c0.457,0.072,1.12,0.082,1.393,0.262c0.112,0.073,0.33,0.438,0.349,0.523c0.062,0.273-0.057,0.555-0.087,0.827
			c-0.039,0.348-0.04,0.813-0.087,1.263c-0.082,0.779-0.344,1.476,0,1.916c0.191,0.245,0.562,0.387,1.002,0.306
			c0.345-0.063,0.829-0.415,1.307-0.653c1.496-0.746,2.792-1.469,4.095-2.309c2.294-1.48,4.274-2.856,6.054-4.617
			c1.107-1.096,2.032-2.127,2.962-3.441c1.174-1.657,2.269-3.646,2.396-6.186c0.102-2.038-0.36-3.54-0.915-4.835
			C-39.522,87.668-40.196,86.764-40.868,85.918z M-62.038,97.289c-0.81,0-2.174,0.19-2.613-0.22
			c-0.467-0.434-0.261-2.449-0.261-3.659c0-0.659,0-1.363,0-1.958c0-0.991-0.15-1.874,0.74-1.961
			c1.165-0.113,0.871,1.837,0.871,3.137c0,0.396,0,0.895,0,1.525c0,0.523-0.122,1.349,0,1.524c0.081,0.114,1.107,0.043,1.482,0.043
			c0.964,0,1.829-0.047,1.829,0.784C-59.99,97.408-61.076,97.289-62.038,97.289z M-57.638,96.984
			c-0.252,0.512-1.432,0.39-1.481-0.219c-0.126-1.568,0-3.57,0-5.184c0-0.369-0.152-1.388,0-1.785
			c0.032-0.084,0.314-0.262,0.435-0.306c0.182-0.067,0.714-0.086,0.915,0.13c0.286,0.31,0.174,1.123,0.174,1.743
			c0,1.172,0,2.704,0,3.79C-57.595,95.699-57.468,96.635-57.638,96.984z M-50.626,97.289c-0.541,0.023-0.839-0.628-1.132-1.002
			c-0.685-0.874-1.193-1.479-1.873-2.397c-0.176-0.236-0.898-1.199-0.958-1.176c-0.161,0.067-0.083,0.694-0.087,0.96
			c-0.016,0.949,0.214,2.84-0.13,3.311c-0.204,0.275-0.881,0.42-1.22,0.085c-0.444-0.438-0.218-2.462-0.218-3.613
			c0-0.627,0-1.425,0-1.917c0-0.991-0.088-1.916,0.653-2.048c0.614-0.109,1.053,0.646,1.394,1.088
			c0.771,1.002,1.575,2.229,2.482,3.225c0.013,0.014,0.151,0.297,0.262,0.218c0.096-0.069,0.044-0.871,0.044-1.045
			c0-0.813-0.195-2.712,0.087-3.18c0.154-0.258,0.63-0.374,0.784-0.35c0.802,0.123,0.653,1.047,0.653,2.047c0,1.306,0,2.301,0,3.528
			C-49.885,95.986-49.66,97.244-50.626,97.289z M-46.966,94.892c0,0.266-0.063,0.695,0,0.785c0.082,0.114,1.236,0.043,1.655,0.043
			c0.826,0,1.688-0.066,1.655,0.826c-0.037,0.98-1.388,0.742-2.483,0.742c-0.878,0-1.833,0.101-2.178-0.22
			c-0.377-0.348-0.218-2.579-0.218-3.57c0-0.632,0-1.235,0-1.917c0-1.053-0.136-1.896,0.653-2.091
			c0.439-0.108,1.397-0.044,2.265-0.044c1.082,0,1.8-0.07,1.917,0.653c0.03,0.188,0.074,0.389-0.043,0.566
			c-0.274,0.414-0.927,0.349-1.742,0.349c-0.493,0-1.339-0.082-1.438,0c-0.007,0.007-0.133,1.416-0.043,1.525
			c0.119,0.142,1.042,0.043,1.35,0.043c0.81,0,1.596-0.097,1.874,0.349c0.169,0.271,0.074,0.75,0,0.871
			c0.009-0.015-0.323,0.294-0.349,0.305c-0.449,0.179-1.535,0.035-2.178,0.045C-47.028,94.161-46.966,94.096-46.966,94.892z"/>
		<path fill="#00CED1" d="M-75.868,72.329v43.665h43.665V72.329H-75.868z M-40.52,99.814c-0.931,1.314-1.855,2.346-2.962,3.441
			c-1.78,1.761-3.76,3.137-6.054,4.617c-1.303,0.84-2.599,1.563-4.095,2.309c-0.479,0.238-0.962,0.59-1.307,0.653
			c-0.44,0.081-0.811-0.061-1.002-0.306c-0.344-0.44-0.082-1.137,0-1.916c0.048-0.45,0.048-0.915,0.087-1.263
			c0.03-0.272,0.149-0.554,0.087-0.827c-0.019-0.085-0.237-0.45-0.349-0.523c-0.273-0.18-0.937-0.189-1.393-0.262
			c-1.063-0.168-1.771-0.32-2.701-0.609c-2.779-0.862-5.251-2.367-7.144-4.313c-0.539-0.554-0.968-1.165-1.437-1.828
			c-1.192-1.687-2.019-4.091-1.787-7.014c0.14-1.747,0.842-3.244,1.525-4.398c1.444-2.44,3.596-4.299,6.316-5.576
			c0.811-0.381,1.669-0.792,2.57-1.046c0.176-0.049,0.35-0.035,0.523-0.086c1.348-0.408,3.022-0.697,4.878-0.697
			c0.029,0,0.059,0.001,0.087,0c2.946-0.125,5.625,0.527,7.753,1.393c0.586,0.239,1.218,0.526,1.786,0.872
			c0.595,0.362,1.291,0.792,1.917,1.263c0.832,0.626,1.674,1.369,2.353,2.222c0.672,0.846,1.346,1.75,1.83,2.875
			c0.555,1.295,1.016,2.797,0.915,4.835C-38.25,96.168-39.345,98.157-40.52,99.814z"/>
		<path fill="#00CED1" d="M-61.819,95.72c-0.375,0-1.401,0.071-1.482-0.043c-0.122-0.176,0-1.001,0-1.524c0-0.631,0-1.13,0-1.525
			c0-1.3,0.294-3.25-0.871-3.137c-0.89,0.087-0.74,0.97-0.74,1.961c0,0.595,0,1.299,0,1.958c0,1.21-0.206,3.226,0.261,3.659
			c0.439,0.41,1.804,0.22,2.613,0.22c0.962,0,2.048,0.119,2.048-0.784C-59.991,95.673-60.855,95.72-61.819,95.72z"/>
		<path fill="#00CED1" d="M-57.595,91.364c0-0.62,0.112-1.434-0.174-1.743c-0.201-0.216-0.733-0.197-0.915-0.13
			c-0.121,0.044-0.403,0.222-0.435,0.306c-0.152,0.397,0,1.416,0,1.785c0,1.613-0.126,3.615,0,5.184
			c0.049,0.608,1.229,0.73,1.481,0.219c0.17-0.349,0.043-1.285,0.043-1.83C-57.595,94.068-57.595,92.536-57.595,91.364z"/>
		<path fill="#00CED1" d="M-49.885,91.494c0-1,0.149-1.924-0.653-2.047c-0.153-0.024-0.63,0.092-0.784,0.35
			c-0.282,0.468-0.087,2.367-0.087,3.18c0,0.174,0.052,0.976-0.044,1.045c-0.11,0.079-0.249-0.204-0.262-0.218
			c-0.908-0.995-1.711-2.223-2.482-3.225c-0.341-0.441-0.78-1.197-1.394-1.088c-0.741,0.132-0.653,1.057-0.653,2.048
			c0,0.492,0,1.29,0,1.917c0,1.151-0.227,3.175,0.218,3.613c0.339,0.335,1.017,0.19,1.22-0.085c0.344-0.471,0.114-2.361,0.13-3.311
			c0.004-0.266-0.074-0.893,0.087-0.96c0.06-0.023,0.782,0.939,0.958,1.176c0.679,0.918,1.188,1.523,1.873,2.397
			c0.293,0.374,0.592,1.025,1.132,1.002c0.966-0.045,0.741-1.303,0.741-2.267C-49.885,93.794-49.885,92.799-49.885,91.494z"/>
		<path fill="#00CED1" d="M-46.27,94.153c0.643-0.01,1.729,0.134,2.178-0.045c0.026-0.011,0.357-0.319,0.349-0.305
			c0.074-0.121,0.169-0.601,0-0.871c-0.277-0.445-1.064-0.349-1.874-0.349c-0.308,0-1.23,0.099-1.35-0.043
			c-0.09-0.109,0.036-1.519,0.043-1.525c0.099-0.082,0.945,0,1.438,0c0.815,0,1.468,0.065,1.742-0.349
			c0.118-0.178,0.074-0.378,0.043-0.566c-0.117-0.724-0.835-0.653-1.917-0.653c-0.868,0-1.825-0.064-2.265,0.044
			c-0.789,0.195-0.653,1.038-0.653,2.091c0,0.682,0,1.285,0,1.917c0,0.991-0.159,3.223,0.218,3.57c0.345,0.32,1.299,0.22,2.178,0.22
			c1.095,0,2.446,0.238,2.483-0.742c0.034-0.893-0.829-0.826-1.655-0.826c-0.419,0-1.573,0.071-1.655-0.043
			c-0.063-0.09,0-0.52,0-0.785C-46.966,94.096-47.028,94.161-46.27,94.153z"/>
	</g>
</g>
<g>
	<path fill="#FFFFFF" d="M-82.905,85.195c-1.784-3.223-4.986-5.5-9.387-5.798c-1.168-0.079-2.418-0.046-3.773-0.046
		c-2.533,0-5.33-0.128-7.685,0.046c-3.475,0.257-5.999,1.889-7.822,3.865c-1.457,1.578-2.462,3.513-2.853,5.936
		c-0.397,2.464-0.206,5.956,0.459,7.961c0.467,1.406,1.262,2.678,2.162,3.728c1.746,2.037,4.373,3.6,7.684,4.096
		c0,0.936,0,1.969,0,3.037c0,1.022-0.196,2.168,0.093,2.944c0.374,1.007,1.622,1.521,2.646,1.151
		c0.713-0.258,1.277-1.111,1.83-1.703c1.453-1.557,2.797-3,4.273-4.556c0.348-0.366,0.649-0.764,0.964-0.828
		c0.657-0.136,1.334,0.031,1.885,0c3.93-0.224,6.804-2.232,8.65-4.647c1.11-1.453,1.988-3.21,2.254-5.384
		c0.137-1.119,0.099-2.446,0.092-3.728C-81.446,88.797-81.989,86.851-82.905,85.195z M-84.654,98.126
		c-1.383,2.452-4.139,4.633-7.731,4.878c-0.45,0.03-0.976,0-1.472,0c-0.447,0-1.016-0.111-1.427,0
		c-0.26,0.07-0.644,0.573-0.92,0.874c-1.858,2.023-3.656,3.936-5.521,5.936c-0.057,0.061-0.194,0.162-0.275,0.23
		c0,0-0.229,0.207-0.229,0.046c0-2.347,0-4.693,0-7.04c-3.311,0.074-5.759-1.11-7.456-2.808c-1.791-1.789-2.876-4.023-2.876-7.362
		c0-1.784,0.027-3.294,0.425-4.647c0.744-2.526,2.448-4.46,4.654-5.66c1.151-0.626,2.527-1.096,4.098-1.196
		c2.209-0.142,4.135,0,6.351,0c2.125,0,4.378-0.146,6.075,0.23c3.313,0.734,5.666,2.811,6.811,5.798
		c0.297,0.775,0.55,1.626,0.645,2.53C-83.182,92.992-83.565,96.196-84.654,98.126z"/>
	<path fill="#FFFFFF" d="M-87.312,92.244c0,0.29-0.235,0.524-0.525,0.524h-20.45c-0.29,0-0.525-0.234-0.525-0.524l0,0
		c0-0.29,0.235-0.525,0.525-0.525h20.45C-87.546,91.719-87.312,91.954-87.312,92.244L-87.312,92.244z"/>
	<path fill="#FFFFFF" d="M-90.312,88.037c0,0.289-0.235,0.524-0.525,0.524h-14.45c-0.29,0-0.525-0.235-0.525-0.524l0,0
		c0-0.29,0.235-0.525,0.525-0.525h14.45C-90.546,87.512-90.312,87.747-90.312,88.037L-90.312,88.037z"/>
	<path fill="#FFFFFF" d="M-90.312,96.318c0,0.289-0.235,0.524-0.525,0.524h-14.45c-0.29,0-0.525-0.235-0.525-0.524l0,0
		c0-0.29,0.235-0.525,0.525-0.525h14.45C-90.546,95.793-90.312,96.028-90.312,96.318L-90.312,96.318z"/>
</g>
<rect x="55.128" y="72.328" fill-rule="evenodd" clip-rule="evenodd" fill="#00008B" width="43.665" height="43.665"/>
<path fill="#FFFFFF" d="M87.355,99.342c-1.563,0-2.948,0.703-3.901,1.794l-11.78-5.939c0.068-0.335,0.104-0.682,0.104-1.036
	c0-0.368-0.041-0.727-0.114-1.073l11.765-5.932c0.954,1.107,2.35,1.823,3.926,1.823c2.873,0,5.202-2.33,5.202-5.203
	c0-2.872-2.329-5.202-5.202-5.202c-2.874,0-5.203,2.33-5.203,5.202c0,0.346,0.037,0.684,0.102,1.011l-11.793,5.946
	c-0.953-1.079-2.332-1.774-3.885-1.774c-2.874,0-5.203,2.33-5.203,5.202c0,2.873,2.329,5.203,5.203,5.203
	c1.567,0,2.956-0.708,3.91-1.805l11.772,5.936c-0.069,0.34-0.106,0.69-0.106,1.05c0,2.873,2.329,5.203,5.203,5.203
	c2.873,0,5.202-2.33,5.202-5.203C92.558,101.672,90.229,99.342,87.355,99.342z"/>
<rect x="-81.422" y="0" fill-rule="evenodd" clip-rule="evenodd" fill="#ABC1CE" width="43.665" height="43.665"/>
<rect x="139.331" y="0" fill-rule="evenodd" clip-rule="evenodd" fill="#1E90FF" width="43.665" height="43.665"/>
<g>
	<path fill-rule="evenodd" clip-rule="evenodd" fill="#FFFFFF" d="M176.035,12.553c-0.331,1.23-1.998,2.22-2.911,3.29
		c0.173,9.7-6.701,17.417-16.075,18.101c-4.075,0.297-7.754-0.74-10.759-2.531c3.458,0.051,6.977-0.849,8.86-2.786
		c-3.126-0.121-4.666-1.83-5.695-4.05c0.571-0.095,1.858,0.086,2.658-0.127c-0.471-0.532-1.205-0.451-1.771-0.759
		c-1.753-0.949-2.878-2.788-3.038-5.316c0.879,0.176,1.498,0.612,2.532,0.633c-1.076-1.024-2.667-3.109-2.532-5.568
		c0.055-0.998,0.428-1.754,0.759-2.659c3.011,3.402,6.851,5.977,12.785,6.456c-1.25-6.451,6.614-9.96,10.758-5.695
		c1.408-0.281,2.651-0.725,3.67-1.394c-0.062,1.332-1.469,2.411-2.405,3.292C174.071,13.288,175.189,13.056,176.035,12.553z"/>
</g>
<path fill-rule="evenodd" clip-rule="evenodd" fill="#00BFFF" d="M68.665,0v43.665h43.665V0H68.665z M105.197,10.791
	c-1.83,0.042-3.945-0.202-5.2,0.416c-0.704,1.099-0.319,3.286-0.416,4.992c1.803,0,3.605,0,5.408,0
	c0.194,1.476-0.651,3.624-0.624,5.616c-1.525,0-3.051,0-4.576,0c-0.485,5.616-0.07,12.134-0.208,18.098c-2.288,0-4.577,0-6.864,0
	c0-6.033,0-12.065,0-18.098c-1.387,0-2.773,0-4.16,0c0-1.872,0-3.744,0-5.616c1.316,0,2.635,0,3.951,0
	c0.498-1.682,0.051-3.613,0.209-4.992c0.654-5.722,6.008-6.592,12.48-5.824C105.197,7.186,105.197,8.988,105.197,10.791z"/>
<g>
	<g>
		<path fill="#FFFFFF" d="M35,13.59c-0.678-0.853-1.521-1.596-2.353-2.222c-0.625-0.471-1.321-0.9-1.917-1.263
			c-0.568-0.346-1.2-0.633-1.786-0.872c-2.128-0.865-4.807-1.518-7.753-1.393c-0.028,0.001-0.058,0-0.087,0
			c-1.856,0-3.531,0.289-4.878,0.697c-0.173,0.051-0.347,0.037-0.523,0.086c-0.9,0.254-1.759,0.665-2.57,1.046
			c-2.72,1.277-4.872,3.136-6.316,5.576c-0.683,1.154-1.385,2.651-1.525,4.398c-0.232,2.923,0.595,5.327,1.787,7.014
			c0.469,0.663,0.898,1.274,1.437,1.828c1.892,1.946,4.365,3.451,7.144,4.313c0.931,0.289,1.639,0.441,2.701,0.609
			c0.457,0.072,1.12,0.082,1.393,0.262c0.112,0.073,0.33,0.438,0.349,0.523c0.062,0.273-0.057,0.555-0.087,0.827
			c-0.039,0.348-0.04,0.813-0.087,1.263c-0.082,0.779-0.344,1.476,0,1.916c0.191,0.245,0.562,0.387,1.002,0.306
			c0.345-0.063,0.829-0.415,1.307-0.653c1.496-0.746,2.792-1.469,4.095-2.309c2.294-1.48,4.274-2.856,6.054-4.617
			c1.107-1.096,2.032-2.127,2.962-3.441c1.174-1.657,2.269-3.646,2.396-6.186c0.102-2.038-0.36-3.54-0.915-4.835
			C36.346,15.34,35.672,14.436,35,13.59z M13.83,24.96c-0.81,0-2.174,0.19-2.613-0.22c-0.467-0.434-0.261-2.449-0.261-3.659
			c0-0.659,0-1.363,0-1.958c0-0.991-0.15-1.874,0.74-1.961c1.165-0.113,0.871,1.837,0.871,3.137c0,0.396,0,0.895,0,1.525
			c0,0.523-0.122,1.349,0,1.524c0.081,0.114,1.107,0.043,1.482,0.043c0.964,0,1.829-0.047,1.829,0.784
			C15.877,25.079,14.792,24.96,13.83,24.96z M18.229,24.655c-0.252,0.512-1.432,0.39-1.481-0.219c-0.126-1.568,0-3.57,0-5.184
			c0-0.369-0.152-1.388,0-1.785c0.032-0.084,0.314-0.262,0.435-0.306c0.182-0.067,0.714-0.086,0.915,0.13
			c0.286,0.31,0.174,1.123,0.174,1.743c0,1.172,0,2.704,0,3.79C18.272,23.37,18.399,24.307,18.229,24.655z M25.242,24.96
			c-0.541,0.023-0.839-0.628-1.132-1.002c-0.685-0.874-1.193-1.479-1.873-2.397c-0.176-0.236-0.898-1.199-0.958-1.176
			c-0.161,0.067-0.083,0.694-0.087,0.96c-0.016,0.949,0.214,2.84-0.13,3.311c-0.204,0.275-0.881,0.42-1.22,0.085
			c-0.444-0.438-0.218-2.462-0.218-3.613c0-0.627,0-1.425,0-1.917c0-0.991-0.088-1.916,0.653-2.048
			c0.614-0.109,1.053,0.646,1.394,1.088c0.771,1.002,1.575,2.229,2.482,3.225c0.013,0.014,0.151,0.297,0.262,0.218
			c0.096-0.069,0.044-0.871,0.044-1.045c0-0.813-0.195-2.712,0.087-3.18c0.154-0.258,0.63-0.374,0.784-0.35
			c0.802,0.123,0.653,1.047,0.653,2.047c0,1.306,0,2.301,0,3.528C25.982,23.657,26.208,24.915,25.242,24.96z M28.901,22.563
			c0,0.266-0.063,0.695,0,0.785c0.082,0.114,1.236,0.043,1.655,0.043c0.826,0,1.688-0.066,1.655,0.826
			c-0.037,0.98-1.388,0.742-2.483,0.742c-0.878,0-1.833,0.101-2.178-0.22c-0.377-0.348-0.218-2.579-0.218-3.57
			c0-0.632,0-1.235,0-1.917c0-1.053-0.136-1.896,0.653-2.091c0.439-0.108,1.397-0.044,2.265-0.044c1.082,0,1.8-0.07,1.917,0.653
			c0.03,0.188,0.074,0.389-0.043,0.566c-0.274,0.414-0.927,0.349-1.742,0.349c-0.493,0-1.339-0.082-1.438,0
			c-0.007,0.007-0.133,1.416-0.043,1.525c0.119,0.142,1.042,0.043,1.35,0.043c0.81,0,1.596-0.097,1.874,0.349
			c0.169,0.271,0.074,0.75,0,0.871c0.009-0.015-0.323,0.294-0.349,0.305c-0.449,0.179-1.535,0.035-2.178,0.045
			C28.84,21.832,28.901,21.768,28.901,22.563z"/>
		<path fill="#00CED1" d="M0,0v43.665h43.665V0H0z M35.348,27.485c-0.931,1.314-1.855,2.346-2.962,3.441
			c-1.78,1.761-3.76,3.137-6.054,4.617c-1.303,0.84-2.599,1.563-4.095,2.309c-0.479,0.238-0.962,0.59-1.307,0.653
			c-0.44,0.081-0.811-0.061-1.002-0.306c-0.344-0.44-0.082-1.137,0-1.916c0.048-0.45,0.048-0.915,0.087-1.263
			c0.03-0.272,0.149-0.554,0.087-0.827c-0.019-0.085-0.237-0.45-0.349-0.523c-0.273-0.18-0.937-0.189-1.393-0.262
			c-1.063-0.168-1.771-0.32-2.701-0.609c-2.779-0.862-5.251-2.367-7.144-4.313c-0.539-0.554-0.968-1.165-1.437-1.828
			c-1.192-1.687-2.019-4.091-1.787-7.014c0.14-1.747,0.842-3.244,1.525-4.398c1.444-2.44,3.596-4.299,6.316-5.576
			c0.811-0.381,1.669-0.792,2.57-1.046c0.176-0.049,0.35-0.035,0.523-0.086c1.348-0.408,3.022-0.697,4.878-0.697
			c0.029,0,0.059,0.001,0.087,0c2.946-0.125,5.625,0.527,7.753,1.393c0.586,0.239,1.218,0.526,1.786,0.872
			c0.595,0.362,1.291,0.792,1.917,1.263c0.832,0.626,1.674,1.369,2.353,2.222c0.672,0.846,1.346,1.75,1.83,2.875
			c0.555,1.295,1.016,2.797,0.915,4.835C37.617,23.84,36.522,25.828,35.348,27.485z"/>
		<path fill="#00CED1" d="M14.048,23.392c-0.375,0-1.401,0.071-1.482-0.043c-0.122-0.176,0-1.001,0-1.524c0-0.631,0-1.13,0-1.525
			c0-1.3,0.294-3.25-0.871-3.137c-0.89,0.087-0.74,0.97-0.74,1.961c0,0.595,0,1.299,0,1.958c0,1.21-0.206,3.226,0.261,3.659
			c0.439,0.41,1.804,0.22,2.613,0.22c0.962,0,2.048,0.119,2.048-0.784C15.877,23.345,15.013,23.392,14.048,23.392z"/>
		<path fill="#00CED1" d="M18.272,19.035c0-0.62,0.112-1.434-0.174-1.743c-0.201-0.216-0.733-0.197-0.915-0.13
			c-0.121,0.044-0.403,0.222-0.435,0.306c-0.152,0.397,0,1.416,0,1.785c0,1.613-0.126,3.615,0,5.184
			c0.049,0.608,1.229,0.73,1.481,0.219c0.17-0.349,0.043-1.285,0.043-1.83C18.272,21.739,18.272,20.207,18.272,19.035z"/>
		<path fill="#00CED1" d="M25.982,19.165c0-1,0.149-1.924-0.653-2.047c-0.153-0.024-0.63,0.092-0.784,0.35
			c-0.282,0.468-0.087,2.367-0.087,3.18c0,0.174,0.052,0.976-0.044,1.045c-0.11,0.079-0.249-0.204-0.262-0.218
			c-0.908-0.995-1.711-2.223-2.482-3.225c-0.341-0.441-0.78-1.197-1.394-1.088c-0.741,0.132-0.653,1.057-0.653,2.048
			c0,0.492,0,1.29,0,1.917c0,1.151-0.227,3.175,0.218,3.613c0.339,0.335,1.017,0.19,1.22-0.085c0.344-0.471,0.114-2.361,0.13-3.311
			c0.004-0.266-0.074-0.893,0.087-0.96c0.06-0.023,0.782,0.939,0.958,1.176c0.679,0.918,1.188,1.523,1.873,2.397
			c0.293,0.374,0.592,1.025,1.132,1.002c0.966-0.045,0.741-1.303,0.741-2.267C25.982,21.466,25.982,20.471,25.982,19.165z"/>
		<path fill="#00CED1" d="M29.598,21.824c0.643-0.01,1.729,0.134,2.178-0.045c0.026-0.011,0.357-0.319,0.349-0.305
			c0.074-0.121,0.169-0.601,0-0.871c-0.277-0.445-1.064-0.349-1.874-0.349c-0.308,0-1.23,0.099-1.35-0.043
			c-0.09-0.109,0.036-1.519,0.043-1.525c0.099-0.082,0.945,0,1.438,0c0.815,0,1.468,0.065,1.742-0.349
			c0.118-0.178,0.074-0.378,0.043-0.566c-0.117-0.724-0.835-0.653-1.917-0.653c-0.868,0-1.825-0.064-2.265,0.044
			c-0.789,0.195-0.653,1.038-0.653,2.091c0,0.682,0,1.285,0,1.917c0,0.991-0.159,3.223,0.218,3.57c0.345,0.32,1.299,0.22,2.178,0.22
			c1.095,0,2.446,0.238,2.483-0.742c0.034-0.893-0.829-0.826-1.655-0.826c-0.419,0-1.573,0.071-1.655-0.043
			c-0.063-0.09,0-0.52,0-0.785C28.901,21.768,28.84,21.832,29.598,21.824z"/>
	</g>
</g>
<g>
	<path fill="#FFFFFF" d="M-44.795,12.867c-1.784-3.223-4.986-5.5-9.387-5.798c-1.168-0.079-2.418-0.046-3.773-0.046
		c-2.533,0-5.33-0.128-7.685,0.046c-3.475,0.257-5.999,1.889-7.822,3.865c-1.457,1.578-2.462,3.513-2.853,5.936
		c-0.397,2.464-0.206,5.956,0.459,7.961c0.467,1.406,1.262,2.678,2.162,3.728c1.746,2.037,4.373,3.6,7.684,4.096
		c0,0.936,0,1.969,0,3.037c0,1.022-0.196,2.168,0.093,2.944c0.374,1.007,1.622,1.521,2.646,1.151
		c0.713-0.258,1.277-1.111,1.83-1.703c1.453-1.557,2.797-3,4.273-4.556c0.348-0.366,0.649-0.764,0.964-0.828
		c0.657-0.136,1.334,0.031,1.885,0c3.93-0.224,6.804-2.232,8.65-4.647c1.11-1.453,1.988-3.21,2.254-5.384
		c0.137-1.119,0.099-2.446,0.092-3.728C-43.336,16.468-43.879,14.522-44.795,12.867z M-46.544,25.797
		c-1.383,2.452-4.139,4.633-7.731,4.878c-0.45,0.03-0.976,0-1.472,0c-0.447,0-1.016-0.111-1.427,0
		c-0.26,0.07-0.644,0.573-0.92,0.874c-1.858,2.023-3.656,3.936-5.521,5.936c-0.057,0.061-0.194,0.162-0.275,0.23
		c0,0-0.229,0.207-0.229,0.046c0-2.347,0-4.693,0-7.04c-3.311,0.074-5.759-1.11-7.456-2.808c-1.791-1.789-2.876-4.023-2.876-7.362
		c0-1.784,0.027-3.294,0.425-4.647c0.744-2.526,2.448-4.46,4.654-5.66c1.151-0.626,2.527-1.096,4.098-1.196
		c2.209-0.142,4.135,0,6.351,0c2.125,0,4.378-0.146,6.075,0.23c3.313,0.734,5.666,2.811,6.811,5.798
		c0.297,0.775,0.55,1.626,0.645,2.53C-45.072,20.664-45.456,23.868-46.544,25.797z"/>
	<path fill="#FFFFFF" d="M-49.202,19.916c0,0.29-0.235,0.524-0.525,0.524h-20.45c-0.29,0-0.525-0.234-0.525-0.524l0,0
		c0-0.29,0.235-0.525,0.525-0.525h20.45C-49.437,19.39-49.202,19.625-49.202,19.916L-49.202,19.916z"/>
	<path fill="#FFFFFF" d="M-52.202,15.708c0,0.289-0.235,0.524-0.525,0.524h-14.45c-0.29,0-0.525-0.235-0.525-0.524l0,0
		c0-0.29,0.235-0.525,0.525-0.525h14.45C-52.437,15.183-52.202,15.418-52.202,15.708L-52.202,15.708z"/>
	<path fill="#FFFFFF" d="M-52.202,23.99c0,0.289-0.235,0.524-0.525,0.524h-14.45c-0.29,0-0.525-0.235-0.525-0.524l0,0
		c0-0.29,0.235-0.525,0.525-0.525h14.45C-52.437,23.464-52.202,23.7-52.202,23.99L-52.202,23.99z"/>
</g>
<rect x="220.425" y="0" fill-rule="evenodd" clip-rule="evenodd" fill="#00008B" width="43.665" height="43.665"/>
<path fill="#FFFFFF" d="M252.653,27.013c-1.563,0-2.948,0.703-3.901,1.794l-11.78-5.939c0.068-0.335,0.104-0.682,0.104-1.036
	c0-0.368-0.041-0.727-0.114-1.073l11.765-5.932c0.954,1.107,2.35,1.823,3.926,1.823c2.873,0,5.202-2.33,5.202-5.203
	c0-2.872-2.329-5.202-5.202-5.202c-2.874,0-5.203,2.33-5.203,5.202c0,0.346,0.037,0.684,0.102,1.011l-11.793,5.946
	c-0.953-1.079-2.332-1.774-3.885-1.774c-2.874,0-5.203,2.33-5.203,5.202c0,2.873,2.329,5.203,5.203,5.203
	c1.567,0,2.956-0.708,3.91-1.805l11.772,5.936c-0.069,0.34-0.106,0.69-0.106,1.05c0,2.873,2.329,5.203,5.203,5.203
	c2.873,0,5.202-2.33,5.202-5.203C257.855,29.343,255.526,27.013,252.653,27.013z"/>
<g>
	<g>
		<path fill-rule="evenodd" clip-rule="evenodd" fill="#1E90FF" d="M358.281,166.113c-0.33,1.23-1.998,2.22-2.91,3.29
			c0.172,9.7-6.701,17.417-16.075,18.101c-4.075,0.297-7.755-0.74-10.759-2.531c3.457,0.051,6.977-0.849,8.859-2.786
			c-3.127-0.121-4.666-1.83-5.695-4.05c0.57-0.095,1.858,0.086,2.658-0.127c-0.471-0.532-1.205-0.451-1.771-0.759
			c-1.754-0.949-2.879-2.788-3.039-5.316c0.88,0.176,1.498,0.612,2.532,0.633c-1.076-1.024-2.667-3.109-2.532-5.568
			c0.055-0.998,0.429-1.754,0.76-2.659c3.011,3.402,6.851,5.977,12.785,6.456c-1.25-6.451,6.613-9.96,10.758-5.695
			c1.408-0.281,2.651-0.725,3.67-1.394c-0.061,1.332-1.469,2.411-2.404,3.292C356.318,166.847,357.436,166.616,358.281,166.113z"/>
	</g>
</g>
<path fill-rule="evenodd" clip-rule="evenodd" fill="#00BFFF" d="M358.109,120.685c-1.83,0.042-3.945-0.202-5.2,0.416
	c-0.704,1.099-0.319,3.286-0.416,4.992c1.803,0,3.605,0,5.408,0c0.194,1.476-0.651,3.624-0.624,5.616c-1.525,0-3.051,0-4.576,0
	c-0.485,5.616-0.07,12.134-0.208,18.098c-2.288,0-4.577,0-6.864,0c0-6.033,0-12.065,0-18.098c-1.387,0-2.773,0-4.16,0
	c0-1.872,0-3.744,0-5.616c1.316,0,2.635,0,3.951,0c0.498-1.682,0.051-3.613,0.209-4.992c0.654-5.722,6.008-6.592,12.48-5.824
	C358.109,117.08,358.109,118.882,358.109,120.685z"/>
<g>
	<g>
		<path fill="#00CED1" d="M356.576,79.819c-0.678-0.853-1.52-1.596-2.352-2.222c-0.626-0.471-1.322-0.9-1.917-1.263
			c-0.568-0.346-1.2-0.633-1.786-0.872c-2.129-0.865-4.807-1.518-7.753-1.393c-0.028,0.001-0.058,0-0.087,0
			c-1.857,0-3.531,0.289-4.879,0.697c-0.173,0.051-0.348,0.037-0.523,0.086c-0.9,0.254-1.759,0.665-2.569,1.046
			c-2.72,1.277-4.872,3.136-6.315,5.576c-0.684,1.154-1.386,2.651-1.525,4.398c-0.232,2.923,0.595,5.327,1.787,7.014
			c0.469,0.663,0.897,1.274,1.437,1.828c1.892,1.946,4.364,3.451,7.144,4.313c0.931,0.289,1.639,0.441,2.701,0.609
			c0.457,0.072,1.119,0.082,1.393,0.262c0.112,0.073,0.33,0.438,0.35,0.523c0.062,0.273-0.057,0.555-0.088,0.827
			c-0.039,0.348-0.039,0.813-0.087,1.263c-0.081,0.779-0.345,1.476,0,1.916c0.19,0.245,0.562,0.387,1.002,0.306
			c0.345-0.063,0.829-0.415,1.308-0.653c1.496-0.746,2.791-1.469,4.094-2.309c2.295-1.48,4.275-2.856,6.055-4.617
			c1.107-1.096,2.031-2.127,2.963-3.441c1.174-1.657,2.269-3.646,2.395-6.186c0.102-2.038-0.359-3.54-0.914-4.835
			C357.923,81.569,357.249,80.665,356.576,79.819z M335.406,91.189c-0.809,0-2.174,0.19-2.613-0.22
			c-0.467-0.434-0.261-2.449-0.261-3.659c0-0.659,0-1.363,0-1.958c0-0.991-0.149-1.874,0.74-1.961
			c1.165-0.113,0.871,1.837,0.871,3.137c0,0.396,0,0.895,0,1.525c0,0.523-0.122,1.349,0,1.524c0.081,0.114,1.106,0.043,1.481,0.043
			c0.965,0,1.829-0.047,1.83,0.784C337.455,91.308,336.369,91.189,335.406,91.189z M339.807,90.884
			c-0.252,0.512-1.432,0.39-1.48-0.219c-0.127-1.568,0-3.57,0-5.184c0-0.369-0.152-1.388,0-1.785
			c0.031-0.084,0.313-0.262,0.435-0.306c0.182-0.067,0.714-0.086,0.915,0.13c0.285,0.31,0.174,1.123,0.174,1.743
			c0,1.172,0,2.704,0,3.79C339.85,89.599,339.977,90.536,339.807,90.884z M346.818,91.189c-0.54,0.023-0.838-0.628-1.132-1.002
			c-0.685-0.874-1.193-1.479-1.872-2.397c-0.177-0.236-0.898-1.199-0.959-1.176c-0.161,0.067-0.082,0.694-0.087,0.96
			c-0.017,0.949,0.214,2.84-0.13,3.311c-0.204,0.275-0.881,0.42-1.221,0.085c-0.444-0.438-0.218-2.462-0.218-3.613
			c0-0.627,0-1.425,0-1.917c0-0.991-0.088-1.916,0.653-2.048c0.613-0.109,1.053,0.646,1.395,1.088
			c0.771,1.002,1.574,2.229,2.482,3.225c0.013,0.014,0.15,0.297,0.262,0.218c0.096-0.069,0.043-0.871,0.043-1.045
			c0-0.813-0.194-2.712,0.088-3.18c0.154-0.258,0.631-0.374,0.783-0.35c0.803,0.123,0.653,1.047,0.653,2.047
			c0,1.306,0,2.301,0,3.528C347.56,89.886,347.785,91.144,346.818,91.189z M350.479,88.792c0,0.266-0.063,0.695,0,0.785
			c0.082,0.114,1.236,0.043,1.655,0.043c0.825,0,1.688-0.066,1.655,0.826c-0.037,0.98-1.389,0.742-2.483,0.742
			c-0.878,0-1.833,0.101-2.178-0.22c-0.377-0.348-0.218-2.579-0.218-3.57c0-0.632,0-1.235,0-1.917c0-1.053-0.136-1.896,0.653-2.091
			c0.439-0.108,1.397-0.044,2.265-0.044c1.082,0,1.8-0.07,1.917,0.653c0.03,0.188,0.074,0.389-0.044,0.566
			c-0.273,0.414-0.927,0.349-1.742,0.349c-0.492,0-1.338-0.082-1.438,0c-0.008,0.007-0.133,1.416-0.043,1.525
			c0.119,0.142,1.042,0.043,1.35,0.043c0.81,0,1.596-0.097,1.873,0.349c0.17,0.271,0.074,0.75,0,0.871
			c0.01-0.015-0.322,0.294-0.348,0.305c-0.449,0.179-1.535,0.035-2.178,0.045C350.417,88.061,350.479,87.997,350.479,88.792z"/>
		<path fill="#FFFFFF" d="M335.625,89.621c-0.375,0-1.4,0.071-1.481-0.043c-0.122-0.176,0-1.001,0-1.524c0-0.631,0-1.13,0-1.525
			c0-1.3,0.294-3.25-0.871-3.137c-0.89,0.087-0.74,0.97-0.74,1.961c0,0.595,0,1.299,0,1.958c0,1.21-0.206,3.226,0.261,3.659
			c0.439,0.41,1.805,0.22,2.613,0.22c0.963,0,2.049,0.119,2.049-0.784C337.454,89.574,336.59,89.621,335.625,89.621z"/>
		<path fill="#FFFFFF" d="M339.85,85.264c0-0.62,0.111-1.434-0.174-1.743c-0.201-0.216-0.733-0.197-0.915-0.13
			c-0.121,0.044-0.403,0.222-0.435,0.306c-0.152,0.397,0,1.416,0,1.785c0,1.613-0.127,3.615,0,5.184
			c0.049,0.608,1.229,0.73,1.48,0.219c0.17-0.349,0.043-1.285,0.043-1.83C339.85,87.968,339.85,86.436,339.85,85.264z"/>
		<path fill="#FFFFFF" d="M347.56,85.394c0-1,0.149-1.924-0.653-2.047c-0.152-0.024-0.629,0.092-0.783,0.35
			c-0.282,0.468-0.088,2.367-0.088,3.18c0,0.174,0.053,0.976-0.043,1.045c-0.111,0.079-0.249-0.204-0.262-0.218
			c-0.908-0.995-1.712-2.223-2.482-3.225c-0.342-0.441-0.781-1.197-1.395-1.088c-0.741,0.132-0.653,1.057-0.653,2.048
			c0,0.492,0,1.29,0,1.917c0,1.151-0.227,3.175,0.218,3.613c0.34,0.335,1.017,0.19,1.221-0.085c0.344-0.471,0.113-2.361,0.13-3.311
			c0.005-0.266-0.074-0.893,0.087-0.96c0.061-0.023,0.782,0.939,0.959,1.176c0.679,0.918,1.188,1.523,1.872,2.397
			c0.294,0.374,0.592,1.025,1.132,1.002c0.967-0.045,0.741-1.303,0.741-2.267C347.56,87.695,347.56,86.7,347.56,85.394z"/>
		<path fill="#FFFFFF" d="M351.176,88.053c0.643-0.01,1.729,0.134,2.178-0.045c0.025-0.011,0.357-0.319,0.348-0.305
			c0.074-0.121,0.17-0.601,0-0.871c-0.277-0.445-1.063-0.349-1.873-0.349c-0.308,0-1.23,0.099-1.35-0.043
			c-0.09-0.109,0.035-1.519,0.043-1.525c0.1-0.082,0.945,0,1.438,0c0.815,0,1.469,0.065,1.742-0.349
			c0.118-0.178,0.074-0.378,0.044-0.566c-0.117-0.724-0.835-0.653-1.917-0.653c-0.867,0-1.825-0.064-2.265,0.044
			c-0.789,0.195-0.653,1.038-0.653,2.091c0,0.682,0,1.285,0,1.917c0,0.991-0.159,3.223,0.218,3.57c0.345,0.32,1.3,0.22,2.178,0.22
			c1.095,0,2.446,0.238,2.483-0.742c0.033-0.893-0.83-0.826-1.655-0.826c-0.419,0-1.573,0.071-1.655-0.043
			c-0.063-0.09,0-0.52,0-0.785C350.479,87.997,350.417,88.061,351.176,88.053z"/>
	</g>
</g>
<g>
	<path fill="#ABC1CE" d="M358.204,35.431c-1.784-3.223-4.986-5.5-9.388-5.798c-1.168-0.079-2.418-0.046-3.773-0.046
		c-2.532,0-5.329-0.128-7.684,0.046c-3.476,0.257-6,1.889-7.822,3.865c-1.457,1.578-2.463,3.513-2.854,5.936
		c-0.397,2.464-0.206,5.956,0.459,7.961c0.468,1.406,1.263,2.678,2.162,3.728c1.746,2.037,4.373,3.6,7.684,4.096
		c0,0.936,0,1.969,0,3.037c0,1.022-0.195,2.168,0.094,2.944c0.374,1.007,1.621,1.521,2.646,1.151
		c0.713-0.258,1.277-1.111,1.829-1.703c1.452-1.557,2.797-3,4.273-4.556c0.349-0.366,0.649-0.764,0.964-0.828
		c0.657-0.136,1.334,0.031,1.885,0c3.93-0.224,6.805-2.232,8.65-4.647c1.111-1.453,1.988-3.21,2.255-5.384
		c0.137-1.119,0.099-2.446,0.092-3.728C359.663,39.033,359.12,37.086,358.204,35.431z M356.455,48.362
		c-1.383,2.452-4.139,4.633-7.73,4.878c-0.449,0.03-0.977,0-1.473,0c-0.446,0-1.016-0.111-1.426,0
		c-0.26,0.07-0.645,0.573-0.921,0.874c-1.858,2.023-3.655,3.936-5.521,5.936c-0.057,0.061-0.194,0.162-0.274,0.23
		c0,0-0.229,0.207-0.229,0.046c0-2.347,0-4.693,0-7.04c-3.312,0.074-5.76-1.11-7.457-2.808c-1.79-1.789-2.876-4.023-2.876-7.362
		c0-1.784,0.027-3.294,0.425-4.647c0.744-2.526,2.448-4.46,4.654-5.66c1.15-0.626,2.527-1.096,4.098-1.196
		c2.209-0.142,4.135,0,6.352,0c2.125,0,4.378-0.146,6.074,0.23c3.313,0.734,5.666,2.811,6.811,5.798
		c0.297,0.775,0.55,1.626,0.645,2.53C357.928,43.228,357.544,46.432,356.455,48.362z"/>
	<path fill="#ABC1CE" d="M353.798,42.48c0,0.29-0.235,0.524-0.524,0.524h-20.451c-0.289,0-0.524-0.234-0.524-0.524l0,0
		c0-0.29,0.235-0.525,0.524-0.525h20.451C353.563,41.955,353.798,42.19,353.798,42.48L353.798,42.48z"/>
	<path fill="#ABC1CE" d="M350.798,38.273c0,0.289-0.235,0.524-0.524,0.524h-14.451c-0.289,0-0.524-0.235-0.524-0.524l0,0
		c0-0.29,0.235-0.525,0.524-0.525h14.451C350.563,37.748,350.798,37.983,350.798,38.273L350.798,38.273z"/>
	<path fill="#ABC1CE" d="M350.798,46.554c0,0.289-0.235,0.524-0.524,0.524h-14.451c-0.289,0-0.524-0.235-0.524-0.524l0,0
		c0-0.29,0.235-0.525,0.524-0.525h14.451C350.563,46.029,350.798,46.264,350.798,46.554L350.798,46.554z"/>
</g>
<path fill="#00008B" d="M353.805,224.276c-1.563,0-2.947,0.703-3.901,1.794l-11.78-5.939c0.068-0.335,0.104-0.682,0.104-1.036
	c0-0.368-0.04-0.727-0.114-1.073l11.766-5.932c0.954,1.107,2.35,1.823,3.926,1.823c2.873,0,5.202-2.33,5.202-5.203
	c0-2.872-2.329-5.202-5.202-5.202s-5.203,2.33-5.203,5.202c0,0.346,0.037,0.684,0.103,1.011l-11.794,5.946
	c-0.953-1.079-2.332-1.774-3.885-1.774c-2.873,0-5.203,2.33-5.203,5.202c0,2.873,2.33,5.203,5.203,5.203
	c1.567,0,2.956-0.708,3.91-1.805l11.772,5.936c-0.069,0.34-0.106,0.69-0.106,1.05c0,2.873,2.33,5.203,5.203,5.203
	s5.202-2.33,5.202-5.203C359.007,226.606,356.678,224.276,353.805,224.276z"/>
</svg>
