<?xml version="1.0" encoding="utf-8"?>
<!-- Generator: Adobe Illustrator 15.1.0, SVG Export Plug-In . SVG Version: 6.00 Build 0)  -->
<!DOCTYPE svg PUBLIC "-//W3C//DTD SVG 1.1//EN" "http://www.w3.org/Graphics/SVG/1.1/DTD/svg11.dtd">
<svg version="1.1" id="圖層_1" xmlns="http://www.w3.org/2000/svg" xmlns:xlink="http://www.w3.org/1999/xlink" x="0px" y="0px"
	 width="43.665px" height="43.665px" viewBox="0 0 43.665 43.665" enable-background="new 0 0 43.665 43.665" xml:space="preserve">
<g>
	<path fill-rule="evenodd" clip-rule="evenodd" fill="#FFFFFF" d="M257.458,12.554c-0.331,1.23-1.998,2.22-2.911,3.29
		c0.173,9.7-6.701,17.417-16.075,18.101c-4.075,0.297-7.754-0.74-10.759-2.531c3.458,0.051,6.977-0.849,8.86-2.786
		c-3.126-0.121-4.666-1.83-5.695-4.05c0.571-0.095,1.858,0.086,2.658-0.127c-0.471-0.532-1.205-0.451-1.771-0.759
		c-1.753-0.949-2.878-2.788-3.038-5.316c0.879,0.176,1.498,0.612,2.532,0.633c-1.076-1.024-2.667-3.109-2.532-5.568
		c0.055-0.998,0.428-1.754,0.759-2.659c3.011,3.402,6.851,5.977,12.785,6.456c-1.25-6.451,6.614-9.96,10.758-5.695
		c1.408-0.281,2.651-0.725,3.67-1.394c-0.062,1.332-1.469,2.411-2.405,3.292C255.494,13.288,256.612,13.057,257.458,12.554z"/>
</g>
<path fill="#FFFFFF" d="M174.139,11.208c-0.158,1.379,0.289,3.311-0.209,4.992c-1.316,0-2.635,0-3.951,0c0,1.872,0,3.744,0,5.616
	c1.387,0,2.773,0,4.16,0c0,6.032,0,12.064,0,18.098c2.287,0,4.576,0,6.864,0c0.138-5.964-0.277-12.481,0.208-18.098
	c1.525,0,3.051,0,4.576,0c-0.027-1.992,0.818-4.141,0.624-5.616c-1.803,0-3.605,0-5.408,0c0.097-1.706-0.288-3.894,0.416-4.992
	c1.255-0.618,3.37-0.374,5.2-0.416c0-1.803,0-3.605,0-5.408C180.147,4.616,174.793,5.486,174.139,11.208z"/>
<path fill="#FFFFFF" d="M334.075,27.014c-1.563,0-2.948,0.703-3.901,1.794l-11.78-5.939c0.068-0.335,0.104-0.682,0.104-1.036
	c0-0.368-0.041-0.727-0.114-1.073l11.765-5.932c0.954,1.107,2.35,1.823,3.926,1.823c2.873,0,5.202-2.33,5.202-5.203
	c0-2.872-2.329-5.202-5.202-5.202c-2.874,0-5.203,2.33-5.203,5.202c0,0.346,0.037,0.684,0.102,1.011l-11.793,5.946
	c-0.953-1.079-2.332-1.774-3.885-1.774c-2.874,0-5.203,2.33-5.203,5.202c0,2.873,2.329,5.203,5.203,5.203
	c1.567,0,2.956-0.708,3.91-1.805l11.772,5.936c-0.069,0.34-0.106,0.69-0.106,1.05c0,2.873,2.329,5.203,5.203,5.203
	c2.873,0,5.202-2.33,5.202-5.203C339.277,29.344,336.948,27.014,334.075,27.014z"/>
<g>
	<g>
		<path fill-rule="evenodd" clip-rule="evenodd" fill="#1E90FF" d="M257.457,12.554c-0.33,1.23-1.998,2.22-2.91,3.29
			c0.172,9.7-6.701,17.417-16.075,18.101c-4.075,0.297-7.755-0.74-10.759-2.531c3.457,0.051,6.977-0.849,8.859-2.786
			c-3.127-0.121-4.666-1.83-5.695-4.05c0.57-0.095,1.858,0.086,2.658-0.127c-0.471-0.532-1.205-0.451-1.771-0.759
			c-1.754-0.949-2.879-2.788-3.039-5.316c0.88,0.176,1.498,0.612,2.532,0.633c-1.076-1.024-2.667-3.109-2.532-5.568
			c0.055-0.998,0.429-1.754,0.76-2.659c3.011,3.402,6.851,5.977,12.785,6.456c-1.25-6.451,6.613-9.96,10.758-5.695
			c1.408-0.281,2.651-0.725,3.67-1.394c-0.061,1.332-1.469,2.411-2.404,3.292C255.494,13.288,256.611,13.057,257.457,12.554z"/>
	</g>
</g>
<path fill-rule="evenodd" clip-rule="evenodd" fill="#00BFFF" d="M186.62,10.792c-1.83,0.042-3.945-0.202-5.2,0.416
	c-0.704,1.099-0.319,3.286-0.416,4.992c1.803,0,3.605,0,5.408,0c0.194,1.476-0.651,3.624-0.624,5.616c-1.525,0-3.051,0-4.576,0
	c-0.485,5.616-0.07,12.134-0.208,18.098c-2.288,0-4.577,0-6.864,0c0-6.033,0-12.065,0-18.098c-1.387,0-2.773,0-4.16,0
	c0-1.872,0-3.744,0-5.616c1.316,0,2.635,0,3.951,0c0.498-1.682,0.051-3.613,0.209-4.992c0.654-5.722,6.008-6.592,12.48-5.824
	C186.62,7.186,186.62,8.989,186.62,10.792z"/>
<g>
	<g>
		<path fill="#00CED1" d="M116.424,13.588c-0.678-0.853-1.52-1.596-2.352-2.222c-0.626-0.471-1.322-0.9-1.917-1.263
			c-0.568-0.346-1.2-0.633-1.786-0.872c-2.129-0.865-4.807-1.518-7.753-1.393c-0.028,0.001-0.058,0-0.087,0
			c-1.857,0-3.531,0.289-4.879,0.697c-0.173,0.051-0.348,0.037-0.523,0.086c-0.9,0.254-1.759,0.665-2.569,1.046
			c-2.72,1.277-4.872,3.136-6.315,5.576c-0.684,1.154-1.386,2.651-1.525,4.398c-0.232,2.923,0.595,5.327,1.787,7.014
			c0.469,0.663,0.897,1.274,1.437,1.828c1.892,1.946,4.364,3.451,7.144,4.313c0.931,0.289,1.639,0.441,2.701,0.609
			c0.457,0.072,1.119,0.082,1.393,0.262c0.112,0.073,0.33,0.438,0.35,0.523c0.062,0.273-0.057,0.555-0.088,0.827
			c-0.039,0.348-0.039,0.813-0.087,1.263c-0.081,0.779-0.345,1.476,0,1.916c0.19,0.245,0.562,0.387,1.002,0.306
			c0.345-0.063,0.829-0.415,1.308-0.653c1.496-0.746,2.791-1.469,4.094-2.309c2.295-1.48,4.275-2.856,6.055-4.617
			c1.107-1.096,2.031-2.127,2.963-3.441c1.174-1.657,2.269-3.646,2.395-6.186c0.102-2.038-0.359-3.54-0.914-4.835
			C117.771,15.338,117.097,14.434,116.424,13.588z M95.254,24.958c-0.809,0-2.174,0.19-2.613-0.22
			c-0.467-0.434-0.261-2.449-0.261-3.659c0-0.659,0-1.363,0-1.958c0-0.991-0.149-1.874,0.74-1.961
			c1.165-0.113,0.871,1.837,0.871,3.137c0,0.396,0,0.895,0,1.525c0,0.523-0.122,1.349,0,1.524c0.081,0.114,1.106,0.043,1.481,0.043
			c0.965,0,1.829-0.047,1.83,0.784C97.303,25.077,96.217,24.958,95.254,24.958z M99.654,24.653c-0.252,0.512-1.432,0.39-1.48-0.219
			c-0.127-1.568,0-3.57,0-5.184c0-0.369-0.152-1.388,0-1.785c0.031-0.084,0.313-0.262,0.435-0.306
			c0.182-0.067,0.714-0.086,0.915,0.13c0.285,0.31,0.174,1.123,0.174,1.743c0,1.172,0,2.704,0,3.79
			C99.697,23.368,99.824,24.305,99.654,24.653z M106.666,24.958c-0.54,0.023-0.838-0.628-1.132-1.002
			c-0.685-0.874-1.193-1.479-1.872-2.397c-0.177-0.236-0.898-1.199-0.959-1.176c-0.161,0.067-0.082,0.694-0.087,0.96
			c-0.017,0.949,0.214,2.84-0.13,3.311c-0.204,0.275-0.881,0.42-1.221,0.085c-0.444-0.438-0.218-2.462-0.218-3.613
			c0-0.627,0-1.425,0-1.917c0-0.991-0.088-1.916,0.653-2.048c0.613-0.109,1.053,0.646,1.395,1.088
			c0.771,1.002,1.574,2.229,2.482,3.225c0.013,0.014,0.15,0.297,0.262,0.218c0.096-0.069,0.043-0.871,0.043-1.045
			c0-0.813-0.194-2.712,0.088-3.18c0.154-0.258,0.631-0.374,0.783-0.35c0.803,0.123,0.653,1.047,0.653,2.047
			c0,1.306,0,2.301,0,3.528C107.407,23.655,107.633,24.913,106.666,24.958z M110.326,22.562c0,0.266-0.063,0.695,0,0.785
			c0.082,0.114,1.236,0.043,1.655,0.043c0.825,0,1.688-0.066,1.655,0.826c-0.037,0.98-1.389,0.742-2.483,0.742
			c-0.878,0-1.833,0.101-2.178-0.22c-0.377-0.348-0.218-2.579-0.218-3.57c0-0.632,0-1.235,0-1.917c0-1.053-0.136-1.896,0.653-2.091
			c0.439-0.108,1.397-0.044,2.265-0.044c1.082,0,1.8-0.07,1.917,0.653c0.03,0.188,0.074,0.389-0.044,0.566
			c-0.273,0.414-0.927,0.349-1.742,0.349c-0.492,0-1.338-0.082-1.438,0c-0.008,0.007-0.133,1.416-0.043,1.525
			c0.119,0.142,1.042,0.043,1.35,0.043c0.81,0,1.596-0.097,1.873,0.349c0.17,0.271,0.074,0.75,0,0.871
			c0.01-0.015-0.322,0.294-0.348,0.305c-0.449,0.179-1.535,0.035-2.178,0.045C110.265,21.83,110.326,21.766,110.326,22.562z"/>
		<path fill="#FFFFFF" d="M95.473,23.39c-0.375,0-1.4,0.071-1.481-0.043c-0.122-0.176,0-1.001,0-1.524c0-0.631,0-1.13,0-1.525
			c0-1.3,0.294-3.25-0.871-3.137c-0.89,0.087-0.74,0.97-0.74,1.961c0,0.595,0,1.299,0,1.958c0,1.21-0.206,3.226,0.261,3.659
			c0.439,0.41,1.805,0.22,2.613,0.22c0.963,0,2.049,0.119,2.049-0.784C97.302,23.343,96.438,23.39,95.473,23.39z"/>
		<path fill="#FFFFFF" d="M99.697,19.033c0-0.62,0.111-1.434-0.174-1.743c-0.201-0.216-0.733-0.197-0.915-0.13
			c-0.121,0.044-0.403,0.222-0.435,0.306c-0.152,0.397,0,1.416,0,1.785c0,1.613-0.127,3.615,0,5.184
			c0.049,0.608,1.229,0.73,1.48,0.219c0.17-0.349,0.043-1.285,0.043-1.83C99.697,21.737,99.697,20.205,99.697,19.033z"/>
		<path fill="#FFFFFF" d="M107.407,19.163c0-1,0.149-1.924-0.653-2.047c-0.152-0.024-0.629,0.092-0.783,0.35
			c-0.282,0.468-0.088,2.367-0.088,3.18c0,0.174,0.053,0.976-0.043,1.045c-0.111,0.079-0.249-0.204-0.262-0.218
			c-0.908-0.995-1.712-2.223-2.482-3.225c-0.342-0.441-0.781-1.197-1.395-1.088c-0.741,0.132-0.653,1.057-0.653,2.048
			c0,0.492,0,1.29,0,1.917c0,1.151-0.227,3.175,0.218,3.613c0.34,0.335,1.017,0.19,1.221-0.085c0.344-0.471,0.113-2.361,0.13-3.311
			c0.005-0.266-0.074-0.893,0.087-0.96c0.061-0.023,0.782,0.939,0.959,1.176c0.679,0.918,1.188,1.523,1.872,2.397
			c0.294,0.374,0.592,1.025,1.132,1.002c0.967-0.045,0.741-1.303,0.741-2.267C107.407,21.464,107.407,20.469,107.407,19.163z"/>
		<path fill="#FFFFFF" d="M111.023,21.822c0.643-0.01,1.729,0.134,2.178-0.045c0.025-0.011,0.357-0.319,0.348-0.305
			c0.074-0.121,0.17-0.601,0-0.871c-0.277-0.445-1.063-0.349-1.873-0.349c-0.308,0-1.23,0.099-1.35-0.043
			c-0.09-0.109,0.035-1.519,0.043-1.525c0.1-0.082,0.945,0,1.438,0c0.815,0,1.469,0.065,1.742-0.349
			c0.118-0.178,0.074-0.378,0.044-0.566c-0.117-0.724-0.835-0.653-1.917-0.653c-0.867,0-1.825-0.064-2.265,0.044
			c-0.789,0.195-0.653,1.038-0.653,2.091c0,0.682,0,1.285,0,1.917c0,0.991-0.159,3.223,0.218,3.57c0.345,0.32,1.3,0.22,2.178,0.22
			c1.095,0,2.446,0.238,2.483-0.742c0.033-0.893-0.83-0.826-1.655-0.826c-0.419,0-1.573,0.071-1.655-0.043
			c-0.063-0.09,0-0.52,0-0.785C110.326,21.766,110.265,21.83,111.023,21.822z"/>
	</g>
</g>
<g>
	<path fill="#FFFFFF" d="M35.384,15.076c-0.143-0.374-0.305-0.732-0.485-1.077c-1.263-2.409-3.427-4.079-6.325-4.721
		c-0.424-0.094-0.883-0.155-1.366-0.195c-0.483-0.039-0.99-0.056-1.511-0.062c-1.041-0.01-2.135,0.026-3.198,0.026c0,0,0,0,0,0l0,0
		c-0.492,0-0.967-0.008-1.437-0.018c-1.116-0.022-2.191-0.056-3.301-0.042c-0.526,0.006-1.061,0.024-1.613,0.06
		c-1.57,0.101-2.947,0.57-4.098,1.196c-2.206,1.2-3.91,3.134-4.654,5.66c-0.397,1.354-0.425,2.863-0.425,4.647
		c0,0.835,0.068,1.601,0.198,2.308c0.389,2.121,1.336,3.713,2.679,5.055c1.131,1.131,2.605,2.024,4.438,2.479
		c0.916,0.227,1.915,0.353,3.019,0.328c0,2.347,0,4.693,0,7.04c0,0.04,0.014,0.058,0.036,0.061c0.064,0.009,0.192-0.106,0.192-0.106
		c0.032-0.027,0.076-0.062,0.117-0.095c0.063-0.05,0.124-0.1,0.158-0.136c1.866-2,3.664-3.912,5.521-5.936
		c0.276-0.301,0.661-0.804,0.92-0.874c0.103-0.028,0.215-0.042,0.333-0.047c0.118-0.005,0.242-0.002,0.366,0.005
		c0.25,0.014,0.503,0.042,0.727,0.042c0.248,0,0.503,0.008,0.753,0.011c0.25,0.004,0.494,0.004,0.719-0.011
		c1.347-0.092,2.576-0.456,3.66-1.004c1.806-0.915,3.207-2.341,4.071-3.874c0.408-0.724,0.717-1.626,0.927-2.634
		c0.21-1.007,0.321-2.118,0.333-3.259c0.008-0.76-0.029-1.534-0.109-2.298C35.934,16.702,35.681,15.852,35.384,15.076z
		 M14.042,15.225c0.063-0.027,0.131-0.042,0.204-0.042h0h14.45h0c0.072,0,0.141,0.015,0.204,0.042c0.188,0.08,0.32,0.266,0.32,0.484
		c0,0.217-0.132,0.403-0.32,0.483c-0.063,0.027-0.132,0.042-0.204,0.042h0h-14.45h0c-0.072,0-0.141-0.015-0.204-0.042
		c-0.188-0.08-0.321-0.266-0.321-0.483C13.721,15.491,13.853,15.305,14.042,15.225z M28.9,24.473
		c-0.063,0.027-0.132,0.042-0.204,0.042h0h-14.45h0c-0.072,0-0.141-0.015-0.204-0.042c-0.188-0.08-0.321-0.266-0.321-0.483
		c0-0.218,0.132-0.404,0.321-0.484c0.063-0.027,0.131-0.042,0.204-0.042h0h14.45h0c0.072,0,0.141,0.015,0.204,0.042
		c0.188,0.08,0.32,0.266,0.32,0.484C29.221,24.207,29.088,24.394,28.9,24.473z M31.9,20.399c-0.063,0.026-0.132,0.041-0.204,0.041h0
		h-20.45h0c-0.072,0-0.141-0.015-0.204-0.041c-0.188-0.08-0.321-0.266-0.321-0.483s0.132-0.404,0.321-0.484
		c0.063-0.027,0.131-0.042,0.204-0.042h0h20.45h0c0.072,0,0.141,0.015,0.204,0.042c0.188,0.08,0.32,0.266,0.32,0.484
		S32.088,20.32,31.9,20.399z"/>
	<path fill="#FFFFFF" d="M22.499,9.048c-0.492,0-0.967-0.008-1.437-0.018C21.532,9.04,22.006,9.048,22.499,9.048L22.499,9.048z"/>
	<path fill="#FFFFFF" d="M25.697,9.022c0.521,0.005,1.028,0.022,1.511,0.062C26.724,9.044,26.217,9.027,25.697,9.022z"/>
	<path fill="#FFFFFF" d="M16.147,9.048c0.552-0.035,1.087-0.053,1.613-0.06C17.234,8.995,16.7,9.013,16.147,9.048z"/>
	<path fill="#FFFFFF" d="M17.339,37.822c0.064,0.01,0.193-0.106,0.193-0.106c0.032-0.027,0.075-0.062,0.117-0.095
		c-0.042,0.033-0.085,0.067-0.117,0.095C17.532,37.716,17.404,37.832,17.339,37.822z"/>
	<path fill="#FFFFFF" d="M24.249,30.676c-0.26,0.07-0.644,0.573-0.92,0.874C23.604,31.249,23.989,30.746,24.249,30.676
		c0.103-0.028,0.215-0.042,0.333-0.047C24.464,30.634,24.351,30.648,24.249,30.676z"/>
	<path fill="#FFFFFF" d="M24.948,30.634c0.25,0.014,0.503,0.042,0.727,0.042c0.248,0,0.504,0.008,0.754,0.011
		c-0.25-0.003-0.505-0.011-0.753-0.011C25.452,30.676,25.198,30.648,24.948,30.634z"/>
	<path fill="#FFFFFF" d="M36.138,19.905c-0.012,1.141-0.123,2.252-0.333,3.259C36.015,22.157,36.126,21.046,36.138,19.905z"/>
	<path fill="#FFFFFF" d="M15.505,38.636c-0.121-0.323-0.147-0.718-0.149-1.135C15.357,37.917,15.384,38.313,15.505,38.636z"/>
	<path fill="#FFFFFF" d="M24.254,33.528c-1.477,1.556-2.821,2.999-4.273,4.556C21.433,36.527,22.777,35.084,24.254,33.528z"/>
	<path fill="#FFFFFF" d="M36.627,12.867c-1.784-3.223-4.986-5.5-9.387-5.798c-0.584-0.04-1.188-0.051-1.817-0.053
		c0.628,0.002,1.232,0.013,1.816,0.053C31.641,7.367,34.843,9.645,36.627,12.867z"/>
	<path fill="#FFFFFF" d="M27.103,32.7L27.103,32.7c3.93-0.224,6.805-2.232,8.651-4.647c1.11-1.453,1.988-3.21,2.254-5.384
		c-0.267,2.174-1.144,3.931-2.255,5.384C33.907,30.468,31.032,32.477,27.103,32.7z"/>
	<path fill="#FFFFFF" d="M9.462,9.533c-0.547,0.435-1.047,0.908-1.503,1.402c-1.275,1.381-2.204,3.035-2.678,5.05
		c0.474-2.015,1.404-3.669,2.679-5.05C8.416,10.44,8.915,9.968,9.462,9.533z"/>
	<path fill="#FFFFFF" d="M19.557,6.981c-1.31-0.011-2.598,0.001-3.775,0.088c-1.303,0.096-2.473,0.386-3.521,0.814
		c1.049-0.429,2.219-0.718,3.522-0.814C16.959,6.982,18.248,6.971,19.557,6.981z"/>
	<path fill="#FFFFFF" d="M23.466,7.023c-1.267,0-2.599-0.032-3.909-0.042C20.868,6.991,22.2,7.023,23.466,7.023L23.466,7.023z"/>
	<path fill="#FFFFFF" d="M7.168,22.859c0.389,2.121,1.336,3.713,2.678,5.055c1.131,1.131,2.605,2.024,4.438,2.479
		c-1.832-0.455-3.306-1.348-4.438-2.479C8.504,26.572,7.558,24.98,7.168,22.859z"/>
	<path fill="#FFFFFF" d="M10.721,19.916c0,0.218,0.132,0.404,0.321,0.483C10.853,20.32,10.721,20.134,10.721,19.916z"/>
	<path fill="#FFFFFF" d="M31.9,19.432c0.188,0.08,0.32,0.266,0.32,0.484C32.221,19.698,32.088,19.512,31.9,19.432z"/>
	<path fill="#FFFFFF" d="M11.042,19.432c-0.188,0.08-0.321,0.266-0.321,0.484C10.721,19.698,10.853,19.512,11.042,19.432z"/>
	<path fill="#FFFFFF" d="M31.9,20.399c0.188-0.08,0.32-0.266,0.32-0.483C32.221,20.134,32.088,20.32,31.9,20.399z"/>
	<path fill="#FFFFFF" d="M29.221,15.709c0-0.218-0.132-0.404-0.32-0.484C29.088,15.305,29.221,15.491,29.221,15.709z"/>
	<path fill="#FFFFFF" d="M14.042,15.225c-0.188,0.08-0.321,0.266-0.321,0.484C13.721,15.491,13.853,15.305,14.042,15.225z"/>
	<path fill="#FFFFFF" d="M14.042,16.192c-0.188-0.08-0.321-0.266-0.321-0.483C13.721,15.926,13.853,16.112,14.042,16.192z"/>
	<path fill="#FFFFFF" d="M28.9,16.192c0.188-0.08,0.32-0.266,0.32-0.483C29.221,15.926,29.088,16.112,28.9,16.192z"/>
	<path fill="#FFFFFF" d="M14.042,23.506c-0.188,0.08-0.321,0.266-0.321,0.484C13.721,23.772,13.853,23.586,14.042,23.506z"/>
	<path fill="#FFFFFF" d="M28.9,24.473c0.188-0.08,0.32-0.266,0.32-0.483C29.221,24.207,29.088,24.394,28.9,24.473z"/>
	<path fill="#FFFFFF" d="M13.721,23.99c0,0.217,0.132,0.403,0.321,0.483C13.853,24.394,13.721,24.207,13.721,23.99z"/>
	<path fill="#FFFFFF" d="M28.9,23.506c0.188,0.08,0.32,0.266,0.32,0.484C29.221,23.772,29.088,23.586,28.9,23.506z"/>
	<path fill="#ABC1CE" d="M17.807,37.485c-0.034,0.036-0.095,0.086-0.158,0.136C17.711,37.571,17.772,37.521,17.807,37.485z"/>
	<path fill="#ABC1CE" d="M17.76,8.988c1.11-0.014,2.185,0.02,3.301,0.042C19.945,9.008,18.871,8.974,17.76,8.988z"/>
	<path fill="#ABC1CE" d="M24.254,33.528c0.349-0.366,0.649-0.764,0.964-0.828C24.903,32.765,24.602,33.162,24.254,33.528z"/>
	<path fill="#ABC1CE" d="M27.147,30.676c-0.225,0.015-0.469,0.015-0.719,0.011C26.679,30.691,26.922,30.691,27.147,30.676z"/>
	<path fill="#ABC1CE" d="M9.462,9.533c0.821-0.652,1.749-1.22,2.798-1.649C11.211,8.313,10.283,8.88,9.462,9.533z"/>
	<path fill="#ABC1CE" d="M34.898,14c-1.262-2.409-3.426-4.079-6.325-4.721C31.472,9.921,33.636,11.591,34.898,14z"/>
	<path fill="#ABC1CE" d="M18.151,39.787c-0.256,0.092-0.526,0.129-0.793,0.117C17.625,39.917,17.895,39.879,18.151,39.787
		c0.713-0.258,1.278-1.111,1.83-1.703C19.428,38.676,18.864,39.529,18.151,39.787z"/>
	<path fill="#ABC1CE" d="M27.103,32.7L27.103,32.7c-0.414,0.023-0.897-0.064-1.391-0.053C26.206,32.636,26.689,32.724,27.103,32.7z"
		/>
	<path fill="#ABC1CE" d="M35.384,15.076c0.297,0.775,0.55,1.626,0.645,2.53c0.081,0.765,0.117,1.538,0.109,2.298
		c0.008-0.76-0.029-1.534-0.109-2.298C35.934,16.702,35.681,15.852,35.384,15.076z"/>
	<path fill="#ABC1CE" d="M25.423,7.017c-0.628-0.001-1.279,0.007-1.957,0.007l0,0C24.144,7.023,24.795,7.015,25.423,7.017z"/>
	<path fill="#ABC1CE" d="M15.505,38.636c0.281,0.755,1.052,1.233,1.853,1.269C16.557,39.869,15.786,39.391,15.505,38.636z"/>
	<path fill="#ABC1CE" d="M15.412,35.691c0-1.068,0-2.102,0-3.037c-3.311-0.496-5.938-2.059-7.684-4.096
		c-0.9-1.05-1.695-2.321-2.162-3.728c-0.416-1.253-0.646-3.087-0.664-4.888c0.017,1.801,0.248,3.635,0.664,4.888
		c0.468,1.406,1.263,2.678,2.162,3.728c1.746,2.037,4.373,3.6,7.684,4.096C15.411,33.59,15.411,34.623,15.412,35.691
		c0,0.597-0.058,1.228-0.056,1.81C15.354,36.919,15.412,36.288,15.412,35.691z"/>
	<path fill="#ABC1CE" d="M25.697,9.022c-1.041-0.01-2.135,0.026-3.198,0.026c0,0,0,0,0,0C23.562,9.048,24.656,9.012,25.697,9.022z"
		/>
	<path fill="#ABC1CE" d="M17.304,30.722c-1.104,0.025-2.103-0.101-3.019-0.328C15.201,30.621,16.2,30.747,17.304,30.722
		c0,2.347,0,4.693,0,7.04c0,0.041,0.015,0.058,0.036,0.061c-0.021-0.003-0.036-0.021-0.036-0.061
		C17.304,35.415,17.304,33.068,17.304,30.722z"/>
	<path fill="#ABC1CE" d="M12.05,10.244c1.15-0.626,2.527-1.096,4.098-1.196C14.577,9.148,13.2,9.618,12.05,10.244
		c-2.206,1.2-3.911,3.134-4.654,5.66C8.14,13.378,9.844,11.444,12.05,10.244z"/>
	<path fill="#ABC1CE" d="M24.582,30.629c0.118-0.005,0.242-0.002,0.366,0.005C24.824,30.627,24.7,30.624,24.582,30.629z"/>
	<path fill="#ABC1CE" d="M30.807,29.671c1.806-0.915,3.207-2.341,4.071-3.874c0.408-0.724,0.717-1.626,0.927-2.634
		c-0.21,1.007-0.519,1.91-0.927,2.634C34.014,27.331,32.613,28.757,30.807,29.671z"/>
	<path fill="#ABC1CE" d="M36.627,12.867c-1.784-3.223-4.986-5.5-9.388-5.798c-0.584-0.04-1.188-0.051-1.816-0.053
		c-0.628-0.001-1.279,0.007-1.957,0.007l0,0h0c-1.266,0-2.598-0.032-3.909-0.042c-1.31-0.011-2.598,0.001-3.775,0.088
		c-1.303,0.096-2.473,0.386-3.522,0.814S10.283,8.88,9.462,9.533C8.915,9.968,8.416,10.44,7.96,10.935
		c-1.275,1.381-2.205,3.035-2.679,5.05c-0.067,0.288-0.126,0.583-0.175,0.886c-0.149,0.924-0.215,1.993-0.205,3.073
		c0.018,1.801,0.248,3.635,0.664,4.888c0.467,1.406,1.262,2.678,2.162,3.728c1.746,2.037,4.373,3.6,7.684,4.096
		c0,0.936,0,1.969,0,3.037c0,0.597-0.058,1.228-0.056,1.81c0.001,0.417,0.028,0.812,0.149,1.135
		c0.281,0.755,1.052,1.233,1.853,1.269c0.267,0.012,0.537-0.025,0.793-0.117c0.713-0.258,1.277-1.111,1.83-1.703
		c1.452-1.557,2.797-3,4.273-4.556c0.348-0.366,0.649-0.764,0.964-0.828c0.165-0.034,0.33-0.049,0.494-0.053
		c0.494-0.012,0.977,0.076,1.391,0.053c3.93-0.224,6.805-2.232,8.65-4.647c1.111-1.453,1.988-3.21,2.255-5.384
		c0.137-1.119,0.099-2.446,0.092-3.728C38.086,16.469,37.543,14.522,36.627,12.867z M35.805,23.164
		c-0.209,1.007-0.519,1.91-0.927,2.634c-0.865,1.533-2.265,2.959-4.071,3.874c-1.083,0.548-2.313,0.913-3.66,1.004
		c-0.225,0.015-0.469,0.015-0.719,0.011c-0.25-0.003-0.506-0.011-0.754-0.011c-0.223,0-0.477-0.028-0.727-0.042
		c-0.125-0.007-0.248-0.01-0.366-0.005c-0.118,0.005-0.23,0.019-0.333,0.047c-0.26,0.07-0.645,0.573-0.921,0.874
		c-1.858,2.023-3.656,3.936-5.521,5.936c-0.034,0.036-0.095,0.086-0.158,0.136c-0.042,0.033-0.084,0.067-0.117,0.095
		c0,0-0.128,0.117-0.193,0.106c-0.021-0.003-0.036-0.02-0.036-0.061c0-2.347,0-4.693,0-7.04c-1.104,0.025-2.103-0.101-3.019-0.328
		c-1.833-0.455-3.307-1.348-4.438-2.479c-1.342-1.342-2.289-2.934-2.678-5.055c-0.13-0.707-0.198-1.473-0.198-2.308
		c0-1.784,0.027-3.294,0.425-4.647c0.744-2.526,2.448-4.46,4.654-5.66c1.151-0.626,2.527-1.096,4.098-1.196
		c0.552-0.035,1.087-0.053,1.613-0.06c1.11-0.014,2.185,0.02,3.301,0.042c0.47,0.009,0.945,0.018,1.437,0.018
		c1.063,0,2.157-0.036,3.198-0.026c0.521,0.005,1.027,0.022,1.511,0.062c0.483,0.04,0.941,0.101,1.366,0.195
		c2.899,0.643,5.063,2.313,6.325,4.721c0.18,0.344,0.342,0.703,0.485,1.077c0.297,0.775,0.55,1.626,0.645,2.53
		c0.08,0.765,0.117,1.538,0.109,2.298C36.126,21.046,36.015,22.157,35.805,23.164z"/>
	<path fill="#ABC1CE" d="M31.696,19.391L31.696,19.391c0.072,0,0.141,0.015,0.204,0.042C31.837,19.405,31.769,19.391,31.696,19.391z
		"/>
	<path fill="#ABC1CE" d="M11.245,19.391c-0.072,0-0.141,0.015-0.204,0.042C11.104,19.405,11.173,19.391,11.245,19.391L11.245,19.391
		z"/>
	<path fill="#ABC1CE" d="M11.245,20.44L11.245,20.44c-0.072,0-0.141-0.015-0.204-0.041C11.104,20.426,11.173,20.44,11.245,20.44z"/>
	<path fill="#ABC1CE" d="M31.696,20.44c0.072,0,0.141-0.015,0.204-0.041C31.837,20.426,31.768,20.44,31.696,20.44L31.696,20.44z"/>
	<path fill="#ABC1CE" d="M31.9,19.432c-0.063-0.027-0.132-0.042-0.205-0.042h-20.45c-0.072,0-0.142,0.015-0.204,0.042
		c-0.188,0.08-0.321,0.266-0.321,0.484s0.132,0.404,0.321,0.483c0.063,0.026,0.132,0.041,0.204,0.041h20.45
		c0.072,0,0.142-0.015,0.205-0.041c0.188-0.08,0.32-0.266,0.32-0.483S32.088,19.512,31.9,19.432z"/>
	<path fill="#ABC1CE" d="M14.245,15.184c-0.072,0-0.141,0.015-0.204,0.042C14.104,15.198,14.173,15.184,14.245,15.184L14.245,15.184
		z"/>
	<path fill="#ABC1CE" d="M14.245,16.233L14.245,16.233c-0.072,0-0.141-0.015-0.204-0.042C14.104,16.219,14.173,16.233,14.245,16.233
		z"/>
	<path fill="#ABC1CE" d="M28.696,16.233c0.072,0,0.141-0.015,0.204-0.042C28.837,16.219,28.768,16.233,28.696,16.233L28.696,16.233z
		"/>
	<path fill="#ABC1CE" d="M28.696,15.184L28.696,15.184c0.072,0,0.141,0.015,0.204,0.042C28.837,15.198,28.769,15.184,28.696,15.184z
		"/>
	<path fill="#ABC1CE" d="M14.042,16.192c0.063,0.027,0.132,0.042,0.204,0.042h14.45c0.072,0,0.142-0.015,0.205-0.042
		c0.188-0.08,0.32-0.266,0.32-0.483c0-0.218-0.132-0.404-0.32-0.484c-0.063-0.027-0.132-0.042-0.205-0.042h-14.45
		c-0.072,0-0.142,0.015-0.204,0.042c-0.188,0.08-0.321,0.266-0.321,0.484C13.721,15.926,13.853,16.112,14.042,16.192z"/>
	<path fill="#ABC1CE" d="M28.696,24.515c0.072,0,0.141-0.015,0.204-0.042C28.837,24.5,28.768,24.515,28.696,24.515L28.696,24.515z"
		/>
	<path fill="#ABC1CE" d="M14.245,23.465c-0.072,0-0.141,0.015-0.204,0.042C14.104,23.479,14.173,23.465,14.245,23.465L14.245,23.465
		z"/>
	<path fill="#ABC1CE" d="M28.696,23.465L28.696,23.465c0.072,0,0.141,0.015,0.204,0.042C28.837,23.479,28.769,23.465,28.696,23.465z
		"/>
	<path fill="#ABC1CE" d="M14.245,24.515L14.245,24.515c-0.072,0-0.141-0.015-0.204-0.042C14.104,24.5,14.173,24.515,14.245,24.515z"
		/>
	<path fill="#ABC1CE" d="M28.9,23.506c-0.063-0.027-0.132-0.042-0.205-0.042h-14.45c-0.072,0-0.142,0.015-0.204,0.042
		c-0.188,0.08-0.321,0.266-0.321,0.484c0,0.217,0.132,0.403,0.321,0.483c0.063,0.027,0.132,0.042,0.204,0.042h14.45
		c0.072,0,0.142-0.015,0.205-0.042c0.188-0.08,0.32-0.266,0.32-0.483C29.221,23.772,29.088,23.586,28.9,23.506z"/>
</g>
<path fill="#00008B" d="M334.075,27.014c-1.563,0-2.947,0.703-3.901,1.794l-11.78-5.939c0.068-0.335,0.104-0.682,0.104-1.036
	c0-0.368-0.04-0.727-0.114-1.073l11.766-5.932c0.954,1.107,2.35,1.823,3.926,1.823c2.873,0,5.202-2.33,5.202-5.203
	c0-2.872-2.329-5.202-5.202-5.202s-5.203,2.33-5.203,5.202c0,0.346,0.037,0.684,0.103,1.011l-11.794,5.946
	c-0.953-1.079-2.332-1.774-3.885-1.774c-2.873,0-5.203,2.33-5.203,5.202c0,2.873,2.33,5.203,5.203,5.203
	c1.567,0,2.956-0.708,3.91-1.805l11.772,5.936c-0.069,0.34-0.106,0.69-0.106,1.05c0,2.873,2.33,5.203,5.203,5.203
	s5.202-2.33,5.202-5.203C339.277,29.344,336.948,27.014,334.075,27.014z"/>
</svg>
