<?xml version="1.0" encoding="utf-8"?>
<!-- Generator: Adobe Illustrator 15.1.0, SVG Export Plug-In . SVG Version: 6.00 Build 0)  -->
<!DOCTYPE svg PUBLIC "-//W3C//DTD SVG 1.1//EN" "http://www.w3.org/Graphics/SVG/1.1/DTD/svg11.dtd">
<svg version="1.1" id="圖層_1" xmlns="http://www.w3.org/2000/svg" xmlns:xlink="http://www.w3.org/1999/xlink" x="0px" y="0px"
	 width="47.055px" height="33.732px" viewBox="0 0 47.055 33.732" enable-background="new 0 0 47.055 33.732" xml:space="preserve">
<g>
	<g>
		<g>
			<circle fill="#FFFFFF" stroke="#FFFFFF" stroke-width="5" stroke-miterlimit="10" cx="15.079" cy="18.563" r="12.53"/>
		</g>
		<g>
			<path fill="#FFFFFF" stroke="#FFFFFF" stroke-width="5" stroke-miterlimit="10" d="M44.066,25.397l-5.439-5.438
				c1.37-1.813,2.193-4.061,2.193-6.503c0-5.964-4.852-10.815-10.816-10.815c-3.292,0-6.241,1.483-8.226,3.812
				c0.886,0.491,1.705,1.083,2.458,1.749c1.43-1.568,3.482-2.561,5.768-2.561c4.311,0,7.816,3.506,7.816,7.815
				s-3.506,7.816-7.816,7.816c-0.455,0-0.898-0.047-1.333-0.122c-0.19,1.007-0.485,1.976-0.882,2.893
				c0.716,0.149,1.456,0.229,2.215,0.229c2.441,0,4.689-0.823,6.502-2.192l5.439,5.438c0.293,0.293,0.676,0.439,1.061,0.439
				c0.383,0,0.768-0.146,1.061-0.439C44.652,26.933,44.652,25.983,44.066,25.397z"/>
		</g>
	</g>
	<g>
		<circle fill="#FBB03B" cx="15.079" cy="18.563" r="12.53"/>
		<g>
			<path fill="#FFFFFF" d="M10.07,15.157c0.119-1.376,0.637-2.469,1.551-3.277c0.915-0.809,2.074-1.213,3.479-1.213
				c1.49,0,2.694,0.397,3.612,1.191c0.918,0.795,1.376,1.806,1.376,3.035c0,0.691-0.157,1.334-0.471,1.927
				c-0.314,0.594-0.905,1.25-1.774,1.97c-0.868,0.721-1.401,1.294-1.599,1.722s-0.296,1.139-0.296,2.134h-1.864
				c0-1.313,0.151-2.275,0.455-2.886c0.304-0.611,0.863-1.262,1.679-1.954c0.815-0.691,1.322-1.224,1.52-1.594
				s0.296-0.765,0.296-1.181c0-0.813-0.268-1.481-0.805-2.008c-0.536-0.526-1.239-0.788-2.107-0.788
				c-1.694,0-2.689,0.975-2.986,2.922H10.07z M16.17,26.458h-2.171v-2.172h2.171V26.458z"/>
		</g>
	</g>
	<g>
		<path fill="#4AA9FF" d="M44.066,25.397l-5.439-5.438c1.37-1.813,2.193-4.061,2.193-6.503c0-5.964-4.852-10.815-10.816-10.815
			c-2.855,0-5.451,1.119-7.385,2.935c0.894,0.52,1.726,1.129,2.491,1.816c1.34-1.088,3.037-1.751,4.895-1.751
			c4.311,0,7.816,3.506,7.816,7.815s-3.506,7.816-7.816,7.816c-0.051,0-0.1-0.006-0.15-0.008c-0.187,1.025-0.473,2.015-0.855,2.955
			c0.332,0.031,0.666,0.053,1.006,0.053c2.441,0,4.689-0.823,6.502-2.192l5.439,5.438c0.293,0.293,0.676,0.439,1.061,0.439
			c0.383,0,0.768-0.146,1.061-0.439C44.652,26.933,44.652,25.983,44.066,25.397z"/>
	</g>
</g>
</svg>
