<?xml version="1.0" encoding="utf-8"?>
<!-- Generator: Adobe Illustrator 15.1.0, SVG Export Plug-In . SVG Version: 6.00 Build 0)  -->
<!DOCTYPE svg PUBLIC "-//W3C//DTD SVG 1.1//EN" "http://www.w3.org/Graphics/SVG/1.1/DTD/svg11.dtd">
<svg version="1.1" id="圖層_1" xmlns="http://www.w3.org/2000/svg" xmlns:xlink="http://www.w3.org/1999/xlink" x="0px" y="0px"
	 width="51px" height="34.168px" viewBox="0 0 51 34.168" enable-background="new 0 0 51 34.168" xml:space="preserve">
<g>
	<g>
		<path fill="none" stroke="#FFFFFF" stroke-width="5" stroke-linejoin="round" stroke-miterlimit="10" d="M48.268,16.556
			c0-6.907-5.651-12.507-12.623-12.507c-3.446,0-6.567,1.372-8.846,3.592C24.376,4.529,20.471,2.5,16.052,2.5
			C8.695,2.5,2.732,8.1,2.732,15.006c0,4.803,2.884,8.97,7.111,11.065l-0.349,4.308l3.133-3.285c1.094,0.272,2.24,0.419,3.424,0.419
			c3.659,0,6.972-1.387,9.379-3.63c2.294,3.133,6.009,5.179,10.214,5.179c1.178,0,2.319-0.163,3.4-0.462l4.86,3.068l-1.185-4.756
			C46.067,24.662,48.268,20.863,48.268,16.556z"/>
	</g>
	<g>
		<path fill="#4AA9FF" d="M48.268,16.556c0-6.907-5.651-12.507-12.623-12.507c-6.971,0-12.623,5.6-12.623,12.507
			c0,6.906,5.652,12.506,12.623,12.506c1.178,0,2.319-0.163,3.4-0.462l4.86,3.068l-1.185-4.756
			C46.067,24.662,48.268,20.863,48.268,16.556z"/>
		<path fill="#FBB03B" d="M16.052,2.5C8.695,2.5,2.732,8.1,2.732,15.006c0,4.803,2.884,8.97,7.111,11.065l-0.349,4.308l3.133-3.285
			c1.094,0.272,2.24,0.419,3.424,0.419c7.356,0,13.319-5.599,13.319-12.507C29.371,8.1,23.408,2.5,16.052,2.5z"/>
		<g>
			<g>
				<path fill="#FFFFFF" d="M17.67,20.361l3.086,2.942h-2.48l-2.45-2.692c-1.734-0.041-3.074-0.607-4.02-1.702
					c-0.945-1.094-1.418-2.496-1.418-4.205c0-1.85,0.498-3.343,1.493-4.477c0.996-1.134,2.419-1.701,4.27-1.701
					c1.693,0,3.026,0.543,3.996,1.629c0.971,1.086,1.456,2.515,1.456,4.284c0,1.513-0.318,2.793-0.956,3.842
					C20.008,19.331,19.017,20.023,17.67,20.361z M16.06,10.107c-1.19,0-2.117,0.411-2.783,1.232
					c-0.665,0.822-0.998,1.903-0.998,3.244c0,1.352,0.324,2.43,0.972,3.237s1.549,1.21,2.703,1.21c1.181,0,2.102-0.396,2.765-1.187
					s0.994-1.868,0.994-3.229c0-1.412-0.309-2.516-0.926-3.312C18.168,10.505,17.26,10.107,16.06,10.107z"/>
			</g>
		</g>
		<g>
			<g>
				<path fill="#FFFFFF" d="M41.113,22.281h-1.997l-1.097-3.048h-4.688l-1.043,3.048h-1.997l4.417-11.714h2.019L41.113,22.281z
					 M37.514,17.729l-1.634-4.621c-0.061-0.167-0.121-0.461-0.182-0.885h-0.053c-0.046,0.348-0.108,0.638-0.189,0.87l-1.626,4.636
					H37.514z"/>
			</g>
		</g>
	</g>
</g>
</svg>
