<?xml version="1.0" encoding="utf-8"?>
<!-- Generator: Adobe Illustrator 15.1.0, SVG Export Plug-In . SVG Version: 6.00 Build 0)  -->
<!DOCTYPE svg PUBLIC "-//W3C//DTD SVG 1.1//EN" "http://www.w3.org/Graphics/SVG/1.1/DTD/svg11.dtd">
<svg version="1.1" id="圖層_1" xmlns="http://www.w3.org/2000/svg" xmlns:xlink="http://www.w3.org/1999/xlink" x="0px" y="0px"
	 width="705px" height="705px" viewBox="0 0 705 705" enable-background="new 0 0 705 705" xml:space="preserve">
<g>
	<path fill="#FFFFFF" d="M577.016,436.016c8.009-32.484,9.17-71.814,15.186-106.292c-31.099-5.056-71.581-0.729-106.292-2.169
		c4.092-42.859-9.396-83.673,10.846-106.292c19.961-22.307,58.497-9.258,99.785-13.016c0-31.093,0-62.186,0-93.277
		c-55.463-11.643-119.755-9.642-156.185,10.846c-60.381,33.958-68.83,103.671-62.908,201.738c-30.369,0-60.738,0-91.108,0
		c-5.056,31.821-0.727,73.026-2.169,108.462c31.092,0,62.184,0,93.277,0c0,89.661,0,179.323,0,268.984h108.461
		c0-89.662,0-179.324,0-268.984C516.277,436.016,546.646,436.016,577.016,436.016z"/>
	<path fill="#3F61A7" d="M0,0v705h377.447c0-89.661,0-179.323,0-268.984c-31.093,0-62.185,0-93.277,0
		c1.442-35.436-2.887-76.641,2.169-108.462c30.37,0,60.739,0,91.108,0c-5.922-98.067,2.527-167.78,62.908-201.738
		c36.43-20.487,100.722-22.488,156.185-10.846c0,31.092,0,62.185,0,93.277c-41.288,3.758-79.824-9.291-99.785,13.016
		c-20.241,22.619-6.754,63.433-10.846,106.292c34.711,1.44,75.193-2.887,106.292,2.169c-6.016,34.478-7.177,73.808-15.186,106.292
		c-30.369,0-60.738,0-91.107,0c0,89.66,0,179.322,0,268.984H705V0H0z"/>
</g>
</svg>
