<?xml version="1.0" encoding="utf-8"?>
<!-- Generator: Adobe Illustrator 15.1.0, SVG Export Plug-In . SVG Version: 6.00 Build 0)  -->
<!DOCTYPE svg PUBLIC "-//W3C//DTD SVG 1.1//EN" "http://www.w3.org/Graphics/SVG/1.1/DTD/svg11.dtd">
<svg version="1.1" id="圖層_1" xmlns="http://www.w3.org/2000/svg" xmlns:xlink="http://www.w3.org/1999/xlink" x="0px" y="0px"
	 width="800px" height="800px" viewBox="0 0 800 800" enable-background="new 0 0 800 800" xml:space="preserve">
<rect x="5" y="-562" fill="#4AA9FF" width="790" height="329"/>
<g>
	<g>
		<text transform="matrix(1 0 0 1 67.0259 -336.7324)" fill="#FFFFFF" font-family="'GenJyuuGothicX-Medium'" font-size="157.549">索取</text>
	</g>
	<g>
		<text transform="matrix(1 0 0 1 399.6675 -332.6934)" fill="#FFFFFF" font-family="'GenJyuuGothicX-Medium'" font-size="83.3263">免費課程</text>
	</g>
</g>
<rect fill="#4AA9FF" width="800" height="800"/>
<g>
	<g>
		<path fill="#FFFFFF" d="M242.967,356.399c-0.903-0.751-1.958-1.128-3.16-1.128l-58.465,2.031c-1.506,0-2.257,0.755-2.257,2.257
			v43.115c0,3.009-1.055,5.565-3.16,7.675c-2.109,2.105-4.627,3.16-7.562,3.16s-5.457-1.055-7.562-3.16
			c-2.109-2.109-3.16-4.666-3.16-7.675v-42.438c0-0.6-0.226-1.129-0.677-1.58c-0.452-0.451-0.98-0.6-1.58-0.451
			c-23.025,0.754-48.081,1.432-75.169,2.031h-0.226c-2.561,0-4.818-0.903-6.772-2.709c-2.257-2.105-3.386-4.663-3.386-7.675
			c0-2.405,0.825-4.515,2.483-6.32c1.806-1.954,4.063-2.935,6.772-2.935c15.198,0,28.517-0.074,39.955-0.226
			c1.503,0,2.935-0.374,4.289-1.129l9.481-5.644c0.451-0.3,0.677-0.712,0.677-1.241c0-0.525-0.226-1.016-0.677-1.468
			c-9.029-6.771-19.413-13.544-31.151-20.315c-1.958-1.051-3.047-2.67-3.273-4.854c-0.226-2.18,0.487-4.024,2.145-5.53
			c2.105-1.806,4.515-2.857,7.223-3.16c0.6-0.148,1.203-0.226,1.806-0.226c2.105,0,4.137,0.451,6.095,1.354
			c0.6,0.451,1.203,0.755,1.806,0.902c0.751,0.452,1.429,0.452,2.032,0c7.975-6.469,15.949-13.691,23.928-21.67
			c0.148-0.3,0.148-0.639,0-1.016c-0.152-0.374-0.377-0.564-0.677-0.564H93.306c-1.506,0-2.257,0.755-2.257,2.257v14.222
			c0,2.86-0.98,5.27-2.935,7.224c-1.958,1.957-4.366,2.934-7.223,2.934c-2.861,0-5.27-0.977-7.224-2.934
			c-1.958-1.954-2.935-4.363-2.935-7.224v-15.124c0-5.418,1.919-10.046,5.756-13.883c3.837-3.838,8.465-5.756,13.882-5.756h65.011
			c1.502,0,2.257-0.752,2.257-2.258v-13.995c0-1.503-0.755-2.258-2.257-2.258H81.342c-2.561,0-4.779-0.938-6.659-2.821
			c-1.883-1.88-2.821-4.138-2.821-6.772c0-2.631,0.938-4.853,2.821-6.658c1.88-1.807,4.099-2.709,6.659-2.709h74.266
			c1.354,0,2.032-0.678,2.032-2.032v-6.546c0-3.009,1.016-5.53,3.047-7.563c2.031-2.031,4.515-3.047,7.449-3.047
			s5.453,1.016,7.562,3.047c2.105,2.032,3.16,4.554,3.16,7.563v6.546c0,1.354,0.677,2.032,2.032,2.032h75.169
			c2.557,0,4.775,0.902,6.659,2.709c1.88,1.806,2.822,4.027,2.822,6.658c0,2.635-0.942,4.893-2.822,6.772
			c-1.883,1.884-4.102,2.821-6.659,2.821h-74.943c-1.506,0-2.257,0.755-2.257,2.258v13.995c0,1.506,0.751,2.258,2.257,2.258h67.268
			c5.418,0,10.045,1.918,13.883,5.756c3.837,3.837,5.756,8.465,5.756,13.883v14.672c0,3.013-1.016,5.531-3.047,7.563
			c-2.031,2.031-4.515,3.047-7.449,3.047c-2.934,0-5.456-1.016-7.562-3.047c-2.109-2.031-3.16-4.55-3.16-7.563v-13.77
			c0-1.502-0.755-2.257-2.257-2.257h-81.264c-0.151,0-0.226,0.038-0.226,0.112c0,0.078,0.074,0.113,0.226,0.113
			c1.502,0.755,2.406,1.996,2.709,3.725c0.3,1.731-0.226,3.199-1.58,4.401c-9.481,8.578-18.888,16.253-28.217,23.025
			c-0.451,0.303-0.677,0.716-0.677,1.241c0,0.529,0.226,0.941,0.677,1.241c5.566,3.612,10.306,6.85,14.221,9.707
			c1.203,0.902,2.405,0.98,3.612,0.226c14.144-9.78,26.485-19.036,37.02-27.766c2.557-2.105,5.492-3.386,8.804-3.837
			c0.6,0,1.203,0,1.806,0c2.709,0,5.266,0.603,7.675,1.806c2.557,1.354,3.838,3.538,3.838,6.546c0,2.258-0.981,4.142-2.935,5.644
			c-17.459,13.093-35.666,25.434-54.627,37.021c-0.303,0.151-0.416,0.377-0.338,0.677c0.074,0.304,0.261,0.452,0.564,0.452
			c6.469,0,16.704-0.113,30.7-0.339s24.605-0.413,31.828-0.564c0.452,0,0.713-0.148,0.79-0.451c0.074-0.3-0.039-0.6-0.338-0.903
			c-4.063-3.009-8.278-5.943-12.641-8.804c-1.806-1.202-2.786-2.896-2.935-5.079c-0.151-2.18,0.677-3.95,2.483-5.305
			c2.105-1.806,4.515-2.782,7.223-2.935c0.3,0,0.6,0,0.903,0c2.406,0,4.663,0.678,6.772,2.032
			c16.401,10.535,30.171,20.467,41.309,29.796c1.954,1.658,2.935,3.764,2.935,6.321c0,2.561-0.98,4.74-2.935,6.546
			c-2.109,1.658-4.44,2.483-6.998,2.483c-0.152,0-0.303,0-0.452,0c-2.86-0.148-5.343-1.129-7.449-2.935
			C245.676,358.809,244.321,357.606,242.967,356.399z M110.236,369.943c3.911-3.16,7.975-4.74,12.189-4.74
			c2.105,0,4.211,0.451,6.32,1.354c2.406,0.755,3.873,2.409,4.402,4.966c0.525,2.562-0.19,4.667-2.145,6.321
			c-11.738,10.235-25.208,19.561-40.406,27.99c-2.257,1.203-4.592,1.806-6.998,1.806c-0.755,0-1.506-0.077-2.257-0.226
			c-3.312-0.603-6.246-2.031-8.803-4.289c-1.806-1.657-2.522-3.725-2.145-6.207c0.374-2.483,1.615-4.25,3.725-5.305
			C88.414,384.994,100.452,377.771,110.236,369.943z M205.947,378.07c-2.109-1.203-3.16-3.009-3.16-5.418
			c0-2.105,0.903-3.686,2.708-4.74c3.009-2.105,6.017-3.16,9.029-3.16c2.709,0,5.417,0.755,8.126,2.257
			c15.046,8.127,28.217,16.253,39.503,24.38c2.105,1.506,3.16,3.537,3.16,6.095c0,2.856-1.129,5.04-3.386,6.546
			c-2.409,1.654-4.966,2.483-7.675,2.483c-0.303,0-0.603,0-0.903,0c-3.16-0.152-6.021-1.207-8.578-3.16
			C234.237,395.226,221.296,386.8,205.947,378.07z"/>
		<path fill="#FFFFFF" d="M483.146,231.569c2.258-0.451,4.438-0.373,6.546,0.227l3.838,0.902c1.954,0.604,3.499,1.731,4.628,3.386
			c1.128,1.658,1.615,3.538,1.467,5.644c-5.418,43.792-16.556,80.213-33.408,109.255c-0.755,1.354-0.678,2.635,0.226,3.837
			c9.78,13.396,20.915,24.306,33.408,32.731c2.405,1.506,3.838,3.689,4.289,6.546c0,0.452,0,0.903,0,1.354
			c0,2.258-0.755,4.289-2.257,6.095c-2.109,2.558-4.741,4.212-7.901,4.967c-0.755,0.147-1.58,0.226-2.482,0.226
			c-2.109,0-4.142-0.678-6.095-2.032c-12.19-8.43-23.025-18.658-32.506-30.699c-0.903-1.203-1.806-1.276-2.709-0.226
			c-7.675,9.632-16.63,18.284-26.862,25.959c-3.312,2.258-6.771,3.386-10.384,3.386c-1.206,0-2.482-0.077-3.837-0.226
			c-4.966-1.055-9.407-3.537-13.318-7.449l-0.226-0.226c-0.304-0.3-0.642-0.374-1.016-0.226c-0.378,0.148-0.564,0.451-0.564,0.903
			v6.546c0,2.856-1.016,5.305-3.048,7.336c-2.031,2.032-4.479,3.048-7.336,3.048c-2.86,0-5.305-1.016-7.336-3.048
			c-2.032-2.031-3.047-4.479-3.047-7.336v-26.862c0-0.6-0.226-1.09-0.677-1.467c-0.452-0.374-0.98-0.564-1.58-0.564
			c-20.468,3.463-42.064,6.997-64.785,10.609c-0.603,0.151-1.28,0.226-2.032,0.226c-2.257,0-4.289-0.678-6.095-2.031
			c-2.561-1.807-4.141-4.212-4.74-7.224c0-0.6,0-1.203,0-1.806c0-2.258,0.677-4.289,2.031-6.095
			c1.654-2.406,3.986-3.761,6.998-4.063c3.612-0.6,6.469-0.978,8.578-1.129c1.502-0.148,2.257-0.977,2.257-2.483V236.536
			c0-1.203-0.603-1.807-1.806-1.807h-5.192c-2.709,0-5.044-0.938-6.998-2.821c-1.958-1.88-2.935-4.211-2.935-6.998
			c0-2.782,0.977-5.152,2.935-7.11c1.954-1.954,4.289-2.935,6.998-2.935h88.487c4.063,0,7.562,1.468,10.497,4.402
			s4.401,6.433,4.401,10.496c0,1.206,0.6,1.806,1.806,1.806h71.106C482.769,231.569,482.994,231.569,483.146,231.569z
			 M373.214,236.987c0-1.503-0.755-2.258-2.257-2.258h-34.989c-1.506,0-2.257,0.755-2.257,2.258v22.348
			c0,1.506,0.751,2.257,2.257,2.257h34.989c1.502,0,2.257-0.751,2.257-2.257V236.987z M335.968,280.779
			c-1.506,0-2.257,0.755-2.257,2.258v23.701c0,1.507,0.751,2.258,2.257,2.258h34.989c1.502,0,2.257-0.751,2.257-2.258v-23.701
			c0-1.503-0.755-2.258-2.257-2.258H335.968z M333.711,356.625c0,0.604,0.226,1.094,0.677,1.468c0.452,0.377,0.977,0.564,1.58,0.564
			l34.989-4.966c1.502-0.148,2.257-0.978,2.257-2.483v-20.542c0-1.502-0.755-2.257-2.257-2.257h-34.989
			c-1.506,0-2.257,0.755-2.257,2.257V356.625z M396.239,234.729c-1.506,0-2.257,0.755-2.257,2.258v153.498
			c0,0.451,0.226,0.829,0.677,1.129c0.452,0.303,0.903,0.303,1.354,0c15.649-8.578,29.493-20.993,41.535-37.246
			c0.902-1.203,0.977-2.483,0.226-3.838c-12.189-22.27-22.048-49.809-29.571-82.617c-0.151-0.903-0.226-1.729-0.226-2.483
			c0-1.954,0.6-3.76,1.806-5.418c1.654-2.557,3.912-4.063,6.772-4.515c0.751-0.147,1.429-0.226,2.031-0.226
			c2.105,0,4.063,0.604,5.869,1.806c2.405,1.507,3.911,3.689,4.515,6.547c5.266,24.981,12.563,46.878,21.896,65.688
			c0.147,0.452,0.486,0.678,1.016,0.678c0.525,0,0.864-0.148,1.016-0.452c10.983-21.519,18.81-46.423,23.477-74.717
			c0.147-0.6,0.035-1.129-0.339-1.58c-0.378-0.452-0.868-0.678-1.468-0.678h-55.078c-4.367,0-8.127-1.541-11.287-4.627
			c-3.16-3.083-4.74-6.885-4.74-11.399c0-1.203-0.604-1.807-1.806-1.807H396.239z"/>
	</g>
</g>
<g>
	<g>
		<path fill="#FFFFFF" d="M183.482,588.717h23.52c2.94,0,4.9-1.033,5.88-3.104c0.98-2.066,1.687-6.696,2.123-13.883
			c0-1.414,0.625-2.476,1.878-3.186c1.25-0.706,2.585-0.734,4.001-0.081c1.741,0.653,3.104,1.743,4.083,3.267
			c0.87,1.307,1.307,2.723,1.307,4.246c0,8.713-1.689,15.19-5.063,19.438c-2.506,3.267-6.916,4.899-13.23,4.899h-25.807
			c-7.733,0-12.903-1.171-15.517-3.512c-2.613-2.343-3.92-6.888-3.92-13.638v-39.2c0-1.087-0.546-1.634-1.633-1.634h-23.684
			c-1.089,0-1.743,0.547-1.96,1.634c-1.089,7.296-2.587,13.585-4.492,18.865c-1.906,5.282-4.629,10.317-8.167,15.108
			c-3.54,4.792-8.249,8.957-14.128,12.494s-13.066,6.56-21.56,9.065c-0.653,0.217-1.307,0.326-1.96,0.326
			c-1.09,0-2.123-0.219-3.103-0.653c-1.743-0.763-3.16-1.96-4.247-3.593c-0.546-0.763-0.816-1.58-0.816-2.45
			c0-0.437,0.107-0.927,0.327-1.47c0.434-1.417,1.36-2.287,2.777-2.613c7.513-2.067,13.883-4.546,19.11-7.432
			c5.227-2.884,9.392-6.289,12.495-10.209c3.103-3.92,5.443-8.003,7.023-12.25c1.577-4.246,2.802-9.31,3.675-15.189
			c0-0.434-0.138-0.816-0.408-1.144c-0.273-0.326-0.628-0.49-1.062-0.49h-14.863c-3.92,0-7.268-1.388-10.045-4.165
			c-2.777-2.776-4.165-6.125-4.165-10.045v-26.786c0-0.217-0.11-0.381-0.327-0.49c-0.219-0.107-0.437-0.107-0.653,0
			c-0.763,0.653-1.58,1.307-2.45,1.96c-1.526,0.979-3.159,1.335-4.9,1.062c-1.743-0.271-3.213-1.115-4.41-2.531
			c-1.09-1.088-1.58-2.422-1.47-4.002c0.107-1.577,0.816-2.802,2.124-3.675c15.896-10.78,28.8-23.9,38.71-39.363
			c1.087-1.851,2.613-3.211,4.573-4.084c1.307-0.543,2.613-0.816,3.92-0.816c0.653,0,1.307,0.057,1.96,0.163
			c1.633,0.327,2.802,1.254,3.512,2.777c0.707,1.525,0.572,2.996-0.408,4.41c-0.546,0.979-1.307,2.123-2.287,3.43
			c-0.11,0.22-0.11,0.464,0,0.734c0.107,0.273,0.327,0.409,0.653,0.409h39.69c0.107,0,0.217-0.054,0.327-0.164
			c1.087-0.326,2.123-0.163,3.103,0.49l2.777,1.797c1.197,0.763,1.96,1.853,2.287,3.267c0.327,1.416,0.164,2.776-0.49,4.083
			c-3.486,5.554-7.787,11.49-12.903,17.804c-0.22,0.22-0.245,0.49-0.082,0.816c0.164,0.327,0.409,0.49,0.735,0.49h33.32
			c3.92,0,7.269,1.389,10.045,4.165c2.777,2.776,4.165,6.125,4.165,10.045v24.01c0,3.92-1.388,7.269-4.165,10.045
			c-2.776,2.777-6.125,4.165-10.045,4.165h-22.213c-1.09,0-1.633,0.547-1.633,1.634v39.2c0,2.396,0.49,3.92,1.47,4.573
			S179.997,588.717,183.482,588.717z M105.899,501.007c-1.09,0-1.633,0.546-1.633,1.634v27.113c0,1.09,0.543,1.633,1.633,1.633
			h36.75c1.087,0,1.633-0.543,1.633-1.633v-27.113c0-1.088-0.546-1.634-1.633-1.634H105.899z M162.249,473.24
			c0.107-0.326,0.082-0.653-0.082-0.979c-0.163-0.327-0.408-0.49-0.735-0.49h-38.71c-1.09,0-2.016,0.437-2.777,1.307
			c-4.573,5.663-9.419,10.89-14.537,15.68c-0.219,0.22-0.273,0.465-0.163,0.735c0.107,0.272,0.271,0.408,0.49,0.408h42.467
			c1.087,0,1.96-0.434,2.613-1.307C154.953,483.804,158.763,478.687,162.249,473.24z M198.836,531.387
			c1.087,0,1.633-0.543,1.633-1.633v-27.113c0-1.088-0.546-1.634-1.633-1.634h-40.997c-1.09,0-1.633,0.546-1.633,1.634v27.113
			c0,1.09,0.543,1.633,1.633,1.633H198.836z"/>
		<path fill="#FFFFFF" d="M279.196,576.467c-3.92,0-7.268-1.388-10.045-4.165c-2.776-2.776-4.165-6.125-4.165-10.045v-37.076
			c0-0.327-0.138-0.626-0.408-0.898c-0.273-0.271-0.628-0.353-1.062-0.245c-2.613,0.653-5.227,1.307-7.84,1.96
			c-1.526,0.326-3.049,0.138-4.573-0.571c-1.526-0.707-2.669-1.769-3.43-3.186c-0.437-0.653-0.653-1.36-0.653-2.123
			c0-0.434,0.107-0.924,0.327-1.47c0.434-1.197,1.25-1.904,2.45-2.124c16.44-3.483,27.984-8.273,34.627-14.373
			c0.217-0.107,0.271-0.327,0.163-0.653c-0.11-0.327-0.327-0.49-0.653-0.49h-20.743c-0.22,0-0.327,0.11-0.327,0.327
			c-0.546,1.307-1.526,1.906-2.94,1.796l-3.594-0.163c-1.416-0.107-2.478-0.761-3.185-1.96c-0.709-1.196-0.845-2.45-0.409-3.757
			c0.98-2.394,2.014-5.116,3.104-8.166c1.414-3.92,3.838-7.131,7.268-9.637c3.43-2.504,7.269-3.757,11.515-3.757h17.477
			c1.087,0,1.633-0.544,1.633-1.634v-6.37c0-1.087-0.546-1.633-1.633-1.633h-35.117c-1.199,0-2.179-0.38-2.94-1.144
			c-0.763-0.761-1.143-1.715-1.143-2.858s0.38-2.123,1.143-2.939c0.761-0.817,1.741-1.226,2.94-1.226h35.77
			c0.653,0,0.98-0.326,0.98-0.979v-2.45c0-1.634,0.544-2.993,1.634-4.083c1.087-1.088,2.422-1.634,4.001-1.634
			c1.577,0,2.912,0.546,4.001,1.634c1.087,1.09,1.633,2.449,1.633,4.083v2.45c0,0.653,0.327,0.979,0.98,0.979h23.847
			c0.654,0,0.98-0.326,0.98-0.979v-2.287c0-1.633,0.571-3.021,1.715-4.165c1.143-1.144,2.532-1.715,4.165-1.715
			s3.021,0.571,4.165,1.715c1.143,1.144,1.715,2.532,1.715,4.165v2.287c0,0.653,0.271,0.979,0.817,0.979h23.193
			c3.594,0,6.669,1.281,9.229,3.839c2.557,2.56,3.838,5.609,3.838,9.146c0,3.54-1.281,6.59-3.838,9.146
			c-2.56,2.56-5.635,3.839-9.229,3.839h-22.376c-1.09,0-1.633,0.546-1.633,1.633v5.717c0,1.09,0.543,1.634,1.633,1.634h31.85
			c3.92,0,7.187,1.416,9.8,4.246c1.96,2.18,2.94,4.63,2.94,7.351c0,0.872-0.11,1.742-0.327,2.613
			c-0.763,3.593-1.853,6.099-3.267,7.513c-1.853,1.853-4.573,2.887-8.167,3.104h-2.287c-1.09,0-1.633,0.546-1.633,1.634v42.956
			c0,3.92-1.389,7.269-4.165,10.045c-2.777,2.777-6.125,4.165-10.045,4.165H279.196z M287.526,580.714
			c1.96-0.87,3.864-1.307,5.717-1.307c1.85,0,3.701,0.437,5.553,1.307c1.087,0.437,1.659,1.307,1.715,2.613
			c0.053,1.307-0.465,2.18-1.552,2.613c-11.217,5.334-24.5,10.07-39.854,14.21c-0.98,0.326-1.96,0.49-2.94,0.49
			c-2.833,0-5.39-1.2-7.677-3.594c-0.653-0.763-0.98-1.579-0.98-2.45c0-0.326,0.054-0.653,0.164-0.979
			c0.327-1.307,1.143-2.07,2.45-2.287C265.04,588.283,277.506,584.743,287.526,580.714z M270.866,483.857
			c-1.09,0-1.797,0.489-2.124,1.47l-2.124,6.043c-0.109,0.327-0.056,0.653,0.164,0.98c0.217,0.326,0.543,0.49,0.98,0.49h21.723
			c1.197,0,1.96-0.49,2.287-1.471c0.761-1.85,1.25-3.81,1.47-5.88c0-0.434-0.138-0.816-0.408-1.144
			c-0.273-0.326-0.682-0.489-1.225-0.489H270.866z M359.066,532.367c1.087,0,1.633-0.544,1.633-1.634v-7.187
			c0-1.087-0.546-1.633-1.633-1.633h-80.36c-1.09,0-1.633,0.546-1.633,1.633v7.187c0,1.09,0.543,1.634,1.633,1.634H359.066z
			 M359.066,550.334c1.087,0,1.633-0.544,1.633-1.634v-7.023c0-1.087-0.546-1.633-1.633-1.633h-80.36
			c-1.09,0-1.633,0.546-1.633,1.633v7.023c0,1.09,0.543,1.634,1.633,1.634H359.066z M359.066,568.464
			c1.087,0,1.633-0.544,1.633-1.634v-7.023c0-1.087-0.546-1.633-1.633-1.633h-80.36c-1.09,0-1.633,0.546-1.633,1.633v7.023
			c0,1.09,0.543,1.634,1.633,1.634H359.066z M377.522,502.641c0.107-0.435,0.026-0.817-0.245-1.144
			c-0.273-0.327-0.628-0.49-1.062-0.49h-32.503c-0.763,0-1.144,0.437-1.144,1.307v5.391c0,1.633-0.572,3.021-1.715,4.165
			c-1.144,1.143-2.532,1.715-4.165,1.715s-3.022-0.572-4.165-1.715c-1.144-1.144-1.715-2.532-1.715-4.165v-5.391
			c0-0.87-0.437-1.307-1.307-1.307h-27.767c-0.98,0-1.796,0.49-2.45,1.47c-2.506,4.03-5.937,7.57-10.29,10.617
			c-0.22,0.109-0.301,0.273-0.245,0.49c0.054,0.219,0.245,0.326,0.572,0.326h72.03c0.327,0,0.434-0.163,0.327-0.49
			c-0.327-0.979-0.163-1.903,0.49-2.776c0.653-0.87,1.47-1.307,2.45-1.307c3.267,0.22,5.607,0.327,7.023,0.327
			c1.087,0,1.904-0.107,2.45-0.327c1.087-0.217,1.85-0.87,2.287-1.96C376.813,506.29,377.196,504.71,377.522,502.641z
			 M329.176,492.841c1.087,0,1.634-0.544,1.634-1.634v-5.717c0-1.087-0.546-1.633-1.634-1.633h-22.703
			c-1.09,0-1.689,0.546-1.797,1.633c-0.109,1.853-0.383,3.813-0.816,5.88c-0.11,0.327-0.028,0.653,0.245,0.98
			c0.271,0.326,0.625,0.49,1.062,0.49H329.176z M306.636,466.054c-1.09,0-1.634,0.546-1.634,1.633v6.37
			c0,1.09,0.544,1.634,1.634,1.634h22.54c1.087,0,1.634-0.544,1.634-1.634v-6.37c0-1.087-0.546-1.633-1.634-1.633H306.636z
			 M337.016,586.431c-1.307-0.435-1.96-1.36-1.96-2.777c0-0.87,0.434-1.577,1.307-2.123c2.177-1.414,4.517-2.123,7.023-2.123
			c1.197,0,2.394,0.163,3.593,0.49c12.74,3.593,25.48,7.732,38.22,12.413c1.414,0.543,2.124,1.577,2.124,3.104
			c0,1.196-0.6,2.123-1.797,2.776c-2.287,1.087-4.629,1.633-7.023,1.633c-2.07,0-4.193-0.436-6.37-1.307
			C362.44,594.704,350.736,590.677,337.016,586.431z M368.376,467.687c0-1.087-0.546-1.633-1.633-1.633h-22.54
			c-1.09,0-1.633,0.546-1.633,1.633v6.37c0,1.09,0.543,1.634,1.633,1.634h22.54c1.087,0,1.633-0.544,1.633-1.634V467.687z"/>
		<path fill="#FFFFFF" d="M462.292,476.344c1.414,0,2.613,0.49,3.594,1.47c0.979,0.98,1.47,2.18,1.47,3.594
			c0,1.416-0.49,2.613-1.47,3.593c-0.98,0.98-2.18,1.471-3.594,1.471h-48.673c-1.417,0-2.613-0.49-3.594-1.471
			c-0.979-0.979-1.47-2.177-1.47-3.593c0-1.414,0.49-2.613,1.47-3.594c0.98-0.979,2.177-1.47,3.594-1.47H462.292z M449.063,543.474
			c3.92,0,7.269,1.363,10.045,4.083c2.776,2.724,4.165,6.1,4.165,10.127v19.764c0,3.92-1.389,7.269-4.165,10.045
			s-6.125,4.165-10.045,4.165h-22.05c-0.437,0-0.653,0.271-0.653,0.816v1.634c0,1.523-0.519,2.802-1.552,3.838
			c-1.036,1.033-2.287,1.552-3.757,1.552s-2.724-0.519-3.757-1.552c-1.036-1.036-1.552-2.314-1.552-3.838v-36.424
			c0-4.027,1.389-7.403,4.165-10.127c2.776-2.72,6.125-4.083,10.045-4.083H449.063z M458.209,498.884c1.307,0,2.45,0.49,3.43,1.47
			c0.98,0.98,1.471,2.151,1.471,3.512c0,1.363-0.49,2.532-1.471,3.512c-0.979,0.98-2.123,1.47-3.43,1.47h-37.403
			c-1.307,0-2.45-0.489-3.43-1.47c-0.98-0.979-1.471-2.148-1.471-3.512c0-1.36,0.49-2.531,1.471-3.512
			c0.979-0.979,2.123-1.47,3.43-1.47H458.209z M420.969,531.061c-1.416,0-2.613-0.49-3.593-1.47c-0.98-0.98-1.471-2.178-1.471-3.594
			c0-1.414,0.49-2.613,1.471-3.594c0.979-0.979,2.177-1.47,3.593-1.47h37.077c1.413,0,2.613,0.49,3.593,1.47
			c0.98,0.98,1.471,2.18,1.471,3.594c0,1.416-0.49,2.613-1.471,3.594c-0.979,0.979-2.18,1.47-3.593,1.47H420.969z M457.556,454.457
			c1.414,0,2.613,0.49,3.593,1.47c0.98,0.98,1.471,2.151,1.471,3.512c0,1.363-0.49,2.532-1.471,3.512
			c-0.979,0.98-2.179,1.47-3.593,1.47h-35.771c-1.416,0-2.613-0.489-3.593-1.47c-0.98-0.979-1.47-2.148-1.47-3.512
			c0-1.36,0.489-2.531,1.47-3.512c0.979-0.979,2.177-1.47,3.593-1.47H457.556z M452.492,555.233c0-1.087-0.546-1.633-1.633-1.633
			h-22.867c-1.09,0-1.633,0.546-1.633,1.633v24.827c0,1.09,0.543,1.633,1.633,1.633h22.867c1.087,0,1.633-0.543,1.633-1.633V555.233
			z M557.679,535.797c1.088,1.09,1.634,2.425,1.634,4.002c0,1.58-0.546,2.914-1.634,4.002c-1.09,1.089-2.45,1.633-4.083,1.633
			h-25.153c-0.327,0-0.571,0.163-0.735,0.49c-0.163,0.326-0.191,0.6-0.081,0.816c3.92,6.207,8.574,12.225,13.965,18.049
			c5.39,5.826,10.861,10.808,16.415,14.944c1.414,0.98,2.123,2.396,2.123,4.247c0,1.416-0.49,2.613-1.47,3.593
			c-1.2,1.308-2.642,2.096-4.328,2.369c-1.689,0.271-3.186-0.138-4.492-1.226c-10.453-8.927-19.927-20.09-28.42-33.483
			c-0.109-0.106-0.273-0.135-0.49-0.081c-0.22,0.056-0.326,0.191-0.326,0.408v39.526c0,1.634-0.6,3.047-1.797,4.247
			c-1.199,1.196-2.613,1.797-4.247,1.797c-1.633,0-3.05-0.601-4.246-1.797c-1.199-1.2-1.797-2.613-1.797-4.247V556.54
			c0-0.217-0.109-0.352-0.327-0.408c-0.219-0.054-0.383,0.028-0.489,0.245c-8.713,14.267-18.73,25.536-30.054,33.811
			c-1.416,1.087-2.996,1.47-4.736,1.143c-1.743-0.326-3.16-1.143-4.247-2.449c-0.873-0.98-1.307-2.124-1.307-3.431
			c0-1.85,0.761-3.267,2.287-4.246c6.097-4.138,11.977-9.229,17.64-15.272c5.66-6.043,10.507-12.438,14.537-19.191
			c0.217-0.217,0.244-0.49,0.081-0.816c-0.163-0.327-0.408-0.49-0.734-0.49h-25.971c-1.525,0-2.833-0.544-3.92-1.633
			c-1.09-1.088-1.633-2.422-1.633-4.002c0-1.577,0.543-2.912,1.633-4.002c1.087-1.087,2.395-1.633,3.92-1.633h31.687
			c1.088,0,1.634-0.544,1.634-1.634v-10.616c0-1.088-0.546-1.634-1.634-1.634h-16.823c-3.92,0-7.268-1.389-10.045-4.165
			c-2.776-2.776-4.165-6.125-4.165-10.045v-36.26c0-3.92,1.389-7.269,4.165-10.045c2.777-2.777,6.125-4.165,10.045-4.165h49.98
			c3.92,0,7.269,1.388,10.045,4.165c2.776,2.776,4.165,6.125,4.165,10.045v36.26c0,3.92-1.389,7.269-4.165,10.045
			s-6.125,4.165-10.045,4.165h-17.804c-1.09,0-1.633,0.546-1.633,1.634v10.616c0,1.09,0.543,1.634,1.633,1.634h31.36
			C555.229,534.164,556.589,534.71,557.679,535.797z M488.589,465.727c-1.09,0-1.633,0.547-1.633,1.634v13.884
			c0,1.089,0.543,1.633,1.633,1.633h18.783c1.087,0,1.634-0.544,1.634-1.633V467.36c0-1.087-0.547-1.634-1.634-1.634H488.589z
			 M488.589,492.841c-1.09,0-1.633,0.546-1.633,1.633v14.047c0,1.09,0.543,1.633,1.633,1.633h18.783
			c1.087,0,1.634-0.543,1.634-1.633v-14.047c0-1.087-0.547-1.633-1.634-1.633H488.589z M541.019,482.877
			c1.088,0,1.634-0.544,1.634-1.633V467.36c0-1.087-0.546-1.634-1.634-1.634h-19.437c-1.09,0-1.633,0.547-1.633,1.634v13.884
			c0,1.089,0.543,1.633,1.633,1.633H541.019z M541.019,510.153c1.088,0,1.634-0.543,1.634-1.633v-14.047
			c0-1.087-0.546-1.633-1.634-1.633h-19.437c-1.09,0-1.633,0.546-1.633,1.633v14.047c0,1.09,0.543,1.633,1.633,1.633H541.019z"/>
		<path fill="#FFFFFF" d="M635.263,535.634c1.307,1.307,1.985,2.858,2.042,4.655c0.054,1.796-0.465,3.404-1.552,4.818
			c-0.873,1.199-2.07,1.771-3.594,1.715c-1.525-0.054-2.723-0.679-3.593-1.879c-3.05-4.573-6.644-9.363-10.78-14.373
			c-0.109-0.217-0.301-0.271-0.571-0.163c-0.273,0.109-0.408,0.326-0.408,0.653v63.863c0,1.633-0.601,3.047-1.797,4.246
			c-1.2,1.197-2.613,1.797-4.247,1.797c-1.633,0-3.05-0.6-4.246-1.797c-1.2-1.199-1.797-2.613-1.797-4.246V528.61
			c0-0.107-0.082-0.188-0.245-0.245c-0.163-0.054-0.302-0.025-0.408,0.082c-6.207,15.136-12.74,27.55-19.601,37.24
			c-0.872,1.199-2.041,1.715-3.512,1.551c-1.47-0.163-2.531-0.897-3.185-2.204c-0.98-1.741-1.47-3.374-1.47-4.9
			c0-1.96,0.707-3.864,2.123-5.717c4.464-5.88,8.846-12.929,13.148-21.151c4.3-8.221,7.976-16.415,11.024-24.582
			c0.107-0.434,0.054-0.816-0.163-1.144c-0.22-0.326-0.546-0.489-0.979-0.489h-18.13c-1.634,0-3.022-0.572-4.165-1.716
			c-1.144-1.143-1.716-2.503-1.716-4.083c0-1.577,0.572-2.94,1.716-4.083c1.143-1.144,2.531-1.715,4.165-1.715h19.763
			c1.087,0,1.634-0.544,1.634-1.634v-22.213c0-0.435-0.164-0.789-0.49-1.063c-0.327-0.271-0.71-0.352-1.144-0.244
			c-4.793,0.979-10.673,2.016-17.64,3.103c-1.417,0.22-2.751-0.081-4.002-0.898c-1.253-0.816-2.151-1.932-2.695-3.348
			c-0.546-1.197-0.518-2.368,0.082-3.512c0.598-1.144,1.552-1.822,2.858-2.042c17.421-3.047,31.304-6.424,41.65-10.127
			c1.413-0.543,2.72-0.816,3.92-0.816c2.394,0,4.517,1.036,6.37,3.104c1.087,1.09,1.47,2.396,1.143,3.92
			c-0.326,1.526-1.253,2.56-2.776,3.104c-4.247,1.416-8.767,2.723-13.557,3.92c-1.09,0.326-1.633,1.036-1.633,2.123v24.99
			c0,1.09,0.543,1.634,1.633,1.634h13.394c1.633,0,3.021,0.571,4.165,1.715c1.144,1.143,1.715,2.506,1.715,4.083
			c0,1.58-0.571,2.94-1.715,4.083c-1.144,1.144-2.532,1.716-4.165,1.716h-13.394c-1.09,0-1.633,0.546-1.633,1.633v7.023
			c0,1.09,0.38,1.96,1.143,2.613C622.196,522.133,627.967,527.903,635.263,535.634z M688.673,584.144
			c0,1.09,0.544,1.634,1.634,1.634h33.482c1.524,0,2.831,0.546,3.921,1.633c1.087,1.09,1.633,2.395,1.633,3.92
			c0,1.523-0.546,2.83-1.633,3.92c-1.09,1.088-2.396,1.634-3.921,1.634h-85.75c-1.525,0-2.832-0.546-3.92-1.634
			c-1.09-1.09-1.633-2.396-1.633-3.92c0-1.525,0.543-2.83,1.633-3.92c1.088-1.087,2.395-1.633,3.92-1.633h36.587
			c1.087,0,1.634-0.544,1.634-1.634v-18.456c0-1.088-0.547-1.634-1.634-1.634H649.31c-1.526,0-2.805-0.516-3.839-1.552
			c-1.036-1.033-1.551-2.313-1.551-3.838c0-1.524,0.515-2.803,1.551-3.839c1.034-1.033,2.313-1.552,3.839-1.552h25.316
			c1.087,0,1.634-0.543,1.634-1.633v-16.66c0-1.087-0.547-1.634-1.634-1.634h-29.073c-1.526,0-2.833-0.543-3.92-1.633
			c-1.09-1.087-1.634-2.394-1.634-3.92c0-1.523,0.544-2.83,1.634-3.92c1.087-1.088,2.394-1.634,3.92-1.634h74.644
			c1.523,0,2.83,0.546,3.92,1.634c1.087,1.09,1.634,2.396,1.634,3.92c0,1.526-0.547,2.833-1.634,3.92
			c-1.09,1.09-2.396,1.633-3.92,1.633h-29.89c-1.09,0-1.634,0.547-1.634,1.634v16.66c0,1.09,0.544,1.633,1.634,1.633h26.296
			c1.414,0,2.667,0.519,3.757,1.552c1.087,1.036,1.634,2.314,1.634,3.839c0,1.525-0.547,2.805-1.634,3.838
			c-1.09,1.036-2.343,1.552-3.757,1.552h-26.296c-1.09,0-1.634,0.546-1.634,1.634V584.144z M705.823,455.601
			c3.92,0,7.268,1.388,10.045,4.165c2.776,2.776,4.165,6.125,4.165,10.045v23.684c0,3.92-1.389,7.268-4.165,10.045
			c-2.777,2.776-6.125,4.165-10.045,4.165h-45.407c-3.92,0-7.269-1.389-10.045-4.165c-2.776-2.777-4.165-6.125-4.165-10.045v-23.684
			c0-3.92,1.389-7.269,4.165-10.045c2.776-2.777,6.125-4.165,10.045-4.165H705.823z M706.149,497.087
			c1.087,0,1.634-0.544,1.634-1.633v-27.44c0-1.087-0.547-1.634-1.634-1.634h-46.877c-1.09,0-1.633,0.547-1.633,1.634v27.44
			c0,1.089,0.543,1.633,1.633,1.633H706.149z"/>
	</g>
</g>
</svg>
