<?xml version="1.0" encoding="utf-8"?>
<!-- Generator: Adobe Illustrator 16.0.0, SVG Export Plug-In . SVG Version: 6.00 Build 0)  -->
<!DOCTYPE svg PUBLIC "-//W3C//DTD SVG 1.1//EN" "http://www.w3.org/Graphics/SVG/1.1/DTD/svg11.dtd">
<svg version="1.1" xmlns="http://www.w3.org/2000/svg" xmlns:xlink="http://www.w3.org/1999/xlink" x="0px" y="0px"
	 width="26.711px" height="34.888px" viewBox="0 0 26.711 34.888" enable-background="new 0 0 26.711 34.888" xml:space="preserve">
<g id="圖層_1">
</g>
<g id="圖層_3">
	<g>
		<path fill="none" d="M23.467,32.462c0.241-0.179,0.446-0.405,0.587-0.672C23.912,32.056,23.709,32.284,23.467,32.462z"/>
		<path fill="none" d="M23.084,9.829l-0.104-0.104l-1.152-1.152l-3.841-3.841l-1.221-1.221l-0.061-0.061
			c-0.115-0.106-0.257-0.174-0.412-0.216H1.9c-0.552,0-1,0.448-1,1v4.338v0.901v16.197v0.9v5.391v0.9v0.073c0,0.552,0.448,1,1,1
			h20.488c0.552,0,1-0.448,1-1v-0.404v-1.537V10.442c-0.006-0.17-0.066-0.321-0.149-0.458L23.084,9.829z M2.855,5.139H9.08
			c0.257,0,0.465,0.238,0.465,0.531c0,0.294-0.208,0.532-0.465,0.532H2.855c-0.257,0-0.465-0.238-0.465-0.532
			C2.39,5.377,2.598,5.139,2.855,5.139z M2.921,7.604h9.234c0.293,0,0.531,0.238,0.531,0.531s-0.238,0.531-0.531,0.531H2.921
			c-0.293,0-0.531-0.238-0.531-0.531S2.628,7.604,2.921,7.604z M2.95,10.106h12.211c0.309,0,0.56,0.238,0.56,0.532
			s-0.25,0.532-0.56,0.532H2.95c-0.309,0-0.56-0.238-0.56-0.532S2.641,10.106,2.95,10.106z M22.344,32.879h-20.4V15.414h20.4V32.879
			z"/>
		<path fill="#A6A69E" d="M2.855,6.202H9.08c0.257,0,0.465-0.238,0.465-0.532c0-0.293-0.208-0.531-0.465-0.531H2.855
			c-0.257,0-0.465,0.238-0.465,0.531C2.39,5.964,2.598,6.202,2.855,6.202z"/>
		<path fill="#A6A69E" d="M2.921,8.667h9.234c0.293,0,0.531-0.238,0.531-0.531s-0.238-0.531-0.531-0.531H2.921
			c-0.293,0-0.531,0.238-0.531,0.531S2.628,8.667,2.921,8.667z"/>
		<path fill="#A6A69E" d="M2.95,11.17h12.211c0.309,0,0.56-0.238,0.56-0.532s-0.25-0.532-0.56-0.532H2.95
			c-0.309,0-0.56,0.238-0.56,0.532S2.641,11.17,2.95,11.17z"/>
		<path fill="#A6A69E" d="M1.944,32.879h20.4V15.414h-20.4V32.879z M17.473,16.388h3.882v1.605h-3.882V16.388z M17.473,18.945h3.882
			v1.626h-3.882V18.945z M17.473,21.524h3.882v1.627h-3.882V21.524z M17.473,24.103h3.882v1.626h-3.882V24.103z M17.473,26.682
			h3.882v1.627h-3.882V26.682z M12.62,16.388h3.901v1.605H12.62V16.388z M12.62,18.945h3.901v1.626H12.62V18.945z M12.62,21.524
			h3.901v1.627H12.62V21.524z M12.62,24.103h3.901v1.626H12.62V24.103z M12.62,26.682h3.901v1.627H12.62V26.682z M7.767,16.388
			h3.901v1.605H7.767V16.388z M7.767,18.945h3.901v1.626H7.767V18.945z M7.767,21.524h3.901v1.627H7.767V21.524z M7.767,24.103
			h3.901v1.626H7.767V24.103z M7.767,26.682h3.901v1.627H7.767V26.682z M2.933,16.388h3.882v1.605H2.933V16.388z M2.933,18.945
			h3.882v1.626H2.933V18.945z M2.933,21.524h3.882v1.627H2.933V21.524z M2.933,24.103h3.882v1.626H2.933V24.103z M2.933,26.682
			h3.882v1.627H2.933V26.682z M2.933,29.261h18.422v2.667H2.933V29.261z"/>
		<path fill="#A6A69E" d="M26.711,0H2.422v2.277h0.9V0.952h22.488v30.7h-1.522v-0.79V11.033v-0.459c0-0.514-0.2-0.979-0.519-1.333
			l-0.148-0.148l-0.233-0.233l-5.625-5.625l-0.34-0.34l-0.048-0.048c-0.36-0.348-0.848-0.564-1.388-0.564h-0.45h-3.841h-0.901H2
			c-0.698,0-1.311,0.358-1.668,0.9C0.123,3.499,0,3.876,0,4.283v4.291v0.901v16.197v0.9v5.391v0.9v0.025c0,1.104,0.896,2,2,2h20.289
			c1.104,0,2-0.896,2-2v-0.283h2.422V0z M23.388,30.994v1.537v0.404c0,0.552-0.448,1-1,1H1.9c-0.552,0-1-0.448-1-1v-0.073v-0.9
			v-5.391v-0.9V9.474V8.573V4.235c0-0.552,0.448-1,1-1h14.395c0.155,0.042,0.297,0.11,0.412,0.216l0.061,0.061l1.221,1.221
			l3.841,3.841l1.152,1.152l0.104,0.104l0.154,0.155c0.083,0.137,0.143,0.288,0.149,0.458V30.994z M23.467,32.462
			c0.242-0.178,0.445-0.406,0.587-0.672C23.914,32.058,23.708,32.283,23.467,32.462z"/>
	</g>
</g>
</svg>
