<?xml version="1.0" encoding="utf-8"?>
<!-- Generator: Adobe Illustrator 15.1.0, SVG Export Plug-In . SVG Version: 6.00 Build 0)  -->
<!DOCTYPE svg PUBLIC "-//W3C//DTD SVG 1.1//EN" "http://www.w3.org/Graphics/SVG/1.1/DTD/svg11.dtd">
<svg version="1.1" id="圖層_1" xmlns="http://www.w3.org/2000/svg" xmlns:xlink="http://www.w3.org/1999/xlink" x="0px" y="0px"
	 width="33px" height="33px" viewBox="0 0 33 33" enable-background="new 0 0 33 33" xml:space="preserve">
<path fill="#4AA9FF" d="M14,13c0,0.552-0.447,1-1,1H1c-0.553,0-1-0.448-1-1V1c0-0.552,0.447-1,1-1h12c0.553,0,1,0.448,1,1V13z"/>
<path fill="#4AA9FF" d="M33,13c0,0.552-0.447,1-1,1H20c-0.553,0-1-0.448-1-1V1c0-0.552,0.447-1,1-1h12c0.553,0,1,0.448,1,1V13z"/>
<path fill="#4AA9FF" d="M33,32c0,0.552-0.447,1-1,1H20c-0.553,0-1-0.448-1-1V20c0-0.552,0.447-1,1-1h12c0.553,0,1,0.448,1,1V32z"/>
<path fill="#4AA9FF" d="M14,32c0,0.552-0.447,1-1,1H1c-0.553,0-1-0.448-1-1V20c0-0.552,0.447-1,1-1h12c0.553,0,1,0.448,1,1V32z"/>
</svg>
