<?xml version="1.0" encoding="utf-8"?>
<!-- Generator: Adobe Illustrator 15.1.0, SVG Export Plug-In . SVG Version: 6.00 Build 0)  -->
<!DOCTYPE svg PUBLIC "-//W3C//DTD SVG 1.1//EN" "http://www.w3.org/Graphics/SVG/1.1/DTD/svg11.dtd">
<svg version="1.1" id="圖層_1" xmlns="http://www.w3.org/2000/svg" xmlns:xlink="http://www.w3.org/1999/xlink" x="0px" y="0px"
	 width="25px" height="25px" viewBox="0 0 25 25" enable-background="new 0 0 25 25" xml:space="preserve">
<g>
	<path opacity="0.75" fill-rule="evenodd" clip-rule="evenodd" fill="#F29600" d="M12.257,1.714c0.181-0.076,0.995-0.119,1.48-0.082
		c5.009,0.38,9.097,4.581,9.62,9.538c0.135,1.268-0.168,2.404-1.314,1.974c-0.594-0.223-0.475-0.771-0.576-1.727
		c-0.348-3.27-2.236-5.474-4.358-6.743c-0.987-0.59-2.108-1.021-3.289-1.15c-0.853-0.095-1.811,0-2.056-0.576
		C11.545,2.436,11.771,1.92,12.257,1.714z"/>
	<path fill-rule="evenodd" clip-rule="evenodd" fill="#F29600" d="M7.158,11.828c1.34,2.636,3.361,4.588,5.922,6.003
		c0.268-0.371,0.278-1.034,0.739-1.233c0.4-0.173,1.317,0.032,2.056,0.164c1.458,0.261,2.536,0.5,3.947,0.74
		c0.818,0.14,1.573,0.159,1.809,0.493c0.441,0.627-0.121,2.316-0.41,2.878c-0.6,1.165-2.039,2.313-3.454,2.467
		c-2.354,0.256-4.733-0.721-6.579-1.562c-3.539-1.614-6.335-4.584-8.058-8.059c-0.876-1.766-1.704-4.028-1.48-6.578
		c0.17-1.937,2.221-3.783,4.193-3.947c1.362-0.113,1.42,0.489,1.645,1.809c0.246,1.442,0.398,2.505,0.658,4.029
		C8.377,10.394,8.739,11.645,7.158,11.828z"/>
	<path opacity="0.5" fill-rule="evenodd" clip-rule="evenodd" fill="#F29600" d="M12.339,5.825c0.104-0.038,0.649-0.118,1.069-0.082
		c1.417,0.124,3.127,1.071,3.947,1.892c0.501,0.501,1.051,1.281,1.48,2.549c0.387,1.142,0.947,3.601-0.904,3.042
		c-0.766-0.229-0.578-1.624-0.823-2.384c-0.448-1.393-1.828-2.774-3.289-3.125c-0.382-0.092-2.079,0.026-2.138-0.986
		C11.652,6.24,11.874,5.996,12.339,5.825z"/>
</g>
</svg>
