<?xml version="1.0" encoding="utf-8"?>
<!-- Generator: Adobe Illustrator 15.1.0, SVG Export Plug-In . SVG Version: 6.00 Build 0)  -->
<!DOCTYPE svg PUBLIC "-//W3C//DTD SVG 1.1//EN" "http://www.w3.org/Graphics/SVG/1.1/DTD/svg11.dtd">
<svg version="1.1" id="圖層_1" xmlns="http://www.w3.org/2000/svg" xmlns:xlink="http://www.w3.org/1999/xlink" x="0px" y="0px"
	 width="18.5px" height="11.334px" viewBox="0 0 18.5 11.334" enable-background="new 0 0 18.5 11.334" xml:space="preserve">
<g>
	<g>
		<g>
			<path fill="#F29600" d="M8.838,0.748c2.93-0.199,5.374,1.419,7.242,3.05c0.598,0.521,1.521,1.309,1.525,1.842
				c0.004,0.568-0.937,1.294-1.461,1.779c-1.72,1.585-4.148,3.309-7.182,3.178C7.068,10.515,5.526,9.75,4.199,8.88
				c-0.491-0.32-1.15-0.779-1.843-1.396c-0.437-0.391-1.44-1.246-1.462-1.779C0.873,5.166,1.846,4.259,2.293,3.861
				c1.198-1.066,2.365-1.826,3.875-2.479C7.006,1.021,7.804,0.817,8.838,0.748z M9.664,1.446c-0.291-0.02-0.591-0.023-0.891,0
				C5.581,1.695,3.566,3.84,1.657,5.576c0.798,1.04,1.864,1.911,2.987,2.669c1.303,0.88,3.01,1.753,5.146,1.589
				c3.131-0.242,5.2-2.435,7.052-4.131C15.113,3.836,12.828,1.667,9.664,1.446z"/>
			<path fill="#F29600" d="M8.964,2.272c1.386-0.122,2.374,0.522,2.987,1.334c0.188,0.249,0.636,0.984,0.697,1.398
				c0.293,1.931-0.746,3.056-1.523,3.558c-2.55,1.649-5.652-0.754-5.273-3.494c0.122-0.89,0.674-1.659,1.207-2.097
				C7.549,2.568,7.983,2.359,8.964,2.272z M8.964,3.034C5.836,3.23,5.818,8.354,9.281,8.31c1.027-0.015,2.005-0.608,2.414-1.524
				c0.871-1.945-0.756-3.884-2.604-3.75C9.049,3.038,9.006,3.032,8.964,3.034z"/>
		</g>
	</g>
	<circle opacity="0.5" fill="#F29600" enable-background="new    " cx="9.26" cy="5.68" r="1.906"/>
</g>
</svg>
