<?xml version="1.0" encoding="utf-8"?>
<!-- Generator: Adobe Illustrator 15.1.0, SVG Export Plug-In . SVG Version: 6.00 Build 0)  -->
<!DOCTYPE svg PUBLIC "-//W3C//DTD SVG 1.1//EN" "http://www.w3.org/Graphics/SVG/1.1/DTD/svg11.dtd">
<svg version="1.1" id="圖層_1" xmlns="http://www.w3.org/2000/svg" xmlns:xlink="http://www.w3.org/1999/xlink" x="0px" y="0px"
	 width="27.822px" height="20.25px" viewBox="0 0 27.822 20.25" enable-background="new 0 0 27.822 20.25" xml:space="preserve">
<g>
	<g>
		<path fill="#F29600" d="M19.949,1.746c0.112-0.016,0.038-0.046,0.231,0c3.135,0.75,6.312,4.798,5.729,9.586
			c-0.332,2.738-1.897,4.949-3.857,6.313c-0.901,0.629-3.184,1.685-3.272-0.117c-0.049-0.975,1.24-1.24,1.988-1.754
			C24.396,13.284,24.502,7.308,21,4.668c-0.869-0.655-2.16-0.753-2.222-1.753C18.729,2.106,19.39,1.821,19.949,1.746z"/>
		<path fill="#F29600" d="M17.961,5.954c1.584-0.401,3.521,2.022,3.508,4.209c-0.01,1.563-0.926,2.985-1.754,3.624
			c-0.937,0.722-2.662,0.966-2.688-0.469c-0.021-1.108,1.686-1.455,1.988-2.221c0.577-1.466-0.281-2.104-1.054-2.806
			C17.312,7.701,16.437,6.341,17.961,5.954z"/>
	</g>
	<path fill="#F29600" d="M14.234,1.611c-0.223,0-0.43,0.064-0.607,0.172l-0.061,0.038L7.645,5.624H3.012
		c-0.645,0-1.17,0.523-1.17,1.169v6.663c0,0.646,0.525,1.169,1.17,1.169h4.633l5.914,3.798l0.09,0.058
		c0.172,0.101,0.373,0.158,0.586,0.158c0.646,0,1.17-0.522,1.17-1.168V2.78C15.403,2.134,14.881,1.611,14.234,1.611z"/>
</g>
</svg>
