<?xml version="1.0" encoding="utf-8"?>
<!-- Generator: Adobe Illustrator 15.1.0, SVG Export Plug-In . SVG Version: 6.00 Build 0)  -->
<!DOCTYPE svg PUBLIC "-//W3C//DTD SVG 1.1//EN" "http://www.w3.org/Graphics/SVG/1.1/DTD/svg11.dtd">
<svg version="1.1" id="圖層_1" xmlns="http://www.w3.org/2000/svg" xmlns:xlink="http://www.w3.org/1999/xlink" x="0px" y="0px"
	 width="34.958px" height="33px" viewBox="0 0 34.958 33" enable-background="new 0 0 34.958 33" xml:space="preserve">
<path fill="#FFFFFF" d="M5.666,4.668c0,0.553-0.447,1-1,1H1c-0.553,0-1-0.447-1-1V1.001c0-0.552,0.447-1,1-1h3.666
	c0.553,0,1,0.448,1,1V4.668z"/>
<path fill="#FFFFFF" d="M34.958,4.667c0,0.552-0.447,1-1,1H9.791c-0.551,0-1-0.448-1-1V1.001c0-0.552,0.449-1,1-1h24.167
	c0.553,0,1,0.448,1,1V4.667z"/>
<path fill="#FFFFFF" d="M5.666,13.779c0,0.552-0.447,1-1,1H1c-0.553,0-1-0.448-1-1v-3.668c0-0.552,0.447-1,1-1h3.666
	c0.553,0,1,0.448,1,1V13.779z"/>
<path fill="#FFFFFF" d="M34.958,13.777c0,0.553-0.447,1-1,1H9.791c-0.551,0-1-0.447-1-1v-3.666c0-0.552,0.449-1,1-1h24.167
	c0.553,0,1,0.448,1,1V13.777z"/>
<path fill="#FFFFFF" d="M5.666,22.891c0,0.551-0.447,1-1,1H1c-0.553,0-1-0.449-1-1v-3.668c0-0.553,0.447-1,1-1h3.666
	c0.553,0,1,0.447,1,1V22.891z"/>
<path fill="#FFFFFF" d="M34.958,22.889c0,0.553-0.447,1-1,1H9.791c-0.551,0-1-0.447-1-1v-3.666c0-0.553,0.449-1,1-1h24.167
	c0.553,0,1,0.447,1,1V22.889z"/>
<path fill="#FFFFFF" d="M5.666,32c0,0.553-0.447,1-1,1H1c-0.553,0-1-0.447-1-1v-3.666c0-0.553,0.447-1,1-1h3.666
	c0.553,0,1,0.447,1,1V32z"/>
<path fill="#FFFFFF" d="M34.958,32c0,0.553-0.447,1-1,1H9.791c-0.551,0-1-0.447-1-1v-3.666c0-0.553,0.449-1,1-1h24.167
	c0.553,0,1,0.447,1,1V32z"/>
</svg>
