<?xml version="1.0" encoding="utf-8"?>
<!-- Generator: Adobe Illustrator 16.0.0, SVG Export Plug-In . SVG Version: 6.00 Build 0)  -->
<!DOCTYPE svg PUBLIC "-//W3C//DTD SVG 1.1//EN" "http://www.w3.org/Graphics/SVG/1.1/DTD/svg11.dtd">
<svg version="1.1" xmlns="http://www.w3.org/2000/svg" xmlns:xlink="http://www.w3.org/1999/xlink" x="0px" y="0px"
	 width="18.804px" height="26.765px" viewBox="0 0 18.804 26.765" enable-background="new 0 0 18.804 26.765" xml:space="preserve">
<g id="圖層_1">
</g>
<g id="圖層_3">
	<g>
		<path fill-rule="evenodd" clip-rule="evenodd" fill="#9FA0A0" d="M0.051,15.881c0-3.102-0.007-6.203,0.001-9.305
			c0.01-3.816,2.403-6.402,6.221-6.516c3.515-0.104,7.034-0.049,10.552-0.018c1.58,0.015,1.976,0.474,1.978,2.079
			c0.005,4.652,0.005,9.305,0,13.957c-0.002,1.747-0.404,2.146-2.128,2.146c-4.198,0-8.396-0.003-12.595-0.002
			c-0.378,0-0.763-0.017-1.132,0.046c-0.757,0.127-1.26,0.583-1.276,1.365c-0.018,0.783,0.466,1.258,1.22,1.413
			c0.329,0.067,0.678,0.06,1.017,0.06c4.01,0.004,8.02-0.011,12.028,0.013c0.86,0.006,1.504-0.082,1.441-1.183
			c-0.024-0.438,0.195-0.849,0.72-0.848c0.621,0.002,0.696,0.485,0.698,0.962c0.013,3.252,0.258,2.709-2.449,2.732
			c-3.631,0.03-7.263,0.027-10.894-0.007c-0.826-0.009-1.445,0.219-1.981,0.851c-0.685,0.806-1.421,1.569-2.158,2.327
			c-0.306,0.313-0.565,0.933-1.008,0.788c-0.493-0.161-0.24-0.796-0.242-1.217C0.043,22.312,0.052,19.097,0.051,15.881z
			 M8.835,16.38c2.583,0,4.776-0.037,6.967,0.017c0.996,0.024,1.312-0.337,1.302-1.319c-0.043-3.969-0.045-7.938-0.001-11.905
			c0.011-0.98-0.283-1.332-1.288-1.316C12.64,1.906,9.465,1.861,6.291,1.88C3.795,1.895,1.96,3.426,1.837,5.936
			c-0.161,3.28-0.054,6.574-0.065,9.862c-0.002,0.529,0.229,0.747,0.771,0.688C4.767,16.244,7,16.459,8.835,16.38z"/>
		<path fill-rule="evenodd" clip-rule="evenodd" fill="#727171" d="M6.264,10.273c-0.021,0.899-0.614,1.474-1.515,1.466
			c-0.896-0.007-1.599-0.695-1.599-1.567c0-0.832,0.767-1.55,1.634-1.53C5.707,8.662,6.289,9.304,6.264,10.273z"/>
		<path fill-rule="evenodd" clip-rule="evenodd" fill="#3F3B3A" d="M10.989,10.17c-0.021,0.87-0.763,1.612-1.593,1.594
			c-0.836-0.02-1.548-0.785-1.535-1.65c0.013-0.884,0.7-1.492,1.661-1.469C10.396,8.665,11.009,9.304,10.989,10.17z"/>
		<path fill-rule="evenodd" clip-rule="evenodd" fill="#727171" d="M15.702,10.134c0.024,0.902-0.641,1.577-1.551,1.574
			c-0.922-0.003-1.559-0.637-1.561-1.556c-0.003-0.885,0.651-1.498,1.608-1.508C15.034,8.635,15.679,9.274,15.702,10.134z"/>
	</g>
</g>
</svg>
