<?xml version="1.0" encoding="utf-8"?>
<!-- Generator: Adobe Illustrator 15.1.0, SVG Export Plug-In . SVG Version: 6.00 Build 0)  -->
<!DOCTYPE svg PUBLIC "-//W3C//DTD SVG 1.1//EN" "http://www.w3.org/Graphics/SVG/1.1/DTD/svg11.dtd">
<svg version="1.1" id="圖層_1" xmlns="http://www.w3.org/2000/svg" xmlns:xlink="http://www.w3.org/1999/xlink" x="0px" y="0px"
	 width="26.014px" height="25px" viewBox="0 0 26.014 25" enable-background="new 0 0 26.014 25" xml:space="preserve">
<g>
	<path fill="#717071" d="M25.316,9.597c0-0.705,0.08-1.488-0.102-2.052c-0.261-0.811-0.896-1.319-1.438-1.918
		c-0.553-0.608-1.061-1.09-1.661-1.688c-0.55-0.551-1.091-1.067-1.688-1.664c-0.535-0.537-1.236-1.144-2.049-1.332
		c-2.565,0-5.123,0-7.687,0c-1.6,0.239-2.723,1.203-3.113,2.632C7.43,4.098,7.473,4.681,7.473,5.37c0,1.279,0,2.565,0,3.85
		C7.792,8.817,8.14,8.432,8.549,8.092C8.76,7.917,8.99,7.773,9.219,7.627C9.223,7.625,9.226,7.623,9.23,7.621
		c0-0.546,0-1.083,0-1.633c0-0.688-0.082-1.509,0.104-2.049c0.227-0.662,0.778-1.089,1.431-1.183
		c0.469-0.06,1.178-0.024,1.771-0.024c1.135,0,2.227,0,3.479,0c0.459,0,1.457-0.106,1.689,0.054
		c0.506,0.342,0.461,1.362,0.461,2.229c0,0.42,0,0.871,0,1.305c0,0.427-0.064,0.94,0.05,1.229c0.229,0.572,0.848,0.537,1.717,0.537
		c0.418,0,0.877,0,1.279,0c0.848,0,1.877-0.045,2.178,0.41c0.207,0.315,0.127,0.903,0.127,1.485c0,2.672,0,5.223,0,7.936
		c0,1.105,0.112,2.332-0.076,3.1c-0.145,0.607-0.59,1.117-1.277,1.279c-0.388,0.092-0.9,0.053-1.408,0.053c-2.942,0-5.771,0-8.755,0
		c-0.517,0-1.039,0.037-1.408-0.053c-0.652-0.158-1.071-0.629-1.256-1.178c-0.08-0.242-0.105-0.551-0.112-0.883
		c-0.005-0.002-0.009-0.006-0.013-0.008C9.086,20.154,8.961,20.086,8.846,20l-0.132,0.109c0.041,0.469-0.14,0.951-0.529,1.27
		l-0.51,0.43c0.361,1.053,1.172,1.76,2.127,2.102c0.488,0.17,0.976,0.23,1.664,0.23c3.268,0,6.334,0,9.498,0
		c0.666,0,1.248,0.018,1.768-0.129c1.376-0.402,2.397-1.52,2.563-3.123c0.052-0.535,0.021-1.191,0.021-1.818
		C25.316,15.869,25.316,12.822,25.316,9.597z"/>
	<path opacity="0.5" fill="#717071" enable-background="new    " d="M13.717,11.865c-0.894,0.181-0.914,1.434-0.125,1.721
		c0.429,0.154,1.362,0.051,1.97,0.051c0.561,0,1.123,0,1.685,0c-0.046-0.627-0.253-1.242-0.61-1.794c-0.312,0-0.623,0-0.945,0
		C15.076,11.842,14.256,11.76,13.717,11.865z"/>
	<path opacity="0.5" fill="#717071" enable-background="new    " d="M21.554,13.533c0.287-0.141,0.508-0.473,0.486-0.869
		c-0.027-0.375-0.293-0.668-0.564-0.771c-0.187-0.065-0.531-0.058-0.782-0.053c0.166,0.583,0.267,1.185,0.29,1.8
		C21.207,13.627,21.413,13.6,21.554,13.533z"/>
	<path opacity="0.5" fill="#717071" enable-background="new    " d="M16.951,15.4c-0.853,0-1.701,0-2.513,0
		c-0.771,0-1.77-0.088-2.438,0.025c-0.365,0.063-0.736,0.369-0.76,0.803c-0.029,0.404,0.223,0.76,0.512,0.895
		c0.244,0.109,0.697,0.074,1.152,0.074c0.854,0,1.684,0,2.514,0c0.161-0.098,0.318-0.201,0.464-0.322
		C16.374,16.467,16.721,15.953,16.951,15.4z"/>
	<path opacity="0.5" fill="#717071" enable-background="new    " d="M20.228,17.221c0.559,0.012,1.102,0,1.353-0.127
		c0.65-0.32,0.587-1.297-0.021-1.59c-0.18-0.084-0.45-0.1-0.723-0.104c-0.094,0.477-0.216,0.941-0.395,1.383
		C20.381,16.936,20.298,17.074,20.228,17.221z"/>
	<path fill="#717071" d="M13.42,20.705c1.512,0,3.03-0.502,4.29-1.531c2.904-2.373,3.324-6.695,0.929-9.583
		c-1.341-1.617-3.274-2.451-5.229-2.451c-1.53,0-3.073,0.514-4.338,1.57c-2.584,2.152-3.16,5.833-1.513,8.646
		c0.055,0.088,0.031,0.201-0.047,0.268l-0.929,0.773c-0.131-0.143-0.313-0.215-0.493-0.215c-0.155,0-0.306,0.053-0.432,0.156
		l-4.295,3.58c-0.668,0.557-0.761,1.547-0.201,2.213c0.308,0.373,0.758,0.568,1.208,0.568c0.354,0,0.713-0.121,1.007-0.365
		l4.291-3.578c0.276-0.229,0.321-0.635,0.111-0.918l0.926-0.773c0.039-0.033,0.086-0.049,0.133-0.049c0.05,0,0.1,0.018,0.138,0.051
		C10.241,20.148,11.827,20.705,13.42,20.705z M10.436,10.348c0.869-0.725,1.928-1.078,2.979-1.078c1.335,0,2.658,0.57,3.578,1.672
		c1.645,1.971,1.376,4.91-0.598,6.552c-0.865,0.727-1.927,1.078-2.977,1.078c-1.335,0-2.658-0.57-3.578-1.674
		C8.2,14.93,8.464,11.989,10.436,10.348z"/>
</g>
</svg>
