<?xml version="1.0" encoding="utf-8"?>
<!-- Generator: Adobe Illustrator 15.1.0, SVG Export Plug-In . SVG Version: 6.00 Build 0)  -->
<!DOCTYPE svg PUBLIC "-//W3C//DTD SVG 1.1//EN" "http://www.w3.org/Graphics/SVG/1.1/DTD/svg11.dtd">
<svg version="1.1" id="圖層_1" xmlns="http://www.w3.org/2000/svg" xmlns:xlink="http://www.w3.org/1999/xlink" x="0px" y="0px"
	 width="25.959px" height="25px" viewBox="0 0 25.959 25" enable-background="new 0 0 25.959 25" xml:space="preserve">
<g>
	<path fill="#F29600" d="M6.889,4.731c4.756,0,9.892,0,14.905,0c1.094,0,2.118-0.155,2.35,0.641c0.097,0.339-0.06,0.82-0.145,1.245
		c-0.43,2.164-0.74,3.826-1.173,6.047c-0.146,0.745-0.173,1.871-0.677,2.206c-0.31,0.206-1.034,0.226-1.565,0.284
		c-3.849,0.439-7.684,0.925-11.454,1.388c0.006,0.213-0.183,0.373-0.106,0.642c0.186,0.652,2.418,0.229,3.06,0.178
		c2.271-0.182,4.452-0.322,6.758-0.428c0.521-0.023,1.154-0.05,1.779-0.035c0.858,0.02,1.584,0.021,1.601,0.783
		c0.012,0.528-0.371,0.781-0.959,0.782c-2.818,0.003-5.432,0.134-8.146,0.354c-1.86,0.152-4.257,0.652-5.229-0.533
		c-0.633-0.771-0.39-2.109,0.142-2.953C6.814,11.34,5.639,7.31,4.434,3.309c-0.959-0.147-1.725,0.23-2.561-0.071
		c-0.886-0.32-0.76-1.69,0.213-1.85c0.49-0.081,1.075,0,1.814,0c0.805,0,1.431-0.061,1.814,0.213C6.146,1.91,6.227,2.536,6.39,3.096
		C6.556,3.663,6.701,4.19,6.889,4.731z M7.458,6.652c0.274,1.041,0.613,2.019,0.89,3.06c1.268,0,2.537,0,3.806,0
		c0-1.021,0-2.04,0-3.06C10.588,6.652,9.023,6.652,7.458,6.652z M13.078,9.712c1.305,0,2.608,0,3.913,0c0-1.021,0-2.04,0-3.06
		c-1.292,0-2.585,0-3.877,0C13.031,7.602,13.103,8.704,13.078,9.712z M17.952,6.652c-0.083,0.949-0.012,2.052-0.035,3.06
		c1.174,0,2.348,0,3.521,0c0.22-1.003,0.396-2.046,0.604-3.06C20.681,6.652,19.315,6.652,17.952,6.652z M9.806,14.514
		c0.769-0.107,1.558-0.195,2.348-0.283c0-1.197,0-2.396,0-3.593c-1.162,0.023-2.419-0.047-3.521,0.036
		C9.045,11.932,9.383,13.266,9.806,14.514z M13.114,10.637c-0.083,1.079-0.012,2.313-0.036,3.45c1.338-0.12,2.622-0.295,3.913-0.462
		c0-0.996,0-1.992,0-2.988C15.699,10.637,14.406,10.637,13.114,10.637z M17.952,10.637c-0.083,0.89-0.012,1.933-0.035,2.882
		c0.969-0.088,1.861-0.25,2.846-0.32c0.188-0.834,0.35-1.691,0.498-2.562C20.157,10.637,19.056,10.637,17.952,10.637z"/>
	<path fill="#F29600" d="M8.845,19.814c0.989-0.08,1.926,0.603,2.063,1.601c0.126,0.918-0.404,1.719-1.031,2.028
		c-1.314,0.647-2.801-0.332-2.811-1.709C7.059,20.639,7.822,19.896,8.845,19.814z"/>
	<path fill="#F29600" d="M19.767,19.814c0.957-0.066,1.902,0.608,2.027,1.601c0.125,0.994-0.552,2.054-1.564,2.207
		c-1.656,0.25-2.805-1.489-2.027-2.882C18.453,20.287,19.013,19.868,19.767,19.814z"/>
</g>
</svg>
