<?xml version="1.0" encoding="utf-8"?>
<!-- Generator: Adobe Illustrator 15.1.0, SVG Export Plug-In . SVG Version: 6.00 Build 0)  -->
<!DOCTYPE svg PUBLIC "-//W3C//DTD SVG 1.1//EN" "http://www.w3.org/Graphics/SVG/1.1/DTD/svg11.dtd">
<svg version="1.1" id="圖層_1" xmlns="http://www.w3.org/2000/svg" xmlns:xlink="http://www.w3.org/1999/xlink" x="0px" y="0px"
	 width="33px" height="33px" viewBox="0 0 33 33" enable-background="new 0 0 33 33" xml:space="preserve">
<path fill="#FFFFFF" d="M14,13c0,0.552-0.447,1-1,1H1c-0.553,0-1-0.448-1-1V1c0-0.552,0.447-1,1-1h12c0.553,0,1,0.448,1,1V13z"/>
<path fill="#FFFFFF" d="M33,13c0,0.552-0.447,1-1,1H20c-0.553,0-1-0.448-1-1V1c0-0.552,0.447-1,1-1h12c0.553,0,1,0.448,1,1V13z"/>
<path fill="#FFFFFF" d="M33,32c0,0.552-0.447,1-1,1H20c-0.553,0-1-0.448-1-1V20c0-0.552,0.447-1,1-1h12c0.553,0,1,0.448,1,1V32z"/>
<path fill="#FFFFFF" d="M14,32c0,0.552-0.447,1-1,1H1c-0.553,0-1-0.448-1-1V20c0-0.552,0.447-1,1-1h12c0.553,0,1,0.448,1,1V32z"/>
<path fill="#FFFFFF" d="M70.416,4.668c0,0.553-0.447,1-1,1H65.75c-0.553,0-1-0.447-1-1V1.001c0-0.552,0.447-1,1-1h3.666
	c0.553,0,1,0.448,1,1V4.668z"/>
<path fill="#FFFFFF" d="M99.707,4.667c0,0.552-0.447,1-1,1H74.541c-0.551,0-1-0.448-1-1V1.001c0-0.552,0.449-1,1-1h24.166
	c0.553,0,1,0.448,1,1V4.667z"/>
<path fill="#FFFFFF" d="M70.416,13.779c0,0.552-0.447,1-1,1H65.75c-0.553,0-1-0.448-1-1v-3.668c0-0.552,0.447-1,1-1h3.666
	c0.553,0,1,0.448,1,1V13.779z"/>
<path fill="#FFFFFF" d="M99.707,13.777c0,0.553-0.447,1-1,1H74.541c-0.551,0-1-0.447-1-1v-3.666c0-0.552,0.449-1,1-1h24.166
	c0.553,0,1,0.448,1,1V13.777z"/>
<path fill="#FFFFFF" d="M70.416,22.89c0,0.552-0.447,1-1,1H65.75c-0.553,0-1-0.448-1-1v-3.667c0-0.553,0.447-1,1-1h3.666
	c0.553,0,1,0.447,1,1V22.89z"/>
<path fill="#FFFFFF" d="M99.707,22.889c0,0.553-0.447,1-1,1H74.541c-0.551,0-1-0.447-1-1v-3.666c0-0.553,0.449-1,1-1h24.166
	c0.553,0,1,0.447,1,1V22.889z"/>
<path fill="#FFFFFF" d="M70.416,32c0,0.553-0.447,1-1,1H65.75c-0.553,0-1-0.447-1-1v-3.666c0-0.553,0.447-1,1-1h3.666
	c0.553,0,1,0.447,1,1V32z"/>
<path fill="#FFFFFF" d="M99.707,32c0,0.552-0.447,1-1,1H74.541c-0.551,0-1-0.448-1-1v-3.666c0-0.553,0.449-1,1-1h24.166
	c0.553,0,1,0.447,1,1V32z"/>
<g>
	<g>
		<g>
			<path fill-rule="evenodd" clip-rule="evenodd" fill="#717071" d="M394.005,6.081c2.93-0.199,5.374,1.419,7.242,3.05
				c0.598,0.521,1.521,1.309,1.525,1.842c0.004,0.568-0.936,1.295-1.461,1.779c-1.719,1.585-4.148,3.308-7.181,3.178
				c-1.896-0.083-3.438-0.847-4.765-1.717c-0.491-0.321-1.15-0.779-1.843-1.397c-0.437-0.39-1.44-1.246-1.462-1.779
				c-0.021-0.537,0.951-1.444,1.398-1.842c1.198-1.066,2.365-1.826,3.875-2.479C392.173,6.354,392.971,6.15,394.005,6.081z
				 M394.831,6.779c-0.291-0.02-0.591-0.023-0.891,0c-3.192,0.249-5.207,2.394-7.116,4.13c0.798,1.04,1.864,1.911,2.987,2.669
				c1.303,0.88,3.01,1.753,5.146,1.589c3.131-0.242,5.2-2.434,7.052-4.131C400.28,9.169,397.995,7,394.831,6.779z"/>
			<path fill-rule="evenodd" clip-rule="evenodd" fill="#717071" d="M394.131,7.605c1.386-0.122,2.374,0.522,2.987,1.334
				c0.187,0.249,0.636,0.984,0.698,1.398c0.292,1.931-0.746,3.055-1.524,3.558c-2.55,1.649-5.652-0.755-5.273-3.494
				c0.122-0.89,0.674-1.659,1.207-2.097C392.716,7.901,393.15,7.692,394.131,7.605z M394.131,8.367
				c-3.128,0.196-3.146,5.319,0.317,5.274c1.027-0.014,2.005-0.608,2.415-1.524c0.87-1.945-0.757-3.884-2.604-3.75
				C394.216,8.371,394.173,8.365,394.131,8.367z"/>
		</g>
	</g>
	<circle opacity="0.5" fill-rule="evenodd" clip-rule="evenodd" fill="#717071" cx="394.427" cy="11.013" r="1.906"/>
</g>
<g>
	<g>
		<g>
			<path fill-rule="evenodd" clip-rule="evenodd" fill="#717071" d="M209.449,1.746c0.113-0.016,0.039-0.046,0.232,0
				c3.135,0.75,6.311,4.798,5.729,9.586c-0.332,2.739-1.898,4.95-3.857,6.313c-0.902,0.628-3.184,1.684-3.273-0.117
				c-0.049-0.975,1.24-1.241,1.988-1.754c3.627-2.49,3.734-8.466,0.232-11.106c-0.869-0.655-2.16-0.753-2.221-1.753
				C208.23,2.106,208.889,1.821,209.449,1.746z"/>
			<path fill-rule="evenodd" clip-rule="evenodd" fill="#717071" d="M207.461,5.954c1.584-0.401,3.521,2.022,3.508,4.209
				c-0.01,1.564-0.926,2.985-1.754,3.624c-0.936,0.722-2.662,0.966-2.689-0.468c-0.02-1.109,1.686-1.455,1.988-2.221
				c0.578-1.466-0.281-2.104-1.053-2.806C206.811,7.701,205.936,6.341,207.461,5.954z"/>
		</g>
		<path fill="#717071" d="M203.734,1.611c-0.223,0-0.43,0.064-0.607,0.172l-0.061,0.038l-5.922,3.802h-4.633
			c-0.645,0-1.17,0.523-1.17,1.169v6.663c0,0.646,0.525,1.169,1.17,1.169h4.633l5.914,3.798l0.09,0.057
			c0.172,0.101,0.373,0.159,0.586,0.159c0.646,0,1.17-0.523,1.17-1.169V2.78C204.904,2.134,204.381,1.611,203.734,1.611z"/>
	</g>
</g>
<g>
	<g>
		<path fill-rule="evenodd" clip-rule="evenodd" fill="#F29600" d="M209.449,40.675c0.113-0.016,0.039-0.046,0.232,0
			c3.135,0.75,6.311,4.798,5.729,9.586c-0.332,2.739-1.898,4.95-3.857,6.313c-0.902,0.628-3.184,1.684-3.273-0.117
			c-0.049-0.975,1.24-1.241,1.988-1.754c3.627-2.49,3.734-8.466,0.232-11.106c-0.869-0.655-2.16-0.753-2.221-1.753
			C208.23,41.036,208.889,40.751,209.449,40.675z"/>
		<path fill-rule="evenodd" clip-rule="evenodd" fill="#F29600" d="M207.461,44.884c1.584-0.401,3.521,2.022,3.508,4.209
			c-0.01,1.564-0.926,2.985-1.754,3.624c-0.936,0.722-2.662,0.966-2.689-0.468c-0.02-1.109,1.686-1.455,1.988-2.221
			c0.578-1.466-0.281-2.104-1.053-2.806C206.811,46.631,205.936,45.271,207.461,44.884z"/>
	</g>
	<path fill="#F29600" d="M203.734,40.541c-0.223,0-0.43,0.064-0.607,0.172l-0.061,0.038l-5.922,3.802h-4.633
		c-0.645,0-1.17,0.523-1.17,1.169v6.663c0,0.646,0.525,1.169,1.17,1.169h4.633l5.914,3.798l0.09,0.057
		c0.172,0.101,0.373,0.159,0.586,0.159c0.646,0,1.17-0.523,1.17-1.169V41.71C204.904,41.064,204.381,40.541,203.734,40.541z"/>
</g>
<g>
	<path fill-rule="evenodd" clip-rule="evenodd" fill="#717071" d="M346.007,19.485c-0.463-1.287-2.409-2.469-3.747-3.145
		c-0.635-0.32-1.483-0.656-2.407-1.002c-0.974-0.365-1.812-0.709-1.806-1.673c0.005-0.764,1.092-1.635,1.472-2.407
		c1.942-3.96,0.365-9.308-3.545-9.832c-3.849-0.517-5.96,2.152-6.221,5.15c-0.174,1.997,0.25,3.637,0.869,4.814
		c0.414,0.788,1.438,1.609,1.405,2.342c-0.039,0.883-0.913,1.271-1.807,1.605c-0.865,0.324-1.768,0.688-2.407,1.002
		c-1.294,0.637-3.26,1.761-3.746,3.145c-0.192,0.548-0.255,1.67-0.067,2.341c0.111,0.395,0.578,0.949,1.061,1.342
		c0.075,0.048,0.151,0.096,0.231,0.135c0.151,0.053,0.302,0.1,0.454,0.141c0.32,0.053,0.627,0.125,0.943,0.17
		c0.021,0.002,0.043,0.004,0.064,0.005c0.07,0.003,0.139,0.006,0.208,0.012c0.32,0.013,0.64,0.007,0.966,0.002
		c0.02-0.001,0.039,0.001,0.057,0.003c0.055-0.002,0.109-0.002,0.163-0.002h15.638c0.206-0.012,0.409-0.041,0.592-0.116
		c0.32-0.132,0.57-0.37,0.85-0.564c0.01-0.006,0.018-0.011,0.026-0.016c0.389-0.332,0.703-0.689,0.82-1.11
		C346.269,21.131,346.263,20.198,346.007,19.485z"/>
</g>
<g>
	<path fill-rule="evenodd" clip-rule="evenodd" fill="#F29600" d="M346.007,56.04c-0.463-1.287-2.409-2.469-3.747-3.145
		c-0.635-0.32-1.483-0.656-2.407-1.002c-0.974-0.365-1.812-0.709-1.806-1.673c0.005-0.764,1.092-1.635,1.472-2.407
		c1.942-3.96,0.365-9.308-3.545-9.832c-3.849-0.517-5.96,2.152-6.221,5.15c-0.174,1.997,0.25,3.637,0.869,4.814
		c0.414,0.788,1.438,1.609,1.405,2.342c-0.039,0.883-0.913,1.271-1.807,1.605c-0.865,0.324-1.768,0.688-2.407,1.002
		c-1.294,0.637-3.26,1.761-3.746,3.145c-0.192,0.548-0.255,1.67-0.067,2.341c0.111,0.395,0.578,0.949,1.061,1.342
		c0.075,0.048,0.151,0.096,0.231,0.135c0.151,0.053,0.302,0.1,0.454,0.141c0.32,0.053,0.627,0.125,0.943,0.17
		c0.021,0.002,0.043,0.004,0.064,0.005c0.07,0.003,0.139,0.006,0.208,0.012c0.32,0.013,0.64,0.007,0.966,0.002
		c0.02-0.001,0.039,0.001,0.057,0.003c0.055-0.002,0.109-0.002,0.163-0.002h15.638c0.206-0.012,0.409-0.041,0.592-0.116
		c0.32-0.132,0.57-0.37,0.85-0.564c0.01-0.006,0.018-0.011,0.026-0.016c0.389-0.332,0.703-0.689,0.82-1.11
		C346.269,57.686,346.263,56.753,346.007,56.04z"/>
</g>
<g>
	<path fill-rule="evenodd" clip-rule="evenodd" fill="#717071" d="M266.055,4.731c4.756,0,9.892,0,14.905,0
		c1.094,0,2.118-0.155,2.349,0.641c0.097,0.339-0.059,0.82-0.144,1.245c-0.429,2.164-0.74,3.826-1.173,6.047
		c-0.146,0.745-0.173,1.871-0.677,2.206c-0.309,0.206-1.034,0.225-1.565,0.285c-3.849,0.438-7.684,0.924-11.454,1.387
		c0.006,0.213-0.183,0.373-0.106,0.641c0.186,0.653,2.418,0.229,3.06,0.178c2.27-0.181,4.452-0.322,6.758-0.427
		c0.521-0.024,1.154-0.05,1.779-0.035c0.859,0.019,1.584,0.02,1.601,0.782c0.012,0.529-0.371,0.782-0.96,0.783
		c-2.817,0.003-5.431,0.133-8.146,0.354c-1.86,0.152-4.257,0.652-5.229-0.533c-0.633-0.771-0.39-2.109,0.142-2.953
		c-1.212-3.992-2.388-8.022-3.593-12.023c-0.959-0.147-1.725,0.23-2.561-0.071c-0.886-0.32-0.76-1.69,0.213-1.85
		c0.49-0.081,1.075,0,1.814,0c0.805,0,1.431-0.061,1.814,0.213c0.432,0.309,0.513,0.935,0.676,1.495
		C265.722,3.663,265.867,4.19,266.055,4.731z M266.624,6.652c0.274,1.041,0.613,2.019,0.89,3.06c1.268,0,2.537,0,3.806,0
		c0-1.021,0-2.04,0-3.06C269.754,6.652,268.189,6.652,266.624,6.652z M272.244,9.712c1.305,0,2.608,0,3.913,0c0-1.021,0-2.04,0-3.06
		c-1.292,0-2.585,0-3.877,0C272.197,7.602,272.269,8.704,272.244,9.712z M277.118,6.652c-0.083,0.949-0.012,2.052-0.035,3.06
		c1.174,0,2.348,0,3.521,0c0.22-1.003,0.396-2.046,0.604-3.06C279.846,6.652,278.482,6.652,277.118,6.652z M268.972,14.514
		c0.769-0.108,1.558-0.196,2.348-0.283c0-1.198,0-2.396,0-3.594c-1.162,0.023-2.419-0.047-3.521,0.036
		C268.211,11.932,268.549,13.266,268.972,14.514z M272.28,10.637c-0.083,1.079-0.012,2.313-0.036,3.45
		c1.338-0.12,2.622-0.295,3.913-0.462c0-0.996,0-1.992,0-2.988C274.865,10.637,273.572,10.637,272.28,10.637z M277.118,10.637
		c-0.083,0.89-0.012,1.933-0.035,2.882c0.969-0.087,1.861-0.249,2.846-0.32c0.187-0.834,0.349-1.691,0.498-2.562
		C279.323,10.637,278.221,10.637,277.118,10.637z"/>
	<path fill-rule="evenodd" clip-rule="evenodd" fill="#717071" d="M268.011,19.815c0.989-0.081,1.926,0.602,2.063,1.6
		c0.126,0.918-0.404,1.719-1.031,2.028c-1.314,0.648-2.801-0.332-2.811-1.708C266.225,20.638,266.988,19.897,268.011,19.815z"/>
	<path fill-rule="evenodd" clip-rule="evenodd" fill="#717071" d="M278.932,19.815c0.957-0.067,1.903,0.608,2.028,1.6
		c0.125,0.994-0.552,2.054-1.565,2.207c-1.656,0.25-2.804-1.489-2.027-2.882C277.619,20.287,278.179,19.868,278.932,19.815z"/>
</g>
<g>
	<path fill-rule="evenodd" clip-rule="evenodd" fill="#F29600" d="M266.055,41.286c4.756,0,9.892,0,14.905,0
		c1.094,0,2.118-0.155,2.349,0.641c0.097,0.339-0.059,0.82-0.144,1.245c-0.429,2.164-0.74,3.826-1.173,6.047
		c-0.146,0.745-0.173,1.871-0.677,2.206c-0.309,0.206-1.034,0.225-1.565,0.285c-3.849,0.438-7.684,0.924-11.454,1.387
		c0.006,0.213-0.183,0.373-0.106,0.641c0.186,0.653,2.418,0.229,3.06,0.178c2.27-0.181,4.452-0.322,6.758-0.427
		c0.521-0.024,1.154-0.05,1.779-0.035c0.859,0.019,1.584,0.02,1.601,0.782c0.012,0.529-0.371,0.782-0.96,0.783
		c-2.817,0.003-5.431,0.133-8.146,0.354c-1.86,0.152-4.257,0.652-5.229-0.533c-0.633-0.771-0.39-2.109,0.142-2.953
		c-1.212-3.992-2.388-8.022-3.593-12.023c-0.959-0.147-1.725,0.23-2.561-0.071c-0.886-0.32-0.76-1.69,0.213-1.85
		c0.49-0.081,1.075,0,1.814,0c0.805,0,1.431-0.061,1.814,0.213c0.432,0.309,0.513,0.935,0.676,1.495
		C265.722,40.218,265.867,40.745,266.055,41.286z M266.624,43.207c0.274,1.041,0.613,2.019,0.89,3.06c1.268,0,2.537,0,3.806,0
		c0-1.021,0-2.04,0-3.06C269.754,43.207,268.189,43.207,266.624,43.207z M272.244,46.267c1.305,0,2.608,0,3.913,0
		c0-1.021,0-2.04,0-3.06c-1.292,0-2.585,0-3.877,0C272.197,44.156,272.269,45.259,272.244,46.267z M277.118,43.207
		c-0.083,0.949-0.012,2.052-0.035,3.06c1.174,0,2.348,0,3.521,0c0.22-1.003,0.396-2.046,0.604-3.06
		C279.846,43.207,278.482,43.207,277.118,43.207z M268.972,51.068c0.769-0.108,1.558-0.196,2.348-0.283c0-1.198,0-2.396,0-3.594
		c-1.162,0.023-2.419-0.047-3.521,0.036C268.211,48.486,268.549,49.82,268.972,51.068z M272.28,47.191
		c-0.083,1.079-0.012,2.313-0.036,3.45c1.338-0.12,2.622-0.295,3.913-0.462c0-0.996,0-1.992,0-2.988
		C274.865,47.191,273.572,47.191,272.28,47.191z M277.118,47.191c-0.083,0.89-0.012,1.933-0.035,2.882
		c0.969-0.087,1.861-0.249,2.846-0.32c0.187-0.834,0.349-1.691,0.498-2.562C279.323,47.191,278.221,47.191,277.118,47.191z"/>
	<path fill-rule="evenodd" clip-rule="evenodd" fill="#F29600" d="M268.011,56.37c0.989-0.081,1.926,0.602,2.063,1.6
		c0.126,0.918-0.404,1.719-1.031,2.028c-1.314,0.648-2.801-0.332-2.811-1.708C266.225,57.192,266.988,56.452,268.011,56.37z"/>
	<path fill-rule="evenodd" clip-rule="evenodd" fill="#F29600" d="M278.932,56.37c0.957-0.067,1.903,0.608,2.028,1.6
		c0.125,0.994-0.552,2.054-1.565,2.207c-1.656,0.25-2.804-1.489-2.027-2.882C277.619,56.842,278.179,56.423,278.932,56.37z"/>
</g>
<g>
	<path fill-rule="evenodd" clip-rule="evenodd" fill="#717071" d="M145.275,0.9c2.561,0,5.121,0,7.682,0
		c0.813,0.189,1.514,0.796,2.049,1.332c0.598,0.596,1.139,1.113,1.689,1.665c0.598,0.597,1.111,1.079,1.664,1.69
		c0.543,0.597,1.172,1.109,1.434,1.918c0.182,0.561,0.102,1.344,0.102,2.049c0,3.225,0,6.275,0,9.474
		c0,0.627,0.031,1.282-0.023,1.818c-0.166,1.604-1.182,2.721-2.563,3.123c-0.518,0.152-1.1,0.128-1.766,0.128
		c-3.164,0-6.232,0-9.498,0c-0.688,0-1.176-0.054-1.664-0.23c-1.295-0.464-2.33-1.594-2.33-3.354c0-5.004,0-10.125,0-15.182
		c0-0.687-0.043-1.272,0.102-1.794C142.553,2.103,143.676,1.138,145.275,0.9z M143.918,3.897c-0.184,0.538-0.102,1.359-0.102,2.048
		c0,4.411,0,8.704,0,13.058c0,0.743-0.072,1.551,0.102,2.074c0.184,0.549,0.605,1.019,1.256,1.178
		c0.369,0.089,0.891,0.051,1.408,0.051c2.988,0,5.814,0,8.756,0c0.506,0,1.021,0.04,1.408-0.051c0.686-0.163,1.133-0.672,1.281-1.28
		c0.186-0.768,0.076-1.994,0.076-3.099c0-2.714,0-5.264,0-7.936c0-0.583,0.08-1.171-0.127-1.486c-0.301-0.456-1.33-0.41-2.178-0.41
		c-0.402,0-0.861,0-1.279,0c-0.869,0-1.488,0.035-1.717-0.538c-0.115-0.289-0.051-0.802-0.051-1.229c0-0.434,0-0.885,0-1.304
		c0-0.867,0.045-1.886-0.461-2.229c-0.232-0.16-1.23-0.052-1.689-0.052c-1.252,0-2.344,0-3.482,0c-0.59,0-1.299-0.036-1.768,0.025
		C144.695,2.806,144.145,3.234,143.918,3.897z"/>
	<path fill-rule="evenodd" clip-rule="evenodd" fill="#717071" d="M146.301,9.837c0.67-0.111,1.678-0.024,2.432-0.024
		c1.609,0,3.057,0,4.762,0c0.342,0,0.998,0,1.203,0c0.418,0,0.846-0.035,1.102,0.076c0.656,0.28,0.719,1.388-0.025,1.664
		c-0.277,0.103-0.766,0.05-1.203,0.05c-2.496,0-4.826,0-7.373,0c-0.461,0-0.887,0.041-1.129-0.05
		C145.234,11.231,145.393,9.988,146.301,9.837z"/>
	<path fill-rule="evenodd" clip-rule="evenodd" fill="#717071" d="M146.223,13.421c0.539-0.107,1.359-0.025,1.973-0.025
		c1.648,0,3.111,0,4.865,0c0.242,0,0.699-0.028,0.922,0.052c0.268,0.099,0.537,0.392,0.563,0.769c0.025,0.396-0.199,0.73-0.486,0.87
		c-0.408,0.194-1.289,0.102-1.947,0.102c-1.348,0-2.703,0-4.045,0c-0.613,0-1.541,0.104-1.971-0.05
		C145.309,14.854,145.328,13.6,146.223,13.421z"/>
	<path fill-rule="evenodd" clip-rule="evenodd" fill="#717071" d="M146.273,16.98c0.668-0.113,1.668-0.026,2.434-0.026
		c1.934,0,4.061,0,6.016,0c0.375,0,0.838-0.022,1.102,0.102c0.613,0.294,0.672,1.266,0.025,1.589
		c-0.418,0.21-1.648,0.102-2.406,0.102c-2.104,0-4.129,0-6.273,0c-0.455,0-0.908,0.035-1.152-0.076
		c-0.289-0.133-0.541-0.491-0.512-0.896C145.537,17.35,145.906,17.043,146.273,16.98z"/>
</g>
<g>
	<path fill-rule="evenodd" clip-rule="evenodd" fill="#F29600" d="M145.275,37.455c2.561,0,5.121,0,7.682,0
		c0.813,0.189,1.514,0.796,2.049,1.332c0.598,0.596,1.139,1.113,1.689,1.665c0.598,0.597,1.111,1.079,1.664,1.69
		c0.543,0.597,1.172,1.109,1.434,1.918c0.182,0.561,0.102,1.344,0.102,2.049c0,3.225,0,6.275,0,9.474
		c0,0.627,0.031,1.282-0.023,1.818c-0.166,1.604-1.182,2.721-2.563,3.123c-0.518,0.152-1.1,0.128-1.766,0.128
		c-3.164,0-6.232,0-9.498,0c-0.688,0-1.176-0.054-1.664-0.23c-1.295-0.464-2.33-1.594-2.33-3.354c0-5.004,0-10.125,0-15.182
		c0-0.687-0.043-1.272,0.102-1.794C142.553,38.657,143.676,37.692,145.275,37.455z M143.918,40.452
		c-0.184,0.538-0.102,1.359-0.102,2.048c0,4.411,0,8.704,0,13.058c0,0.743-0.072,1.551,0.102,2.074
		c0.184,0.549,0.605,1.019,1.256,1.178c0.369,0.089,0.891,0.051,1.408,0.051c2.988,0,5.814,0,8.756,0
		c0.506,0,1.021,0.04,1.408-0.051c0.686-0.163,1.133-0.672,1.281-1.28c0.186-0.768,0.076-1.994,0.076-3.099c0-2.714,0-5.264,0-7.936
		c0-0.583,0.08-1.171-0.127-1.486c-0.301-0.456-1.33-0.41-2.178-0.41c-0.402,0-0.861,0-1.279,0c-0.869,0-1.488,0.035-1.717-0.538
		c-0.115-0.289-0.051-0.802-0.051-1.229c0-0.434,0-0.885,0-1.304c0-0.867,0.045-1.886-0.461-2.229
		c-0.232-0.16-1.23-0.052-1.689-0.052c-1.252,0-2.344,0-3.482,0c-0.59,0-1.299-0.036-1.768,0.025
		C144.695,39.36,144.145,39.789,143.918,40.452z"/>
	<path fill-rule="evenodd" clip-rule="evenodd" fill="#F29600" d="M146.301,46.392c0.67-0.111,1.678-0.024,2.432-0.024
		c1.609,0,3.057,0,4.762,0c0.342,0,0.998,0,1.203,0c0.418,0,0.846-0.035,1.102,0.076c0.656,0.28,0.719,1.388-0.025,1.664
		c-0.277,0.103-0.766,0.05-1.203,0.05c-2.496,0-4.826,0-7.373,0c-0.461,0-0.887,0.041-1.129-0.05
		C145.234,47.786,145.393,46.543,146.301,46.392z"/>
	<path fill-rule="evenodd" clip-rule="evenodd" fill="#F29600" d="M146.223,49.976c0.539-0.107,1.359-0.025,1.973-0.025
		c1.648,0,3.111,0,4.865,0c0.242,0,0.699-0.028,0.922,0.052c0.268,0.099,0.537,0.392,0.563,0.769c0.025,0.396-0.199,0.73-0.486,0.87
		c-0.408,0.194-1.289,0.102-1.947,0.102c-1.348,0-2.703,0-4.045,0c-0.613,0-1.541,0.104-1.971-0.05
		C145.309,51.408,145.328,50.154,146.223,49.976z"/>
	<path fill-rule="evenodd" clip-rule="evenodd" fill="#F29600" d="M146.273,53.535c0.668-0.113,1.668-0.026,2.434-0.026
		c1.934,0,4.061,0,6.016,0c0.375,0,0.838-0.022,1.102,0.102c0.613,0.294,0.672,1.266,0.025,1.589
		c-0.418,0.21-1.648,0.102-2.406,0.102c-2.104,0-4.129,0-6.273,0c-0.455,0-0.908,0.035-1.152-0.076
		c-0.289-0.133-0.541-0.491-0.512-0.896C145.537,53.904,145.906,53.598,146.273,53.535z"/>
</g>
<text transform="matrix(1 0 0 1 138.001 -19.333)" font-family="'AdobeMingStd-Light-B5pc-H'" font-size="12">all</text>
<text transform="matrix(1 0 0 1 194.501 -18.666)" font-family="'AdobeMingStd-Light-B5pc-H'" font-size="12">try</text>
<text transform="matrix(1 0 0 1 268.834 -18.666)" font-family="'AdobeMingStd-Light-B5pc-H'" font-size="12">buy</text>
<text transform="matrix(1 0 0 1 325.501 -8.8325)" font-family="'AdobeMingStd-Light-B5pc-H'" font-size="12">join</text>
<text transform="matrix(1 0 0 1 380.834 -4.166)" font-family="'AdobeMingStd-Light-B5pc-H'" font-size="12">deadline</text>
<text transform="matrix(1 0 0 1 107.834 13.3657)" font-family="'AdobeMingStd-Light-B5pc-H'" font-size="12">gray</text>
<text transform="matrix(1 0 0 1 96.834 54.4028)" font-family="'AdobeMingStd-Light-B5pc-H'" font-size="12">yellow</text>
</svg>
