<?xml version="1.0" encoding="utf-8"?>
<!-- Generator: Adobe Illustrator 15.1.0, SVG Export Plug-In . SVG Version: 6.00 Build 0)  -->
<!DOCTYPE svg PUBLIC "-//W3C//DTD SVG 1.1//EN" "http://www.w3.org/Graphics/SVG/1.1/DTD/svg11.dtd">
<svg version="1.1" id="圖層_1" xmlns="http://www.w3.org/2000/svg" xmlns:xlink="http://www.w3.org/1999/xlink" x="0px" y="0px"
	 width="25.959px" height="25px" viewBox="0 0 25.959 25" enable-background="new 0 0 25.959 25" xml:space="preserve">
<g>
	<path fill="#717071" d="M23.841,19.484c-0.463-1.287-2.408-2.469-3.747-3.145c-0.635-0.32-1.483-0.656-2.407-1.002
		c-0.974-0.365-1.812-0.709-1.806-1.673c0.005-0.764,1.093-1.635,1.472-2.407c1.942-3.96,0.365-9.308-3.545-9.832
		c-3.849-0.517-5.959,2.152-6.221,5.15c-0.174,1.997,0.25,3.637,0.869,4.814c0.414,0.788,1.438,1.609,1.405,2.342
		c-0.039,0.883-0.913,1.271-1.807,1.604c-0.865,0.324-1.768,0.688-2.407,1.002c-1.294,0.638-3.26,1.761-3.746,3.146
		c-0.192,0.547-0.255,1.67-0.067,2.341c0.111,0.396,0.578,0.948,1.061,1.342c0.075,0.048,0.151,0.097,0.231,0.136
		c0.151,0.053,0.302,0.1,0.454,0.141c0.32,0.053,0.627,0.125,0.943,0.17c0.021,0.002,0.043,0.004,0.064,0.005
		c0.07,0.003,0.139,0.006,0.208,0.012c0.32,0.013,0.64,0.007,0.966,0.002c0.021-0.001,0.039,0.001,0.057,0.003
		c0.055-0.002,0.109-0.002,0.163-0.002h15.638c0.206-0.012,0.409-0.041,0.592-0.115c0.32-0.133,0.57-0.371,0.851-0.564
		c0.01-0.006,0.018-0.012,0.025-0.016c0.389-0.332,0.703-0.689,0.82-1.11C24.103,21.131,24.097,20.197,23.841,19.484z"/>
</g>
</svg>
