<?xml version="1.0" encoding="utf-8"?>
<!-- Generator: Adobe Illustrator 15.1.0, SVG Export Plug-In . SVG Version: 6.00 Build 0)  -->
<!DOCTYPE svg PUBLIC "-//W3C//DTD SVG 1.1//EN" "http://www.w3.org/Graphics/SVG/1.1/DTD/svg11.dtd">
<svg version="1.1" id="圖層_1" xmlns="http://www.w3.org/2000/svg" xmlns:xlink="http://www.w3.org/1999/xlink" x="0px" y="0px"
	 width="20px" height="25px" viewBox="0 0 20 25" enable-background="new 0 0 20 25" xml:space="preserve">
<g>
	<path fill="#717071" d="M4.297,0.9c2.561,0,5.121,0,7.682,0c0.813,0.189,1.515,0.796,2.049,1.332
		c0.599,0.596,1.14,1.113,1.689,1.665c0.598,0.597,1.111,1.079,1.664,1.69c0.543,0.597,1.172,1.109,1.434,1.918
		c0.183,0.561,0.103,1.344,0.103,2.049c0,3.225,0,6.275,0,9.473c0,0.627,0.031,1.283-0.022,1.818
		c-0.166,1.604-1.183,2.721-2.563,3.123c-0.519,0.152-1.101,0.129-1.767,0.129c-3.164,0-6.231,0-9.498,0
		c-0.688,0-1.176-0.055-1.664-0.23c-1.295-0.465-2.33-1.594-2.33-3.354c0-5.005,0-10.125,0-15.183c0-0.687-0.043-1.272,0.102-1.794
		C1.574,2.103,2.697,1.138,4.297,0.9z M2.939,3.897c-0.183,0.539-0.101,1.36-0.101,2.048c0,4.411,0,8.704,0,13.058
		c0,0.743-0.072,1.552,0.102,2.074c0.184,0.549,0.605,1.019,1.256,1.178c0.369,0.089,0.891,0.052,1.408,0.052
		c2.988,0,5.814,0,8.755,0c0.507,0,1.021,0.039,1.408-0.052c0.687-0.163,1.133-0.672,1.281-1.28
		c0.186-0.768,0.076-1.994,0.076-3.099c0-2.714,0-5.264,0-7.936c0-0.583,0.08-1.171-0.127-1.486c-0.301-0.456-1.33-0.41-2.178-0.41
		c-0.402,0-0.861,0-1.279,0c-0.869,0-1.488,0.035-1.717-0.538c-0.115-0.289-0.051-0.802-0.051-1.229c0-0.434,0-0.885,0-1.304
		c0-0.867,0.045-1.886-0.461-2.229c-0.232-0.16-1.23-0.052-1.689-0.052c-1.252,0-2.344,0-3.482,0c-0.59,0-1.299-0.036-1.768,0.025
		C3.717,2.806,3.166,3.234,2.939,3.897z"/>
	<path fill="#717071" d="M5.322,9.837C5.992,9.726,7,9.813,7.754,9.813c1.609,0,3.057,0,4.762,0c0.342,0,0.998,0,1.203,0
		c0.418,0,0.846-0.035,1.102,0.076c0.656,0.28,0.72,1.388-0.024,1.664c-0.276,0.103-0.766,0.05-1.203,0.05c-2.495,0-4.826,0-7.373,0
		c-0.461,0-0.887,0.041-1.129-0.05C4.256,11.231,4.414,9.988,5.322,9.837z"/>
	<path fill="#717071" d="M5.244,13.421c0.539-0.106,1.359-0.024,1.973-0.024c1.648,0,3.111,0,4.865,0
		c0.242,0,0.699-0.028,0.922,0.051c0.268,0.1,0.537,0.393,0.563,0.77c0.025,0.396-0.198,0.73-0.485,0.87
		c-0.408,0.194-1.289,0.103-1.947,0.103c-1.348,0-2.703,0-4.045,0c-0.613,0-1.541,0.104-1.971-0.051
		C4.33,14.854,4.35,13.6,5.244,13.421z"/>
	<path fill="#717071" d="M5.295,16.98c0.668-0.113,1.668-0.026,2.434-0.026c1.934,0,4.061,0,6.016,0
		c0.375,0,0.838-0.022,1.103,0.103c0.612,0.293,0.672,1.266,0.024,1.588c-0.418,0.211-1.647,0.103-2.406,0.103
		c-2.104,0-4.129,0-6.273,0c-0.455,0-0.908,0.034-1.152-0.076C4.752,18.538,4.5,18.18,4.529,17.775
		C4.559,17.35,4.928,17.043,5.295,16.98z"/>
</g>
</svg>
