<?xml version="1.0" encoding="utf-8"?>
<!-- Generator: Adobe Illustrator 15.1.0, SVG Export Plug-In . SVG Version: 6.00 Build 0)  -->
<!DOCTYPE svg PUBLIC "-//W3C//DTD SVG 1.1//EN" "http://www.w3.org/Graphics/SVG/1.1/DTD/svg11.dtd">
<svg version="1.1" id="圖層_1" xmlns="http://www.w3.org/2000/svg" xmlns:xlink="http://www.w3.org/1999/xlink" x="0px" y="0px"
	 width="27.107px" height="34.833px" viewBox="0 0 27.107 34.833" enable-background="new 0 0 27.107 34.833" xml:space="preserve">
<g id="圖層_1_1_">
</g>
<g id="圖層_3">
	<g>
		<path fill="#B6B6B1" d="M3.468,11.358c-0.257,0.002-0.392-0.043-0.393-0.347c-0.001-0.306,0.137-0.348,0.392-0.347
			c1.871,0.007,3.742,0.009,5.613-0.001c0.282-0.001,0.369,0.091,0.37,0.369c0.001,0.286-0.134,0.326-0.369,0.325
			C8.138,11.351,4.396,11.349,3.468,11.358z"/>
		<path fill="#B6B6B1" d="M3.468,9.354C3.211,9.356,3.076,9.311,3.075,9.007C3.074,8.701,3.212,8.659,3.467,8.66
			C5.338,8.667,7.209,8.669,9.08,8.659C9.363,8.658,9.449,8.75,9.45,9.028c0.001,0.286-0.134,0.326-0.369,0.325
			C8.138,9.346,4.396,9.344,3.468,9.354z"/>
		<path fill="#B6B6B1" d="M0.001,1.716c0-1.164,0.543-1.707,1.699-1.707c4.431,0,8.86,0.013,13.292-0.009
			c1.214-0.006,2.184,0.375,3.047,1.263c2.381,2.449,7.834,7.862,8.146,8.151c0.635,0.59,0.923,1.316,0.923,2.177
			c-0.003,7.246,0,14.492-0.002,21.738c0,0.928-0.561,1.498-1.489,1.5c-8.047,0.004-16.094,0.006-24.14,0.004
			c-0.926,0-1.473-0.565-1.473-1.517C0.001,28.028,0,6.961,0.001,1.716z M0.852,17.415c0,5.23,0,10.46,0,15.692
			c0,0.733,0.136,0.87,0.873,0.87c7.89,0,15.777,0,23.667,0c0.73,0,0.867-0.139,0.867-0.876c0-6.131,0.003-20.651-0.019-21.78
			c-0.016-0.787-0.516-1.393-1.28-1.552c-0.957-0.199-1.934-0.072-2.9-0.13c-1.268-0.076-2.543-0.019-3.814-0.019
			c-0.631-0.001-0.749-0.121-0.749-0.749c-0.001-1.958,0.007-3.916-0.01-5.874c-0.006-0.667-0.126-1.305-0.734-1.737
			c-0.495-0.354-1.064-0.39-1.628-0.392c-4.459-0.012-8.918-0.01-13.377-0.012c-0.74,0-0.896,0.156-0.896,0.91
			C0.85,6.982,0.852,17.415,0.852,17.415z M18.36,6.005c-0.005,0-0.01,0-0.016,0c0,0.828,0.001,1.656,0,2.485
			c-0.001,0.184,0.004,0.342,0.259,0.341c1.656-0.007,3.313-0.007,4.97-0.011c0.116,0,0.248-0.02,0.304-0.123
			c0.068-0.131-0.072-0.201-0.147-0.276c-1.653-1.658-3.31-3.313-4.967-4.968c-0.086-0.086-0.166-0.228-0.318-0.157
			c-0.129,0.061-0.081,0.202-0.082,0.309C18.358,4.406,18.36,5.206,18.36,6.005z"/>
		<path fill="#C14923" d="M5.593,10.837c1.002-0.39,1.894-0.991,2.845-1.479c1.689-0.864,3.351-1.788,5.096-2.542
			c0.459-0.198,0.753-0.126,0.907,0.217c0.151,0.333-0.006,0.584-0.467,0.808c-0.549,0.266-1.137,0.454-1.634,0.821
			c-0.484,0.16-0.915,0.424-1.353,0.677c-0.908,0.388-1.773,0.861-2.615,1.376c-0.441,0.186-0.855,0.418-1.248,0.691
			c-0.894,0.418-1.764,0.874-2.56,1.461c-0.363,0.125-0.681,0.329-0.965,0.586c-0.251,0.04-0.426,0.222-0.634,0.341
			C2.66,13.968,2.375,13.95,2.18,13.65c-0.19-0.294-0.122-0.585,0.172-0.782c0.55-0.367,1.091-0.747,1.677-1.059
			c0.208-0.111,0.453-0.181,0.588-0.403C4.982,11.285,5.314,11.107,5.593,10.837z"/>
		<path fill="#C14923" d="M19.953,14.97c0.48-0.416,0.602-0.418,1.114-0.016c0.092,0.249,0.238,0.465,0.396,0.674
			c0.249,0.41,0.503,0.815,0.745,1.229c0.146,0.25,0.232,0.174,0.319-0.036c0.155-0.377,0.313-0.754,0.471-1.131
			c0.12-0.249,0.261-0.488,0.319-0.762c0.272-0.432,0.451-0.907,0.618-1.386c0.122-0.205,0.191-0.425,0.195-0.665
			c0.081-0.092,0.157-0.189,0.245-0.275c0.231-0.228,0.5-0.356,0.803-0.154c0.305,0.203,0.286,0.506,0.163,0.803
			c-0.169,0.407-0.356,0.807-0.536,1.209c-0.567,1.274-1.138,2.548-1.703,3.824c-0.123,0.278-0.233,0.563-0.599,0.588
			c-0.368,0.023-0.516-0.257-0.676-0.508c-0.527-0.829-1.048-1.662-1.571-2.494c-0.068-0.108-0.121-0.228-0.243-0.29
			C19.976,15.378,19.919,15.178,19.953,14.97z"/>
		<path fill="#C14923" d="M20.052,25.731c-0.021-0.081-0.043-0.161-0.063-0.242c-0.077-0.301,0.019-0.542,0.301-0.664
			c0.274-0.119,0.525-0.045,0.705,0.209c0.161,0.229,0.316,0.463,0.476,0.693c0.133,0.241,0.246,0.496,0.445,0.695
			c0.087,0.275,0.263,0.496,0.453,0.744c0.179-0.239,0.286-0.479,0.334-0.746c0.126-0.219,0.269-0.432,0.282-0.695
			c0.315-0.434,0.489-0.934,0.662-1.434c0.083-0.191,0.236-0.357,0.226-0.586c0.244-0.203,0.293-0.513,0.42-0.777
			c0.189-0.398,0.48-0.559,0.805-0.417c0.309,0.133,0.41,0.436,0.233,0.84c-0.767,1.749-1.539,3.495-2.324,5.235
			c-0.232,0.516-0.747,0.529-1.063,0.043c-0.396-0.609-0.778-1.229-1.169-1.842c-0.091-0.144-0.159-0.304-0.306-0.406
			C20.355,26.147,20.24,25.917,20.052,25.731z"/>
		<path fill="#C14923" d="M7.977,4.467C7.622,4.445,7.425,4.303,7.37,4.012C7.316,3.731,7.409,3.491,7.684,3.378
			c0.29-0.119,0.591-0.21,0.892-0.301c0.235-0.071,0.367-0.164,0.261-0.45c-0.099-0.266-0.15-0.55-0.207-0.83
			C8.561,1.46,8.668,1.194,9.021,1.101c0.354-0.093,0.581,0.08,0.687,0.412c0.073,0.23,0.136,0.466,0.173,0.705
			c0.059,0.379,0.266,0.449,0.561,0.271c0.307-0.185,0.644-0.175,0.974-0.215c0.376-0.046,0.622,0.125,0.666,0.496
			c0.041,0.345-0.137,0.57-0.495,0.625c-0.058,0.009-0.113,0.018-0.168,0.034c-0.363,0.109-0.938,0.077-1.03,0.38
			c-0.115,0.376,0.127,0.855,0.361,1.233c0.107,0.173,0.169,0.322,0.096,0.515c-0.083,0.22-0.234,0.362-0.472,0.374
			c-0.284,0.014-0.5-0.123-0.631-0.366C9.542,5.2,9.425,4.8,9.318,4.401c-0.065-0.248-0.162-0.326-0.42-0.224
			C8.581,4.302,8.248,4.384,7.977,4.467z"/>
		<path fill="#B6B6B1" d="M23.871,23.708c0.012,0.228-0.143,0.394-0.226,0.586c-0.234,0.082-0.479,0.056-0.72,0.056
			c-1.896,0-3.792-0.006-5.688,0.006c-0.305,0.002-0.43-0.063-0.426-0.397c0.003-0.334,0.156-0.359,0.422-0.358
			c2.082,0.008,4.163,0.005,6.245,0.008C23.615,23.606,23.769,23.562,23.871,23.708z"/>
		<path fill="#B6B6B1" d="M3.477,30.611c-0.278,0.003-0.463-0.026-0.458-0.383c0.004-0.326,0.161-0.369,0.431-0.368
			c1.985,0.006,3.972,0.008,5.958-0.001c0.273-0.001,0.375,0.074,0.376,0.361c0,0.295-0.084,0.397-0.391,0.393
			C8.393,30.596,4.449,30.602,3.477,30.611z"/>
		<path fill="#B6B6B1" d="M23.626,10.729c0.169,0.001,0.446-0.102,0.435,0.235c-0.009,0.26-0.033,0.472-0.424,0.467
			c-2.195-0.022-4.391-0.014-6.587-0.01c-0.24,0.001-0.406-0.011-0.403-0.332c0.003-0.331,0.173-0.366,0.436-0.364
			C18.194,10.731,22.557,10.719,23.626,10.729z"/>
		<path fill="#B6B6B1" d="M24.131,12.877c-0.003,0.24-0.073,0.459-0.195,0.665c-2.285,0.001-4.568-0.002-6.854,0.008
			c-0.274,0.001-0.378-0.076-0.375-0.363c0.002-0.275,0.117-0.333,0.361-0.333c2.241-0.004,4.482-0.018,6.724-0.025
			C23.906,12.828,24.018,12.86,24.131,12.877z"/>
		<path fill="#B6B6B1" d="M23.803,19.393c0.296-0.005,0.393,0.084,0.395,0.386c0,0.316-0.129,0.375-0.409,0.374
			c-1.87-0.01-3.74-0.009-5.61-0.002c-0.269,0.001-0.414-0.035-0.418-0.363c-0.004-0.345,0.135-0.398,0.434-0.394
			C19.136,19.411,22.876,19.409,23.803,19.393z"/>
		<path fill="#B6B6B1" d="M9.567,24.353c-0.297,0.005-0.397-0.085-0.394-0.388c0.004-0.279,0.089-0.368,0.371-0.366
			c1.729,0.011,3.46,0.011,5.188,0c0.281-0.002,0.37,0.085,0.373,0.364c0.003,0.299-0.09,0.397-0.393,0.392
			C13.841,24.336,10.41,24.336,9.567,24.353z"/>
		<path fill="#B6B6B1" d="M3.468,15.615c-0.257,0.002-0.392-0.043-0.393-0.347c-0.001-0.306,0.137-0.348,0.392-0.347
			c1.871,0.007,3.742,0.009,5.613-0.001c0.282-0.001,0.369,0.091,0.37,0.369c0.001,0.286-0.134,0.326-0.369,0.325
			C8.138,15.607,4.396,15.605,3.468,15.615z"/>
		<path fill="#B6B6B1" d="M3.453,22.225c-0.272,0.003-0.38-0.073-0.378-0.361c0.002-0.275,0.114-0.333,0.36-0.332
			c1.885,0.006,3.771,0.006,5.655-0.001c0.253-0.001,0.352,0.07,0.357,0.337c0.006,0.297-0.119,0.36-0.384,0.356
			C8.123,22.213,4.382,22.213,3.453,22.225z"/>
		<path fill="#B6B6B1" d="M15.054,19.394c0.297-0.006,0.398,0.085,0.394,0.387c-0.006,0.274-0.08,0.373-0.366,0.371
			c-1.585-0.012-3.171-0.01-4.756-0.002c-0.245,0.001-0.368-0.052-0.359-0.331c0.008-0.267,0.048-0.432,0.375-0.425
			C11.125,19.413,14.268,19.413,15.054,19.394z"/>
		<path fill="#B6B6B1" d="M8.835,27.793c0.258-0.004,0.353,0.078,0.349,0.343c-0.004,0.251-0.075,0.354-0.343,0.353
			c-1.813-0.009-3.625-0.009-5.438,0c-0.282,0.001-0.323-0.131-0.325-0.367c-0.001-0.235,0.074-0.33,0.319-0.328
			C4.325,27.802,7.95,27.805,8.835,27.793z"/>
		<path fill="#B6B6B1" d="M3.4,20.151c-0.276,0.005-0.381-0.094-0.38-0.373c0-0.27,0.085-0.385,0.371-0.383
			c1.501,0.01,3.001,0.016,4.502,0.001c0.318-0.003,0.334,0.153,0.339,0.396c0.004,0.246-0.05,0.367-0.33,0.36
			C7.146,20.137,4.143,20.138,3.4,20.151z"/>
		<path fill="#B6B6B1" d="M16.305,29.858c0.327-0.009,0.32,0.169,0.33,0.403c0.01,0.257-0.07,0.353-0.336,0.351
			c-1.442-0.011-2.884-0.011-4.326-0.002c-0.28,0.001-0.375-0.102-0.375-0.378c0.001-0.278,0.105-0.377,0.381-0.372
			C12.693,29.874,15.578,29.877,16.305,29.858z"/>
		<path fill="#B6B6B1" d="M3.6,13.454c0.284-0.257,0.602-0.461,0.965-0.586c1.513-0.003,3.024-0.005,4.537-0.01
			c0.184,0,0.346,0.001,0.342,0.258c-0.002,0.2,0,0.376-0.271,0.382c-0.127,0.002-0.254,0.044-0.38,0.044
			c-1.613,0.003-3.226,0.003-4.838,0C3.832,13.542,3.692,13.584,3.6,13.454z"/>
		<path fill="#B6B6B1" d="M17.287,17.758c-0.772,0-1.544-0.004-2.315,0.003c-0.242,0.002-0.407-0.015-0.403-0.335
			c0.005-0.29,0.114-0.361,0.384-0.359c1.558,0.009,3.114,0.009,4.673,0c0.27-0.001,0.379,0.071,0.383,0.36
			c0.005,0.321-0.164,0.335-0.405,0.333C18.83,17.753,18.058,17.757,17.287,17.758z"/>
		<path fill="#B6B6B1" d="M10.389,26.42c-0.239,0.002-0.367-0.045-0.368-0.326c0-0.279,0.09-0.371,0.371-0.37
			c1.57,0.01,3.142,0.01,4.711,0c0.27-0.001,0.338,0.1,0.341,0.353c0.002,0.26-0.081,0.35-0.345,0.344
			C14.301,26.409,11.16,26.411,10.389,26.42z"/>
		<path fill="#B6B6B1" d="M11.611,22.222c-0.235,0.002-0.374-0.038-0.368-0.323c0.004-0.281,0.115-0.371,0.387-0.37
			c1.498,0.009,2.996,0.009,4.493,0c0.248-0.001,0.356,0.063,0.36,0.335c0.004,0.289-0.107,0.364-0.379,0.359
			C15.363,22.211,12.367,22.213,11.611,22.222z"/>
		<path fill="#B6B6B1" d="M3.442,26.42c-0.238,0.002-0.367-0.043-0.366-0.325c0.001-0.274,0.082-0.374,0.365-0.372
			c1.482,0.012,2.963,0.011,4.445,0.001c0.264-0.002,0.344,0.091,0.344,0.348c0,0.255-0.077,0.354-0.343,0.349
			C7.147,26.407,4.183,26.411,3.442,26.42z"/>
		<path fill="#B6B6B1" d="M3.382,24.35c-0.208,0.002-0.396-0.029-0.35-0.293c0.034-0.2-0.017-0.467,0.352-0.462
			c1.224,0.017,2.449,0.016,3.673,0.004c0.3-0.002,0.309,0.155,0.31,0.377c0.001,0.226-0.014,0.383-0.312,0.375
			C6.429,24.334,3.98,24.346,3.382,24.35z"/>
		<path fill="#B6B6B1" d="M19.066,22.223c-0.24,0.004-0.372-0.049-0.361-0.329c0.009-0.249,0.084-0.363,0.349-0.36
			c1.299,0.006,2.599,0.008,3.898-0.002c0.257-0.001,0.307,0.114,0.312,0.338c0.005,0.254-0.073,0.36-0.341,0.354
			C22.279,22.209,19.709,22.213,19.066,22.223z"/>
		<path fill="#B6B6B1" d="M3.355,17.759c-0.187,0.001-0.358-0.009-0.323-0.263c0.027-0.204,0.011-0.431,0.34-0.428
			c1.224,0.012,2.447,0.009,3.672,0.003c0.281-0.001,0.315,0.156,0.324,0.385c0.009,0.258-0.117,0.309-0.341,0.306
			C6.416,17.752,3.967,17.755,3.355,17.759z"/>
		<path fill="#B6B6B1" d="M10.987,9.34c0.438-0.253,0.867-0.518,1.353-0.677c0.912,0,1.824,0.007,2.736-0.006
			c0.277-0.004,0.373,0.086,0.374,0.366c0.001,0.274-0.108,0.336-0.355,0.334C13.725,9.345,12.356,9.344,10.987,9.34z"/>
		<path fill="#B6B6B1" d="M16.594,28.51c-0.229,0.011-0.288-0.083-0.271-0.266c0.015-0.174-0.113-0.442,0.228-0.445
			c1.084-0.004,2.17,0.002,3.255-0.006c0.263,0,0.252,0.166,0.253,0.344c0.001,0.18,0.006,0.349-0.253,0.346
			C19.248,28.477,17.107,28.484,16.594,28.51z"/>
		<path fill="#B6B6B1" d="M9.55,17.762c-0.268,0.009-0.385-0.063-0.378-0.356c0.005-0.267,0.102-0.34,0.354-0.337
			c0.97,0.011,1.938,0.01,2.908,0c0.249-0.002,0.354,0.066,0.359,0.336c0.005,0.292-0.11,0.367-0.379,0.357
			C11.931,17.747,10.02,17.746,9.55,17.762z"/>
		<path fill="#B6B6B1" d="M11.543,15.614c-0.267,0.007-0.299-0.131-0.298-0.347c0.001-0.214,0.036-0.348,0.301-0.346
			c1.01,0.01,2.021,0.008,3.031,0c0.285-0.002,0.269,0.176,0.273,0.369c0.005,0.199-0.035,0.328-0.275,0.323
			C14.062,15.604,12.04,15.6,11.543,15.614z"/>
		<path fill="#B6B6B1" d="M11.317,28.486c-0.272,0.011-0.335-0.106-0.339-0.354c-0.004-0.264,0.095-0.344,0.352-0.34
			c0.968,0.012,1.937,0.011,2.904,0.002c0.244-0.002,0.362,0.055,0.363,0.33c0.001,0.281-0.098,0.373-0.375,0.361
			C13.738,28.467,11.8,28.468,11.317,28.486z"/>
		<path fill="#B6B6B1" d="M14.475,12.853c0.268-0.009,0.388,0.063,0.381,0.357c-0.005,0.268-0.106,0.339-0.357,0.337
			c-0.956-0.011-1.912-0.01-2.867-0.001c-0.267,0.002-0.383-0.081-0.392-0.366c-0.01-0.33,0.181-0.327,0.411-0.324
			C12.122,12.863,14.005,12.868,14.475,12.853z"/>
		<path fill="#B6B6B1" d="M11.542,11.42c-0.227,0.005-0.306-0.091-0.296-0.307c0.008-0.198,0.011-0.38,0.28-0.38
			c1.027,0.001,2.055,0.002,3.081,0c0.267,0,0.232,0.188,0.241,0.357c0.01,0.194-0.022,0.333-0.27,0.329
			C14.052,11.411,12.027,11.411,11.542,11.42z"/>
		<path fill="#B6B6B1" d="M19.953,14.97c-0.034,0.208,0.022,0.408,0.06,0.61c-1.036,0.073-2.074,0.01-3.111,0.031
			c-0.229,0.005-0.252-0.128-0.244-0.301c0.008-0.17-0.019-0.379,0.23-0.377C17.91,14.943,18.933,14.866,19.953,14.97z"/>
		<path fill="#B6B6B1" d="M20.052,25.731c0.188,0.186,0.304,0.416,0.414,0.65c-0.797,0.076-1.596,0.014-2.393,0.035
			c-0.298,0.006-0.296-0.19-0.304-0.403c-0.01-0.234,0.106-0.29,0.314-0.287C18.74,25.734,19.396,25.731,20.052,25.731z"/>
		<path fill="#B6B6B1" d="M21.464,15.627c-0.158-0.209-0.305-0.425-0.396-0.674c0.75-0.008,1.5-0.017,2.251-0.026
			c-0.059,0.274-0.2,0.513-0.319,0.762C22.493,15.53,21.976,15.64,21.464,15.627z"/>
		<path fill="#B6B6B1" d="M22.984,25.725c-0.014,0.265-0.155,0.477-0.282,0.695c-0.263,0-0.525,0-0.787,0.002
			c-0.199-0.199-0.313-0.454-0.445-0.695C21.974,25.727,22.479,25.726,22.984,25.725z"/>
		<path fill="#C14923" d="M8.517,8.205C7.9,7.71,7.507,7.052,7.09,6.404C6.983,6.239,6.986,6.125,7.078,5.946
			c0.198-0.384-0.017-0.781-0.447-0.8c-0.25-0.011-0.346-0.12-0.443-0.308c-0.462-0.9-0.935-1.795-1.397-2.695
			c-0.128-0.25-0.313-0.41-0.6-0.41C3.9,1.734,3.77,1.949,3.67,2.175C3.584,2.37,3.52,2.575,3.458,2.78
			C3.182,3.699,3.053,4.648,2.936,5.596C2.857,6.232,2.85,6.881,2.144,7.2C2.108,7.216,2.082,7.258,2.056,7.292
			C1.768,7.668,1.929,8.147,2.399,8.191c0.31,0.029,0.286,0.176,0.285,0.382c-0.003,0.542-0.003,1.083,0.01,1.625
			c0.008,0.325,0.085,0.625,0.397,0.804c0.372,0.043,0.655-0.06,0.758-0.46c-0.02-0.313-0.054-1.733-0.035-2.391
			c-0.002-0.012-0.009-0.02-0.01-0.031C3.789,7.97,3.8,7.838,3.828,7.706C3.778,7.394,3.94,7.235,4.271,7.129
			c0.443-0.143,0.863-0.361,1.293-0.545c0.14-0.059,0.274-0.093,0.368,0.077c0.392,0.71,0.896,1.344,1.366,2
			c0.3,0.206,0.525,0.534,0.931,0.564C8.809,8.983,8.945,8.549,8.517,8.205z M5.001,5.6C4.759,5.681,4.524,5.788,4.294,5.9
			C4.067,6.011,4.012,5.929,4.058,5.676c0.05-0.444,0.1-0.926,0.163-1.405C4.232,4.185,4.25,4.062,4.369,4.04
			C4.49,4.017,4.484,4.147,4.522,4.208C4.73,4.542,4.923,4.885,5.126,5.221C5.237,5.403,5.235,5.522,5.001,5.6z"/>
	</g>
</g>
</svg>
