<?xml version="1.0" encoding="utf-8"?>
<!-- Generator: Adobe Illustrator 16.0.0, SVG Export Plug-In . SVG Version: 6.00 Build 0)  -->
<!DOCTYPE svg PUBLIC "-//W3C//DTD SVG 1.1//EN" "http://www.w3.org/Graphics/SVG/1.1/DTD/svg11.dtd">
<svg version="1.1" xmlns="http://www.w3.org/2000/svg" xmlns:xlink="http://www.w3.org/1999/xlink" x="0px" y="0px"
	 width="28.095px" height="20.604px" viewBox="0 0 28.095 20.604" enable-background="new 0 0 28.095 20.604" xml:space="preserve">
<g id="圖層_1">
	<g>
		<path fill-rule="evenodd" clip-rule="evenodd" fill="#848484" d="M28.095,2.885c0,5.799,0,11.597,0,17.395
			c-0.239,0.352-0.606,0.325-0.962,0.325c-8.723,0-17.447,0-26.17,0c-0.091,0-0.183-0.003-0.274-0.002
			C0.406,20.606,0.168,20.517,0,20.279C0,14.481,0,8.684,0,2.885c0.174-0.232,0.405-0.318,0.694-0.298
			c0.255,0.017,0.511-0.004,0.767,0.005C1.665,2.6,1.74,2.512,1.734,2.314C1.727,2.022,1.728,1.729,1.738,1.437
			C1.747,1.147,1.911,0.96,2.192,0.9c0.116-0.025,0.234-0.043,0.352-0.056c2.274-0.262,4.548-0.525,6.823-0.784
			c1.5-0.171,2.954,0.014,4.342,0.62c0.238,0.104,0.438,0.105,0.675,0c1.504-0.665,3.081-0.791,4.696-0.592
			c1.187,0.145,2.374,0.279,3.56,0.42c1.06,0.126,2.12,0.25,3.179,0.383c0.383,0.048,0.534,0.236,0.541,0.627
			c0.003,0.265,0.007,0.531,0,0.795C26.354,2.512,26.43,2.6,26.633,2.592c0.255-0.009,0.513,0.012,0.768-0.005
			C27.69,2.566,27.92,2.653,28.095,2.885z M25.276,9.578c0-0.631,0-1.262,0-1.893c0-1.792-0.005-3.583,0.004-5.375
			c0.002-0.263-0.049-0.39-0.347-0.418c-0.88-0.083-1.758-0.202-2.636-0.306c-1.16-0.136-2.321-0.259-3.479-0.413
			c-1.353-0.178-2.657-0.022-3.922,0.485c-0.206,0.083-0.29,0.2-0.29,0.43c0.006,4.854,0.004,9.708,0.005,14.563
			c0,0.32,0.015,0.325,0.332,0.22c0.837-0.279,1.692-0.444,2.579-0.455c1.312-0.015,2.598,0.232,3.894,0.367
			c1.17,0.121,2.338,0.273,3.507,0.404c0.351,0.04,0.352,0.025,0.352-0.34C25.276,14.423,25.276,12,25.276,9.578z M2.818,9.551
			c0,2.45,0.003,4.9-0.004,7.351c0,0.231,0.041,0.332,0.303,0.294c0.624-0.089,1.25-0.152,1.875-0.224
			c1.324-0.152,2.649-0.287,3.97-0.46c1.436-0.189,2.84-0.112,4.214,0.375c0.274,0.097,0.306,0.077,0.307-0.208
			c0.001-4.873,0-9.745,0.004-14.618c0-0.205-0.076-0.314-0.263-0.39c-1.263-0.517-2.568-0.677-3.92-0.501
			C8.443,1.281,7.582,1.375,6.721,1.477C5.534,1.617,4.349,1.769,3.16,1.892C2.863,1.922,2.813,2.049,2.814,2.311
			C2.822,4.724,2.818,7.138,2.818,9.551z M14.027,19.491c4.207,0,8.413,0,12.62,0c0.383,0,0.384-0.001,0.384-0.382
			c0-5.021,0-10.041,0-15.062c0-0.362-0.018-0.361-0.364-0.379c-0.311-0.017-0.307,0.165-0.307,0.384
			c0.002,4.544,0.001,9.09,0.001,13.635c0,0.552-0.182,0.742-0.731,0.688c-0.944-0.092-1.886-0.216-2.829-0.325
			c-1.332-0.154-2.667-0.291-3.998-0.466c-1.441-0.189-2.829-0.017-4.141,0.603c-0.443,0.209-0.802,0.199-1.241-0.005
			c-1.144-0.536-2.356-0.766-3.624-0.636c-0.708,0.072-1.416,0.147-2.124,0.229c-1.169,0.135-2.337,0.279-3.507,0.413
			c-0.608,0.07-1.215,0.146-1.824,0.19c-0.408,0.029-0.6-0.182-0.609-0.596c-0.002-0.119-0.001-0.238-0.001-0.357
			c0-4.462-0.001-8.925,0.003-13.389c0-0.235-0.029-0.386-0.323-0.368c-0.331,0.02-0.349,0.018-0.349,0.366
			c0,5.012,0,10.023,0,15.034c0,0.421,0.001,0.422,0.426,0.422C5.668,19.491,9.848,19.491,14.027,19.491z"/>
		<path fill-rule="evenodd" clip-rule="evenodd" fill="#848484" d="M17.581,2.698c1.019,0,1.903,0.149,2.792,0.246
			c1.178,0.129,2.355,0.278,3.533,0.416c0.148,0.017,0.292,0.04,0.417,0.119c0.202,0.129,0.292,0.396,0.218,0.628
			c-0.076,0.238-0.33,0.406-0.605,0.375c-1.124-0.128-2.246-0.271-3.37-0.394c-1.087-0.117-2.167-0.324-3.269-0.263
			C16.838,3.85,16.39,3.92,15.943,4.016c-0.089,0.019-0.18,0.037-0.271,0.039c-0.318,0.009-0.549-0.169-0.593-0.45
			c-0.042-0.274,0.128-0.54,0.43-0.614c0.372-0.092,0.75-0.166,1.127-0.223C16.989,2.714,17.344,2.673,17.581,2.698z"/>
		<path fill-rule="evenodd" clip-rule="evenodd" fill="#848484" d="M17.514,5.057c1.022,0.014,1.898,0.15,2.777,0.249
			c1.188,0.132,2.374,0.278,3.56,0.417c0.29,0.033,0.574,0.08,0.684,0.405c0.136,0.406-0.169,0.764-0.627,0.721
			c-0.527-0.05-1.05-0.135-1.577-0.184c-1.643-0.153-3.268-0.491-4.928-0.472c-0.478,0.006-0.944,0.085-1.408,0.185
			c-0.098,0.021-0.197,0.038-0.297,0.046c-0.313,0.027-0.552-0.139-0.613-0.421c-0.058-0.266,0.104-0.542,0.401-0.633
			c0.419-0.127,0.852-0.203,1.288-0.248C17.065,5.091,17.354,5.042,17.514,5.057z"/>
		<path fill-rule="evenodd" clip-rule="evenodd" fill="#848484" d="M17.705,8.546c-0.581-0.011-1.148,0.073-1.71,0.205
			c-0.054,0.012-0.108,0.021-0.162,0.031c-0.389,0.073-0.674-0.083-0.748-0.408c-0.07-0.308,0.149-0.579,0.53-0.675
			c1.222-0.31,2.453-0.31,3.695-0.14c1.157,0.158,2.319,0.274,3.479,0.411c0.435,0.051,0.871,0.098,1.302,0.168
			c0.327,0.052,0.502,0.297,0.471,0.601c-0.029,0.282-0.257,0.495-0.573,0.47c-0.582-0.044-1.161-0.125-1.741-0.187
			C20.734,8.863,19.228,8.619,17.705,8.546z"/>
		<path fill-rule="evenodd" clip-rule="evenodd" fill="#848484" d="M23.789,11.573c-0.802-0.094-1.689-0.208-2.578-0.3
			c-1.207-0.126-2.403-0.345-3.621-0.356c-0.588-0.005-1.162,0.106-1.733,0.232c-0.4,0.088-0.703-0.074-0.773-0.404
			c-0.066-0.313,0.142-0.578,0.532-0.676c1.186-0.297,2.381-0.307,3.588-0.153c1.167,0.149,2.337,0.276,3.506,0.415
			c0.417,0.049,0.833,0.097,1.249,0.157c0.442,0.064,0.639,0.275,0.602,0.625C24.527,11.43,24.295,11.586,23.789,11.573z"/>
		<path fill-rule="evenodd" clip-rule="evenodd" fill="#848484" d="M17.665,12.193c1.007-0.016,1.908,0.152,2.815,0.248
			c1.025,0.11,2.048,0.238,3.071,0.358c0.172,0.021,0.346,0.035,0.516,0.066c0.345,0.063,0.541,0.323,0.492,0.643
			c-0.045,0.295-0.314,0.485-0.65,0.446c-1.731-0.202-3.461-0.409-5.192-0.613c-0.961-0.113-1.912-0.055-2.854,0.175
			c-0.405,0.099-0.704-0.066-0.777-0.399c-0.069-0.314,0.131-0.569,0.527-0.673c0.026-0.007,0.053-0.015,0.079-0.021
			C16.371,12.269,17.055,12.16,17.665,12.193z"/>
		<path fill-rule="evenodd" clip-rule="evenodd" fill="#848484" d="M13.003,8.256c0.008,0.35-0.324,0.623-0.695,0.537
			C11.521,8.613,10.727,8.5,9.92,8.562C9.194,8.618,8.47,8.71,7.745,8.795C6.586,8.93,5.429,9.071,4.27,9.209
			C4.225,9.215,4.179,9.214,4.133,9.214C3.766,9.216,3.529,9.026,3.502,8.707C3.478,8.429,3.674,8.184,4.01,8.134
			c0.577-0.085,1.157-0.15,1.735-0.218C6.922,7.776,8.099,7.64,9.275,7.5c1.099-0.13,2.185-0.059,3.255,0.22
			C12.828,7.798,12.998,8.004,13.003,8.256z"/>
		<path fill-rule="evenodd" clip-rule="evenodd" fill="#848484" d="M12.438,6.432c-0.403-0.023-0.785-0.16-1.187-0.199
			C10.51,6.161,9.774,6.184,9.038,6.271C7.86,6.412,6.682,6.551,5.504,6.69C5.105,6.737,4.707,6.786,4.308,6.832
			C4.217,6.842,4.125,6.855,4.035,6.849c-0.287-0.02-0.503-0.227-0.533-0.5C3.475,6.1,3.643,5.838,3.92,5.785
			c0.402-0.079,0.812-0.122,1.219-0.171c1.359-0.163,2.718-0.321,4.078-0.481c1.118-0.131,2.224-0.071,3.314,0.216
			c0.321,0.084,0.506,0.343,0.462,0.621C12.949,6.253,12.726,6.439,12.438,6.432z"/>
		<path fill-rule="evenodd" clip-rule="evenodd" fill="#848484" d="M10.341,2.702c0.772-0.015,1.483,0.098,2.184,0.278
			c0.448,0.116,0.616,0.558,0.351,0.887c-0.174,0.216-0.417,0.228-0.652,0.172c-0.571-0.136-1.147-0.207-1.734-0.224
			c-0.67-0.02-1.329,0.076-1.991,0.15C7.32,4.099,6.144,4.245,4.966,4.384c-0.245,0.029-0.49,0.052-0.734,0.087
			C3.858,4.523,3.565,4.34,3.507,4.011C3.454,3.712,3.685,3.422,4.046,3.375c0.66-0.087,1.323-0.156,1.984-0.234
			c1.024-0.12,2.048-0.248,3.072-0.359C9.528,2.735,9.955,2.677,10.341,2.702z"/>
		<path fill-rule="evenodd" clip-rule="evenodd" fill="#848484" d="M10.353,12.193c0.756-0.029,1.494,0.089,2.22,0.284
			c0.303,0.081,0.471,0.351,0.419,0.619c-0.058,0.298-0.299,0.474-0.624,0.449c-0.072-0.005-0.144-0.025-0.215-0.04
			c-0.375-0.08-0.752-0.139-1.133-0.186c-0.893-0.107-1.768,0.048-2.646,0.145c-1.17,0.128-2.338,0.274-3.507,0.413
			c-0.227,0.026-0.454,0.049-0.681,0.073c-0.361,0.039-0.64-0.156-0.682-0.477c-0.039-0.293,0.193-0.57,0.534-0.614
			c0.77-0.097,1.54-0.188,2.311-0.277c1.033-0.12,2.067-0.229,3.1-0.354C9.751,12.192,10.052,12.202,10.353,12.193z"/>
		<path fill-rule="evenodd" clip-rule="evenodd" fill="#848484" d="M12.37,11.181c-0.408-0.079-0.845-0.173-1.29-0.228
			c-0.625-0.078-1.241-0.026-1.857,0.041c-1.188,0.129-2.375,0.277-3.562,0.415c-0.498,0.058-0.997,0.125-1.497,0.162
			c-0.396,0.028-0.637-0.17-0.663-0.493c-0.025-0.298,0.198-0.541,0.563-0.584c1.396-0.17,2.792-0.329,4.186-0.499
			c0.616-0.074,1.231-0.167,1.853-0.177c0.843-0.014,1.679,0.05,2.491,0.297c0.292,0.088,0.446,0.342,0.398,0.605
			C12.941,11.005,12.695,11.198,12.37,11.181z"/>
	</g>
</g>
<g id="圖層_3">
</g>
</svg>
