<?xml version="1.0" encoding="utf-8"?>
<!-- Generator: Adobe Illustrator 15.1.0, SVG Export Plug-In . SVG Version: 6.00 Build 0)  -->
<!DOCTYPE svg PUBLIC "-//W3C//DTD SVG 1.1//EN" "http://www.w3.org/Graphics/SVG/1.1/DTD/svg11.dtd">
<svg version="1.1" id="圖層_1" xmlns="http://www.w3.org/2000/svg" xmlns:xlink="http://www.w3.org/1999/xlink" x="0px" y="0px"
	 width="25.892px" height="25px" viewBox="-0.558 0.943 25.892 25" enable-background="new -0.558 0.943 25.892 25"
	 xml:space="preserve">
<g>
	<path fill="#F29600" d="M24.757,10.54c0-0.705,0.08-1.488-0.102-2.052c-0.261-0.811-0.896-1.319-1.438-1.918
		c-0.553-0.608-1.061-1.09-1.661-1.688c-0.55-0.551-1.091-1.067-1.688-1.664c-0.535-0.537-1.236-1.144-2.049-1.332
		c-2.565,0-5.123,0-7.687,0c-1.6,0.239-2.723,1.203-3.113,2.632C6.871,5.041,6.914,5.624,6.914,6.313c0,1.279,0,2.565,0,3.85
		C7.234,9.76,7.581,9.375,7.99,9.035C8.201,8.859,8.432,8.716,8.66,8.57c0.004-0.002,0.007-0.005,0.011-0.007
		c0-0.546,0-1.083,0-1.633c0-0.688-0.082-1.509,0.104-2.049c0.227-0.662,0.778-1.089,1.431-1.183
		c0.469-0.06,1.178-0.024,1.771-0.024c1.135,0,2.227,0,3.479,0c0.459,0,1.457-0.106,1.689,0.054
		c0.506,0.342,0.461,1.362,0.461,2.229c0,0.42,0,0.871,0,1.305c0,0.427-0.064,0.94,0.05,1.229c0.229,0.572,0.848,0.537,1.717,0.537
		c0.418,0,0.877,0,1.279,0c0.848,0,1.877-0.045,2.178,0.41c0.207,0.315,0.127,0.903,0.127,1.485c0,2.672,0,5.224,0,7.937
		c0,1.105,0.112,2.332-0.076,3.1c-0.145,0.607-0.59,1.117-1.277,1.279c-0.388,0.092-0.9,0.053-1.408,0.053c-2.942,0-5.771,0-8.755,0
		c-0.517,0-1.039,0.037-1.408-0.053c-0.652-0.158-1.071-0.629-1.256-1.178c-0.08-0.243-0.105-0.551-0.112-0.883
		c-0.005-0.003-0.009-0.006-0.013-0.008c-0.123-0.074-0.248-0.143-0.363-0.229l-0.132,0.109c0.041,0.469-0.14,0.951-0.529,1.27
		l-0.51,0.429c0.361,1.053,1.172,1.76,2.127,2.103c0.488,0.17,0.976,0.23,1.664,0.23c3.268,0,6.334,0,9.498,0
		c0.666,0,1.248,0.018,1.768-0.129c1.376-0.402,2.397-1.52,2.563-3.123c0.052-0.535,0.021-1.191,0.021-1.818
		C24.757,16.813,24.757,13.765,24.757,10.54z"/>
	<path opacity="0.5" fill="#F29600" enable-background="new    " d="M13.158,12.808c-0.894,0.181-0.914,1.435-0.125,1.722
		c0.429,0.154,1.362,0.051,1.97,0.051c0.561,0,1.123,0,1.685,0c-0.046-0.628-0.253-1.242-0.61-1.795c-0.312,0-0.623,0-0.945,0
		C14.518,12.785,13.698,12.703,13.158,12.808z"/>
	<path opacity="0.5" fill="#F29600" enable-background="new    " d="M20.995,14.477c0.287-0.141,0.508-0.473,0.486-0.869
		c-0.027-0.375-0.293-0.668-0.564-0.771c-0.187-0.065-0.531-0.058-0.782-0.053c0.166,0.583,0.267,1.186,0.29,1.801
		C20.649,14.569,20.855,14.543,20.995,14.477z"/>
	<path opacity="0.5" fill="#F29600" enable-background="new    " d="M16.393,16.344c-0.853,0-1.701,0-2.513,0
		c-0.771,0-1.77-0.088-2.438,0.025c-0.365,0.063-0.736,0.369-0.76,0.803c-0.029,0.404,0.223,0.76,0.512,0.895
		c0.244,0.109,0.697,0.074,1.152,0.074c0.854,0,1.684,0,2.514,0c0.161-0.098,0.318-0.201,0.464-0.322
		C15.816,17.409,16.162,16.896,16.393,16.344z"/>
	<path opacity="0.5" fill="#F29600" enable-background="new    " d="M19.669,18.164c0.559,0.011,1.102,0,1.353-0.127
		c0.65-0.32,0.587-1.297-0.021-1.59c-0.18-0.085-0.45-0.101-0.723-0.104c-0.094,0.476-0.216,0.941-0.395,1.383
		C19.823,17.878,19.74,18.018,19.669,18.164z"/>
	<path fill="#F29600" d="M12.862,21.648c1.512,0,3.03-0.502,4.29-1.531c2.904-2.373,3.324-6.695,0.929-9.584
		c-1.341-1.617-3.274-2.451-5.229-2.451c-1.53,0-3.073,0.514-4.338,1.57c-2.584,2.152-3.16,5.834-1.513,8.646
		c0.055,0.088,0.031,0.201-0.047,0.268L6.026,19.34c-0.131-0.143-0.313-0.215-0.493-0.215c-0.155,0-0.306,0.053-0.432,0.156
		l-4.295,3.58c-0.668,0.557-0.761,1.547-0.201,2.213c0.308,0.373,0.758,0.568,1.208,0.568c0.354,0,0.713-0.121,1.007-0.365
		l4.291-3.578c0.276-0.229,0.321-0.635,0.111-0.918l0.926-0.773c0.039-0.033,0.086-0.049,0.133-0.049c0.05,0,0.1,0.018,0.138,0.051
		C9.683,21.092,11.269,21.648,12.862,21.648z M9.877,11.291c0.869-0.725,1.928-1.078,2.979-1.078c1.335,0,2.658,0.57,3.578,1.672
		c1.645,1.971,1.376,4.91-0.598,6.553c-0.865,0.727-1.927,1.078-2.977,1.078c-1.335,0-2.658-0.57-3.578-1.674
		C7.642,15.873,7.906,12.932,9.877,11.291z"/>
</g>
</svg>
