<?xml version="1.0" encoding="utf-8"?>
<!-- Generator: Adobe Illustrator 15.1.0, SVG Export Plug-In . SVG Version: 6.00 Build 0)  -->
<!DOCTYPE svg PUBLIC "-//W3C//DTD SVG 1.1//EN" "http://www.w3.org/Graphics/SVG/1.1/DTD/svg11.dtd">
<svg version="1.1" id="圖層_1" xmlns="http://www.w3.org/2000/svg" xmlns:xlink="http://www.w3.org/1999/xlink" x="0px" y="0px"
	 width="220px" height="276px" viewBox="0 0 220 276" enable-background="new 0 0 220 276" xml:space="preserve">
<g>
	<g id="女性_8_">
		
			<path id="太枠_21_" fill="#61461F" stroke="#61461F" stroke-width="4.8387" stroke-linecap="round" stroke-linejoin="round" stroke-miterlimit="10" d="
			M134.048,271.9c1.05-0.357,1.654-0.574,1.654-0.574s-3.53-13.71-11.202-27.018v-9.244c0,0,11.087-16.463,13.329-21.515
			l14.03,18.185c6.449,6.836,13.336,4.043,17.611,0.186c6.129-5.527,23.932-34.339,23.932-34.339
			c-0.01,0.003-0.02,0.007-0.026,0.013c0.291-0.488,0.542-1.021,0.729-1.607c-0.016,0.004-0.03,0.01-0.049,0.013
			c0.08-0.177,0.162-0.377,0.248-0.597l0.018-0.006c0.003-0.008,0.003-0.03,0.003-0.049c0.543-1.414,1.182-3.717,1.391-7.063
			c0.111-1.784,1.167-14.246,0.462-20.098c-0.867-7.188-12.283-9.403-16.291-8.986c-1.511,0.154-2.393,3.283-2.541,6.688
			c-0.587-2.105-2.058-4.224-3.959-0.88c-1.695,2.99-2.564,9.763-2.564,9.763s2.57,5.961,5.049,11.553
			c0.462,0.732,1.089,1.377,1.701,1.9l0.746,2.709c-0.508-0.775-0.918-1.638-1.18-2.599c-0.5,0.664-0.873,1.282-1.13,1.874
			c-2.366,3.107-11.704,15.543-16.602,24.529c-2.075-4.353-4.442-10.623-6.853-16.327c1.133-0.175,2.258-0.404,3.35-0.647
			c-2.365-0.85-4.244-2.453-5.604-4.44c-0.562-1.188-1.118-2.3-1.67-3.312c-0.479-1.354-0.772-2.775-0.856-4.193
			c-0.078-1.309-0.022-2.631,0.14-3.952c1.464-0.966,2.657-1.704,3.171-2.048c8.818-5.879,14.426-13.486,14.439-23.713
			c0-0.06-0.004-0.117-0.004-0.176c3.32-4.981,4.268-10.881,1.121-16.882c-0.675-1.287-1.709-2.757-2.988-4.176
			c13.311-16.648,14.75-36.887,15.082-44.948c1.658-40.287-26.041-61.38-60.172-62.784c-9.746-0.401-26.35,0.17-30,4.889
			c-22.763,4.148-37.773,28.833-38.75,52.591c-0.326,7.911,1.48,15.792,4.014,23.494c0.587,7.152,2.213,17.083,6.534,25.998
			c0,0-0.906-4.845-1.426-12.17c0.372,0.952,0.74,1.9,1.104,2.842c0.326,4.461,0.586,7.943,0.706,9.506
			c1.177,15.181,25.872,32.228,36.452,32.301c1.311,0.007,2.616-0.04,3.916-0.139c0.916,2.917,0.244,5.559-3.149,7.446
			c-0.267,0.146-0.533,0.297-0.799,0.446l0.2-0.554l-7.425,2.518l-0.439,0.676c-3.08,1.023-8.219,2.85-10.803,4.43l-0.039-0.096
			c-2.142,1.248-5.2,3.205-8.201,5.473c-6.879,5.197-14.949,12.027-19.314,15.678c-0.001-0.003-0.003-0.008-0.003-0.011
			c-0.189-0.625-0.309-0.996-0.309-0.996l0.009,0.054c-2.824-8.771-8.985-23.981-8.985-23.981c-0.511,0.854-1.136,1.575-1.832,2.185
			l1.444-2.404c0.73-0.345,1.508-0.797,2.149-1.377c3.887-4.725,7.964-9.773,7.964-9.773s0.979-6.757,0.146-10.094
			c-0.933-3.731-2.92-2.088-4.049-0.213c0.77-3.32,0.759-6.568-0.654-7.125c-3.749-1.479-15.341-2.405-18.104,4.287
			c-2.251,5.445-4.577,17.733-4.948,19.481c-0.639,3.004-0.686,5.483-0.568,7.228l0,0c0.017,0.222,0.032,0.43,0.053,0.625
			c0.025,0.644,0.121,1.254,0.275,1.828c0.049,0.226,0.083,0.346,0.083,0.346l0.015-0.017c0.005,0.017,0.009,0.03,0.014,0.042
			c-0.009-0.008-0.02-0.015-0.028-0.025c0,0,6.859,24.324,14.39,37.754c2.818,5.022,8.485,7.629,12.053,6.197
			c5.484-1.541,14.73-6.713,22.742-11.594c0.154,3.229,1.301,6.713,4.226,10.139c0,0-0.173,11.013,0.407,20.5
			c-2.684,5.033-4.956,10.057-6.732,14.32c-2.784,6.68-4.349,11.486-4.349,11.486s0.451,0.208,1.216,0.538
			c-0.125,0.583-0.256,1.194-0.389,1.827h67.217C134.413,273.085,134.229,272.482,134.048,271.9z M192.628,195.743l0.323,0.534
			c-1.518,0.373-2.855,0.606-4.551,0.42c-0.094-0.012-0.19-0.022-0.291-0.036L192.628,195.743z M185.118,195.896
			c-1.255-0.451-2.601-1.097-3.839-1.969L185.118,195.896z M177.098,171.906c0.252-0.487,0.396-1.075,0.471-1.702
			c0.064,0.416,0.145,0.813,0.238,1.192L177.098,171.906z M46.305,159.95c-0.097,0.624-0.115,1.229-0.004,1.765l-0.547-0.682
			C45.945,160.693,46.128,160.331,46.305,159.95z M28.761,182.564c-1.437-0.234-2.54-0.694-3.68-1.299l0.454-0.451l3.517,1.793
			C28.951,182.596,28.854,182.581,28.761,182.564z M32.138,182.674l4.226-0.865C34.937,182.314,33.467,182.576,32.138,182.674z
			 M122.439,174.042c-1.811-1.597-3.457-3.817-3.922-6.794c-0.205-1.336-0.219-3.04-0.104-4.93c2.597-1.021,5.14-2.188,7.608-3.469
			c4.625-2.397,9.49-5.078,13.606-8.507c0.108-0.03,0.22-0.061,0.329-0.09c-1.949,6.104-2.637,12.411-0.043,17.244
			c-2.055,1.767-4.023,3.571-5.57,5.505c-1.439,1.803-2.453,3.594-3.061,5.344l-0.127-1.181l-8.5-3.663L122.439,174.042z"/>
		<path id="首_22_" fill="#FFEBCD" stroke="#61461F" stroke-width="2.621" stroke-linecap="round" stroke-linejoin="round" d="
			M118.52,167.248c-1.104-7.124,3.293-24.793,3.293-24.793l-41.709,3.281c0,0,31.777,20.414,17.859,28.158
			c-4.211,2.344-8.479,4.963-8.479,4.963s-1.135,20.572,12.081,22.017c20.204,2.207,26.688-23.446,26.688-23.446
			S119.68,174.7,118.52,167.248z"/>
		<g id="腕_31_">
			<g>
				<path id="_x3C_パス_x3E__815_" fill="#FFEBCD" d="M23.402,179.725c0.122-0.74,5.669-14.105,5.669-14.105l15.971-5.469
					l2.561,3.188l-2.978,8.707l-5.522,9.2l-9.077,1.859L23.402,179.725z"/>
				
					<path id="_x3C_パス_x3E__814_" fill="#FFEBCD" stroke="#61461F" stroke-width="2.621" stroke-linecap="round" stroke-linejoin="round" d="
					M39.06,178.162c0,0,2.794-0.633,4.556-2.229c3.887-4.725,7.964-9.773,7.964-9.773s0.979-6.758,0.146-10.094
					c-1.188-4.75-4.084-0.789-4.744,1.265c-0.66,2.056-1.569,5.104,0.621,6.009"/>
				
					<path id="_x3C_パス_x3E__813_" fill="#FFEBCD" stroke="#61461F" stroke-width="2.621" stroke-linecap="round" stroke-linejoin="round" d="
					M32.641,179.072c0,0,7.323-3.93,4.057-13"/>
				
					<path id="_x3C_パス_x3E__812_" fill="#FFEBCD" stroke="#61461F" stroke-width="2.621" stroke-linecap="round" stroke-linejoin="round" d="
					M42.891,163.6c3.749-0.104,7.16-13.68,4.132-14.871c-3.749-1.479-15.341-2.405-18.104,4.287
					c-2.251,5.445-4.577,17.733-4.948,19.481c-1.293,6.079-0.157,10.024-0.157,10.024"/>
				
					<path id="_x3C_パス_x3E__811_" fill="#FFEBCD" stroke="#61461F" stroke-width="2.621" stroke-linecap="round" stroke-linejoin="round" d="
					M37.116,152.4c0.289-0.437,8.276-1.219,9.087,1.483c0.811,2.7-0.178,7.951-2.26,8.681c-2.081,0.731-4.988,2.67-5.704,0.813"/>
				
					<path id="_x3C_パス_x3E__810_" fill="#FFEBCD" stroke="#61461F" stroke-width="2.621" stroke-linecap="round" stroke-linejoin="round" d="
					M36.165,156.559c0.289-0.437,8.158-0.664,8.968,2.037c0.81,2.702-0.178,7.952-2.26,8.682c-2.082,0.731-4.988,2.67-5.705,0.814"
					/>
				
					<path id="_x3C_パス_x3E__809_" fill="#FFEBCD" stroke="#61461F" stroke-width="2.621" stroke-linecap="round" stroke-linejoin="round" d="
					M35.604,160.676c0.698,0.104,5.44-0.568,7.269,0.797c1.828,1.361-0.13,7.489-1.878,9.027c-1.748,1.539-3.365,0.959-3.595-0.725
					c-0.299-2.174-1.2-4.273,0.709-3.963"/>
			</g>
			<path fill="#807A6E" stroke="#61461F" stroke-width="2.621" stroke-linecap="round" stroke-linejoin="round" d="M23.813,182.521
				c4.336,4.815,17.606,0.226,18.04-4.992c0,0,6.628,16.369,9.288,24.937c4.365-3.649,12.436-10.479,19.314-15.678
				c3.001-2.269,6.06-4.226,8.201-5.474l9.718,23.695c0,0-26.911,18.318-38.119,21.463c-3.567,1.433-9.234-1.174-12.052-6.197
				C30.673,206.848,23.813,182.521,23.813,182.521z"/>
			
				<path id="_x3C_パス_x3E__808_" fill="#FFFFFF" stroke="#61461F" stroke-width="2.621" stroke-linecap="round" stroke-linejoin="round" stroke-miterlimit="10" d="
				M40.849,184.238c-3.508,3.82-8.208,4.697-12.699,3.1c-2.246-0.8-4.553-3.411-4.694-6.988c1.825,1.06,3.207,1.875,5.306,2.217
				c3.01,0.49,10.049,0.063,13.093-5.035C43.047,180.568,42.53,182.404,40.849,184.238z"/>
			
				<path fill="none" stroke="#61461F" stroke-width="2.621" stroke-linecap="round" stroke-linejoin="round" stroke-miterlimit="10" d="
				M50.83,201.459c0,0,4.38,13.676,2.802,16.716"/>
		</g>
		<g id="ベスト_9_">
			
				<path id="_x3C_パス_x3E__807_" fill="#FFFFFF" stroke="#61461F" stroke-width="2.621" stroke-linecap="round" stroke-linejoin="round" stroke-miterlimit="10" d="
				M84.015,229.859l7.371-49.15c0,0-1.52,13.614,9.996,13.953c13.177,0.388,23.986-14.734,23.986-14.734l-12.369,52.346
				L84.015,229.859z"/>
			<path fill="#807A6E" stroke="#61461F" stroke-width="2.621" stroke-linecap="round" stroke-linejoin="round" d="M135.702,271.326
				c0,0-3.53-13.71-11.202-27.018v-9.244c0,0,11.087-16.463,13.329-21.515c8.833-19.891,6.478-28.862,6.478-28.862
				c-4.42-3.694-18.006-7.938-18.006-7.938s-7.844,30.826-29.107,48.229c-13.28-20.254-5.196-48.802-5.196-48.802
				s-9.709,2.964-13.445,5.32l-0.254,19.028c0,0-11.219,12.613-1.074,24.49c0,0-0.173,11.014,0.407,20.502
				c-6.888,12.916-11.081,25.807-11.081,25.807s2.46,1.131,5.711,2.365h18.777c0.67-0.564,1.329-1.178,1.967-1.808v-0.001
				l5.908-6.876c0,0-2.637,3.646-5.908,6.877c0.003,0.013,0.196,0.765,1.056,1.808h34.504
				C132.764,272.383,135.702,271.326,135.702,271.326z"/>
			<path fill="#807A6E" stroke="#61461F" stroke-width="2.621" stroke-linecap="round" stroke-linejoin="round" d="M98.913,265.008
				l-5.908,6.876v0.001C96.276,268.652,98.913,265.008,98.913,265.008z"/>
			
				<line fill="none" stroke="#61461F" stroke-width="2.621" stroke-linecap="round" stroke-linejoin="round" x1="101.822" y1="232.952" x2="98.913" y2="265.008"/>
			<circle id="_x3C_パス_x3E__806_" fill="#61461F" cx="94.062" cy="248.116" r="2.2"/>
			<circle id="_x3C_パス_x3E__805_" fill="#61461F" cx="95.206" cy="234.547" r="2.201"/>
			<g id="ポケット_9_">
				
					<polyline id="_x3C_パス_x3E__804_" fill="none" stroke="#61461F" stroke-width="2.621" stroke-linecap="round" stroke-linejoin="round" stroke-miterlimit="10" points="
					130.473,258.172 117.585,261.83 115.986,257.616 				"/>
				
					<polyline id="_x3C_パス_x3E__803_" fill="none" stroke="#61461F" stroke-width="2.621" stroke-linecap="round" stroke-linejoin="round" stroke-miterlimit="10" points="
					70.898,259.84 77.913,261.83 79.51,257.616 				"/>
			</g>
			<g>
				<g>
					
						<polygon id="_x3C_パス_x3E__802_" fill="#807A6E" stroke="#61461F" stroke-width="2.621" stroke-linecap="round" stroke-linejoin="round" points="
						122.657,173.503 131.157,177.166 132.172,186.58 111.146,201.883 					"/>
					<path fill="#807A6E" stroke="#61461F" stroke-width="2.621" stroke-linecap="round" stroke-linejoin="round" d="M128.945,197.4
						l-10.812-11.353l-21.878,37.658c0.568,0.88,1.303,1.655,1.871,2.565C105.614,221.364,118.962,211.422,128.945,197.4z"/>
				</g>
				<g>
					
						<polygon id="_x3C_パス_x3E__801_" fill="#807A6E" stroke="#61461F" stroke-width="2.621" stroke-linecap="round" stroke-linejoin="round" points="
						97.363,173.789 89.938,176.307 83.822,185.725 90.021,201.023 92.918,186.031 					"/>
					
						<path id="_x3C_パス_x3E__800_" fill="#807A6E" stroke="#61461F" stroke-width="2.621" stroke-linecap="round" stroke-linejoin="round" d="
						M93.005,185.193L82.484,195.4c2.998,24.244,19.338,37.552,19.338,37.552S87.924,210.531,93.005,185.193z"/>
				</g>
			</g>
		</g>
		<g id="腕_29_">
			<g>
				<path id="_x3C_パス_x3E__799_" fill="#FFEBCD" d="M194.322,195.396c0.084-0.746-1.676-15.106-1.676-15.106l-13.916-9.556
					l-3.323,2.387l0.532,9.188l2.854,10.344l8.243,4.228L194.322,195.396z"/>
				
					<path id="_x3C_パス_x3E__798_" fill="#FFEBCD" stroke="#61461F" stroke-width="2.621" stroke-linecap="round" stroke-linejoin="round" d="
					M179.661,189.693c0,0-2.522-1.359-3.791-3.371c-2.479-5.592-5.05-11.553-5.05-11.553s0.869-6.771,2.566-9.763
					c2.418-4.258,4.146,0.336,4.229,2.491c0.085,2.156,0.142,5.338-2.21,5.622"/>
				
					<path id="_x3C_パス_x3E__797_" fill="#FFEBCD" stroke="#61461F" stroke-width="2.621" stroke-linecap="round" stroke-linejoin="round" d="
					M185.6,192.289c0,0-6-5.751-0.42-13.609"/>
				
					<path id="_x3C_パス_x3E__796_" fill="#FFEBCD" stroke="#61461F" stroke-width="2.621" stroke-linecap="round" stroke-linejoin="round" d="
					M179.876,174.636c-3.582-1.106-3.228-15.1,0.011-15.436c4.008-0.417,15.424,1.8,16.291,8.985
					c0.705,5.853-0.351,18.313-0.462,20.099c-0.387,6.2-2.252,8.843-2.252,8.843"/>
				
					<path id="_x3C_パス_x3E__795_" fill="#FFEBCD" stroke="#61461F" stroke-width="2.621" stroke-linecap="round" stroke-linejoin="round" d="
					M188.443,165.398c-0.16-0.5-7.646-3.395-9.15-1.01c-1.506,2.383-1.962,7.707-0.152,8.967c1.81,1.264,4.09,3.91,5.276,2.316"/>
				
					<path id="_x3C_パス_x3E__794_" fill="#FFEBCD" stroke="#61461F" stroke-width="2.621" stroke-linecap="round" stroke-linejoin="round" d="
					M188.244,169.656c-0.161-0.496-7.68-2.826-9.186-0.443c-1.504,2.387-1.961,7.707-0.15,8.973c1.809,1.258,4.09,3.906,5.275,2.313
					"/>
				
					<path id="_x3C_パス_x3E__793_" fill="#FFEBCD" stroke="#61461F" stroke-width="2.621" stroke-linecap="round" stroke-linejoin="round" d="
					M187.68,173.773c-0.699-0.088-5.088-2.008-7.216-1.186c-2.126,0.823-1.884,7.252-0.612,9.203
					c1.271,1.953,2.984,1.825,3.66,0.266c0.868-2.015,2.301-3.793,0.379-4.005"/>
			</g>
			<path fill="#807A6E" stroke="#61461F" stroke-width="2.621" stroke-linecap="round" stroke-linejoin="round" d="M193.402,197.581
				c-8.864,4.17-17.816-2.962-16.836-8.104c0,0-11.521,14.918-17.16,25.262c-4.51-9.457-10.397-27.98-15.102-30.051
				c-2.854-1.256-7.607,4.976-10.382,13.313c-2.776,8.338-2.627,15.894,0.332,16.878c1.034,0.346,2.276-0.164,3.573-1.327
				l14.029,18.185c6.449,6.836,13.336,4.044,17.611,0.186C175.6,226.393,193.402,197.581,193.402,197.581z"/>
			
				<path id="_x3C_パス_x3E__792_" fill="#FFFFFF" stroke="#61461F" stroke-width="2.621" stroke-linecap="round" stroke-linejoin="round" stroke-miterlimit="10" d="
				M176.307,195.064c2.355,4.623,7.684,6.939,11.401,6.395c2.206-0.323,5.302-2.064,6.397-5.475
				c-2.043,0.531-3.594,0.947-5.705,0.713c-3.03-0.336-9.696-2.637-11.262-8.363C175.175,190.941,175.178,192.848,176.307,195.064z"
				/>
			
				<path fill="none" stroke="#61461F" stroke-width="2.621" stroke-linecap="round" stroke-linejoin="round" stroke-miterlimit="10" d="
				M159.406,214.736c0,0-4.254,7.502-2.083,13.637"/>
		</g>
		<g id="髪_44_">
			<g id="毛束_9_">
				
					<path fill="#9E7628" stroke="#61461F" stroke-width="2.621" stroke-linecap="round" stroke-linejoin="round" stroke-miterlimit="10" d="
					M150.971,129.066c6.383-1.458,13.281,5.424,15.67,9.98c6.859,13.086-5.724,25.681-20.002,29.351"/>
				
					<path fill="#9E7628" stroke="#61461F" stroke-width="2.621" stroke-linecap="round" stroke-linejoin="round" stroke-miterlimit="10" d="
					M150.971,129.066c0,0-27.757,37.868-1.359,45.5l10.388-18.232"/>
				
					<path fill="#9E7628" stroke="#61461F" stroke-width="2.621" stroke-linecap="round" stroke-linejoin="round" stroke-miterlimit="10" d="
					M154.414,133.988c7.314,4.965,11.122,13.618,11.107,22.116c-0.014,10.227-5.621,17.834-14.438,23.713
					c-2.132,1.42-15.834,9.564-12.509,12.961c-8.883-4.48-10.391-12.064-4.229-19.774c5.866-7.342,17.862-12.851,17.368-21.321"/>
				
					<path fill="#9E7628" stroke="#61461F" stroke-width="2.621" stroke-linecap="round" stroke-linejoin="round" stroke-miterlimit="10" d="
					M139.794,177.848c-1.012,3.545-2.052,7.217-1.833,10.875c0.193,3.248,1.564,6.543,4.362,8.369
					c3.78,2.471,8.987,1.702,13.581,0.67c-4.975-1.783-7.831-6.896-8.133-11.945c-0.408-6.894,2.801-14.125,6.558-20.045"/>
			</g>
			
				<path id="_x3C_パス_x3E__791_" fill="#9E7628" stroke="#61461F" stroke-width="2.621" stroke-linecap="round" stroke-linejoin="round" stroke-miterlimit="10" d="
				M129.77,151.979c0,0,18.698-0.52,31.049-13.817c15.947-17.174,17.562-39.636,17.916-48.237
				c1.658-40.287-26.041-61.38-60.172-62.784c-9.746-0.401-26.35,0.17-30,4.889c-22.763,4.148-37.773,28.833-38.75,52.591
				c-0.57,13.78,5.336,27.47,10.27,40.28"/>
			
				<path id="_x3C_パス_x3E__790_" fill="#9E7628" stroke="#61461F" stroke-width="2.621" stroke-linecap="round" stroke-linejoin="round" stroke-miterlimit="10" d="
				M53.561,98.225c0,0-1.078,19.63,6.799,35.884c0,0-4.261-22.723,0.407-44.178"/>
		</g>
		<g id="顔_22_">
			<path id="輪郭_22_" fill="#FFEBCD" stroke="#61461F" stroke-width="2.621" stroke-linecap="round" stroke-linejoin="round" d="
				M114.003,36.814c30.388,1.116,55.298,13.617,55.925,40.899c0.361,15.803-0.986,35.296-9.476,46.568
				c-1.943,2.577-10.386,9.11-10.431,9.148c-0.367,0.342-0.512,2.065-0.66,2.548c-0.69,2.227-1.646,4.389-2.813,6.406
				c-4.463,7.725-12.83,12.479-20.527,16.467c-8.899,4.615-18.719,7.805-28.827,7.737c-10.58-0.073-35.275-17.121-36.452-32.301
				c-0.375-4.854-2.08-28.262-3.047-41.998C54.736,50.188,85.848,35.655,114.003,36.814z"/>
			
				<path id="口_22_" fill="none" stroke="#61461F" stroke-width="2.621" stroke-linecap="round" stroke-linejoin="round" stroke-miterlimit="10" d="
				M115.646,143.282c-7.283,8.466-25.483,9.868-31.575-1.3"/>
			
				<path id="鼻_22_" fill="none" stroke="#61461F" stroke-width="2.621" stroke-linecap="round" stroke-linejoin="round" stroke-miterlimit="10" d="
				M90.935,124.393c0,0-0.267,2.496,0.682,3.613"/>
			<g id="頬_9_">
				<path id="_x3C_パス_x3E__789_" fill="#FFCCD5" d="M141.354,127.518c-0.088,2.133-4.076,3.701-8.908,3.504
					c-4.834-0.201-8.682-2.091-8.594-4.226c0.088-2.131,4.076-3.7,8.912-3.501C137.596,123.492,141.441,125.386,141.354,127.518z"/>
				
					<ellipse id="_x3C_パス_x3E__788_" transform="matrix(0.0411 -0.9992 0.9992 0.0411 -57.2122 189.5651)" fill="#FFCCD5" cx="70.156" cy="124.59" rx="3.866" ry="6.67"/>
			</g>
			<g id="目_22_">
				<g id="_x3C_グループ_x3E__18_">
					<path id="_x3C_パス_x3E__787_" fill="#61461F" d="M123.514,104.315c-2.582-0.107-4.923,1.741-6.289,4.592l5.178,3.837
						l-6.264-0.256c-0.078,0.51-0.131,1.033-0.152,1.568c-0.229,5.539,2.771,10.162,6.701,10.323
						c3.931,0.163,7.299-4.196,7.527-9.738C130.443,109.101,127.441,104.477,123.514,104.315z"/>
					
						<path id="_x3C_パス_x3E__786_" fill="none" stroke="#61461F" stroke-width="2.621" stroke-linecap="round" stroke-linejoin="round" stroke-miterlimit="10" d="
						M118.895,102.556c0,0-2.533,4.387,5.584,7.549"/>
				</g>
				<g id="_x3C_グループ_x3E__17_">
					
						<path id="_x3C_パス_x3E__785_" fill="none" stroke="#61461F" stroke-width="4.0323" stroke-linecap="round" stroke-linejoin="round" stroke-miterlimit="10" d="
						M72.996,112.959c2.538-5.287,9.607-2.502,11.517,2.291"/>
					
						<path id="_x3C_パス_x3E__784_" fill="none" stroke="#61461F" stroke-width="2.621" stroke-linecap="round" stroke-linejoin="round" stroke-miterlimit="10" d="
						M70.61,108.064c0,0-0.322,1.233,2.753,2.926"/>
				</g>
			</g>
			<g id="眉_22_">
				
					<path id="_x3C_パス_x3E__783_" fill="none" stroke="#61461F" stroke-width="2.621" stroke-linecap="round" stroke-linejoin="round" stroke-miterlimit="10" d="
					M132.635,94.03c-3.475-5.913-12.771-9.626-18.386-6.013"/>
				
					<path id="_x3C_パス_x3E__782_" fill="none" stroke="#61461F" stroke-width="2.621" stroke-linecap="round" stroke-linejoin="round" stroke-miterlimit="10" d="
					M67.261,93.96c2.001-7.051,7.958-9.2,11.094-6.566"/>
			</g>
		</g>
		<g id="髪_43_">
			<path id="_x3C_パス_x3E__781_" fill="#9E7628" d="M176.484,86.076c-2.225,54.002-22.676,23.361-22.676,23.361
				s-5.377,0.932-9.313-16.061c-5.593-24.146-8.259-17.91-19.361-18.305c-7.198-0.255-20.416-4.51-24.805-8.228
				c-8.405-7.117-11.317-12.937-19.887-7.332C58.46,73.896,54.111,129.678,55.938,82.128c1.014-26.397,25.466-51.542,55.207-50.317
				C156.758,33.689,177.732,55.744,176.484,86.076z"/>
			<g id="耳_22_">
				
					<path id="_x3C_パス_x3E__745_" fill="#FFEBCD" stroke="#61461F" stroke-width="2.621" stroke-linecap="round" stroke-linejoin="round" d="
					M152.332,112.879c0.49-8.794,22.637-11.118,15.925,9.836c-6.176,19.271-19.422,15.072-19.422,15.072"/>
				
					<path id="_x3C_パス_x3E__744_" fill="none" stroke="#61461F" stroke-width="2.621" stroke-linecap="round" stroke-linejoin="round" d="
					M160.559,126.787c0,0-1.772,4.705-8.869,4.866c1.547-5.032,2.853-14.194,7.594-17.438c3.479-2.38,3.896,0.999,3.766,4.28"/>
			</g>
			
				<path id="_x3C_パス_x3E__743_" fill="#9E7628" stroke="#61461F" stroke-width="2.621" stroke-linecap="round" stroke-linejoin="round" stroke-miterlimit="10" d="
				M157.131,102.486c0,0,1.631,20.225-8.564,35.735c0,0,4.268-21.62,0.93-43.406"/>
			
				<path id="_x3C_パス_x3E__742_" fill="#9E7628" stroke="#61461F" stroke-width="2.621" stroke-linecap="round" stroke-linejoin="round" stroke-miterlimit="10" d="
				M79.033,50.576c0,0-26.185,11.1-20.69,59.26c0,0-0.978-28.802,23.185-49.535c0,0-4.857,31.058,24.226,38.852
				c0,0-17.874-11.581-15.343-38.02c0,0,8.697,35.214,38.916,35.741c34.899,0.61,19.362-2.52,19.362-2.52"/>
			
				<path id="_x3C_パス_x3E__741_" fill="#9E7628" stroke="#61461F" stroke-width="2.621" stroke-linecap="round" stroke-linejoin="round" stroke-miterlimit="10" d="
				M99.466,61.104c0,0,4.828,22.39,24.779,32.444c21.29,10.729,23.79,14.375,25.596,20.054c0,0,12.369-43.5-19.978-60.934"/>
		</g>
	</g>
</g>
</svg>
