<?xml version="1.0" encoding="utf-8"?>
<!-- Generator: Adobe Illustrator 15.1.0, SVG Export Plug-In . SVG Version: 6.00 Build 0)  -->
<!DOCTYPE svg PUBLIC "-//W3C//DTD SVG 1.1//EN" "http://www.w3.org/Graphics/SVG/1.1/DTD/svg11.dtd">
<svg version="1.1" id="圖層_1" xmlns="http://www.w3.org/2000/svg" xmlns:xlink="http://www.w3.org/1999/xlink" x="0px" y="0px"
	 width="220px" height="276px" viewBox="0 0 220 276" enable-background="new 0 0 220 276" xml:space="preserve">
<g>
	<g id="男性_9_">
		
			<path id="太枠_16_" fill="#61461F" stroke="#61461F" stroke-width="4.5941" stroke-linecap="round" stroke-linejoin="round" stroke-miterlimit="10" d="
			M143.704,235.746l0.444-38.397l0.106-1.912c9.794,4.991,22.709,11.148,29.589,12.67c3.852,1.302,9.379-1.947,12.365-7.259
			c1.435-2.551,11.184-36.043,12.946-42.11l0.021,0.021c0,0,0.052-0.162,0.111-0.477c0.09-0.316,0.14-0.486,0.14-0.486
			c-0.025,0.018-0.05,0.033-0.073,0.049c0.023-0.198,0.048-0.431,0.064-0.694l0.025-0.016c-0.003-0.015-0.013-0.042-0.019-0.065
			c0.083-1.479-0.034-3.954-1.006-7.535c-0.496-1.826-3.683-14.67-6.383-20.293c-3.313-6.904-15.505-5.238-19.379-3.455
			c-1.458,0.672-1.278,4.104-0.268,7.564c-1.303-1.909-3.5-3.533-4.264,0.467c-0.683,3.574,0.753,10.652,0.753,10.652
			s4.604,5.095,8.99,9.855c0.711,0.577,1.561,1.008,2.352,1.325l1.668,2.458c-0.772-0.604-1.474-1.328-2.065-2.201
			c0,0-5.763,16.604-8.067,25.813c-10.847-7.312-23.448-16.964-26.486-18.124c-8.858-4.907-18.458-8.873-18.458-8.873
			s0.002,0.007,0.004,0.011l-3.324-1.489l0.208,0.76l-6.718-4.141l-0.168,1.92c-2.315-1.767-2.414-4.114-1.313-6.607
			c1.424,0.115,2.738,0.144,3.909,0.077c7.573-0.433,27.395-13.367,30.322-23.541c1.022-3.558,2.757-17.52,3.417-32.717l0.001,0.004
			c0,0,4.892-9.578,5.445-19.758c0.837-8.751-2.566-16.568-2.566-16.568c2.967-1.45,12.276,7.095,12.276,7.095
			c-6.917-18.14-18.686-25.585-18.686-25.585c3.618-3.209,11.56-0.659,11.56-0.659c-11.688-14.992-24.667-13.053-24.667-13.053
			c6.143-0.922,11.655-7.923,11.655-7.923c-17.54,5.273-32.313-2.529-47.268-2.718c-20.266-0.254-36.704,7.516-40.988,14.241
			c-18.032,7.965-24.656,35.293-20.092,51.959c1.438,5.245,3.712,10.958,6.438,16.196c-0.471,2.207-0.264,5.041,0.956,8.6
			c5.486,15.986,17.392,14.203,20.359,13.48c0.305,0.23,0.481,0.357,0.481,0.357s2.987,7.331,6.852,12.26
			c4.032,5.143,11.781,9.699,20.012,12.989c0.16,2.366,0.133,4.737-0.215,6.863l-0.618-0.487l-5.328,6.009l-0.249-0.484
			l-6.076,3.941l-0.059,0.213c-5.742,1.711-15.605,4.957-20.237,8.313l0.008,0.058c-5.014,2.855-35.828,49.919-33.229,56.75
			c6.125,16.109,33.256,36.276,33.256,36.276l1.96,1.512c0.578,0.76,1.438,1.391,2.471,1.906l0.004,0.003l0.002-0.002
			c1.96,0.983,4.541,1.566,6.982,1.914c-0.368,3.411-0.727,7.085-1.054,10.978h76.492
			C146.927,254.545,143.704,235.746,143.704,235.746z M198.131,157.897l0.504,0.415c-1.502,0.976-2.808,1.724-4.684,2.137
			c-0.097,0.023-0.199,0.043-0.305,0.063L198.131,157.897z M190.389,160.765c-1.41-0.022-2.978-0.211-4.513-0.665L190.389,160.765z
			 M174.188,139.463c0.086-0.572,0.03-1.211-0.108-1.864c0.208,0.395,0.422,0.765,0.645,1.113L174.188,139.463z M76.281,242.352
			c-0.221,0.092-0.443,0.183-0.664,0.274c-0.275-0.287-0.561-0.549-0.854-0.784l-26.729-22.499l19.459-19.842
			c0,0,0.15,0.048,0.399,0.082l9.527,36.163C77.42,235.746,76.958,238.103,76.281,242.352z"/>
		<path id="首_17_" fill="#FBE0C1" stroke="#61461F" stroke-width="2.4885" stroke-linecap="round" stroke-linejoin="round" d="
			M83.596,155.91c3.368-0.574,6.724-1.859,7.821-2.678c7.534-5.608,0.875-27.451,0.875-27.451l38.128,4.715
			c0,0-23.213,15.332-13.015,21.7c3.108,1.944,12.43,4.488,12.43,4.488l-4.115,27.259H97.871L83.596,155.91z"/>
		<g id="腕_25_">
			<g>
				<path id="_x3C_パス_x3E__635_" fill="#FBE0C1" d="M199.442,157.134c-0.17-0.778-6.823-14.566-6.823-14.566l-17.195-4.835
					l-2.516,3.523l3.66,9.021l6.379,9.394l9.7,1.428L199.442,157.134z"/>
				
					<path id="_x3C_パス_x3E__634_" fill="#FBE0C1" stroke="#61461F" stroke-width="2.4885" stroke-linecap="round" stroke-linejoin="round" d="
					M182.81,156.41c0,0-2.989-0.504-4.945-2.086c-4.386-4.761-8.99-9.855-8.99-9.855s-1.437-7.078-0.753-10.652
					c0.973-5.089,4.266-1.076,5.086,1.057c0.818,2.13,1.959,5.296-0.3,6.383"/>
				
					<path id="_x3C_パス_x3E__633_" fill="#FBE0C1" stroke="#61461F" stroke-width="2.4885" stroke-linecap="round" stroke-linejoin="round" d="
					M189.645,156.988c0,0-7.968-3.717-5.054-13.493"/>
				
					<path id="_x3C_パス_x3E__632_" fill="#FBE0C1" stroke="#61461F" stroke-width="2.4885" stroke-linecap="round" stroke-linejoin="round" d="
					M177.902,141.25c-3.968,0.112-8.375-14.026-5.248-15.465c3.875-1.783,16.066-3.449,19.379,3.455
					c2.7,5.623,5.887,18.467,6.383,20.293c1.723,6.344,0.758,9.225,0.758,9.225"/>
				
					<path id="_x3C_パス_x3E__631_" fill="#FBE0C1" stroke="#61461F" stroke-width="2.4885" stroke-linecap="round" stroke-linejoin="round" d="
					M183.339,129.08c-0.333-0.443-8.818-0.797-9.513,2.104c-0.696,2.902,0.66,8.39,2.901,9.039c2.243,0.646,5.429,2.523,6.074,0.519
					"/>
				
					<path id="_x3C_パス_x3E__630_" fill="#FBE0C1" stroke="#61461F" stroke-width="2.4885" stroke-linecap="round" stroke-linejoin="round" d="
					M184.59,133.416c-0.334-0.445-8.659-0.22-9.354,2.682c-0.696,2.9,0.659,8.391,2.901,9.039c2.242,0.646,5.428,2.524,6.075,0.521"
					/>
				
					<path id="_x3C_パス_x3E__629_" fill="#FBE0C1" stroke="#61461F" stroke-width="2.4885" stroke-linecap="round" stroke-linejoin="round" d="
					M185.425,137.732c-0.732,0.15-5.781-0.279-7.631,1.269c-1.852,1.549,0.579,7.906,2.518,9.43
					c1.937,1.522,3.612,0.813,3.755-0.979c0.186-2.315,1.014-4.588-0.983-4.143"/>
			</g>
			<path fill="#737373" stroke="#61461F" stroke-width="2.4885" stroke-linecap="round" stroke-linejoin="round" d="
				M199.426,157.795c-6.485,7.554-18.838,3.599-19.605-1.889c0,0-5.763,16.604-8.067,25.813c-10.868-7.322-23.497-17-26.505-18.132
				l-13.903,25.033c0,0,30.47,16.829,42.497,19.486c3.852,1.302,9.379-1.947,12.365-7.259
				C187.785,198.041,199.426,157.795,199.426,157.795z"/>
			
				<path id="_x3C_パス_x3E__628_" fill="#FFFFFF" stroke="#61461F" stroke-width="2.4885" stroke-linecap="round" stroke-linejoin="round" stroke-miterlimit="10" d="
				M181.279,162.932c3.269,3.182,7.943,4.247,12.217,2.628c4.004-1.516,4.802-3.887,5.929-7.765
				c-1.867,1.228-3.28,2.171-5.475,2.654c-3.15,0.698-10.611,0.664-14.13-4.543C178.741,159.188,179.393,161.098,181.279,162.932z"
				/>
			
				<path fill="none" stroke="#61461F" stroke-width="2.4885" stroke-linecap="round" stroke-linejoin="round" stroke-miterlimit="10" d="
				M171.754,181.719c0,0-3.815,14.702-1.97,17.822"/>
		</g>
		<g id="上半身_9_">
			<g>
				<polygon id="_x3C_パス_x3E__627_" fill="#FFFFFF" points="118.202,229.849 133.372,229.092 127.566,157.484 114.81,161.412 
					89.886,158.892 				"/>
				<g>
					
						<polygon id="_x3C_パス_x3E__626_" fill="#FFFFFF" stroke="#61461F" stroke-width="2.4885" stroke-linecap="round" stroke-linejoin="round" stroke-miterlimit="10" points="
						94.081,146.288 116.053,163.598 107.264,160.394 98.425,171.173 88.411,152.679 					"/>
					
						<polygon id="_x3C_パス_x3E__625_" fill="#FFFFFF" stroke="#61461F" stroke-width="2.4885" stroke-linecap="round" stroke-linejoin="round" stroke-miterlimit="10" points="
						116.979,149.862 115.766,163.598 120.894,160.394 133.05,174.72 126.786,155.905 					"/>
				</g>
				<g>
					
						<path id="_x3C_パス_x3E__624_" fill="#E0B366" stroke="#61461F" stroke-width="2.4885" stroke-linecap="round" stroke-linejoin="round" stroke-miterlimit="10" d="
						M114.014,169.839c0,0-1.69,8.758-1.163,21.439l8.334,64.379l8.176,5.655l5.648-7.815l-9.307-64.228
						c-2.902-12.313-6.874-20.184-6.874-20.184"/>
					
						<path id="_x3C_パス_x3E__623_" fill="#E0B366" stroke="#61461F" stroke-width="2.4885" stroke-linecap="round" stroke-linejoin="round" stroke-miterlimit="10" d="
						M117.777,173.362h-3.917c0,0-0.991,0.677-5.517-11.564h6.547h5.825l0.258,11.564H117.777z"/>
				</g>
			</g>
			<path fill="#737373" stroke="#61461F" stroke-width="2.4885" stroke-linecap="round" stroke-linejoin="round" d="
				M143.704,235.746l0.444-38.397l1.832-33.357c-9.048-5.087-19.169-9.27-19.169-9.27s9.292,23.059-2.931,58.95
				c-24.86-25.796-37.113-58.95-37.113-58.95s-17.878,4.665-24.633,9.559l4.947,32.211l10.341,39.255c0,0-2.975,15.168-4.887,37.929
				h76.492C146.927,254.545,143.704,235.746,143.704,235.746z"/>
			
				<polyline id="_x3C_パス_x3E__622_" fill="none" stroke="#61461F" stroke-width="2.4885" stroke-linecap="round" stroke-linejoin="round" stroke-miterlimit="10" points="
				146.964,262.111 142.029,263.258 140.442,257.636 			"/>
			<circle id="_x3C_パス_x3E__621_" fill="#61461F" cx="123.878" cy="245.839" r="2.193"/>
			<circle id="_x3C_パス_x3E__620_" fill="#61461F" cx="123.878" cy="224.273" r="2.193"/>
			
				<polyline fill="none" stroke="#61461F" stroke-width="2.4885" stroke-linecap="round" stroke-linejoin="round" stroke-miterlimit="10" points="
				128.829,273.675 128.646,221.937 124.408,214.565 			"/>
			<g>
				<g>
					
						<polygon id="_x3C_パス_x3E__619_" fill="#737373" stroke="#61461F" stroke-width="2.4885" stroke-linecap="round" stroke-linejoin="round" points="
						123.49,153.243 130.656,156.454 136.931,167.456 130.227,179.848 127.514,167.984 					"/>
					
						<path id="_x3C_パス_x3E__618_" fill="#737373" stroke="#61461F" stroke-width="2.4885" stroke-linecap="round" stroke-linejoin="round" d="
						M124.223,214.749c0,0,5.112-24.918,3.291-46.765l11.138,13.991L124.223,214.749z"/>
				</g>
				<g>
					
						<polygon id="_x3C_パス_x3E__617_" fill="#737373" stroke="#61461F" stroke-width="2.4885" stroke-linecap="round" stroke-linejoin="round" points="
						88.504,151.813 82.428,155.754 79.234,167.456 94.453,177.78 97.388,169.086 					"/>
					
						<polygon id="_x3C_パス_x3E__616_" fill="#737373" stroke="#61461F" stroke-width="2.4885" stroke-linecap="round" stroke-linejoin="round" points="
						124.408,214.565 97.388,169.086 87.012,181.976 					"/>
				</g>
			</g>
		</g>
		<g>
			
				<path id="_x3C_パス_x3E__615_" fill="#737373" stroke="#61461F" stroke-width="2.4885" stroke-linecap="round" stroke-linejoin="round" d="
				M62.473,164.199c3.803-0.605,9.511,11.161,10.646,22.648c1.47,14.898-5.625,12.653-5.625,12.653l-19.459,19.842l26.729,22.499
				l-12.596,15.522c0,0-27.131-20.167-33.256-36.276C26.247,214.084,58.699,164.797,62.473,164.199z"/>
			
				<line fill="none" stroke="#61461F" stroke-width="2.4885" stroke-linecap="round" stroke-linejoin="round" stroke-miterlimit="10" x1="48.035" y1="219.343" x2="44.716" y2="216.646"/>
			
				<path id="_x3C_パス_x3E__614_" fill="#FFFFFF" stroke="#61461F" stroke-width="2.4885" stroke-linecap="round" stroke-linejoin="round" stroke-miterlimit="10" d="
				M79.343,248.199l-12.741,12.586l-4.436-3.421c-9.627-10.185,6.974-23.69,14.265-13.768L79.343,248.199z"/>
			
				<path id="_x3C_パス_x3E__613_" fill="#FBE0C1" stroke="#61461F" stroke-width="2.4885" stroke-linecap="round" stroke-linejoin="round" d="
				M86.111,258.73c0,0,8.252,2.732,9.477,5.215c0,0-0.191,3.571-3.302,3.077c-3.337-0.53-6.395-1.791-11.131-3.816
				c0,0-14.371,0.228-17.299-4.731c-2.353-3.981,0.67-9.866,3.876-12.05c3.468-2.361,16.232-7.089,16.232-7.089l12.875-2.139
				c0,0,5.217,1.27,6.467,1.279c2.439,0.017,3.82,4.254,0.466,5.407c-1.856,0.64-7.934-0.629-7.934-0.629l-7.746,2.418l8.747,0.484
				c0,0,6.42,2.834,7.794,3.612c3.466,1.962,1.088,5.864-1.579,5.884c-1.333,0.011-8.04-3.343-8.04-3.343l-9.189-0.268l9.189,0.268
				c0,0,7.321,2.706,8.04,3.343c1.709,1.514,0.781,5.831-3.087,5.349c-1.505-0.185-6.246-2.527-6.246-2.527L86.111,258.73z"/>
		</g>
		<path id="髪_34_" fill="#616161" stroke="#61461F" stroke-width="2.4885" stroke-linecap="round" stroke-linejoin="round" d="
			M56.646,106.813c-6.909-6.328-13.771-19.615-16.83-30.784c-4.564-16.667,2.06-43.994,20.092-51.959
			c4.284-6.725,20.723-14.495,40.988-14.241c14.954,0.188,29.728,7.991,47.268,2.718c0,0-5.513,7.001-11.655,7.923
			c0,0,12.979-1.939,24.667,13.053c0,0-7.942-2.55-11.56,0.659c0,0,11.769,7.445,18.686,25.585c0,0-9.309-8.545-12.276-7.095
			c0,0,3.404,7.817,2.566,16.568c-1.044,10.918-7.945,20.768-7.945,20.768l-0.858,11.484"/>
		<g id="顔_17_">
			
				<path id="輪郭_17_" fill="#FBE0C1" stroke="#61461F" stroke-width="2.4885" stroke-linecap="round" stroke-linejoin="round" d="
				M97.471,20.64C68.486,22.159,42.953,41.359,42.83,56.919c-0.125,15.918,3.492,35.421,11.798,46.661
				c1.907,2.577,13.422,11.083,13.422,11.083s2.987,7.331,6.852,12.26c8.441,10.767,33.174,18.976,44.504,18.329
				c7.573-0.433,27.395-13.367,30.322-23.541c2.092-7.279,7.166-58.081-0.086-73.992c-5.358-11.757-15.821-20.333-28.391-24.314
				C113.617,20.985,105.483,20.22,97.471,20.64z"/>
			
				<path id="口_17_" fill="#F5BDBD" stroke="#61461F" stroke-width="2.4885" stroke-linecap="round" stroke-linejoin="round" stroke-miterlimit="10" d="
				M99.147,122.811c3.436,15.478,31.031,18.297,33.144-1.894L99.147,122.811z"/>
			
				<path id="鼻_17_" fill="none" stroke="#61461F" stroke-width="2.4885" stroke-linecap="round" stroke-linejoin="round" stroke-miterlimit="10" d="
				M123.977,101.208c0,0,1.809,5.457,1.667,6.997c-0.068,0.762-1.863,2.113-1.863,2.113"/>
			<g id="目_17_">
				<path id="_x3C_パス_x3E__612_" fill="#61461F" d="M94.639,83.615c2.308-0.131,4.435,1.575,5.706,4.236l-4.57,3.672
					l5.603-0.319c0.079,0.478,0.133,0.969,0.162,1.47c0.298,5.205-2.31,9.585-5.825,9.788c-3.515,0.2-6.605-3.857-6.902-9.059
					C88.514,88.197,91.123,83.815,94.639,83.615z"/>
				
					<path id="_x3C_パス_x3E__611_" fill="none" stroke="#61461F" stroke-width="3.8284" stroke-linecap="round" stroke-linejoin="round" stroke-miterlimit="10" d="
					M141.565,91.245c-2.487-4.982-9.159-2.23-10.898,2.349"/>
			</g>
			<g id="眉_17_">
				
					<path id="_x3C_パス_x3E__610_" fill="none" stroke="#61461F" stroke-width="3.0627" stroke-linecap="round" stroke-linejoin="round" stroke-miterlimit="10" d="
					M85,74.172c0,0,10.631-3.564,19.934,0.915"/>
				
					<path id="_x3C_パス_x3E__609_" fill="none" stroke="#61461F" stroke-width="3.0627" stroke-linecap="round" stroke-linejoin="round" stroke-miterlimit="10" d="
					M146.468,70.661c0,0-6.927-1.25-12.566,2.771"/>
			</g>
		</g>
		<g id="髪_33_">
			<path id="_x3C_パス_x3E__608_" fill="#616161" d="M103.537,13.23C65.975,14.114,46.276,34.9,41.859,51.546
				c-2.75,10.357-0.668,29.729,4.771,39.349c0,0,7.446-1.687,17.599-0.111l7.387-19.742c-3.546-12.465,7.532-20.826,18.039-24.646
				c6.222-2.262,15.572-3.565,15.572-3.565s14.028-0.033,20.465,1.506c10.875,2.597,22.023,9.219,23.525,22.644l2.401,3.98
				c0.499,4.125,1.739,11.505,1.739,11.505l1.797-2.74C159.411,64.736,153.528,11.036,103.537,13.23z"/>
			
				<path id="_x3C_パス_x3E__607_" fill="none" stroke="#61461F" stroke-width="2.4885" stroke-linecap="round" stroke-linejoin="round" stroke-miterlimit="10" d="
				M64.229,90.785l7.387-19.742c-3.546-12.465,7.532-20.826,18.039-24.646c6.222-2.262,15.572-3.565,15.572-3.565
				s14.028-0.033,20.465,1.506c10.875,2.597,22.023,9.219,23.525,22.644l2.401,3.98c0.499,4.125,1.573,16.285,1.573,16.285
				s2.86-7.311,4.2-11.758"/>
			
				<path id="_x3C_パス_x3E__606_" fill="#616161" stroke="#61461F" stroke-width="2.4885" stroke-linecap="round" stroke-linejoin="round" d="
				M127.366,34.303c1.181-0.259,17.239,10.902,11.086,32.151c0,0-7.11-23.751-30.044-29.153"/>
			
				<path id="_x3C_パス_x3E__605_" fill="#616161" stroke="#61461F" stroke-width="2.4885" stroke-linecap="round" stroke-linejoin="round" d="
				M108.194,33.545c0,0,15.277,2.707,14.742,24.21c0,0-4.532-15.655-31.924-17.348"/>
			<g id="耳_17_">
				
					<path id="_x3C_パス_x3E__604_" fill="#FBE0C1" stroke="#61461F" stroke-width="2.4885" stroke-linecap="round" stroke-linejoin="round" d="
					M63.781,91.492c-0.584-8.014-23.114-9.744-16.571,9.333c6.293,18.342,21.041,13.291,21.041,13.291"/>
				
					<path id="_x3C_パス_x3E__603_" fill="none" stroke="#61461F" stroke-width="2.4885" stroke-linecap="round" stroke-linejoin="round" d="
					M54.754,104.402c0,0,1.783,4.262,8.692,4.279c-1.569-4.562-2.95-12.9-7.603-15.776c-3.416-2.108-3.778,0.984-3.611,3.977"/>
			</g>
			
				<path id="_x3C_パス_x3E__602_" fill="#616161" stroke="#61461F" stroke-width="2.4885" stroke-linecap="round" stroke-linejoin="round" d="
				M66.254,75.901l3.662,25.603c0,0-5.441-6.38-11.289-21.582"/>
			
				<path id="_x3C_パス_x3E__601_" fill="#616161" stroke="#61461F" stroke-width="2.4885" stroke-linecap="round" stroke-linejoin="round" d="
				M151.753,71.015l1.394,17.982c0,0,4.892-9.578,5.445-19.758"/>
		</g>
	</g>
</g>
</svg>
