<?xml version="1.0" encoding="utf-8"?>
<!-- Generator: Adobe Illustrator 15.1.0, SVG Export Plug-In . SVG Version: 6.00 Build 0)  -->
<!DOCTYPE svg PUBLIC "-//W3C//DTD SVG 1.1//EN" "http://www.w3.org/Graphics/SVG/1.1/DTD/svg11.dtd">
<svg version="1.1" id="圖層_1" xmlns="http://www.w3.org/2000/svg" xmlns:xlink="http://www.w3.org/1999/xlink" x="0px" y="0px"
	 width="141.73px" height="141.73px" viewBox="0 0 141.73 141.73" enable-background="new 0 0 141.73 141.73" xml:space="preserve">
<g>
	<g>
		<path fill="#607D8B" d="M29.942,111.801L29.942,111.801c-2.356-2.354-2.286-6.194,0.155-8.465L52.35,83.139l6.434,6.381
			l-20.379,22.127C36.139,114.086,32.298,114.156,29.942,111.801z"/>
	</g>
	<path fill="#607D8B" d="M51.044,83.936l7.058,6.985c0.824,0.814,2.155,0.81,2.975-0.018l5.244-5.297
		c11.989,7.354,27.922,5.813,38.236-4.605c12.023-12.147,11.928-31.811-0.219-43.838C92.19,25.139,72.525,25.236,60.5,37.381
		c-10.315,10.42-11.7,26.365-4.225,38.281l-5.246,5.297C50.212,81.785,50.219,83.117,51.044,83.936z M64.907,76.986
		c-0.21-0.209-0.409-0.426-0.613-0.639c-9.191-9.763-9.066-25.175,0.438-34.775c9.714-9.813,25.602-9.893,35.414-0.176
		c9.625,9.526,9.877,24.989,0.718,34.838c-0.179,0.19-0.354,0.389-0.541,0.576C90.607,86.621,74.722,86.703,64.907,76.986z"/>
</g>
</svg>
