<?xml version="1.0" encoding="utf-8"?>
<!-- Generator: Adobe Illustrator 15.1.0, SVG Export Plug-In . SVG Version: 6.00 Build 0)  -->
<!DOCTYPE svg PUBLIC "-//W3C//DTD SVG 1.1//EN" "http://www.w3.org/Graphics/SVG/1.1/DTD/svg11.dtd">
<svg version="1.1" id="圖層_1" xmlns="http://www.w3.org/2000/svg" xmlns:xlink="http://www.w3.org/1999/xlink" x="0px" y="0px"
	 width="141.73px" height="141.73px" viewBox="0 0 141.73 141.73" enable-background="new 0 0 141.73 141.73" xml:space="preserve">
<g>
	<path fill="#607D8B" d="M113.501,98.044c-1.801-5.009-9.371-9.605-14.574-12.236c-2.471-1.245-5.771-2.554-9.368-3.897
		c-3.787-1.421-7.048-2.759-7.025-6.509c0.02-2.977,4.248-6.367,5.729-9.368c7.557-15.408,1.42-36.217-13.798-38.256
		c-14.973-2.011-23.188,8.374-24.207,20.04c-0.678,7.767,0.972,14.149,3.382,18.732c1.61,3.063,5.598,6.26,5.469,9.112
		c-0.152,3.437-3.553,4.943-7.029,6.243c-3.367,1.262-6.881,2.679-9.367,3.897c-5.035,2.481-12.686,6.853-14.576,12.24
		c-0.745,2.127-0.991,6.497-0.258,9.108c0.429,1.538,2.248,3.688,4.125,5.221c0.293,0.188,0.586,0.376,0.898,0.528
		c0.588,0.205,1.178,0.387,1.77,0.546c1.242,0.206,2.439,0.487,3.668,0.662c0.078,0.007,0.168,0.015,0.246,0.019
		c0.273,0.014,0.543,0.023,0.813,0.047c1.244,0.051,2.49,0.026,3.758,0.009c0.076-0.006,0.148,0.002,0.223,0.011
		c0.215-0.009,0.427-0.009,0.634-0.009h60.852c0.799-0.044,1.588-0.158,2.303-0.447c1.242-0.519,2.215-1.444,3.308-2.196
		c0.036-0.022,0.067-0.045,0.1-0.062c1.516-1.291,2.734-2.683,3.191-4.32C114.524,104.45,114.501,100.818,113.501,98.044z"/>
</g>
</svg>
