<?xml version="1.0" encoding="utf-8"?>
<!-- Generator: Adobe Illustrator 15.1.0, SVG Export Plug-In . SVG Version: 6.00 Build 0)  -->
<!DOCTYPE svg PUBLIC "-//W3C//DTD SVG 1.1//EN" "http://www.w3.org/Graphics/SVG/1.1/DTD/svg11.dtd">
<svg version="1.1" id="圖層_1" xmlns="http://www.w3.org/2000/svg" xmlns:xlink="http://www.w3.org/1999/xlink" x="0px" y="0px"
	 width="141.73px" height="141.73px" viewBox="0 0 141.73 141.73" enable-background="new 0 0 141.73 141.73" xml:space="preserve">
<g>
	<g>
		<path fill="#FFFFFF" d="M29.94,111.8L29.94,111.8c-2.354-2.354-2.285-6.195,0.156-8.465L52.35,83.139l6.434,6.379l-20.379,22.127
			C36.14,114.086,32.298,114.156,29.94,111.8z"/>
	</g>
	<path fill="#FFFFFF" d="M51.044,83.934l7.058,6.985c0.825,0.815,2.155,0.811,2.973-0.017l5.246-5.296
		c11.99,7.354,27.922,5.811,38.234-4.606c12.026-12.146,11.93-31.812-0.218-43.838C92.192,25.138,72.526,25.234,60.499,37.38
		C50.185,47.799,48.8,63.744,56.276,75.661l-5.246,5.297C50.21,81.784,50.218,83.115,51.044,83.934z M64.909,76.985
		c-0.213-0.209-0.412-0.425-0.613-0.639c-9.192-9.763-9.067-25.175,0.438-34.774c9.715-9.813,25.602-9.893,35.414-0.178
		c9.623,9.526,9.875,24.989,0.717,34.839c-0.18,0.191-0.354,0.388-0.541,0.576C90.608,86.62,74.722,86.701,64.909,76.985z"/>
</g>
</svg>
