<?xml version="1.0" encoding="utf-8"?>
<!-- Generator: Adobe Illustrator 15.1.0, SVG Export Plug-In . SVG Version: 6.00 Build 0)  -->
<!DOCTYPE svg PUBLIC "-//W3C//DTD SVG 1.1//EN" "http://www.w3.org/Graphics/SVG/1.1/DTD/svg11.dtd">
<svg version="1.1" id="圖層_1" xmlns="http://www.w3.org/2000/svg" xmlns:xlink="http://www.w3.org/1999/xlink" x="0px" y="0px"
	 width="141.73px" height="141.73px" viewBox="0 0 141.73 141.73" enable-background="new 0 0 141.73 141.73" xml:space="preserve">
<g>
	<path fill="#607D8B" d="M48.152,40.633c18.505,0,38.489,0,57.996,0c4.26,0,8.244-0.6,9.141,2.498
		c0.377,1.318-0.229,3.188-0.562,4.845c-1.668,8.42-2.88,14.889-4.561,23.528c-0.57,2.898-0.678,7.281-2.638,8.584
		c-1.2,0.804-4.023,0.877-6.087,1.107c-14.98,1.709-29.902,3.598-44.573,5.397c0.027,0.828-0.711,1.451-0.411,2.498
		c0.725,2.537,9.409,0.89,11.909,0.689c8.831-0.707,17.321-1.254,26.296-1.664c2.025-0.092,4.491-0.193,6.923-0.137
		c3.343,0.076,6.164,0.08,6.229,3.047c0.046,2.057-1.443,3.041-3.734,3.045c-10.965,0.01-21.137,0.52-31.7,1.379
		c-7.233,0.592-16.563,2.539-20.345-2.074c-2.463-3.002-1.52-8.207,0.552-11.492c-4.717-15.532-9.292-31.211-13.979-46.782
		c-3.732-0.57-6.712,0.896-9.963-0.273c-3.451-1.246-2.961-6.578,0.826-7.197c1.907-0.317,4.182,0,7.058,0
		c3.134,0,5.566-0.239,7.056,0.828c1.686,1.199,2,3.638,2.635,5.814C46.856,36.48,47.424,38.529,48.152,40.633z M50.372,48.111
		c1.063,4.051,2.383,7.854,3.461,11.906c4.938,0,9.873,0,14.811,0c0-3.972,0-7.939,0-11.906
		C62.546,48.111,56.459,48.111,50.372,48.111z M72.236,60.018c5.076,0,10.151,0,15.229,0c0-3.972,0-7.939,0-11.906
		c-5.029,0-10.063,0-15.09,0C72.055,51.805,72.331,56.096,72.236,60.018z M91.205,48.111c-0.326,3.693-0.049,7.984-0.135,11.906
		c4.566,0,9.135,0,13.697,0c0.854-3.904,1.54-7.961,2.353-11.906C101.814,48.111,96.511,48.111,91.205,48.111z M59.503,78.701
		c2.99-0.418,6.062-0.762,9.136-1.102c0-4.66,0-9.322,0-13.984c-4.519,0.092-9.411-0.182-13.697,0.141
		C56.544,68.654,57.858,73.846,59.503,78.701z M72.377,63.615c-0.321,4.199-0.046,9.002-0.141,13.426
		c5.206-0.467,10.207-1.147,15.229-1.799c0-3.875,0-7.75,0-11.627C82.437,63.615,77.404,63.615,72.377,63.615z M91.205,63.615
		c-0.326,3.467-0.049,7.523-0.135,11.217c3.77-0.34,7.237-0.973,11.071-1.246c0.729-3.244,1.356-6.58,1.938-9.971
		C99.782,63.615,95.491,63.615,91.205,63.615z"/>
	<path fill="#607D8B" d="M55.764,99.328c3.851-0.313,7.492,2.344,8.025,6.228c0.49,3.571-1.569,6.688-4.01,7.893
		c-5.115,2.52-10.898-1.291-10.939-6.648C48.813,102.535,51.786,99.646,55.764,99.328z"/>
	<path fill="#607D8B" d="M98.259,99.328c3.725-0.26,7.402,2.367,7.891,6.228c0.483,3.868-2.146,7.991-6.089,8.588
		c-6.444,0.973-10.913-5.795-7.891-11.213C93.151,101.166,95.328,99.535,98.259,99.328z"/>
</g>
</svg>
