<?xml version="1.0" encoding="utf-8"?>
<!-- Generator: Adobe Illustrator 15.1.0, SVG Export Plug-In . SVG Version: 6.00 Build 0)  -->
<!DOCTYPE svg PUBLIC "-//W3C//DTD SVG 1.1//EN" "http://www.w3.org/Graphics/SVG/1.1/DTD/svg11.dtd">
<svg version="1.1" id="圖層_1" xmlns="http://www.w3.org/2000/svg" xmlns:xlink="http://www.w3.org/1999/xlink" x="0px" y="0px"
	 width="141.73px" height="141.73px" viewBox="0 0 141.73 141.73" enable-background="new 0 0 141.73 141.73" xml:space="preserve">
<g>
	<path fill="#FFFFFF" d="M48.152,40.633c18.506,0,38.489,0,57.995,0c4.261,0,8.245-0.601,9.142,2.497
		c0.377,1.317-0.228,3.188-0.562,4.846c-1.668,8.42-2.88,14.888-4.561,23.528c-0.568,2.897-0.677,7.279-2.637,8.583
		c-1.201,0.803-4.024,0.877-6.088,1.106c-14.98,1.709-29.902,3.598-44.572,5.397c0.025,0.83-0.711,1.451-0.41,2.498
		c0.723,2.537,9.407,0.89,11.908,0.691c8.832-0.708,17.32-1.255,26.295-1.665c2.025-0.092,4.491-0.193,6.923-0.137
		c3.343,0.076,6.164,0.08,6.229,3.048c0.046,2.057-1.443,3.04-3.734,3.044c-10.964,0.011-21.135,0.52-31.699,1.379
		c-7.234,0.593-16.563,2.539-20.346-2.075c-2.461-3.001-1.519-8.207,0.552-11.49C47.873,66.351,43.296,50.673,38.608,35.1
		c-3.732-0.569-6.71,0.896-9.963-0.272c-3.451-1.247-2.96-6.578,0.828-7.197c1.905-0.318,4.18,0,7.056,0
		c3.135,0,5.566-0.238,7.057,0.828c1.685,1.2,1.999,3.638,2.633,5.813C46.857,36.479,47.423,38.528,48.152,40.633z M50.372,48.111
		c1.065,4.05,2.382,7.854,3.463,11.905c4.937,0,9.871,0,14.809,0c0-3.973,0-7.939,0-11.905
		C62.546,48.111,56.46,48.111,50.372,48.111z M72.236,60.017c5.076,0,10.151,0,15.229,0c0-3.973,0-7.939,0-11.905
		c-5.029,0-10.063,0-15.09,0C72.054,51.805,72.331,56.094,72.236,60.017z M91.207,48.111c-0.328,3.693-0.05,7.981-0.137,11.905
		c4.566,0,9.135,0,13.697,0c0.854-3.903,1.54-7.961,2.353-11.905C101.814,48.111,96.51,48.111,91.207,48.111z M59.501,78.7
		c2.992-0.418,6.063-0.761,9.138-1.102c0-4.659,0-9.321,0-13.984c-4.52,0.091-9.413-0.182-13.698,0.141
		C56.542,68.653,57.858,73.844,59.501,78.7z M72.376,63.614c-0.321,4.199-0.046,9.003-0.141,13.426
		c5.206-0.467,10.207-1.146,15.229-1.799c0-3.875,0-7.75,0-11.627C82.436,63.614,77.404,63.614,72.376,63.614z M91.207,63.614
		c-0.328,3.466-0.05,7.523-0.137,11.218c3.77-0.342,7.237-0.974,11.071-1.246c0.729-3.245,1.356-6.581,1.938-9.972
		C99.782,63.614,95.493,63.614,91.207,63.614z"/>
	<path fill="#FFFFFF" d="M55.763,99.326c3.852-0.312,7.493,2.344,8.025,6.229c0.491,3.571-1.568,6.688-4.009,7.894
		c-5.115,2.519-10.898-1.292-10.939-6.65C48.814,102.533,51.785,99.646,55.763,99.326z"/>
	<path fill="#FFFFFF" d="M98.258,99.326c3.725-0.258,7.402,2.367,7.89,6.229c0.484,3.868-2.145,7.991-6.088,8.589
		c-6.444,0.972-10.913-5.796-7.889-11.214C93.151,101.165,95.328,99.535,98.258,99.326z"/>
</g>
</svg>
