<?xml version="1.0" encoding="utf-8"?>
<!-- Generator: Adobe Illustrator 15.1.0, SVG Export Plug-In . SVG Version: 6.00 Build 0)  -->
<!DOCTYPE svg PUBLIC "-//W3C//DTD SVG 1.1//EN" "http://www.w3.org/Graphics/SVG/1.1/DTD/svg11.dtd">
<svg version="1.1" id="圖層_1" xmlns="http://www.w3.org/2000/svg" xmlns:xlink="http://www.w3.org/1999/xlink" x="0px" y="0px"
	 width="141.73px" height="141.73px" viewBox="0 0 141.73 141.73" enable-background="new 0 0 141.73 141.73" xml:space="preserve">
<g>
	<path fill="#FFFFFF" d="M100.447,86.9c-4.943-4.228-9.958-6.788-14.839-2.566l-2.915,2.551c-2.133,1.852-6.097,10.503-21.427-7.133
		c-15.326-17.61-6.205-20.354-4.07-22.188l2.931-2.555c4.855-4.229,3.023-9.555-0.479-15.035l-2.114-3.32
		c-3.517-5.469-7.348-9.061-12.217-4.836l-2.63,2.299c-2.151,1.567-8.166,6.662-9.625,16.341
		c-1.755,11.614,3.783,24.913,16.473,39.505c12.673,14.6,25.081,21.933,36.836,21.805c9.77-0.105,15.668-5.348,17.513-7.252
		l2.641-2.303c4.856-4.221,1.839-8.518-3.104-12.755L100.447,86.9z"/>
</g>
</svg>
