<?xml version="1.0" encoding="utf-8"?>
<!-- Generator: Adobe Illustrator 15.1.0, SVG Export Plug-In . SVG Version: 6.00 Build 0)  -->
<!DOCTYPE svg PUBLIC "-//W3C//DTD SVG 1.1//EN" "http://www.w3.org/Graphics/SVG/1.1/DTD/svg11.dtd">
<svg version="1.1" id="圖層_1" xmlns="http://www.w3.org/2000/svg" xmlns:xlink="http://www.w3.org/1999/xlink" x="0px" y="0px"
	 width="141.73px" height="141.73px" viewBox="0 0 141.73 141.73" enable-background="new 0 0 141.73 141.73" xml:space="preserve">
<g>
	<path fill="#607D8B" d="M100.446,86.899c-4.942-4.229-9.958-6.787-14.838-2.566l-2.915,2.55
		c-2.133,1.854-6.097,10.503-21.427-7.132c-15.326-17.61-6.206-20.354-4.07-22.188l2.931-2.555
		c4.855-4.229,3.022-9.554-0.479-15.034l-2.113-3.32c-3.518-5.469-7.348-9.062-12.216-4.836l-2.631,2.298
		c-2.151,1.567-8.166,6.663-9.625,16.342C31.307,62.07,36.846,75.37,49.535,89.962c12.673,14.6,25.082,21.933,36.836,21.805
		c9.769-0.106,15.667-5.349,17.513-7.254l2.641-2.302c4.855-4.22,1.839-8.517-3.105-12.754L100.446,86.899z"/>
</g>
</svg>
