<?xml version="1.0" encoding="utf-8"?>
<!-- Generator: Adobe Illustrator 15.1.0, SVG Export Plug-In . SVG Version: 6.00 Build 0)  -->
<!DOCTYPE svg PUBLIC "-//W3C//DTD SVG 1.1//EN" "http://www.w3.org/Graphics/SVG/1.1/DTD/svg11.dtd">
<svg version="1.1" id="圖層_1" xmlns="http://www.w3.org/2000/svg" xmlns:xlink="http://www.w3.org/1999/xlink" x="0px" y="0px"
	 width="141.73px" height="141.73px" viewBox="0 0 141.73 141.73" enable-background="new 0 0 141.73 141.73" xml:space="preserve">
<g>
	<path fill="#FFFFFF" d="M113.501,98.044c-1.801-5.009-9.371-9.604-14.575-12.234c-2.47-1.246-5.771-2.555-9.366-3.899
		c-3.787-1.42-7.05-2.759-7.026-6.509c0.021-2.976,4.248-6.365,5.729-9.367c7.556-15.407,1.42-36.217-13.797-38.257
		c-14.975-2.011-23.188,8.375-24.207,20.041c-0.679,7.767,0.971,14.149,3.381,18.732c1.61,3.063,5.599,6.259,5.469,9.112
		c-0.152,3.436-3.552,4.943-7.029,6.243c-3.368,1.261-6.882,2.679-9.367,3.896c-5.036,2.481-12.686,6.853-14.577,12.24
		c-0.743,2.128-0.99,6.498-0.258,9.108c0.431,1.539,2.249,3.689,4.125,5.221c0.295,0.188,0.587,0.377,0.899,0.528
		c0.588,0.206,1.177,0.387,1.769,0.548c1.244,0.204,2.44,0.486,3.668,0.661c0.079,0.007,0.168,0.015,0.247,0.018
		c0.273,0.014,0.543,0.024,0.813,0.047c1.244,0.051,2.489,0.026,3.758,0.009c0.076-0.004,0.148,0.003,0.222,0.012
		c0.216-0.009,0.427-0.009,0.636-0.009h60.851c0.799-0.045,1.589-0.159,2.304-0.448c1.241-0.517,2.214-1.443,3.306-2.196
		c0.039-0.021,0.067-0.044,0.1-0.062c1.516-1.29,2.734-2.683,3.192-4.32C114.524,104.451,114.501,100.818,113.501,98.044z"/>
</g>
</svg>
