<?xml version="1.0" encoding="utf-8"?>
<!-- Generator: Adobe Illustrator 15.1.0, SVG Export Plug-In . SVG Version: 6.00 Build 0)  -->
<!DOCTYPE svg PUBLIC "-//W3C//DTD SVG 1.1//EN" "http://www.w3.org/Graphics/SVG/1.1/DTD/svg11.dtd">
<svg version="1.1" id="圖層_1" xmlns="http://www.w3.org/2000/svg" xmlns:xlink="http://www.w3.org/1999/xlink" x="0px" y="0px"
	 width="141.73px" height="141.73px" viewBox="0 0 141.73 141.73" enable-background="new 0 0 141.73 141.73" xml:space="preserve">
<g>
	<path fill="#FFFFFF" d="M55.699,44.501V32.34H32.275c-3.361,0-6.082,2.721-6.082,6.08v66.889c0,3.356,2.721,6.082,6.082,6.082
		h66.889c3.355,0,6.079-2.726,6.079-6.082V82.421H93.082v16.808H38.356V44.501H55.699z"/>
	<path fill="#6CC4FF" d="M123.537,53.89c0,0.955-0.453,1.859-1.219,2.434l-24.321,18.24c-0.918,0.692-2.159,0.802-3.188,0.284
		c-1.026-0.516-1.676-1.566-1.676-2.718V63.01H81.517c-10.434,0-19.812,5.803-24.475,15.136l-0.718,1.43
		c-0.524,1.047-1.588,1.681-2.719,1.681c-0.231,0-0.471-0.024-0.701-0.08c-1.366-0.322-2.34-1.551-2.34-2.963
		c0-18.442,15.001-33.443,33.444-33.443h9.122v-9.12c0-1.149,0.648-2.201,1.685-2.719c1.025-0.517,2.267-0.406,3.181,0.286
		l24.321,18.241C123.084,52.029,123.537,52.935,123.537,53.89z"/>
</g>
</svg>
