<?xml version="1.0" encoding="utf-8"?>
<!-- Generator: Adobe Illustrator 15.1.0, SVG Export Plug-In . SVG Version: 6.00 Build 0)  -->
<!DOCTYPE svg PUBLIC "-//W3C//DTD SVG 1.1//EN" "http://www.w3.org/Graphics/SVG/1.1/DTD/svg11.dtd">
<svg version="1.1" id="圖層_1" xmlns="http://www.w3.org/2000/svg" xmlns:xlink="http://www.w3.org/1999/xlink" x="0px" y="0px"
	 width="141.73px" height="141.73px" viewBox="0 0 141.73 141.73" enable-background="new 0 0 141.73 141.73" xml:space="preserve">
<g>
	<path fill="#607D8B" d="M94.739,109.25c-7.085,4.443-15.28,6.815-23.9,6.815c-11.307,0-22.257-4.305-30.558-11.911
		c0.017-0.01,0.032-0.021,0.048-0.03c0.315-0.18,0.651-0.357,0.981-0.538c0.255-0.141,0.501-0.28,0.766-0.422
		c0.604-0.318,1.228-0.638,1.87-0.954c2.673-1.312,6.43-2.783,9.11-3.786c3.021-1.13,8.644-3.231,8.891-8.802
		c0.13-2.875-1.792-5.273-3.65-7.595c-0.822-1.027-1.675-2.09-2.146-2.983c-1.783-3.392-3.762-9.121-3.063-17.147
		c0.711-8.151,5.775-17.671,17.707-17.671c1.05,0,2.146,0.074,3.263,0.225c6.192,0.831,9.709,5.15,11.566,8.629
		c3.976,7.438,3.987,17.455,0.033,25.516c-0.431,0.873-1.331,1.99-2.202,3.07c-1.869,2.319-3.803,4.718-3.82,7.548
		c-0.031,5.212,4.035,7.319,7.587,8.717c1.272-1.557,3.207-2.553,5.369-2.553h3.868c-1.947-0.818-4.013-1.609-5.92-2.324
		c-4.16-1.561-5.174-2.308-5.165-3.804c0.005-0.824,1.537-2.725,2.549-3.98c1.067-1.323,2.17-2.692,2.886-4.142
		c4.74-9.67,4.693-21.741-0.123-30.753c-3.521-6.589-9.155-10.712-15.867-11.611c-1.365-0.184-2.719-0.276-4.024-0.276
		c-14.801,0-22.429,11.508-23.425,22.912c-0.82,9.416,1.561,16.246,3.701,20.317c0.727,1.382,1.753,2.662,2.745,3.901
		c0.909,1.134,2.43,3.031,2.396,3.748c-0.058,1.313-1.41,2.278-5.169,3.683c-2.801,1.051-6.744,2.597-9.629,4.013
		c-0.621,0.307-1.218,0.612-1.807,0.923c-0.151,0.079-0.3,0.158-0.449,0.238c-0.538,0.286-1.063,0.573-1.571,0.861
		c-0.044,0.025-0.091,0.05-0.135,0.075c-0.427,0.245-0.844,0.49-1.25,0.735c-6.829-8.135-10.563-18.352-10.563-29.027
		c0-24.923,20.276-45.2,45.199-45.2c24.925,0,45.2,20.277,45.2,45.2c0,5.985-1.177,11.825-3.41,17.234
		c0.051,0.336,0.084,0.68,0.084,1.029v6.246h2.771c4.1-7.445,6.295-15.838,6.295-24.511c0-28.088-22.853-50.939-50.939-50.939
		c-28.089,0-50.939,22.853-50.939,50.939c0,11.812,4.066,23.116,11.495,32.197l-0.103,0.068l2.289,2.455l1.674,1.795l0.054-0.036
		c9.475,9.217,22.283,14.46,35.53,14.46c9.995,0,19.743-3.002,28-8.431v-4.125L94.739,109.25L94.739,109.25z"/>
	<path fill="#607D8B" d="M118.959,99.443h-5.971h-0.275h-4.066v-3.827v-0.24V89.13c0-1.585-1.284-2.869-2.869-2.869
		s-2.87,1.284-2.87,2.869v6.246v3.146v0.923H98.84h-6.246c-0.335,0-0.652,0.068-0.949,0.174c-1.116,0.395-1.92,1.446-1.92,2.696
		c0,1.585,1.285,2.87,2.869,2.87h6.246h1.395h2.643h0.031v0.019v4.048v1.154v5.093c0,1.585,1.285,2.87,2.87,2.87
		s2.869-1.285,2.869-2.87v-6.247v-4.065h4.066h6.246c1.585,0,2.871-1.285,2.871-2.87S120.545,99.443,118.959,99.443z"/>
</g>
</svg>
