<?xml version="1.0" encoding="utf-8"?>
<!-- Generator: Adobe Illustrator 15.1.0, SVG Export Plug-In . SVG Version: 6.00 Build 0)  -->
<!DOCTYPE svg PUBLIC "-//W3C//DTD SVG 1.1//EN" "http://www.w3.org/Graphics/SVG/1.1/DTD/svg11.dtd">
<svg version="1.1" id="圖層_1" xmlns="http://www.w3.org/2000/svg" xmlns:xlink="http://www.w3.org/1999/xlink" x="0px" y="0px"
	 width="34.158px" height="32.539px" viewBox="0 0 34.158 32.539" enable-background="new 0 0 34.158 32.539" xml:space="preserve">
<path fill="#FFFFFF" d="M34.074,12.671c-0.022-0.687-0.199-1.217-0.314-1.811c-0.187-0.536-0.324-1.12-0.59-1.574
	c-0.397-1.033-0.975-1.885-1.574-2.716c-0.629-0.8-1.328-1.531-2.085-2.203C26.382,1.789,22.431,0.036,16.762,0
	c-0.05,0.003-0.054,0.051-0.119,0.039C11.693,0.151,8.19,1.71,5.273,3.856C3.878,4.993,2.625,6.285,1.692,7.87
	C0.759,9.453,0.045,11.329,0,13.772c0.018,2.513,0.681,4.382,1.614,5.979c0.907,1.624,2.125,2.938,3.542,4.053
	c1.395,1.137,3.049,2.014,4.878,2.714c0.938,0.323,1.92,0.601,2.951,0.827c1.082,0.191,2.33,0.215,2.794,1.022
	c0,0.039,0.032,0.049,0.04,0.079c0.236,1.044-0.116,2.131-0.236,3.068c-0.043,0.332-0.097,0.685,0.157,0.944
	c0.599,0.226,1.256-0.083,1.653-0.313c0.5-0.208,0.951-0.466,1.377-0.748c0.48-0.227,0.891-0.525,1.338-0.786
	c0.459-0.264,0.854-0.589,1.338-0.826c0.396-0.312,0.829-0.587,1.258-0.866c0.207-0.149,0.401-0.309,0.63-0.434
	c0.201-0.152,0.385-0.322,0.63-0.433c0.377-0.331,0.799-0.617,1.22-0.905c0.386-0.334,0.802-0.64,1.22-0.944
	c0.76-0.655,1.553-1.278,2.282-1.967c0.743-0.686,1.433-1.427,2.124-2.164c0.625-0.805,1.297-1.563,1.771-2.518
	c0.17-0.184,0.254-0.454,0.393-0.668c0.096-0.26,0.245-0.465,0.314-0.748c0.243-0.479,0.397-1.047,0.551-1.614
	C34.109,15.454,34.263,13.952,34.074,12.671z M10.467,18.025c-0.158,0.158-0.35,0.237-0.576,0.237H6.565
	c-0.254,0-0.47-0.089-0.65-0.27c-0.179-0.18-0.269-0.396-0.269-0.648v-6.211c0-0.255,0.09-0.47,0.269-0.65
	c0.18-0.179,0.396-0.27,0.65-0.27H6.66c0.253,0,0.47,0.091,0.65,0.27c0.179,0.181,0.27,0.396,0.27,0.65v5.396
	c0,0.071,0.035,0.106,0.105,0.106h2.207c0.226,0,0.418,0.08,0.576,0.237c0.158,0.159,0.238,0.351,0.238,0.576
	C10.705,17.674,10.625,17.867,10.467,18.025z M13.816,17.345c0,0.253-0.09,0.469-0.269,0.648c-0.18,0.181-0.396,0.27-0.65,0.27
	h-0.095c-0.254,0-0.47-0.089-0.65-0.27c-0.179-0.18-0.27-0.396-0.27-0.648v-6.211c0-0.255,0.09-0.47,0.27-0.65
	c0.18-0.179,0.396-0.27,0.65-0.27h0.095c0.254,0,0.47,0.091,0.65,0.27c0.179,0.181,0.269,0.396,0.269,0.65V17.345z M21.838,17.345
	c0,0.253-0.09,0.469-0.269,0.648c-0.18,0.181-0.396,0.27-0.65,0.27h-0.127c-0.281,0-0.543-0.073-0.787-0.223
	c-0.242-0.147-0.428-0.344-0.555-0.59l-1.573-3.074l-0.771-1.731c-0.007-0.022-0.019-0.032-0.036-0.032s-0.027,0.01-0.027,0.032
	c0.008,0.112,0.037,0.4,0.09,0.866c0.053,0.464,0.092,0.855,0.117,1.172c0.024,0.315,0.037,0.619,0.037,0.908v1.754
	c0,0.253-0.09,0.469-0.27,0.648c-0.18,0.181-0.396,0.27-0.65,0.27s-0.47-0.089-0.65-0.27c-0.179-0.18-0.269-0.396-0.269-0.648
	v-6.211c0-0.255,0.09-0.47,0.269-0.65c0.18-0.179,0.396-0.27,0.65-0.27h0.126c0.282,0,0.545,0.075,0.787,0.221
	c0.243,0.149,0.432,0.348,0.564,0.593l1.574,3.042l0.781,1.753c0.008,0.021,0.02,0.033,0.037,0.033s0.023-0.012,0.017-0.033
	C20.085,14.478,20,13.496,20,12.877v-1.743c0-0.255,0.09-0.47,0.269-0.65c0.181-0.179,0.397-0.27,0.65-0.27
	c0.254,0,0.471,0.091,0.65,0.27c0.179,0.181,0.269,0.396,0.269,0.65V17.345z M28.483,18.025c-0.159,0.158-0.351,0.237-0.576,0.237
	h-3.496c-0.254,0-0.47-0.089-0.649-0.27c-0.18-0.18-0.27-0.396-0.27-0.648v-6.211c0-0.255,0.09-0.47,0.27-0.65
	c0.18-0.179,0.396-0.27,0.649-0.27h3.391c0.218,0,0.405,0.08,0.56,0.237c0.155,0.159,0.232,0.347,0.232,0.566
	c0,0.219-0.077,0.407-0.232,0.564c-0.154,0.159-0.342,0.238-0.56,0.238h-2.271c-0.071,0-0.105,0.034-0.105,0.105v1.278
	c0,0.07,0.034,0.105,0.105,0.105h1.785c0.218,0,0.406,0.078,0.564,0.237c0.158,0.158,0.237,0.35,0.237,0.575
	s-0.079,0.417-0.237,0.576s-0.347,0.237-0.564,0.237h-1.785c-0.071,0-0.105,0.035-0.105,0.105v1.489
	c0,0.071,0.034,0.106,0.105,0.106h2.376c0.226,0,0.417,0.08,0.576,0.237c0.157,0.159,0.237,0.351,0.237,0.576
	C28.72,17.674,28.64,17.867,28.483,18.025z"/>
</svg>
