<?xml version="1.0" encoding="utf-8"?>
<!-- Generator: Adobe Illustrator 15.1.0, SVG Export Plug-In . SVG Version: 6.00 Build 0)  -->
<!DOCTYPE svg PUBLIC "-//W3C//DTD SVG 1.1//EN" "http://www.w3.org/Graphics/SVG/1.1/DTD/svg11.dtd">
<svg version="1.1" id="圖層_1" xmlns="http://www.w3.org/2000/svg" xmlns:xlink="http://www.w3.org/1999/xlink" x="0px" y="0px"
	 width="977.238px" height="873.432px" viewBox="0 0 977.238 873.432" enable-background="new 0 0 977.238 873.432"
	 xml:space="preserve">
<g>
	<path opacity="0.4" fill="#FFFFFF" enable-background="new    " d="M159.067,750.128c-12.078-30.633-11.026-66.179-29.083-94.723
		c-21.621-34.166-60.599-53.038-83.926-85.963C11.585,520.798-5.406,459.9,1.526,400.533c3.34-28.604,12.198-56.896,28.998-79.6
		c25.898-35.005,67.932-53.401,109.932-62.318c62.518-13.273,134.803-5.838,194.115-31.17
		c32.734-13.982,32.267-53.737,42.637-83.104c11.729-33.219,32.361-62.68,57.955-85.792C482.312,15.993,547.488-5.943,610.676,1.398
		c67.447,7.856,138.068,54.783,155.426,126.281c8.029,33.081,4.531,69.316,20.025,99.579c19.438,37.971,60.545,65.685,92.164,91.97
		c34.924,29.031,62.322,67.852,78.193,111.027c0.174,0.485,0.357,0.979,0.527,1.471c26.9,74.612-0.572,158.006-65.832,203.088
		c0,0-138.85,95.921-138.854,95.925C611.43,828.075,455.03,872.355,289.368,839.351c-35.85-7.134-100.717-40.787-121.007-71.193
		C164.531,762.415,161.524,756.379,159.067,750.128"/>
	<path opacity="0.4" fill="#FFFFFF" enable-background="new    " d="M119.153,258.731c-1.5,32.893,11.019,66.178,3.188,99.031
		c-9.378,39.334-40.126,69.816-51.524,108.521c-16.839,57.199-13.172,120.319,12.629,174.23
		c12.43,25.979,29.984,49.866,53.232,65.896c35.848,24.722,81.577,28.501,124.198,23.323
		c63.438-7.713,129.416-38.174,193.739-33.438c35.496,2.62,47.935,40.373,67.275,64.796c21.859,27.627,50.928,48.804,82.633,62.376
		c58.395,24.977,127.156,24.598,184.549-2.835c61.268-29.297,112.857-96.578,106.102-169.844
		c-3.125-33.895-18.186-67.042-13.34-100.688c6.084-42.227,35.99-81.768,57.381-116.885c23.625-38.788,36.963-84.393,37.971-130.377
		c0.016-0.521,0.027-1.043,0.031-1.563c1.258-79.312-51.76-149.289-128.109-170.781c0,0-162.445-45.729-162.459-45.729
		c-164.83-46.407-327.134-37.601-473.156,47.319c-31.601,18.372-82.058,71.23-91.391,106.575
		C120.339,245.327,119.455,252.023,119.153,258.731"/>
	<path fill="#F9DEA0" d="M411.504,364.132l-2.846,244.28c-10.048,81.258-154.104,145.772-154.104,145.772
		S110.501,689.669,100.45,608.412l-3.016-244.28l153.967-50.682L411.504,364.132z"/>
	<path fill="#F9C33D" d="M391.425,379.594l-2.479,219.281c-8.767,70.866-134.401,127.133-134.401,127.133
		s-125.643-56.267-134.402-127.133l-2.628-219.281l134.279-44.195L391.425,379.594z"/>
	
		<path fill="none" stroke="#FFFFFF" stroke-width="6.2331" stroke-linecap="round" stroke-linejoin="round" stroke-miterlimit="10" stroke-dasharray="0,68.5638" d="
		M382.599,393.434l-2.325,201.296c-8.218,66.438-126.005,119.187-126.005,119.187s-117.778-52.75-125.996-119.187l-2.467-201.296
		l125.887-41.435L382.599,393.434z"/>
	<rect x="617.602" y="281.708" fill="#F9DEA0" width="277.129" height="486.265"/>
	<rect x="638.07" y="300.818" fill="#F9C33D" width="236.535" height="448.293"/>
	<path fill="#FFFFFF" d="M641.568,670.787c0-1.725,1.393-3.116,3.117-3.116c1.723,0,3.115,1.393,3.115,3.116
		s-1.393,3.116-3.115,3.116C642.961,673.904,641.568,672.51,641.568,670.787"/>
	<path fill="#FFFFFF" d="M641.568,598.172c0-1.726,1.393-3.116,3.117-3.116c1.723,0,3.115,1.392,3.115,3.116
		c0,1.705-1.393,3.117-3.115,3.117C642.961,601.289,641.568,599.879,641.568,598.172"/>
	<path fill="#FFFFFF" d="M641.568,525.56c0-1.723,1.393-3.116,3.117-3.116c1.723,0,3.115,1.395,3.115,3.116
		c0,1.727-1.393,3.116-3.115,3.116C642.961,528.676,641.568,527.286,641.568,525.56"/>
	<path fill="#FFFFFF" d="M641.568,452.948c0-1.702,1.393-3.116,3.117-3.116c1.723,0,3.115,1.414,3.115,3.116
		c0,1.726-1.393,3.116-3.115,3.116C642.961,456.065,641.568,454.674,641.568,452.948"/>
	<path fill="#FFFFFF" d="M641.568,380.339c0-1.726,1.393-3.116,3.117-3.116c1.723,0,3.115,1.392,3.115,3.116
		c0,1.724-1.393,3.117-3.115,3.117C642.961,383.456,641.568,382.063,641.568,380.339"/>
	<path fill="#FFFFFF" d="M644.686,310.841c-0.828,0-1.641-0.332-2.201-0.917c-0.145-0.141-0.295-0.288-0.396-0.476
		c-0.102-0.166-0.207-0.333-0.287-0.52c-0.086-0.213-0.146-0.397-0.166-0.604c-0.045-0.187-0.066-0.394-0.066-0.601
		c0-0.813,0.334-1.623,0.918-2.206c0.121-0.144,0.287-0.271,0.455-0.391c0.166-0.106,0.354-0.215,0.539-0.272
		c0.191-0.081,0.398-0.146,0.584-0.187c0.414-0.081,0.809-0.081,1.227,0c0.188,0.04,0.395,0.104,0.58,0.187
		c0.188,0.06,0.373,0.166,0.539,0.272c0.166,0.121,0.332,0.247,0.48,0.391c0.576,0.581,0.908,1.393,0.908,2.206
		c0,0.207-0.021,0.414-0.063,0.601c-0.039,0.207-0.104,0.393-0.186,0.604c-0.086,0.187-0.166,0.354-0.293,0.52
		c-0.102,0.188-0.229,0.333-0.373,0.476C646.309,310.509,645.496,310.841,644.686,310.841"/>
	<path fill="#FFFFFF" d="M789.916,307.725c0-1.725,1.393-3.116,3.115-3.116c1.725,0,3.117,1.393,3.117,3.116
		s-1.393,3.116-3.117,3.116C791.309,310.841,789.916,309.449,789.916,307.725 M715.742,307.725c0-1.725,1.395-3.116,3.117-3.116
		c1.725,0,3.117,1.393,3.117,3.116s-1.393,3.116-3.117,3.116C717.137,310.841,715.742,309.449,715.742,307.725"/>
	<path fill="#FFFFFF" d="M867.209,310.841c-0.213,0-0.398-0.021-0.605-0.064c-0.207-0.041-0.393-0.102-0.58-0.167
		c-0.186-0.081-0.373-0.187-0.539-0.288c-0.166-0.128-0.334-0.251-0.479-0.396c-0.58-0.578-0.91-1.371-0.91-2.199
		c0-0.813,0.33-1.623,0.91-2.206c0.145-0.144,0.313-0.271,0.479-0.373c0.166-0.126,0.354-0.23,0.539-0.292
		c0.188-0.081,0.373-0.146,0.58-0.187c0.395-0.081,0.813-0.081,1.227,0c0.188,0.04,0.373,0.104,0.584,0.187
		c0.188,0.06,0.354,0.166,0.52,0.292c0.188,0.103,0.33,0.229,0.475,0.373c0.586,0.581,0.918,1.393,0.918,2.206
		c0,0.826-0.332,1.619-0.918,2.199c-0.145,0.146-0.287,0.271-0.475,0.396c-0.166,0.103-0.332,0.207-0.52,0.288
		c-0.211,0.065-0.396,0.128-0.584,0.167C867.623,310.823,867.416,310.841,867.209,310.841"/>
	<path fill="#FFFFFF" d="M644.686,746.515c-0.828,0-1.641-0.332-2.201-0.915c-0.145-0.144-0.295-0.29-0.396-0.475
		c-0.102-0.166-0.207-0.333-0.287-0.521c-0.086-0.211-0.146-0.396-0.166-0.604c-0.045-0.188-0.066-0.395-0.066-0.602
		c0-0.813,0.334-1.621,0.918-2.205c0.121-0.145,0.287-0.271,0.455-0.392c0.166-0.105,0.354-0.211,0.539-0.272
		c0.191-0.081,0.398-0.144,0.584-0.188c0.414-0.081,0.809-0.081,1.227,0c0.188,0.045,0.395,0.106,0.58,0.188
		c0.188,0.063,0.373,0.165,0.539,0.272c0.166,0.123,0.332,0.247,0.48,0.392c0.576,0.582,0.908,1.393,0.908,2.205
		c0,0.207-0.021,0.414-0.063,0.602c-0.039,0.209-0.104,0.394-0.186,0.604c-0.086,0.188-0.166,0.354-0.293,0.521
		c-0.102,0.187-0.229,0.331-0.373,0.475C646.309,746.183,645.496,746.515,644.686,746.515"/>
	<path fill="#FFFFFF" d="M789.916,743.399c0-1.725,1.393-3.116,3.115-3.116c1.725,0,3.117,1.393,3.117,3.116
		c0,1.725-1.393,3.116-3.117,3.116C791.309,746.515,789.916,745.124,789.916,743.399 M715.742,743.399
		c0-1.725,1.395-3.116,3.117-3.116c1.725,0,3.117,1.393,3.117,3.116c0,1.725-1.393,3.116-3.117,3.116
		C717.137,746.515,715.742,745.124,715.742,743.399"/>
	<path fill="#FFFFFF" d="M867.209,746.515c-0.213,0-0.398-0.021-0.605-0.063s-0.393-0.104-0.58-0.166
		c-0.186-0.084-0.373-0.188-0.539-0.291c-0.166-0.127-0.334-0.251-0.479-0.396c-0.58-0.582-0.91-1.371-0.91-2.201
		c0-0.813,0.33-1.621,0.91-2.205c0.145-0.145,0.313-0.271,0.479-0.374c0.166-0.128,0.354-0.229,0.539-0.292
		c0.188-0.081,0.373-0.144,0.58-0.188c0.395-0.081,0.813-0.081,1.227,0c0.188,0.045,0.373,0.106,0.584,0.188
		c0.188,0.062,0.354,0.164,0.52,0.292c0.188,0.104,0.33,0.229,0.475,0.374c0.586,0.582,0.918,1.393,0.918,2.205
		c0,0.828-0.332,1.617-0.918,2.201c-0.145,0.145-0.287,0.271-0.475,0.396c-0.166,0.104-0.332,0.207-0.52,0.291
		c-0.211,0.063-0.396,0.125-0.584,0.166C867.623,746.493,867.416,746.515,867.209,746.515"/>
	<path fill="#FFFFFF" d="M864.092,670.787c0-1.725,1.393-3.116,3.117-3.116c1.723,0,3.115,1.393,3.115,3.116
		s-1.393,3.116-3.115,3.116C865.484,673.904,864.092,672.51,864.092,670.787"/>
	<path fill="#FFFFFF" d="M864.092,598.172c0-1.726,1.393-3.116,3.117-3.116c1.723,0,3.115,1.392,3.115,3.116
		c0,1.705-1.393,3.117-3.115,3.117C865.484,601.289,864.092,599.879,864.092,598.172"/>
	<path fill="#FFFFFF" d="M864.092,525.56c0-1.723,1.393-3.116,3.117-3.116c1.723,0,3.115,1.395,3.115,3.116
		c0,1.727-1.393,3.116-3.115,3.116C865.484,528.676,864.092,527.286,864.092,525.56"/>
	<path fill="#FFFFFF" d="M864.092,452.948c0-1.725,1.393-3.116,3.117-3.116c1.723,0,3.115,1.393,3.115,3.116
		c0,1.725-1.393,3.116-3.115,3.116C865.484,456.065,864.092,454.674,864.092,452.948"/>
	<path fill="#FFFFFF" d="M864.092,380.339c0-1.726,1.393-3.116,3.117-3.116c1.723,0,3.115,1.392,3.115,3.116
		c0,1.724-1.393,3.117-3.115,3.117C865.484,383.456,864.092,382.063,864.092,380.339"/>
	<polygon fill="#E5CE9E" points="464.823,135.988 369.113,135.988 374.33,76.333 470.039,76.333 	"/>
	<polygon fill="#FFF8EB" points="466.76,68.227 464.145,99.38 461.527,136.813 369.467,136.813 374.702,68.227 	"/>
	<polygon fill="#F9DEA0" points="457.957,76.339 463.175,135.991 367.471,135.991 362.252,76.339 370.393,76.339 373.225,71.855 
		399.005,71.855 402.697,76.339 	"/>
	<rect x="511.322" y="149.305" fill="#E5CE9E" width="101.84" height="101.842"/>
	<rect x="613.16" y="149.305" fill="#F9DEA0" width="2.6" height="101.842"/>
	<rect x="520.721" y="158.726" fill="#F4F4F4" width="83.027" height="83.026"/>
	<rect x="520.742" y="158.726" fill="#F9DEA0" width="0.76" height="83.026"/>
	<path fill="#F9DEA0" d="M546.83,191.62c0,11.387,7.246,20.622,16.188,20.622c8.939,0,16.184-9.233,16.184-20.622
		c0-11.388-7.242-20.618-16.184-20.618C554.074,171.002,546.83,180.231,546.83,191.62"/>
	<rect x="554.553" y="205.593" fill="#F9DEA0" width="17.061" height="17.063"/>
	<path fill="#F9DEA0" d="M531.275,241.749h62.502v-5.811c0-11.062-8.965-20.032-20.025-20.032h-22.449
		c-11.059,0-20.029,8.97-20.029,20.032v5.811H531.275z"/>
	<path fill="#F9DEA0" d="M529.705,207.099c0,3.398,6.156,6.154,6.156,6.154s6.154-2.757,6.154-6.154
		c0-1.613-2.264-2.523-3.721-2.109c-1.611,0.459-2.436,2.346-2.436,2.346s-1.521-2.018-3.051-2.502
		C531.264,204.341,529.705,205.388,529.705,207.099"/>
	<path fill="#F9DEA0" d="M585.008,191.959c0,4.46,8.08,8.082,8.08,8.082s8.082-3.62,8.082-8.082c0-2.118-2.975-3.315-4.881-2.769
		c-2.123,0.604-3.201,3.076-3.201,3.076s-1.998-2.644-4.006-3.283C587.049,188.338,585.008,189.715,585.008,191.959"/>
	<path fill="#F9DEA0" d="M305.509,252.206c-13.33,1.857-25.699-7.478-27.558-20.809c-1.862-13.334,7.476-25.698,20.81-27.56
		c13.335-1.862,25.695,7.473,27.558,20.808C328.177,237.98,318.844,250.341,305.509,252.206 M300.548,216.688
		c-6.245,0.873-10.617,6.667-9.745,12.913c0.873,6.251,6.668,10.623,12.913,9.751s10.623-6.663,9.751-12.913
		C312.595,220.192,306.8,215.82,300.548,216.688"/>
	
		<rect x="291.235" y="155.541" transform="matrix(0.9904 -0.1382 0.1382 0.9904 -22.7807 42.6788)" fill="#F9DEA0" width="9.269" height="59.61"/>
	
		<rect x="287.218" y="148.861" transform="matrix(0.9904 -0.1383 0.1383 0.9904 -18.3849 42.4007)" fill="#F9DEA0" width="17.399" height="9.269"/>
	
		<rect x="289.933" y="160.535" transform="matrix(0.9904 -0.1382 0.1382 0.9904 -19.9632 42.7773)" fill="#F9DEA0" width="16.361" height="9.269"/>
	
		<rect x="294.325" y="176.974" transform="matrix(0.9904 -0.1384 0.1384 0.9904 -22.2356 43.4753)" fill="#F9DEA0" width="14.28" height="9.271"/>
	<path fill="#007CFF" d="M299.11,421.47c2.532,28.932-18.873,52.387-47.803,52.387c-28.938,0-54.441-23.455-56.974-52.387
		c-2.528-28.935,18.869-52.389,47.807-52.389C271.075,369.084,296.583,392.539,299.11,421.47"/>
	<g opacity="0.8">
		<g>
			<g>
				<g>
					<defs>
						<rect id="SVGID_1_" x="194.132" y="369.084" width="105.181" height="104.772"/>
					</defs>
					<clipPath id="SVGID_2_">
						<use xlink:href="#SVGID_1_"  overflow="visible"/>
					</clipPath>
					<path clip-path="url(#SVGID_2_)" fill="#FFFFFF" d="M299.11,421.47c2.532,28.932-18.873,52.387-47.803,52.387
						c-28.938,0-54.441-23.455-56.974-52.387c-2.528-28.935,18.869-52.389,47.807-52.389
						C271.075,369.084,296.583,392.539,299.11,421.47"/>
				</g>
			</g>
		</g>
	</g>
	<path fill="#007CFF" d="M222.313,388.609c-0.638,0-1.26-0.292-1.672-0.84c-0.682-0.921-0.487-2.222,0.43-2.905
		c6.6-4.896,14.905-7.482,24.023-7.482h0.03c1.149,0,2.078,0.93,2.078,2.078c0,1.147-0.935,2.076-2.078,2.076c0,0-0.017,0-0.03,0
		c-8.222,0-15.672,2.306-21.542,6.663C223.177,388.477,222.743,388.609,222.313,388.609"/>
	<path fill="#007CFF" d="M232.141,460.087c-0.333,0-0.665-0.077-0.98-0.248c-12.877-6.896-21.891-19.149-24.723-33.62
		c-2.553-13.028,0.487-25.925,8.335-35.386c0.732-0.876,2.045-1.002,2.927-0.271c0.885,0.734,1.007,2.041,0.271,2.926
		c-7.048,8.497-9.768,20.135-7.454,31.931c2.589,13.242,10.831,24.456,22.607,30.762c1.011,0.54,1.392,1.798,0.852,2.813
		C233.6,459.691,232.879,460.087,232.141,460.087"/>
	<path fill="#007CFF" d="M252.934,465.507c-4.479,0-9.081-0.729-13.688-2.211c-1.093-0.353-1.692-1.521-1.34-2.613
		c0.35-1.096,1.525-1.698,2.613-1.344c12.778,4.114,25.541,1.826,35.004-6.287c9.646-8.272,14.131-21.165,11.996-34.487
		c-0.183-1.132,0.588-2.197,1.721-2.378c1.129-0.189,2.197,0.589,2.381,1.721c2.366,14.76-2.641,29.073-13.395,38.298
		C271.08,462.339,262.272,465.507,252.934,465.507"/>
	<path fill="#007CFF" d="M287.886,413.285c-0.881,0-1.692-0.561-1.979-1.438c-3.829-11.9-12.821-21.917-24.049-26.795
		c-1.058-0.459-1.537-1.684-1.081-2.731c0.454-1.055,1.677-1.538,2.732-1.079c12.309,5.348,22.165,16.315,26.353,29.331
		c0.354,1.095-0.246,2.266-1.339,2.613C288.308,413.254,288.097,413.285,287.886,413.285"/>
	<path fill="#007CFF" d="M255.134,382.709c-0.156,0-0.319-0.018-0.479-0.056c-3.124-0.737-6.334-1.113-9.531-1.116
		c-1.15-0.004-2.077-0.933-2.077-2.08c0.004-1.146,0.933-2.074,2.077-2.074h0.004c3.517,0.002,7.051,0.414,10.481,1.229
		c1.12,0.265,1.811,1.385,1.547,2.5C256.927,382.068,256.077,382.709,255.134,382.709"/>
	<path fill="#007CFF" d="M218.491,432.356c-0.849,0-1.644-0.525-1.949-1.361c-3.902-10.608-2.577-21.802,3.64-30.711
		c5.955-8.531,15.44-13.428,26.019-13.428h0.009c1.149,0,2.077,0.932,2.077,2.077s-0.934,2.078-2.077,2.078H246.2
		c-9.199,0-17.442,4.247-22.61,11.651c-5.426,7.773-6.574,17.579-3.149,26.894c0.397,1.079-0.158,2.273-1.232,2.668
		C218.971,432.311,218.726,432.356,218.491,432.356"/>
	<path fill="#007CFF" d="M251.445,456.073h-0.02c-12.062-0.124-24.283-7.031-31.138-17.602c-0.625-0.962-0.354-2.248,0.612-2.873
		c0.962-0.627,2.248-0.349,2.873,0.613c6.115,9.433,16.982,15.597,27.691,15.706c1.147,0.015,2.069,0.948,2.058,2.101
		C253.513,455.156,252.585,456.073,251.445,456.073"/>
	<path fill="#007CFF" d="M259.204,455.173c-0.932,0-1.779-0.634-2.018-1.575c-0.275-1.113,0.402-2.241,1.518-2.521
		c16.854-4.197,21.217-18.927,19.832-30.267c-1.807-14.793-13.492-29.781-32.334-29.802c-1.149,0-2.077-0.935-2.073-2.08
		c0-1.148,0.928-2.075,2.078-2.075l0,0c21.254,0.022,34.422,16.847,36.452,33.454c2.097,17.146-6.914,30.808-22.951,34.801
		C259.536,455.154,259.37,455.173,259.204,455.173"/>
	<path fill="#007CFF" d="M237.717,402.485c-0.788,0-1.538-0.445-1.888-1.203c-0.484-1.041-0.028-2.275,1.011-2.759
		c3.101-1.435,6.599-2.192,10.107-2.192c1.148,0,2.078,0.927,2.078,2.076c0,1.148-0.93,2.078-2.078,2.078
		c-2.912,0-5.807,0.627-8.362,1.811C238.305,402.424,238.011,402.485,237.717,402.485"/>
	<path fill="#007CFF" d="M251.06,446.397c-10.462,0-20.106-6.38-24.735-16.427c-4.311-9.354-3.046-19.15,3.377-26.207
		c0.769-0.846,2.086-0.906,2.932-0.134c0.848,0.772,0.911,2.086,0.138,2.935c-5.259,5.778-6.257,13.88-2.67,21.667
		c4.042,8.786,12.594,14.284,21.621,14c7.341-0.227,13.444-4.236,16.329-10.729c3.267-7.36,1.798-16.061-3.839-22.696
		c-0.747-0.874-0.645-2.185,0.232-2.926c0.879-0.738,2.189-0.64,2.931,0.234c6.68,7.862,8.393,18.239,4.47,27.073
		c-3.546,7.986-11.025,12.917-19.997,13.196C251.587,446.39,251.325,446.397,251.06,446.397"/>
	<path fill="#007CFF" d="M259.823,404.315c-0.388,0-0.767-0.109-1.115-0.328c-3.59-2.291-7.655-3.5-11.756-3.504
		c-1.148,0-2.077-0.928-2.077-2.078c0-1.146,0.933-2.077,2.077-2.077c4.896,0.005,9.736,1.438,13.989,4.155
		c0.973,0.616,1.252,1.9,0.636,2.869C261.176,403.974,260.506,404.315,259.823,404.315"/>
	<path fill="#007CFF" d="M250.025,437.017c-4.797,0-9.431-2.143-12.698-6.03c-4.113-4.891-5.063-11.375-2.479-16.929
		c2.404-5.163,7.271-8.249,13.018-8.254c1.148,0,2.078,0.93,2.078,2.078c0,1.146-0.93,2.078-2.078,2.078
		c-4.086,0.002-7.544,2.189-9.248,5.85c-1.895,4.074-1.173,8.864,1.893,12.502c3.124,3.718,7.88,5.328,12.417,4.198
		c3.854-0.958,6.643-3.78,7.45-7.555c0.243-1.117,1.334-1.829,2.472-1.591c1.124,0.239,1.834,1.344,1.591,2.468
		c-1.152,5.353-5.085,9.357-10.511,10.706C252.626,436.863,251.32,437.017,250.025,437.017"/>
	<path fill="#007CFF" d="M262.052,420.57c-0.884,0-1.702-0.567-1.984-1.459c-1.655-5.298-6.793-9.145-12.206-9.149
		c-1.147,0-2.077-0.935-2.077-2.08c0.005-1.146,0.934-2.076,2.077-2.076h0.004c7.184,0.009,13.984,5.085,16.167,12.069
		c0.347,1.093-0.268,2.26-1.358,2.601C262.466,420.537,262.257,420.57,262.052,420.57"/>
	<path fill="#007CFF" d="M250.52,428.38c-1.12,0-2.046-0.896-2.078-2.023c-0.031-1.147,0.877-2.102,2.021-2.132
		c1.891-0.049,2.177-1.404,2.177-2.206c0-1.226-0.802-3.071-3.003-3.133c-0.602,0.021-1.195,0.271-1.617,0.729
		c-0.422,0.465-0.627,1.093-0.58,1.814c0.069,1.146-0.804,2.13-1.949,2.199c-1.146,0.078-2.129-0.803-2.199-1.948
		c-0.115-1.846,0.477-3.575,1.664-4.869c1.179-1.291,2.845-2.029,4.683-2.078c4.688,0.122,7.158,3.844,7.158,7.284
		c0,3.645-2.556,6.26-6.218,6.361C250.556,428.38,250.541,428.38,250.52,428.38"/>
	<path fill="#007CFF" d="M304.065,421.465c2.536,28.94-18.869,52.397-47.818,52.397c-0.74,0-1.493-0.02-2.248-0.061
		c27.556-1.414,47.556-24.311,45.104-52.336c-2.453-28.008-26.456-50.903-54.257-52.317c0.74-0.043,1.493-0.061,2.237-0.061
		C276.027,369.086,301.536,392.544,304.065,421.465"/>
	<g opacity="0.4" enable-background="new    ">
		<g>
			<g>
				<g>
					<defs>
						<rect id="SVGID_3_" x="244.843" y="369.086" width="59.429" height="104.778"/>
					</defs>
					<clipPath id="SVGID_4_">
						<use xlink:href="#SVGID_3_"  overflow="visible"/>
					</clipPath>
					<path clip-path="url(#SVGID_4_)" fill="#FFFFFF" d="M304.065,421.465c2.536,28.94-18.869,52.397-47.818,52.397
						c-0.74,0-1.493-0.02-2.248-0.061c27.556-1.414,47.556-24.311,45.104-52.336c-2.453-28.008-26.456-50.903-54.257-52.317
						c0.74-0.043,1.493-0.061,2.237-0.061C276.027,369.086,301.536,392.544,304.065,421.465"/>
				</g>
			</g>
		</g>
	</g>
	<path fill="#007CFF" d="M346.402,166.091c0.058,0.623,0.15,1.248,0.269,1.849c0.768,4.012,2.91,7.624,5.848,10.327
		c3.389,3.116,7.86,5.05,12.621,5.05H540.68c8.887,0,15.615-6.73,15.771-15.375c0.014-0.601,0-1.226-0.057-1.849
		c-0.414-4.738-2.723-9.06-6.111-12.158c-3.389-3.116-7.859-5.048-12.615-5.048H362.124
		C352.607,148.887,345.575,156.597,346.402,166.091"/>
	<g opacity="0.8">
		<g>
			<g>
				<g>
					<defs>
						<rect id="SVGID_5_" x="346.335" y="148.887" width="210.12" height="34.428"/>
					</defs>
					<clipPath id="SVGID_6_">
						<use xlink:href="#SVGID_5_"  overflow="visible"/>
					</clipPath>
					<path clip-path="url(#SVGID_6_)" fill="#FFFFFF" d="M346.402,166.091c0.058,0.623,0.15,1.248,0.269,1.849
						c0.768,4.012,2.91,7.624,5.848,10.327c3.389,3.116,7.86,5.05,12.621,5.05H540.68c8.887,0,15.615-6.73,15.771-15.375
						c0.014-0.601,0-1.226-0.057-1.849c-0.414-4.738-2.723-9.06-6.111-12.158c-3.389-3.116-7.859-5.048-12.615-5.048H362.124
						C352.607,148.887,345.575,156.597,346.402,166.091"/>
				</g>
			</g>
		</g>
	</g>
	<path fill="#007CFF" d="M556.447,167.935c0,0.564-0.045,1.124-0.129,1.664c-0.541-4.485-2.805-8.561-6.043-11.511
		c-3.389-3.116-7.852-5.05-12.611-5.05L350.98,153.33c2.806-2.763,6.711-4.447,11.14-4.447H537.66c4.76,0,9.229,1.934,12.611,5.05
		c3.389,3.096,5.713,7.416,6.131,12.156C556.447,166.71,556.469,167.335,556.447,167.935"/>
	<g opacity="0.5" enable-background="new    ">
		<g>
			<g>
				<g>
					<defs>
						<rect id="SVGID_7_" x="350.984" y="148.883" width="205.473" height="20.716"/>
					</defs>
					<clipPath id="SVGID_8_">
						<use xlink:href="#SVGID_7_"  overflow="visible"/>
					</clipPath>
					<path clip-path="url(#SVGID_8_)" fill="#FFFFFF" d="M556.447,167.935c0,0.564-0.045,1.124-0.129,1.664
						c-0.541-4.485-2.805-8.561-6.043-11.511c-3.389-3.116-7.852-5.05-12.611-5.05L350.98,153.33
						c2.806-2.763,6.711-4.447,11.14-4.447H537.66c4.76,0,9.229,1.934,12.611,5.05c3.389,3.096,5.713,7.416,6.131,12.156
						C556.447,166.71,556.469,167.335,556.447,167.935"/>
				</g>
			</g>
		</g>
	</g>
	<polygon fill="#007CFF" points="526.221,157.19 526.955,165.586 534.773,162.673 536.633,166.815 528.639,169.469 534.377,176.514 
		530.797,179.168 525.205,171.843 520.965,179.168 517.033,176.514 521.463,169.469 513.084,166.815 514.213,162.698 
		522.611,165.505 521.887,157.19 	"/>
	<polygon fill="#007CFF" points="478.209,157.19 478.95,165.586 486.762,162.673 488.623,166.815 480.628,169.469 486.368,176.514 
		482.786,179.168 477.195,171.843 472.958,179.168 469.022,176.514 473.454,169.469 465.075,166.815 466.207,162.698 
		474.606,165.505 473.875,157.19 	"/>
	<polygon fill="#007CFF" points="430.2,157.19 430.938,165.586 438.753,162.673 440.611,166.815 432.623,169.469 438.354,176.514 
		434.777,179.168 429.183,171.843 424.947,179.168 421.016,176.514 425.444,169.469 417.066,166.815 418.194,162.698 
		426.594,165.505 425.866,157.19 	"/>
	<polygon fill="#007CFF" points="382.189,157.19 382.928,165.586 390.743,162.673 392.602,166.815 384.612,169.469 390.35,176.514 
		386.765,179.168 381.175,171.843 376.939,179.168 373.004,176.514 377.433,169.469 369.054,166.815 370.182,162.698 
		378.585,165.505 377.853,157.19 	"/>
	<rect x="490.371" y="140.743" fill="#007CFF" width="8.182" height="2.078"/>
	<rect x="507.037" y="140.743" fill="#007CFF" width="26.707" height="2.078"/>
	<g opacity="0.8">
		<g>
			<g>
				<g>
					<defs>
						<rect id="SVGID_9_" x="707.408" y="206.78" width="98.992" height="120.109"/>
					</defs>
					<clipPath id="SVGID_10_">
						<use xlink:href="#SVGID_9_"  overflow="visible"/>
					</clipPath>
					<path clip-path="url(#SVGID_10_)" fill="#007CFF" d="M806.355,218.246l-8.502,97.176c-0.26,2.93-1.57,5.588-3.555,7.582
						c-2.285,2.39-5.49,3.886-8.92,3.886H717.92c-2.496,0-4.732-0.789-6.48-2.161c-2.73-2.056-4.322-5.464-3.984-9.307l8.5-97.176
						c0.553-6.337,6.133-11.468,12.471-11.468h67.465C802.225,206.78,806.906,211.909,806.355,218.246"/>
				</g>
			</g>
		</g>
	</g>
	<g opacity="0.8">
		<g>
			<g>
				<g>
					<defs>
						<rect id="SVGID_11_" x="707.408" y="206.78" width="98.992" height="120.109"/>
					</defs>
					<clipPath id="SVGID_12_">
						<use xlink:href="#SVGID_11_"  overflow="visible"/>
					</clipPath>
					<path clip-path="url(#SVGID_12_)" fill="#FFFFFF" d="M806.355,218.246l-8.502,97.176c-0.26,2.93-1.57,5.588-3.555,7.582
						c-2.285,2.39-5.49,3.886-8.92,3.886H717.92c-2.496,0-4.732-0.789-6.48-2.161c-2.73-2.056-4.322-5.464-3.984-9.307l8.5-97.176
						c0.553-6.337,6.133-11.468,12.471-11.468h67.465C802.225,206.78,806.906,211.909,806.355,218.246"/>
				</g>
			</g>
		</g>
	</g>
	<path fill="#007CFF" d="M722.184,233.896c-0.061,0-0.121-0.002-0.182-0.008c-1.146-0.101-1.988-1.108-1.893-2.25l0.779-8.888
		c0.094-1.071,0.99-1.896,2.07-1.896h9.377c1.148,0,2.078,0.929,2.078,2.077c0,1.146-0.93,2.078-2.078,2.078h-7.475l-0.613,6.987
		C724.156,233.081,723.248,233.896,722.184,233.896"/>
	<path fill="#007CFF" d="M797.729,233.896c-0.063,0-0.123-0.002-0.184-0.008c-1.145-0.101-1.988-1.108-1.893-2.25l0.58-6.627h-7.113
		c-1.15,0-2.076-0.933-2.076-2.078c0-1.148,0.926-2.077,2.076-2.077h9.383c0.582,0,1.137,0.243,1.529,0.671
		c0.391,0.432,0.584,1.007,0.539,1.587l-0.777,8.886C799.699,233.081,798.791,233.896,797.729,233.896"/>
	<path fill="#007CFF" d="M725.695,300.959h-9.383c-0.58,0-1.141-0.246-1.529-0.677c-0.395-0.428-0.59-1.004-0.541-1.583l0.779-8.889
		c0.104-1.143,1.129-2.001,2.252-1.887c1.146,0.102,1.988,1.106,1.883,2.252l-0.576,6.627h7.115c1.146,0,2.076,0.929,2.076,2.077
		C727.771,300.027,726.842,300.959,725.695,300.959"/>
	<path fill="#007CFF" d="M791.855,300.959h-9.377c-1.148,0-2.078-0.933-2.078-2.078c0-1.148,0.93-2.077,2.078-2.077h7.475
		l0.611-6.99c0.104-1.145,1.146-2.003,2.25-1.889c1.145,0.097,1.988,1.106,1.891,2.252l-0.779,8.885
		C793.832,300.132,792.936,300.959,791.855,300.959"/>
	<path fill="#FFFFFF" d="M785.834,260.599c-1.623,18.574-15.318,33.633-30.586,33.633c-15.271,0-26.328-15.059-24.701-33.633
		c1.623-18.575,15.318-33.634,30.586-33.634C776.398,226.965,787.461,242.022,785.834,260.599"/>
	<polygon fill="#FFFFFF" points="766.375,312.331 739.467,312.331 741.82,285.426 768.729,285.426 	"/>
	<path fill="#FFFFFF" d="M797.854,315.422c-0.26,2.93-1.57,5.588-3.555,7.582c-2.285,2.39-5.494,3.886-8.92,3.886H717.92
		c-2.496,0-4.732-0.789-6.48-2.161c-2.73-2.056-4.322-5.464-3.984-9.307c0,0,31.002-9.806,34.824-9.806h23.955L797.854,315.422z"/>
	
		<rect x="808.631" y="246.58" transform="matrix(0.9966 0.0823 -0.0823 0.9966 24.6054 -65.7086)" fill="#007CFF" width="2.077" height="38.298"/>
	
		<rect x="812.144" y="229.254" transform="matrix(0.9966 0.0819 -0.0819 0.9966 21.809 -65.7986)" fill="#007CFF" width="2.075" height="7.524"/>
	<rect x="731.867" y="460.975" fill="#007CFF" width="8.182" height="2.077"/>
	<rect x="748.535" y="460.975" fill="#007CFF" width="26.707" height="2.077"/>
	<path fill="#007CFF" d="M824.096,425.503l-5.178,59.224c-0.471,5.339-5.174,9.666-10.516,9.666c-5.336,0-9.279-4.327-8.816-9.666
		l5.182-59.224c1.672-19.126-12.525-34.696-31.652-34.696H751.93c-19.125,0-36.047,15.57-37.723,34.696l-2.115,24.186H692.76
		l2.119-24.186c2.604-29.79,28.961-54.026,58.742-54.026h21.188C804.586,371.476,826.705,395.713,824.096,425.503"/>
	<g opacity="0.5" enable-background="new    ">
		<g>
			<g>
				<g>
					<defs>
						<rect id="SVGID_13_" x="692.764" y="371.476" width="131.543" height="122.916"/>
					</defs>
					<clipPath id="SVGID_14_">
						<use xlink:href="#SVGID_13_"  overflow="visible"/>
					</clipPath>
					<path clip-path="url(#SVGID_14_)" fill="#FFFFFF" d="M824.096,425.503l-5.178,59.224c-0.471,5.339-5.174,9.666-10.516,9.666
						c-5.336,0-9.279-4.327-8.816-9.666l5.182-59.224c1.672-19.126-12.525-34.696-31.652-34.696H751.93
						c-19.125,0-36.047,15.57-37.723,34.696l-2.115,24.186H692.76l2.119-24.186c2.604-29.79,28.961-54.026,58.742-54.026h21.188
						C804.586,371.476,826.705,395.713,824.096,425.503"/>
				</g>
			</g>
		</g>
	</g>
	<path fill="#007CFF" d="M825.496,482.557l-10.098,115.39c-0.637,7.305-7.061,13.208-14.365,13.208H685.645
		c-7.291,0-12.688-5.905-12.053-13.208l10.098-115.39c0.406-4.713,3.25-8.858,7.174-11.189c2.141-1.275,4.609-2.017,7.191-2.017
		h115.389c2.496,0,4.77,0.697,6.646,1.891C823.727,473.559,825.914,477.757,825.496,482.557"/>
	<path fill="#FFFFFF" d="M705.498,532.962l29.977,46.153l98.881-98.884c0.867-0.87-0.328-2.222-1.299-1.463l-94.23,73.861
		l-17.793-28.693L705.498,532.962z"/>
	<path fill="#007CFF" d="M233.255,309.793h-75.097c-7.049,0-13.266-5.715-13.882-12.77l-6.569-75.093
		c-0.616-7.051,4.603-12.767,11.649-12.767h75.095c7.049,0,13.266,5.716,13.882,12.767l6.569,75.093
		C245.521,304.078,240.306,309.793,233.255,309.793"/>
	<g opacity="0.8">
		<g>
			<g>
				<g>
					<defs>
						<rect id="SVGID_15_" x="137.659" y="209.167" width="107.297" height="100.626"/>
					</defs>
					<clipPath id="SVGID_16_">
						<use xlink:href="#SVGID_15_"  overflow="visible"/>
					</clipPath>
					<path clip-path="url(#SVGID_16_)" fill="#FFFFFF" d="M233.255,309.793h-75.097c-7.049,0-13.266-5.715-13.882-12.77
						l-6.569-75.093c-0.616-7.051,4.603-12.767,11.649-12.767h75.095c7.049,0,13.266,5.716,13.882,12.767l6.569,75.093
						C245.521,304.078,240.306,309.793,233.255,309.793"/>
				</g>
			</g>
		</g>
	</g>
	<path fill="#FFFFFF" d="M144.318,267.044c0,0,26.674-37.169,46.356-36.216c19.68,0.951,52.31,35.34,52.31,35.34
		S194.833,291.445,144.318,267.044"/>
	<path fill="#1A2E35" d="M145.163,267.648l-1.688-1.211c1.088-1.516,26.548-36.666,46.447-36.666c0.269,0,0.536,0.01,0.8,0.022
		c19.864,0.962,51.671,34.242,53.01,35.66l-1.502,1.43c-0.323-0.341-32.568-34.096-51.608-35.018
		c-0.231-0.014-0.474-0.018-0.708-0.018C171.077,231.849,145.422,267.287,145.163,267.648"/>
	<path fill="#1A2E35" d="M141.542,268.35c-4.025,0-9.248-1.497-11.1-7.19c-0.179-0.548,0.122-1.132,0.666-1.311
		c0.543-0.175,1.132,0.123,1.308,0.667c2.39,7.35,11.313,5.584,11.687,5.507c0.552-0.109,1.116,0.243,1.229,0.811
		c0.118,0.561-0.243,1.109-0.805,1.228C143.693,268.235,142.667,268.35,141.542,268.35"/>
	<path fill="#1A2E35" d="M157.393,252.396c-0.217,0-0.441-0.072-0.633-0.217c-0.313-0.241-7.682-5.938-9.565-11.729
		c-0.174-0.546,0.122-1.128,0.671-1.307c0.543-0.175,1.133,0.124,1.307,0.665c1.68,5.17,8.781,10.669,8.854,10.724
		c0.455,0.348,0.54,0.998,0.19,1.455C158.016,252.255,157.702,252.396,157.393,252.396"/>
	<path fill="#1A2E35" d="M172.666,238.243h-0.026c-0.57-0.012-1.024-0.483-1.013-1.063c0.03-1.331-3.274-10.027-4.518-13.303
		c-0.522-1.369-0.895-2.354-0.976-2.617c-0.167-0.548,0.146-1.128,0.689-1.294c0.563-0.167,1.133,0.142,1.299,0.69
		c0.076,0.25,0.43,1.184,0.925,2.481c2.894,7.625,4.688,12.641,4.655,14.088C173.692,237.794,173.227,238.243,172.666,238.243"/>
	<path fill="#1A2E35" d="M190.67,231.868c-0.531,0-0.988-0.406-1.03-0.948l-1.465-16.733c-0.051-0.57,0.375-1.077,0.944-1.126
		c0.584-0.068,1.077,0.373,1.125,0.945l1.465,16.734c0.047,0.568-0.381,1.073-0.945,1.124
		C190.73,231.868,190.702,231.868,190.67,231.868"/>
	<path fill="#1A2E35" d="M246.097,267.218c-1.685,0-2.926-0.239-3.036-0.262c-0.56-0.111-0.925-0.659-0.814-1.223
		c0.116-0.563,0.652-0.936,1.222-0.814c0.053,0.004,5.076,0.972,8.192-1.223c1.322-0.932,2.103-2.281,2.379-4.121
		c0.085-0.568,0.62-0.948,1.181-0.872c0.565,0.086,0.958,0.612,0.872,1.18c-0.357,2.399-1.452,4.257-3.244,5.517
		C250.753,266.876,248.11,267.218,246.097,267.218"/>
	<path fill="#1A2E35" d="M227.442,251.286c-0.288,0-0.569-0.117-0.771-0.349c-0.389-0.431-0.341-1.086,0.085-1.47
		c0.063-0.051,6.142-5.498,6.907-10.601c0.087-0.566,0.623-0.95,1.183-0.874c0.567,0.085,0.957,0.614,0.872,1.182
		c-0.877,5.854-7.313,11.607-7.584,11.85C227.933,251.201,227.69,251.286,227.442,251.286"/>
	<path fill="#1A2E35" d="M209.885,239.218c-0.062,0-0.12-0.006-0.175-0.018c-0.565-0.095-0.949-0.633-0.853-1.194
		c0.021-0.135,2.282-13.494,2.69-16.229c0.085-0.565,0.622-0.954,1.181-0.872c0.566,0.085,0.957,0.612,0.872,1.182
		c-0.413,2.751-2.674,16.13-2.696,16.265C210.821,238.857,210.378,239.218,209.885,239.218"/>
	<path fill="#007CFF" d="M216.271,254.368c1.138,12.998-8.48,23.534-21.479,23.534c-13.002,0-24.46-10.536-25.597-23.534
		c-1.136-13,8.479-23.54,21.479-23.54C203.67,230.828,215.13,241.368,216.271,254.368"/>
	<g opacity="0.3">
		<g>
			<g>
				<g>
					<defs>
						<rect id="SVGID_17_" x="169.107" y="230.825" width="47.174" height="23.541"/>
					</defs>
					<clipPath id="SVGID_18_">
						<use xlink:href="#SVGID_17_"  overflow="visible"/>
					</clipPath>
					<path clip-path="url(#SVGID_18_)" d="M202.461,254.368c0.036-0.52,0.031-1.038-0.018-1.583
						c-0.481-5.523-5.359-9.991-10.888-9.991c-5.507,0-9.601,4.466-9.122,9.991c0.053,0.545,0.139,1.063,0.288,1.583h-13.529
						c-1.137-13.01,8.474-23.54,21.483-23.54c12.985,0,24.461,10.53,25.598,23.54H202.461z"/>
				</g>
			</g>
		</g>
	</g>
	<g opacity="0.7">
		<g>
			<g>
				<g>
					<defs>
						<rect id="SVGID_19_" x="182.398" y="242.794" width="20.088" height="19.984"/>
					</defs>
					<clipPath id="SVGID_20_">
						<use xlink:href="#SVGID_19_"  overflow="visible"/>
					</clipPath>
					<path clip-path="url(#SVGID_20_)" d="M202.447,252.785c0.048,0.545,0.052,1.063,0.018,1.583
						c-0.354,4.776-4.168,8.412-9.153,8.412c-4.969,0-9.418-3.636-10.585-8.412c-0.147-0.52-0.233-1.038-0.284-1.583
						c-0.479-5.525,3.609-9.991,9.12-9.991C197.084,242.794,201.962,247.259,202.447,252.785"/>
				</g>
			</g>
		</g>
	</g>
	<g opacity="0.7">
		<g>
			<g>
				<g>
					<defs>
						<rect id="SVGID_21_" x="191.549" y="234.832" width="16.357" height="16.293"/>
					</defs>
					<clipPath id="SVGID_22_">
						<use xlink:href="#SVGID_21_"  overflow="visible"/>
					</clipPath>
					<path clip-path="url(#SVGID_22_)" fill="#FFFFFF" d="M207.88,242.978c0.392,4.5-2.938,8.146-7.435,8.146
						c-4.501,0-8.47-3.646-8.864-8.146c-0.395-4.501,2.934-8.146,7.435-8.146C203.516,234.832,207.481,238.477,207.88,242.978"/>
				</g>
			</g>
		</g>
	</g>
	<rect x="167.518" y="199.84" fill="#007CFF" width="8.186" height="2.078"/>
	<rect x="184.188" y="199.84" fill="#007CFF" width="26.706" height="2.078"/>
	<path fill="#FFB570" d="M553.262,352.061l0.719,0.855l0.953,1.094c0.688,0.729,1.348,1.498,2.098,2.208
		c1.43,1.501,2.992,2.942,4.566,4.434c3.16,2.909,6.473,5.646,9.922,8.205c3.51,2.602,7.195,5.005,10.908,7.367
		c2.012,1.118,3.771,2.307,5.729,3.378l4.518,2.496c0.652,0.29,1.387,0.335,2.072,0.123c1.445-0.435,9.809-8.702,12.467-11.767
		c5.889-6.763,14.836-15.64,19.645-23.21l5.486,7.418c-3.4,9.266-7.912,18.086-13.439,26.261c-2.979,4.415-6.541,8.405-10.592,11.86
		c-2.438,2.057-5.189,3.705-8.156,4.891c-3.744,1.5-7.859,1.81-11.787,0.883c-1.02-0.245-2.021-0.576-2.986-0.99l-1.863-0.816
		l-3.363-1.528c-2.27-1.01-4.451-2.203-6.65-3.311c-4.404-2.349-8.676-4.938-12.799-7.75c-4.156-2.854-8.143-5.946-11.939-9.261
		c-1.979-1.721-3.75-3.47-5.551-5.366c-0.904-0.93-1.803-1.92-2.678-2.928l-1.305-1.575c-0.463-0.59-0.811-1.025-1.469-1.921
		L553.262,352.061z"/>
	<path fill="#FFB570" d="M626.107,348.39l9.646-20.608l9.197,16.487c0,0-6.043,10.409-12.604,10.396L626.107,348.39z"/>
	<polygon fill="#FFB570" points="646.604,319.223 656.332,331.724 644.957,344.246 635.754,327.781 	"/>
	<path fill="#007CFF" d="M643.221,349.942h15.301c0.898,0,1.648-0.686,1.727-1.58l3.209-36.711c0.09-1.01-0.705-1.879-1.725-1.879
		H646.43c-0.896,0-1.648,0.686-1.725,1.581l-3.211,36.711C641.406,349.072,642.201,349.942,643.221,349.942"/>
	<g opacity="0.3">
		<g>
			<g>
				<g>
					<defs>
						<rect id="SVGID_23_" x="643.369" y="313.45" width="18.213" height="32.81"/>
					</defs>
					<clipPath id="SVGID_24_">
						<use xlink:href="#SVGID_23_"  overflow="visible"/>
					</clipPath>
					<polygon clip-path="url(#SVGID_24_)" fill="#FFFFFF" points="643.369,346.259 658.709,346.259 661.576,313.45 646.242,313.45 
											"/>
				</g>
			</g>
		</g>
	</g>
	<path fill="#FFB570" d="M642.385,341.617L642.385,341.617l2.727-1.399c1.379-0.708,2.654-1.602,3.789-2.656l0.504-1.817
		c-0.598-0.995-1.781-1.469-2.896-1.169l-2.264,0.615l-11.23,0.855l-0.279,4.729l3.279,5.081l1.139,0.045
		C639.73,346.003,641.975,344.164,642.385,341.617"/>
	<path fill="#1A2E35" d="M533.707,331.919c7.781-1.412,62.738,46.24,62.738,46.24l-16.291,23.895c0,0-60.096-41.842-58.25-51.955
		C523.822,339.578,522.344,333.992,533.707,331.919"/>
	<g opacity="0.2" enable-background="new    ">
		<g>
			<g>
				<g>
					<defs>
						<rect id="SVGID_25_" x="540.037" y="347.243" width="28.764" height="47.126"/>
					</defs>
					<clipPath id="SVGID_26_">
						<use xlink:href="#SVGID_25_"  overflow="visible"/>
					</clipPath>
					<path clip-path="url(#SVGID_26_)" d="M540.633,347.243l-0.602,25.015c6.25,4.845,28.77,22.111,28.77,22.111L540.633,347.243z"
						/>
				</g>
			</g>
		</g>
	</g>
	<polygon fill="#FFB570" points="497.066,827.14 515.502,828.96 521.346,786.223 502.91,784.401 	"/>
	<polygon fill="#FFB570" points="315.626,576.36 310.903,594.312 350.781,611.501 359.042,593.29 	"/>
	<path fill="#007CFF" d="M528.688,832.662c1.586,0.19,3.189-0.163,4.545-1.005c0.613-0.522,0.93-1.313,0.844-2.114
		c-0.008-0.493-0.275-0.948-0.701-1.195c-2.24-1.327-9.764,2.24-10.607,2.642c-0.162,0.087-0.26,0.265-0.252,0.448
		c0.029,0.184,0.166,0.327,0.35,0.363C524.775,832.263,526.723,832.553,528.688,832.662 M532.043,828.935
		c0.279-0.012,0.561,0.049,0.814,0.183c0.18,0.099,0.289,0.282,0.293,0.483c0.049,0.529-0.154,1.049-0.553,1.401
		c-1.146,0.973-4.213,1.05-8.311,0.25c2.455-1.219,5.098-2.008,7.813-2.331L532.043,828.935z"/>
	<path fill="#007CFF" d="M522.957,831.839l0.162-0.04c2.252-0.926,6.748-4.808,6.451-6.917c-0.121-0.485-0.385-1.124-1.604-1.292
		c-0.875-0.154-1.777,0.067-2.479,0.618c-2.387,1.857-2.959,6.861-2.996,7.062c-0.031,0.147,0.006,0.306,0.105,0.424
		C522.689,831.797,522.824,831.849,522.957,831.839 M527.539,824.447l0.264-0.063c0.799,0.124,0.836,0.435,0.84,0.542
		c0.191,1.277-2.881,4.334-5.182,5.573c0.215-2.11,1.104-4.092,2.527-5.661c0.461-0.326,1.029-0.472,1.596-0.397L527.539,824.447z"
		/>
	<path fill="#1A2E35" d="M514.59,821.523l-16.699,0.692c-0.742,0.008-1.363,0.582-1.432,1.325l-3.986,23.188
		c-0.088,1.663,1.182,3.084,2.842,3.177c0.113,0.008,0.23,0.008,0.35-0.002c7.242-0.373,10.732-0.913,19.916-1.226
		c5.629-0.19,22.947,1.851,30.541,0.1c7.596-1.749,6.258-9.366,2.938-9.316c-10.684,0.209-23.004-6.75-29.186-14.892
		C518.955,823.875,515.742,821.452,514.59,821.523"/>
	<path fill="#1A2E35" d="M319.375,596.678l8.474-14.406c0.399-0.631,0.256-1.463-0.337-1.921l-17.315-15.926
		c-1.344-0.979-3.229-0.685-4.208,0.661c-0.068,0.094-0.134,0.19-0.189,0.291c-3.612,6.291-5.057,9.516-9.776,17.403
		c-2.894,4.827-14.002,18.27-16.648,25.601c-2.652,7.331,4.476,10.338,6.235,7.521c5.621-9.088,18.147-15.664,28.342-16.439
		C315.03,599.069,318.81,597.68,319.375,596.678"/>
	<g opacity="0.2">
		<g>
			<g>
				<g>
					<defs>
						<rect id="SVGID_27_" x="499.896" y="784.424" width="21.449" height="23.83"/>
					</defs>
					<clipPath id="SVGID_28_">
						<use xlink:href="#SVGID_27_"  overflow="visible"/>
					</clipPath>
					<polygon clip-path="url(#SVGID_28_)" points="521.346,786.223 518.332,808.254 499.896,806.451 502.887,784.424 					"/>
				</g>
			</g>
		</g>
	</g>
	<g opacity="0.2">
		<g>
			<g>
				<g>
					<defs>
						<rect id="SVGID_29_" x="337.113" y="587.291" width="34.182" height="29.654"/>
					</defs>
					<clipPath id="SVGID_30_">
						<use xlink:href="#SVGID_29_"  overflow="visible"/>
					</clipPath>
					<polygon clip-path="url(#SVGID_30_)" points="371.293,597.723 362.774,616.946 337.113,605.61 343.657,587.289 					"/>
				</g>
			</g>
		</g>
	</g>
	<path fill="#1A2E35" d="M545.471,353.94c10.535,17.897-2.346,33.021-13.096,86.536l-69.45,0.19
		c1.128-28.849,1.008-52.165-11.3-108.899c-1.146-5.166,2.12-10.279,7.284-11.42c0.668-0.149,1.354-0.223,2.038-0.226
		c5.748,0.007,12.955,0.204,20.28,0.951c11.569,0.938,23.063,2.678,34.387,5.2c9.646,2.319,11.986,3.603,18.092,5.646
		C537.266,333.136,541.57,342.857,545.471,353.94"/>
	<path fill="#007CFF" d="M534.945,444.09c0,0,38.996,112.76,38.053,166.975c-0.533,31.063-2.873,88.938-12.244,129.65
		c-7.652,33.215-38.811,54.43-38.811,54.43l-24.99-1.479c0,0-13.486-50.69-11.139-70.867c4.667-40.151,18.522-70.331,16.854-107.204
		c-2.672-60.385-20.534-172.474-20.534-172.474L534.945,444.09z"/>
	<polygon fill="#1A2E35" points="491.99,800.174 527.201,802.26 530.42,791.673 491.07,788.034 	"/>
	<g opacity="0.2" enable-background="new    ">
		<g>
			<g>
				<g>
					<defs>
						<rect id="SVGID_31_" x="496.451" y="487.161" width="34.514" height="184.723"/>
					</defs>
					<clipPath id="SVGID_32_">
						<use xlink:href="#SVGID_31_"  overflow="visible"/>
					</clipPath>
					<path clip-path="url(#SVGID_32_)" d="M496.451,671.883c0.039-0.051,0.076-0.211,0.193-0.199
						c22.129,2.165,37.443-29.768,33.775-73.377L518.672,487.16L496.451,671.883z"/>
				</g>
			</g>
		</g>
	</g>
	<path fill="#007CFF" d="M517.455,443.142c0,0,30.988,198.279-33.462,220.599c-34.008,12.883-62.623-1.086-96.504-16.082
		c-19.584-8.67-44.063-32.125-44.063-32.125l9.411-25.615c0,0,22.241-7.226,51.869-2.627c33.044,5.127,34.432,14.473,46.172,7.436
		c24.679-61.021-17.786-109.241,11.073-151.682L517.455,443.142z"/>
	<polygon fill="#1A2E35" points="354.672,585.06 342.094,618.273 351.363,625.36 366.31,585.83 	"/>
	<path fill="#FFB570" d="M349.486,405.888c-3.146,4.64-19.052,1.503-19.052,1.503l-3.376-19.718l19.533,7.832L349.486,405.888z"/>
	<path fill="#FFB570" d="M330.965,386.647l3.056,20.486l-11.752,1.764c-1.303,0.109-2.487-0.763-2.771-2.035l-4.488-14.674
		c-0.158-0.708,0.271-1.414,0.975-1.599L330.965,386.647z"/>
	<path fill="#FFB570" d="M325.729,395.946l6.71,1.188l6.322-4.769l-2.447-1.747c-1.662-1.181-2.824-2.93-3.271-4.916
		c-0.483-2.137-0.805-4.445-0.856-6.339l-0.021-0.71c-0.166-1.286-1.172-2.305-2.453-2.496l-1.659,1.233
		c-1.052,2.271-0.303,4.891-0.436,6.662l-0.264,3.437l-2.683,1.165L325.729,395.946z"/>
	<path fill="#FFB570" d="M454.976,327.859l-39.307,54.081l-72.242,14.188v11.85c0,0,67.862,5.031,83.077-3.854
		c15.226-8.886,40.836-62.675,40.836-62.675L454.976,327.859z"/>
	<path fill="#1A2E35" d="M454.515,223.951c-16.487-5.534-35.625,4.71-43.182,20.381c-7.553,15.668-4.897,34.886,3.596,50.064
		c2.563,4.577,5.625,8.896,7.706,13.707c2.086,4.815,3.129,10.349,1.435,15.315c-1.693,4.965-3.442,8.145-9.597,7.343
		c0,0-0.075-3.404,2.348-2.993c0,0-4.978,2.768-6.928,0.954c2.246,3.504,8.289,2.224,10.23-1.459
		c2.898-5.515-2.436-12.969-8.664-12.9c-6.232,0.067-11.299,6.363-11.098,12.588c0.201,6.229,4.783,11.771,10.471,14.316
		c-3.368,0.666-7.071-1.311-8.387-4.479c2.818,7.398,12.054,10.67,19.84,9.22c7.787-1.453,14.387-6.454,20.482-11.509
		c8.229-6.808,16.813-15.416,16.553-26.096c-0.189-7.954-5.3-14.791-9.596-21.486c-4.297-6.695-8.063-14.9-5.336-22.371
		c2.313-6.337,8.579-10.159,14.118-14.01c3.989-2.771,12.089-8.946,11.131-14.771C468.745,230.3,459.186,225.518,454.515,223.951"/>
	<path fill="#1A2E35" d="M417.348,408.905l-10.884-28.813l2.496,0.205c4.115,0.345,8.051-1.741,10.07-5.35
		c8.271-14.791,29.773-52.349,35.82-54.215c8.621-2.555,17.498,4.342,20.842,14.521c2.459,7.508-22.813,39.656-34.542,57.945
		C430.768,409.394,417.348,408.905,417.348,408.905"/>
	<path fill="#007CFF" d="M311.146,606.141c0,0-0.008,0.146-0.012,0.229c0.302,0.815,1.008,1.416,1.86,1.588
		c0.516,0.166,1.08,0.039,1.478-0.329c1.759-1.58,0.639-8.286,0.531-8.96c-0.024-0.178-0.156-0.318-0.335-0.354
		c-0.166-0.035-0.337,0.028-0.448,0.16C312.833,600.479,310.584,604.03,311.146,606.141 M314.348,599.882
		c0.386,2.664,0.548,6.274-0.422,7.112c-0.188,0.156-0.442,0.197-0.67,0.105c-0.568-0.107-1.034-0.497-1.25-1.028
		c-0.373-1.126,0.41-3.413,2.338-6.13L314.348,599.882z"/>
	<path fill="#007CFF" d="M314.305,599.546c0.554,2.239,2.658,6.067,4.527,6.513c0.706,0.139,1.42-0.223,1.714-0.876
		c0.329-0.601,0.376-1.315,0.12-1.95c-0.846-2.563-5.76-4.69-5.963-4.786c-0.131-0.092-0.296-0.1-0.434-0.025
		c-0.118,0.102-0.183,0.251-0.171,0.402C314.153,599.069,314.22,599.308,314.305,599.546 M319.957,603.605
		c0.102,0.374,0.04,0.771-0.171,1.092c-0.278,0.483-0.551,0.487-0.752,0.457c-1.277-0.262-3.214-3.396-3.834-5.576
		c1.596,0.801,4.191,2.327,4.703,3.897C319.911,603.524,319.925,603.567,319.957,603.605"/>
	<path fill="#007CFF" d="M462.671,437.138l-1.919,6.755c-0.26,0.525,0.353,1.063,1.229,1.051l71.671-0.098
		c0.684,0.041,1.246-0.341,1.291-0.755l0.674-6.768c0.023-0.454-0.553-0.863-1.303-0.846l-70.424,0.085
		C463.409,436.528,462.946,436.74,462.671,437.138"/>
	<g opacity="0.5" enable-background="new    ">
		<g>
			<g>
				<g>
					<defs>
						<rect id="SVGID_33_" x="460.689" y="436.477" width="74.928" height="8.465"/>
					</defs>
					<clipPath id="SVGID_34_">
						<use xlink:href="#SVGID_33_"  overflow="visible"/>
					</clipPath>
					<path clip-path="url(#SVGID_34_)" fill="#FFFFFF" d="M462.671,437.138l-1.919,6.755c-0.26,0.525,0.353,1.063,1.229,1.051
						l71.671-0.098c0.684,0.041,1.246-0.341,1.291-0.755l0.674-6.768c0.023-0.454-0.553-0.863-1.303-0.846l-70.424,0.085
						C463.409,436.528,462.946,436.74,462.671,437.138"/>
				</g>
			</g>
		</g>
	</g>
	<path fill="#007CFF" d="M476.355,445.567l-2.082,0.004c-0.394-0.023-0.718-0.211-0.682-0.458l0.938-8.79
		c0.018-0.244,0.382-0.453,0.796-0.449l2.087-0.024c0.394,0.024,0.718,0.211,0.677,0.477l-0.938,8.771
		C477.118,445.345,476.749,445.571,476.355,445.567"/>
	<path fill="#007CFF" d="M528.1,445.559h-2.078c-0.396-0.021-0.719-0.207-0.682-0.455l0.934-8.771
		c0.016-0.271,0.385-0.476,0.777-0.476l2.082-0.002c0.395,0.022,0.715,0.209,0.682,0.457l-0.938,8.771
		C528.861,445.354,528.518,445.563,528.1,445.559"/>
	<path fill="#007CFF" d="M504.404,445.514h-2.082c-0.395-0.024-0.719-0.211-0.682-0.459l0.938-8.77
		c0.018-0.269,0.383-0.478,0.775-0.476l2.082-0.002c0.395,0.024,0.717,0.213,0.682,0.459l-0.938,8.768
		C505.162,445.307,504.818,445.518,504.404,445.514"/>
	<path fill="#FFB570" d="M484.467,283.257c2.207,11.308,4.366,31.75-3.309,37.914c0,0,3.061,11.604,23.609,14.697
		c22.689,3.428,10.779-9.5,10.779-9.5c-12.342-4.89-12.041-13.82-9.914-22.043L484.467,283.257z"/>
	<path fill="#FFB570" d="M481.229,321.072c11.566,0.911,21.244,1.992,32.562,4.528l15.547,4.618
		c2.768,5.578-1.768,17.024-14.779,19.196c0,0-32.769,4.524-42.433-29.216L481.229,321.072z"/>
	<g opacity="0.2" enable-background="new    ">
		<g>
			<g>
				<g>
					<defs>
						<rect id="SVGID_35_" x="491.738" y="291.866" width="13.879" height="18.351"/>
					</defs>
					<clipPath id="SVGID_36_">
						<use xlink:href="#SVGID_35_"  overflow="visible"/>
					</clipPath>
					<path clip-path="url(#SVGID_36_)" d="M493.094,291.866l12.523,12.46c-0.527,1.927-0.877,3.899-1.039,5.893
						c-4.725-1.384-12.328-6.603-12.844-11.585C491.723,296.306,492.186,294.006,493.094,291.866"/>
				</g>
			</g>
		</g>
	</g>
	<path fill="#FFB570" d="M470.601,268.948c5.556,17.583,7.523,25.147,18.915,32.068c17.01,10.396,37.479-0.256,37.203-19.129
		c-0.162-16.993-9.199-42.879-28.52-45.646c-13.732-2.052-26.525,7.418-28.578,21.148
		C469.042,261.269,469.379,265.226,470.601,268.948"/>
	<path fill="#FF8935" d="M512.535,266.208c1.969,3.101,4.357,5.912,7.104,8.354c-1.307,1.38-3.154,2.118-5.049,2.025
		L512.535,266.208z"/>
	<path fill="#1A2E35" d="M510.564,285.984c0.709-0.076,1.412-0.209,2.102-0.396c0.225-0.054,0.365-0.277,0.309-0.503l-0.004-0.021
		c-0.068-0.223-0.295-0.367-0.523-0.324c-3.65,1.016-7.559,0.211-10.51-2.161c-0.182-0.163-0.463-0.151-0.629,0.026
		c-0.162,0.179-0.154,0.461,0.029,0.625C503.922,285.343,507.244,286.336,510.564,285.984"/>
	<path fill="#007CFF" d="M464.554,233.855c-4.594,2.916-7.601,8.187-7.783,13.627c-0.032,1.035,0.037,2.104,0.483,3.038
		c0.441,0.936,1.339,1.71,2.374,1.77c1.586,0.083,2.751-1.406,3.619-2.73c1.34-2.052,2.679-4.099,4.021-6.148
		c1.312-2.009,3.49-4.342,4.204-6.637C472.772,232.593,467.011,232.294,464.554,233.855"/>
	<path fill="#1A2E35" d="M466.531,237.996c-11.042,12.753-15.975,48.058,16.339,57.899c5.399-4.272-3.322-12.061-7.027-21.913
		c-2.422-6.448,9.892-18.479,14.705-23.41c4.805-4.927,9.211-12.07,16.004-10.929c1.773,0.301,3.67,0.893,5.313,0.146
		c5.377-2.438,2.77-5.655,0.063-7.907c-3.979-3.313-9.572-4.813-14.646-5.364C486.03,225.303,474.02,229.351,466.531,237.996"/>
	<path fill="#1A2E35" d="M502.416,233.723c12.969,10.821-4.213,11.093-13.24,17.949c-8.709,6.582-2.605,17.372-17.331,22.369
		c-12.032,3.521-14.813,1.407-18.138-0.924c0,0,13.635-1.715,15.638-17.032C470.374,248.207,487.572,221.169,502.416,233.723"/>
	<path fill="#FFB570" d="M468.641,283.722c2.033,2.932,5.138,4.948,8.641,5.608c4.653,0.816,6.446-3.445,4.841-7.6
		c-1.509-3.73-5.729-8.664-10.228-7.601c-3.234,0.829-5.186,4.125-4.354,7.357C467.749,282.301,468.125,283.061,468.641,283.722"/>
	<path fill="#1A2E35" d="M500.18,234.821c2.512,6.395,9.764,5.553,15.133,12.239c3.299,4.087,9.775-8.66,0.961-13.72
		C507.455,228.278,496.234,224.804,500.18,234.821"/>
	<path fill="#1A2E35" d="M492.547,261.827c0.377,0.042,0.732-0.162,0.881-0.512c1.707-3.794,6.82-4.742,6.869-4.748
		c0.475-0.089,0.787-0.548,0.697-1.021s-0.547-0.789-1.021-0.7c-0.26,0.034-6.082,1.224-8.152,5.795
		c-0.203,0.438-0.012,0.958,0.422,1.16c0,0,0,0,0.006,0.003L492.547,261.827z"/>
	<path fill="#1A2E35" d="M519.549,254.186c0.313,0.024,0.607-0.128,0.773-0.39c0.271-0.396,0.172-0.941-0.227-1.213
		c-0.004,0-0.008-0.006-0.012-0.01c-2.338-1.605-5.314-1.983-7.977-1.015c-0.449,0.195-0.652,0.713-0.467,1.163
		c0.195,0.45,0.711,0.655,1.162,0.463c2.113-0.749,4.463-0.423,6.293,0.872C519.24,254.13,519.395,254.172,519.549,254.186"/>
	<path fill="#007CFF" d="M604.965,367.922l-12.158,6.919l-12.652,27.211c0,0,12.219,7.775,21.85,1.484
		C611.629,397.236,604.965,367.922,604.965,367.922"/>
	<g opacity="0.5" enable-background="new    ">
		<g>
			<g>
				<g>
					<defs>
						<rect id="SVGID_37_" x="580.154" y="367.922" width="27.057" height="38.071"/>
					</defs>
					<clipPath id="SVGID_38_">
						<use xlink:href="#SVGID_37_"  overflow="visible"/>
					</clipPath>
					<path clip-path="url(#SVGID_38_)" fill="#FFFFFF" d="M604.965,367.922l-12.158,6.919l-12.652,27.211
						c0,0,12.219,7.775,21.85,1.484C611.629,397.236,604.965,367.922,604.965,367.922"/>
				</g>
			</g>
		</g>
	</g>
	<path fill="#007CFF" d="M392.058,376.332l14.402,4.069l13.65,28.247c0,0-10.98,10.146-22.847,0.451
		C388.362,401.818,392.058,376.332,392.058,376.332"/>
	<g opacity="0.5" enable-background="new    ">
		<g>
			<g>
				<g>
					<defs>
						<rect id="SVGID_39_" x="391.295" y="376.332" width="28.815" height="36.96"/>
					</defs>
					<clipPath id="SVGID_40_">
						<use xlink:href="#SVGID_39_"  overflow="visible"/>
					</clipPath>
					<path clip-path="url(#SVGID_40_)" fill="#FFFFFF" d="M392.058,376.332l14.402,4.069l13.65,28.247
						c0,0-10.98,10.146-22.847,0.451C388.362,401.818,392.058,376.332,392.058,376.332"/>
				</g>
			</g>
		</g>
	</g>
	<path fill="#1A2E35" d="M518.713,261.229c0.998-0.188,2.037,0.933,2.305,2.469c0.271,1.538-0.332,2.95-1.332,3.116
		c-0.994,0.167-2.031-0.931-2.305-2.469C517.094,262.85,517.719,261.416,518.713,261.229"/>
	<path fill="#1A2E35" d="M521.789,259.711l-3.516,1.726C520.396,262.931,521.789,259.711,521.789,259.711"/>
	<path fill="#1A2E35" d="M501.32,264.787c0.994-0.187,2.033,0.938,2.305,2.472c0.271,1.538-0.332,2.953-1.334,3.117
		c-0.994,0.166-2.033-0.935-2.303-2.473C499.697,266.41,500.322,264.974,501.32,264.787"/>
	<path fill="#1A2E35" d="M504.393,263.272l-3.506,1.725C503,266.493,504.393,263.272,504.393,263.272"/>
	<path fill="#1A2E35" d="M413.404,344.292c-1.979,0-3.929-0.35-5.722-1.081c-6.438-2.635-9.436-9.336-8.222-18.397
		c0.072-0.563,0.604-0.966,1.169-0.889c0.563,0.075,0.966,0.597,0.889,1.167c-1.071,8.049,1.456,13.953,6.953,16.197
		c5.938,2.431,13.84,0,17.975-5.524c5.206-6.947,3.522-16.794-4.618-27.013c-21.274-26.701-19.852-40.9-16.849-52.108
		c4.368-16.289,17.149-34.953,53.298-31.368c0.568,0.058,0.986,0.563,0.931,1.139c-0.059,0.571-0.541,0.979-1.138,0.928
		c-34.667-3.449-46.927,14.329-51.082,29.839c-3.007,11.214-4.212,24.331,16.459,50.276c12.472,15.646,7.414,25.88,4.663,29.552
		C424.668,341.601,418.906,344.292,413.404,344.292"/>
	<g>
		<path opacity="0.07" enable-background="new    " d="M407.272,700.433c0.949,6.006,5.296,11.182,5.633,17.25
			c0.265,4.742-1.965,9.22-3.056,13.847c-1.094,4.624-0.572,10.389,3.498,12.842c2.82,1.695,6.569,1.171,9.373-0.555
			c2.803-1.727,4.821-4.466,6.554-7.266c6.353-10.229,9.874-22.189,10.072-34.227c0.089-5.105-0.511-10.502-3.512-14.633
			C426.491,674.845,404.906,685.475,407.272,700.433"/>
		<path opacity="0.07" enable-background="new    " d="M399.647,684.547c0.86,0.988,2.077,1.629,3.349,1.953
			c1.579,0.409,3.448,0.285,4.586-0.892c1.079-1.112,1.201-2.838,1.043-4.381c-0.191-1.893-0.724-3.8-1.888-5.312
			c-1.156-1.509-3.022-2.556-4.918-2.402c-1.899,0.156-3.686,1.713-3.777,3.614C397.932,679.17,398.273,682.967,399.647,684.547"/>
		<path opacity="0.07" enable-background="new    " d="M416.833,672.053c-1.043-1.414-2.547-2.077-4.042-1.775
			c-1.47,0.303-2.82,1.664-2.994,3.206c-0.049,0.456-0.077,0.98-0.069,1.517c0.012,0.782,0.077,1.631,0.264,2.425
			c0.214,0.87,0.572,1.655,1.067,2.145c0.708,0.7,1.623,1.142,2.589,1.321c1.205,0.223,2.594,0.042,3.462-0.856
			c0.906-0.944,1.146-2.338,1.097-3.634C418.147,674.864,417.748,673.299,416.833,672.053"/>
		<path opacity="0.07" enable-background="new    " d="M426.455,671.524c-1.031-1.463-2.358-1.849-3.638-1.372
			c-1.226,0.453-2.324,1.777-2.576,3.146c-0.076,0.445-0.135,0.919-0.149,1.369c-0.028,0.719-0.017,1.488,0.154,2.212
			c0.183,0.776,0.556,1.473,1.063,1.889c0.625,0.51,1.376,0.804,2.163,0.871c0.974,0.083,2.069-0.171,2.776-0.909
			c0.84-0.885,1.195-2.11,1.245-3.31C427.547,674.068,427.245,672.65,426.455,671.524"/>
		<path opacity="0.07" enable-background="new    " d="M435.029,673.527c-1.015-1.523-2.171-1.628-3.233-0.979
			c-0.98,0.601-1.84,1.896-2.155,3.088c-0.111,0.433-0.196,0.857-0.235,1.222c-0.071,0.657-0.108,1.353,0.043,2.005
			c0.158,0.685,0.542,1.302,1.069,1.631c0.522,0.333,1.12,0.474,1.725,0.423c0.753-0.06,1.546-0.384,2.095-0.962
			c0.774-0.821,1.25-1.879,1.403-2.982C435.901,675.798,435.698,674.527,435.029,673.527"/>
		<path opacity="0.07" enable-background="new    " d="M436.714,681.932c-0.105,0.495-0.17,1.015-0.051,1.512
			c0.109,0.497,0.431,0.969,0.896,1.163c0.808,0.324,1.696-0.243,2.284-0.883c0.597-0.639,1.092-1.394,1.314-2.24
			c0.22-0.844,0.146-1.789-0.318-2.532C438.95,675.939,437.034,680.448,436.714,681.932"/>
		<path opacity="0.07" enable-background="new    " d="M499.291,826.391c-20.334,0-40.313,0.089-59.835,0.258
			c-0.17-0.843-0.387-1.683-0.702-2.498c-5.445-14.085-27.025-10.494-30.476,2.843c-178.65,2.408-311.837,11.757-311.837,22.917
			c0,12.99,180.363,23.521,402.85,23.521c222.482,0,402.84-10.53,402.84-23.521C902.131,836.922,721.773,826.391,499.291,826.391z"
			/>
		<path opacity="0.07" enable-background="new    " d="M404.591,811.819c0.574,1.18,1.589,2.108,2.729,2.751
			c1.427,0.8,3.264,1.159,4.662,0.314c1.329-0.801,1.884-2.438,2.131-3.967c0.301-1.88,0.276-3.861-0.459-5.616
			c-0.729-1.757-2.264-3.248-4.139-3.587c-1.871-0.337-3.997,0.71-4.581,2.521C404.318,806.186,403.676,809.94,404.591,811.819"/>
		<path opacity="0.07" enable-background="new    " d="M424.409,804.159c-0.646-1.634-1.928-2.661-3.448-2.752
			c-1.497-0.087-3.157,0.886-3.718,2.329c-0.166,0.43-0.324,0.926-0.454,1.443c-0.19,0.761-0.35,1.601-0.369,2.41
			c-0.021,0.897,0.126,1.749,0.48,2.35c0.499,0.856,1.273,1.516,2.158,1.941c1.108,0.526,2.5,0.708,3.569,0.06
			c1.119-0.68,1.697-1.965,1.991-3.229C424.96,807.215,424.977,805.596,424.409,804.159"/>
		<path opacity="0.07" enable-background="new    " d="M433.843,806.117c-0.62-1.683-1.806-2.391-3.161-2.263
			c-1.298,0.124-2.706,1.124-3.295,2.382c-0.194,0.408-0.369,0.854-0.503,1.282c-0.211,0.688-0.396,1.438-0.418,2.182
			c-0.021,0.798,0.162,1.566,0.546,2.101c0.473,0.648,1.12,1.128,1.859,1.395c0.927,0.33,2.046,0.367,2.923-0.167
			c1.038-0.637,1.695-1.729,2.053-2.875C434.25,808.859,434.319,807.407,433.843,806.117"/>
		<path opacity="0.07" enable-background="new    " d="M441.618,810.255c-0.593-1.732-1.684-2.131-2.877-1.775
			c-1.104,0.329-2.265,1.361-2.873,2.435c-0.224,0.389-0.409,0.777-0.546,1.122c-0.236,0.613-0.449,1.272-0.473,1.946
			c-0.024,0.699,0.187,1.395,0.612,1.85c0.422,0.459,0.964,0.741,1.559,0.852c0.742,0.136,1.598,0.028,2.274-0.39
			c0.958-0.596,1.689-1.497,2.12-2.521C441.878,812.672,442.008,811.392,441.618,810.255"/>
		<path opacity="0.07" enable-background="new    " d="M441.091,818.813c-0.229,0.452-0.426,0.938-0.442,1.446
			c-0.017,0.507,0.166,1.045,0.57,1.35c0.693,0.523,1.693,0.198,2.437-0.264c0.736-0.465,1.412-1.067,1.844-1.828
			c0.434-0.762,0.604-1.692,0.345-2.528C444.789,813.594,441.781,817.458,441.091,818.813"/>
		<path opacity="0.07" enable-background="new    " d="M356.502,751.007c0.745,6.03-1.997,12.211-0.645,18.134
			c1.065,4.632,4.446,8.318,6.775,12.458c2.329,4.141,3.427,9.824,0.193,13.306c-2.238,2.413-5.984,2.948-9.158,2.065
			c-3.174-0.885-5.867-2.96-8.312-5.163c-8.936-8.069-15.631-18.59-19.157-30.097c-1.5-4.885-2.415-10.236-0.674-15.035
			C330.945,731.739,354.631,735.977,356.502,751.007"/>
		<path opacity="0.07" enable-background="new    " d="M359.424,733.63c-0.554,1.188-1.542,2.141-2.67,2.806
			c-1.41,0.83-3.241,1.229-4.655,0.414c-1.347-0.771-1.938-2.398-2.215-3.922c-0.342-1.873-0.357-3.855,0.341-5.624
			c0.697-1.773,2.195-3.295,4.063-3.675c1.866-0.373,4.014,0.629,4.635,2.427C359.581,727.989,360.305,731.732,359.424,733.63"/>
		<path opacity="0.07" enable-background="new    " d="M339.455,726.382c0.608-1.646,1.868-2.7,3.393-2.82
			c1.498-0.121,3.17,0.818,3.762,2.251c0.179,0.424,0.351,0.919,0.487,1.436c0.203,0.754,0.377,1.59,0.418,2.398
			c0.04,0.897-0.09,1.752-0.431,2.36c-0.482,0.866-1.245,1.542-2.122,1.983c-1.096,0.551-2.483,0.762-3.563,0.137
			c-1.133-0.657-1.741-1.933-2.058-3.188C338.97,729.451,338.916,727.835,339.455,726.382"/>
		<path opacity="0.07" enable-background="new    " d="M330.058,728.539c0.585-1.694,1.756-2.43,3.117-2.327
			c1.303,0.096,2.729,1.068,3.342,2.311c0.205,0.404,0.387,0.847,0.529,1.271c0.226,0.684,0.424,1.429,0.463,2.171
			c0.042,0.798-0.132,1.571-0.497,2.111c-0.461,0.661-1.096,1.15-1.837,1.432c-0.915,0.353-2.035,0.409-2.915-0.104
			c-1.056-0.617-1.737-1.691-2.12-2.831C329.709,731.287,329.614,729.84,330.058,728.539"/>
		<path opacity="0.07" enable-background="new    " d="M322.375,732.839c0.561-1.745,1.64-2.165,2.835-1.835
			c1.11,0.303,2.295,1.313,2.926,2.369c0.229,0.387,0.43,0.771,0.564,1.112c0.252,0.608,0.479,1.263,0.513,1.937
			c0.043,0.701-0.158,1.396-0.572,1.861c-0.412,0.467-0.943,0.76-1.54,0.883c-0.736,0.152-1.593,0.06-2.278-0.343
			c-0.974-0.573-1.721-1.461-2.175-2.478C322.167,735.26,322.007,733.987,322.375,732.839"/>
		<path opacity="0.07" enable-background="new    " d="M323.081,741.381c0.238,0.45,0.445,0.931,0.475,1.438
			c0.028,0.512-0.146,1.049-0.548,1.363c-0.683,0.538-1.691,0.232-2.436-0.215c-0.751-0.45-1.433-1.037-1.883-1.788
			c-0.446-0.75-0.637-1.683-0.396-2.521C319.279,736.242,322.366,740.046,323.081,741.381"/>
	</g>
</g>
</svg>
