<?xml version="1.0" encoding="utf-8"?>
<!-- Generator: Adobe Illustrator 15.1.0, SVG Export Plug-In . SVG Version: 6.00 Build 0)  -->
<!DOCTYPE svg PUBLIC "-//W3C//DTD SVG 1.1//EN" "http://www.w3.org/Graphics/SVG/1.1/DTD/svg11.dtd">
<svg version="1.1" id="圖層_1" xmlns="http://www.w3.org/2000/svg" xmlns:xlink="http://www.w3.org/1999/xlink" x="0px" y="0px"
	 width="900px" height="125px" viewBox="0 0 900 125" enable-background="new 0 0 900 125" xml:space="preserve">
<g>
	<path fill="#088FDF" d="M111.851,50.294V38.342c0-6.277-1.67-11.086-5.008-14.425c-3.341-3.338-8.148-5.008-14.413-5.008
		c-3.957,0-7.28,0.64-9.971,1.917c-2.694,1.287-5.214,3.42-7.565,6.416c-3.852-5.554-9.354-8.333-16.51-8.333
		c-6.032,0-10.94,1.67-14.724,5.008c-3.784,3.339-5.671,7.643-5.671,12.912v58.444H58.74V41.865c0-3.136,1.023-4.706,3.068-4.706
		c1.089,0,1.823,0.317,2.198,0.953c0.375,0.628,0.562,1.881,0.562,3.753v53.408h20.753V41.561c0-2.936,1.023-4.402,3.068-4.402
		c1.088,0,1.814,0.31,2.17,0.927c0.356,0.622,0.539,1.878,0.539,3.779v8.429H111.851z"/>
	<path fill="#088FDF" d="M120.578,85.005h-1.067c-3.063,0-5.108-0.492-6.146-1.479c-1.037-0.981-1.553-1.627-1.553-4.588v-24.33
		H91.117v27.375c0,7.18,2.107,12.784,6.321,16.83c4.212,4.039,10.092,6.062,17.636,6.062h5.504h15.656V84.786L120.578,85.005z"/>
	<path fill="#FBB03B" d="M121.132,60.056c0-3.196-2.55-5.783-5.66-5.783V65.83C118.582,65.83,121.132,63.24,121.132,60.056z"/>
	<path fill="#FBB03B" d="M128.351,60.078h0.005c0-0.009,0-0.016,0-0.027c0-0.004,0-0.019,0-0.026h-0.005
		c-0.121-7.183-5.835-13-12.879-13.096v3.576c2.495,0.048,4.83,1.058,6.596,2.856c1.757,1.796,2.749,4.163,2.794,6.69
		c-0.046,2.528-1.037,4.896-2.794,6.692c-1.766,1.8-4.101,2.813-6.596,2.856v3.578C122.516,73.078,128.23,67.26,128.351,60.078z"/>
	<path fill="#FBB03B" d="M135.167,60.068h0.004c0-0.004,0-0.012,0-0.018c0-0.002,0-0.01,0-0.019h-0.004
		c-0.114-11.024-8.89-19.965-19.695-20.063v3.569c8.89,0.099,16.103,7.448,16.21,16.513c-0.107,9.063-7.321,16.42-16.21,16.513v3.57
		C126.277,80.037,135.053,71.095,135.167,60.068z"/>
</g>
<g>
	<path fill="#088FDF" d="M180.931,101.38h-5.657V75.983c-0.903,1.23-1.702,2.194-2.398,2.891l-2.891,2.829l-3.074-5.719
		c6.189-5.82,10.945-11.417,14.267-16.788l4.489,3.259l-2.152,3.383l-2.583,4.305V101.38z M185.051,47.941
		c-0.902,1.026-1.62,1.845-2.152,2.459c-3.977,4.551-7.994,8.344-12.053,11.377l-3.628-5.228c4.714-2.91,9.06-6.826,13.037-11.745
		L185.051,47.941z M214.446,69.403v24.229v0.8c0,2.418-0.472,4.099-1.414,5.042c-0.944,0.942-3.158,1.415-6.642,1.415l-8.67,0.061
		l-1.353-6.026l8.363,0.43h0.984c1.353,0,2.152-0.164,2.398-0.492c0.246-0.329,0.369-1.128,0.369-2.398v-23.06H186.65v-5.473h36.897
		v5.473H214.446z M189.787,53.353V47.88h30.563v5.473H189.787z"/>
	<path fill="#088FDF" d="M266.041,96.522v1.599c-5.495,1.024-10.312,1.538-14.452,1.538l-15.62,0.861l-1.046-5.166h7.564
		c2.829,0,5.104-0.083,6.827-0.246v-4.551h-11.5v-4.305h11.5v-3.689h-11.869V62.946h11.869v-3.444h-14.698v-4.489h14.698v-3.997
		c-1.067,0.164-2.706,0.246-4.92,0.246l-6.149,0.184l-1.722-4.735c3.854-0.164,8.876-0.246,15.066-0.246
		c4.345,0,8.465-0.532,12.36-1.599l2.767,3.997c-3.485,1.067-7.543,1.763-12.176,2.091v4.059h13.713v1.537h7.379V45.667h5.165
		v10.884h10.147c-0.042,2.543-0.133,8.241-0.276,17.096c-0.144,8.854-0.215,14.595-0.215,17.218c0,2.255-0.256,4.151-0.769,5.689
		c-0.513,1.537-1.22,2.674-2.122,3.413c-0.902,0.738-3.28,1.106-7.133,1.106c-1.353,0-2.132-0.021-2.337-0.061l-2.213-5.965
		c0.45,0.04,0.82,0.082,1.106,0.123c2.131,0.287,3.505,0.431,4.12,0.431c1.435,0,2.419-0.533,2.952-1.599
		c0.533-1.065,0.902-4.129,1.108-9.193c0.204-5.063,0.327-9.613,0.369-13.652c0.04-4.038,0.082-7.246,0.123-9.624h-4.919
		c-0.41,8.322-1.25,15.312-2.521,20.969c-0.861,3.936-2.276,8.067-4.244,12.391c-1.967,4.325-3.074,6.488-3.32,6.488L266.041,96.522
		z M249.314,70.879v-3.997h-6.642v3.997H249.314z M249.314,78.627v-4.181h-6.642v4.181H249.314z M266.041,96.461
		c0.369,0,1.485-1.855,3.351-5.565c1.865-3.71,3.218-7.708,4.059-11.992c0.839-4.284,1.507-10.075,1.998-17.372h-7.501v-2.03
		h-13.406v3.444h12.299v19.617h-12.299v3.689h11.5v4.305h-11.5v4.244l6.088-0.554c2.828-0.329,4.632-0.574,5.412-0.738V96.461z
		 M261.612,70.879v-3.997h-7.072v3.997H261.612z M261.612,78.627v-4.181h-7.072v4.181H261.612z"/>
	<path fill="#333333" d="M347.09,77.459v4.427c-3.896,1.968-8.24,3.711-13.037,5.228h24.905v4.858h-24.905v2.46v1.291
		c0,3.403-1.824,5.104-5.473,5.104h-8.855l-1.353-4.858l8.24,0.246c1.188,0,1.784-0.594,1.784-1.783v-2.46h-26.074v-4.858h26.074
		v-2.583c0.696-0.082,2.234-0.431,4.612-1.046l5.904-1.538h-25.274v-4.488H347.09z M352.379,74.876h-43.354v8.855h-5.35v-13.59
		h3.014l-0.615-23.061c5.657-0.246,10.044-0.819,13.16-1.722l2.644,4.427c-2.173,0.78-5.719,1.313-10.639,1.599l0.123,3.075h9.409
		v4.12h-9.224l0.061,3.382h9.163v4.182h-9.041l0.124,3.998h37.634l0.062-3.998h-8.425v-4.182h8.609l0.062-3.382h-8.671v-4.12h8.794
		l0.061-3.26h-9.531v-4.796h14.82l-0.616,23.737h3.137v13.59h-5.412V74.876z M331.594,53.292c-0.698,0.492-1.784,1.087-3.259,1.784
		l-3.813,1.845l-3.014-3.997l3.813-1.169c1.516-0.532,2.439-0.962,2.767-1.291l-2.029-1.538l-2.029-1.292l3.198-2.828l2.029,1.291
		l2.706,2.029l2.091-1.599c0.287-0.164,0.82-0.717,1.599-1.66l3.013,2.706c-0.656,0.779-1.25,1.374-1.784,1.784l-1.783,1.476
		l1.476,1.353l1.722,1.784l-3.69,2.706l-1.538-1.906L331.594,53.292z M331.901,65.591c-1.189,0.943-3.321,1.989-6.396,3.136
		c-0.164,0.042-0.369,0.124-0.615,0.246l-2.583-4.059c0.533-0.123,0.942-0.205,1.23-0.246c1.557-0.327,3.115-0.901,4.673-1.722
		l0.369-0.185l-2.091-1.537l-1.968-1.353l3.136-2.645l2.091,1.353c1.147,0.697,1.988,1.313,2.521,1.845
		c0.861-0.574,1.578-1.147,2.152-1.722l2.029-2.029l3.136,2.706l-2.151,2.029l-1.907,1.599l1.723,1.538l1.721,1.66l-3.874,2.952
		l-1.723-2.091L331.901,65.591z"/>
	<path fill="#333333" d="M390.259,65.652c-4.428,3.198-9.901,6.211-16.419,9.039l-3.013-5.042c5.944-2.337,11.52-5.166,16.727-8.487
		c0.409-0.246,0.942-0.573,1.598-0.983L390.259,65.652z M391.366,71.31V51.877h-20.232v-5.289H396.9v23.369l5.781,1.106
		c-0.206,0.779-0.472,1.498-0.799,2.152l-0.738,1.415h20.232v26.75h-5.658v-2.89h-33.884v2.89h-5.657V74.63h18.817l0.677-1.353
		c0.123-0.286,0.327-0.819,0.615-1.599c0-0.082,0.04-0.204,0.123-0.369H391.366z M382.08,63.008c-2.009-1.803-4.694-3.73-8.056-5.78
		c-0.206-0.124-0.492-0.308-0.861-0.553l2.952-3.936c3.034,1.517,6.17,3.465,9.409,5.842L382.08,63.008z M381.834,84.1h33.884
		v-4.488h-33.884V84.1z M381.834,93.509h33.884v-4.797h-33.884V93.509z M419.1,72.663V51.877h-20.047v-5.289h25.643v26.074H419.1z
		 M418.239,64.606c-4.099,2.051-8.855,3.875-14.267,5.473c-0.615,0.164-1.312,0.369-2.09,0.615l-2.583-4.981
		c7.912-2.049,14.041-4.16,18.387-6.333L418.239,64.606z M409.507,61.962c-1.476-1.147-2.952-2.214-4.427-3.198l-4.059-2.644
		l3.198-3.751l4.059,2.152c1.312,0.697,2.869,1.701,4.674,3.013L409.507,61.962z"/>
	<path fill="#333333" d="M445.112,85.823c-0.083,0.983-0.236,2.87-0.461,5.657c-0.226,2.788-0.953,5.944-2.183,9.47l-4.919-1.476
		c1.353-4.059,2.254-8.015,2.706-11.869c0.082-0.573,0.185-1.291,0.308-2.152L445.112,85.823z M460.056,55.567
		c-4.346,9.716-8.548,16.973-12.606,21.769l3.628-0.369c1.066-0.124,1.772-0.225,2.122-0.308c0.348-0.082,0.625-0.143,0.83-0.185
		l-0.799-2.213l-0.984-2.337l4.243-1.168c1.23,2.501,2.419,5.842,3.567,10.023c0.081,0.288,0.184,0.636,0.308,1.045l-4.858,1.353
		l-0.246-1.107l-0.246-0.984c-1.435,0.288-3.73,0.595-6.888,0.923l-8.793,0.983l-1.415-5.288h1.845l1.477-0.063
		c3.238-3.935,5.821-7.665,7.749-11.191l-4.736,0.369l-5.535,0.308l-0.922-4.981h1.845l1.168-0.062
		c3.198-5.493,5.637-11.069,7.318-16.727l5.596,1.415c-2.912,6.888-5.391,11.951-7.441,15.189l2.583-0.123l2.276-0.246
		c0.778-1.353,1.454-2.706,2.029-4.059l1.476-3.751L460.056,55.567z M446.835,99.413c0-0.533,0.031-1.752,0.092-3.659
		c0.062-1.906,0.092-3.105,0.092-3.598c0-2.418-0.144-4.632-0.43-6.641l4.366-0.307c0.123,0.82,0.225,1.497,0.308,2.029
		c0.45,2.706,0.708,5.135,0.769,7.287c0.062,2.152,0.113,3.699,0.153,4.643L446.835,99.413z M455.689,97.814l-1.229-6.949
		c-0.41-2.09-0.923-4.099-1.538-6.026l4.059-0.738c0.246,0.698,0.451,1.272,0.615,1.723c0.984,2.706,1.784,5.637,2.398,8.793
		c0.082,0.532,0.205,1.169,0.37,1.906L455.689,97.814z M466.144,101.38h-5.227V47.265h32.039v46.244v0.799
		c0,2.213-0.4,3.813-1.2,4.797c-0.799,0.984-2.429,1.476-4.889,1.476h-5.904l-1.66-5.596l6.272,0.308
		c1.435,0,2.152-0.636,2.152-1.907V78.935h-12.791v5.657c0,1.23,0.184,1.999,0.553,2.307c0.369,0.307,0.962,0.46,1.783,0.46h8.117
		v4.613h-8.363h-0.798c-2.091,0-3.639-0.501-4.644-1.507c-1.005-1.004-1.506-2.879-1.506-5.627v-5.903h-3.936V101.38z M466.144,62.7
		h4.612l-1.168-3.69c-0.328-0.861-0.738-1.864-1.23-3.013c-0.165-0.369-0.369-0.84-0.615-1.415l4.919-0.799
		c0.778,1.805,1.332,3.28,1.66,4.427l1.292,4.489h2.583c0.164-0.492,0.308-0.881,0.43-1.168c0.82-2.008,1.517-4.632,2.091-7.871
		l5.043,0.983c-0.698,3.485-1.517,6.171-2.459,8.056h4.427V51.877h-21.585V62.7z M466.144,74.262h8.917l-1.107-2.46
		c-0.41-0.82-0.922-1.742-1.538-2.767l4.858-0.984c0.82,1.313,1.374,2.296,1.661,2.952l1.476,3.259h7.318v-6.949h-21.585V74.262z"/>
</g>
<g>
	<path fill="#333333" d="M523.049,93.142l4.536-11.706h1.511l4.752,11.663l4.233-11.101h4.622l-7.948,17.408h-2.116l-3.931-10.928
		l-4.492,10.928h-2.161l-7.817-17.408h4.621L523.049,93.142z"/>
	<path fill="#333333" d="M554.582,93.142l4.536-11.706h1.511l4.752,11.663l4.233-11.101h4.622l-7.948,17.408h-2.116l-3.931-10.928
		l-4.492,10.928h-2.161l-7.817-17.408h4.621L554.582,93.142z"/>
	<path fill="#333333" d="M586.115,93.142l4.536-11.706h1.511l4.752,11.663l4.232-11.101h4.623l-7.948,17.408h-2.116l-3.932-10.928
		l-4.492,10.928h-2.16l-7.817-17.408h4.621L586.115,93.142z"/>
	<path fill="#333333" d="M617.56,96.598c0,0.863-0.295,1.605-0.885,2.225c-0.591,0.618-1.317,0.928-2.182,0.928
		s-1.599-0.302-2.203-0.907c-0.604-0.604-0.907-1.332-0.907-2.182c0-0.848,0.303-1.576,0.907-2.181
		c0.604-0.605,1.332-0.908,2.182-0.908c0.849,0,1.576,0.289,2.181,0.864C617.258,95.014,617.56,95.733,617.56,96.598z"/>
	<path fill="#333333" d="M630.691,99.059h-4.189V85.755h-2.03v-3.413h2.03v-6.134h4.189v6.134h3.327v3.413h-3.327V99.059z"/>
	<path fill="#333333" d="M645.896,93.142l4.536-11.706h1.512l4.751,11.663l4.233-11.101h4.622l-7.947,17.408h-2.117l-3.931-10.928
		l-4.492,10.928h-2.16l-7.818-17.408h4.622L645.896,93.142z"/>
	<path fill="#088FDF" d="M684.401,80.131c-1.291-1.209-2.642-1.814-4.052-1.814c-2.138,0-3.205,0.968-3.205,2.903
		c0,1.089,0.967,1.976,2.902,2.661c3.547,1.291,5.745,2.47,6.592,3.538c0.847,1.069,1.271,2.389,1.271,3.961
		c0,2.58-0.898,4.636-2.691,6.168c-1.795,1.532-4.002,2.298-6.622,2.298c-3.388,0-6.188-1.33-8.406-3.992l2.601-3.326
		c2.015,2.017,3.869,3.024,5.563,3.024c2.459,0,3.688-1.188,3.688-3.568c0-1.21-0.646-2.106-1.935-2.691
		c-1.29-0.584-2.278-1.018-2.963-1.3c-3.709-1.612-5.563-3.568-5.563-5.866c0-2.298,0.695-4.163,2.085-5.594
		c1.392-1.431,3.216-2.147,5.473-2.147c3.226,0,5.785,0.827,7.681,2.479L684.401,80.131z"/>
	<path fill="#333333" d="M702.093,99.059h-4.191V85.755h-2.029v-3.413h2.029v-6.134h4.191v6.134h3.326v3.413h-3.326V99.059z"/>
	<path fill="#333333" d="M714.922,81.997v9.244c0,3.313,1.15,4.968,3.454,4.968c2.305,0,3.457-1.655,3.457-4.968v-9.244h4.189
		v10.021c0,5.069-2.549,7.603-7.646,7.603c-5.096,0-7.646-2.533-7.646-7.603V81.997H714.922z"/>
	<path fill="#333333" d="M745.763,97.461c-1.123,1.44-2.895,2.16-5.313,2.16s-4.34-0.921-5.766-2.764
		c-1.427-1.843-2.139-4.002-2.139-6.479c0-2.477,0.727-4.586,2.182-6.329c1.452-1.742,3.318-2.613,5.594-2.613
		c2.418,0,4.204,0.706,5.356,2.116l0.086-13.995h4.189v29.502h-4.189V97.461z M746.238,90.507c0-1.498-0.46-2.779-1.382-3.845
		c-0.923-1.065-2.029-1.598-3.326-1.598s-2.412,0.526-3.347,1.576c-0.938,1.052-1.404,2.348-1.404,3.888
		c0,1.541,0.452,2.837,1.36,3.888c0.907,1.051,2.052,1.576,3.435,1.576c1.381,0,2.506-0.51,3.368-1.533
		C745.805,93.437,746.238,92.12,746.238,90.507z"/>
	<path fill="#333333" d="M755.741,81.997h4.839l4.447,10.237l4.667-10.237h4.752l-12.097,24.189h-4.664l5.269-9.762L755.741,81.997z
		"/>
	<path fill="#333333" d="M786.539,96.598c0,0.863-0.295,1.605-0.885,2.225c-0.59,0.618-1.316,0.928-2.182,0.928
		c-0.864,0-1.597-0.302-2.201-0.907c-0.604-0.604-0.908-1.332-0.908-2.182c0-0.848,0.304-1.576,0.908-2.181
		c0.604-0.605,1.331-0.908,2.182-0.908c0.848,0,1.575,0.289,2.18,0.864C786.238,95.014,786.539,95.733,786.539,96.598z"/>
	<path fill="#333333" d="M806.15,86.446c-1.066-1.065-2.261-1.598-3.585-1.598c-1.556,0-2.779,0.561-3.673,1.684
		c-0.892,1.124-1.337,2.499-1.337,4.126c0,1.626,0.502,2.958,1.511,3.995c1.008,1.037,2.231,1.555,3.673,1.555
		c1.236,0,2.374-0.547,3.411-1.642v4.017c-1.209,0.691-2.605,1.037-4.189,1.037c-2.479,0-4.536-0.878-6.179-2.635
		c-1.641-1.756-2.462-3.902-2.462-6.436s0.845-4.687,2.528-6.458c1.685-1.771,3.793-2.657,6.328-2.657
		c1.497,0,2.822,0.36,3.974,1.08V86.446z"/>
	<path fill="#333333" d="M830.251,90.507c0,2.678-0.82,4.867-2.462,6.565c-1.642,1.7-3.794,2.549-6.457,2.549
		s-4.83-0.849-6.501-2.549c-1.67-1.698-2.506-3.879-2.506-6.543c0-2.664,0.821-4.845,2.462-6.544
		c1.642-1.699,3.803-2.549,6.48-2.549c2.679,0,4.845,0.842,6.501,2.527C829.425,85.647,830.251,87.828,830.251,90.507z
		 M816.559,90.571c0,1.598,0.445,2.901,1.339,3.91c0.893,1.008,2.045,1.511,3.457,1.511c1.41,0,2.54-0.54,3.39-1.62
		c0.849-1.08,1.275-2.361,1.275-3.844c0-1.483-0.433-2.764-1.297-3.845c-0.864-1.08-1.994-1.62-3.391-1.62
		c-1.397,0-2.542,0.519-3.435,1.555C817.004,87.656,816.559,88.973,816.559,90.571z"/>
	<path fill="#333333" d="M841.051,83.509c1.065-1.382,2.707-2.073,4.924-2.073c1.931,0,3.456,0.893,4.579,2.678
		c1.095-1.785,2.865-2.678,5.313-2.678c3.6,0,5.398,2.333,5.398,6.998v10.625h-4.146v-8.984c0-3.628-0.994-5.443-2.98-5.443
		c-1.987,0-2.981,2.016-2.981,6.047v8.38h-4.189V90.42c0-3.858-0.879-5.788-2.636-5.788c-2.188,0-3.282,2.016-3.282,6.047v8.38
		h-4.189V81.997h4.189V83.509z"/>
</g>
</svg>
