<?xml version="1.0" encoding="utf-8"?>
<!-- Generator: Adobe Illustrator 15.1.0, SVG Export Plug-In . SVG Version: 6.00 Build 0)  -->
<!DOCTYPE svg PUBLIC "-//W3C//DTD SVG 1.1//EN" "http://www.w3.org/Graphics/SVG/1.1/DTD/svg11.dtd">
<svg version="1.1" id="圖層_1" xmlns="http://www.w3.org/2000/svg" xmlns:xlink="http://www.w3.org/1999/xlink" x="0px" y="0px"
	 width="220.282px" height="192.732px" viewBox="0 0 220.282 192.732" enable-background="new 0 0 220.282 192.732"
	 xml:space="preserve">
<g>
	<path fill="#088FDF" d="M165.604,70.362l-0.001-26.796c-0.002-14.071-3.751-24.854-11.233-32.34
		C146.88,3.743,136.098-0.001,122.053,0c-8.871,0.001-16.319,1.436-22.353,4.298c-6.041,2.888-11.69,7.67-16.961,14.387
		C74.102,6.231,61.765,0.004,45.721,0.006C32.198,0.005,21.192,3.753,12.71,11.237C4.229,18.724-0.002,28.373,0,40.186l0.01,131.032
		l46.521-0.003L46.522,51.472c-0.001-7.033,2.298-10.549,6.881-10.551c2.442,0.001,4.085,0.712,4.927,2.134
		c0.844,1.408,1.262,4.218,1.262,8.415L59.6,171.215l46.527-0.003l-0.009-120.427c-0.001-6.58,2.3-9.867,6.882-9.867
		c2.439-0.001,4.066,0.693,4.866,2.074c0.799,1.396,1.21,4.214,1.21,8.475l0.002,18.899L165.604,70.362z"/>
	<path fill="#088FDF" d="M185.178,148.184l-2.393,0.001c-6.87,0.001-11.457-1.1-13.781-3.313c-2.324-2.199-3.483-3.646-3.484-10.285
		l-0.004-54.551l-46.396,0.003l0.004,61.373c0.001,16.097,4.726,28.663,14.172,37.735c9.449,9.055,22.629,13.587,39.543,13.586
		h12.342l35.103-0.004l-0.003-45.038L185.178,148.184z"/>
	<path fill="#F9C33D" d="M186.411,92.248c-0.001-7.164-5.717-12.966-12.688-12.964l0.001,25.912
		C180.696,105.195,186.412,99.386,186.411,92.248z"/>
	<path fill="#F9C33D" d="M202.6,92.298h0.011c-0.001-0.021,0-0.039,0-0.065c0-0.007-0.001-0.038,0-0.056h-0.01
		c-0.272-16.104-13.087-29.146-28.88-29.362v8.019c5.597,0.106,10.83,2.373,14.792,6.404c3.94,4.025,6.16,9.332,6.267,14.995
		c-0.106,5.671-2.324,10.981-6.266,15.009c-3.962,4.034-9.195,6.305-14.79,6.403l0.001,8.022
		C189.519,121.442,202.329,108.398,202.6,92.298z"/>
	<path fill="#F9C33D" d="M217.882,92.276l0.011-0.002c0-0.01,0-0.029-0.001-0.042c0-0.002-0.001-0.021,0-0.04l-0.009-0.001
		c-0.26-24.718-19.938-44.761-44.163-44.979l0.002,8.001c19.932,0.223,36.105,16.698,36.347,37.019
		c-0.238,20.325-16.409,36.82-36.343,37.027l0.001,8.005C197.95,137.045,217.625,116.993,217.882,92.276z"/>
</g>
</svg>
