<?xml version="1.0" encoding="utf-8"?>
<!-- Generator: Adobe Illustrator 15.1.0, SVG Export Plug-In . SVG Version: 6.00 Build 0)  -->
<!DOCTYPE svg PUBLIC "-//W3C//DTD SVG 1.1//EN" "http://www.w3.org/Graphics/SVG/1.1/DTD/svg11.dtd">
<svg version="1.1" id="圖層_1" xmlns="http://www.w3.org/2000/svg" xmlns:xlink="http://www.w3.org/1999/xlink" x="0px" y="0px"
	 width="1500px" height="159px" viewBox="0 0 1500 159" enable-background="new 0 0 1500 159" xml:space="preserve">
<path fill="#99D6FF" d="M1420.502,10H985.83c24.451,13.552,41.045,39.62,41.045,69.5s-16.594,55.947-41.045,69.5h434.672
	c38.385,0,69.498-31.118,69.498-69.5C1490,41.115,1458.887,10,1420.502,10z"/>
<circle fill="#FFFFFF" cx="1420.535" cy="79.499" r="45.246"/>
<g>
	<path fill="#00ACEA" d="M1422.201,97.335c8.897,0.576,15.791,4.478,15.791,9.205c0,5.129-8.119,9.291-18.113,9.291
		c-10.004,0-18.113-4.162-18.113-9.291c0-4.886,7.365-8.897,16.722-9.263"/>
	<path fill="#00EFD1" d="M1447.355,67.527v17.968c0,0.282-0.109,0.485-0.289,0.521c-1.982,0.217-3.978-0.27-5.638-1.375
		c-2.903-1.758-5.307-4.233-6.977-7.188c-1.67-2.958-4.076-5.435-6.986-7.192c-2.356-1.361-4.494-1.739-6.08-1.263
		c-0.387,0.115-0.895-0.557-0.895-1.182V50.016c-0.025-0.189,0.057-0.377,0.211-0.491c1.621-0.847,4.047-0.585,6.764,0.985
		c2.91,1.758,5.316,4.234,6.986,7.193c1.67,2.955,4.072,5.431,6.978,7.188c1.514,0.975,3.282,1.479,5.084,1.447
		C1446.904,66.31,1447.355,66.941,1447.355,67.527z"/>
	<path fill="#083863" d="M1420.34,47.089c1.025,0,1.857,0.833,1.857,1.858v55.737c0,0.514-0.416,0.928-0.931,0.928h-1.856
		c-0.515,0-0.928-0.414-0.928-0.928V48.947C1418.482,47.922,1419.314,47.089,1420.34,47.089z"/>
</g>
<line fill="none" stroke="#FFFFFF" stroke-width="1.0848" stroke-miterlimit="10" x1="1375.258" y1="79.499" x2="1024.244" y2="79.499"/>
<g>
	<path fill="#083863" d="M1053.552,62.699c0.952,0.864,2.325,1.586,4.12,2.164c1.794,0.579,3.453,0.868,4.978,0.868
		c4.95,0,7.427-1.802,7.427-5.405c0-1.011-0.256-1.912-0.77-2.703c-0.513-0.791-1.205-1.476-2.076-2.054
		c-0.871-0.579-2.59-1.527-5.152-2.846c-3.691-1.89-6.027-3.538-7.009-4.944c-0.982-1.406-1.474-2.996-1.474-4.768
		c0-2.739,1.113-4.929,3.34-6.57c2.228-1.641,5.024-2.461,8.395-2.461c3.397,0,5.809,0.403,7.229,1.208v4.329
		c-1.991-1.377-4.563-2.065-7.713-2.065c-2.152,0-3.911,0.458-5.272,1.374c-1.362,0.916-2.043,2.201-2.043,3.856
		c0,1.025,0.237,1.916,0.714,2.669c0.476,0.755,1.124,1.41,1.943,1.967c0.82,0.557,2.418,1.428,4.791,2.615
		c3.34,1.655,5.677,3.271,7.01,4.845c1.333,1.574,1.999,3.336,1.999,5.284c0,2.9-1.056,5.142-3.164,6.724
		c-2.109,1.582-5.062,2.373-8.854,2.373c-1.156,0-2.662-0.19-4.516-0.571c-1.854-0.381-3.153-0.842-3.9-1.384L1053.552,62.699
		L1053.552,62.699z"/>
	<path fill="#083863" d="M1100.729,37.979h-9.821v30.608h-3.759V37.979h-9.8v-3.428h23.379L1100.729,37.979L1100.729,37.979z"/>
	<path fill="#083863" d="M1124.02,68.587h-17.887V34.552h17.117v3.428h-13.382v11.58h12.37v3.428h-12.37V65.16h14.149v3.427H1124.02
		z"/>
	<path fill="#083863" d="M1134.367,55.667v12.92h-3.734V34.552h9.184c3.562,0,6.345,0.886,8.351,2.659
		c2.008,1.772,3.011,4.263,3.011,7.471c0,3.34-1.179,6.035-3.538,8.086c-2.356,2.051-5.266,3.018-8.723,2.9L1134.367,55.667
		L1134.367,55.667z M1134.367,38.001v14.172h4.264c2.797,0,4.932-0.633,6.404-1.901c1.473-1.267,2.209-3.072,2.209-5.416
		c0-4.57-2.695-6.855-8.086-6.855H1134.367z"/>
	<path fill="#083863" d="M1167.502,63.27c2.33,1.846,4.951,2.769,7.867,2.769c2.344,0,4.252-0.593,5.723-1.78
		c1.473-1.187,2.209-2.82,2.209-4.9c0-4.541-3.201-6.812-9.602-6.812h-2.813v-3.142h2.681c5.684,0,8.524-2.124,8.524-6.372
		c0-3.94-2.168-5.911-6.504-5.911c-2.402,0-4.658,0.828-6.768,2.483v-3.669c2.168-1.304,4.731-1.956,7.69-1.956
		c2.695,0,4.926,0.74,6.689,2.219c1.766,1.479,2.647,3.442,2.647,5.889c0,4.453-2.276,7.339-6.834,8.657v0.088
		c2.418,0.205,4.361,1.055,5.834,2.549c1.474,1.494,2.209,3.354,2.209,5.581c0,3.105-1.116,5.581-3.352,7.427
		c-2.235,1.846-5.086,2.769-8.56,2.769c-3.192,0-5.741-0.608-7.646-1.824V63.27H1167.502z"/>
</g>
<g enable-background="new    ">
	<text transform="matrix(1 0 0 1 1050.6289 114.5869)" fill="#083863" font-family="'MicrosoftJhengHeiRegular'" font-size="30">前往結帳</text>
</g>
<path fill="#FFE0B6" d="M1017.073,79.499c0-38.385-31.111-69.5-69.498-69.5H516.264c24.45,13.552,41.045,39.62,41.045,69.5
	s-16.595,55.946-41.045,69.5h431.313C985.962,148.999,1017.073,117.881,1017.073,79.499z"/>
<circle fill="#FFFFFF" cx="947.61" cy="79.498" r="45.246"/>
<g>
	<path fill="#083863" d="M959.903,65.647c-4.187,0-7.578-3.395-7.58-7.58v-8.824h-22.651c-2.51,0.008-4.542,2.041-4.549,4.549
		v51.397c-0.008,2.427,1.896,4.433,4.32,4.547h34.734c2.51-0.006,4.541-2.039,4.549-4.547v-1.684
		c-6.741-0.611-12.362-5.119-14.612-11.248c-0.166,0.059-0.342,0.094-0.526,0.094h-20.08c-0.912,0-1.649-0.738-1.649-1.649
		c0-0.912,0.737-1.649,1.649-1.649h19.772c-0.141-0.888-0.234-1.789-0.234-2.716c0-1.055,0.109-2.084,0.292-3.088h-19.83
		c-0.912,0-1.65-0.737-1.65-1.651c0-0.91,0.738-1.651,1.65-1.651h20.778c2.36-5.891,7.871-10.184,14.44-10.779v-3.52L959.903,65.647
		L959.903,65.647z M933.508,98.154h20.08c0.908,0,1.651,0.738,1.651,1.65c0,0.914-0.743,1.652-1.651,1.652h-20.08
		c-0.912,0-1.649-0.738-1.649-1.652C931.857,98.893,932.596,98.154,933.508,98.154z M947.379,74.144h-13.871
		c-0.912,0-1.649-0.739-1.649-1.65c0-0.912,0.737-1.652,1.649-1.652h13.871c0.91,0,1.649,0.74,1.649,1.652
		C949.028,73.404,948.289,74.144,947.379,74.144z"/>
	<path fill="#00EFD1" d="M959.903,62.616h6.7l-11.25-11.234v6.686C955.362,60.577,957.394,62.608,959.903,62.616z"/>
	<path fill="#00EFD1" d="M968.729,103.506v1.684c-0.009,2.508-2.039,4.541-4.55,4.547h-34.734c-2.425-0.114-4.328-2.12-4.32-4.547
		V53.792c0.007-2.508,2.039-4.541,4.549-4.549h22.651v8.824c0.002,4.186,3.395,7.58,7.58,7.58h8.824v3.52
		c0.518-0.047,1.038-0.079,1.567-0.079c0.494,0,0.98,0.032,1.465,0.074v-5.061c-0.004-0.401-0.159-0.786-0.44-1.077l-16.236-16.207
		l-0.152-0.152c-0.285-0.293-0.682-0.459-1.093-0.455c-0.051,0-0.101,0.004-0.15,0.017h-24.016
		c-4.187,0.001-7.579,3.394-7.582,7.581v51.398c-0.003,4.037,3.167,7.369,7.203,7.563c0.121,0,0.243,0.017,0.379,0.017h34.507
		c4.188-0.002,7.58-3.396,7.582-7.58v-1.692c-0.483,0.041-0.971,0.073-1.465,0.073C969.767,103.586,969.245,103.553,968.729,103.506
		z"/>
	<path fill="#00EFD1" d="M947.379,70.841h-13.871c-0.912,0-1.649,0.74-1.649,1.652c0,0.911,0.737,1.65,1.649,1.65h13.871
		c0.91,0,1.649-0.739,1.649-1.65C949.028,71.581,948.289,70.841,947.379,70.841z"/>
	<path fill="#00EFD1" d="M931.857,81.596c0,0.914,0.737,1.652,1.649,1.652h19.83c0.208-1.143,0.526-2.248,0.948-3.302h-20.778
		C932.596,79.946,931.857,80.686,931.857,81.596z"/>
	<path fill="#00EFD1" d="M931.857,90.702c0,0.911,0.737,1.649,1.649,1.649h20.08c0.186,0,0.36-0.035,0.526-0.094
		c-0.377-1.027-0.659-2.1-0.834-3.207h-19.772C932.596,89.051,931.857,89.79,931.857,90.702z"/>
	<path fill="#00EFD1" d="M933.508,101.458h20.08c0.908,0,1.651-0.737,1.651-1.651c0-0.912-0.743-1.65-1.651-1.65h-20.08
		c-0.912,0-1.649,0.738-1.649,1.65C931.857,100.719,932.596,101.458,933.508,101.458z"/>
	<path fill="#FFFFFF" d="M987.544,86.336c0-9.015-6.957-16.427-15.783-17.174c-0.483-0.042-0.971-0.074-1.465-0.074
		c-0.529,0-1.051,0.032-1.568,0.079c-6.569,0.596-12.079,4.889-14.44,10.779c-0.422,1.054-0.74,2.16-0.948,3.302
		c-0.183,1.004-0.292,2.033-0.292,3.088c0,0.926,0.095,1.828,0.234,2.715c0.175,1.107,0.457,2.18,0.834,3.207
		c2.25,6.129,7.871,10.637,14.612,11.248c0.519,0.047,1.039,0.08,1.568,0.08c0.494,0,0.98-0.033,1.465-0.074
		C980.587,102.764,987.544,95.354,987.544,86.336z M970.296,101.275c-8.252,0-14.94-6.688-14.94-14.938
		c0-8.25,6.688-14.939,14.94-14.939s14.938,6.688,14.938,14.939C985.233,94.588,978.548,101.275,970.296,101.275z"/>
	<path fill="#00ACEA" d="M970.296,71.397c-8.252,0-14.94,6.688-14.94,14.939c0,8.252,6.688,14.939,14.94,14.939
		s14.938-6.688,14.938-14.939C985.233,78.086,978.548,71.397,970.296,71.397z M962.944,83.768l4.766,5.563l10.932-9.119l2.507,3.005
		l-13.896,11.592l-7.277-8.494L962.944,83.768z"/>
	<polygon fill="#FFFFFF" points="981.146,83.217 978.642,80.212 967.71,89.331 962.944,83.768 959.974,86.314 967.251,94.809 	"/>
</g>
<line fill="none" stroke="#FFFFFF" stroke-width="1.0857" stroke-miterlimit="10" x1="902.33" y1="79.498" x2="550.744" y2="79.498"/>
<g>
	<path fill="#083863" d="M585.458,62.698c0.952,0.864,2.325,1.586,4.12,2.164c1.794,0.579,3.453,0.868,4.977,0.868
		c4.951,0,7.428-1.802,7.428-5.405c0-1.011-0.257-1.912-0.77-2.703s-1.205-1.476-2.077-2.054c-0.871-0.579-2.589-1.527-5.151-2.846
		c-3.691-1.89-6.027-3.538-7.01-4.944c-0.981-1.406-1.473-2.996-1.473-4.768c0-2.739,1.113-4.929,3.34-6.57
		c2.228-1.641,5.024-2.461,8.395-2.461c3.397,0,5.809,0.403,7.229,1.208v4.329c-1.992-1.377-4.563-2.065-7.713-2.065
		c-2.153,0-3.911,0.458-5.273,1.374c-1.361,0.916-2.043,2.201-2.043,3.856c0,1.025,0.237,1.916,0.715,2.669
		c0.476,0.755,1.124,1.41,1.943,1.967c0.82,0.557,2.417,1.428,4.79,2.615c3.34,1.655,5.677,3.271,7.01,4.845
		c1.333,1.574,1.999,3.336,1.999,5.284c0,2.9-1.055,5.142-3.164,6.724c-2.108,1.582-5.061,2.373-8.854,2.373
		c-1.157,0-2.663-0.19-4.516-0.571c-1.854-0.381-3.153-0.842-3.9-1.384L585.458,62.698L585.458,62.698z"/>
	<path fill="#083863" d="M632.634,37.979h-9.822v30.608h-3.757V37.979h-9.8v-3.428h23.379V37.979z"/>
	<path fill="#083863" d="M655.925,68.586h-17.886V34.551h17.116v3.428h-13.381v11.58h12.37v3.428h-12.37V65.16h14.149
		L655.925,68.586L655.925,68.586z"/>
	<path fill="#083863" d="M666.273,55.667v12.92h-3.735V34.551h9.185c3.561,0,6.344,0.886,8.351,2.659s3.011,4.263,3.011,7.471
		c0,3.34-1.18,6.035-3.538,8.086c-2.358,2.051-5.266,3.018-8.723,2.9H666.273z M666.273,38v14.172h4.263
		c2.798,0,4.933-0.633,6.405-1.901c1.472-1.267,2.208-3.072,2.208-5.416c0-4.57-2.695-6.855-8.086-6.855H666.273z"/>
	<path fill="#083863" d="M718.964,68.586h-20.368v-3.318l9.909-9.976c3.281-3.311,5.299-5.709,6.054-7.196
		c0.755-1.487,1.133-3.065,1.133-4.735c0-2.007-0.568-3.552-1.703-4.636c-1.137-1.084-2.766-1.626-4.89-1.626
		c-3.031,0-5.946,1.311-8.744,3.933v-3.911c2.622-2.095,5.697-3.142,9.229-3.142c2.93,0,5.276,0.813,7.042,2.439
		c1.765,1.626,2.647,3.831,2.647,6.614c0,2.139-0.582,4.245-1.747,6.317c-1.164,2.073-3.365,4.728-6.604,7.965l-7.932,7.844v0.088
		h15.974V68.586z"/>
</g>
<text transform="matrix(1 0 0 1 582.5361 114.5859)" fill="#083863" font-family="'MicrosoftJhengHeiRegular'" font-size="30">填寫購買資料</text>
<path fill="#99D6FF" d="M546.927,79.5c0-38.385-31.114-69.5-69.5-69.5H10v139h467.427C515.813,149,546.927,117.882,546.927,79.5z"/>
<circle fill="#FFFFFF" cx="477.427" cy="79.499" r="45.246"/>
<g>
	<g>
		<g>
			<path fill="#00EFD1" d="M490.979,63.604h8.674l4.428,40.113c0.549,4.91-2.986,9.334-7.896,9.883
				c-0.317,0.035-0.639,0.053-0.959,0.055h-35.596c-4.939-0.02-8.929-4.038-8.909-8.979c0-0.32,0.021-0.641,0.056-0.959
				l4.428-40.113H490.979L490.979,63.604z"/>
			<path fill="#083863" d="M490.979,71.464c-0.998,0-1.808-0.81-1.808-1.806v-12.74c0.006-2.975-1.163-5.832-3.252-7.95
				c-2.144-2.184-5.071-3.419-8.131-3.435c-6.252,0.051-11.293,5.133-11.293,11.385v12.74c0,0.996-0.811,1.806-1.808,1.806
				s-1.808-0.81-1.808-1.806v-12.74c-0.643-8.258,5.531-15.474,13.789-16.115c8.258-0.643,15.473,5.531,16.116,13.789
				c0.059,0.774,0.059,1.553,0,2.326v12.74C492.786,70.654,491.977,71.464,490.979,71.464z"/>
		</g>
		<path fill="#00ACEA" d="M493.327,88.628c0,8.783-7.118,15.899-15.9,15.899c-8.78,0-15.899-7.116-15.899-15.899
			c0-8.781,7.119-15.9,15.899-15.9l0,0C486.209,72.729,493.327,79.848,493.327,88.628z"/>
	</g>
	<polyline fill="none" stroke="#FFFFFF" stroke-width="4.1656" stroke-miterlimit="10" points="468.021,87.25 474.431,94.73 
		487.644,83.71 	"/>
</g>
<line fill="none" stroke="#FFFFFF" stroke-width="1.1897" stroke-miterlimit="10" x1="432.182" y1="79.499" x2="10" y2="79.499"/>
<g>
	<path fill="#083863" d="M40.143,62.699c0.952,0.864,2.325,1.586,4.12,2.164c1.794,0.579,3.453,0.868,4.977,0.868
		c4.951,0,7.427-1.802,7.427-5.405c0-1.011-0.257-1.912-0.77-2.703s-1.205-1.476-2.076-2.054c-0.872-0.579-2.589-1.527-5.152-2.846
		c-3.691-1.89-6.028-3.538-7.01-4.944c-0.982-1.406-1.472-2.996-1.472-4.768c0-2.739,1.113-4.929,3.34-6.57s5.024-2.461,8.394-2.461
		c3.398,0,5.808,0.403,7.229,1.208v4.329c-1.992-1.377-4.563-2.065-7.712-2.065c-2.153,0-3.911,0.458-5.273,1.374
		s-2.044,2.201-2.044,3.856c0,1.025,0.238,1.916,0.715,2.669c0.476,0.755,1.124,1.41,1.944,1.967c0.82,0.557,2.417,1.428,4.79,2.615
		c3.34,1.655,5.676,3.271,7.009,4.845c1.333,1.574,2,3.336,2,5.284c0,2.9-1.055,5.142-3.164,6.724s-5.062,2.373-8.855,2.373
		c-1.157,0-2.662-0.19-4.515-0.571c-1.854-0.381-3.153-0.842-3.9-1.384v-4.505H40.143z"/>
	<path fill="#083863" d="M87.317,37.979h-9.821v30.608h-3.758V37.979h-9.8v-3.428h23.379V37.979z"/>
	<path fill="#083863" d="M110.608,68.587H92.723V34.552h17.117v3.428H96.458v11.58h12.371v3.428H96.458V65.16h14.15V68.587z"/>
	<path fill="#083863" d="M120.958,55.667v12.92h-3.735V34.552h9.185c3.56,0,6.343,0.886,8.35,2.659
		c2.007,1.773,3.01,4.263,3.01,7.471c0,3.34-1.179,6.035-3.537,8.086c-2.358,2.051-5.267,3.018-8.724,2.9L120.958,55.667
		L120.958,55.667z M120.958,38.001v14.172h4.263c2.798,0,4.933-0.633,6.405-1.901c1.472-1.267,2.208-3.072,2.208-5.416
		c0-4.57-2.695-6.855-8.086-6.855H120.958z"/>
	<path fill="#083863" d="M174.308,68.587h-19.116v-3.274h7.734V38.551l-7.933,2.395v-3.538l11.602-3.625v31.531h7.713V68.587z"/>
</g>
<text transform="matrix(1 0 0 1 37.2202 114.5869)" fill="#083863" font-family="'MicrosoftJhengHeiRegular'" font-size="30">確認購物清單</text>
</svg>
