<?xml version="1.0" encoding="utf-8"?>
<!-- Generator: Adobe Illustrator 15.1.0, SVG Export Plug-In . SVG Version: 6.00 Build 0)  -->
<!DOCTYPE svg PUBLIC "-//W3C//DTD SVG 1.1//EN" "http://www.w3.org/Graphics/SVG/1.1/DTD/svg11.dtd">
<svg version="1.1" id="圖層_1" xmlns="http://www.w3.org/2000/svg" xmlns:xlink="http://www.w3.org/1999/xlink" x="0px" y="0px"
	 width="675.105px" height="587.32px" viewBox="0 0 675.105 587.32" enable-background="new 0 0 675.105 587.32"
	 xml:space="preserve">
<path opacity="0.18" fill="#1E90FF" enable-background="new    " d="M109.887,518.207c-8.344-21.159-7.618-45.717-20.092-65.434
	c-14.935-23.604-41.86-36.643-57.976-59.386C8.004,359.779-3.735,317.709,1.055,276.698c2.305-19.761,8.427-39.302,20.034-54.988
	c17.89-24.181,46.926-36.892,75.944-43.051c43.186-9.168,93.123-4.032,134.1-21.532c22.612-9.662,22.288-37.124,29.453-57.412
	c8.104-22.949,22.356-43.301,40.038-59.268c32.568-29.4,77.595-44.556,121.246-39.479c46.598,5.425,95.381,37.844,107.373,87.239
	c5.547,22.85,3.127,47.882,13.831,68.79c13.431,26.232,41.829,45.375,63.673,63.535c24.125,20.056,43.057,46.873,54.014,76.701
	c0.125,0.334,0.248,0.675,0.368,1.013c18.585,51.549-0.396,109.156-45.477,140.302c0,0-95.925,66.264-95.929,66.266
	c-97.332,67.241-205.374,97.832-319.823,75.035c-24.764-4.932-69.576-28.178-83.591-49.188
	C113.664,526.699,111.587,522.524,109.887,518.207"/>
<path opacity="0.1" fill="#1E90FF" enable-background="new    " d="M82.313,178.738c-1.034,22.723,7.613,45.719,2.204,68.414
	c-6.477,27.172-27.722,48.233-35.594,74.974c-11.636,39.512-9.103,83.116,8.723,120.36c8.586,17.945,20.712,34.447,36.777,45.523
	c24.762,17.076,56.351,19.688,85.798,16.107c43.826-5.325,89.402-26.372,133.839-23.101c24.522,1.811,33.118,27.895,46.473,44.765
	c15.105,19.083,35.185,33.717,57.088,43.089c40.34,17.256,87.848,16.996,127.496-1.957c42.324-20.234,77.964-66.719,73.297-117.334
	c-2.159-23.414-12.563-46.31-9.215-69.559c4.201-29.17,24.861-56.484,39.639-80.744c16.32-26.794,25.536-58.3,26.232-90.068
	c0.012-0.357,0.018-0.72,0.021-1.078c0.872-54.789-35.758-103.133-88.501-117.982c0,0-112.224-31.591-112.229-31.592
	C360.488,26.498,248.363,32.582,147.484,91.248c-21.829,12.691-56.685,49.21-63.133,73.627
	C83.133,169.48,82.521,174.104,82.313,178.738"/>
<g>
	<g opacity="0.4">
		<path fill="#F1F2F2" d="M308.412,383.085c-15.542,0.042-31.083,0.379-46.597,1.937c-5.85,0.587-11.576,1.879-17.439,2.399
			c-11.711,1.041-23.212,2.98-34.965,3.876c-9.463,0.721-18.968,1.146-28.405,2.062c-8.847,0.857-18.641,0.661-27.421-0.757
			c-6.499-1.049-13.027-1.639-19.419-3.325c-7.148-1.885-14.913-3.23-22.361-3.184c-10.621,0.069-20.963,0.078-31.127,3.404
			c-3.568,1.171-7.936,3.09-10.645,5.54c-6.203,5.612-7.042,19.617-0.85,25.438c10.431,9.797,32.693,13.642,47.314,13.822
			c16.021,0.198,31.585-0.874,47.63-1.505c14.909-0.589,29.782-1.422,44.715-1.394c30.5,0.062,61.005,0,91.451-1.838
			c28.604-1.727,57.281-1.134,85.947-1.134c29.396,0,58.595,0.208,87.779,3.733c12.717,1.535,25.67,2.073,38.45,3.149
			c11.446,0.965,22.445-0.02,33.845-0.91c9.572-0.748,19.082-2.967,27.777-6.717c6.885-2.969,19.156-12.192,21.268-19.277
			c5.919-19.866-83.406-19.389-97.12-19.344c-15.343,0.05-30.808,0.504-46.138-0.023c-6.449-0.222-12.803-1.358-19.097-2.604
			c-6.269-1.241-12.585-0.926-18.943-1.448c-26.511-2.175-53.082-1.856-79.678-1.856C325.73,383.13,317.071,383.061,308.412,383.085
			z"/>
	</g>
	<path opacity="0.15" fill="#1E90FF" enable-background="new    " d="M213.748,279.271l26.173,88.022l11.726,5.518l120.769-9.83
		c0,0,7.651-10.84,7.651-17.219c0-6.377,7.563-46.688,7.563-46.688L213.748,279.271z"/>
	<g>
		<g>
			<g>
				<g id="XMLID_55_">
					<path id="XMLID_56_" fill="#353A85" d="M315.126,354.579l0.395,23.994c-0.161,6.657,0.438,13.296,0.843,19.931
						c0.376,6.163-0.866,12.517,2.059,18.229c0.917,1.791,2.868,3.038,4.353,0.969c1.144-1.594,0.618-4.353,0.9-6.203
						c2.124-13.909,6.078-27.477,8.05-41.411C333.792,355.488,328.144,355.873,315.126,354.579z"/>
				</g>
				<polygon fill="#BABCBE" points="316.489,412.63 314.947,416.635 322.539,423.316 329.492,423.602 331.741,419.933 
					322.388,411.799 				"/>
			</g>
			<g>
				<g id="XMLID_53_">
					<path id="XMLID_54_" fill="#353A85" d="M298.128,354.813l-4.376,23.595c-1.517,10.558-4.965,20.837-6.482,31.395
						c-0.349,2.426-0.173,5.081-1.188,7.37c-0.992,2.238-2.935,2.329-4.649,0.809c-2.296-2.036-1.237-5.673-1.195-8.453
						c0.281-18.524-1.176-36.787-1.527-55.342c-0.004-0.243,0.007-0.521,0.195-0.678c0.153-0.124,0.371-0.123,0.568-0.108
						C281.275,353.52,298.034,355.323,298.128,354.813z"/>
				</g>
				<polygon fill="#BABCBE" points="280.184,413.615 277.777,417.166 283.665,425.391 290.375,427.238 293.394,424.172 
					286.118,414.138 				"/>
			</g>
			<polygon fill="#353A85" points="339.856,369.846 336.583,335.542 335.004,313.253 329.696,295.048 301.035,290.6 265.6,296.674 
				263.896,303.558 270.716,367.285 304.895,369.846 304.432,330.185 309.703,354.769 309.479,369.846 			"/>
		</g>
		<path fill="#F7F7F7" d="M273.123,228.023c-0.049,1.158-0.081,2.316-0.101,3.471c-0.415,23.531,0.882,47.363,1.032,71.087
			c12.151-1.901,24.437-2.949,36.733-3.137c2.847-0.043,15.789,1.955,17.591,0.256c2.444-2.306-0.245-1.871-0.065-4.877
			c0.231-3.888-1.637-7.071-0.931-11.678c0.829-5.415,2.479-10.771,3.429-16.185c1.906-10.854,3.053-21.842,3.425-32.856
			c0.33-9.77-0.024-19.902-4.225-28.728c-10.361-21.766-43.763-21.375-52.928,1.353
			C274.368,213.461,273.425,220.748,273.123,228.023z"/>
		<path fill="#EACDB0" d="M341.719,182.453c3.572-4.626,5.124-9.629,6.642-15.917c1.129-4.679,2.075-9.409,3.002-14.133
			c0.612-3.122,1.168-5.856,1.228-8.997c0.05-2.628,1.532-6.261-0.777-8.363c0.467-1.061,2.029-1.425,2.917-0.684
			c0.14,0.116,0.271,0.258,0.447,0.303c0.302,0.079,0.595-0.154,0.777-0.407c0.534-0.735,0.604-1.696,0.796-2.585
			c0.309-1.435,0.838-3.756,1.918-4.783c0.875-0.833,2.023-1.303,3.144-1.755c0.207-0.083,0.435-0.169,0.648-0.105
			c0.182,0.053,0.317,0.2,0.442,0.342c1.153,1.308,2.443,2.588,3.42,4.007c-1.559,1.297-1.833,3.23-2.729,4.959
			c-1.175,2.271-2.608,4.068-2.806,6.738c-0.306,4.15-0.287,8.319-0.648,12.473c-0.706,8.118-1.91,16.174-3.066,24.236
			c-0.782,5.34-1.579,10.801-3.774,15.777c-2.163,4.9-5.234,7.84-9.328,11.291c-0.942,0.792-1.919,1.605-3.098,1.961
			c-1.788,0.539-3.755-0.084-5.293-1.143c-4.067-2.798-5.518-8.802-3.176-13.148c1.258-2.334,3.362-4.068,5.34-5.835
			C339.304,185.293,340.609,183.893,341.719,182.453z"/>
		<path fill="#8CABEF" d="M310.813,197.491l-9.071,16.532c0.474,16.701,0.948,33.403,1.422,50.104
			c0.219,7.697,0.438,15.393,0.655,23.091c0.076,2.673,0.143,5.347,0.228,8.018c0.038,1.199-0.292,3.218,0.392,4.198
			c1.485,2.124,6.915,1.463,9.282,1.647c3.694,0.291,7.441,0.593,10.919,1.867c2.316,0.851,4.511,2.128,6.954,2.472
			c0.55,0.076,1.164,0.088,1.594-0.262c0.482-0.389,0.564-1.079,0.609-1.697c0.849-11.465,0.867-23.285,1.503-34.875
			c0.521-9.483,1.848-19.505,1.025-29.002c-0.014-0.159-0.029-0.317-0.058-0.474c-0.841-4.567,0-19.655,0-19.656
			c0.035-0.635,2.206-2.279,2.625-2.713c2.158-2.229,4.316-4.457,6.474-6.686c4.306-4.447,12.619-9.942,9.277-17.135
			c-0.406-0.875-1.024-1.635-1.683-2.339c-4.88-5.226-11.115-8.156-14.608-14.591c-6.113,3.015-11.094,8.971-17.595,11.452
			c-3.385,1.288-6.964,1.731-10.502,0.864c-2.082-0.51-6.564-2.133-5.438,1.986C305.46,192.653,309.222,195.598,310.813,197.491z"/>
		<path fill="#8CABEF" d="M291.076,199.046l9.072,16.532c-0.19,0-1.15,40.526-1.229,43.262c-0.295,10.404-0.59,20.807-0.886,31.209
			c-0.082,2.892,0.307,6.279-0.259,9.122c-0.79,3.968-4.967,3.186-8.527,3.508c-7.786,0.7-15.984,2.031-23.792,1.637
			c-2.252-0.114,0.712-47.113,0.708-51.501c-0.015-15.774-3.27-33.275,4.744-47.581c2.332-4.161,6.441-10.836,10.979-12.89
			c4.227-1.915,10.28-2.241,14.87-3.314l0.239,2.976L291.076,199.046z"/>
		<g>
			<g>
				<path fill="#292949" d="M310.767,159c1.428,2.503,2.117,5.386,2.243,8.266c0.034,0.765,0.086,1.648,0.705,2.101
					c0.663,0.483,0.081,1.545,0.584,0.897c0.503-0.646,2.215-2.896,2.292-3.712c0.181-1.913,0.178-3.844-0.008-5.756
					c-0.162-1.663-0.501-3.402-1.59-4.671c-0.646-0.752-1.507-1.28-2.355-1.793c-1.23-0.742-2.498-1.492-3.911-1.756
					c-2.435-0.453-3.929,0.421-1.779,2.118C308.486,155.911,309.788,157.285,310.767,159z"/>
				<g>
					<path fill="#EACDB0" d="M295.551,191.657c0.017,1.179-0.226,2.401,0.814,3.314c0.499,0.44,1.175,0.616,1.832,0.72
						c1.699,0.27,3.458,0.145,5.103-0.361c0.676-0.209,1.35-0.492,1.86-0.982c0.603-0.578,0.633-1.126,0.662-1.885
						c0.034-0.889,0.213-1.791,0.33-2.692c0.254-1.971,0.369-3.955,0.426-5.939c2.918-0.502,6.35-1.445,7.348-4.501
						c0.314-0.963,0.325-2.01,0.333-3.034c0.031-4.235,0.062-8.469,0.093-12.703c0.011-1.466,0.014-2.975-0.488-4.334
						c-0.879-2.385-3.116-3.806-5.309-4.7c-5.595-2.283-12.118-2.191-17.283,1.054c-1.375,0.865-2.672,1.977-3.463,3.485
						c-1.221,2.326-1.067,5.198-0.877,7.883c0.175,2.477,0.35,4.953,0.525,7.432c0.201,2.85,0.629,6.13,2.842,7.636
						c1.174,0.798,2.693,0.946,3.706,1.979c1.768,1.806,0.925,4.502,1.447,6.688C295.523,191.021,295.546,191.338,295.551,191.657z"
						/>
				</g>
				<path fill="#292949" d="M315.285,174.607c-0.048-0.785-0.391-3.087-1.572-1.641c-0.309,0.378-0.385,0.913-0.403,1.416
					c-0.019,0.504,0.003,1.023-0.155,1.496c-0.364,1.088-1.568,1.584-2.641,1.565c-0.427-0.009-0.862-0.078-1.239-0.294
					c-0.366-0.207-0.657-0.539-0.94-0.865c-0.689-0.789-1.377-1.58-2.066-2.369c-1.183-1.358-3.531-0.771-5.126-0.563
					c-1.837,0.241-3.676,0.796-5.178,2.004c-0.151,0.122-0.3,0.25-0.448,0.378c-0.362,0.313-0.726,0.623-1.147,0.826
					c-1.419,0.691-3.177-0.029-4.172-1.321c-0.456-0.595-0.881-1.355-1.589-1.456c-0.554-0.076-1.094,0.32-1.378,0.839
					c-0.284,0.52-0.361,1.136-0.399,1.737c-0.14,2.188,0.161,4.443,1.109,6.383c2.056,4.207,6.031,4.724,10.026,4.63
					c1.579-0.037,3.158-0.074,4.737-0.111c2.887-0.068,5.939-0.188,8.37-1.866c2.146-1.481,3.42-3.998,3.943-6.633
					C315.287,177.399,315.368,175.995,315.285,174.607z M304.723,180.571c-1.521,1.021-3.196,1.076-4.891,0.566
					c-0.72-0.218-0.414-1.427,0.307-1.209c1.404,0.423,2.729,0.412,3.995-0.439C304.771,179.061,305.355,180.145,304.723,180.571z"
					/>
				<path fill="#292949" d="M315.888,151.661c0.279-1.025,0.485-2.071,0.616-3.128c-0.977,0.344-2.042,0.435-3.063,0.263
					c-0.002-0.609-0.004-1.217-0.007-1.825c-0.005-0.508-6.856-0.861-7.413-0.908c-5.211-0.428-9.978-0.834-14.69,1.963
					c-4.026,2.389-6.607,5.957-7.224,10.602c-0.591,4.437,0.862,10.231,3.427,13.913c-0.015-1.181-0.694-3.967-0.416-5.09
					c0.171-1.124,0.56-2.21,1.096-3.212c1.071-1.998,2.729-3.682,4.646-4.882c3.054-1.914,6.606-2.927,10.153-3.421
					c3.25-0.453,7.21-0.87,10.421-0.01c1.543,0.414,1.799,0.802,2.734-0.756c0.164-0.275,1.471-3.482,1.343-3.483
					C316.97,151.677,316.429,151.669,315.888,151.661z"/>
			</g>
		</g>
		<g>
			<g>
				<path fill="#EACDB0" d="M261.229,186.249c2.404-2.483,2.966-6.208,1.402-9.3c-2.857-5.654-5.715-11.307-8.572-16.959
					c-1.605-3.174-4.395-6.856-4.833-10.31c-0.777-6.102,0.604-13.281,1.173-19.384c0.29-3.096,0.032-7.401,1.313-10.252
					c0.24-0.535,3.863-4.631,3.765-4.756c-0.008-0.011-0.76-1.145-0.76-1.145l-1.133,0.764l-0.947-0.188l2.579-3.118l-3.729-2.733
					l-4.978,1.976c-0.267,3.353,0.329,6.846-0.736,10.082c-0.45,1.368-1.122,2.651-1.687,3.977
					c-0.971,2.275-1.629,4.666-2.382,7.018c-0.729,2.277-1.905,4.417-2.591,6.666c-1.53,5.02-3.025,10.05-4.538,15.075
					l13.146,30.124C250.063,189.158,257.16,190.452,261.229,186.249z"/>
			</g>
			<path fill="#8CABEF" d="M283.036,190.549c-5.438-3.172-10.115-7.61-13.64-12.823c-0.092-0.195-0.182-0.39-0.268-0.581
				c-0.331-0.74-4.042-8.832-4.149-8.783c-0.092,0.041-0.185,0.082-0.277,0.125l-0.804,0.409c-0.039,0-0.074,0-0.115,0
				c-1.886,0.025-5.032,2.265-6.782,3.049c-4.647,2.089-9.295,4.177-13.941,6.265c-0.332,0.149-0.678,0.311-0.887,0.606
				c-0.247,0.352-0.244,0.808-0.204,1.244l-1.24,0.632c0.609,0.854,1.154,1.741,1.652,2.651c0.528,3.546,1.424,7.045,3.587,9.87
				c0.128,0.168,0.266,0.327,0.4,0.486c1.125,3.751,2.173,7.55,3.775,11.094c4.304,9.525,12.48,16.921,16.591,26.53
				c3.337-0.973,5.65-3.969,7.425-6.958c3.485-5.877,5.803-12.358,8.099-18.795c1.167-3.273,2.334-6.546,3.502-9.818
				c0.204-0.571,0.411-1.162,0.379-1.77C286.055,192.372,284.429,191.362,283.036,190.549z"/>
		</g>
	</g>
	<g>
		<g>
			<polygon fill="#AA6755" points="235.771,225.193 241.213,219.838 249.792,220.04 250.771,224.392 237.807,229.991 			"/>
		</g>
		<path fill="#292949" d="M177.961,183.392c-1.038-11.688-5.532-13.815-5.532-13.815l-0.003,0.001
			c-1.191-0.975-2.588-1.696-4.083-2.056c-2.299,2.064-3.733,5.065-3.899,8.154l-0.337,0.004c1.408,0.033,2.795,0.356,4.087,0.91
			c0.985,6.967,2.486,18.052,2.541,21.289c0.081,4.834,1.223,4.923,4.472,5.982c3.25,1.059,6.681-1.659,6.681-1.659
			S178.998,195.08,177.961,183.392z"/>
		<g>
			<polygon fill="#353A85" points="159.242,203.495 145.138,209.05 122.08,228.155 111.54,193.897 98.693,196.204 106.928,238.038 
				120.433,250.225 159.302,228.813 			"/>
		</g>
		<g>
			<g>
				<g>
					<g>
						<polygon fill="#1A3151" points="145.951,415.393 145.579,419.078 152.265,423.676 156.168,420.444 153.011,416.301 
							146.325,411.705 						"/>
					</g>
				</g>
				<g>
					<g>
						<polygon fill="#8CABEF" points="146.119,302.681 144.986,313.878 155.014,352.344 145.702,414.156 152.556,416.521 
							170.629,356.174 173.497,338.618 173.393,301.452 						"/>
					</g>
				</g>
			</g>
			<g>
				<g>
					<g>
						<polygon fill="#8CABEF" points="198.833,315.159 184.417,418.734 177.863,418.734 176.684,352.344 164.758,305.743 						"/>
					</g>
				</g>
				<g>
					<g>
						<polygon fill="#BABCBE" points="177.901,417.917 177.901,421.637 184.988,425.357 188.531,421.637 184.988,417.917 						"/>
					</g>
				</g>
			</g>
			<g>
				<g>
					<g>
						<path fill="#353A85" d="M146.48,288.947c5.597-37.68,3.598-65.12,3.888-72.654c0.291-7.533,5.452-11.443,5.452-11.443
							c2.268-0.519,4.239-2.014,6.527-2.603c15.474-3.988,23.915,8.116,29.707,21.171c7.137,16.086,13.134,32.709,17.98,49.666
							c4.254,14.88,8.519,29.898,10.303,45.341c0.736,6.373,1.35,12.417-5.461,15.229c-10.852,4.479-23.047,4.38-34.511,5.817
							c-13.167,1.649-26.353,2.855-39.606,3.421C133.841,343.187,140.883,326.625,146.48,288.947z"/>
					</g>
				</g>
			</g>
		</g>
		<g>
			<polygon fill="#AA6755" points="101.201,195.754 95.399,189.945 97.375,179.733 102.975,179.733 104.623,188.627 
				107.464,190.335 107.464,194.63 			"/>
		</g>
		<g>
			<polygon fill="#353A85" points="169.843,201.474 184.667,204.109 211.42,229.991 235.405,221.574 243.116,231.404 
				211.018,250.225 177.09,228.485 			"/>
		</g>
		<g>
			<polygon fill="#F7F7F7" points="173.497,202.26 176.225,242.33 155.683,204.24 161.674,202.1 165.954,200.817 			"/>
		</g>
		<g>
			<g>
				<path fill="#AA6755" d="M174.219,179.253c-5.106-11.121-19.162-5.488-20.99,4.999c-1.04,5.965,2.124,16.329,9.245,16.427
					c0.359,1.008,0.974,2.911,1.934,3.405c1.04,0.537,3.553-0.846,4.546-1.352c0.275-0.14,0.56-0.299,0.719-0.564
					c0.199-0.334,0.067-1.058-0.125-1.849c0.761-0.244,1.516-0.593,2.257-1.058c3.109-1.956,4.781-5.705,4.945-9.377
					C176.915,186.211,175.753,182.595,174.219,179.253z"/>
			</g>
		</g>
		<g>
			<g>
				<path fill="#292949" d="M168.055,167.562c0,0,2.979,5.979-4.671,9.745c-7.65,3.768-11.331,11.402-8.275,17.735
					c3.055,6.334,10.255,9.771,7.527,12.315c-2.728,2.543-14.768,3.669-14.768,3.669s-12.885-21.811-5.924-34.366
					C148.904,164.105,162.53,160.348,168.055,167.562z"/>
			</g>
		</g>
	</g>
	<g>
		<g>
			<g>
				<g>
					<polygon fill="#292949" points="438.528,276.521 441.337,295.854 435.699,404.882 426.242,402.898 410.552,278.949 					"/>
				</g>
				<g>
					<polygon fill="#292949" points="392.071,272.891 390.244,345.171 408.602,407.564 419.303,403.586 410.29,347.942 
						418.565,272.274 					"/>
				</g>
				<g>
					<path fill="#292949" d="M419.34,397.743l-12.81,5.871l4.3,8.958l-6.719,4.232c0,0-0.633,3.729,1.624,5.304
						c2.256,1.575,16.874-10.703,16.874-10.703L419.34,397.743z"/>
				</g>
				<g>
					<path fill="#292949" d="M438.528,399.861l-13.896,2.349l1.829,9.766l-7.587,2.344c0,0-1.58,3.438,0.191,5.545
						c1.771,2.105,19.073-5.958,19.073-5.958L438.528,399.861z"/>
				</g>
			</g>
			<g>
				<path fill="#292949" d="M411.518,155.017c0.99,3.217,2.412,6.3,4.213,9.144c0.043-5.907,0.901-11.807,2.543-17.479
					c0.125-0.433,0.25-0.923,0.023-1.313c-0.212-0.363-0.658-0.507-1.067-0.605C409.924,142.996,409.791,149.41,411.518,155.017z"/>
			</g>
			<g>
				<g>
					<path fill="#EAC1A4" d="M415.527,164.273c0.762,2.431,2.025,5.178,4.544,6.66c2.969,1.745,6.142,0.854,8.355-0.486
						c7.315-4.426,19.997-28.833,0.927-34.825C412.04,130.181,412.366,154.189,415.527,164.273z"/>
				</g>
				<g>
					<path fill="#292949" d="M430.595,164.379c1.141,1.686,3.73,1.301,5.569,0.434c7.555-3.572,12.166-12.499,10.708-20.727
						c-1.22-6.884-9.732-12.23-11.683-3.784c-0.692,2.995,1.041,7.209,0.539,10.538
						C435.014,155.597,432.679,160.105,430.595,164.379z"/>
				</g>
				<g>
					<path fill="#292949" d="M411.973,126.832c-8.683,4.805-12.565,15.38-20.507,21.33c7.136,3.271,15.615,3.482,22.905,0.567
						c7.148-2.858,24.102-4.591,21.885-14.497C433.999,124.15,419.582,122.625,411.973,126.832z"/>
				</g>
			</g>
			<g>
				<path fill="#5D66D3" d="M445.659,189.225c4.972,8.633,4.949,18.406,4.263,27.757c-1.555,21.166,0.461,45.707-6.836,65.941
					c-13.776-0.012-40.185-6.329-53.904-7.739c-2.674-18.401-1.116-29.161,0.393-49.998c0.743-10.275,2.338-24.059,5.974-33.846
					c2.978-8.014,10.915-18.361,22.895-18.032C429.671,173.615,441.137,181.375,445.659,189.225z"/>
			</g>
			<path fill="#EAC1A4" d="M423.221,177.58c-1.255,0.531-2.792,0.309-4.281-1.132c-1.281-1.241-0.887-1.646-0.614-3.472
				c0.401-2.693,1.118-5.373,1.671-8.041l7.418,1.543c-0.007-0.002-1.492,7.223-1.604,7.715
				C425.449,175.765,424.476,177.049,423.221,177.58z"/>
		</g>
		<g>
			<g>
				<polygon fill="#EAC1A4" points="473.514,147.293 473.221,137.925 469.23,137.94 468.018,144.423 466.142,143.55 
					467.364,151.519 471.505,152.065 				"/>
			</g>
			<g>
				<path fill="#5D66D3" d="M434.415,196.77c-4.134-3.435-5.805-9.542-3.996-14.603c0.327-0.914,0.769-1.812,1.468-2.486
					c1.583-1.527,4.061-1.567,6.242-1.291c4.621,0.585,15.116,7.554,17.712,4.271c2.165-2.737,2.798-9.247,3.811-12.586
					c2.133-7.033,4.266-14.067,6.397-21.101l8.155,1.508c-0.871,8.211-1.743,16.421-2.615,24.631
					c-0.565,5.338-1.133,10.673-1.699,16.01c-0.421,3.967,1.209,12.609-2.5,14.66c-0.97,0.535-2.125,0.593-3.232,0.58
					c-7.683-0.086-15.037-2.905-22.199-5.686C439.304,199.648,436.602,198.589,434.415,196.77z"/>
			</g>
		</g>
		<g>
			<polygon fill="#EAC1A4" points="349.066,196.735 343.273,191.035 334.141,191.25 333.098,195.883 346.899,201.846 			"/>
		</g>
		<g>
			<polygon fill="#5D66D3" points="417.104,179.505 410.511,173.55 374.991,201.846 349.457,192.883 341.247,203.35 
				375.419,223.387 411.541,200.24 			"/>
		</g>
	</g>
	<g>
		
			<rect x="183.91" y="33.569" transform="matrix(-0.9876 -0.1568 0.1568 -0.9876 566.95 201.4729)" fill="#8CABEF" width="215.025" height="89.607"/>
		<g>
			<path fill="#FFFFFF" d="M220.228,77.132c2.463,1.78,6.361,3.782,10.601,4.435c4.566,0.701,7.27-0.819,7.71-3.689
				c0.421-2.738-1.425-4.625-6.417-7.329c-6.915-3.667-11.054-8.443-10.071-14.835c1.152-7.5,8.297-12.277,18.667-10.683
				c4.957,0.761,8.449,2.366,10.877,3.942l-3.451,7.682c-1.63-1.12-4.571-2.841-8.875-3.501c-4.305-0.663-6.692,0.972-7.043,3.257
				c-0.431,2.805,1.857,4.424,7.2,7.449c7.321,4.063,10.352,8.668,9.399,14.864c-1.133,7.371-7.77,12.76-19.836,10.903
				c-5.023-0.771-9.779-2.837-12.047-4.588L220.228,77.132z"/>
			<path fill="#FFFFFF" d="M265.522,83.027l-4.865,10.801l-10.306-1.584l20.194-41.896l13.044,2.005l6.875,46.058l-10.697-1.645
				L278.11,84.96L265.522,83.027z M277.819,77.306l-1.305-9.747c-0.382-2.73-0.663-6.111-0.914-8.821l-0.131-0.02
				c-1.054,2.509-2.217,5.734-3.325,8.168l-4.043,8.927L277.819,77.306z"/>
			<path fill="#FFFFFF" d="M303.093,55.353l9.979,1.534l-5.475,35.611l17.479,2.688l-1.283,8.348l-27.459-4.221L303.093,55.353z"/>
			<path fill="#FFFFFF" d="M358.676,89.868L342.5,87.382l-1.604,10.437l18.066,2.776l-1.253,8.153l-28.046-4.312l6.757-43.959
				l27.133,4.17l-1.253,8.152l-17.154-2.637l-1.404,9.131l16.176,2.487L358.676,89.868z"/>
		</g>
	</g>
	<g>
		<g>
			
				<rect x="249.139" y="326.873" transform="matrix(-0.998 0.0625 -0.0625 -0.998 578.0249 676.5573)" fill="#EDAE62" width="58.586" height="40.89"/>
			
				<rect x="291.418" y="320.934" transform="matrix(-0.0625 -0.998 0.998 -0.0625 5.982 676.4766)" fill="#DDDAE8" width="58.584" height="28.989"/>
			<polygon fill="#BABCBE" points="336.873,363.781 334.583,327.237 359.916,325.674 362.205,362.219 			"/>
		</g>
		<g>
			<g>
				<path fill="#F7F7F7" d="M368.295,399.073H250.438c-5.798,0-10.517-4.719-10.517-10.518c0-2.671,1.003-5.219,2.825-7.173
					l10.716-11.49c1.201-1.287,3.22-1.359,4.507-0.158c1.289,1.203,1.359,3.221,0.159,4.509l-10.716,11.489
					c-0.717,0.77-1.112,1.771-1.112,2.823c0,2.282,1.857,4.14,4.139,4.14h117.857c1.761,0,3.189,1.427,3.189,3.189
					C371.484,397.646,370.057,399.073,368.295,399.073z"/>
				<g>
					<g>
						<circle fill="#292949" cx="258.248" cy="414.514" r="13.394"/>
						<circle fill="#F7F7F7" cx="258.249" cy="414.514" r="7.14"/>
						<circle fill="#292949" cx="258.249" cy="414.514" r="5.049"/>
					</g>
					<polygon fill="#BABCBE" points="258.251,399.073 251.63,399.073 251.63,402.84 256.927,414.048 258.251,414.048 
						259.575,414.048 264.872,402.84 264.872,399.073 					"/>
					<rect x="251.63" y="399.073" opacity="0.22" fill="#999999" enable-background="new    " width="13.242" height="3.768"/>
				</g>
				<g>
					<g>
						<circle fill="#292949" cx="359.262" cy="414.514" r="13.394"/>
						<circle fill="#F7F7F7" cx="359.262" cy="414.514" r="7.14"/>
						<circle fill="#292949" cx="359.262" cy="414.514" r="5.049"/>
					</g>
					<polygon fill="#BABCBE" points="359.265,399.073 352.644,399.073 352.644,402.84 357.94,414.048 359.265,414.048 
						360.589,414.048 365.886,402.84 365.886,399.073 					"/>
					<rect x="352.644" y="399.073" opacity="0.22" fill="#999999" enable-background="new    " width="13.242" height="3.768"/>
				</g>
				<path fill="#F7F7F7" d="M390.412,297.746c-0.521-0.698-1.308-1.154-2.174-1.259l-172.306-20.751l-5.85-20.741
					c-1.994-7.197-8.073-12.422-15.487-13.315l-25.175-3.031c-1.734-0.209-3.337,1.035-3.547,2.786
					c-0.211,1.747,1.036,3.335,2.785,3.547l25.175,3.032c4.836,0.58,8.801,3.992,10.106,8.7l6.45,22.87l23.522,83.957
					c2.011,7.122,8.585,12.097,15.987,12.097c0.068,0,0.137-0.001,0.205-0.005l115.382-7.452c8.073-0.052,14.906-5.85,16.267-13.816
					L391,300.19C391.147,299.33,390.934,298.447,390.412,297.746z M382.874,309.889h-12.853l0.86-9.066l13.268,1.598
					L382.874,309.889z M377.839,339.385h-10.616l2.194-23.118h12.369L377.839,339.385z M284.318,367.03l-2.418-21.269h13.708
					l1.482,20.442L284.318,367.03z M268.341,368.063l-3.564-22.301h13.913l2.442,21.475L268.341,368.063z M254.029,368.986
					l-5.415-23.225h12.932l3.598,22.506L254.029,368.986z M233.881,339.385l-6.519-23.118h11.1l5.39,23.118H233.881z
					 M241.737,316.267h15.095l3.695,23.118h-13.4L241.737,316.267z M252.076,286.514l3.737,23.375H240.25l-5.949-25.516
					L252.076,286.514z M272.229,288.94l2.382,20.948h-15.568l-3.673-22.979L272.229,288.94z M348.792,309.889h-15.729v-13.621
					l16.229,1.953L348.792,309.889z M352.469,298.605l15.246,1.835l-0.896,9.448h-14.833L352.469,298.605z M278.546,316.267h14.921
					l1.677,23.118h-13.97L278.546,316.267z M277.965,339.385h-14.208l-3.695-23.118h15.274L277.965,339.385z M296.665,316.267
					h15.283l0.864,23.118h-14.47L296.665,316.267z M315.139,316.267h14.735v23.118h-13.871L315.139,316.267z M333.063,316.267
					h15.457l-0.99,23.118h-14.467V316.267z M329.874,309.889H314.9l-0.594-15.881l15.567,1.875L329.874,309.889L329.874,309.889z
					 M311.709,309.889h-15.507l-1.321-18.221l16.22,1.954L311.709,309.889z M293.005,309.889h-15.184l-2.337-20.556l16.171,1.947
					L293.005,309.889z M298.804,345.762h14.246l0.725,19.365l-13.502,0.87L298.804,345.762z M316.242,345.762h13.632v18.325
					l-12.916,0.833L316.242,345.762z M333.063,345.762h14.194l-0.739,17.251l-13.455,0.868V345.762z M350.449,345.762h12.966
					l-1.542,16.259l-12.153,0.785L350.449,345.762z M350.722,339.385l0.99-23.118h14.5l-2.193,23.118H350.722z M230.93,283.967
					l6.044,25.922h-11.412l-7.757-27.502L230.93,283.967z M249.801,369.259c-4.521-0.042-8.522-3.096-9.752-7.445l-4.497-16.052
					h9.787l5.464,23.434L249.801,369.259z M365.375,361.802c-0.069,0-0.138,0.001-0.206,0.007l-0.075,0.004l1.523-16.051h10.132
					l-1.285,7.526C374.621,358.221,370.379,361.802,365.375,361.802z"/>
				<path fill="#BABCBE" d="M391.016,299.877l-0.775,4.68h-23.088c-1.9,0-3.44-1.541-3.44-3.44v-7.523l24.997,2.871
					C390.37,296.666,391.332,298.234,391.016,299.877z"/>
				<path fill="#BABCBE" d="M154.096,233.184c-3.819-0.448-7.294,2.267-7.755,6.088c-0.46,3.823,2.266,7.297,6.089,7.756
					l34.392,4.142l1.534-13.86L154.096,233.184z"/>
				<polygon opacity="0.22" fill="#999999" enable-background="new    " points="188.355,237.309 151.241,246.771 186.821,251.169 
									"/>
			</g>
			<polygon opacity="0.15" fill="#999999" enable-background="new    " points="227.362,316.267 226.462,313.077 382.33,313.077 
				381.785,316.267 			"/>
			<polygon opacity="0.15" fill="#999999" enable-background="new    " points="235.467,345.762 234.568,342.572 377.289,342.572 
				376.745,345.762 			"/>
		</g>
	</g>
	<g>
		<g>
			<polygon fill="#D39689" points="460,217.328 456.15,215.244 455.107,211.527 454.207,211.349 453.941,212.447 452.192,209.61 
				449.63,208.742 446.708,210.844 445.662,214.414 448.057,217.096 452.119,218.428 457.266,221.509 			"/>
			<polygon fill="#F9C33D" points="457.816,213.034 480.491,228.883 503.688,203.982 506.453,232.229 483.846,247.101 
				453.684,220.506 			"/>
		</g>
		<g>
			<polygon fill="#BABCBE" points="539.553,419.818 539.939,423.632 533.012,428.387 528.969,425.044 532.238,420.762 
				539.166,416.006 			"/>
			<polygon fill="#474EBB" points="539.381,303.238 540.553,314.817 530.165,354.605 539.811,418.541 532.711,420.988 
				513.987,358.567 511.016,340.408 511.125,301.966 			"/>
		</g>
		<g>
			<polygon fill="#474EBB" points="484.768,316.145 499.703,423.277 506.492,423.277 507.713,354.605 520.069,306.406 			"/>
			<polygon fill="#BABCBE" points="506.453,422.431 506.453,426.277 499.111,430.127 495.441,426.277 499.111,422.431 			"/>
		</g>
		<path fill="#F9C33D" d="M501.446,206.166c0.538-0.878,1.256-1.626,2.241-2.184c6.745-3.806,17.925-0.453,25.242-0.453
			c2.163,22.772,8.145,44.476,12.006,66.833c4.102,23.746,8.72,47.403,13.852,70.948c0.289,1.334-20.369,0.66-22.318,0.693
			c-19.874,0.336-45.891,0.268-65.067-5.742c12.239-32.857,16.708-68.211,26.346-101.922c1.69-5.918,3.701-11.748,5.225-17.715
			C499.854,213.166,499.719,208.993,501.446,206.166z"/>
		<path fill="#292949" d="M510.465,172.565c-5.031,1.376-8.992,6.032-9.543,11.218c-2.75-2.561-4.152-6.494-3.646-10.217
			c0.506-3.723,2.908-7.139,6.242-8.872c3.119,1.655,5.537,4.584,6.573,7.96L510.465,172.565z"/>
		<path fill="#D39689" d="M500.23,179.307c2.6-13.725,19.746-11.354,24.666-0.239c2.797,6.32-0.133,15.267-5.729,19.665
			c-0.12,1.215-0.277,4.566-1.206,5.38c-1.006,0.878-4.175,0.039-5.417-0.247c-0.344-0.081-0.704-0.179-0.953-0.43
			c-0.313-0.313-0.365-1.152-0.372-2.08c-0.911-0.063-1.845-0.239-2.795-0.551c-3.989-1.311-6.877-5.002-8.071-9.027
			C499.158,187.755,499.449,183.43,500.23,179.307z"/>
		<path fill="#292949" d="M525.583,233.785c-0.163-0.01-0.295-0.023-0.392-0.039c-3.024-0.521-7.879-1.496-9.282-4.682
			c-1.439-3.266,1.118-9.189,1.539-12.585c0.642-5.157,0.854-10.359,1.103-15.547c0.225-4.679-1.447-9.286-3.895-13.279
			c-2.446-3.992-5.646-7.459-8.799-10.923c-1.312-1.438-2.668-2.98-3.068-4.885c-0.443-2.108,0.398-4.335,1.79-5.979
			c2.14-2.532,4.679-3.791,7.91-3.869c11.341-0.27,19.866,6.438,23.084,17.515c4.609,15.871-1.149,31.014-0.292,46.807
			c0.146,2.698,1.038,5.35,2.551,7.587C537.431,233.311,528.03,233.924,525.583,233.785z"/>
	</g>
	<g>
		<g>
			<g>
				<circle fill="#EFEFEF" cx="467.548" cy="252.504" r="44.173"/>
			</g>
		</g>
		<g>
			<g>
				<circle fill="#DDDDDD" cx="467.548" cy="252.504" r="37.489"/>
			</g>
		</g>
		<g>
			<g>
				<path fill="#CECECC" d="M484.961,219.258c4.118,5.563,6.744,12.332,7.246,19.75c1.395,20.658-14.22,38.536-34.878,39.931
					c-7.174,0.485-14.012-1.083-19.942-4.202c7.35,9.93,19.446,16.023,32.687,15.127c20.657-1.395,36.272-19.272,34.877-39.93
					C504.039,236.451,496.105,225.117,484.961,219.258z"/>
			</g>
		</g>
		<g>
			<g>
				<path opacity="0.6" fill="#F7F7F7" enable-background="new    " d="M436.927,258.011c-1.231-18.235,12.554-34.017,30.788-35.248
					c10.659-0.72,20.479,3.692,27.044,11.122c-6.37-9.514-17.506-15.455-29.75-14.628c-18.235,1.232-32.02,17.015-30.788,35.249
					c0.513,7.576,3.537,14.384,8.205,19.665C439.309,269.515,437.332,264.003,436.927,258.011z"/>
			</g>
		</g>
		<g>
			<path opacity="0.6" fill="#ADADAD" enable-background="new    " d="M469.005,228.154l0.321,4.765
				c1.933,0.18,3.54,0.705,4.82,1.58c1.279,0.874,2.537,2.263,3.773,4.165l-4.563,2.971c-1.603-2.496-3.554-3.668-5.854-3.514
				c-1.427,0.098-2.582,0.6-3.464,1.505c-0.883,0.906-1.282,1.992-1.196,3.256c0.078,1.151,0.523,2.081,1.336,2.792
				c0.796,0.695,2.363,1.477,4.701,2.345c2.021,0.76,3.699,1.487,5.032,2.188c1.334,0.7,2.349,1.393,3.047,2.077
				c1.965,1.854,3.043,4.184,3.232,6.986c0.186,2.758-0.478,5.243-1.987,7.463c-1.497,2.201-3.589,3.76-6.279,4.674l0.339,5.031
				l-4.253,0.287l-0.331-4.887c-3.211-0.305-5.709-1.233-7.49-2.791c-1.783-1.557-3.188-4.051-4.219-7.481l5.273-1.479
				c0.896,2.415,1.906,4.112,3.031,5.096c1.17,0.93,2.67,1.334,4.502,1.21c1.783-0.122,3.234-0.797,4.356-2.029
				c1.106-1.214,1.6-2.72,1.479-4.52c-0.108-1.604-0.689-2.86-1.744-3.767c-0.534-0.436-1.313-0.916-2.333-1.441
				c-1.021-0.525-2.316-1.085-3.887-1.678c-3.239-1.199-5.395-2.354-6.463-3.473c-1.69-1.659-2.619-3.723-2.786-6.186
				c-0.079-1.167,0.032-2.266,0.339-3.297c0.305-1.03,0.782-1.978,1.432-2.844c0.649-0.865,1.475-1.633,2.47-2.303
				c0.997-0.67,2.141-1.221,3.432-1.648l-0.322-4.767L469.005,228.154z"/>
		</g>
	</g>
	<g>
		<polygon fill="#D39689" points="518.028,254.988 513.468,256.48 509.724,254.508 508.904,255.089 509.578,256.128 
			506.001,255.381 503.379,256.766 502.849,260.674 504.9,264.197 508.838,264.313 512.961,262.088 519.292,260.316 		"/>
		<path fill="#FFCB57" d="M530.073,250.063c1.922-1.3,3.244-3.146,3.416-5.867c0.157-2.506-0.432-4.992-0.862-7.465
			c-1.374-7.854-1.191-15.979,0.53-23.765c1.714-7.746,10.752,1.994,11.875,5.489c1.246,3.873,0.896,8.093,1.198,12.099
			c0.407,5.376,0.602,10.77,0.578,16.164c-0.014,3.41,0.827,11.471-2.766,13.422c-0.972,0.529-2.086,0.715-3.178,0.892
			c-1.715,0.278-22.186,2.858-22.505,1.848l-2.828-8.921C519.791,253.086,526.17,252.703,530.073,250.063z"/>
	</g>
	<g>
		<g>
			<g>
				<path fill="#292949" d="M548.321,268.861c-0.296,0.158-0.681,0.011-0.857-0.327l-8.132-15.458
					c-2.717-5.164-8.594-7.398-13.1-4.981c-4.504,2.418-5.959,8.589-3.242,13.753l8.131,15.458c0.178,0.339,0.084,0.743-0.213,0.901
					c-0.295,0.158-0.68,0.014-0.857-0.326l-8.132-15.458c-3.073-5.843-1.427-12.82,3.668-15.556
					c5.095-2.736,11.742-0.207,14.814,5.635l8.131,15.457C548.713,268.299,548.617,268.702,548.321,268.861z"/>
			</g>
			<polygon fill="#89A8EB" points="581.652,308.867 577.914,306.975 555.306,256.026 557.605,256.365 560.684,255.572 			"/>
			<polygon fill="#829FDE" points="557.605,256.365 576.438,296.197 560.684,255.572 			"/>
			<polygon fill="#829FDE" points="513.939,278.229 555.336,256.01 578.945,306.563 536.121,328.688 			"/>
			<polygon fill="#8CABEF" points="590.445,303.846 547.432,328.793 520.794,277.07 560.713,255.577 			"/>
			<polygon fill="#D5C477" points="547.432,328.793 536.121,328.688 513.939,278.229 517.66,277.233 520.794,277.07 			"/>
			<polygon fill="#C4B56B" points="517.66,277.233 539.777,322.6 547.465,328.775 520.771,276.972 			"/>
			<polygon fill="#B9AB65" points="536.123,328.705 539.777,322.6 547.465,328.775 			"/>
			<g>
				<path fill="#4E4E4E" d="M535.375,277.455c-0.357-0.678-1.125-0.97-1.717-0.652c-0.592,0.318-0.781,1.124-0.425,1.803
					c0.355,0.677,1.125,0.97,1.717,0.653C535.541,278.94,535.73,278.133,535.375,277.455z"/>
				<g>
					<path fill="#E1DEBA" d="M534.916,277.702c-0.204-0.388-0.643-0.555-0.98-0.374c-0.339,0.182-0.446,0.644-0.242,1.031
						c0.203,0.387,0.644,0.553,0.98,0.372S535.12,278.09,534.916,277.702z"/>
				</g>
			</g>
			<g>
				<path fill="#1A3151" d="M552.797,268.104c-0.354-0.678-1.124-0.97-1.716-0.651c-0.591,0.315-0.782,1.124-0.426,1.801
					c0.356,0.679,1.126,0.97,1.718,0.653C552.963,269.588,553.154,268.781,552.797,268.104z"/>
				<g>
					<path fill="#E1DEBA" d="M552.338,268.351c-0.203-0.387-0.643-0.554-0.979-0.374c-0.34,0.183-0.447,0.644-0.243,1.03
						c0.203,0.388,0.643,0.556,0.979,0.373C552.434,269.2,552.542,268.738,552.338,268.351z"/>
				</g>
			</g>
			<g>
				<path fill="#292949" d="M551.986,269.183c-0.297,0.16-0.681,0.014-0.859-0.326l-8.131-15.458
					c-2.717-5.165-8.593-7.4-13.098-4.981c-4.506,2.418-5.961,8.589-3.243,13.754l8.13,15.458c0.179,0.339,0.084,0.742-0.212,0.9
					c-0.296,0.158-0.681,0.014-0.858-0.325l-8.131-15.459c-3.073-5.841-1.427-12.819,3.668-15.555
					c5.096-2.736,11.741-0.208,14.815,5.634l8.131,15.459C552.377,268.621,552.281,269.025,551.986,269.183z"/>
			</g>
		</g>
	</g>
	<g>
		<g>
			<g>
				<path fill="#292949" d="M550.98,277.494c-0.459,0.094-0.906-0.203-1.002-0.662l-4.34-20.99
					c-1.449-7.015-8.303-11.538-15.273-10.082c-6.971,1.453-11.463,8.342-10.014,15.356l4.338,20.99
					c0.097,0.461-0.197,0.912-0.654,1.007c-0.458,0.096-0.906-0.201-1.001-0.66l-4.34-20.99c-1.642-7.934,3.44-15.727,11.325-17.371
					c7.886-1.646,15.635,3.473,17.274,11.404l4.34,20.991C551.73,276.947,551.438,277.397,550.98,277.494z"/>
			</g>
			<polygon fill="#E8E8E8" points="578.482,335.707 574.318,332.268 565.564,264.414 568.47,265.546 572.875,265.575 			"/>
			<polygon fill="#D4D4D4" points="568.47,265.546 576.844,318.961 572.875,265.575 			"/>
			<polygon fill="#D4D4D4" points="501.556,277.766 565.613,264.403 575.855,332.105 509.947,344.904 			"/>
			<polygon fill="#F7F7F7" points="592.213,332.512 524.882,348.611 511.114,278.557 572.912,265.591 			"/>
			<polygon fill="#EDEDED" points="524.882,348.611 509.947,344.904 501.556,277.766 506.896,277.758 511.114,278.557 			"/>
			<polygon fill="#E8E8E8" points="506.896,277.758 517.319,338.808 524.932,348.601 511.126,278.432 			"/>
			<polygon fill="#E0E0E0" points="509.943,344.924 517.319,338.808 524.932,348.601 			"/>
			<g>
				
					<ellipse transform="matrix(-0.2044 -0.9789 0.9789 -0.2044 358.6897 859.4398)" fill="#292949" cx="528.607" cy="283.954" rx="1.701" ry="1.692"/>
				<g>
					<circle fill="#D4D4D4" cx="528.605" cy="283.978" r="0.968"/>
				</g>
			</g>
			<g>
				
					<ellipse transform="matrix(-0.204 -0.979 0.979 -0.204 396.3999 878.9865)" fill="#292949" cx="555.562" cy="278.332" rx="1.702" ry="1.692"/>
				<g>
					
						<ellipse transform="matrix(-0.2043 -0.9789 0.9789 -0.2043 396.6089 879.0683)" fill="#D4D4D4" cx="555.59" cy="278.338" rx="0.973" ry="0.967"/>
				</g>
			</g>
			<g>
				<path fill="#292949" d="M555.697,279.037c-0.457,0.096-0.904-0.2-1-0.66l-4.34-20.991c-1.449-7.013-8.303-11.536-15.273-10.082
					c-6.972,1.453-11.464,8.344-10.013,15.357l4.34,20.991c0.095,0.46-0.198,0.91-0.656,1.006c-0.457,0.095-0.905-0.201-1-0.661
					l-4.34-20.99c-1.642-7.935,3.44-15.726,11.326-17.37c7.885-1.645,15.634,3.472,17.272,11.403l4.342,20.991
					C556.449,278.491,556.156,278.941,555.697,279.037z"/>
			</g>
		</g>
	</g>
	<path fill="#FFCB57" d="M541.468,257.158c-0.609-0.77-1.269-1.515-1.911-2.271c-0.276-0.326-0.408-0.681-0.434-1.029
		c-0.377-0.217-0.754-0.436-1.13-0.656c-2.259-1.33-4.354-2.972-6.705-4.131c-0.37,0.361-0.773,0.694-1.215,0.993
		c-3.903,2.64-10.282,3.022-14.541,3.896l2.827,8.921c0.32,1.011,20.791-1.569,22.506-1.848c0.735-0.12,1.481-0.246,2.189-0.476
		C542.464,259.456,541.912,258.338,541.468,257.158z"/>
	<g>
		<g>
			<g>
				<path fill="#292949" d="M511.773,97.004c-0.448,0.007-0.815-0.285-0.823-0.651l-0.341-16.691
					c-0.114-5.577-5.75-10.04-12.566-9.947c-6.814,0.093-12.266,4.706-12.152,10.283l0.342,16.692
					c0.007,0.366-0.351,0.669-0.797,0.674c-0.446,0.006-0.815-0.285-0.822-0.652l-0.342-16.691
					c-0.127-6.309,6.039-11.526,13.746-11.631c7.709-0.105,14.084,4.942,14.213,11.25l0.34,16.691
					C512.576,96.697,512.22,96.999,511.773,97.004z"/>
			</g>
			<polygon fill="#E8E8E8" points="527.258,145.561 523.957,142.321 527.818,89.133 530.348,90.424 534.484,91.091 			"/>
			<polygon fill="#D4D4D4" points="530.348,90.424 528.702,132.512 534.484,91.091 			"/>
			<polygon fill="#D4D4D4" points="465.25,89.984 527.865,89.132 525.432,142.422 461.176,142.571 			"/>
			<polygon fill="#F7F7F7" points="540.741,145.123 474.558,147.59 474.097,91.988 534.518,91.108 			"/>
			<polygon fill="#EDEDED" points="474.558,147.59 461.176,142.571 465.25,89.984 470.271,90.76 474.097,91.988 			"/>
			<polygon fill="#E8E8E8" points="470.271,90.76 469.194,138.986 474.607,147.59 474.13,91.893 			"/>
			<polygon fill="#E0E0E0" points="461.168,142.586 469.194,138.986 474.607,147.59 			"/>
			<g>
				<path fill="#292949" d="M491.198,98.672c-0.016-0.732-0.751-1.316-1.646-1.305c-0.895,0.012-1.607,0.616-1.592,1.348
					c0.014,0.732,0.751,1.316,1.646,1.303C490.5,100.006,491.213,99.403,491.198,98.672z"/>
				<g>
					<path fill="#D4D4D4" d="M490.504,98.681c-0.009-0.419-0.431-0.752-0.941-0.745c-0.51,0.007-0.918,0.352-0.909,0.77
						c0.008,0.418,0.43,0.752,0.939,0.746C490.105,99.443,490.512,99.098,490.504,98.681z"/>
				</g>
			</g>
			<g>
				<path fill="#292949" d="M517.55,98.313c-0.015-0.732-0.752-1.316-1.646-1.305c-0.895,0.014-1.607,0.617-1.593,1.35
					c0.016,0.731,0.752,1.314,1.647,1.302C516.854,99.647,517.564,99.044,517.55,98.313z"/>
				<g>
					<path fill="#D4D4D4" d="M516.855,98.321c-0.008-0.417-0.431-0.752-0.94-0.744c-0.511,0.006-0.918,0.352-0.91,0.77
						c0.009,0.419,0.431,0.751,0.941,0.745C516.457,99.085,516.864,98.74,516.855,98.321z"/>
				</g>
			</g>
			<g>
				<path fill="#292949" d="M515.936,98.877c-0.448,0.006-0.816-0.286-0.823-0.652l-0.341-16.691
					c-0.114-5.578-5.75-10.04-12.564-9.947c-6.815,0.093-12.268,4.707-12.154,10.283l0.342,16.691
					c0.007,0.367-0.35,0.668-0.797,0.675c-0.445,0.005-0.814-0.286-0.822-0.652l-0.34-16.691
					c-0.13-6.309,6.037-11.526,13.744-11.631c7.708-0.105,14.083,4.94,14.213,11.25l0.34,16.691
					C516.738,98.568,516.381,98.869,515.936,98.877z"/>
			</g>
		</g>
	</g>
	<g>
		<g>
			<g>
				<path fill="#292949" d="M348.18,221.096c-0.411-0.008-0.746-0.347-0.75-0.755l-0.158-18.597
					c-0.053-6.214-5.19-11.382-11.453-11.52c-6.262-0.137-11.314,4.807-11.261,11.021l0.158,18.598
					c0.003,0.407-0.327,0.731-0.738,0.722c-0.411-0.01-0.746-0.346-0.75-0.756l-0.158-18.596
					c-0.06-7.028,5.653-12.621,12.737-12.465c7.083,0.156,12.894,6,12.954,13.028l0.158,18.598
					C348.921,220.781,348.591,221.104,348.18,221.096z"/>
			</g>
			<polygon fill="#E8E8E8" points="361.959,275.707 358.954,271.982 362.996,212.898 365.308,214.426 369.103,215.314 			"/>
			<polygon fill="#D4D4D4" points="365.308,214.426 363.406,261.228 369.103,215.314 			"/>
			<polygon fill="#D4D4D4" points="305.5,211.636 363.039,212.899 360.309,272.146 301.27,270.043 			"/>
			<polygon fill="#F7F7F7" points="374.35,275.695 313.519,276.104 313.609,214.18 369.132,215.334 			"/>
			<polygon fill="#EDEDED" points="313.519,276.104 301.27,270.043 305.5,211.636 310.107,212.677 313.609,214.18 			"/>
			<polygon fill="#E8E8E8" points="310.107,212.677 308.67,266.335 313.563,276.105 313.641,214.074 			"/>
			<polygon fill="#E0E0E0" points="301.262,270.059 308.67,266.335 313.563,276.105 			"/>
			<g>
				<path fill="#292949" d="M329.26,222.224c-0.007-0.815-0.679-1.491-1.5-1.509c-0.822-0.019-1.483,0.629-1.476,1.444
					c0.007,0.814,0.678,1.491,1.5,1.51C328.606,223.686,329.267,223.04,329.26,222.224z"/>
				<g>
					<path fill="#D4D4D4" d="M328.623,222.211c-0.004-0.467-0.389-0.854-0.857-0.863c-0.47-0.011-0.848,0.358-0.844,0.826
						c0.004,0.465,0.388,0.851,0.857,0.861C328.249,223.045,328.626,222.676,328.623,222.211z"/>
				</g>
			</g>
			<g>
				<path fill="#292949" d="M353.476,222.756c-0.007-0.814-0.679-1.491-1.501-1.51c-0.822-0.018-1.482,0.629-1.476,1.445
					c0.007,0.814,0.679,1.49,1.501,1.509C352.823,224.219,353.483,223.571,353.476,222.756z"/>
				<g>
					<path fill="#D4D4D4" d="M352.838,222.741c-0.004-0.465-0.388-0.852-0.858-0.861c-0.469-0.011-0.847,0.358-0.843,0.824
						c0.004,0.467,0.388,0.853,0.857,0.863C352.463,223.577,352.842,223.208,352.838,222.741z"/>
				</g>
			</g>
			<g>
				<path fill="#292949" d="M351.986,223.326c-0.41-0.008-0.747-0.346-0.75-0.754l-0.158-18.596
					c-0.052-6.216-5.19-11.383-11.452-11.52c-6.263-0.14-11.315,4.806-11.262,11.02l0.159,18.597
					c0.003,0.409-0.327,0.731-0.738,0.723c-0.411-0.01-0.747-0.348-0.75-0.755l-0.158-18.598
					c-0.06-7.027,5.655-12.619,12.737-12.465c7.082,0.157,12.894,6.001,12.953,13.029l0.158,18.598
					C352.728,223.014,352.396,223.336,351.986,223.326z"/>
			</g>
		</g>
	</g>
	<g>
		<g>
			<g>
				<path fill="#292949" d="M123.566,258.599c-0.397-0.103-0.643-0.532-0.548-0.96l4.337-19.507
					c1.449-6.519-2.309-13.084-8.378-14.635c-6.069-1.551-12.186,2.489-13.635,9.007l-4.337,19.507
					c-0.095,0.428-0.495,0.692-0.893,0.591c-0.398-0.103-0.644-0.531-0.549-0.958l4.337-19.508
					c1.639-7.373,8.557-11.942,15.421-10.187c6.863,1.754,11.115,9.18,9.475,16.551l-4.337,19.507
					C124.365,258.436,123.965,258.699,123.566,258.599z"/>
			</g>
			<polygon fill="#E8E8E8" points="123.804,318.871 121.776,314.298 139.983,253.345 141.867,255.464 145.351,257.247 			"/>
			<polygon fill="#D4D4D4" points="141.867,255.464 128.711,304.037 145.351,257.247 			"/>
			<polygon fill="#D4D4D4" points="84.264,239.099 140.025,253.355 123.056,314.773 66.035,299.3 			"/>
			<polygon fill="#F7F7F7" points="135.88,321.646 76.506,308.4 91.552,243.585 145.374,257.275 			"/>
			<polygon fill="#EDEDED" points="76.506,308.4 66.035,299.3 84.264,239.099 88.502,241.226 91.552,243.585 			"/>
			<polygon fill="#E8E8E8" points="88.502,241.226 74.142,297.079 76.55,308.411 91.607,243.482 			"/>
			<polygon fill="#E0E0E0" points="66.024,299.314 74.142,297.079 76.55,308.411 			"/>
			<g>
				<path fill="#292949" d="M104.858,255.527c0.19-0.856-0.3-1.715-1.097-1.918c-0.797-0.205-1.597,0.323-1.787,1.18
					c-0.19,0.854,0.301,1.713,1.097,1.918C103.869,256.91,104.668,256.381,104.858,255.527z"/>
				<g>
					<path fill="#D4D4D4" d="M104.241,255.369c0.108-0.489-0.172-0.98-0.627-1.097c-0.456-0.116-0.913,0.187-1.021,0.675
						c-0.108,0.488,0.172,0.979,0.628,1.096C103.674,256.158,104.131,255.857,104.241,255.369z"/>
				</g>
			</g>
			<g>
				<path fill="#292949" d="M128.327,261.526c0.19-0.854-0.301-1.715-1.098-1.919c-0.796-0.203-1.596,0.325-1.787,1.18
					c-0.19,0.856,0.301,1.715,1.098,1.919C127.336,262.91,128.136,262.382,128.327,261.526z"/>
				<g>
					<path fill="#D4D4D4" d="M127.708,261.369c0.108-0.489-0.172-0.98-0.628-1.097c-0.455-0.116-0.912,0.185-1.021,0.674
						c-0.109,0.488,0.173,0.979,0.627,1.097C127.143,262.159,127.6,261.857,127.708,261.369z"/>
				</g>
			</g>
			<g>
				<path fill="#292949" d="M126.737,261.789c-0.398-0.102-0.644-0.531-0.549-0.959l4.337-19.507
					c1.449-6.519-2.309-13.083-8.377-14.635c-6.069-1.552-12.185,2.489-13.635,9.007l-4.337,19.507
					c-0.095,0.429-0.496,0.692-0.893,0.591c-0.398-0.102-0.644-0.531-0.549-0.959l4.337-19.506
					c1.64-7.374,8.558-11.943,15.422-10.189c6.864,1.756,11.115,9.181,9.475,16.553l-4.337,19.508
					C127.535,261.627,127.134,261.891,126.737,261.789z"/>
			</g>
		</g>
	</g>
	<g>
		<path fill="#353A85" d="M116.098,236.354c1.867-2.858,3.846-5.617,5.368-8.686c0.092-0.186,0.205-0.328,0.326-0.452
			l-10.252-33.318l-12.847,2.307l8.235,41.834l5.461,4.927C113.527,240.708,114.708,238.481,116.098,236.354z"/>
	</g>
	<g>
		<g>
			<path fill="#5D66D3" d="M185.983,168.96l-99.379,25.323c-2.06,0.524-4.177-0.742-4.706-2.816l-15.85-62.204
				c-0.528-2.072,0.725-4.199,2.784-4.724l99.378-25.323c2.06-0.524,4.178,0.742,4.706,2.816l15.85,62.204
				C189.295,166.309,188.042,168.436,185.983,168.96z"/>
		</g>
		<g>
			<path fill="#BABCBE" d="M98.371,157.507l-17.691,4.509c-0.276,0.068-0.559-0.1-0.629-0.374l-3.313-13
				c-0.07-0.276,0.099-0.56,0.374-0.629l17.691-4.508c0.276-0.071,0.559,0.098,0.629,0.374l3.313,12.998
				C98.815,157.154,98.647,157.437,98.371,157.507z"/>
		</g>
		<g opacity="0.2">
			<path fill="#999999" d="M98.232,154.866l-1.458-5.723c-3.44,5.532-11.237,9.793-16.105,12.037
				c0.579,0.367,1.297,0.507,2.006,0.326l13.701-3.491C97.749,157.665,98.584,156.248,98.232,154.866z"/>
		</g>
		<g>
			<g>
				
					<rect x="81.92" y="164.004" transform="matrix(-0.969 0.2469 -0.2469 -0.969 224.6344 306.9732)" fill="#FFFFFF" width="22.301" height="7.133"/>
			</g>
			<g>
				
					<rect x="106.024" y="157.862" transform="matrix(-0.969 0.2469 -0.2469 -0.969 270.5789 288.9258)" fill="#FFFFFF" width="22.301" height="7.132"/>
			</g>
			<g>
				
					<rect x="130.129" y="151.718" transform="matrix(-0.969 0.2469 -0.2469 -0.969 316.5266 270.8771)" fill="#FFFFFF" width="22.301" height="7.131"/>
			</g>
			<g>
				
					<rect x="154.241" y="145.574" transform="matrix(-0.969 0.247 -0.247 -0.969 362.4977 252.8084)" fill="#FFFFFF" width="22.303" height="7.133"/>
			</g>
		</g>
		<g>
			<path fill="#F3F3F3" d="M81.09,138.697c-0.487,0.752-1.108,1.215-1.898,1.417c-1.633,0.416-3.301-0.583-3.72-2.228
				c-0.418-1.645,0.568-3.32,2.201-3.737c0.796-0.202,1.584-0.09,2.342,0.334l0.158,0.089l0.577-0.913l-0.16-0.102
				c-0.908-0.579-2.101-0.759-3.19-0.481c-2.222,0.567-3.567,2.846-2.997,5.082c0.569,2.237,2.842,3.596,5.063,3.029
				c1.09-0.277,2.054-1.01,2.58-1.96l0.094-0.172l-0.953-0.505L81.09,138.697z"/>
			<path fill="#F3F3F3" d="M86.48,133.304c-0.321-1.26-1.602-2.026-2.855-1.706l-2.432,0.619l2.016,7.91l1.069-0.273l-0.853-3.348
				l1.158-0.295l2.511,2.926l1.202-0.306l-2.66-3.085C86.367,135.184,86.711,134.21,86.48,133.304z M85.411,133.576
				c0.169,0.663-0.232,1.34-0.896,1.509l-1.363,0.347l-0.615-2.413l1.363-0.348C84.552,132.505,85.244,132.92,85.411,133.576z"/>
			<polygon fill="#F3F3F3" points="88.711,138.726 92.896,137.658 92.623,136.584 89.537,137.371 88.786,134.424 91.482,133.736 
				91.208,132.662 88.512,133.349 88.068,131.607 91.154,130.821 90.881,129.748 86.696,130.814 			"/>
			<path fill="#F3F3F3" d="M93.671,129.037l-1.863,0.476l2.016,7.91l1.863-0.476c2.459-0.626,3.652-2.592,3.036-5.008
				C98.115,129.55,96.132,128.41,93.671,129.037z M95.414,135.875l-0.795,0.2l-1.467-5.763l0.793-0.201
				c1.895-0.482,3.247,0.283,3.71,2.102C98.118,134.029,97.28,135.397,95.414,135.875z"/>
			
				<rect x="99.544" y="127.536" transform="matrix(0.9691 -0.2468 0.2468 0.9691 -29.3869 28.7752)" fill="#F3F3F3" width="1.104" height="8.163"/>
			<polygon fill="#F3F3F3" points="100.321,128.486 102.289,127.985 104.03,134.822 105.099,134.549 103.357,127.713 
				105.314,127.214 105.041,126.14 100.047,127.412 			"/>
			<path fill="#F3F3F3" d="M115.856,129.716l-0.095,0.146c-0.487,0.752-1.107,1.216-1.898,1.417
				c-1.632,0.416-3.302-0.583-3.72-2.227c-0.419-1.646,0.568-3.321,2.201-3.737c0.797-0.203,1.584-0.091,2.342,0.334l0.158,0.089
				l0.578-0.914l-0.161-0.102c-0.909-0.579-2.101-0.759-3.19-0.481c-2.222,0.565-3.566,2.847-2.997,5.084
				c0.569,2.235,2.841,3.595,5.063,3.027c1.089-0.277,2.053-1.011,2.579-1.96l0.094-0.171L115.856,129.716z"/>
			<path fill="#F3F3F3" d="M118.83,122.626l-1.756,8.872l1.189-0.304l0.517-2.647l3.352-0.854l1.73,2.074l1.178-0.3l-5.777-6.952
				L118.83,122.626z M121.341,126.75l-2.32,0.592l0.542-2.737L121.341,126.75z"/>
			<path fill="#F3F3F3" d="M128.731,122.537c-0.322-1.26-1.602-2.026-2.855-1.707l-2.432,0.62l2.016,7.91l1.069-0.272l-0.853-3.347
				l1.158-0.296l2.511,2.926l1.202-0.307l-2.66-3.084C128.618,124.418,128.962,123.445,128.731,122.537z M127.662,122.811
				c0.169,0.663-0.233,1.34-0.896,1.509l-1.363,0.348l-0.615-2.415l1.363-0.348C126.803,121.738,127.495,122.154,127.662,122.811z"
				/>
			<path fill="#F3F3F3" d="M130.81,119.574l-1.863,0.475l2.015,7.91l1.863-0.475c2.46-0.627,3.652-2.593,3.037-5.008
				C135.253,120.087,133.27,118.947,130.81,119.574z M134.793,122.749c0.463,1.817-0.375,3.187-2.241,3.661l-0.794,0.203
				l-1.468-5.764l0.794-0.201C132.978,120.165,134.33,120.931,134.793,122.749z"/>
		</g>
		<g>
			
				<rect x="132.141" y="160.565" transform="matrix(-0.969 0.2469 -0.2469 -0.969 346.548 279.8359)" fill="#FFFFFF" width="47.176" height="2.162"/>
		</g>
	</g>
	<g>
		<g>
			<g>
				<path fill="#292949" d="M136.227,375.692c-0.447,0.005-0.815-0.286-0.823-0.652l-0.34-16.69
					c-0.113-5.578-5.75-10.04-12.565-9.946c-6.814,0.092-12.267,4.704-12.152,10.283l0.34,16.691
					c0.007,0.364-0.35,0.668-0.796,0.674c-0.448,0.006-0.816-0.286-0.824-0.651l-0.34-16.693
					c-0.128-6.308,6.037-11.523,13.746-11.63c7.707-0.104,14.083,4.941,14.211,11.25l0.34,16.692
					C137.03,375.385,136.674,375.686,136.227,375.692z"/>
			</g>
			<polygon fill="#E8E8E8" points="151.713,424.249 148.411,421.008 152.272,367.82 154.802,369.112 158.94,369.778 			"/>
			<polygon fill="#D4D4D4" points="154.802,369.112 153.157,411.198 158.94,369.778 			"/>
			<polygon fill="#D4D4D4" points="89.705,368.671 152.319,367.82 149.885,421.108 85.629,421.26 			"/>
			<polygon fill="#F7F7F7" points="165.195,423.811 99.013,426.277 98.551,370.675 158.972,369.795 			"/>
			<polygon fill="#EDEDED" points="99.013,426.277 85.629,421.26 89.705,368.671 94.727,369.446 98.551,370.675 			"/>
			<polygon fill="#E8E8E8" points="94.727,369.446 93.648,417.673 99.062,426.277 98.584,370.58 			"/>
			<polygon fill="#E0E0E0" points="85.623,421.273 93.648,417.673 99.062,426.277 			"/>
			<g>
				<path fill="#292949" d="M115.652,377.358c-0.015-0.731-0.752-1.314-1.646-1.304c-0.895,0.013-1.607,0.615-1.593,1.348
					c0.015,0.732,0.752,1.315,1.646,1.302C114.954,378.693,115.667,378.09,115.652,377.358z"/>
				<g>
					<path fill="#D4D4D4" d="M114.958,377.367c-0.009-0.418-0.429-0.75-0.94-0.745c-0.511,0.008-0.918,0.354-0.91,0.771
						c0.008,0.419,0.431,0.752,0.941,0.745C114.559,378.131,114.966,377.785,114.958,377.367z"/>
				</g>
			</g>
			<g>
				<path fill="#292949" d="M142.004,377c-0.015-0.731-0.751-1.315-1.646-1.306c-0.895,0.013-1.607,0.617-1.592,1.35
					c0.014,0.73,0.752,1.314,1.646,1.302C141.306,378.334,142.019,377.732,142.004,377z"/>
				<g>
					<path fill="#D4D4D4" d="M141.311,377.01c-0.009-0.419-0.43-0.754-0.941-0.745c-0.511,0.007-0.918,0.353-0.91,0.77
						c0.009,0.419,0.43,0.751,0.941,0.745C140.912,377.771,141.319,377.427,141.311,377.01z"/>
				</g>
			</g>
			<g>
				<path fill="#292949" d="M140.388,377.564c-0.447,0.006-0.815-0.285-0.824-0.651l-0.34-16.691
					c-0.114-5.578-5.75-10.041-12.564-9.948c-6.815,0.093-12.267,4.707-12.153,10.283l0.34,16.691
					c0.008,0.366-0.349,0.668-0.796,0.675c-0.447,0.007-0.816-0.285-0.823-0.65l-0.34-16.691
					c-0.129-6.31,6.037-11.527,13.745-11.633c7.708-0.104,14.083,4.942,14.212,11.25l0.34,16.691
					C141.191,377.256,140.835,377.558,140.388,377.564z"/>
			</g>
		</g>
	</g>
</g>
</svg>
