<?xml version="1.0" encoding="utf-8"?>
<!-- Generator: Adobe Illustrator 15.1.0, SVG Export Plug-In . SVG Version: 6.00 Build 0)  -->
<!DOCTYPE svg PUBLIC "-//W3C//DTD SVG 1.1//EN" "http://www.w3.org/Graphics/SVG/1.1/DTD/svg11.dtd">
<svg version="1.1" id="圖層_1" xmlns="http://www.w3.org/2000/svg" xmlns:xlink="http://www.w3.org/1999/xlink" x="0px" y="0px"
	 width="1158.55px" height="159px" viewBox="0 0 1158.55 159" enable-background="new 0 0 1158.55 159" xml:space="preserve">
<path fill="#99D6FF" d="M1079.05,10H751.378c24.451,13.552,41.045,39.62,41.045,69.5s-16.594,55.947-41.045,69.5h327.672
	c38.385,0,69.5-31.118,69.5-69.5C1148.55,41.115,1117.435,10,1079.05,10z"/>
<circle fill="#FFFFFF" cx="1079.083" cy="79.499" r="45.246"/>
<g>
	<path fill="#00ACEA" d="M1080.751,97.335c8.895,0.576,15.791,4.478,15.791,9.205c0,5.129-8.119,9.291-18.115,9.291
		c-10.002,0-18.113-4.162-18.113-9.291c0-4.886,7.367-8.897,16.723-9.263"/>
	<path fill="#00EFD1" d="M1105.904,67.527v17.968c0,0.282-0.107,0.485-0.289,0.521c-1.982,0.217-3.977-0.27-5.635-1.375
		c-2.906-1.758-5.309-4.232-6.979-7.188c-1.67-2.958-4.076-5.435-6.986-7.192c-2.355-1.361-4.494-1.739-6.08-1.263
		c-0.387,0.115-0.895-0.557-0.895-1.182v-17.8c-0.025-0.189,0.057-0.377,0.211-0.491c1.621-0.847,4.047-0.585,6.764,0.985
		c2.91,1.758,5.316,4.234,6.986,7.193c1.67,2.955,4.072,5.431,6.979,7.188c1.514,0.975,3.281,1.479,5.082,1.447
		C1105.453,66.31,1105.904,66.941,1105.904,67.527z"/>
	<path fill="#083863" d="M1078.888,47.089c1.025,0,1.859,0.833,1.859,1.858v55.737c0,0.514-0.418,0.928-0.932,0.928h-1.855
		c-0.516,0-0.932-0.414-0.932-0.928V48.947C1077.031,47.922,1077.863,47.089,1078.888,47.089z"/>
</g>
<line fill="none" stroke="#FFFFFF" stroke-width="0.9963" stroke-miterlimit="10" x1="1033.806" y1="79.499" x2="737.718" y2="79.499"/>
<g enable-background="new    ">
	<path fill="#083863" d="M815.117,63.337c0.85,0.771,2.074,1.414,3.674,1.93c1.6,0.517,3.078,0.773,4.436,0.773
		c4.414,0,6.621-1.605,6.621-4.818c0-0.901-0.229-1.704-0.686-2.409s-1.074-1.315-1.852-1.831c-0.777-0.517-2.309-1.361-4.594-2.537
		c-3.291-1.685-5.373-3.153-6.248-4.407s-1.313-2.671-1.313-4.251c0-2.441,0.99-4.394,2.977-5.856s4.48-2.194,7.484-2.194
		c3.027,0,5.178,0.359,6.441,1.078v3.858c-1.773-1.228-4.066-1.841-6.875-1.841c-1.92,0-3.484,0.408-4.699,1.224
		c-1.217,0.816-1.822,1.963-1.822,3.438c0,0.914,0.213,1.707,0.637,2.38c0.424,0.672,1.002,1.257,1.734,1.753
		c0.729,0.496,2.152,1.273,4.27,2.331c2.979,1.476,5.061,2.915,6.248,4.318c1.189,1.404,1.783,2.975,1.783,4.711
		c0,2.586-0.939,4.584-2.82,5.994s-4.512,2.116-7.895,2.116c-1.031,0-2.373-0.17-4.025-0.51c-1.65-0.34-2.811-0.751-3.477-1.234
		V63.337L815.117,63.337z"/>
	<path fill="#083863" d="M857.171,41.301h-8.756v27.286h-3.35V41.301h-8.736v-3.056h20.842V41.301z"/>
	<path fill="#083863" d="M877.935,68.587h-15.943V38.246h15.258v3.056h-11.928v10.323h11.027v3.056h-11.027v10.852h12.613V68.587z"
		/>
	<path fill="#083863" d="M887.162,57.07v11.518h-3.33V38.246h8.188c3.176,0,5.654,0.79,7.443,2.37c1.789,1.58,2.684,3.8,2.684,6.66
		c0,2.978-1.051,5.38-3.152,7.208s-4.693,2.69-7.775,2.586H887.162z M887.162,41.321v12.635h3.801c2.494,0,4.396-0.565,5.709-1.694
		c1.314-1.13,1.969-2.739,1.969-4.829c0-4.074-2.4-6.111-7.209-6.111L887.162,41.321L887.162,41.321z"/>
	<path fill="#083863" d="M916.701,63.847c2.076,1.646,4.414,2.468,7.012,2.468c2.09,0,3.791-0.528,5.105-1.586
		c1.313-1.059,1.969-2.514,1.969-4.368c0-4.049-2.855-6.072-8.563-6.072h-2.508v-2.802h2.393c5.064,0,7.6-1.893,7.6-5.681
		c0-3.513-1.934-5.269-5.799-5.269c-2.143,0-4.152,0.737-6.033,2.213v-3.27c1.934-1.162,4.219-1.744,6.857-1.744
		c2.4,0,4.391,0.66,5.963,1.979c1.572,1.319,2.359,3.069,2.359,5.25c0,3.97-2.029,6.542-6.092,7.718v0.078
		c2.154,0.183,3.889,0.94,5.201,2.272c1.313,1.332,1.969,2.99,1.969,4.976c0,2.769-0.996,4.975-2.986,6.62
		c-1.992,1.646-4.535,2.469-7.631,2.469c-2.848,0-5.117-0.542-6.814-1.626v-3.625H916.701z"/>
</g>
<g>
	<text transform="matrix(1 0 0 1 812.5112 109.5879)" fill="#083863" font-family="'MicrosoftJhengHeiRegular'" font-size="26">前往結帳</text>
</g>
<path fill="#99D6FF" d="M782.509,79.5c0-38.385-31.111-69.5-69.498-69.5H389.7c24.45,13.552,41.045,39.62,41.045,69.5
	S414.15,135.447,389.7,149h323.311C751.396,149,782.509,117.882,782.509,79.5z"/>
<circle fill="#FFFFFF" cx="713.046" cy="79.499" r="45.246"/>
<g>
	<path fill="#083863" d="M725.339,65.648c-4.186,0-7.578-3.395-7.58-7.58v-8.824h-22.65c-2.51,0.008-4.541,2.041-4.549,4.549v51.398
		c-0.008,2.426,1.896,4.432,4.32,4.547h34.734c2.51-0.006,4.541-2.039,4.549-4.547v-1.686c-6.742-0.609-12.363-5.117-14.613-11.248
		c-0.166,0.061-0.342,0.096-0.525,0.096h-20.08c-0.912,0-1.65-0.738-1.65-1.65s0.738-1.65,1.65-1.65h19.771
		c-0.139-0.887-0.234-1.789-0.234-2.715c0-1.055,0.109-2.084,0.293-3.088h-19.83c-0.912,0-1.65-0.738-1.65-1.652
		c0-0.91,0.738-1.65,1.65-1.65h20.777c2.361-5.891,7.871-10.184,14.441-10.779v-3.52L725.339,65.648L725.339,65.648z
		 M698.945,98.156h20.08c0.906,0,1.648,0.738,1.648,1.65c0,0.914-0.742,1.65-1.648,1.65h-20.08c-0.912,0-1.65-0.736-1.65-1.65
		C697.294,98.895,698.033,98.156,698.945,98.156z M712.816,74.145h-13.871c-0.912,0-1.65-0.739-1.65-1.65
		c0-0.912,0.738-1.652,1.65-1.652h13.871c0.908,0,1.648,0.74,1.648,1.652C714.464,73.405,713.726,74.145,712.816,74.145z"/>
	<path fill="#00EFD1" d="M725.339,62.617h6.701l-11.25-11.234v6.686C720.798,60.578,722.83,62.609,725.339,62.617z"/>
	<path fill="#00EFD1" d="M734.164,103.507v1.685c-0.008,2.509-2.039,4.541-4.549,4.547H694.88c-2.426-0.114-4.328-2.12-4.32-4.547
		V53.793c0.008-2.508,2.039-4.541,4.549-4.549h22.65v8.824c0.002,4.186,3.396,7.58,7.58,7.58h8.824v3.52
		c0.518-0.047,1.039-0.079,1.568-0.079c0.49,0,0.979,0.032,1.465,0.074v-5.061c-0.004-0.401-0.16-0.786-0.441-1.077l-16.236-16.207
		l-0.15-0.152c-0.287-0.293-0.684-0.459-1.094-0.455c-0.051,0-0.102,0.004-0.15,0.017h-24.016c-4.188,0.001-7.578,3.394-7.582,7.581
		v51.398c-0.002,4.037,3.168,7.369,7.203,7.564c0.121,0,0.242,0.016,0.379,0.016h34.508c4.186-0.002,7.578-3.396,7.58-7.58v-1.693
		c-0.484,0.041-0.971,0.074-1.463,0.074C735.203,103.587,734.681,103.555,734.164,103.507z"/>
	<path fill="#00EFD1" d="M712.816,70.842h-13.871c-0.912,0-1.65,0.74-1.65,1.652c0,0.911,0.738,1.65,1.65,1.65h13.871
		c0.908,0,1.648-0.739,1.648-1.65C714.464,71.582,713.726,70.842,712.816,70.842z"/>
	<path fill="#00EFD1" d="M697.294,81.598c0,0.914,0.738,1.651,1.65,1.651h19.83c0.207-1.144,0.523-2.248,0.945-3.302h-20.775
		C698.033,79.947,697.294,80.688,697.294,81.598z"/>
	<path fill="#00EFD1" d="M697.294,90.703c0,0.912,0.738,1.65,1.65,1.65h20.08c0.184,0,0.357-0.035,0.523-0.096
		c-0.377-1.025-0.66-2.1-0.834-3.205h-19.77C698.033,89.053,697.294,89.791,697.294,90.703z"/>
	<path fill="#00EFD1" d="M698.945,101.458h20.08c0.906,0,1.648-0.737,1.648-1.651c0-0.912-0.742-1.65-1.648-1.65h-20.08
		c-0.912,0-1.65,0.738-1.65,1.65C697.294,100.721,698.033,101.458,698.945,101.458z"/>
	<path fill="#FFFFFF" d="M752.978,86.337c0-9.015-6.955-16.427-15.781-17.174c-0.484-0.042-0.973-0.074-1.465-0.074
		c-0.529,0-1.053,0.032-1.568,0.079c-6.57,0.596-12.08,4.889-14.441,10.779c-0.422,1.054-0.736,2.161-0.945,3.302
		c-0.186,1.004-0.291,2.032-0.291,3.088c0,0.927,0.094,1.828,0.23,2.716c0.176,1.106,0.457,2.18,0.834,3.206
		c2.25,6.13,7.871,10.638,14.613,11.248c0.518,0.048,1.039,0.08,1.568,0.08c0.492,0,0.979-0.032,1.465-0.073
		C746.021,102.766,752.978,95.355,752.978,86.337z M735.732,101.277c-8.254,0-14.941-6.688-14.941-14.939
		c0-8.25,6.688-14.939,14.941-14.939c8.252,0,14.938,6.688,14.938,14.939S743.984,101.277,735.732,101.277z"/>
	<path fill="#00ACEA" d="M735.732,71.398c-8.254,0-14.941,6.688-14.941,14.939c0,8.252,6.688,14.938,14.941,14.938
		c8.252,0,14.938-6.688,14.938-14.938S743.984,71.398,735.732,71.398z M728.38,83.77l4.766,5.563l10.932-9.119l2.508,3.005
		l-13.898,11.594l-7.275-8.494L728.38,83.77z"/>
	<polygon fill="#FFFFFF" points="746.583,83.219 744.078,80.213 733.146,89.332 728.38,83.77 725.41,86.316 732.687,94.811 	"/>
</g>
<line fill="none" stroke="#FFFFFF" stroke-width="0.9963" stroke-miterlimit="10" x1="667.767" y1="79.499" x2="371.68" y2="79.499"/>
<g enable-background="new    ">
	<path fill="#083863" d="M449.078,63.337c0.849,0.771,2.073,1.414,3.673,1.93c1.6,0.517,3.079,0.773,4.438,0.773
		c4.413,0,6.62-1.605,6.62-4.818c0-0.901-0.229-1.704-0.686-2.409c-0.458-0.705-1.074-1.315-1.851-1.831
		c-0.777-0.517-2.31-1.361-4.594-2.537c-3.291-1.685-5.374-3.153-6.249-4.407s-1.312-2.671-1.312-4.251
		c0-2.441,0.992-4.394,2.977-5.856c1.985-1.462,4.479-2.194,7.483-2.194c3.029,0,5.178,0.359,6.444,1.078v3.858
		c-1.776-1.228-4.068-1.841-6.875-1.841c-1.92,0-3.487,0.408-4.701,1.224c-1.214,0.816-1.822,1.963-1.822,3.438
		c0,0.914,0.212,1.707,0.637,2.38c0.424,0.672,1.002,1.257,1.734,1.753c0.73,0.496,2.154,1.273,4.27,2.331
		c2.979,1.476,5.061,2.915,6.249,4.318c1.188,1.404,1.783,2.975,1.783,4.711c0,2.586-0.939,4.584-2.821,5.994
		c-1.881,1.41-4.512,2.116-7.894,2.116c-1.032,0-2.374-0.17-4.025-0.51c-1.65-0.34-2.811-0.751-3.477-1.234v-4.016H449.078z"/>
	<path fill="#083863" d="M491.133,41.301h-8.756v27.286h-3.35V41.301h-8.736v-3.056h20.842V41.301z"/>
	<path fill="#083863" d="M511.896,68.587h-15.944V38.246h15.259v3.056h-11.929v10.323h11.027v3.056h-11.027v10.852h12.614V68.587z"
		/>
	<path fill="#083863" d="M521.123,57.07v11.518h-3.33V38.246h8.188c3.174,0,5.654,0.79,7.444,2.37c1.789,1.58,2.683,3.8,2.683,6.66
		c0,2.978-1.051,5.38-3.152,7.208c-2.104,1.828-4.695,2.69-7.776,2.586H521.123z M521.123,41.321v12.635h3.8
		c2.494,0,4.397-0.565,5.71-1.694c1.313-1.13,1.969-2.739,1.969-4.829c0-4.074-2.402-6.111-7.208-6.111L521.123,41.321
		L521.123,41.321z"/>
	<path fill="#083863" d="M568.095,68.587h-18.158v-2.958l8.834-8.893c2.926-2.951,4.725-5.09,5.396-6.415
		c0.673-1.325,1.009-2.732,1.009-4.222c0-1.789-0.506-3.166-1.518-4.133c-1.013-0.966-2.465-1.449-4.358-1.449
		c-2.704,0-5.302,1.169-7.796,3.506v-3.486c2.337-1.867,5.08-2.802,8.227-2.802c2.612,0,4.704,0.726,6.278,2.175
		c1.574,1.449,2.36,3.415,2.36,5.896c0,1.907-0.52,3.784-1.558,5.632s-3,4.215-5.886,7.101l-7.071,6.993v0.078h14.241
		L568.095,68.587L568.095,68.587z"/>
</g>
<text transform="matrix(1 0 0 1 446.4727 109.5879)" fill="#083863" font-family="'MicrosoftJhengHeiRegular'" font-size="26">填寫購買資料</text>
<path fill="#FFE0B6" d="M420.832,79.5c0-38.385-31.115-69.5-69.5-69.5H10v139h341.332C389.717,149,420.832,117.882,420.832,79.5z"/>
<circle fill="#FFFFFF" cx="351.333" cy="79.499" r="45.246"/>
<g>
	<g>
		<g>
			<path fill="#00EFD1" d="M364.884,63.604h8.673l4.428,40.113c0.549,4.91-2.986,9.334-7.896,9.883
				c-0.318,0.035-0.639,0.053-0.959,0.055h-35.596c-4.94-0.02-8.929-4.037-8.909-8.979c0-0.32,0.02-0.641,0.055-0.959l4.428-40.113
				H364.884L364.884,63.604z"/>
			<path fill="#083863" d="M364.884,71.464c-0.999,0-1.808-0.81-1.808-1.806v-12.74c0.006-2.975-1.163-5.832-3.252-7.95
				c-2.144-2.184-5.071-3.419-8.131-3.435c-6.252,0.051-11.293,5.133-11.293,11.385v12.74c0,0.996-0.81,1.806-1.807,1.806
				c-0.998,0-1.808-0.81-1.808-1.806v-12.74c-0.643-8.258,5.531-15.474,13.789-16.115c8.258-0.643,15.473,5.531,16.116,13.789
				c0.059,0.774,0.059,1.553,0,2.326v12.74C366.691,70.654,365.882,71.464,364.884,71.464z"/>
		</g>
		<path fill="#00ACEA" d="M367.232,88.628c0,8.783-7.118,15.899-15.9,15.899c-8.781,0-15.9-7.116-15.9-15.899
			c0-8.781,7.119-15.9,15.9-15.9l0,0C360.114,72.729,367.232,79.848,367.232,88.628z"/>
	</g>
	<polyline fill="none" stroke="#FFFFFF" stroke-width="4.1656" stroke-miterlimit="10" points="341.927,87.25 348.336,94.73 
		361.549,83.71 	"/>
</g>
<line fill="none" stroke="#FFFFFF" stroke-width="0.9963" stroke-miterlimit="10" x1="306.087" y1="79.499" x2="10" y2="79.499"/>
<g enable-background="new    ">
	<path fill="#083863" d="M36.398,63.337c0.849,0.771,2.073,1.414,3.673,1.93c1.6,0.517,3.079,0.773,4.437,0.773
		c4.414,0,6.621-1.605,6.621-4.818c0-0.901-0.229-1.704-0.686-2.409c-0.458-0.705-1.074-1.315-1.851-1.831
		c-0.777-0.517-2.309-1.361-4.593-2.537c-3.291-1.685-5.374-3.153-6.249-4.407s-1.312-2.671-1.312-4.251
		c0-2.441,0.992-4.394,2.977-5.856s4.479-2.194,7.483-2.194c3.029,0,5.178,0.359,6.444,1.078v3.858
		c-1.776-1.228-4.068-1.841-6.875-1.841c-1.919,0-3.487,0.408-4.701,1.224c-1.214,0.816-1.822,1.963-1.822,3.438
		c0,0.914,0.212,1.707,0.637,2.38c0.424,0.672,1.002,1.257,1.734,1.753c0.731,0.496,2.154,1.273,4.27,2.331
		c2.978,1.476,5.06,2.915,6.249,4.318c1.188,1.404,1.783,2.975,1.783,4.711c0,2.586-0.94,4.584-2.821,5.994
		s-4.512,2.116-7.894,2.116c-1.032,0-2.374-0.17-4.025-0.51c-1.651-0.34-2.811-0.751-3.477-1.234v-4.016H36.398z"/>
	<path fill="#083863" d="M78.454,41.301h-8.756v27.286h-3.35V41.301h-8.736v-3.056h20.842V41.301z"/>
	<path fill="#083863" d="M99.217,68.587H83.272V38.246h15.259v3.056H86.603v10.323H97.63v3.056H86.603v10.852h12.614V68.587z"/>
	<path fill="#083863" d="M108.443,57.07v11.518h-3.33V38.246h8.188c3.173,0,5.654,0.79,7.444,2.37c1.789,1.58,2.683,3.8,2.683,6.66
		c0,2.978-1.051,5.38-3.153,7.208c-2.103,1.828-4.695,2.69-7.776,2.586H108.443z M108.443,41.321v12.635h3.8
		c2.494,0,4.397-0.565,5.71-1.694c1.313-1.13,1.969-2.739,1.969-4.829c0-4.074-2.403-6.111-7.208-6.111L108.443,41.321
		L108.443,41.321z"/>
	<path fill="#083863" d="M156.002,68.587H138.96v-2.919h6.895V41.811l-7.071,2.135v-3.153l10.342-3.232v28.108h6.875L156.002,68.587
		L156.002,68.587z"/>
</g>
<text transform="matrix(1 0 0 1 33.793 109.5879)" fill="#083863" font-family="'MicrosoftJhengHeiRegular'" font-size="26">確認購物清單</text>
</svg>
