<?xml version="1.0" encoding="utf-8"?>
<!-- Generator: Adobe Illustrator 15.1.0, SVG Export Plug-In . SVG Version: 6.00 Build 0)  -->
<!DOCTYPE svg PUBLIC "-//W3C//DTD SVG 1.1//EN" "http://www.w3.org/Graphics/SVG/1.1/DTD/svg11.dtd">
<svg version="1.1" id="圖層_1" xmlns="http://www.w3.org/2000/svg" xmlns:xlink="http://www.w3.org/1999/xlink" x="0px" y="0px"
	 width="575px" height="191.666px" viewBox="0 0 575 191.666" enable-background="new 0 0 575 191.666" xml:space="preserve">
<path fill="#99D6FF" d="M0.001,61.274c0,0.02-0.001,0.039-0.001,0.06l0.001,130.333h191.664V0H61.333
	C27.479,0,0.032,27.43,0.001,61.274z"/>
<g>
	<circle fill="#FFFFFF" cx="95.833" cy="54.223" r="35.141"/>
	<g>
		<g>
			<g>
				<path fill="#00EFD1" d="M106.356,41.433h6.735l3.439,31.152c0.427,3.813-2.319,7.252-6.132,7.68
					c-0.248,0.025-0.496,0.039-0.745,0.041H82.01c-3.837-0.016-6.937-3.137-6.92-6.974c0-0.248,0.013-0.498,0.043-0.747
					l3.438-31.152H106.356L106.356,41.433z"/>
				<path fill="#083863" d="M106.356,47.535c-0.775,0-1.404-0.629-1.404-1.398v-9.898c0.006-2.311-0.903-4.527-2.524-6.172
					c-1.665-1.698-3.938-2.656-6.316-2.668c-4.854,0.038-8.77,3.985-8.77,8.84v9.898c0,0.77-0.63,1.398-1.403,1.398
					c-0.776,0-1.404-0.629-1.404-1.398v-9.898c-0.501-6.413,4.296-12.017,10.709-12.515c6.415-0.501,12.019,4.294,12.519,10.711
					c0.043,0.601,0.043,1.202,0,1.804v9.898C107.762,46.906,107.133,47.535,106.356,47.535z"/>
			</g>
			<path fill="#00ACEA" d="M108.181,60.869c0,6.821-5.528,12.349-12.351,12.349c-6.819,0-12.348-5.527-12.348-12.349
				c0-6.82,5.528-12.352,12.348-12.352l0,0C102.652,48.518,108.181,54.049,108.181,60.869z"/>
		</g>
		<polyline fill="none" stroke="#FFFFFF" stroke-width="3.2353" stroke-miterlimit="10" points="88.526,59.796 93.505,65.608 
			103.767,57.048 		"/>
	</g>
</g>
<g>
	<path fill="#083863" d="M41.027,128.272c0.778,0.707,1.901,1.297,3.369,1.77c1.468,0.474,2.824,0.71,4.07,0.71
		c4.049,0,6.073-1.474,6.073-4.42c0-0.827-0.21-1.563-0.629-2.21c-0.42-0.647-0.985-1.207-1.698-1.681
		c-0.713-0.473-2.117-1.249-4.214-2.327c-3.019-1.545-4.93-2.893-5.731-4.043c-0.803-1.149-1.204-2.449-1.204-3.898
		c0-2.24,0.91-4.031,2.731-5.373c1.82-1.342,4.108-2.013,6.864-2.013c2.778,0,4.749,0.33,5.911,0.988v3.54
		c-1.629-1.126-3.731-1.689-6.307-1.689c-1.761,0-3.198,0.375-4.313,1.123c-1.114,0.749-1.671,1.801-1.671,3.154
		c0,0.838,0.194,1.566,0.584,2.183c0.389,0.617,0.919,1.153,1.59,1.608s1.977,1.168,3.917,2.139
		c2.731,1.354,4.642,2.674,5.732,3.962c1.09,1.288,1.635,2.729,1.635,4.321c0,2.372-0.862,4.205-2.587,5.498
		c-1.726,1.294-4.14,1.941-7.242,1.941c-0.946,0-2.177-0.156-3.692-0.468s-2.578-0.688-3.189-1.132V128.272z"/>
	<path fill="#083863" d="M79.606,108.058h-8.032v25.03h-3.073v-25.03h-8.014v-2.803h19.119V108.058z"/>
	<path fill="#083863" d="M98.653,133.088H84.026v-27.833h13.998v2.803H87.081v9.47h10.116v2.803H87.081v9.955h11.572V133.088z"/>
	<path fill="#083863" d="M107.116,122.522v10.565h-3.055v-27.833h7.511c2.911,0,5.187,0.725,6.828,2.174s2.462,3.486,2.462,6.109
		c0,2.731-0.965,4.936-2.893,6.612c-1.93,1.678-4.307,2.468-7.134,2.372H107.116z M107.116,108.075v11.59h3.486
		c2.287,0,4.033-0.518,5.237-1.554s1.806-2.513,1.806-4.43c0-3.737-2.204-5.606-6.612-5.606H107.116z"/>
	<path fill="#083863" d="M150.745,133.088h-15.633v-2.677h6.325v-21.887l-6.487,1.959v-2.893l9.488-2.965v25.785h6.307V133.088z"/>
</g>
<text transform="matrix(1 0 0 1 24.0723 169.3506)" fill="#083863" font-family="'MicrosoftJhengHeiRegular'" font-size="23">確認購物清單</text>
<path fill="#99D6FF" d="M513.728,0c-0.021,0-0.039-0.001-0.061-0.001L383.334,0v191.664H575V61.332
	C575,27.478,547.57,0.031,513.728,0z"/>
<g>
	<path fill="#083863" d="M424.271,128.272c0.781,0.707,1.907,1.297,3.379,1.77c1.472,0.474,2.833,0.71,4.082,0.71
		c4.061,0,6.092-1.474,6.092-4.42c0-0.827-0.211-1.563-0.631-2.21c-0.421-0.647-0.988-1.207-1.703-1.681
		c-0.715-0.473-2.124-1.249-4.227-2.327c-3.027-1.545-4.943-2.893-5.748-4.043c-0.806-1.149-1.208-2.449-1.208-3.898
		c0-2.24,0.913-4.031,2.739-5.373s4.121-2.013,6.885-2.013c2.787,0,4.764,0.33,5.929,0.988v3.54
		c-1.634-1.126-3.742-1.689-6.325-1.689c-1.767,0-3.208,0.375-4.325,1.123c-1.117,0.749-1.676,1.801-1.676,3.154
		c0,0.838,0.194,1.566,0.585,2.183c0.391,0.617,0.922,1.153,1.595,1.608s1.982,1.168,3.929,2.139
		c2.739,1.354,4.656,2.674,5.749,3.962c1.094,1.288,1.641,2.729,1.641,4.321c0,2.372-0.865,4.205-2.596,5.498
		c-1.729,1.294-4.151,1.941-7.263,1.941c-0.949,0-2.184-0.156-3.703-0.468c-1.521-0.312-2.586-0.688-3.199-1.132V128.272z"/>
	<path fill="#083863" d="M462.963,108.058h-8.056v25.03h-3.081v-25.03h-8.038v-2.803h19.175V108.058z"/>
	<path fill="#083863" d="M482.066,133.088h-14.67v-27.833h14.039v2.803H470.46v9.47h10.146v2.803H470.46v9.955h11.606V133.088z"/>
	<path fill="#083863" d="M490.554,122.522v10.565h-3.063v-27.833h7.533c2.919,0,5.202,0.725,6.848,2.174
		c1.646,1.449,2.469,3.486,2.469,6.109c0,2.731-0.967,4.936-2.901,6.612c-1.935,1.678-4.318,2.468-7.154,2.372H490.554z
		 M490.554,108.075v11.59h3.496c2.295,0,4.046-0.518,5.254-1.554c1.207-1.036,1.811-2.513,1.811-4.43
		c0-3.737-2.211-5.606-6.632-5.606H490.554z"/>
	<path fill="#083863" d="M517.73,128.739c1.91,1.51,4.061,2.265,6.451,2.265c1.922,0,3.487-0.485,4.694-1.456
		c1.208-0.97,1.812-2.306,1.812-4.007c0-3.713-2.625-5.57-7.875-5.57h-2.308v-2.569h2.199c4.661,0,6.992-1.736,6.992-5.211
		c0-3.223-1.778-4.834-5.334-4.834c-1.971,0-3.821,0.678-5.551,2.031v-3.001c1.777-1.066,3.88-1.6,6.308-1.6
		c2.21,0,4.039,0.605,5.487,1.815c1.447,1.21,2.172,2.814,2.172,4.815c0,3.642-1.869,6.001-5.605,7.079v0.072
		c1.982,0.168,3.578,0.862,4.785,2.084c1.207,1.223,1.812,2.744,1.812,4.564c0,2.54-0.917,4.564-2.749,6.073
		c-1.832,1.51-4.172,2.265-7.019,2.265c-2.62,0-4.71-0.497-6.271-1.492V128.739z"/>
</g>
<g>
	<text transform="matrix(1.0029 0 0 1 413.8457 169.374)" fill="#083863" font-family="'MicrosoftJhengHeiRegular'" font-size="23">前  往  結  帳</text>
</g>
<g>
	<circle fill="#FFFFFF" cx="479.237" cy="54.471" r="35.14"/>
	<g>
		<path fill="#00ACEA" d="M480.53,68.323c6.911,0.449,12.266,3.479,12.266,7.15c0,3.979-6.307,7.214-14.069,7.214
			c-7.769,0-14.066-3.234-14.066-7.214c0-3.798,5.72-6.912,12.985-7.194"/>
		<path fill="#00EFD1" d="M500.067,45.175v13.953c0,0.222-0.084,0.381-0.225,0.407c-1.541,0.168-3.089-0.213-4.379-1.072
			c-2.255-1.362-4.12-3.283-5.417-5.582c-1.298-2.297-3.166-4.222-5.425-5.587c-1.832-1.056-3.492-1.35-4.725-0.98
			c-0.299,0.091-0.695-0.429-0.695-0.917V31.573c-0.018-0.15,0.045-0.294,0.166-0.381c1.258-0.659,3.143-0.457,5.254,0.764
			c2.259,1.365,4.127,3.288,5.425,5.587c1.297,2.296,3.162,4.217,5.417,5.582c1.178,0.758,2.552,1.15,3.949,1.125
			C499.716,44.226,500.067,44.718,500.067,45.175z"/>
		<path fill="#083863" d="M479.084,29.3c0.796,0,1.445,0.646,1.445,1.443V74.03c0,0.397-0.325,0.72-0.722,0.72h-1.443
			c-0.401,0-0.722-0.322-0.722-0.72V30.743C477.643,29.946,478.29,29.3,479.084,29.3z"/>
	</g>
</g>
<rect x="191.666" fill="#FFE0B6" width="191.668" height="191.664"/>
<g>
	<circle fill="#FFFFFF" cx="287.5" cy="54.221" r="35.142"/>
	<g>
		<path fill="#083863" d="M297.048,43.464c-3.25,0-5.885-2.636-5.887-5.887v-6.852h-17.593c-1.948,0.006-3.528,1.584-3.532,3.53
			v39.921c-0.008,1.884,1.472,3.44,3.355,3.53h26.977c1.949-0.003,3.525-1.584,3.533-3.53v-1.309
			c-5.236-0.474-9.604-3.975-11.35-8.736c-0.128,0.045-0.265,0.072-0.408,0.072h-15.596c-0.706,0-1.282-0.569-1.282-1.279
			c0-0.709,0.576-1.284,1.282-1.284h15.355c-0.107-0.688-0.181-1.39-0.181-2.108c0-0.819,0.083-1.617,0.229-2.397h-15.403
			c-0.706,0-1.282-0.575-1.282-1.28c0-0.71,0.576-1.285,1.282-1.285h16.136c1.837-4.575,6.116-7.906,11.218-8.371v-2.734H297.048z
			 M276.548,68.711h15.596c0.705,0,1.282,0.572,1.282,1.282c0,0.706-0.577,1.284-1.282,1.284h-15.596
			c-0.706,0-1.282-0.578-1.282-1.284C275.266,69.283,275.842,68.711,276.548,68.711z M287.32,50.064h-10.772
			c-0.706,0-1.282-0.575-1.282-1.283c0-0.707,0.576-1.285,1.282-1.285h10.772c0.706,0,1.282,0.578,1.282,1.285
			C288.603,49.489,288.026,50.064,287.32,50.064z"/>
		<path fill="#00EFD1" d="M297.048,41.111h5.205l-8.739-8.727v5.192C293.52,39.526,295.1,41.104,297.048,41.111z"/>
		<path fill="#00EFD1" d="M303.901,72.868v1.309c-0.008,1.946-1.584,3.527-3.533,3.53h-26.977c-1.884-0.09-3.363-1.646-3.355-3.53
			V34.256c0.004-1.946,1.584-3.524,3.532-3.53h17.593v6.852c0.002,3.251,2.637,5.887,5.887,5.887h6.854v2.734
			c0.402-0.035,0.807-0.062,1.219-0.062c0.382,0,0.761,0.026,1.137,0.059v-3.933c-0.003-0.31-0.124-0.606-0.345-0.834
			l-12.607-12.587l-0.118-0.12c-0.223-0.228-0.529-0.356-0.849-0.354c-0.04,0-0.079,0.004-0.118,0.015h-18.651
			c-3.253,0-5.886,2.636-5.889,5.887v39.916c-0.003,3.141,2.459,5.725,5.596,5.877c0.093,0,0.188,0.011,0.293,0.011h26.8
			c3.253-0.003,5.889-2.635,5.889-5.888v-1.314c-0.376,0.033-0.755,0.06-1.137,0.06C304.708,72.931,304.304,72.904,303.901,72.868z"
			/>
		<path fill="#00EFD1" d="M287.32,47.496h-10.772c-0.706,0-1.282,0.578-1.282,1.285c0,0.708,0.576,1.283,1.282,1.283h10.772
			c0.706,0,1.282-0.575,1.282-1.283C288.603,48.074,288.026,47.496,287.32,47.496z"/>
		<path fill="#00EFD1" d="M275.266,55.854c0,0.705,0.576,1.28,1.282,1.28h15.403c0.158-0.89,0.406-1.746,0.732-2.565h-16.136
			C275.842,54.569,275.266,55.145,275.266,55.854z"/>
		<path fill="#00EFD1" d="M275.266,62.925c0,0.71,0.576,1.279,1.282,1.279h15.596c0.144,0,0.28-0.027,0.408-0.072
			c-0.293-0.799-0.512-1.629-0.648-2.491h-15.355C275.842,61.641,275.266,62.216,275.266,62.925z"/>
		<path fill="#00EFD1" d="M276.548,71.277h15.596c0.705,0,1.282-0.578,1.282-1.284c0-0.71-0.577-1.282-1.282-1.282h-15.596
			c-0.706,0-1.282,0.572-1.282,1.282C275.266,70.699,275.842,71.277,276.548,71.277z"/>
		<path fill="#FFFFFF" d="M318.515,59.532c0-7.002-5.403-12.758-12.258-13.337c-0.376-0.032-0.755-0.059-1.137-0.059
			c-0.412,0-0.816,0.026-1.219,0.062c-5.102,0.465-9.381,3.796-11.218,8.371c-0.326,0.819-0.574,1.676-0.732,2.565
			c-0.146,0.78-0.229,1.578-0.229,2.397c0,0.719,0.073,1.421,0.181,2.108c0.137,0.862,0.355,1.692,0.648,2.491
			c1.746,4.762,6.113,8.263,11.35,8.736c0.402,0.036,0.807,0.063,1.219,0.063c0.382,0,0.761-0.026,1.137-0.06
			C313.111,72.293,318.515,66.535,318.515,59.532z M305.12,71.136c-6.41,0-11.606-5.193-11.606-11.604
			c0-6.405,5.196-11.603,11.606-11.603c6.407,0,11.6,5.197,11.6,11.603C316.72,65.942,311.527,71.136,305.12,71.136z"/>
		<path fill="#00ACEA" d="M305.12,47.93c-6.41,0-11.606,5.197-11.606,11.603c0,6.41,5.196,11.604,11.606,11.604
			c6.407,0,11.6-5.193,11.6-11.604C316.72,53.127,311.527,47.93,305.12,47.93z M299.41,57.538l3.701,4.319l8.489-7.081l1.947,2.336
			l-10.792,9.001l-5.654-6.599L299.41,57.538z"/>
		<polygon fill="#FFFFFF" points="313.548,57.112 311.601,54.776 303.111,61.857 299.41,57.538 297.102,59.515 302.756,66.113 		"/>
	</g>
</g>
<g>
	<path fill="#083863" d="M232.693,128.272c0.778,0.707,1.901,1.297,3.369,1.77c1.468,0.474,2.824,0.71,4.07,0.71
		c4.049,0,6.073-1.474,6.073-4.42c0-0.827-0.21-1.563-0.629-2.21c-0.42-0.647-0.985-1.207-1.698-1.681
		c-0.713-0.473-2.117-1.249-4.214-2.327c-3.019-1.545-4.93-2.893-5.731-4.043c-0.803-1.149-1.204-2.449-1.204-3.898
		c0-2.24,0.91-4.031,2.731-5.373c1.82-1.342,4.108-2.013,6.864-2.013c2.778,0,4.749,0.33,5.911,0.988v3.54
		c-1.629-1.126-3.731-1.689-6.307-1.689c-1.761,0-3.198,0.375-4.313,1.123c-1.114,0.749-1.671,1.801-1.671,3.154
		c0,0.838,0.194,1.566,0.584,2.183c0.389,0.617,0.919,1.153,1.59,1.608s1.977,1.168,3.917,2.139
		c2.731,1.354,4.642,2.674,5.732,3.962c1.09,1.288,1.635,2.729,1.635,4.321c0,2.372-0.862,4.205-2.587,5.498
		c-1.726,1.294-4.14,1.941-7.242,1.941c-0.946,0-2.177-0.156-3.692-0.468s-2.578-0.688-3.189-1.132V128.272z"/>
	<path fill="#083863" d="M271.272,108.058h-8.032v25.03h-3.073v-25.03h-8.014v-2.803h19.119V108.058z"/>
	<path fill="#083863" d="M290.319,133.088h-14.627v-27.833h13.998v2.803h-10.943v9.47h10.116v2.803h-10.116v9.955h11.572V133.088z"
		/>
	<path fill="#083863" d="M298.782,122.522v10.565h-3.055v-27.833h7.511c2.911,0,5.187,0.725,6.828,2.174s2.462,3.486,2.462,6.109
		c0,2.731-0.965,4.936-2.893,6.612c-1.93,1.678-4.307,2.468-7.134,2.372H298.782z M298.782,108.075v11.59h3.486
		c2.287,0,4.033-0.518,5.237-1.554s1.806-2.513,1.806-4.43c0-3.737-2.204-5.606-6.612-5.606H298.782z"/>
	<path fill="#083863" d="M341.872,133.088h-16.657v-2.713l8.104-8.158c2.683-2.707,4.333-4.669,4.95-5.885
		c0.616-1.216,0.925-2.507,0.925-3.872c0-1.641-0.464-2.904-1.393-3.791c-0.928-0.887-2.261-1.33-3.998-1.33
		c-2.479,0-4.863,1.072-7.151,3.217v-3.199c2.145-1.713,4.66-2.569,7.547-2.569c2.396,0,4.315,0.665,5.759,1.995
		c1.443,1.329,2.166,3.133,2.166,5.408c0,1.749-0.477,3.471-1.429,5.166s-2.753,3.866-5.399,6.514l-6.487,6.415v0.071h13.063
		V133.088z"/>
</g>
<g>
	<text transform="matrix(1 0 0 1 215.7393 169.3506)" fill="#083863" font-family="'MicrosoftJhengHeiRegular'" font-size="23">填寫購買資料</text>
</g>
<line fill="none" stroke="#FFFFFF" stroke-width="1.5327" stroke-miterlimit="10" x1="575" y1="141.394" x2="0" y2="141.394"/>
</svg>
