<?xml version="1.0" encoding="utf-8"?>
<!-- Generator: Adobe Illustrator 15.1.0, SVG Export Plug-In . SVG Version: 6.00 Build 0)  -->
<!DOCTYPE svg PUBLIC "-//W3C//DTD SVG 1.1//EN" "http://www.w3.org/Graphics/SVG/1.1/DTD/svg11.dtd">
<svg version="1.1" id="圖層_1" xmlns="http://www.w3.org/2000/svg" xmlns:xlink="http://www.w3.org/1999/xlink" x="0px" y="0px"
	 width="824px" height="510px" viewBox="0 0 824 510" enable-background="new 0 0 824 510" xml:space="preserve">
<path fill="#EEF6F9" d="M680.158,197.239C582.842,128.403,621.441,38.585,478.314,5.427
	C292.998-37.505,217.558,185.961,317.912,265.929c100.354,79.968-98.963,129.637-161.593,99.603
	C98.644,337.872-35.584,306.572,9.9,378.452c45.482,71.88,226.434,110.048,462.943,109.713c0,0,231.477-17.157,351.156,21.218
	V152.228C769.195,181.092,710.588,218.763,680.158,197.239z"/>
<g>
	<g>
		<path fill="#21529F" d="M690.236,427.591c-0.982,0-1.906-0.606-2.262-1.582l-65.494-179.84l-65.494,179.84
			c-0.455,1.249-1.834,1.89-3.084,1.436c-1.25-0.453-1.893-1.836-1.438-3.083l67.756-186.049c0.346-0.95,1.248-1.582,2.26-1.582
			s1.914,0.632,2.262,1.582l67.754,186.049c0.457,1.247-0.188,2.63-1.436,3.083C690.789,427.543,690.51,427.591,690.236,427.591"/>
		<path fill="#21529F" d="M630.293,262.994h-35.652c-1.328,0-2.406-1.077-2.406-2.406c0-1.328,1.078-2.407,2.406-2.407h35.652
			c1.328,0,2.406,1.079,2.406,2.407C632.699,261.917,631.621,262.994,630.293,262.994"/>
		<path fill="#21529F" d="M639.471,289.229h-33.979c-1.328,0-2.406-1.077-2.406-2.405c0-1.329,1.078-2.406,2.406-2.406h33.979
			c1.33,0,2.408,1.077,2.408,2.406C641.879,288.152,640.801,289.229,639.471,289.229"/>
		<path fill="#21529F" d="M601.744,289.229h-32.549c-1.271,0-2.307-1.077-2.307-2.405c0-1.329,1.035-2.406,2.307-2.406h32.549
			c1.27,0,2.305,1.077,2.305,2.406C604.049,288.152,603.014,289.229,601.744,289.229"/>
		<path fill="#21529F" d="M648.648,315.467h-33.98c-1.328,0-2.406-1.077-2.406-2.406c0-1.33,1.078-2.407,2.406-2.407h33.98
			c1.328,0,2.406,1.077,2.406,2.407C651.055,314.39,649.977,315.467,648.648,315.467"/>
		<path fill="#21529F" d="M594.641,315.467h-33.979c-1.33,0-2.408-1.077-2.408-2.406c0-1.33,1.078-2.407,2.408-2.407h33.979
			c1.328,0,2.406,1.077,2.406,2.407C597.047,314.39,595.969,315.467,594.641,315.467"/>
		<path fill="#21529F" d="M657.824,341.701h-33.98c-1.326,0-2.404-1.078-2.404-2.407c0-1.328,1.078-2.405,2.404-2.405h33.98
			c1.33,0,2.408,1.077,2.408,2.405C660.232,340.623,659.154,341.701,657.824,341.701"/>
		<path fill="#21529F" d="M584.65,341.701h-33.979c-1.328,0-2.406-1.078-2.406-2.407c0-1.328,1.078-2.405,2.406-2.405h33.979
			c1.328,0,2.406,1.077,2.406,2.405C587.057,340.623,585.979,341.701,584.65,341.701"/>
		<path fill="#21529F" d="M667.002,367.938h-33.979c-1.328,0-2.408-1.078-2.408-2.407s1.08-2.407,2.408-2.407h33.979
			c1.33,0,2.406,1.078,2.406,2.407S668.332,367.938,667.002,367.938"/>
		<path fill="#21529F" d="M575.436,367.938h-33.98c-1.328,0-2.406-1.078-2.406-2.407s1.078-2.407,2.406-2.407h33.98
			c1.328,0,2.406,1.078,2.406,2.407S576.764,367.938,575.436,367.938"/>
		<path fill="#21529F" d="M676.178,394.174h-33.979c-1.326,0-2.404-1.078-2.404-2.407s1.078-2.405,2.404-2.405h33.979
			c1.33,0,2.408,1.076,2.408,2.405S677.508,394.174,676.178,394.174"/>
		<path fill="#21529F" d="M565.986,394.174h-33.979c-1.328,0-2.408-1.078-2.408-2.407s1.08-2.405,2.408-2.405h33.979
			c1.33,0,2.408,1.076,2.408,2.405S567.316,394.174,565.986,394.174"/>
		<path fill="#21529F" d="M622.307,241.544h-35.652c-1.33,0-2.408-1.079-2.408-2.407c0-1.327,1.078-2.406,2.408-2.406h35.652
			c1.328,0,2.404,1.079,2.404,2.406C624.711,240.465,623.635,241.544,622.307,241.544"/>
	</g>
	
		<line fill="none" stroke="#222021" stroke-width="1.725" stroke-miterlimit="10" x1="117.283" y1="426.897" x2="748.277" y2="426.897"/>
	<path fill="#EFA987" d="M315.473,296.312l12.582,9.16l15.186-19.439l4.688,2.579c0,0-5.629,19.16-13.133,28.836
		c-1.307,1.685-3.59,2.27-5.578,1.489c-4.066-1.598-11.625-5.3-21.035-13.291L315.473,296.312z"/>
	<g>
		<path fill="#FDBC9B" d="M264.158,430.092c1.254,1.721,5.01,6.189,9.871,5.674l3.594-5.51l-9.883-5.861L264.158,430.092z"/>
		<path d="M264.158,430.092c-0.295-0.404-0.453-0.66-0.453-0.66l-7.756,5.604l27.5,19.882l-7.826-19.491
			c-0.543,0.179-1.074,0.284-1.594,0.339C269.168,436.281,265.412,431.813,264.158,430.092z"/>
		
			<rect x="251.87" y="444.697" transform="matrix(-0.8104 -0.5859 0.5859 -0.8104 225.2711 965.2538)" fill="#C2B8C2" width="33.933" height="2.951"/>
		<polygon fill="#2783F2" points="269.053,413.305 268.125,412.721 262.826,421.479 267.74,424.395 277.623,430.256 
			281.291,432.433 286.568,424.329 285.598,423.719 		"/>
		<path fill="#FDBC9B" d="M356.402,438.943l-2.455-5.854l-10.627,4.363l2.855,6.497
			C348.297,443.878,354.102,443.268,356.402,438.943z"/>
		<path d="M356.402,438.943c-2.301,4.324-8.105,4.935-10.227,5.006c-0.496,0.016-0.803,0.006-0.803,0.006l0.424,9.28l31.754-11.332
			l-20.527-4.453C356.867,437.998,356.648,438.484,356.402,438.943z"/>
		
			<rect x="345.146" y="447.621" transform="matrix(0.9396 -0.3422 0.3422 0.9396 -131.8297 151.0457)" fill="#C2B8C2" width="33.934" height="2.952"/>
		<path fill="#005FEA" d="M354.281,422.467l-13.625-36.833l-27.098-41.88V333.45l-19.828-5.457
			c-11.227,10.647-4.73,22.554-2.705,25.663l-8.893,37.677l-13.08,21.972l16.545,10.414l17.266-30.738l4.492-18.194l16.566,21.348
			l13.357,32.776L354.281,422.467z"/>
		<polygon fill="#2783F2" points="358.887,431.061 355.701,421.929 354.281,422.467 337.279,428.91 335.91,429.429 339.602,438.979 
			343.32,437.452 353.947,433.089 		"/>
		<path fill="#E9B022" d="M319.248,299.062l-7.574-6.119c0,0,3.695,4.135,5.455,9.651L319.248,299.062z"/>
		<path fill="#F7C12E" d="M314.971,323.082c-2.467-2.256-5.377-5.266-8.529-9.201l-4.514,4.459l-7.26-9.284
			c-2.963-3.789-2.5-9.221,1.059-12.457c4.018-3.652,10.311-3.044,13.553,1.314l5.994,7.246l-0.178,0.175l2.916,3.531
			c0.117-2.184-0.26-4.314-0.883-6.271c-1.76-5.517-5.455-9.651-5.455-9.651c-9.238,0.264-14.871-5.122-14.871-5.122
			s-12.779,11.406-3.072,40.173l19.828,5.457C313.559,333.45,314.395,329.102,314.971,323.082z"/>
		<path fill="#FDBC9B" d="M315.096,305.334l-8.654,8.547c3.152,3.936,6.063,6.945,8.529,9.201c1.918,1.755,3.57,3.061,4.846,3.981
			c1.73,1.251,4.086,1.253,5.773-0.058c9.67-7.509,19.883-24.668,19.883-24.668l-3.9-3.664l-18.523,16.288l-5.037-6.097
			L315.096,305.334z"/>
		<path fill="#FDBC9B" d="M355.063,294.159c0.287-0.276,0.305-0.712,0.037-0.996c-0.254-0.271-0.688-0.317-1.012-0.108l-2.74,1.71
			c-0.068-0.053-0.141-0.108-0.211-0.165l2.867-2.888c0.346-0.347,0.354-0.883,0.018-1.225c-0.354-0.365-0.965-0.379-1.352-0.03
			l-3.189,2.853c-0.1-0.075-0.197-0.149-0.295-0.227l3.02-4.15c0.236-0.339,0.184-0.784-0.127-1.053
			c-0.359-0.309-0.924-0.269-1.246,0.087l-3.43,3.741c-0.119-0.09-0.229-0.177-0.34-0.26l1.9-3.438
			c0.205-0.367,0.09-0.816-0.264-1.049c-0.412-0.264-0.984-0.144-1.246,0.271l-1.951,3.073c0.012,0.062-0.699,1.588-1.521,3.322
			l-0.551-3.04c-0.053-0.296-0.291-0.528-0.604-0.592c-0.48-0.097-0.945,0.236-0.98,0.701c-0.139,1.927-0.027,7.586-0.271,7.977
			l3.898,3.664l7.553-6.263L355.063,294.159z"/>
		<path fill="#FAC030" d="M315.096,305.334l0.178-0.175l-5.994-7.246c-3.242-4.358-9.535-4.967-13.553-1.314
			c-3.559,3.236-4.021,8.668-1.059,12.457l7.26,9.284l4.514-4.459L315.096,305.334z"/>
		<path fill="#171E21" d="M314.578,281.639c-0.863-0.191-1.764-0.444-2.67-0.777l0.566,0.259l-1.008,2.183h11.553
			c0,0-0.275-2.856-1.525-5.803C320.574,280.354,317.666,282.322,314.578,281.639z"/>
		<path fill="#EFA987" d="M311.908,280.861c-0.826-0.304-1.656-0.68-2.473-1.13l-1.434-0.654c0,0,2.098,7.134,2.027,7.34
			l0.002-0.003l1.436-3.111l1.008-2.183L311.908,280.861z"/>
		<path fill="#171E21" d="M306.701,273.998c-0.143,0.005-0.285,0.02-0.432,0.008c-2.059-0.166-3.588-1.972-3.42-4.028
			s1.973-3.59,4.029-3.42c1.799,0.146,3.195,1.546,3.406,3.271l1.547-2.305c7.145-3.533,7.254-7.538,6.307-10.065
			c1.393,0.834,2.684,2.063,3.107,3.842c0.01,0.046,0.029,0.087,0.039,0.134c0,0,5.105-5.256-5.439-7.441
			c-0.002-0.001-0.004-0.001-0.008-0.002c-3.012-1.885-7.924-3.256-14.994-0.18c-1.119,0.486-2.246,1.346-3.23,2.381l-0.004-0.014
			c-0.221,0.222-0.412,0.454-0.609,0.685c-0.002,0.004-0.006,0.007-0.008,0.01c-4.457,5.224-2.904,12.457-3.088,15.704
			c-0.242,4.284-3.158,9.868-3.158,9.868l8.221,0.446l7.607,0.412C306.033,281.262,306.4,276.76,306.701,273.998z"/>
		<path fill="#FDBC9B" d="M311.674,292.942l-2.75-3.243l1.107-3.285l-0.002,0.003c0.07-0.206-2.027-7.34-2.027-7.34l1.434,0.654
			c0.816,0.45,1.646,0.826,2.473,1.13c0.906,0.333,1.807,0.586,2.67,0.777c3.088,0.684,5.996-1.285,6.916-4.139
			c0.209-0.646,0.316-1.337,0.299-2.054c-0.014-0.546-0.025-1.075-0.039-1.596l1.313-0.139c0.479-0.051,0.68-0.641,0.33-0.974
			l-1.713-1.625c-0.129-4.937-0.23-8.112-0.23-8.112c-0.027-0.618-0.105-1.174-0.207-1.701c-0.424-1.779-1.715-3.008-3.107-3.842
			c0.947,2.527,0.838,6.532-6.307,10.065l-1.547,2.305c-0.211-1.725-1.607-3.124-3.406-3.271c-2.057-0.17-3.861,1.363-4.029,3.42
			s1.361,3.862,3.42,4.028c0.146,0.012,0.289-0.003,0.432-0.008c-0.301,2.762-0.668,7.264-0.127,9.305l-7.607-0.412l-0.859,2.545
			l-1.305,2.385C296.803,287.82,302.436,293.206,311.674,292.942z"/>
	</g>
	<g>
		<polygon fill="#FDBC9B" points="206.902,412.393 216.16,412.504 216.728,404.149 207.033,404.122 		"/>
		<path d="M206.447,412.388l-1.094,10.677h29.379c0.275-1.188-0.299-2.412-1.389-2.96l-16.655-7.595l-0.529-0.006l-9.257-0.111
			L206.447,412.388z"/>
		<polygon fill="#C2B8C2" points="205.352,423.065 204.836,423.065 175.08,423.065 175.08,426.225 204.836,426.225 205.352,426.225 
			235.102,426.225 235.102,423.065 		"/>
		<polygon fill="#FDBC9B" points="177.148,412.393 186.406,412.504 187.059,402.911 177.299,402.911 		"/>
		<path d="M176.691,412.388l-1.09,10.677h29.377c0.275-1.188-0.297-2.412-1.389-2.96l-16.654-7.595l-0.529-0.006l-9.258-0.111
			L176.691,412.388z"/>
		<polygon fill="#005FEA" points="177.299,402.911 187.059,402.911 191.576,402.911 197.795,328.626 206.131,360.368 
			203.295,404.111 207.033,404.122 216.728,404.149 219.648,404.157 225.291,355.791 213.938,309.347 198.354,307.301 
			176.807,308.957 172.371,402.911 		"/>
		<path fill="#FBA09F" d="M192.895,306.584c-0.549-0.072-1.004-0.354-1.328-0.742l-0.004,0.004l-0.947-1.237
			c-0.119-0.121-0.223-0.256-0.309-0.401l-0.006-0.007l0.002-0.001c-0.299-0.507-0.391-1.136-0.178-1.748l8.186-23.575
			l-21.734,21.979c-0.029,0.031-0.061,0.063-0.092,0.094l-0.045,0.045v-0.001c-0.191,0.188-0.41,0.369-0.652,0.524l0.051,7.514
			l0.969-0.074l21.547-1.656L192.895,306.584z"/>
		<path fill="#FBA09F" d="M179.344,277.975l-0.555,6.414l17.002-10.803c0,0,1.35-4.896,6.25-5.373
			c0.592-0.058,1.133-0.049,1.625,0.01v-0.003c0,0,4.813,0.553,8.393,2.298c0.363,0.177,0.563,0.577,0.51,0.978
			c-0.072,0.544-0.584,0.915-1.121,0.814l-3.838-0.718c0.189,0.857,0.131,1.751-0.15,2.523c-0.016,0.044-0.037,0.091-0.055,0.135
			l12.162,1.598c0.75-15.593-7.601-20.549-7.601-20.549l-0.002,0.065c-0.148-0.14-0.314-0.265-0.498-0.364l-7.896-3.377
			c0.004,0.012,2.295,6.308-6.893,6.003c-11.504-0.379-9.809-7.191-9.809-7.191l0.174-0.024c-6.285,0.88-11.582,2.494-11.582,2.494
			v0.155c-5.846,2.034-10.867,15.886-10.867,27.57l3.697-0.665L179.344,277.975z"/>
		<path fill="#FDBC9B" d="M176.439,300.994l0.045-0.045c0.031-0.031,0.063-0.063,0.092-0.094l21.734-21.979l1.373-3.955
			c0.328-0.938,1.268-1.519,2.252-1.389l5.469,0.718c0.018-0.044,0.039-0.091,0.055-0.135c0.281-0.772,0.34-1.666,0.15-2.523
			l3.838,0.718c0.537,0.101,1.049-0.271,1.121-0.814c0.053-0.4-0.146-0.801-0.51-0.978c-3.58-1.745-8.393-2.298-8.393-2.298v0.003
			c-0.492-0.059-1.033-0.067-1.625-0.01c-4.9,0.478-6.25,5.373-6.25,5.373l-17.002,10.803l0.555-6.414l-11.055,1.99
			c-0.652,7.001-0.857,16.026,1.855,19.391c2.484,3.078,4.395,2.956,5.643,2.162C176.029,301.362,176.248,301.182,176.439,300.994
			L176.439,300.994z"/>
		<path fill="#090B0C" d="M207.404,274.25l-5.469-0.718c-0.984-0.13-1.924,0.45-2.252,1.389l-1.373,3.955l-8.186,23.575
			c-0.213,0.612-0.121,1.241,0.178,1.748l-0.002,0.001l0.006,0.007c0.086,0.146,0.189,0.28,0.309,0.401l0.947,1.237l0.004-0.004
			c-0.447-0.54-0.631-1.291-0.377-2.021l9.559-27.53c0.326-0.938,1.266-1.521,2.252-1.391l22.297,2.929
			c0.609,0.079,1.105,0.413,1.428,0.868l0.006-0.005l-1.182-1.531l-0.012,0.009c-0.32-0.371-0.768-0.639-1.301-0.709l-4.67-0.613
			L207.404,274.25z"/>
		<path fill="#3D5057" d="M225.297,277.829L203,274.9c-0.986-0.13-1.926,0.452-2.252,1.391l-9.559,27.53
			c-0.254,0.729-0.07,1.48,0.377,2.021c0.324,0.389,0.779,0.67,1.328,0.742l5.459,0.717l15.584,2.046l1.529,0.201
			c0.992,0.131,1.938-0.459,2.256-1.407l4.33-12.852c-2.113-0.334-3.453-2.46-2.813-4.514l0.592-1.914
			c0.479-1.532,1.93-2.548,3.533-2.474l1.176,0.058c0.165,0.008,0.315,0.046,0.459,0.097l2.01-5.968
			c0.227-0.669,0.086-1.354-0.285-1.877C226.402,278.242,225.906,277.908,225.297,277.829z"/>
		<path fill="#FDBC9B" d="M223.365,286.388c-1.604-0.074-3.055,0.941-3.533,2.474l-0.592,1.914c-0.641,2.054,0.699,4.18,2.813,4.514
			c0.031,0.005,0.061,0.019,0.092,0.022c0.734,0.098,1.439-0.328,1.697-1.022l2.116-5.703c0.318-0.856-0.152-1.758-0.957-2.044
			c-0.145-0.051-0.295-0.089-0.459-0.097L223.365,286.388z"/>
		<path fill="#EFA987" d="M196.805,246.807c-0.238-0.047-0.445-0.119-0.67-0.177c2.504,2.216,5.223,3.213,5.252,3.224l0.002,0.001
			l0.396-3.195C200.135,247.037,198.373,247.111,196.805,246.807z"/>
		<path fill="#FDBC9B" d="M196.676,257.626c9.188,0.305,6.896-5.991,6.893-6.003v-0.001l-2.271-1.057
			c0-0.003,0.002-0.006,0.002-0.009l0.088-0.703c-0.029-0.011-2.748-1.008-5.252-3.224c-2.018-0.521-3.502-1.479-4.588-2.631
			l-0.549,5.858l-3.957,0.553l-0.174,0.024C186.867,250.435,185.172,257.247,196.676,257.626z"/>
		<path fill="#E49D7D" d="M208.51,237.527c1.611-0.256,2.93-1.577,3.133-3.33c0.211-1.824-0.857-3.495-2.475-4.063l-0.498,6.403
			C208.643,236.871,208.584,237.2,208.51,237.527z"/>
		<path fill="#FDBC9B" d="M189.715,229.762c-0.568-0.604-1.32-1.028-2.193-1.133c-0.346-0.042-0.684-0.016-1.012,0.04
			c-1.58,0.266-2.871,1.567-3.068,3.29c-0.242,2.08,1.195,3.962,3.213,4.203c0.652,0.079,1.277-0.04,1.844-0.287
			c0.016,0.072,0.041,0.141,0.059,0.212C191.756,234.145,189.727,229.788,189.715,229.762z"/>
		<path fill="#FDBC9B" d="M209.385,227.342c0.094-1.12,0-2.212-0.238-3.25c-0.428-0.726-1.49-1.613-4.117-1.939
			c-3.188-0.396-6.986-0.34-10.162,1.02c0.396,3.244-2.395,4.518-3.443,4.876c-0.115,4.546,1.373,8.255,2.285,10.076
			c0.355,0.709,1.164,1.067,1.93,0.867c1.781-0.472,5.09-1.199,7.385-0.84c1.855,0.29,3.109,0.734,3.852,1.063
			c0.303,0.135,0.543,0.365,0.703,0.642c0.432-0.736,0.75-1.521,0.932-2.329c0.074-0.327,0.133-0.656,0.16-0.989l0.498-6.403
			l0.078-0.995L209.385,227.342z"/>
		<path fill="#171E21" d="M196.135,246.63c0.225,0.058,0.432,0.13,0.67,0.177c1.568,0.305,3.33,0.23,4.98-0.147
			c0.869-0.2,1.707-0.479,2.465-0.842c1.855-0.884,3.523-2.905,3.533-5.244c0-0.26-0.08-0.501-0.205-0.717
			c-0.16-0.276-0.4-0.507-0.703-0.642c-0.742-0.329-1.996-0.773-3.852-1.063c-2.295-0.359-5.604,0.368-7.385,0.84
			c-0.766,0.2-1.574-0.158-1.93-0.867c-0.912-1.821-2.4-5.53-2.285-10.076c1.049-0.358,3.84-1.632,3.443-4.876
			c3.176-1.359,6.975-1.415,10.162-1.02c2.627,0.326,3.689,1.214,4.117,1.939c0.238,1.038,0.332,2.13,0.238,3.25l-0.139,1.798
			c2.049-1.775,7.351-7.085,4.047-12.073c-2.307-3.479-5.684-3.255-8.162-2.42c-0.285-0.865-1.031-1.854-2.834-2.581
			c-3.41-1.375-6.938-0.79-14.537,4.351c-0.006,0.004-0.012,0.008-0.018,0.012s-0.01,0.007-0.016,0.011l0,0
			c-3.039,1.919-4.506,5.536-1.217,12.23c0.328-0.056,0.666-0.082,1.012-0.04c0.873,0.104,1.625,0.529,2.193,1.133
			c0.012,0.026,2.041,4.383-1.158,6.325c-0.002,0.001-0.004,0.003-0.006,0.004c0,0-0.063,4.663,2.996,7.908
			C192.633,245.15,194.117,246.109,196.135,246.63z"/>
	</g>
	<path fill="#222023" d="M442.365,426.877h-9.182c-13.754,0-24.904-11.149-24.904-24.904v-20.75h58.99v20.75
		C467.27,415.728,456.119,426.877,442.365,426.877"/>
	<path fill="#A59AA5" d="M466.322,404.05h-56.58c-10.352,0-18.742-8.391-18.742-18.741V317.11h94.064v68.198
		C485.064,395.659,476.674,404.05,466.322,404.05"/>
	<path fill="#C2B8C2" d="M485.363,357.228h-95.318c-6.258,0-11.333-5.072-11.333-11.331c0-6.258,5.074-11.333,11.333-11.333h95.318
		c6.258,0,11.33,5.075,11.33,11.333C496.693,352.155,491.621,357.228,485.363,357.228"/>
	<path fill="#DBD5DB" d="M428.242,357.228H408.28c-6.258,0-11.33-5.072-11.33-11.331c0-6.258,5.072-11.333,11.33-11.333h19.962
		c6.258,0,11.332,5.075,11.332,11.333C439.574,352.155,434.5,357.228,428.242,357.228"/>
	<path fill="#C2B8C2" d="M485.363,391.579h-95.318c-6.258,0-11.333-5.072-11.333-11.331c0-6.255,5.074-11.331,11.333-11.331h95.318
		c6.258,0,11.33,5.076,11.33,11.331C496.693,386.507,491.621,391.579,485.363,391.579"/>
	<path fill="#DBD5DB" d="M418.832,391.579h-1.143c-6.257,0-11.332-5.072-11.332-11.331c0-6.255,5.074-11.331,11.332-11.331h1.143
		c6.26,0,11.332,5.076,11.332,11.331C430.164,386.507,425.092,391.579,418.832,391.579"/>
	<path fill="#FDC72F" d="M571.861,161.284c0-68.285-59.893-123.639-133.773-123.639c-73.879,0-133.77,55.354-133.77,123.639
		c0,40.919,21.514,77.188,54.648,99.692l-0.008,0.005c0,0,15.535,8.54,17.262,31.702v16.639c0,7.808,6.85,14.136,15.295,14.136
		h93.328c8.445,0,15.293-6.328,15.293-14.136v-16.784c1.773-23.077,16.969-31.479,16.969-31.479l-0.008-0.005
		C550.299,238.556,571.861,202.25,571.861,161.284"/>
	<path fill="#FFD56C" d="M536.26,172.904c0,53.368-43.264,96.633-96.633,96.633c-53.371,0-96.633-43.265-96.633-96.633
		c0-53.369,43.262-96.635,96.633-96.635C492.996,76.27,536.26,119.535,536.26,172.904"/>
	<path fill="none" stroke="#FFFFFF" stroke-width="3.8381" stroke-miterlimit="10" d="M423.979,323.458V184.067
		c0-10.312-8.359-18.67-18.671-18.67c-10.311,0-18.672,8.358-18.672,18.67v10.435c0,10.312,8.362,18.672,18.672,18.672l32.236,0.085
		"/>
	<path fill="none" stroke="#FFFFFF" stroke-width="3.8381" stroke-miterlimit="10" d="M451.43,323.458V184.067
		c0-10.312,8.357-18.67,18.67-18.67s18.672,8.358,18.672,18.67v10.435c0,10.312-8.359,18.672-18.672,18.672l-34.711,0.085"/>
	
		<path fill="none" stroke="#FFFFFF" stroke-width="22.8686" stroke-linecap="round" stroke-linejoin="round" stroke-miterlimit="10" d="
		M358.357,102.724c8.826-10.826,19.773-19.854,32.208-26.453"/>
	
		<path fill="none" stroke="#FFFFFF" stroke-width="15.7215" stroke-linecap="round" stroke-linejoin="round" stroke-miterlimit="10" d="
		M337.029,190.372c-1.443-6.931-2.203-14.112-2.203-21.473"/>
	
		<path fill="none" stroke="#FFFFFF" stroke-width="15.7215" stroke-linecap="round" stroke-linejoin="round" stroke-miterlimit="10" d="
		M544.426,168.899c0,9.821-1.352,19.325-3.877,28.34"/>
	
		<line fill="none" stroke="#222021" stroke-width="1.725" stroke-miterlimit="10" x1="222.164" y1="457.247" x2="397.528" y2="457.247"/>
	<path fill="#9FDEFD" d="M758.865,273.512l-29.162,0.063c-1.939,0.002-3.514-1.567-3.516-3.505
		c-0.004-1.939,1.566-3.514,3.506-3.516l29.164-0.063c1.938-0.004,3.512,1.565,3.516,3.505
		C762.373,271.934,760.805,273.508,758.865,273.512"/>
	<path fill="#9FDEFD" d="M236.289,38.524l-59.641,0.061c-1.938,0.004-3.512-1.565-3.516-3.505c-0.004-1.938,1.566-3.512,3.506-3.516
		l59.643-0.064c1.938,0,3.512,1.571,3.514,3.507C239.799,36.946,238.229,38.521,236.289,38.524"/>
	<path fill="#9FDEFD" d="M696.904,46.714l-5.564,0.007c-1.463,0.004-2.65-1.18-2.652-2.644l-0.008-5.225
		c-0.002-1.462,1.182-2.65,2.645-2.65l5.566-0.007c1.461-0.003,2.65,1.18,2.652,2.644l0.006,5.225
		C699.553,45.524,698.367,46.714,696.904,46.714"/>
	<path fill="#9FDEFD" d="M130.85,265.473l-5.568,0.007c-1.461,0.004-2.648-1.182-2.65-2.644l-0.008-5.225
		c-0.004-1.462,1.184-2.65,2.645-2.652l5.566-0.008c1.463-0.002,2.652,1.183,2.652,2.645l0.006,5.226
		C133.496,264.283,132.311,265.471,130.85,265.473"/>
	<path fill="#FFFFFF" d="M267.447,210.231l-4.891,0.007c-1.283,0.001-2.326-1.039-2.328-2.324l-0.008-4.59
		c-0.002-1.285,1.037-2.328,2.324-2.328l4.889-0.007c1.285-0.004,2.328,1.037,2.33,2.321l0.006,4.592
		C269.773,209.186,268.73,210.229,267.447,210.231"/>
	<path fill="#FFFFFF" d="M452.361,14.573h-29.057c-1.908,0-3.455-1.547-3.455-3.456c0-1.91,1.547-3.457,3.455-3.457h29.057
		c1.908,0,3.457,1.547,3.457,3.457C455.818,13.026,454.27,14.573,452.361,14.573"/>
	<path fill="#FBA09F" d="M732.215,155.559h-27.662c-3.693,0-6.686-2.995-6.686-6.686c0-3.691,2.992-6.688,6.686-6.688h27.662
		c3.693,0,6.686,2.997,6.686,6.688C738.9,152.563,735.908,155.559,732.215,155.559"/>
	<path fill="#FFFFFF" d="M712.756,148.891c0.002,0.944-0.76,1.711-1.705,1.715c-0.945,0.003-1.713-0.76-1.715-1.705
		c-0.004-0.945,0.76-1.712,1.705-1.715C711.984,147.182,712.754,147.945,712.756,148.891"/>
	<path fill="#FFFFFF" d="M720.094,148.868c0.004,0.945-0.762,1.712-1.703,1.715c-0.947,0.004-1.715-0.76-1.719-1.705
		c-0.002-0.944,0.762-1.713,1.707-1.717C719.324,147.16,720.092,147.923,720.094,148.868"/>
	<path fill="#FFFFFF" d="M727.432,148.845c0.004,0.944-0.762,1.713-1.705,1.717c-0.945,0.003-1.713-0.762-1.717-1.707
		c-0.002-0.945,0.762-1.713,1.707-1.713C726.66,147.138,727.428,147.899,727.432,148.845"/>
	<path fill="#005FEA" d="M239.041,121.011c0,13.56-10.99,24.55-24.551,24.55c-13.559,0-24.551-10.99-24.551-24.55
		s10.992-24.549,24.551-24.549C228.051,96.462,239.041,107.451,239.041,121.011"/>
	<path fill="#FFFFFF" d="M222.835,114.694c-2.01-1.969-5.232-1.935-7.199,0.075l-1.296,1.325l-1.336-1.313
		c-2.002-1.974-5.227-1.948-7.203,0.056c-1.973,2.003-1.947,5.226,0.057,7.201l4.955,4.878c0.012,0.011,0.018,0.024,0.027,0.034
		c0.791,0.773,1.77,1.237,2.787,1.394c1.564,0.24,3.22-0.251,4.416-1.468l4.871-4.978
		C224.879,119.886,224.848,116.663,222.835,114.694"/>
	<path fill="#1FA5F8" d="M627.279,70.068h-46.654c-4.129,0-7.475-3.346-7.475-7.473V22.6c0-3.221,2.611-5.832,5.832-5.832h48.297
		c3.221,0,5.832,2.611,5.832,5.832v41.637C633.111,67.457,630.5,70.068,627.279,70.068"/>
	<path fill="#FAFAFA" d="M598.18,54.914c5.088,0.085,10.236,0.156,14.916-0.168c1.48-0.103,2.76-2.453,0.961-3.198
		c0.756-0.387,1.523-0.761,1.857-1.611c0.311-0.802-0.066-1.894-0.904-2.099c1.766,0.437,2.461-2.365,1.086-3.268
		c0.727-0.62,1.334-1.441,1.486-2.385c0.154-0.945-0.232-2.009-1.072-2.468c-0.551-0.3-1.207-0.313-1.834-0.316
		c-2.115-0.018-4.23-0.032-6.346-0.048c0.572-3.312,0.744-6.918-0.938-9.825c-0.506-0.877-1.867-1.926-2.949-1.253
		c-1.012,0.633-0.732,2.201-0.682,3.192c0.213,4.119-2.131,8.26-5.768,10.201C597.994,41.669,598.234,50.44,598.18,54.914"/>
	<rect x="588.648" y="41.667" fill="#FAFAFA" width="7.688" height="13.233"/>
	<g>
		<polygon fill="#E0895A" points="633.012,354.462 634.107,335.177 644.457,336.54 642.42,356.796 632.52,355.04 		"/>
		<path d="M643.863,351.866c0,0-6.969,3.59-10.84-1.749l-18.783,10.097l32.178-0.204L643.863,351.866z"/>
		
			<rect x="614.252" y="360.112" transform="matrix(-1 0.0063 -0.0063 -1 1262.9604 719.1281)" fill="#A59AA5" width="32.176" height="2.91"/>
	</g>
	<path fill="#1FA5F8" d="M654.078,427.591c-0.982,0-1.906-0.606-2.26-1.582l-65.494-179.84l-65.496,179.84
		c-0.455,1.249-1.838,1.89-3.084,1.436c-1.248-0.453-1.893-1.836-1.438-3.083l67.756-186.049c0.346-0.95,1.248-1.582,2.262-1.582
		c1.012,0,1.914,0.632,2.26,1.582l67.756,186.049c0.455,1.247-0.188,2.63-1.438,3.083
		C654.629,427.543,654.352,427.591,654.078,427.591"/>
	
		<line fill="none" stroke="#0759AA" stroke-width="1.3055" stroke-miterlimit="10" x1="205.637" y1="324.346" x2="197.797" y2="328.626"/>
	
		<line fill="none" stroke="#ED8E8E" stroke-width="1.3055" stroke-miterlimit="10" x1="212.848" y1="275.578" x2="212.848" y2="264.752"/>
	<polyline fill="none" stroke="#ED8E8E" stroke-width="1.3055" stroke-miterlimit="10" points="179.33,277.809 181.83,277.067 
		182.303,265.929 	"/>
	
		<line fill="none" stroke="#EFA987" stroke-width="0.8407" stroke-miterlimit="10" x1="178.789" y1="284.389" x2="174.313" y2="287.232"/>
	
		<line fill="none" stroke="#0759AA" stroke-width="1.3055" stroke-miterlimit="10" x1="307.355" y1="374.787" x2="291.01" y2="353.723"/>
	<path fill="#1FA5F8" d="M385.508,309.977h-37.891c-4.754,0-8.607-3.854-8.607-8.608v-37.177c0-4.755,3.854-8.608,8.607-8.608
		h37.891c4.754,0,8.608,3.854,8.608,8.608v37.177C394.116,306.123,390.262,309.977,385.508,309.977"/>
	<path fill="#FFFFFF" d="M377.057,280.717l-1.74-0.304c-0.203-0.759-0.506-1.487-0.898-2.168l1.016-1.446
		c0.373-0.53,0.309-1.255-0.15-1.714l-1.041-1.041c-0.467-0.451-1.188-0.502-1.713-0.121l-1.447,1.013
		c-0.68-0.393-1.408-0.693-2.168-0.897l-0.299-1.779c-0.109-0.631-0.65-1.097-1.291-1.108h-1.502
		c-0.652-0.002-1.209,0.468-1.32,1.108l-0.305,1.735c-0.758,0.204-1.486,0.505-2.166,0.897l-1.441-0.969
		c-0.531-0.374-1.254-0.312-1.713,0.149l-1.041,1.042c-0.461,0.459-0.523,1.182-0.15,1.712l1.014,1.446
		c-0.391,0.682-0.693,1.409-0.898,2.168l-1.734,0.306c-0.643,0.11-1.109,0.668-1.109,1.319v1.474c0,0.65,0.467,1.208,1.109,1.319
		l1.734,0.306c0.205,0.758,0.506,1.485,0.898,2.165l-1.014,1.448c-0.373,0.53-0.311,1.253,0.15,1.712l1.041,1.042
		c0.459,0.459,1.182,0.523,1.713,0.149l1.445-1.015c0.682,0.393,1.41,0.695,2.168,0.899l0.305,1.734
		c0.111,0.643,0.67,1.109,1.32,1.107h1.496c0.65,0.002,1.209-0.465,1.318-1.107l0.307-1.734c0.758-0.204,1.484-0.507,2.166-0.899
		l1.414,0.993c0.531,0.374,1.254,0.31,1.713-0.149l1.041-1.042c0.459-0.459,0.523-1.182,0.15-1.712l-1.016-1.459
		c0.393-0.68,0.695-1.409,0.898-2.167l1.74-0.303c0.643-0.113,1.111-0.67,1.109-1.32v-1.476
		C378.164,281.382,377.695,280.827,377.057,280.717 M366.559,286.748c-2.197,0-3.979-1.781-3.979-3.979
		c0-2.197,1.781-3.979,3.979-3.979s3.98,1.782,3.98,3.979v0.022C370.525,284.98,368.748,286.748,366.559,286.748"/>
	<polyline fill="none" stroke="#EAAE28" stroke-width="1.3055" stroke-miterlimit="10" points="306.574,314.05 301.928,318.34 
		294.668,309.056 	"/>
	
		<line fill="none" stroke="#EAAE28" stroke-width="1.3055" stroke-miterlimit="10" x1="315.273" y1="305.159" x2="308.313" y2="296.818"/>
	<g>
		<path fill="none" d="M670.617,214.424l-1.279,0.479l0.424,8.107c-0.02,1.065-0.189,2.006-0.438,2.838l2.775,0.289l3.377-2.44
			L670.617,214.424z"/>
		<path fill="#E0895A" d="M659.826,350.245l0.236-0.128c2.773,3.827,7.127,3.066,9.379,2.328l-0.033-8.755l-9.943-0.262
			L659.826,350.245z"/>
		<path d="M660.063,350.117l-0.236,0.128l-18.551,9.969l32.178-0.204l-2.553-8.144c0,0-0.57,0.288-1.459,0.579
			C667.189,353.184,662.836,353.944,660.063,350.117z"/>
		
			<rect x="641.287" y="360.112" transform="matrix(-1 0.0063 -0.0063 -1 1317.0303 718.9567)" fill="#A59AA5" width="32.176" height="2.91"/>
		<path fill="#FAC030" d="M653.697,246.889c-6.416-0.805-7.016-5.843-4.16-6.946l-12.615-1.314
			c-1.521,5.341-2.781,12.703-3.146,22.823c-1.107,30.645-3.02,82.118-3.02,82.118h15.658l5.445-67.551l3.293,67.297l4.313,0.113
			l9.943,0.262l3.541,0.093l0.459-84.564c0.486-6.711-0.367-12.401-1.674-16.965l-9.813-1.022
			C660.994,243.01,658.203,247.455,653.697,246.889z"/>
		<path fill="#E0895A" d="M610.502,200.699l-20.389-14.794c-0.174-2.41-1.771-4.591-4.213-5.381
			c-0.104-0.033-0.207-0.056-0.311-0.084l0.004-0.006l-5.637-3.475c-0.457-0.325-1.109-0.228-1.439,0.214
			c-0.287,0.381-0.236,0.901,0.117,1.228l2.738,2.431c-1.457,0.699-2.639,1.966-3.176,3.624c-1.043,3.213,0.721,6.662,3.932,7.704
			c1.623,0.525,3.307,0.335,4.709-0.395l19.107,18.154c0.68,0.646,1.473,1.073,2.303,1.303c0.311,0.104,0.672,0.168,1.088,0.189
			c0.01,0.001,0.02,0.002,0.027,0.002c0.131,0.006,0.27,0.006,0.412,0.004c0.096-0.001,0.193-0.003,0.289-0.009
			c0.285-0.017,0.586-0.044,0.914-0.096c3.477-0.544,7.764-1.828,11.67-3.177l-5.723-9.811L610.502,200.699z"/>
		<path fill="#1FA5F8" d="M669.762,223.011l-0.424-8.107l1.279-0.479l11.537-4.324l4.008-1.502c0,0-6.658-9.791-10.506-15.836
			c-2.127-3.342-6.594-4.624-9.088-5.095c-0.15-0.05-0.305-0.09-0.469-0.105l-0.359-0.034c-0.59-0.087-0.959-0.117-0.959-0.117
			l0.002,0.026l-5.592-0.531c-0.049,0.268-1.473,7.614-9.457,8.097c-8.129,0.49-8.172-6.718-8.172-6.732l-6.117,1.12l-0.002,0.009
			c-0.713,0.141-1.49,0.367-2.35,0.729c-6.088,2.56-17.268,6.316-17.268,6.316l1.1,1.883l5.723,9.811l2.867,4.918l9.855-3.7
			c0.16,4.479,0.475,9.078,1.045,13.067l32.908,3.427C669.572,225.017,669.742,224.076,669.762,223.011z"/>
		<path fill="#005FEA" d="M709.338,230.016l-20.877-2.174c-0.559,1.374-1.623,2.559-3.137,3.214l-23.375,10.126
			c-0.008,0.016-0.02,0.035-0.027,0.05l9.813,1.022l36.004,3.749c1.775,0.177,3.357-1.117,3.535-2.892l0.955-9.562
			C712.404,231.775,711.109,230.192,709.338,230.016z"/>
		<path fill="#005FEA" d="M649.615,239.905l4.377,0.326c0,0,0.02-0.605,0.307-1.374l-2.449-0.205
			c-0.443-0.039-0.783-0.413-0.783-0.858c0-0.406,0.281-0.758,0.68-0.843l6.037-1.093v0.002c0.334-0.08,0.701-0.136,1.098-0.169
			l13.219-9.554l-2.775-0.289l-32.908-3.427l-6.418-0.668c-1.773-0.177-3.355,1.119-3.531,2.892l-0.957,9.562
			c-0.178,1.775,1.117,3.357,2.893,3.534l8.52,0.887l12.615,1.314C649.564,239.932,649.586,239.915,649.615,239.905z"/>
		<path fill="#E0895A" d="M675.477,223.697l-3.377,2.44l-13.219,9.554c-0.396,0.033-0.764,0.089-1.098,0.169v-0.002l-6.037,1.093
			c-0.398,0.085-0.68,0.437-0.68,0.843c0,0.445,0.34,0.819,0.783,0.858l2.449,0.205c-0.287,0.769-0.307,1.374-0.307,1.374
			l-4.377-0.326c-0.029,0.01-0.051,0.026-0.078,0.037c-2.855,1.104-2.256,6.142,4.16,6.946c4.506,0.566,7.297-3.879,8.225-5.657
			c0.008-0.015,0.02-0.034,0.027-0.05l23.375-10.126c1.514-0.655,2.578-1.84,3.137-3.214c0.492-1.21,0.586-2.565,0.227-3.85
			c0.066-0.113,0.109-0.188,0.109-0.188l-6.643-13.705l-11.537,4.324L675.477,223.697z"/>
		<path fill="#201C30" d="M638.479,173.805l-0.023-0.517c-1.133-0.565-1.957-1.679-2.072-3.03c-0.123-1.457,0.613-2.777,1.777-3.496
			l-0.102-2.238c-0.029-0.571,0-1.132,0.072-1.68c2.777-1.252,4.615-2.715,5.824-4.049c2.006,3.188,6.758,4.826,8.842,6.049
			c1.381,0.81,2.17,2.024,2.619,3.054c0.619-0.762,1.531-1.283,2.588-1.373c2.063-0.175,3.877,1.358,4.051,3.422
			s-1.357,3.879-3.42,4.053c-0.541,0.045-1.061-0.031-1.543-0.198c-0.525,1.93-1.602,3.606-3.066,4.893l0.674,5.296
			c3.191,1.585,7.648,2.657,12.021-0.111c6.857-4.341,5.842-12.936,2.299-15.302c-2.877-1.926-3.869-5.056-4.145-6.194
			c-0.104-1.569-0.459-3.052-1.117-4.336c-5.578-10.86-21.971-3.803-21.971-3.803l0.006,0.002c-0.311,0.115-0.6,0.288-0.846,0.517
			c-3.428,3.193-3.65,5.854-3.445,7.23l-0.604,1.542c0,0-2.156,3.481-4.004,5.04c-3.451,2.905-4.559,10.963,2.301,15.304
			c3.586,2.271,7.232,1.955,10.189,0.894l-0.291-3.678C641.422,180.152,638.645,177.048,638.479,173.805z"/>
		<path fill="#CC6E44" d="M636.383,170.258c0.115,1.352,0.939,2.465,2.072,3.03l-0.295-6.526
			C636.996,167.48,636.26,168.801,636.383,170.258z"/>
		<path fill="#CC6E44" d="M651.941,180.109c-1.318,0.692-2.807,1.144-4.41,1.278c-0.842,0.015-1.658-0.094-2.438-0.294l0.291,3.678
			l0.096,1.222l0.012-0.01L651.941,180.109z"/>
		<path fill="#E0895A" d="M649.734,195.002c7.984-0.482,9.408-7.829,9.457-8.097c0.002-0.005,0.006-0.025,0.006-0.025l-4.189-0.448
			l-0.309-2.442l-0.674-5.296c1.465-1.286,2.541-2.963,3.066-4.893c0.482,0.167,1.002,0.243,1.543,0.198
			c2.063-0.174,3.594-1.989,3.42-4.053s-1.988-3.597-4.051-3.422c-1.057,0.09-1.969,0.611-2.588,1.373
			c-0.449-1.029-1.238-2.244-2.619-3.054c-2.084-1.223-6.836-2.861-8.842-6.049c-1.209,1.334-3.047,2.797-5.824,4.049
			c-0.072,0.548-0.102,1.108-0.072,1.68l0.102,2.238l0.295,6.526l0.023,0.517c0.166,3.243,2.943,6.348,6.615,7.289
			c0.779,0.2,1.596,0.309,2.438,0.294c1.604-0.135,3.092-0.586,4.41-1.278l-6.449,5.874l0.109,1.4l-4.039,0.885v0.001
			C641.563,188.284,641.605,195.492,649.734,195.002z"/>
	</g>
	<polyline fill="none" stroke="#EAAE28" stroke-width="1.3055" stroke-miterlimit="10" points="651.768,278.205 650.768,253.696 
		644.037,244.34 	"/>
	
		<line fill="none" stroke="#1C96D3" stroke-width="1.3055" stroke-miterlimit="10" x1="634.605" y1="208.878" x2="633.773" y2="199.496"/>
	
		<line fill="none" stroke="#1C96D3" stroke-width="1.3055" stroke-miterlimit="10" x1="668.871" y1="215.077" x2="661.383" y2="202.199"/>
</g>
</svg>
