<?xml version="1.0" encoding="utf-8"?>
<!-- Generator: Adobe Illustrator 15.1.0, SVG Export Plug-In . SVG Version: 6.00 Build 0)  -->
<!DOCTYPE svg PUBLIC "-//W3C//DTD SVG 1.1//EN" "http://www.w3.org/Graphics/SVG/1.1/DTD/svg11.dtd">
<svg version="1.1" id="圖層_1" xmlns="http://www.w3.org/2000/svg" xmlns:xlink="http://www.w3.org/1999/xlink" x="0px" y="0px"
	 width="530.496px" height="545.385px" viewBox="0 0 530.496 545.385" enable-background="new 0 0 530.496 545.385"
	 xml:space="preserve">
<path fill="#EEF6F9" d="M174.387,540.827c88.119,15.189,347.541-12.447,347.541-12.447c4.742,0,8.568-3.844,8.568-8.568V9.585
	c0-2.069-0.729-3.954-1.957-5.439V4.131c-3.568-1.399-7.254-2.428-10.967-3.113c-7.539-1.385-15.25-1.328-22.762,0
	c-19.15,3.399-36.9,15.151-46.682,32.602c-19.578,34.93-10.51,79.024-32.828,113.04c-62.092,94.633-169.648,4.874-244.207,9.559
	C93.342,161.115,20.971,237.036,6.521,307.665C-16.428,419.877,16.992,513.692,174.387,540.827z"/>
<path fill="#70EFE6" d="M468.137,317.049c0.242-2.277,1.326-4.375,2.518-6.33c5.26-8.631,13.268-16.561,13.449-26.666
	c0.205-11.46-12.32-21.247-23.389-18.279c-8.322,2.231-14.043,9.888-17.66,17.705c-2.205,4.763-5.676,10.796-10.789,9.616
	c-2.875-0.663-4.684-3.503-7.291-4.883c-4.852-2.57-11.137,0.846-13.629,5.742c-2.488,4.893-2.227,10.674-1.902,16.157
	c0.309,5.295,0.621,10.592,0.932,15.887c0.242,4.148,0.166,9.023-3.166,11.502c-2.555,1.9-6.072,1.609-9.125,2.506
	c-7.334,2.152-10.84,11.465-8.455,18.729c1.406,4.279,4.332,7.869,6.406,11.867c2.076,3.998,3.244,8.998,1.004,12.906
	c-2.68,4.674-9.035,5.893-12.467,10.045c-4.115,4.979-2.693,12.732,1.1,17.965c3.791,5.23,9.418,8.764,14.332,12.961
	c3.32,2.84,6.451,6.293,8.17,10.229c2.148-7.08,6.01-13.268,13.309-17.178c8.529-4.568,19.035-4.164,27.297-9.246
	c10.086-6.207,4.109-16.682,2.162-25.525c-0.305-1.371-0.484-2.684-0.563-3.945c-0.133-0.592-0.24-1.189-0.287-1.801
	c-0.641-8.303,7.148-14.498,14.018-19.203c6.869-4.703,14.477-11.318,13.25-19.553C476.201,330.497,467.307,324.85,468.137,317.049"
	/>
<path fill="#4AA9FF" d="M472.822,268.854c-8.102,9.19-14.355,20.445-20.518,31.071c-0.557-1.656-1.23-3.295-1.643-4.982
	c-0.762-3.124-0.953-6.298-1.377-9.47c-0.117-0.881-1.271-0.893-1.379,0c-0.59,4.92,0.252,12.153,3.076,16.735
	c-3.957,6.783-7.756,13.656-11.451,20.586c-1.244-3.055-2.707-6.053-3.688-9.207c-1.486-4.773-2.045-9.785-3.576-14.516
	c-0.189-0.584-1.025-0.467-1.059,0.143c-0.299,5.281,1.332,10.83,2.941,15.811c1.082,3.35,2.262,7.072,4.064,10.252
	c-1.963,3.713-3.9,7.438-5.805,11.18c-6.146-11.844-10.885-23.178-12.285-36.754c-0.084-0.801-1.297-0.84-1.279,0
	c0.262,13.279,4.182,27.902,12.715,38.416c-2.271,4.48-4.49,8.986-6.689,13.502c-2.049-2.088-4.129-8.65-4.738-10.041
	c-1.867-4.277-3.707-8.564-5.463-12.891c-0.242-0.596-1.213-0.363-0.992,0.275c2.07,5.988,4.295,11.898,6.77,17.732
	c0.799,1.883,1.582,5.465,3.496,6.83c-2.201,4.545-4.375,9.102-6.521,13.672c-0.027-0.031-0.035-0.063-0.068-0.092
	c-6.135-5.92-7.523-15.01-11.477-22.338c-0.52-0.961-2.02-0.301-1.742,0.732c1.359,5.057,3.457,10.045,5.479,14.867
	c1.408,3.355,3.076,6.742,6.555,8.273c0.182,0.08,0.365,0.09,0.543,0.07c-0.848,1.813-1.701,3.623-2.545,5.439
	c-1.328,2.863-2.713,5.732-4.102,8.611c-3.488-6.945-7.482-13.402-10.148-20.891c-0.258-0.719-1.389-0.43-1.16,0.32
	c2.303,7.613,5.305,16.322,10.221,22.83c-4.141,8.586-8.268,17.279-11.24,26.191c-0.445,1.34,1.555,2.135,2.248,0.949
	c4.779-8.189,8.59-17.088,12.432-25.887c9.266,1.822,19.576,1.676,28.391-1.549c0.975-0.357,0.592-1.727-0.426-1.549
	c-9.463,1.654-18.041,2.617-27.416,1.842c1.35-3.084,2.709-6.148,4.123-9.162c0.943-2.016,1.898-4.027,2.852-6.037
	c7.998,0.805,16.078,0.553,23.914-1.383c1.232-0.307,0.684-2.049-0.512-1.863c-7.617,1.182-15.082,1.973-22.746,1.857
	c2.281-4.807,4.598-9.6,6.943-14.379c8.518-0.25,18.125-1.428,26.088-3.873c0.834-0.258,0.723-1.627-0.213-1.578
	c-8.123,0.42-16.811,1.857-24.93,3.525c2.041-4.139,4.1-8.27,6.197-12.377c0.146-0.287,0.297-0.57,0.445-0.857
	c11.736,0.883,25.08-0.428,35.205-6.461c0.863-0.514,0.299-1.896-0.684-1.627c-5.9,1.613-11.494,3.865-17.543,5.01
	c-5.328,1.01-10.742,1.48-16.16,1.496c1.553-3.012,3.125-6.014,4.715-9.008c0.322-0.074,0.6-0.42,0.508-0.775
	c-0.006-0.02-0.014-0.043-0.02-0.064c7.605-0.063,15.209-2.029,21.529-6.371c0.979-0.676,0.133-2.156-0.938-1.604
	c-6.395,3.287-12.674,5.512-19.691,6.215c3.662-6.832,7.422-13.615,11.32-20.318c0.48-0.824,0.98-1.643,1.475-2.461
	c6.211-0.023,12.695-2.049,17.555-5.879c0.711-0.561-0.195-1.637-0.941-1.221c-5.191,2.895-10.029,4.778-15.732,5.627
	c6.336-10.351,13.502-20.325,19.164-31.002C475.561,269.184,473.854,267.684,472.822,268.854"/>
<path fill="#4AA9FF" d="M456.229,230.232c-4.412-0.627-8.84,1.998-13.141,2.528c-3.756,0.466-10.635,1.991-14.484,1.709
	c2.775-5.61,5.576-11.222,8.32-16.882c3.271,2.424,7.371,3.519,11.471,3.336c3.748-0.165,9.609-1.469,11.787-4.927
	c0.385-0.609,0.58-1.182,0.635-1.707c0.088-0.392,0.031-0.811-0.143-1.188c-0.531-1.437-2.318-2.303-4.227-2.281
	c-6.045,0.066-11.643,2.614-17.674,2.926c0.867-1.823,1.725-3.649,2.574-5.486c0.998-2.16-1.936-3.975-3.236-1.891
	c-1.076,1.728-2.146,3.477-3.207,5.236c-3.342-7.586-0.449-16.438-4.564-23.922c-0.582-1.06-2.26-0.814-2.563,0.335
	c-2.398,9.078-1.508,20.048,4.877,27.386c-3.309,5.637-6.51,11.42-9.551,17.322c-3.436-7.964,1.719-18.491,0.377-26.797
	c-0.396-2.46-1.516-6.496-4.9-5.217c-4.041,1.529-3.066,12.229-2.871,15.243c0.465,7.085,2.525,13.678,5.813,19.895
	c-3.74,7.451-7.217,15.072-10.318,22.805c-1.199-4.386-1.791-8.712-1.711-13.399c0.092-5.379,1.672-11.436,0.801-16.746
	c-0.488-2.988-2.105-5.447-5.047-3.146c-4.494,3.515-2.693,13.53-2.176,18.193c0.77,6.959,2.596,13.492,6.508,19.259
	c-2.557,6.69-4.832,13.451-6.746,20.247c-2.068-5.96-3.359-11.994-4.217-18.332c-0.744-5.513-1.668-10.662-4.535-15.514
	c-0.549-0.93-2.178-1.092-2.682,0c-5.369,11.627,2.633,29.376,9.969,39.333c-0.447,1.77-0.875,3.542-1.268,5.314
	c-1.725,7.74-2.793,15.503-3.383,23.281c-2.416-6.414-4.184-12.967-5.781-19.741c-1.264-5.355-1.531-12.588-6.918-15.445
	c-0.881-0.467-2.117-0.09-2.361,0.96c-3.561,15.207,8.889,31.074,14.553,45.001c-0.439,21.969,2.596,43.992,6.191,65.783
	c0.234,1.436,2.756,1.115,2.563-0.346c-2.975-22.691-5.693-45.721-4.5-68.541c0.064-0.039,0.131-0.07,0.195-0.121
	c0.133-0.098,0.258-0.203,0.389-0.299v-0.002c0.025-0.018,0.045-0.035,0.068-0.051c7.365-1.883,14.045-6.41,19.578-11.492
	c3.297-3.029,12.637-11.1,10.898-16.43c-2.051-6.291-8.188-0.001-10.42,2.12c-6.971,6.625-13.744,13.428-20.311,20.443
	c0.693-8.42,1.961-16.809,3.996-25.134c0.369-1.509,0.773-3,1.18-4.489c11.881,0.416,29.74-3.504,33.697-15.659
	c0.316-0.978-0.553-2.203-1.615-2.118c-5.16,0.42-8.959,2.737-13.145,5.649c-5.598,3.891-11.285,6.723-17.816,8.23
	c2.096-7.018,4.58-13.837,7.336-20.529c6.693,1.743,13.775,1.064,20.549-0.448c3.646-0.816,13.123-3.76,12.518-9.103
	c-0.4-3.554-5.051-3.812-7.848-3.295c-8.381,1.551-15.162,7.625-23.557,8.869c3.408-7.936,7.145-15.72,10.969-23.485
	c0.18,0.037,0.346,0.062,0.52,0.091c6.486,2.643,13.547,4.2,20.51,4.624c4.291,0.262,11.779-1.408,13.549-6.08
	C463.051,232.553,459.15,230.646,456.229,230.232 M420.871,206.641c-0.01-0.169-0.01-0.34-0.012-0.51
	c0.076,0.125,0.145,0.253,0.211,0.382C421,206.547,420.936,206.592,420.871,206.641"/>
<g opacity="0.43">
	<g>
		<defs>
			<rect id="SVGID_1_" x="59.789" y="457.35" width="193.268" height="45.941"/>
		</defs>
		<clipPath id="SVGID_2_">
			<use xlink:href="#SVGID_1_"  overflow="visible"/>
		</clipPath>
		<path clip-path="url(#SVGID_2_)" fill="#4AA9FF" d="M253.057,480.321c0,12.688-43.264,22.971-96.633,22.971
			c-53.371,0-96.635-10.283-96.635-22.971c0-12.686,43.264-22.971,96.635-22.971C209.793,457.35,253.057,467.635,253.057,480.321"/>
	</g>
</g>
<g opacity="0.43">
	<g>
		<defs>
			<rect id="SVGID_3_" x="257.26" y="437.184" width="193.061" height="49.301"/>
		</defs>
		<clipPath id="SVGID_4_">
			<use xlink:href="#SVGID_3_"  overflow="visible"/>
		</clipPath>
		<path clip-path="url(#SVGID_4_)" fill="#4AA9FF" d="M450.32,461.834c0,13.615-43.217,24.65-96.531,24.65
			c-53.313,0-96.529-11.035-96.529-24.65c0-13.613,43.217-24.65,96.529-24.65C407.104,437.184,450.32,448.221,450.32,461.834"/>
	</g>
</g>
<path fill="#4AA9FF" d="M128.393,287.425c4.713-10.967,18.303-17.161,17.133-30.65c-0.158-1.83-2.338-2.444-3.4-0.921
	c-4.701,6.751-9.014,13.675-12.879,20.908c0.105-3.592,0.027-7.209-0.361-10.864c-0.359-3.395-0.861-6.765-1.441-10.119
	c3.41-11.987,16.27-19.556,15.668-32.908c-0.051-1.121-1.377-2.154-2.436-1.397c-4.547,3.244-5.172,8.815-7.768,13.505
	c-2.402,4.331-5.166,8.3-6.994,12.782c-1.047-5.034-2.217-10.046-3.357-15.061c0-0.006,0.006-0.009,0.006-0.014
	c0.264-1.358,0.541-2.694,0.852-4.01c0.15-0.177,0.273-0.389,0.313-0.68c0.063-0.438,0.133-0.872,0.197-1.308
	c1.07-3.882,2.619-7.524,5.494-10.739c2.547-2.849,5.637-5.108,7.869-8.246c1.652-2.323,5.449-9.316,1.463-11.424
	c-4.248-2.251-9.066,5.253-10.748,7.799c-4.002,6.055-6.641,13.089-7.279,20.326c-2.174-10.257-3.891-20.585-3.865-31.2
	c0.004-2.309-3.516-2.301-3.582,0c-0.242,8.089,0.621,16.005,1.988,23.849c-2.732-3.33-5.535-6.604-8.305-9.904
	c-2.785-3.313-5.307-7.784-10.09-7.572c-0.969,0.042-1.803,0.791-1.801,1.802c0.018,5.188,2.104,9.938,6.443,12.961
	c1.74,1.213,3.561,2.082,5.334,3.054c0.721,0.569,1.484,1.035,2.273,1.367c0.746,0.506,1.477,1.063,2.172,1.726
	c2.816,2.678,4.416,5.905,6.424,9.146c0.033,0.056,0.078,0.087,0.117,0.134c1.244,5.58,2.572,11.148,3.783,16.74
	c-5.666-3.421-10.754-7.748-14.619-13.174c-2.852-4.003-4.598-7.926-10.031-8.151c-0.904-0.036-1.518,0.759-1.582,1.584
	c-0.525,6.438,4.611,12.379,9.104,16.485c2.391,2.182,5.029,3.942,8.014,5.211c3.916,1.665,8.074,2.347,10.713,5.943
	c0.783,4.223,1.449,8.465,1.883,12.749c0.555,5.474,0.504,10.808,0.072,16.096c-3.576-9.604-8.822-18.359-15.287-26.396
	c-0.811-1.01-2.184-0.26-2.572,0.678c-2.145,5.201,1.15,11.261,3.926,15.689c1.99,3.177,4.668,5.849,7.098,8.622
	c1.656,2.642,3.344,5.273,5.039,7.937c0.064,0.099,0.135,0.186,0.207,0.267c0.227,0.642,0.402,1.311,0.543,2.001
	c-0.721,4.724-1.662,9.449-2.68,14.234c-2.357,11.086-4.867,22.918-2.1,34.145c0.322,1.305,2.432,1.053,2.367-0.318
	C120.857,322.11,126.207,304.963,128.393,287.425 M140.061,265.881c0.02-0.029,0.037-0.062,0.055-0.091
	c-0.018,0.033-0.035,0.068-0.055,0.104V265.881"/>
<path fill="#70EFE6" d="M122.574,398.012c0,0-96.844-66.32-70.457-170.535C52.117,227.478,134.531,269.381,122.574,398.012"/>
<path fill="#4AA9FF" d="M103.943,302.084c0.365-0.699,0.094-1.561-0.605-1.926s-1.561-0.094-1.926,0.605l-9.754,18.684l-11.57-28.01
	c0.014-0.034,0.041-0.061,0.051-0.099c0.178-0.146,0.334-0.323,0.424-0.554c0.131-0.336,0.115-0.688,0-1.006l7.234-27.185
	c0.203-0.761-0.25-1.545-1.012-1.747c-0.764-0.205-1.547,0.251-1.75,1.014l-6.723,25.277l-24.877-60.207
	c-0.301-0.729-1.135-1.075-1.863-0.774c-0.729,0.302-1.076,1.137-0.775,1.864l24.428,59.124l-17.961-7.078
	c-0.732-0.289-1.563,0.07-1.852,0.804c-0.291,0.734,0.07,1.563,0.805,1.853l20.521,8.09l12.193,29.513l-21.455-9.762
	c-0.723-0.326-1.568-0.01-1.893,0.707c-0.324,0.721-0.01,1.566,0.707,1.893l23.346,10.619c0.023,0.49,0.275,0.959,0.744,1.201
	c0.17,0.09,0.354,0.127,0.535,0.143l9.25,22.391l-18.998-6.166c-0.752-0.244-1.557,0.166-1.799,0.916
	c-0.246,0.752,0.166,1.559,0.918,1.801l20.342,6.602c0.135,0.338,0.396,0.627,0.756,0.783c0.146,0.064,0.297,0.082,0.447,0.094
	l19.422,47.01c0.303,0.73,1.137,1.078,1.865,0.775c0.729-0.301,1.076-1.137,0.773-1.863l-19.953-48.293l8.666-19.803
	c0.316-0.721-0.012-1.564-0.736-1.881c-0.719-0.314-1.561,0.014-1.879,0.736l-7.563,17.281l-9.346-22.619L103.943,302.084z"/>
<path fill="#FFCE00" d="M242.17,449.274v15.99c0,6.031-6.299,11.609-16.926,16.09c-3.463,1.463-7.373,2.799-11.68,4.01
	c-3.748,1.063-7.785,2.014-12.08,2.848c-4.539,0.867-9.361,1.623-14.41,2.217c-3.154,0.377-6.412,0.697-9.74,0.961
	c-6.514,0.502-13.313,0.766-20.318,0.766c-1.279,0-2.549-0.014-3.818-0.023c-25.541-0.355-48.158-4.262-63.016-10.205
	c-7.35-2.928-12.799-6.367-15.77-10.104l-0.014-0.012c-1.656-2.104-2.537-4.285-2.537-6.547v-15.99
	c0-14.846,38.115-26.879,85.154-26.879C204.043,422.395,242.17,434.428,242.17,449.274"/>
<path fill="#FFF980" d="M156.33,421.229c-47.029,0-85.152,11.863-85.152,26.492c0,14.639,38.123,26.5,85.152,26.5
	s85.152-11.861,85.152-26.5C241.482,433.092,203.359,421.229,156.33,421.229 M156.33,471.102c-42.148,0-76.32-10.811-76.32-24.16
	c0-13.348,34.172-24.158,76.32-24.158s76.32,10.811,76.32,24.158C232.65,460.292,198.479,471.102,156.33,471.102"/>
<path fill="#F9C33D" d="M232.65,446.942c0,13.35-34.172,24.16-76.32,24.16s-76.32-10.811-76.32-24.16
	c0-13.348,34.172-24.16,76.32-24.16S232.65,433.594,232.65,446.942"/>
<path fill="#F9C33D" d="M232.65,446.942c0,13.35-34.172,24.16-76.32,24.16s-76.32-10.811-76.32-24.16
	c0-13.348,34.172-24.16,76.32-24.16S232.65,433.594,232.65,446.942"/>
<path fill="#FFF980" d="M177.336,471.856v19.531c-6.514,0.504-13.314,0.768-20.32,0.768c-1.279,0-2.549-0.012-3.818-0.023v-18.709
	L177.336,471.856z"/>
<path fill="#FFF980" d="M201.484,467.959v20.252c-4.537,0.867-9.361,1.623-14.412,2.217v-20.904L201.484,467.959z"/>
<path fill="#FFF980" d="M225.244,462.508v18.846c-3.463,1.463-7.371,2.799-11.68,4.01v-21.291L225.244,462.508z"/>
<path fill="#D8950F" d="M203.977,442.25l14.281,0.018l-0.006,4.336l-14.152-0.016c-0.771,5.182-4.859,10.201-10.6,12.941
	l-12.877-2.395c5.104-2.584,8.807-6.545,9.705-10.563l-25.504-0.031c-3.449,5.867-8.049,12.154-25.775,12.133
	c-13.006-0.016-24.348-3.941-26.25-12.193l-14.412-0.018l0.006-4.336l14.154,0.016c0.516-3.912,3.324-7.875,7.791-10.727
	l12.877,2.184c-3.957,2.799-6.129,5.758-6.895,8.559l25.756,0.031c3.451-5.867,7.924-12.26,25.646-12.238
	C190.73,429.967,201.947,433.946,203.977,442.25 M149.395,446.524l-22.699-0.027c1.4,3.756,5.988,5.348,11.6,5.354
	C144.416,451.858,147.223,449.588,149.395,446.524 M178.863,436.721c-6.25-0.006-9.186,2.316-11.355,5.486l22.57,0.027
	C188.68,438.374,184.346,436.729,178.863,436.721"/>
<path fill="#FFCE00" d="M234.709,421.913v15.988c0,6.035-6.299,11.613-16.928,16.092c-3.463,1.463-7.371,2.801-11.68,4.012
	c-3.75,1.063-7.781,2.01-12.08,2.846c-4.535,0.869-9.359,1.623-14.412,2.217c-3.154,0.377-6.41,0.695-9.736,0.961
	c-6.514,0.502-13.313,0.766-20.32,0.766c-1.281,0-2.547-0.012-3.816-0.023c-25.543-0.354-48.16-4.262-63.016-10.205
	c-7.35-2.926-12.801-6.367-15.771-10.104l-0.012-0.012c-1.658-2.102-2.537-4.285-2.537-6.549v-15.988
	c0-14.846,38.115-26.879,85.152-26.879C196.582,395.034,234.709,407.067,234.709,421.913"/>
<path fill="#FFF980" d="M148.867,393.868c-47.027,0-85.152,11.863-85.152,26.492c0,14.639,38.125,26.502,85.152,26.502
	c47.029,0,85.154-11.863,85.154-26.502C234.021,405.731,195.896,393.868,148.867,393.868 M148.867,443.743
	c-42.148,0-76.318-10.813-76.318-24.162c0-13.348,34.17-24.158,76.318-24.158c42.15,0,76.318,10.811,76.318,24.158
	C225.186,432.93,191.018,443.743,148.867,443.743"/>
<path fill="#F9C33D" d="M225.186,419.581c0,13.35-34.168,24.162-76.318,24.162c-42.148,0-76.318-10.813-76.318-24.162
	c0-13.348,34.17-24.16,76.318-24.16C191.018,395.42,225.186,406.233,225.186,419.581"/>
<path fill="#F9C33D" d="M225.186,419.581c0,13.35-34.168,24.162-76.318,24.162c-42.148,0-76.318-10.813-76.318-24.162
	c0-13.348,34.17-24.16,76.318-24.16C191.018,395.42,225.186,406.233,225.186,419.581"/>
<path fill="#FFF980" d="M169.873,444.497v19.529c-6.514,0.504-13.314,0.768-20.32,0.768c-1.279,0-2.547-0.012-3.816-0.023v-18.709
	L169.873,444.497z"/>
<path fill="#FFF980" d="M194.021,440.598v20.252c-4.537,0.869-9.359,1.623-14.412,2.217v-20.904L194.021,440.598z"/>
<path fill="#FFF980" d="M217.781,435.147v18.846c-3.463,1.463-7.371,2.801-11.68,4.012v-21.293L217.781,435.147z"/>
<path fill="#D8950F" d="M196.516,414.891l14.281,0.016l-0.006,4.338l-14.154-0.018c-0.77,5.182-4.857,10.199-10.6,12.943
	l-12.875-2.395c5.104-2.584,8.805-6.547,9.703-10.564l-25.504-0.031c-3.449,5.867-8.049,12.154-25.773,12.133
	c-13.006-0.016-24.352-3.939-26.254-12.195l-14.408-0.014l0.004-4.338l14.154,0.018c0.516-3.914,3.328-7.877,7.793-10.727
	l12.877,2.184c-3.957,2.799-6.127,5.756-6.896,8.557l25.758,0.031c3.447-5.867,7.922-12.26,25.643-12.238
	C183.27,402.604,194.482,406.584,196.516,414.891 M141.934,419.163l-22.699-0.027c1.398,3.756,5.988,5.348,11.598,5.355
	C136.955,424.497,139.76,422.227,141.934,419.163 M171.4,409.362c-6.248-0.008-9.186,2.316-11.355,5.484l22.572,0.029
	C181.217,411.012,176.885,409.368,171.4,409.362"/>
<path fill="#FFCE00" d="M251.289,394.553v15.988c0,6.033-6.297,11.611-16.926,16.09c-3.463,1.463-7.371,2.801-11.678,4.014
	c-3.75,1.061-7.785,2.01-12.08,2.844c-4.539,0.869-9.361,1.623-14.412,2.217c-3.154,0.377-6.412,0.697-9.738,0.961
	c-6.514,0.502-13.313,0.766-20.318,0.766c-1.281,0-2.549-0.012-3.816-0.023c-25.545-0.354-48.16-4.262-63.018-10.205
	c-7.35-2.926-12.799-6.365-15.771-10.104l-0.012-0.01c-1.658-2.104-2.537-4.287-2.537-6.549v-15.988
	c0-14.848,38.113-26.881,85.154-26.881C213.166,367.672,251.289,379.706,251.289,394.553"/>
<path fill="#FFF980" d="M165.451,366.506c-47.029,0-85.154,11.863-85.154,26.492c0,14.641,38.125,26.502,85.154,26.502
	c47.027,0,85.152-11.861,85.152-26.502C250.604,378.37,212.479,366.506,165.451,366.506 M165.451,416.381
	c-42.148,0-76.32-10.813-76.32-24.16c0-13.35,34.172-24.16,76.32-24.16c42.146,0,76.318,10.811,76.318,24.16
	C241.77,405.569,207.598,416.381,165.451,416.381"/>
<path fill="#F9C33D" d="M241.77,392.221c0,13.35-34.172,24.16-76.318,24.16c-42.148,0-76.32-10.811-76.32-24.16
	s34.172-24.16,76.32-24.16C207.598,368.061,241.77,378.872,241.77,392.221"/>
<path fill="#F9C33D" d="M241.77,392.221c0,13.35-34.172,24.16-76.318,24.16c-42.148,0-76.32-10.811-76.32-24.16
	s34.172-24.16,76.32-24.16C207.598,368.061,241.77,378.872,241.77,392.221"/>
<path fill="#FFF980" d="M186.457,417.135v19.531c-6.516,0.502-13.316,0.766-20.32,0.766c-1.281,0-2.549-0.01-3.818-0.023V418.7
	L186.457,417.135z"/>
<path fill="#FFF980" d="M210.605,413.237v20.254c-4.539,0.867-9.361,1.621-14.412,2.215v-20.902L210.605,413.237z"/>
<path fill="#FFF980" d="M234.363,407.786v18.846c-3.463,1.463-7.369,2.801-11.678,4.012v-21.291L234.363,407.786z"/>
<path fill="#D8950F" d="M213.098,387.53l14.281,0.016l-0.006,4.338l-14.152-0.018c-0.771,5.184-4.861,10.201-10.602,12.943
	l-12.877-2.395c5.105-2.584,8.809-6.547,9.707-10.563l-25.504-0.033c-3.451,5.867-8.049,12.154-25.775,12.135
	c-13.006-0.016-24.35-3.941-26.252-12.195l-14.41-0.016l0.006-4.338l14.152,0.018c0.516-3.914,3.326-7.877,7.791-10.727
	l12.877,2.184c-3.955,2.799-6.127,5.756-6.895,8.559l25.758,0.029c3.449-5.865,7.922-12.258,25.645-12.238
	C199.85,375.245,211.066,379.223,213.098,387.53 M158.514,391.803l-22.697-0.029c1.4,3.758,5.988,5.35,11.598,5.355
	C153.537,397.137,156.342,394.866,158.514,391.803 M187.982,382c-6.248-0.008-9.184,2.316-11.355,5.486l22.57,0.027
	C197.799,383.651,193.467,382.006,187.982,382"/>
<path fill="#FFCE00" d="M241.34,366.362v15.988c0,6.035-6.297,11.613-16.926,16.094c-3.463,1.461-7.371,2.799-11.68,4.01
	c-3.748,1.063-7.783,2.012-12.08,2.846c-4.539,0.869-9.361,1.623-14.41,2.217c-3.154,0.377-6.412,0.699-9.738,0.961
	c-6.516,0.504-13.314,0.766-20.32,0.766c-1.279,0-2.547-0.012-3.816-0.023c-25.543-0.354-48.16-4.262-63.016-10.205
	c-7.35-2.926-12.801-6.367-15.771-10.104l-0.012-0.012c-1.658-2.102-2.539-4.285-2.539-6.549v-15.988
	c0-14.844,38.117-26.879,85.154-26.879C203.215,339.483,241.34,351.518,241.34,366.362"/>
<path fill="#FFF980" d="M155.502,338.317c-47.029,0-85.154,11.863-85.154,26.492c0,14.639,38.125,26.502,85.154,26.502
	c47.027,0,85.152-11.863,85.152-26.502C240.654,350.18,202.529,338.317,155.502,338.317 M155.502,388.19
	c-42.15,0-76.32-10.811-76.32-24.16c0-13.346,34.17-24.158,76.32-24.158c42.148,0,76.318,10.813,76.318,24.158
	C231.82,377.379,197.65,388.19,155.502,388.19"/>
<path fill="#F9C33D" d="M231.82,364.032c0,13.348-34.17,24.16-76.318,24.16c-42.15,0-76.32-10.813-76.32-24.16
	c0-13.35,34.17-24.16,76.32-24.16C197.65,339.872,231.82,350.682,231.82,364.032"/>
<path fill="#F9C33D" d="M231.82,364.032c0,13.348-34.17,24.16-76.318,24.16c-42.15,0-76.32-10.813-76.32-24.16
	c0-13.35,34.17-24.16,76.32-24.16C197.65,339.872,231.82,350.682,231.82,364.032"/>
<path fill="#FFF980" d="M176.506,388.946v19.529c-6.516,0.506-13.314,0.768-20.32,0.768c-1.279,0-2.547-0.012-3.816-0.023V390.51
	L176.506,388.946z"/>
<path fill="#FFF980" d="M200.654,385.049v20.25c-4.535,0.869-9.361,1.623-14.412,2.217v-20.902L200.654,385.049z"/>
<path fill="#FFF980" d="M224.414,379.596v18.846c-3.461,1.465-7.371,2.801-11.678,4.012v-21.291L224.414,379.596z"/>
<path fill="#D8950F" d="M203.146,359.338l14.283,0.02l-0.006,4.336l-14.154-0.018c-0.77,5.182-4.857,10.203-10.6,12.943
	l-12.875-2.395c5.104-2.584,8.807-6.549,9.703-10.564l-25.504-0.031c-3.449,5.865-8.047,12.156-25.773,12.133
	c-13.006-0.016-24.35-3.941-26.252-12.195l-14.41-0.016l0.004-4.336l14.156,0.018c0.514-3.912,3.324-7.877,7.791-10.729
	l12.877,2.184c-3.959,2.799-6.129,5.76-6.896,8.561l25.758,0.029c3.449-5.865,7.922-12.26,25.646-12.236
	C189.902,347.055,201.117,351.036,203.146,359.338 M148.564,363.612l-22.697-0.025c1.4,3.756,5.988,5.348,11.598,5.354
	C143.586,368.948,146.393,366.676,148.564,363.612 M178.033,353.809c-6.248-0.006-9.184,2.316-11.355,5.488l22.572,0.027
	C187.85,355.461,183.518,353.819,178.033,353.809"/>
<path fill="#FFCE00" d="M433.01,438.383v15.988c0,6.035-6.297,11.613-16.926,16.092c-3.463,1.463-7.371,2.801-11.68,4.012
	c-3.748,1.063-7.783,2.012-12.08,2.846c-4.535,0.869-9.361,1.623-14.41,2.217c-3.154,0.379-6.412,0.697-9.738,0.961
	c-6.516,0.502-13.313,0.766-20.32,0.766c-1.279,0-2.547-0.012-3.816-0.023c-25.541-0.354-48.16-4.262-63.016-10.205
	c-7.35-2.926-12.799-6.367-15.771-10.104l-0.012-0.012c-1.656-2.102-2.539-4.285-2.539-6.549v-15.988
	c0-14.846,38.115-26.879,85.154-26.879C394.885,411.504,433.01,423.538,433.01,438.383"/>
<path fill="#FFF980" d="M347.172,410.338c-47.029,0-85.152,11.863-85.152,26.492c0,14.639,38.123,26.502,85.152,26.502
	c47.027,0,85.152-11.863,85.152-26.502C432.324,422.202,394.199,410.338,347.172,410.338 M347.172,460.213
	c-42.15,0-76.32-10.813-76.32-24.16c0-13.35,34.17-24.16,76.32-24.16c42.148,0,76.318,10.811,76.318,24.16
	C423.49,449.401,389.32,460.213,347.172,460.213"/>
<path fill="#F9C33D" d="M423.49,436.053c0,13.35-34.17,24.16-76.318,24.16c-42.15,0-76.32-10.811-76.32-24.16
	s34.17-24.162,76.32-24.162C389.32,411.891,423.49,422.704,423.49,436.053"/>
<path fill="#F9C33D" d="M423.49,436.053c0,13.35-34.17,24.16-76.318,24.16c-42.15,0-76.32-10.811-76.32-24.16
	s34.17-24.162,76.32-24.162C389.32,411.891,423.49,422.704,423.49,436.053"/>
<path fill="#FFF980" d="M368.176,460.967v19.529c-6.514,0.504-13.314,0.768-20.32,0.768c-1.277,0-2.547-0.012-3.816-0.023v-18.709
	L368.176,460.967z"/>
<path fill="#FFF980" d="M392.324,457.069v20.254c-4.535,0.867-9.361,1.621-14.412,2.215v-20.902L392.324,457.069z"/>
<path fill="#FFF980" d="M416.084,451.618v18.846c-3.461,1.463-7.371,2.801-11.678,4.012v-21.293L416.084,451.618z"/>
<path fill="#D8950F" d="M394.816,431.362l14.283,0.016l-0.006,4.338l-14.154-0.018c-0.77,5.182-4.857,10.201-10.598,12.943
	l-12.877-2.395c5.104-2.584,8.807-6.547,9.703-10.564l-25.504-0.031c-3.449,5.867-8.047,12.154-25.773,12.133
	c-13.006-0.014-24.35-3.939-26.252-12.195l-14.41-0.014l0.004-4.338l14.154,0.018c0.516-3.914,3.326-7.877,7.791-10.727
	l12.879,2.184c-3.959,2.799-6.129,5.756-6.896,8.557l25.758,0.031c3.449-5.867,7.922-12.26,25.645-12.238
	C381.572,419.079,392.787,423.055,394.816,431.362 M340.234,435.633l-22.697-0.027c1.398,3.758,5.988,5.348,11.598,5.355
	C335.256,440.967,338.063,438.698,340.234,435.633 M369.705,425.833c-6.252-0.008-9.188,2.316-11.357,5.484l22.572,0.029
	C379.52,427.483,375.188,425.838,369.705,425.833"/>
<path fill="#FFCE00" d="M442.221,407.538v15.988c0,6.035-6.297,11.611-16.926,16.092c-3.463,1.461-7.371,2.801-11.68,4.012
	c-3.748,1.063-7.783,2.012-12.08,2.846c-4.537,0.867-9.359,1.621-14.41,2.215c-3.154,0.377-6.412,0.699-9.738,0.961
	c-6.514,0.504-13.314,0.766-20.32,0.766c-1.279,0-2.549-0.01-3.818-0.021c-25.541-0.354-48.158-4.264-63.016-10.207
	c-7.35-2.926-12.799-6.365-15.77-10.104l-0.012-0.01c-1.658-2.102-2.537-4.287-2.537-6.549v-15.988
	c0-14.846,38.113-26.879,85.152-26.879C404.096,380.659,442.221,392.692,442.221,407.538"/>
<path fill="#FFF980" d="M356.381,379.491c-47.027,0-85.154,11.865-85.154,26.492c0,14.643,38.127,26.504,85.154,26.504
	c47.029,0,85.152-11.861,85.152-26.504C441.533,391.356,403.41,379.491,356.381,379.491 M356.381,429.366
	c-42.148,0-76.32-10.811-76.32-24.16c0-13.348,34.172-24.158,76.32-24.158s76.32,10.811,76.32,24.158
	C432.701,418.555,398.529,429.366,356.381,429.366"/>
<path fill="#F9C33D" d="M432.701,405.208c0,13.348-34.172,24.16-76.32,24.16s-76.32-10.813-76.32-24.16
	c0-13.352,34.172-24.16,76.32-24.16S432.701,391.856,432.701,405.208"/>
<path fill="#F9C33D" d="M432.701,405.208c0,13.348-34.172,24.16-76.32,24.16s-76.32-10.813-76.32-24.16
	c0-13.352,34.172-24.16,76.32-24.16S432.701,391.856,432.701,405.208"/>
<path fill="#FFF980" d="M377.387,430.12v19.531c-6.514,0.502-13.314,0.766-20.32,0.766c-1.279,0-2.547-0.01-3.818-0.021v-18.709
	L377.387,430.12z"/>
<path fill="#FFF980" d="M401.535,426.223v20.252c-4.537,0.869-9.359,1.621-14.41,2.215v-20.902L401.535,426.223z"/>
<path fill="#FFF980" d="M425.295,420.772v18.844c-3.463,1.465-7.371,2.801-11.68,4.014v-21.293L425.295,420.772z"/>
<path fill="#D8950F" d="M404.027,400.514l14.281,0.018l-0.006,4.338l-14.15-0.02c-0.773,5.184-4.861,10.203-10.602,12.947
	l-12.877-2.395c5.104-2.588,8.809-6.549,9.705-10.566l-25.504-0.029c-3.449,5.865-8.047,12.152-25.773,12.131
	c-13.008-0.016-24.35-3.941-26.252-12.193l-14.412-0.018l0.006-4.338l14.154,0.02c0.516-3.914,3.326-7.879,7.791-10.729
	l12.879,2.184c-3.957,2.799-6.129,5.758-6.896,8.561l25.758,0.029c3.449-5.867,7.922-12.26,25.645-12.238
	C390.781,388.231,401.998,392.209,404.027,400.514 M349.445,404.788l-22.697-0.027c1.398,3.758,5.986,5.348,11.6,5.355
	C344.467,410.122,347.275,407.852,349.445,404.788 M378.914,394.987c-6.25-0.01-9.186,2.314-11.355,5.486l22.57,0.025
	C388.73,396.635,384.396,394.993,378.914,394.987"/>
<path fill="#F9DCC0" d="M273.385,133.313c0.887-1.548,2.17-4.208,1.805-6.221c-0.344-1.902-1.625-0.947-2.791,0.247
	c-0.701-4.137-0.867-8.1-2.471-8.142c-11.766-0.313-4.875,18.285-2.789,28.866c5.301-0.539,4.355-2.147,8.188-4.778
	C274.496,139.657,273.887,136.311,273.385,133.313"/>
<path fill="#F9DCC0" d="M345.646,153.113c0,0,0.262-0.07,0.672-0.209c1.211-0.407,3.697-1.409,4.459-2.93
	c0,0-3.822-9.175-3.059-17.33c0.766-8.152,3.313-10.191,3.313-10.191s7.391-0.765,12.232-0.765s9.174,4.586,9.174,4.586
	s-0.764,3.313-1.781,9.43c-1.021,6.116-4.336,13.251-4.078,14.271c0.254,1.019-0.766,4.332,1.273,4.332
	c2.037,0,1.529,7.644,1.529,7.644l-13.506,10.703l-11.723-5.351l-4.586-6.882l1.273-6.88L345.646,153.113z"/>
<path fill="#353460" d="M319.576,398.651c2.939-0.172,5.748-1.227,8.678-1.508c3.34-0.318,6.719,0.242,10.035,0.605
	c2.721-0.406,4.555-0.986,4.646-1.807c0.379-3.418-0.76-6.643-1.896-10.439c-1.141-3.797-0.57-5.314-0.57-5.314l-8.543,0.381
	c0,0-1.344,5.215-3.369,6.928c-2.467,2.088-5.637,2.734-8.703,3.406c-2.668,0.584-6.775,1.234-8.426,3.709
	c-1.139,1.709,0.758,3.986,0.76,3.988c0.566,0.678,5.813,0.078,6.65,0.076C319.086,398.674,319.332,398.665,319.576,398.651"/>
<path fill="#353460" d="M382.277,377.965c0,0,0.617,6.17-0.617,9.256s-6.172,8.436-1.852,9.053s11.314,2.469,12.959-1.029
	c1.648-3.498-0.822-4.732-1.85-7.816c-1.029-3.086-1.236-8.643-1.236-8.643L382.277,377.965z"/>
<path fill="#F29600" d="M391.068,382.309h-10.539c-0.441-3.943-18.006-48.738-21.078-56.193c-2.342-5.711-6.596-44.724-8.467-62.818
	c-0.072-0.557-0.9-0.514-0.9,0.059c0.016,10.538,0,27.631-0.285,37.728c-0.115,3.969,0.029,7.709,0.285,11.465
	c0.615,8.883,1.801,17.85,1.473,30.23c-0.059,0.73-0.115,1.473-0.188,2.215c-1.057,11.023-3.869,25.891-10.367,37.271l-12.723-0.387
	c0,0,5.27-52.25,1.756-76.412c-2.971-20.42-1.027-61.661-0.357-73.914c0.115-2.24,0.201-3.513,0.201-3.513l14.35-0.627L377.018,226
	c0,0,0.1,1.341,0.242,4.055c0.199,3.941,0.471,10.766,0.627,20.535c0.273,16.492-0.428,36.885,0.443,46.98
	c0.885,10.096,0,13.608,5.713,31.172C389.754,346.309,391.068,382.309,391.068,382.309"/>
<path fill="#F9DCC0" d="M385.563,224.817c-4.545,5.498-12.311,11.775-12.311,15.842c0,8.677,2.494,13.145,6.434,7.622
	c3.346-4.679,3.805-9.551,10.434-15.845C385.762,230.169,385.957,229.735,385.563,224.817"/>
<path fill="#4AA9FF" d="M395.781,228.627c-1.715,2.698-3.156,6.211-5.5,8.426c-4.354-2.256-7.58-6.155-7.982-11.067
	c5.156-6.228,12.738-18.321,11.484-24.604c-2.371-11.824-15.01-20.605-15.01-20.605c-2.328,9.296,1.1,35.756,1.385,46.538
	c0.045,1.813-1.186,2.44-2.898,2.741c-1.898,0.314-4.398,0.186-6.34,0.742c-6.627,1.899-17.965,4.655-27.375,4.728
	c-5.939,0.028-11.125-1-13.867-3.971c-0.828-0.857-1.428-1.87-1.785-3.069c-0.313-1.015,1.9-10.883,2.043-11.981
	c2.328-19.278,1.514-28.688,1.514-28.688c-7.098,8.683-18.936,13.408-38.643,9.468c-18.578-3.714-25.961-31.217-30.057-46.925
	c-0.258-1.013-0.502-1.984-0.744-2.884h0.014c5.299-0.544,9.869-1.956,13.695-4.584c1.1,4.783,2.498,10.067,4.469,15.751
	c6.227,18.007,15.494,23.233,24.076,23.705c1.199,0.07,2.371,0.057,3.527-0.044c9.469-0.799,14.795-20.219,21.105-24.96
	c6.313-4.728,19.65-5.598,19.65-5.598c1,2.998,2.613,4.854,4.469,5.896c5.512,3.071,13.238-0.984,13.822-3.927
	c0,0,10.641-0.342,20.893,7.541c9.453,7.269,17.252,19.75,20.436,31.174C412.004,206.25,402.707,217.688,395.781,228.627"/>
<path fill="#353460" d="M369.131,126.712c-2.271-0.978-4.846-1.657-7.32-1.729c-3.525-0.103-5.361,2.039-7.889,4.104
	c-2.596,2.113-7.301,2.457-9.695,1.045c-2.242-1.321-3.26-5.625-3.805-8.332c0,0,1.785,1.023,8.828-2.783
	c4.395-2.377,8.055-5.882,13.289-4.503c3.42,0.9,6.635,3.405,9.371,5.571c0,0,4.207,1.229,3.635,4.275s-2.525,8.371-4.811,9.514
	L369.131,126.712z"/>
<path fill="#353460" d="M369.133,141.218c0,0-2.33,1.832-5.324,1.499c-2.996-0.333-6.49-2.663-9.982-1.665
	c-3.494,1-5.658,0.665-5.658,0.665s1.697,7.986,2.9,8.295c4.168,1.071,13.406,3.187,15.568-0.806
	C368.799,145.212,369.133,141.218,369.133,141.218"/>
<path fill="#F9DCC0" d="M353.541,144.191c0,0,7.256,1.288,8.627,0.725c0,0,0.082,1.211-4.434,0.807
	C353.219,145.32,353.541,144.191,353.541,144.191"/>
<path fill="#F9DCC0" d="M349.93,134.577c0,2.125-0.885,3.849-1.977,3.849c-1.094,0-1.979-1.724-1.979-3.849
	c0-2.124,0.885-3.848,1.979-3.848C349.045,130.729,349.93,132.453,349.93,134.577"/>
<path fill="#F9DCC0" d="M372.055,135.434c0,2.125-0.883,3.849-1.977,3.849c-1.09,0-1.977-1.724-1.977-3.849
	c0-2.126,0.887-3.85,1.977-3.85C371.172,131.584,372.055,133.308,372.055,135.434"/>
<path fill="#EDB691" d="M197.789,288.713c0,0-0.857,12.012,5.793,14.801c6.648,2.789,27.885,3.432,32.818,8.582
	c4.936,5.148,4.076,8.365,3.434,8.365c-0.645,0-0.645-1.717-8.797-5.148c-8.15-3.432-25.096,1.502-31.961-2.574
	s-9.65-10.297-9.65-10.297l0.215-9.225L197.789,288.713z"/>
<path fill="#353460" d="M267.967,405.823c0,0-0.395,9.082,4.145,9.477s5.922-2.369,7.699-3.357c1.775-0.986,6.512-1.775,8.486-2.762
	c1.975-0.988,4.541-2.961,4.541-2.961s0.393-3.947-4.936-3.158c-5.33,0.789-10.066,0.395-12.633-0.396L267.967,405.823z"/>
<path fill="#353460" d="M275.705,411.379c0,0-3.922,10.119,0.621,11.771s3.922,1.031,8.465,0.205s13.629,1.447,16.107-0.619
	c2.477-2.064,1.236-5.574-4.131-6.193c-5.369-0.621-9.084,0-10.324-2.066c-1.238-2.064-3.51-4.75-3.51-4.75L275.705,411.379z"/>
<path fill="#095370" d="M277.842,402.331c0,0-17.803-69.107-25.617-74.318c-7.816-5.211-58.217-3.678-58.217-3.678
	s-14.145,15.633,0,20.1c5.725,1.809,12.615,2.885,19.795,3.994c2.051-0.145,4.07-0.326,5.979-0.711
	c7.949-1.604,22.252-4.938,22.311-4.951c-1.791,0.418,9.107,31.668,10.012,34.244c3.674,10.457,7.764,20.58,13.924,29.896
	c0.035,0.055,0.072,0.111,0.111,0.166L277.842,402.331z"/>
<path fill="#F7D4C1" d="M171.434,248.58c-0.734,4.438-3.797,11.395-1.813,15.493s5.713-0.097,10.113-1.41
	c-0.479-1.939,3.682-8.254,5.625-8.829c0.588-0.174,1.215-0.112,1.838-0.078c0.199,0.012,0.4,0.022,0.6,0.02
	c3.193-0.037,5.504-2.904,6.918-5.681c2.316-4.555,3.57-9.634,3.633-14.743l-0.369-0.56l-2.426-3.654
	c-2.939-1.945-6.705-2.156-10.223-1.922c-3.691,0.245-7.592,1.029-10.184,3.575C172.779,233.117,171.971,245.326,171.434,248.58"/>
<path fill="#F29600" d="M196.744,314.319c0.113,0.658,1.186,4.027,1.027,5.07c0,0.098-0.027,0.172-0.072,0.229
	c-4.027,5.469-10.281,7.383-16.463,7.666c-5.941,0.273-11.811-0.955-15.58-1.998c-0.086-0.242-0.172-0.5-0.242-0.742
	c-0.016-0.014-0.016-0.014-0.016,0c-1.883-5.727-2.557-11.781-3.371-17.736c-0.756-5.439-1.385-10.895-1.74-16.35
	c-0.059-0.771-0.1-1.557-0.143-2.328c-0.029-0.785-0.072-1.584-0.102-2.398c0.557-5.712,1-11.424,0.9-17.15
	c0.885-5.012,2.527-9.797,5.369-13.909c0.572-0.613,1.172-1.213,1.828-1.826l1.984,1.056l0.072,0.043l4.426,2.342l5.998,3.184
	l0.029,0.015c-0.113,7.369,15.635,17.107,18.406,23.791c1.328,3.228-0.699,7.14-1.885,10.095c-0.699,1.743-1.441,3.499-1.799,5.327
	C194.346,303.809,195.916,309.278,196.744,314.319"/>
<g opacity="0.65">
	<g>
		<defs>
			<rect id="SVGID_5_" x="187.344" y="232.792" width="11.15" height="20.983"/>
		</defs>
		<clipPath id="SVGID_6_">
			<use xlink:href="#SVGID_5_"  overflow="visible"/>
		</clipPath>
		<g clip-path="url(#SVGID_6_)">
			<defs>
				<path id="SVGID_7_" d="M187.344,253.756c0.199,0.015,0.4,0.022,0.598,0.02c3.193-0.037,5.502-2.902,6.916-5.681
					c2.318-4.555,3.574-9.634,3.637-14.744l-0.369-0.559c-1.799,0.953-2.639,3.587-2.986,5.642c-0.621,3.641-1.096,7.533-3.637,10.4
					c-1.303,1.471-3.066,2.526-3.951,4.322c0.041-0.057,0.09-0.108,0.148-0.15C187.5,253.264,187.387,253.517,187.344,253.756"/>
			</defs>
			<clipPath id="SVGID_8_">
				<use xlink:href="#SVGID_7_"  overflow="visible"/>
			</clipPath>
			<defs>
				<filter id="Adobe_OpacityMaskFilter" filterUnits="userSpaceOnUse" x="179.482" y="228.616" width="26.873" height="29.338">
					<feColorMatrix  type="matrix" values="1 0 0 0 0  0 1 0 0 0  0 0 1 0 0  0 0 0 1 0"/>
				</filter>
			</defs>
			<mask maskUnits="userSpaceOnUse" x="179.482" y="228.616" width="26.873" height="29.338" id="SVGID_9_">
				<g filter="url(#Adobe_OpacityMaskFilter)">
					
						<linearGradient id="SVGID_10_" gradientUnits="userSpaceOnUse" x1="59.0977" y1="557.6665" x2="60.5258" y2="557.6665" gradientTransform="matrix(-2.4478 -1.1029 1.1029 -2.4478 -274.5172 1674.8524)">
						<stop  offset="0" style="stop-color:#FFFFFF"/>
						<stop  offset="0.8201" style="stop-color:#000000"/>
						<stop  offset="1" style="stop-color:#000000"/>
					</linearGradient>
					<polygon clip-path="url(#SVGID_8_)" fill="url(#SVGID_10_)" points="206.355,236.333 189.225,228.616 179.482,250.236 
						196.613,257.954 					"/>
				</g>
			</mask>
			
				<linearGradient id="SVGID_12_" gradientUnits="userSpaceOnUse" x1="59.0977" y1="557.6665" x2="60.5258" y2="557.6665" gradientTransform="matrix(-2.4478 -1.1029 1.1029 -2.4478 -274.5172 1674.8524)">
				<stop  offset="0" style="stop-color:#FFFFFF"/>
				<stop  offset="0.8201" style="stop-color:#FFFFFF"/>
				<stop  offset="1" style="stop-color:#FFFFFF"/>
			</linearGradient>
			<polygon clip-path="url(#SVGID_8_)" mask="url(#SVGID_9_)" fill="url(#SVGID_12_)" points="206.355,236.333 189.225,228.616 
				179.482,250.236 196.613,257.954 			"/>
		</g>
	</g>
</g>
<path fill="#0071BC" d="M284.594,412.409l-4.555,1.842l-5.17,2.098l-6.813-9.322c-6.125-8.383-10.865-17.809-13.922-27.732
	c-2.326-7.57-2.186-16.137-6.496-23.035c-6.055-9.666-18.609-4.283-27.246-2.369c-9.928,2.184-20.863,4.025-31.074,3.998
	c-8.84-0.014-15.965-3.584-20.092-11.639c-0.615-1.17-4.656-20.535-3.828-21.705c0-0.014,0-0.014,0.016,0
	c0.014-0.043,0.041-0.059,0.07-0.059c5.74-0.07,10.668-0.469,14.809-1.014c11.766-1.525,17.266-4.268,17.266-4.268
	s0.07,0.057,0.213,0.186c1.156,0.912,7.141,5.496,14.182,6.924c7.854,1.6,30.986,0.9,42.281,4.328
	c3.1,0.943,5.527,2.984,7.512,5.654c2.369,4.885,3.828,10.211,5.07,15.494c1.869,8.012,3.297,16.107,5.025,24.146
	c1.758,8.184,4.055,16.08,6.883,23.949c1.5,4.141,2.941,8.396,5.713,11.725C284.537,412.108,284.594,412.409,284.594,412.409"/>
<path fill="#2D2D2D" d="M198.328,233.879c-1.613,2.6-6.711,3.542-9.439,3.799c-2.512,0.229-4.326-1.085-6.439-1.456
	c-0.285-0.042-0.586-0.071-0.885-0.087c-1.887-0.056-3.484,2.257-2.971,3.785c0.158,0.472,0.514,0.856,1.129,1.085
	c0.67,2.771-3.242,3.784-5.014,5.012c-0.699,0.501-1.17,1.001-1.471,1.515c-1.398,2.471,1.215,5.269,1.385,8.754
	c0.029,0.601-0.014,1.229-0.17,1.885c-0.443,1.899-2.756,3.555-4.086,4.841c-0.285,0.271-0.57,0.558-0.813,0.857
	c-1.186,1.327-2.027,2.799-2.613,4.355c-0.357,0.956-0.613,1.94-0.813,2.956c-0.303,1.557-0.43,3.184-0.459,4.84
	c-0.1,4.727,0.5,10.297-3.799,13.495c-0.514,0.386-1.043,0.699-1.584,0.942c-4.57,2.086-10.125-0.314-13.08-4.212
	c-6.527-8.598-3.656-19.065,0.699-27.917c2.313-4.685,5.082-9.126,7.627-13.681c2.498-4.485,4.297-9.524,7.652-13.481
	c4.197-4.927,9.854-8.611,16.193-10.053c5.084-1.157,11.824,1.014,15.994,5.041c1.215,1.143,2.213,2.47,2.898,3.912
	c0.057,0.1,0.102,0.2,0.143,0.314C199.027,231.795,198.9,232.938,198.328,233.879"/>
<g>
	<defs>
		<polygon id="SVGID_13_" points="207.686,322.93 246.992,326.256 269.84,286.664 233.461,249.21 		"/>
	</defs>
	<clipPath id="SVGID_14_">
		<use xlink:href="#SVGID_13_"  overflow="visible"/>
	</clipPath>
	<defs>
		<filter id="Adobe_OpacityMaskFilter_1_" filterUnits="userSpaceOnUse" x="177.844" y="225.138" width="121.838" height="125.193">
			<feColorMatrix  type="matrix" values="1 0 0 0 0  0 1 0 0 0  0 0 1 0 0  0 0 0 1 0"/>
		</filter>
	</defs>
	<mask maskUnits="userSpaceOnUse" x="177.844" y="225.138" width="121.838" height="125.193" id="SVGID_15_">
		<g filter="url(#Adobe_OpacityMaskFilter_1_)">
			
				<linearGradient id="SVGID_16_" gradientUnits="userSpaceOnUse" x1="46.2222" y1="548.356" x2="47.6499" y2="548.356" gradientTransform="matrix(-29.7073 -14.0976 14.0976 -29.7073 -6096.8809 17239.8027)">
				<stop  offset="0" style="stop-color:#FFFFFF"/>
				<stop  offset="0.0975" style="stop-color:#F9F9F9"/>
				<stop  offset="0.2215" style="stop-color:#EAEAEA"/>
				<stop  offset="0.3596" style="stop-color:#D0D0D0"/>
				<stop  offset="0.5082" style="stop-color:#ABABAB"/>
				<stop  offset="0.6652" style="stop-color:#7D7D7D"/>
				<stop  offset="0.8292" style="stop-color:#434343"/>
				<stop  offset="0.996" style="stop-color:#010101"/>
				<stop  offset="0.9991" style="stop-color:#000000"/>
				<stop  offset="1" style="stop-color:#000000"/>
			</linearGradient>
			<polygon clip-path="url(#SVGID_14_)" fill="url(#SVGID_16_)" points="299.682,263.373 219.109,225.138 177.844,312.096 
				258.416,350.331 			"/>
		</g>
	</mask>
	
		<linearGradient id="SVGID_17_" gradientUnits="userSpaceOnUse" x1="46.2222" y1="548.356" x2="47.6499" y2="548.356" gradientTransform="matrix(-29.7073 -14.0976 14.0976 -29.7073 -6096.8809 17239.8027)">
		<stop  offset="0" style="stop-color:#FFFFFF"/>
		<stop  offset="0.9991" style="stop-color:#FFFFFF"/>
		<stop  offset="1" style="stop-color:#FFFFFF"/>
	</linearGradient>
	<polygon clip-path="url(#SVGID_14_)" mask="url(#SVGID_15_)" fill="url(#SVGID_17_)" points="299.682,263.373 219.109,225.138 
		177.844,312.096 258.416,350.331 	"/>
</g>
<path fill="#ACAAB5" d="M248.074,329.979c0.727,0.041,1.416-0.332,1.779-0.965l23.383-40.785c0.529-0.924,0.211-2.099-0.711-2.629
	c-0.924-0.522-2.098-0.211-2.627,0.712l-22.787,39.743l-37.182-2.557c-0.006,0-0.014,0-0.02-0.002
	c-1.051-0.061-1.957,0.738-2.031,1.791c-0.074,1.061,0.729,1.979,1.787,2.051l38.385,2.639
	C248.059,329.977,248.064,329.979,248.074,329.979"/>
<path fill="#F7D4C1" d="M224.471,309.975c-5.766,0.221-11.535,0.361-17.305,0.482c-5.471,0.113-11.26,0.785-16.709,0.332
	c-1.178-0.1-2.311-0.422-3.004-1.453c-1.768-2.635-1.123-6.418-1.057-9.422c0.068-3.1,0.111-6.201,0.113-9.302
	c0.004-5.44,0.203-11.147-0.775-16.526c-0.121-0.661-0.242-1.358-0.541-1.968c-1.766-3.612-9.963-7.217-14.227-2.43
	c-1.084,1.224-3.432,5.287-3.102,7.952c1.121,9.019,0.951,20.471,4.059,31.506c0.91,3.23,2.168,6.596,4.387,9.234
	c2.033,2.412,4.99,4.51,8.182,4.908c3.729,0.465,7.494-0.824,11.145-1.408c3.344-0.535,6.68-1.115,10.01-1.732
	c3.525-0.656,7.045-1.35,10.551-2.1c1.633-0.35,3.264-0.711,4.889-1.088c0.672-0.156,3.947-1.418,4.461-1.09
	c0,0,1.918,1.223,3.924,2.785c2.002,1.563,4.584,8.598,7.023,2.887C238.932,315.833,224.471,309.975,224.471,309.975"/>
<path fill="#FBB03B" d="M170.398,268.987c4.186-5.009,12.703-1.58,14.643,2.05c1.117,2.098,2.434,10.568,2.75,18.624
	c-2.416,0.243-6.928,0.869-10.27,0.469c-2.191-0.263-6.254-0.685-9.184-1.378c-0.414-3.718-0.299-8.338-0.82-11.563
	C167.082,274.48,169.332,270.267,170.398,268.987"/>
<path fill="#4AA9FF" d="M491.68,335.948c0,1.857-1.506,3.361-3.361,3.361c-1.857,0-3.363-1.504-3.363-3.361s1.506-3.361,3.363-3.361
	C490.174,332.586,491.68,334.09,491.68,335.948"/>
<path fill="#4AA9FF" d="M495.652,342.366c0,1.014-0.82,1.834-1.834,1.834c-1.012,0-1.834-0.82-1.834-1.834
	c0-1.012,0.822-1.834,1.834-1.834C494.832,340.532,495.652,341.354,495.652,342.366"/>
<path fill="#4AA9FF" d="M309.639,355.43c0,3.615-2.932,6.547-6.547,6.547s-6.547-2.932-6.547-6.547s2.932-6.547,6.547-6.547
	S309.639,351.815,309.639,355.43"/>
<path fill="#4AA9FF" d="M304.4,372.454c0,1.928-1.564,3.49-3.49,3.49c-1.93,0-3.492-1.563-3.492-3.49
	c0-1.93,1.563-3.492,3.492-3.492C302.836,368.961,304.4,370.524,304.4,372.454"/>
<path fill="#4AA9FF" d="M317.059,363.288c0,1.928-1.563,3.49-3.49,3.49c-1.93,0-3.494-1.563-3.494-3.49
	c0-1.93,1.564-3.492,3.494-3.492C315.496,359.795,317.059,361.358,317.059,363.288"/>
<path fill="#4AA9FF" d="M80.809,202.975c0,4.026-3.264,7.292-7.291,7.292s-7.293-3.266-7.293-7.292s3.266-7.292,7.293-7.292
	S80.809,198.948,80.809,202.975"/>
<path fill="#4AA9FF" d="M72.475,224.851c0,2.014-1.633,3.646-3.646,3.646c-2.012,0-3.645-1.632-3.645-3.646s1.633-3.646,3.645-3.646
	C70.842,221.205,72.475,222.837,72.475,224.851"/>
<path fill="#4AA9FF" d="M151.125,205.578c0,1.439-1.166,2.605-2.604,2.605c-1.439,0-2.605-1.166-2.605-2.605
	c0-1.437,1.166-2.604,2.605-2.604C149.959,202.975,151.125,204.142,151.125,205.578"/>
<path fill="#4AA9FF" d="M58.973,343.155c0,1.813-1.471,3.283-3.283,3.283c-1.814,0-3.283-1.471-3.283-3.283
	c0-1.814,1.469-3.283,3.283-3.283C57.502,339.872,58.973,341.34,58.973,343.155"/>
<g>
	<g>
		<defs>
			<rect id="SVGID_18_" x="262.75" y="150.357" width="90.789" height="231.659"/>
		</defs>
		<clipPath id="SVGID_19_">
			<use xlink:href="#SVGID_18_"  overflow="visible"/>
		</clipPath>
	</g>
</g>
<path fill="none" d="M884.084,211.023c0.016,10.538,0,27.631-0.285,37.728c-0.115,3.969,0.029,7.709,0.285,11.465
	c0.615,8.883,1.801,17.85,1.473,30.23c-0.059,0.73-0.115,1.473-0.188,2.215c-1.049,10.944-3.833,25.673-10.232,37.021h12.402v-95.24
	c-1.014-8.821-1.921-17.35-2.555-23.478C884.912,210.408,884.084,210.451,884.084,211.023z"/>
<path fill="none" d="M838.26,130.013c1.199,0.07,2.371,0.057,3.527-0.044c9.469-0.799,14.795-20.219,21.105-24.96
	c6.313-4.728,19.65-5.598,19.65-5.598c0.125,0.375,0.26,0.731,0.403,1.071c1.004,2.378,2.442,3.913,4.065,4.824
	c0.172,0.096,0.352,0.165,0.527,0.247v-7.529h-75.936c0.738,2.651,1.586,5.416,2.58,8.283
	C820.41,124.314,829.678,129.541,838.26,130.013z"/>
<polygon fill="#F29600" points="862.279,329.546 866.777,329.683 866.818,329.683 "/>
<path fill="#F29600" d="M866.777,329.683l8.225,0.25c0.047-0.082,0.089-0.168,0.135-0.25h-8.318H866.777z"/>
<path fill="none" d="M330.035,305.467c-2.971-20.42-1.027-61.661-0.357-73.914c-0.828-0.857-1.428-1.87-1.785-3.069
	c-0.313-1.015,1.9-10.883,2.043-11.981c2.328-19.278,1.514-28.688,1.514-28.688c-7.098,8.683-18.936,13.408-38.643,9.468
	c-18.578-3.714-25.961-31.217-30.057-46.925v231.659h70.027l-4.498-0.137C328.279,381.879,333.549,329.629,330.035,305.467z"/>
<path fill="#F08300" d="M330.035,305.467c3.514,24.162-1.756,76.412-1.756,76.412l4.539,0.137c5.1-10.371,5.666-22.971,5.572-34.262
	c-0.26-31.787-6.211-63.621-3.012-95.423c0.586-5.826,1.925-11.464,3.497-17.042c-3.922-0.448-7.206-1.577-9.198-3.735
	C329.008,243.807,327.064,285.047,330.035,305.467z"/>
<path fill="#2399FF" d="M292.807,197.282c19.707,3.94,31.545-0.785,38.643-9.468c0,0,0.814,9.41-1.514,28.688
	c-0.143,1.099-2.355,10.967-2.043,11.981c0.357,1.199,0.957,2.212,1.785,3.069c1.992,2.158,5.276,3.287,9.198,3.735
	c2.915-10.34,6.646-20.467,7.97-31.164c1.896-15.34,8.607-30.858,6.166-46.483c-1.623-0.914-3.062-2.448-4.065-4.826
	c-0.144-0.34-0.278-0.697-0.403-1.071c0,0-13.338,0.87-19.65,5.598c-6.311,4.741-11.637,24.161-21.105,24.96
	c-1.156,0.101-2.328,0.114-3.527,0.044c-0.643,0.756-1.313,1.327-2.043,1.613c-8.066,3.17-20.518-8.525-25.33-13.596
	c-5.67-5.969-9.953-12.951-14.137-20.006C266.846,166.065,274.229,193.568,292.807,197.282z"/>
<path fill="#F08300" d="M165.314,324.602c0-0.008,0-0.012,0.014,0c0.014-0.043,0.041-0.059,0.07-0.059
	c1.907-0.023,3.716-0.086,5.444-0.174c-0.148-0.834-0.294-1.666-0.438-2.488c-1.324-7.539-2.82-15.16-3.291-22.817
	c-1.229-3.508-2.688-6.91-4.597-10.101c-0.228,0.212-0.47,0.416-0.731,0.61c-0.514,0.387-1.043,0.699-1.584,0.943
	c0.032,0.497,0.078,0.994,0.115,1.492c0.694,4.92,0.943,9.934,1.627,14.858C162.756,312.823,163.43,318.875,165.314,324.602z"/>
<path fill="#0057B5" d="M242.322,349.272c-7.484-1.152-15.291,0.883-22.582,2.348c-13.645,2.738-31.359,6.531-41.283-6.189
	c-4.681-6-6.301-13.682-7.614-21.061c-1.729,0.088-3.537,0.15-5.444,0.174c-0.029,0-0.057,0.016-0.07,0.059
	c-0.014-0.012-0.014-0.008-0.014,0c-0.828,1.17,3.213,20.535,3.826,21.705c4.127,8.055,11.252,11.625,20.092,11.639
	c10.211,0.027,21.146-1.814,31.074-3.998c8.637-1.914,21.191-7.297,27.246,2.369c4.311,6.898,4.17,15.465,6.496,23.035
	c1.675,5.438,3.871,10.717,6.508,15.764c2.176,4.166,4.646,8.18,7.416,11.969l6.811,9.322l1.422-0.576
	c-10.283-14.109-12.313-32.512-17.365-48.881C256.203,358.417,251.854,350.739,242.322,349.272z"/>
<path fill="#000616" d="M161.785,289.574c0.262-0.194,0.504-0.398,0.731-0.61c-0.247-0.412-0.499-0.821-0.761-1.226
	c-8.932-13.779-2.559-29.923,4.211-43.516c5.76-11.57,15.125-20.893,28.451-18.762c-0.055-0.057-0.115-0.104-0.17-0.161
	c-2.468-2.02-5.588-3.463-8.697-4.088c-3.821-0.491-7.882,0.195-11.305,1.651c-0.523,0.23-1.042,0.469-1.55,0.729
	c-0.107,0.055-0.216,0.107-0.322,0.163c-0.605,0.319-1.199,0.663-1.782,1.023c-0.169,0.105-0.336,0.214-0.503,0.322
	c-0.342,0.221-0.674,0.456-1.007,0.69c-4.663,3.341-8.033,7.895-10.726,13.172c-0.956,1.933-1.874,3.886-2.909,5.745
	c-2.545,4.555-5.314,8.996-7.627,13.681c-0.152,0.31-0.298,0.626-0.446,0.94c-0.187,0.399-0.375,0.797-0.554,1.2
	c-0.131,0.292-0.261,0.586-0.387,0.881c-0.086,0.202-0.174,0.404-0.258,0.608c-0.095,0.229-0.184,0.46-0.275,0.691
	c-0.216,0.547-0.425,1.099-0.623,1.657c-0.041,0.118-0.084,0.236-0.125,0.354c-0.124,0.361-0.244,0.725-0.359,1.089
	c-0.029,0.095-0.058,0.19-0.087,0.285c-0.347,1.129-0.642,2.274-0.872,3.429c-0.035,0.174-0.068,0.348-0.101,0.522
	c-0.059,0.322-0.114,0.645-0.161,0.967c-0.033,0.219-0.057,0.437-0.084,0.655c-0.057,0.459-0.101,0.919-0.133,1.379
	c-0.021,0.299-0.041,0.598-0.051,0.896c-0.008,0.242-0.008,0.485-0.008,0.728c0,0.309,0.007,0.618,0.02,0.927
	c0.009,0.216,0.017,0.433,0.032,0.648c0.036,0.501,0.085,1.001,0.159,1.499c0.016,0.105,0.039,0.209,0.057,0.314
	c0.07,0.426,0.154,0.851,0.254,1.273c0.043,0.18,0.092,0.358,0.139,0.537c0.098,0.361,0.207,0.721,0.326,1.078
	c0.059,0.173,0.112,0.346,0.176,0.516c0.177,0.48,0.373,0.958,0.596,1.432c0.077,0.164,0.165,0.32,0.247,0.48
	c0.146,0.289,0.304,0.577,0.468,0.863c2.828,4.833,7.833,7.895,13.549,6.622c0.297-0.097,0.592-0.21,0.883-0.343
	C160.742,290.273,161.271,289.96,161.785,289.574z"/>
</svg>
