<?xml version="1.0" encoding="utf-8"?>
<!-- Generator: Adobe Illustrator 15.1.0, SVG Export Plug-In . SVG Version: 6.00 Build 0)  -->
<!DOCTYPE svg PUBLIC "-//W3C//DTD SVG 1.1//EN" "http://www.w3.org/Graphics/SVG/1.1/DTD/svg11.dtd">
<svg version="1.1" id="圖層_1" xmlns="http://www.w3.org/2000/svg" xmlns:xlink="http://www.w3.org/1999/xlink" x="0px" y="0px"
	 width="177.665px" height="177.49px" viewBox="0 0 177.665 177.49" enable-background="new 0 0 177.665 177.49"
	 xml:space="preserve">
<g>
	<g>
		<path fill="#FFDA88" d="M32.071,97.914c0.258,0.514,0.437,1.075,0.525,1.663c0.265,1.773-0.335,3.46-1.649,4.627
			c-0.098,0.088-0.202,0.176-0.311,0.258c-1.019,0.787-2.362,1.095-3.686,0.847c-1.892-0.356-3.254-1.54-3.644-3.165
			c-0.358-1.505,0.204-3.086,1.435-4.031c0.707-0.544,1.634-0.762,2.544-0.6c1.346,0.24,2.318,1.079,2.602,2.242
			c0.262,1.079-0.139,2.215-1.023,2.895c-1.055,0.81-2.573,0.613-3.382-0.438c-0.275-0.354-0.21-0.869,0.149-1.146
			c0.356-0.273,0.869-0.209,1.144,0.15c0.261,0.339,0.753,0.4,1.096,0.139c0.372-0.286,0.542-0.761,0.431-1.214
			C28.174,99.618,27.7,99.244,27,99.118c-0.46-0.081-0.92,0.023-1.264,0.286c-0.721,0.555-1.051,1.48-0.84,2.359
			c0.24,0.993,1.097,1.703,2.358,1.94c0.879,0.166,1.726-0.023,2.386-0.534c0.077-0.058,0.15-0.118,0.221-0.183
			c0.896-0.797,1.303-1.951,1.121-3.17c-0.195-1.302-1.02-2.405-2.207-2.95l-0.14-0.063c-0.95-0.469-2.421-0.802-3.862-0.88
			c-4.656-0.221-6.292-3.161-6.498-3.611c-0.422-0.72-0.549-1.573-0.343-2.395c0.207-0.831,0.726-1.534,1.462-1.978
			c1.283-0.772,2.961-0.367,3.742,0.902c0.341,0.555,0.422,1.261,0.221,1.898c-0.286,0.916-0.969,1.524-1.824,1.627
			c-0.629,0.077-1.25-0.146-1.687-0.579c0.365,0.595,1.713,2.351,5.009,2.506c1.678,0.09,3.35,0.479,4.48,1.034l0.12,0.055
			C30.608,95.914,31.52,96.811,32.071,97.914z M19.468,90.715c0.061-0.176,0.18-0.331,0.35-0.434
			c0.386-0.233,0.887-0.111,1.121,0.275c0.082,0.139,0.24,0.214,0.4,0.194c0.207-0.024,0.371-0.201,0.463-0.496
			c0.059-0.191,0.045-0.388-0.053-0.554c-0.316-0.512-0.992-0.673-1.512-0.36c-0.362,0.219-0.62,0.565-0.721,0.977
			C19.482,90.448,19.467,90.581,19.468,90.715z"/>
		<path fill="#FFDA88" d="M81.111,148.189l0.054,0.12c0.556,1.129,0.944,2.804,1.035,4.48c0.156,3.297,1.911,4.645,2.506,5.01
			c-0.434-0.438-0.656-1.058-0.578-1.688c0.102-0.856,0.711-1.537,1.626-1.824c0.636-0.201,1.342-0.119,1.897,0.222
			c1.27,0.78,1.675,2.459,0.903,3.741c-0.444,0.736-1.147,1.256-1.978,1.464c-0.82,0.205-1.674,0.079-2.394-0.343
			c-0.451-0.207-3.391-1.843-3.612-6.498c-0.078-1.441-0.411-2.915-0.879-3.863l-0.063-0.141c-0.544-1.186-1.647-2.011-2.95-2.206
			c-1.218-0.183-2.373,0.226-3.169,1.121c-0.064,0.071-0.125,0.145-0.183,0.221c-0.512,0.659-0.7,1.508-0.535,2.386
			c0.238,1.262,0.947,2.119,1.94,2.358c0.881,0.211,1.806-0.119,2.36-0.84c0.263-0.347,0.369-0.806,0.286-1.265
			c-0.125-0.7-0.498-1.176-1.021-1.302c-0.452-0.111-0.928,0.058-1.214,0.431c-0.263,0.343-0.201,0.835,0.14,1.096
			c0.356,0.275,0.423,0.786,0.149,1.145c-0.277,0.357-0.792,0.423-1.146,0.149c-1.051-0.811-1.248-2.327-0.438-3.383
			c0.678-0.883,1.814-1.286,2.895-1.022c1.163,0.282,2,1.254,2.241,2.601c0.163,0.909-0.056,1.837-0.599,2.545
			c-0.945,1.229-2.528,1.792-4.033,1.433c-1.623-0.388-2.809-1.75-3.165-3.644c-0.25-1.323,0.06-2.665,0.846-3.685
			c0.083-0.109,0.17-0.212,0.257-0.311c1.169-1.313,2.855-1.914,4.628-1.649c0.589,0.087,1.149,0.268,1.663,0.525
			C79.687,146.126,80.583,147.039,81.111,148.189z M86.182,158.131c0.409-0.103,0.756-0.359,0.975-0.723
			c0.313-0.518,0.151-1.194-0.361-1.51c-0.164-0.099-0.362-0.114-0.553-0.054c-0.295,0.093-0.471,0.255-0.495,0.463
			c-0.02,0.161,0.056,0.317,0.194,0.401c0.385,0.232,0.509,0.734,0.276,1.119c-0.103,0.172-0.259,0.29-0.434,0.351
			C85.916,158.181,86.05,158.164,86.182,158.131z"/>
		<path fill="#FFDA88" d="M39.998,132.31c0.233,0.632,0.37,1.306,0.397,2.001c0.082,2.098-0.833,3.983-2.51,5.172
			c-0.125,0.089-0.257,0.179-0.394,0.261c-1.287,0.785-2.889,0.972-4.395,0.512c-2.156-0.656-3.587-2.208-3.833-4.147
			c-0.225-1.795,0.633-3.563,2.184-4.506c0.891-0.541,1.999-0.677,3.035-0.37c1.535,0.45,2.558,1.551,2.738,2.938
			c0.167,1.291-0.445,2.562-1.56,3.236c-1.331,0.806-3.071,0.383-3.878-0.944c-0.275-0.445-0.131-1.035,0.319-1.311
			c0.45-0.274,1.038-0.132,1.311,0.318c0.262,0.429,0.824,0.564,1.257,0.302c0.47-0.284,0.727-0.816,0.656-1.355
			c-0.082-0.624-0.585-1.119-1.383-1.354c-0.524-0.154-1.074-0.093-1.507,0.17c-0.91,0.553-1.413,1.586-1.281,2.638
			c0.152,1.185,1.059,2.119,2.495,2.56c1,0.305,2.011,0.191,2.845-0.317c0.096-0.059,0.189-0.12,0.28-0.185
			c1.145-0.813,1.766-2.103,1.71-3.544c-0.059-1.539-0.878-2.926-2.188-3.712l-0.154-0.092c-1.045-0.666-2.715-1.241-4.381-1.517
			c-5.386-0.852-6.914-4.483-7.094-5.032c-0.399-0.892-0.437-1.9-0.093-2.828c0.349-0.94,1.042-1.69,1.955-2.113
			c1.589-0.734,3.489-0.049,4.237,1.528c0.325,0.688,0.33,1.521,0.014,2.235c-0.45,1.029-1.321,1.649-2.33,1.659
			c-0.742,0.009-1.436-0.33-1.888-0.891c0.348,0.74,1.689,2.953,5.504,3.556c1.939,0.32,3.836,0.984,5.079,1.778l0.132,0.078
			C38.55,129.797,39.498,130.955,39.998,132.31z M26.261,122.322c0.092-0.196,0.25-0.361,0.461-0.46
			c0.479-0.221,1.046-0.014,1.268,0.466c0.079,0.17,0.252,0.278,0.443,0.276c0.243-0.003,0.455-0.186,0.6-0.517
			c0.094-0.215,0.102-0.447,0.009-0.65c-0.301-0.636-1.068-0.911-1.71-0.614c-0.45,0.209-0.794,0.58-0.966,1.044
			C26.312,122.015,26.275,122.169,26.261,122.322z"/>
		<path fill="#FFDA88" d="M48.064,140.411l0.078,0.135c0.781,1.273,1.423,3.206,1.717,5.176c0.548,3.873,2.768,5.271,3.51,5.635
			c-0.559-0.469-0.89-1.176-0.87-1.927c0.028-1.021,0.67-1.894,1.72-2.333c0.73-0.307,1.572-0.289,2.264,0.052
			c1.585,0.782,2.249,2.719,1.479,4.317c-0.442,0.917-1.214,1.608-2.174,1.945c-0.945,0.332-1.966,0.278-2.863-0.141
			c-0.554-0.193-4.207-1.801-4.98-7.272c-0.251-1.692-0.807-3.394-1.464-4.464l-0.091-0.156c-0.773-1.341-2.166-2.193-3.725-2.279
			c-1.458-0.082-2.777,0.527-3.617,1.673c-0.068,0.091-0.131,0.183-0.192,0.28c-0.529,0.837-0.661,1.858-0.369,2.878
			c0.422,1.462,1.353,2.396,2.551,2.57c1.063,0.149,2.118-0.341,2.693-1.253c0.273-0.435,0.347-0.99,0.198-1.523
			c-0.225-0.813-0.717-1.332-1.35-1.424c-0.546-0.081-1.089,0.172-1.385,0.643c-0.272,0.434-0.144,1.008,0.286,1.278
			c0.451,0.285,0.585,0.882,0.301,1.335c-0.286,0.452-0.887,0.586-1.334,0.301c-1.33-0.84-1.729-2.609-0.891-3.944
			c0.704-1.117,2-1.717,3.305-1.526c1.404,0.205,2.5,1.26,2.934,2.823c0.292,1.055,0.137,2.175-0.427,3.069
			c-0.98,1.556-2.786,2.395-4.602,2.137c-1.96-0.279-3.508-1.756-4.138-3.951c-0.441-1.534-0.225-3.153,0.592-4.445
			c0.086-0.136,0.177-0.268,0.269-0.393c1.234-1.68,3.159-2.575,5.282-2.457c0.705,0.039,1.385,0.188,2.021,0.436
			C46.154,138.131,47.313,139.109,48.064,140.411z M55.146,151.586c0.472-0.167,0.853-0.508,1.072-0.96
			c0.311-0.646,0.045-1.43-0.592-1.744c-0.207-0.098-0.442-0.094-0.66-0.002c-0.338,0.141-0.528,0.354-0.535,0.601
			c-0.005,0.191,0.103,0.369,0.273,0.452c0.481,0.231,0.683,0.811,0.451,1.292c-0.104,0.213-0.274,0.37-0.475,0.46
			C54.837,151.673,54.995,151.639,55.146,151.586z"/>
		<path fill="#FFDA88" d="M24.446,77.687c0.265,1.451,0.504,2.911,0.801,4.358l1.035,4.314c0.078,0.361,0.189,0.714,0.296,1.068
			l0.323,1.061l0.653,2.123l0.328,1.062l0.385,1.042l0.771,2.083c2.097,5.545,4.817,10.851,7.979,15.872
			c3.188,5.008,6.874,9.695,10.936,14.021c4.093,4.299,8.553,8.244,13.334,11.752c4.794,3.485,9.863,6.599,15.197,9.172
			c5.318,2.596,10.883,4.688,16.6,6.183c0.358,0.09,0.711,0.198,1.072,0.274l1.083,0.238l2.164,0.472l2.182,0.372
			c0.729,0.126,1.452,0.251,2.189,0.316c2.922,0.398,5.878,0.489,8.809,0.422l-2.193-0.156c-0.365-0.032-0.73-0.04-1.095-0.09
			l-1.089-0.145c-0.725-0.098-1.451-0.164-2.172-0.286l-2.158-0.386c-0.72-0.113-1.43-0.288-2.142-0.449l-2.133-0.484l-2.108-0.584
			l-1.051-0.292c-0.352-0.095-0.694-0.222-1.043-0.331l-2.08-0.668c-0.697-0.206-1.372-0.488-2.056-0.731l-2.047-0.755l-2.015-0.844
			c-0.669-0.287-1.351-0.543-2.005-0.857l-1.981-0.914l-0.99-0.455c-0.329-0.154-0.649-0.328-0.974-0.49l-1.941-0.992
			c-5.137-2.718-10.077-5.809-14.696-9.323c-4.632-3.493-8.987-7.355-12.952-11.585c-3.995-4.2-7.603-8.763-10.772-13.614
			c-0.838-1.184-1.55-2.446-2.303-3.686c-0.366-0.624-0.762-1.233-1.105-1.872l-1.02-1.92l-1.02-1.921l-0.921-1.97l-0.928-1.969
			l-0.233-0.491l-0.206-0.503l-0.41-1.01c-2.223-5.359-4.009-10.925-5.164-16.641c-1.206-5.707-1.87-11.526-2.18-17.392
			C23.189,65.951,23.544,71.851,24.446,77.687z"/>
		<g>
			<polygon fill="#FFDA88" points="27.5,115.157 27.5,115.156 27.5,115.156 			"/>
			<polygon fill="#FFDA88" points="27.121,105.953 27.121,105.953 27.122,105.953 			"/>
			<path fill="#FFDA88" d="M27.121,105.953c-0.187,0.107-0.371,0.222-0.55,0.344c-1.705,1.145-2.841,3.02-3.128,5.141
				c-0.058,0.422-0.086,0.838-0.086,1.245c-0.003,2.484,1.074,4.639,3.014,5.844c1.002,0.623,2.136,0.933,3.271,0.933
				c1.218,0,2.436-0.357,3.486-1.067c1.157-0.782,1.933-2.049,2.143-3.476c0.045-0.31,0.067-0.616,0.067-0.915
				c0.003-1.701-0.738-3.198-2.088-4.043c-0.706-0.443-1.506-0.663-2.307-0.663c-0.852,0-1.705,0.25-2.442,0.748
				c-1.054,0.713-1.625,1.881-1.625,3.064c0,0.706,0.203,1.422,0.626,2.05c0.199,0.297,0.528,0.457,0.859,0.456
				c0.198,0.001,0.4-0.058,0.577-0.176c0.295-0.2,0.456-0.526,0.456-0.858c0-0.198-0.058-0.4-0.177-0.578
				c-0.186-0.274-0.274-0.585-0.274-0.895c0.001-0.522,0.25-1.036,0.717-1.352c0.387-0.262,0.834-0.393,1.283-0.393
				c0.418,0,0.838,0.116,1.208,0.348c0.362,0.228,0.637,0.536,0.827,0.918c0.189,0.381,0.293,0.839,0.293,1.36
				c0,0.2-0.016,0.411-0.047,0.629c-0.125,0.861-0.587,1.61-1.253,2.06c-0.702,0.474-1.515,0.713-2.329,0.713
				c-0.757,0-1.514-0.207-2.179-0.621c-0.663-0.409-1.167-0.969-1.512-1.651c-0.345-0.685-0.529-1.496-0.529-2.407
				c0-0.319,0.023-0.651,0.071-0.994c0.214-1.574,1.008-2.879,2.234-3.703v-0.001c0.139-0.094,0.28-0.183,0.425-0.265l0,0
				c0.945-0.543,1.972-0.814,3.013-0.814c0.966,0,1.944,0.234,2.875,0.708c2.05,1.043,3.417,3.015,3.663,5.277l0.031,0.274v0.003
				l0.001,0.006c0.059,0.433,0.088,0.921,0.088,1.446c0.001,1.556-0.26,3.436-0.742,5.191l0.001-0.003
				c-0.439,1.563-0.617,2.979-0.617,4.24c0,2.352,0.617,4.172,1.28,5.44c0.657,1.261,1.356,1.98,1.55,2.166
				c0.075,0.086,0.151,0.169,0.229,0.247l0.256-0.253l-0.256,0.254c0.841,0.841,1.947,1.352,3.146,1.444
				c0.131,0.01,0.263,0.016,0.394,0.016c1.192,0.001,2.341-0.422,3.259-1.206c0.977-0.835,1.481-2.027,1.48-3.223
				c0.001-0.953-0.32-1.916-0.977-2.699l0,0c-0.642-0.76-1.616-1.211-2.634-1.23h-0.002l-0.08-0.001c-0.7,0-1.347,0.165-1.891,0.48
				c-0.544,0.314-0.983,0.778-1.255,1.356c-0.198,0.419-0.295,0.869-0.295,1.314c0,0.717,0.25,1.427,0.733,1.992l0.001,0.002
				c0.206,0.237,0.496,0.363,0.786,0.363c0.238,0,0.478-0.085,0.671-0.25c0.239-0.203,0.363-0.495,0.362-0.785
				c0-0.238-0.081-0.479-0.247-0.672l0,0c-0.157-0.184-0.239-0.415-0.239-0.65c0-0.146,0.032-0.293,0.096-0.431
				c0.097-0.202,0.247-0.355,0.458-0.471c0.211-0.114,0.486-0.183,0.818-0.183l0.045,0.001h-0.001
				c0.431,0.007,0.843,0.2,1.087,0.491c0.332,0.397,0.494,0.883,0.496,1.371c-0.001,0.613-0.258,1.223-0.757,1.649
				c-0.544,0.464-1.213,0.71-1.917,0.711c-0.077,0-0.154-0.003-0.233-0.009c-0.787-0.063-1.496-0.423-2.006-1.02l-0.006-0.008
				l-0.065-0.068l-0.006-0.006l-0.002-0.003c-0.084-0.083-2.209-2.095-2.21-6.132c0.001-1.079,0.153-2.306,0.54-3.684l0-0.002
				c0.535-1.954,0.818-3.981,0.82-5.728c0-0.609-0.037-1.184-0.108-1.714h0.001l-0.029-0.255c-0.322-2.96-2.111-5.54-4.782-6.897
				c-1.224-0.621-2.524-0.934-3.814-0.934C29.766,104.86,28.382,105.228,27.121,105.953z"/>
		</g>
		<g>
			<path fill="#FFDA88" d="M61.624,148.123L61.624,148.123L61.624,148.123z"/>
			<polygon fill="#FFDA88" points="61.903,149.56 61.903,149.56 61.901,149.56 			"/>
			<path fill="#FFDA88" d="M44.878,130.737c-0.784,0.919-1.208,2.067-1.208,3.261c0,0.132,0.006,0.261,0.016,0.393
				c0.092,1.198,0.603,2.306,1.444,3.146l0.256-0.255l-0.256,0.255c0.08,0.079,0.163,0.156,0.249,0.229
				c0.191,0.2,0.91,0.897,2.167,1.554c1.268,0.662,3.085,1.278,5.435,1.278c1.262,0,2.676-0.179,4.239-0.617l-0.002,0.001
				c1.758-0.481,3.634-0.743,5.197-0.742c0.531,0,1.025,0.03,1.463,0.089l0.005,0.002l0.26,0.026l0,0
				c2.264,0.249,4.235,1.616,5.277,3.664c0.473,0.932,0.707,1.909,0.707,2.875c0,1.041-0.271,2.069-0.815,3.015
				c-0.083,0.145-0.169,0.284-0.263,0.423l-0.002,0.002c-0.824,1.227-2.128,2.019-3.703,2.234c-0.341,0.047-0.671,0.068-0.989,0.068
				c-0.911,0-1.723-0.184-2.408-0.528c-0.685-0.347-1.246-0.852-1.657-1.511c-0.414-0.665-0.619-1.422-0.619-2.181
				c0-0.813,0.238-1.625,0.712-2.328c0.45-0.666,1.2-1.127,2.061-1.252c0.217-0.032,0.428-0.049,0.628-0.049
				c0.521,0,0.979,0.104,1.362,0.294c0.381,0.19,0.688,0.465,0.917,0.827c0.23,0.37,0.346,0.787,0.346,1.208
				c0,0.448-0.131,0.895-0.393,1.284c-0.315,0.465-0.828,0.715-1.35,0.716c-0.311-0.001-0.621-0.088-0.896-0.274h-0.001
				c-0.176-0.118-0.378-0.178-0.578-0.176c-0.33-0.002-0.658,0.159-0.856,0.454c-0.12,0.177-0.178,0.38-0.177,0.578
				c-0.001,0.331,0.16,0.659,0.457,0.858c0.627,0.423,1.343,0.626,2.05,0.625c1.184,0.001,2.35-0.569,3.065-1.624
				c0.497-0.736,0.748-1.589,0.748-2.441c0-0.8-0.219-1.602-0.664-2.306c-0.846-1.35-2.34-2.093-4.045-2.089
				c-0.297,0-0.604,0.021-0.913,0.066c-1.426,0.209-2.692,0.984-3.476,2.142c-0.711,1.051-1.067,2.269-1.067,3.486
				c0,1.135,0.311,2.271,0.933,3.272c1.203,1.939,3.36,3.017,5.846,3.013c0.406,0,0.821-0.028,1.243-0.085
				c2.119-0.286,3.996-1.424,5.14-3.128c0.122-0.18,0.237-0.363,0.344-0.55v0.001c0.725-1.262,1.091-2.646,1.091-4.043
				c0-1.289-0.313-2.59-0.935-3.814c-1.356-2.67-3.936-4.459-6.897-4.782l-0.236-0.025v0.001c-0.536-0.074-1.117-0.109-1.731-0.109
				c-1.752,0-3.778,0.285-5.732,0.819l-0.002,0.001c-1.375,0.387-2.598,0.537-3.675,0.537c-2.021,0-3.531-0.533-4.551-1.075
				c-0.509-0.271-0.896-0.545-1.159-0.755c-0.132-0.105-0.234-0.193-0.304-0.261c-0.071-0.065-0.108-0.104-0.124-0.118l-0.064-0.064
				l-0.01-0.008l-0.01-0.01c-0.598-0.508-0.957-1.216-1.018-2.003v-0.001c-0.006-0.077-0.009-0.152-0.009-0.231
				c0-0.703,0.248-1.374,0.711-1.918c0.426-0.499,1.035-0.757,1.648-0.757c0.489,0,0.974,0.161,1.372,0.495
				c0.289,0.242,0.486,0.657,0.492,1.087v-0.004v0.048c0,0.332-0.069,0.608-0.182,0.817c-0.114,0.213-0.269,0.361-0.472,0.458
				c-0.138,0.063-0.284,0.096-0.432,0.096c-0.234,0-0.465-0.081-0.648-0.237v-0.001c-0.194-0.165-0.435-0.248-0.67-0.247
				c-0.292-0.001-0.584,0.124-0.788,0.363c-0.165,0.193-0.245,0.434-0.245,0.667c0,0.292,0.123,0.583,0.357,0.788l0.003,0.002
				c0.565,0.483,1.275,0.732,1.992,0.732c0.446,0,0.896-0.096,1.313-0.295c0.579-0.272,1.045-0.711,1.357-1.254
				c0.315-0.544,0.481-1.191,0.481-1.89l-0.001-0.083c-0.02-1.019-0.471-1.992-1.229-2.633l-0.002-0.001
				c-0.783-0.655-1.746-0.979-2.698-0.979C46.905,129.257,45.711,129.761,44.878,130.737z"/>
		</g>
		<path fill="#FFDA88" d="M57.97,117.856c-0.1,0.022-1.154,0.261-2.395,0.79c-1.24,0.534-2.675,1.347-3.517,2.593
			c-0.325,0.481-0.489,1.021-0.489,1.556c0,0.69,0.277,1.37,0.802,1.894l0,0l0,0l0,0l0,0c0.523,0.525,1.204,0.801,1.894,0.801
			c0.535,0,1.075-0.163,1.556-0.488c1.246-0.842,2.059-2.277,2.592-3.516c0.529-1.242,0.769-2.297,0.79-2.397
			c0.015-0.067,0.021-0.137,0.021-0.203c-0.001-0.291-0.129-0.549-0.315-0.735c-0.186-0.186-0.443-0.315-0.734-0.315
			C58.108,117.834,58.039,117.842,57.97,117.856z M53.772,122.396l0.002-0.002c0.348-0.521,0.945-0.983,1.605-1.354
			c0.398-0.226,0.817-0.414,1.213-0.572c-0.17,0.418-0.371,0.854-0.605,1.261c-0.375,0.654-0.831,1.231-1.319,1.558
			c-0.157,0.105-0.284,0.135-0.396,0.136c-0.167,0.001-0.325-0.08-0.438-0.193c-0.116-0.114-0.195-0.272-0.194-0.439
			C53.639,122.678,53.669,122.552,53.772,122.396z"/>
		<g>
			<path fill="#FFDA88" d="M31.918,141.774c-0.535,0-1.074,0.163-1.557,0.488c-1.245,0.842-2.058,2.276-2.591,3.517
				c-0.526,1.233-0.766,2.283-0.79,2.393c-0.016,0.07-0.023,0.14-0.022,0.208c0.001,0.29,0.128,0.548,0.315,0.734
				c0.187,0.186,0.444,0.313,0.735,0.315c0.068,0,0.137-0.008,0.206-0.022l-0.001,0.001c0.101-0.022,1.154-0.261,2.397-0.791
				c1.239-0.533,2.675-1.347,3.517-2.591c0.323-0.482,0.487-1.021,0.487-1.557c0-0.69-0.275-1.37-0.8-1.895l-0.256,0.256
				l0.256-0.256C33.288,142.05,32.609,141.773,31.918,141.774z M32.41,144.868l-0.001,0.004c-0.347,0.52-0.945,0.983-1.605,1.354
				c-0.4,0.224-0.817,0.412-1.214,0.571c0.172-0.418,0.372-0.853,0.606-1.261c0.374-0.654,0.829-1.231,1.32-1.559
				c0.156-0.104,0.283-0.134,0.396-0.135c0.167-0.001,0.325,0.08,0.439,0.193c0.114,0.114,0.195,0.272,0.194,0.439
				C32.543,144.587,32.513,144.714,32.41,144.868z"/>
			<polygon fill="#FFDA88" points="26.98,148.177 26.98,148.174 26.98,148.173 			"/>
		</g>
		<g>
			<path fill="#FFDA88" d="M159.83,154.198c-11.378,0.213-22.753,0.303-34.13,0.457l-34.13,0.261
				c-11.377,0.113-22.753,0.093-34.13,0.135l-34.129,0.085l-0.941,0.002l0.003-0.941l0.084-34.128
				c0.044-11.376,0.017-22.753,0.131-34.129l0.261-34.129c0.156-11.377,0.248-22.754,0.461-34.131
				c0.213,11.376,0.305,22.754,0.46,34.131l0.262,34.129c0.114,11.376,0.087,22.753,0.133,34.129l0.083,34.13l-0.938-0.938
				l34.129,0.084c11.377,0.043,22.753,0.021,34.13,0.134l34.129,0.262C137.076,153.896,148.452,153.986,159.83,154.198z"/>
		</g>
	</g>
</g>
</svg>
