<?xml version="1.0" encoding="utf-8"?>
<!-- Generator: Adobe Illustrator 15.1.0, SVG Export Plug-In . SVG Version: 6.00 Build 0)  -->
<!DOCTYPE svg PUBLIC "-//W3C//DTD SVG 1.1//EN" "http://www.w3.org/Graphics/SVG/1.1/DTD/svg11.dtd">
<svg version="1.1" id="圖層_1" xmlns="http://www.w3.org/2000/svg" xmlns:xlink="http://www.w3.org/1999/xlink" x="0px" y="0px"
	 width="177.665px" height="177.49px" viewBox="0 0 177.665 177.49" enable-background="new 0 0 177.665 177.49"
	 xml:space="preserve">
<g>
	<g>
		<path fill="#FFDA88" d="M79.664,31.983c-0.515,0.259-1.076,0.437-1.664,0.525c-1.773,0.265-3.46-0.335-4.628-1.648
			c-0.087-0.098-0.174-0.203-0.257-0.311c-0.787-1.019-1.095-2.363-0.846-3.686c0.356-1.893,1.54-3.254,3.165-3.645
			c1.504-0.358,3.086,0.203,4.031,1.435c0.544,0.707,0.762,1.634,0.6,2.544c-0.24,1.347-1.079,2.318-2.242,2.602
			c-1.08,0.263-2.216-0.139-2.894-1.023c-0.81-1.055-0.613-2.573,0.438-3.381c0.353-0.275,0.869-0.21,1.145,0.148
			c0.274,0.356,0.208,0.869-0.15,1.144c-0.339,0.261-0.401,0.752-0.139,1.096c0.286,0.371,0.762,0.542,1.214,0.43
			c0.522-0.127,0.896-0.602,1.022-1.301c0.081-0.46-0.023-0.92-0.287-1.264c-0.553-0.722-1.479-1.051-2.359-0.841
			c-0.993,0.24-1.702,1.097-1.941,2.358c-0.166,0.879,0.024,1.726,0.534,2.386c0.059,0.077,0.12,0.15,0.184,0.22
			c0.797,0.896,1.951,1.304,3.17,1.122c1.302-0.195,2.405-1.02,2.95-2.208l0.063-0.14c0.468-0.951,0.801-2.421,0.879-3.863
			c0.22-4.656,3.162-6.292,3.612-6.498c0.72-0.422,1.573-0.549,2.394-0.343c0.831,0.207,1.535,0.726,1.979,1.462
			c0.771,1.283,0.367,2.961-0.903,3.743c-0.554,0.341-1.261,0.421-1.898,0.221c-0.918-0.285-1.526-0.966-1.63-1.821
			c-0.076-0.629,0.146-1.25,0.58-1.688c-0.594,0.365-2.35,1.713-2.505,5.009c-0.091,1.678-0.479,3.351-1.035,4.481l-0.054,0.12
			C81.664,30.52,80.766,31.432,79.664,31.983z M86.863,19.381c0.175,0.06,0.331,0.179,0.434,0.35
			c0.233,0.385,0.11,0.887-0.276,1.121c-0.137,0.083-0.213,0.24-0.194,0.401c0.024,0.207,0.201,0.37,0.496,0.462
			c0.191,0.059,0.389,0.045,0.554-0.053c0.512-0.316,0.673-0.992,0.361-1.511c-0.219-0.363-0.566-0.62-0.976-0.722
			C87.129,19.395,86.997,19.38,86.863,19.381z"/>
		<path fill="#FFDA88" d="M29.387,81.023l-0.119,0.055c-1.131,0.556-2.804,0.944-4.482,1.034c-3.296,0.156-4.644,1.911-5.008,2.506
			c0.438-0.435,1.057-0.656,1.687-0.578c0.856,0.102,1.538,0.711,1.824,1.626c0.201,0.636,0.12,1.343-0.222,1.897
			c-0.781,1.271-2.459,1.676-3.741,0.903c-0.736-0.444-1.255-1.147-1.463-1.979c-0.206-0.82-0.079-1.673,0.343-2.394
			c0.206-0.45,1.842-3.391,6.498-3.612c1.442-0.079,2.915-0.412,3.863-0.879l0.14-0.064c1.187-0.544,2.011-1.647,2.207-2.95
			c0.183-1.218-0.226-2.373-1.121-3.169c-0.071-0.064-0.144-0.124-0.221-0.184c-0.66-0.511-1.508-0.7-2.386-0.534
			c-1.261,0.238-2.118,0.947-2.357,1.94c-0.21,0.88,0.119,1.806,0.84,2.359c0.346,0.264,0.806,0.369,1.264,0.286
			c0.701-0.125,1.175-0.499,1.302-1.021c0.111-0.452-0.058-0.928-0.43-1.214c-0.343-0.263-0.835-0.201-1.096,0.14
			c-0.276,0.356-0.787,0.423-1.145,0.149c-0.357-0.277-0.423-0.792-0.149-1.146c0.81-1.05,2.326-1.247,3.382-0.438
			c0.883,0.678,1.286,1.814,1.022,2.894c-0.283,1.164-1.254,2.001-2.601,2.242c-0.909,0.162-1.837-0.057-2.545-0.599
			c-1.229-0.946-1.792-2.528-1.433-4.033c0.388-1.623,1.75-2.809,3.644-3.165c1.323-0.25,2.666,0.06,3.686,0.847
			c0.108,0.083,0.212,0.17,0.311,0.257c1.313,1.169,1.914,2.854,1.648,4.628c-0.087,0.589-0.267,1.149-0.525,1.664
			C31.45,79.599,30.538,80.495,29.387,81.023z M19.446,86.094c0.103,0.409,0.359,0.756,0.722,0.975
			c0.518,0.313,1.195,0.151,1.511-0.36c0.098-0.164,0.114-0.362,0.053-0.553c-0.092-0.295-0.255-0.47-0.462-0.495
			c-0.161-0.02-0.318,0.056-0.402,0.193c-0.232,0.385-0.734,0.51-1.119,0.277c-0.171-0.103-0.29-0.259-0.35-0.435
			C19.397,85.828,19.413,85.962,19.446,86.094z"/>
		<path fill="#FFDA88" d="M45.267,39.91c-0.631,0.233-1.306,0.37-2.001,0.396c-2.098,0.082-3.982-0.833-5.172-2.509
			c-0.09-0.126-0.178-0.258-0.26-0.394c-0.785-1.286-0.972-2.889-0.513-4.395c0.657-2.156,2.209-3.587,4.148-3.833
			c1.795-0.225,3.564,0.633,4.507,2.184c0.541,0.891,0.677,1.998,0.37,3.035c-0.451,1.535-1.551,2.558-2.94,2.738
			c-1.29,0.167-2.56-0.446-3.235-1.561c-0.806-1.33-0.383-3.07,0.943-3.877c0.446-0.275,1.036-0.131,1.312,0.319
			c0.274,0.451,0.131,1.039-0.319,1.312c-0.428,0.261-0.563,0.824-0.302,1.257c0.285,0.47,0.817,0.727,1.356,0.656
			c0.624-0.082,1.119-0.585,1.354-1.383c0.153-0.523,0.092-1.073-0.171-1.506c-0.552-0.911-1.586-1.413-2.637-1.281
			c-1.185,0.152-2.12,1.059-2.559,2.495c-0.305,1-0.192,2.011,0.317,2.845c0.058,0.096,0.12,0.189,0.185,0.279
			c0.812,1.145,2.103,1.767,3.543,1.711c1.54-0.06,2.927-0.879,3.712-2.188l0.091-0.155c0.667-1.044,1.242-2.715,1.517-4.38
			c0.852-5.387,4.483-6.914,5.033-7.095c0.891-0.399,1.899-0.437,2.827-0.093c0.941,0.349,1.691,1.042,2.113,1.956
			c0.734,1.589,0.049,3.489-1.529,4.236c-0.688,0.325-1.52,0.33-2.235,0.015c-1.029-0.45-1.649-1.322-1.659-2.33
			c-0.009-0.743,0.331-1.436,0.89-1.888c-0.739,0.348-2.953,1.689-3.555,5.504c-0.32,1.939-0.984,3.836-1.778,5.08l-0.077,0.132
			C47.78,38.462,46.622,39.41,45.267,39.91z M55.254,26.172c0.196,0.092,0.362,0.25,0.461,0.462
			c0.221,0.479,0.014,1.046-0.467,1.268c-0.169,0.079-0.278,0.252-0.277,0.443c0.003,0.242,0.187,0.455,0.517,0.6
			c0.215,0.094,0.448,0.102,0.651,0.009c0.636-0.301,0.911-1.068,0.614-1.71c-0.208-0.451-0.579-0.794-1.043-0.966
			C55.563,26.223,55.409,26.187,55.254,26.172z"/>
		<path fill="#FFDA88" d="M37.167,47.976l-0.135,0.077c-1.274,0.782-3.207,1.423-5.176,1.717c-3.874,0.548-5.271,2.768-5.635,3.511
			c0.469-0.56,1.176-0.891,1.928-0.871c1.021,0.028,1.893,0.67,2.333,1.72c0.306,0.729,0.289,1.572-0.052,2.264
			c-0.782,1.585-2.718,2.249-4.317,1.478c-0.917-0.443-1.608-1.215-1.945-2.174c-0.332-0.946-0.279-1.966,0.142-2.863
			c0.192-0.554,1.8-4.207,7.271-4.981c1.693-0.251,3.394-0.806,4.464-1.464L36.2,46.3c1.341-0.773,2.194-2.166,2.28-3.725
			c0.081-1.458-0.529-2.777-1.674-3.617c-0.09-0.068-0.183-0.131-0.28-0.192c-0.837-0.53-1.858-0.661-2.877-0.369
			c-1.463,0.421-2.397,1.353-2.57,2.551c-0.15,1.063,0.34,2.118,1.252,2.693c0.435,0.273,0.99,0.346,1.522,0.198
			c0.813-0.225,1.332-0.718,1.425-1.35c0.081-0.546-0.172-1.089-0.643-1.386c-0.434-0.272-1.008-0.144-1.279,0.286
			c-0.285,0.452-0.882,0.586-1.334,0.302c-0.452-0.286-0.586-0.887-0.301-1.334c0.84-1.33,2.609-1.729,3.944-0.891
			c1.118,0.703,1.717,2,1.526,3.304c-0.205,1.404-1.26,2.5-2.823,2.934c-1.055,0.292-2.175,0.137-3.069-0.426
			c-1.556-0.98-2.395-2.786-2.137-4.602c0.28-1.96,1.756-3.508,3.951-4.138c1.534-0.441,3.153-0.225,4.445,0.592
			c0.136,0.086,0.268,0.177,0.393,0.269c1.68,1.234,2.576,3.159,2.457,5.282c-0.039,0.705-0.188,1.385-0.436,2.021
			C39.446,46.066,38.468,47.225,37.167,47.976z M25.991,55.057c0.168,0.472,0.508,0.853,0.96,1.072
			c0.646,0.312,1.429,0.046,1.744-0.592c0.098-0.206,0.093-0.441,0.002-0.66c-0.142-0.337-0.354-0.528-0.601-0.535
			c-0.192-0.005-0.37,0.103-0.452,0.273c-0.232,0.482-0.812,0.683-1.292,0.451c-0.213-0.104-0.37-0.274-0.459-0.475
			C25.904,54.75,25.938,54.906,25.991,55.057z"/>
		<path fill="#FFDA88" d="M99.889,24.357c-1.45,0.265-2.91,0.505-4.356,0.802l-4.314,1.035c-0.361,0.077-0.714,0.189-1.068,0.296
			l-1.062,0.323l-2.122,0.653l-1.062,0.328l-1.042,0.385l-2.083,0.771c-5.545,2.097-10.85,4.816-15.871,7.979
			c-5.008,3.188-9.696,6.874-14.022,10.936c-4.298,4.093-8.244,8.554-11.751,13.334c-3.486,4.794-6.6,9.863-9.172,15.198
			c-2.596,5.318-4.688,10.883-6.183,16.6c-0.091,0.357-0.198,0.712-0.276,1.071l-0.236,1.084l-0.472,2.164l-0.373,2.182
			c-0.125,0.729-0.25,1.453-0.317,2.188c-0.397,2.924-0.488,5.879-0.421,8.811l0.157-2.194c0.032-0.365,0.041-0.73,0.09-1.095
			l0.143-1.089c0.099-0.726,0.165-1.452,0.287-2.172l0.386-2.158c0.113-0.721,0.288-1.43,0.449-2.143l0.485-2.133l0.583-2.107
			l0.292-1.052c0.095-0.352,0.221-0.693,0.331-1.042l0.668-2.08c0.207-0.696,0.488-1.371,0.732-2.056l0.756-2.047l0.843-2.015
			c0.288-0.668,0.543-1.35,0.858-2.004l0.913-1.982l0.456-0.991c0.154-0.328,0.329-0.648,0.491-0.973l0.992-1.941
			c2.717-5.138,5.807-10.077,9.322-14.696c3.494-4.632,7.355-8.987,11.584-12.952c4.2-3.995,8.763-7.604,13.615-10.772
			c1.184-0.838,2.447-1.551,3.686-2.303c0.625-0.366,1.233-0.762,1.872-1.105l1.92-1.02l1.921-1.021l1.969-0.921l1.969-0.928
			l0.492-0.232l0.503-0.206l1.008-0.409c5.359-2.224,10.926-4.009,16.641-5.164c5.707-1.207,11.527-1.871,17.393-2.18
			C111.626,23.102,105.726,23.456,99.889,24.357z"/>
		<g>
			<polygon fill="#FFDA88" points="62.42,27.413 62.42,27.413 62.42,27.413 			"/>
			<polygon fill="#FFDA88" points="71.624,27.033 71.624,27.033 71.624,27.033 			"/>
			<path fill="#FFDA88" d="M71.624,27.033c-0.107-0.187-0.221-0.371-0.343-0.55c-1.145-1.705-3.02-2.841-5.141-3.129
				c-0.422-0.058-0.838-0.086-1.245-0.086c-2.485-0.003-4.64,1.074-5.843,3.015c-0.623,1.001-0.933,2.136-0.933,3.271
				c0,1.218,0.357,2.436,1.067,3.487c0.782,1.157,2.049,1.933,3.475,2.142c0.311,0.045,0.616,0.067,0.915,0.067
				c1.703,0.003,3.198-0.738,4.044-2.089c0.443-0.706,0.663-1.506,0.663-2.307c0-0.852-0.25-1.705-0.748-2.442
				c-0.713-1.055-1.881-1.625-3.065-1.625c-0.706,0-1.421,0.203-2.049,0.626c-0.297,0.198-0.457,0.528-0.456,0.859
				c0,0.198,0.057,0.4,0.176,0.577c0.199,0.295,0.527,0.456,0.858,0.456c0.198,0,0.401-0.057,0.578-0.176
				c0.275-0.186,0.585-0.275,0.896-0.275c0.521,0.001,1.035,0.25,1.35,0.717c0.262,0.386,0.393,0.834,0.393,1.283
				c0,0.418-0.116,0.839-0.347,1.208c-0.228,0.362-0.536,0.637-0.917,0.826c-0.382,0.189-0.84,0.293-1.361,0.293
				c-0.201,0-0.412-0.016-0.628-0.047c-0.862-0.125-1.611-0.587-2.059-1.252c-0.475-0.702-0.714-1.515-0.714-2.329
				c0-0.756,0.208-1.513,0.621-2.179c0.41-0.663,0.969-1.167,1.652-1.512c0.684-0.345,1.496-0.529,2.407-0.529
				c0.319,0,0.651,0.022,0.994,0.07c1.575,0.214,2.878,1.008,3.704,2.234h0c0.094,0.139,0.182,0.28,0.265,0.425l0,0
				c0.542,0.946,0.813,1.972,0.813,3.013c0,0.965-0.233,1.943-0.708,2.875c-1.043,2.049-3.015,3.417-5.277,3.663l-0.274,0.03h-0.002
				l-0.007,0.002c-0.432,0.058-0.92,0.088-1.446,0.088c-1.556,0-3.435-0.26-5.191-0.742l0.002,0
				c-1.563-0.439-2.979-0.617-4.24-0.617c-2.352,0-4.172,0.617-5.44,1.28c-1.26,0.658-1.98,1.357-2.166,1.55
				c-0.085,0.075-0.169,0.151-0.248,0.229l0.254,0.256l-0.255-0.255c-0.841,0.841-1.35,1.947-1.443,3.146
				c-0.01,0.131-0.016,0.263-0.016,0.394c0,1.192,0.422,2.342,1.207,3.259c0.834,0.977,2.027,1.481,3.222,1.48
				c0.954,0.001,1.916-0.32,2.699-0.978l0,0c0.76-0.642,1.21-1.616,1.23-2.634v-0.001l0-0.08c0-0.7-0.166-1.347-0.48-1.89
				c-0.314-0.545-0.778-0.983-1.357-1.255c-0.418-0.198-0.868-0.294-1.313-0.294c-0.717,0-1.427,0.25-1.992,0.733L47.4,41.317
				c-0.237,0.206-0.363,0.495-0.362,0.786c-0.001,0.238,0.084,0.478,0.249,0.67c0.204,0.239,0.496,0.363,0.787,0.362
				c0.237,0,0.478-0.082,0.672-0.247l0,0c0.183-0.157,0.415-0.238,0.65-0.238c0.145,0,0.292,0.032,0.43,0.096
				c0.203,0.097,0.356,0.248,0.471,0.458c0.115,0.211,0.183,0.486,0.183,0.818l-0.001,0.046v-0.001
				c-0.006,0.431-0.2,0.842-0.491,1.086c-0.398,0.333-0.883,0.495-1.371,0.496c-0.614-0.001-1.222-0.258-1.65-0.757
				c-0.463-0.544-0.71-1.213-0.711-1.917c0-0.077,0.003-0.155,0.01-0.233c0.062-0.788,0.422-1.496,1.02-2.007l0.007-0.006
				l0.068-0.064l0.006-0.006l0.002-0.003c0.083-0.084,2.096-2.208,6.132-2.21c1.079,0,2.305,0.153,3.683,0.54l0.002,0.001
				c1.954,0.534,3.981,0.817,5.727,0.819c0.609,0,1.184-0.036,1.714-0.108v0l0.255-0.029c2.959-0.321,5.54-2.111,6.897-4.782
				c0.622-1.224,0.935-2.524,0.935-3.814C72.716,29.678,72.35,28.293,71.624,27.033z"/>
		</g>
		<g>
			<path fill="#FFDA88" d="M29.454,61.536L29.454,61.536L29.454,61.536z"/>
			<polygon fill="#FFDA88" points="28.018,61.815 28.018,61.815 28.018,61.814 			"/>
			<path fill="#FFDA88" d="M46.839,44.789c-0.918-0.784-2.066-1.207-3.26-1.207c-0.131,0-0.262,0.006-0.393,0.016
				c-1.198,0.092-2.305,0.603-3.146,1.444l0.256,0.256l-0.256-0.256c-0.079,0.08-0.156,0.162-0.23,0.249
				c-0.199,0.191-0.896,0.91-1.553,2.167c-0.662,1.268-1.278,3.085-1.278,5.435c0,1.261,0.178,2.676,0.617,4.239l-0.001-0.002
				c0.482,1.757,0.743,3.634,0.742,5.197c0,0.531-0.029,1.024-0.089,1.463l0,0.005l-0.027,0.259l0,0
				c-0.249,2.264-1.615,4.235-3.664,5.278c-0.932,0.473-1.909,0.707-2.875,0.707c-1.041,0-2.069-0.271-3.015-0.815
				c-0.144-0.082-0.284-0.169-0.423-0.263l-0.002-0.002c-1.226-0.824-2.019-2.128-2.234-3.703c-0.046-0.341-0.069-0.671-0.069-0.989
				c0-0.912,0.184-1.723,0.53-2.408c0.346-0.685,0.85-1.246,1.51-1.657c0.666-0.415,1.421-0.619,2.18-0.619
				c0.814,0,1.626,0.237,2.329,0.712c0.666,0.45,1.127,1.2,1.252,2.06c0.032,0.217,0.048,0.428,0.048,0.629
				c0,0.521-0.103,0.979-0.293,1.362c-0.189,0.381-0.465,0.688-0.827,0.917c-0.37,0.23-0.787,0.346-1.208,0.346
				c-0.448,0-0.895-0.131-1.283-0.393c-0.465-0.315-0.716-0.828-0.717-1.35c0.001-0.312,0.089-0.621,0.274-0.897l0.001-0.001
				c0.117-0.176,0.177-0.377,0.176-0.577c0.001-0.33-0.16-0.658-0.455-0.856c-0.177-0.12-0.38-0.178-0.578-0.177
				c-0.331-0.001-0.659,0.16-0.858,0.457c-0.423,0.627-0.626,1.343-0.625,2.05c-0.001,1.184,0.569,2.35,1.624,3.065
				c0.736,0.497,1.588,0.748,2.441,0.748c0.8,0,1.602-0.219,2.307-0.664c1.349-0.846,2.092-2.34,2.088-4.045
				c0-0.298-0.021-0.604-0.066-0.913c-0.208-1.425-0.984-2.692-2.142-3.475c-1.05-0.711-2.269-1.067-3.486-1.067
				c-1.135,0-2.271,0.311-3.273,0.933c-1.939,1.203-3.017,3.36-3.014,5.846c0,0.406,0.03,0.821,0.086,1.243
				c0.287,2.119,1.424,3.996,3.128,5.14c0.18,0.122,0.364,0.237,0.55,0.344h-0.001c1.263,0.725,2.646,1.091,4.042,1.091
				c1.29,0,2.59-0.313,3.815-0.935c2.669-1.356,4.458-3.936,4.782-6.897l0.026-0.236h0c0.072-0.536,0.109-1.117,0.109-1.731
				c0-1.752-0.285-3.778-0.82-5.732l0-0.002c-0.386-1.375-0.538-2.598-0.538-3.675c0-2.021,0.533-3.531,1.075-4.551
				c0.271-0.509,0.545-0.897,0.755-1.159c0.105-0.132,0.193-0.234,0.26-0.305c0.065-0.071,0.105-0.107,0.12-0.123l0.063-0.064
				l0.008-0.01l0.008-0.01c0.508-0.598,1.217-0.958,2.004-1.018h0.001c0.076-0.007,0.152-0.01,0.23-0.01
				c0.704,0,1.375,0.248,1.918,0.711c0.5,0.426,0.757,1.035,0.757,1.648c0,0.489-0.162,0.974-0.496,1.372
				c-0.242,0.289-0.656,0.485-1.086,0.492h0.003h-0.048c-0.332,0-0.607-0.069-0.817-0.182c-0.212-0.114-0.36-0.269-0.457-0.472
				c-0.065-0.138-0.097-0.284-0.097-0.431c0-0.234,0.082-0.465,0.238-0.648h0c0.165-0.194,0.248-0.435,0.247-0.671
				c0.001-0.291-0.123-0.584-0.362-0.787c-0.193-0.166-0.434-0.246-0.668-0.246c-0.292,0-0.583,0.124-0.788,0.358L41.919,46.8
				c-0.482,0.565-0.732,1.275-0.732,1.992c0,0.445,0.097,0.895,0.294,1.313c0.273,0.579,0.711,1.045,1.254,1.357
				c0.545,0.315,1.191,0.481,1.89,0.481l0.083-0.001c1.019-0.021,1.993-0.472,2.634-1.229l0-0.002
				c0.656-0.783,0.979-1.746,0.979-2.698C48.32,46.816,47.816,45.623,46.839,44.789z"/>
		</g>
		<path fill="#FFDA88" d="M59.72,57.882c-0.021-0.099-0.26-1.154-0.79-2.395c-0.533-1.24-1.347-2.675-2.592-3.517
			c-0.482-0.324-1.021-0.488-1.556-0.488c-0.69,0-1.37,0.277-1.895,0.801l0,0l0,0l0,0l0,0c-0.524,0.523-0.801,1.203-0.8,1.894
			c0,0.534,0.163,1.075,0.487,1.556c0.842,1.246,2.277,2.059,3.517,2.592c1.242,0.529,2.296,0.769,2.396,0.79
			c0.068,0.015,0.137,0.021,0.203,0.021c0.291-0.001,0.549-0.129,0.735-0.316c0.186-0.186,0.315-0.442,0.316-0.734
			C59.743,58.02,59.735,57.951,59.72,57.882z M55.182,53.684l0.002,0.002c0.521,0.348,0.983,0.946,1.354,1.606
			c0.225,0.398,0.414,0.817,0.572,1.212c-0.418-0.17-0.854-0.371-1.261-0.605c-0.654-0.374-1.231-0.831-1.558-1.319
			c-0.106-0.158-0.135-0.284-0.136-0.396c-0.001-0.166,0.08-0.324,0.194-0.438c0.114-0.116,0.272-0.195,0.439-0.195
			C54.9,53.551,55.026,53.582,55.182,53.684z"/>
		<g>
			<path fill="#FFDA88" d="M35.803,31.83c0-0.535-0.164-1.074-0.488-1.557c-0.842-1.245-2.277-2.058-3.518-2.59
				c-1.233-0.527-2.282-0.766-2.393-0.791c-0.07-0.016-0.139-0.023-0.207-0.022c-0.292,0.001-0.549,0.129-0.735,0.315
				c-0.186,0.186-0.313,0.444-0.315,0.735c0,0.068,0.008,0.137,0.022,0.206l-0.001-0.001c0.022,0.101,0.261,1.154,0.792,2.396
				c0.533,1.239,1.346,2.675,2.59,3.517c0.482,0.323,1.022,0.487,1.557,0.487c0.69,0.001,1.371-0.275,1.895-0.8l-0.256-0.256
				l0.256,0.256C35.527,33.2,35.804,32.521,35.803,31.83z M32.708,32.321l-0.003-0.001c-0.52-0.347-0.983-0.945-1.354-1.605
				c-0.225-0.4-0.414-0.816-0.573-1.214c0.419,0.172,0.854,0.372,1.261,0.607c0.655,0.374,1.231,0.829,1.559,1.32
				c0.104,0.156,0.135,0.283,0.135,0.395c0.001,0.166-0.081,0.325-0.194,0.439c-0.114,0.114-0.272,0.195-0.439,0.193
				C32.99,32.455,32.864,32.425,32.708,32.321z"/>
			<polygon fill="#FFDA88" points="29.401,26.892 29.403,26.892 29.404,26.892 			"/>
		</g>
		<g>
			<path fill="#FFDA88" d="M23.378,159.741c-0.212-11.378-0.302-22.754-0.457-34.13l-0.261-34.13
				c-0.113-11.377-0.093-22.753-0.134-34.13l-0.086-34.13l-0.002-0.94l0.941,0.003l34.129,0.084
				c11.377,0.044,22.754,0.017,34.129,0.131l34.13,0.261c11.377,0.156,22.754,0.248,34.131,0.46
				c-11.377,0.213-22.754,0.305-34.131,0.46l-34.13,0.262c-11.375,0.113-22.752,0.087-34.129,0.133l-34.129,0.083l0.938-0.938
				l-0.085,34.13c-0.042,11.377-0.021,22.753-0.134,34.13l-0.262,34.13C23.682,136.987,23.59,148.363,23.378,159.741z"/>
		</g>
	</g>
</g>
</svg>
