<?xml version="1.0" encoding="utf-8"?>
<!-- Generator: Adobe Illustrator 15.1.0, SVG Export Plug-In . SVG Version: 6.00 Build 0)  -->
<!DOCTYPE svg PUBLIC "-//W3C//DTD SVG 1.1//EN" "http://www.w3.org/Graphics/SVG/1.1/DTD/svg11.dtd">
<svg version="1.1" id="圖層_1" xmlns="http://www.w3.org/2000/svg" xmlns:xlink="http://www.w3.org/1999/xlink" x="0px" y="0px"
	 width="177.665px" height="177.49px" viewBox="0 0 177.665 177.49" enable-background="new 0 0 177.665 177.49"
	 xml:space="preserve">
<g>
	<g>
		<path fill="#FFDA88" d="M98.001,145.506c0.514-0.258,1.075-0.438,1.662-0.524c1.773-0.265,3.46,0.335,4.628,1.648
			c0.088,0.099,0.176,0.203,0.258,0.311c0.786,1.019,1.095,2.362,0.846,3.687c-0.356,1.891-1.54,3.254-3.164,3.644
			c-1.505,0.357-3.086-0.203-4.031-1.435c-0.545-0.706-0.763-1.635-0.6-2.545c0.24-1.346,1.078-2.317,2.242-2.602
			c1.079-0.262,2.215,0.141,2.894,1.023c0.81,1.055,0.613,2.573-0.438,3.383c-0.354,0.274-0.869,0.209-1.146-0.149
			c-0.274-0.356-0.209-0.869,0.15-1.145c0.339-0.261,0.399-0.753,0.139-1.096c-0.286-0.372-0.762-0.542-1.214-0.431
			c-0.523,0.128-0.897,0.602-1.022,1.302c-0.082,0.46,0.023,0.92,0.286,1.265c0.554,0.721,1.479,1.051,2.359,0.84
			c0.993-0.239,1.702-1.097,1.94-2.358c0.166-0.879-0.023-1.725-0.534-2.386c-0.058-0.076-0.118-0.15-0.183-0.221
			c-0.797-0.896-1.951-1.303-3.17-1.121c-1.302,0.195-2.405,1.02-2.95,2.207l-0.063,0.141c-0.468,0.95-0.801,2.421-0.879,3.861
			c-0.221,4.656-3.162,6.292-3.612,6.498c-0.72,0.422-1.572,0.549-2.394,0.344c-0.831-0.207-1.534-0.727-1.978-1.463
			c-0.772-1.283-0.367-2.961,0.902-3.742c0.554-0.342,1.26-0.422,1.897-0.221c0.917,0.286,1.524,0.969,1.628,1.824
			c0.077,0.629-0.146,1.25-0.579,1.687c0.594-0.364,2.35-1.713,2.505-5.009c0.09-1.678,0.479-3.351,1.035-4.48l0.054-0.12
			C96.001,146.969,96.898,146.057,98.001,145.506z M90.801,158.109c-0.175-0.061-0.331-0.18-0.433-0.35
			c-0.234-0.386-0.111-0.888,0.275-1.121c0.138-0.082,0.214-0.24,0.194-0.401c-0.024-0.206-0.201-0.37-0.496-0.462
			c-0.191-0.059-0.389-0.044-0.554,0.053c-0.512,0.316-0.673,0.992-0.36,1.511c0.219,0.362,0.565,0.62,0.977,0.722
			C90.536,158.096,90.668,158.11,90.801,158.109z"/>
		<path fill="#FFDA88" d="M148.278,96.466l0.119-0.054c1.131-0.557,2.805-0.945,4.481-1.035c3.296-0.156,4.644-1.911,5.009-2.507
			c-0.438,0.435-1.058,0.656-1.688,0.579c-0.855-0.102-1.537-0.712-1.823-1.627c-0.201-0.636-0.12-1.342,0.222-1.896
			c0.78-1.271,2.459-1.676,3.74-0.904c0.737,0.444,1.257,1.147,1.465,1.979c0.205,0.819,0.078,1.673-0.344,2.394
			c-0.206,0.45-1.843,3.39-6.497,3.61c-1.442,0.079-2.915,0.412-3.864,0.88l-0.139,0.064c-1.188,0.544-2.012,1.646-2.207,2.95
			c-0.183,1.217,0.226,2.371,1.121,3.168c0.07,0.064,0.144,0.125,0.22,0.184c0.66,0.512,1.508,0.7,2.387,0.535
			c1.261-0.238,2.118-0.948,2.357-1.94c0.211-0.881-0.119-1.806-0.839-2.36c-0.347-0.263-0.807-0.368-1.265-0.285
			c-0.701,0.125-1.175,0.499-1.303,1.021c-0.111,0.452,0.059,0.929,0.431,1.214c0.343,0.263,0.835,0.202,1.096-0.139
			c0.276-0.356,0.787-0.424,1.146-0.149c0.356,0.276,0.423,0.792,0.148,1.146c-0.81,1.05-2.327,1.247-3.383,0.438
			c-0.883-0.679-1.285-1.815-1.022-2.896c0.283-1.162,1.255-2,2.602-2.24c0.909-0.163,1.837,0.055,2.544,0.598
			c1.229,0.945,1.792,2.527,1.433,4.033c-0.387,1.623-1.75,2.808-3.643,3.164c-1.322,0.25-2.666-0.06-3.686-0.846
			c-0.108-0.084-0.212-0.172-0.311-0.258c-1.313-1.169-1.914-2.854-1.648-4.629c0.087-0.588,0.268-1.148,0.525-1.663
			C146.214,97.89,147.126,96.994,148.278,96.466z M158.218,91.396c-0.103-0.409-0.359-0.757-0.722-0.976
			c-0.518-0.313-1.195-0.151-1.511,0.361c-0.098,0.164-0.114,0.362-0.054,0.553c0.093,0.296,0.256,0.471,0.463,0.496
			c0.161,0.02,0.318-0.057,0.401-0.194c0.233-0.386,0.734-0.509,1.12-0.276c0.171,0.104,0.289,0.259,0.351,0.435
			C158.267,91.661,158.252,91.526,158.218,91.396z"/>
		<path fill="#FFDA88" d="M132.398,137.58c0.632-0.232,1.305-0.369,2-0.396c2.099-0.082,3.983,0.834,5.172,2.51
			c0.091,0.125,0.179,0.258,0.261,0.394c0.785,1.286,0.973,2.889,0.513,4.396c-0.657,2.155-2.209,3.586-4.148,3.832
			c-1.795,0.225-3.563-0.633-4.506-2.184c-0.541-0.892-0.677-1.998-0.37-3.035c0.451-1.535,1.551-2.559,2.94-2.738
			c1.289-0.168,2.56,0.445,3.234,1.56c0.806,1.331,0.384,3.07-0.943,3.878c-0.446,0.275-1.036,0.132-1.312-0.319
			c-0.273-0.45-0.131-1.038,0.318-1.312c0.429-0.261,0.564-0.823,0.304-1.258c-0.285-0.469-0.817-0.726-1.356-0.655
			c-0.624,0.082-1.119,0.585-1.354,1.384c-0.153,0.523-0.093,1.073,0.171,1.506c0.553,0.91,1.585,1.412,2.637,1.28
			c1.186-0.152,2.12-1.059,2.56-2.494c0.305-1,0.192-2.011-0.317-2.845c-0.058-0.096-0.119-0.189-0.185-0.28
			c-0.813-1.145-2.103-1.766-3.544-1.71c-1.539,0.059-2.926,0.879-3.712,2.188l-0.091,0.155c-0.667,1.044-1.242,2.715-1.518,4.38
			c-0.852,5.387-4.482,6.914-5.032,7.095c-0.891,0.398-1.899,0.437-2.827,0.093c-0.941-0.349-1.691-1.043-2.113-1.955
			c-0.734-1.59-0.049-3.49,1.527-4.236c0.689-0.325,1.521-0.33,2.236-0.016c1.028,0.451,1.648,1.322,1.659,2.33
			c0.009,0.742-0.331,1.436-0.891,1.889c0.739-0.348,2.953-1.69,3.555-5.504c0.321-1.939,0.985-3.836,1.779-5.08l0.077-0.131
			C129.885,139.026,131.043,138.08,132.398,137.58z M122.411,151.316c-0.196-0.092-0.362-0.251-0.461-0.462
			c-0.221-0.478-0.014-1.046,0.467-1.268c0.169-0.079,0.278-0.253,0.277-0.443c-0.004-0.242-0.188-0.455-0.518-0.6
			c-0.216-0.094-0.448-0.102-0.651-0.01c-0.636,0.302-0.91,1.069-0.613,1.711c0.208,0.45,0.579,0.794,1.043,0.966
			C122.101,151.266,122.256,151.302,122.411,151.316z"/>
		<path fill="#FFDA88" d="M140.499,129.514l0.136-0.078c1.273-0.781,3.206-1.422,5.176-1.716c3.873-0.548,5.271-2.769,5.635-3.511
			c-0.469,0.56-1.177,0.891-1.928,0.871c-1.021-0.028-1.894-0.671-2.333-1.721c-0.307-0.729-0.289-1.572,0.052-2.264
			c0.782-1.586,2.719-2.249,4.317-1.479c0.917,0.442,1.609,1.214,1.946,2.174c0.331,0.945,0.278,1.965-0.142,2.863
			c-0.192,0.554-1.801,4.207-7.271,4.98c-1.693,0.251-3.393,0.807-4.464,1.464l-0.157,0.091c-1.341,0.773-2.193,2.165-2.279,3.725
			c-0.082,1.458,0.528,2.776,1.673,3.617c0.091,0.067,0.184,0.131,0.281,0.191c0.837,0.529,1.858,0.661,2.877,0.369
			c1.462-0.422,2.396-1.353,2.57-2.551c0.149-1.063-0.341-2.119-1.253-2.693c-0.435-0.273-0.989-0.346-1.522-0.198
			c-0.813,0.225-1.332,0.718-1.425,1.349c-0.081,0.547,0.172,1.09,0.643,1.387c0.434,0.271,1.008,0.144,1.279-0.286
			c0.284-0.451,0.882-0.585,1.334-0.302c0.452,0.286,0.586,0.888,0.301,1.334c-0.84,1.33-2.608,1.73-3.944,0.891
			c-1.117-0.703-1.716-2-1.526-3.304c0.205-1.403,1.261-2.501,2.823-2.934c1.056-0.292,2.175-0.137,3.07,0.427
			c1.556,0.979,2.394,2.786,2.136,4.602c-0.279,1.959-1.755,3.508-3.95,4.138c-1.534,0.44-3.154,0.225-4.446-0.593
			c-0.136-0.086-0.268-0.176-0.393-0.269c-1.68-1.234-2.574-3.157-2.457-5.281c0.04-0.704,0.188-1.386,0.438-2.021
			C138.219,131.423,139.197,130.264,140.499,129.514z M151.673,122.432c-0.167-0.473-0.508-0.853-0.96-1.072
			c-0.646-0.311-1.429-0.045-1.743,0.592c-0.099,0.207-0.094,0.442-0.003,0.66c0.142,0.338,0.354,0.527,0.602,0.535
			c0.191,0.005,0.368-0.103,0.451-0.273c0.232-0.48,0.811-0.684,1.292-0.451c0.214,0.104,0.37,0.275,0.46,0.475
			C151.76,122.739,151.728,122.583,151.673,122.432z"/>
		<path fill="#FFDA88" d="M77.775,153.131c1.451-0.264,2.91-0.504,4.357-0.801l4.314-1.035c0.361-0.078,0.714-0.19,1.068-0.297
			l1.061-0.322l2.122-0.653l1.063-0.327l1.041-0.385l2.084-0.771c5.544-2.097,10.851-4.817,15.871-7.979
			c5.008-3.188,9.695-6.874,14.022-10.937c4.298-4.092,8.243-8.553,11.751-13.334c3.485-4.794,6.6-9.862,9.172-15.197
			c2.597-5.318,4.688-10.883,6.183-16.601c0.091-0.357,0.198-0.711,0.276-1.072l0.236-1.083l0.472-2.164l0.373-2.182
			c0.125-0.728,0.25-1.453,0.316-2.189c0.397-2.923,0.489-5.878,0.422-8.809l-0.157,2.193c-0.031,0.365-0.04,0.731-0.09,1.095
			l-0.144,1.088c-0.099,0.725-0.165,1.451-0.286,2.172l-0.387,2.158c-0.112,0.72-0.287,1.43-0.448,2.143l-0.485,2.133l-0.583,2.107
			l-0.292,1.051c-0.095,0.351-0.222,0.694-0.331,1.042l-0.668,2.08c-0.206,0.697-0.488,1.372-0.731,2.056l-0.756,2.047l-0.843,2.015
			c-0.288,0.669-0.543,1.351-0.858,2.005l-0.913,1.982l-0.455,0.989c-0.154,0.329-0.329,0.649-0.491,0.974l-0.992,1.941
			c-2.717,5.138-5.807,10.076-9.322,14.695c-3.494,4.633-7.355,8.987-11.584,12.952c-4.2,3.995-8.765,7.604-13.615,10.772
			c-1.184,0.837-2.447,1.551-3.686,2.303c-0.625,0.365-1.234,0.762-1.872,1.105l-1.92,1.02l-1.921,1.02l-1.97,0.921l-1.969,0.929
			l-0.492,0.232l-0.503,0.205l-1.01,0.41c-5.358,2.223-10.925,4.009-16.641,5.164c-5.707,1.206-11.526,1.87-17.392,2.18
			C66.039,154.388,71.939,154.033,77.775,153.131z"/>
		<g>
			<polygon fill="#FFDA88" points="115.245,150.077 115.245,150.077 115.245,150.077 			"/>
			<polygon fill="#FFDA88" points="106.041,150.456 106.041,150.456 106.041,150.455 			"/>
			<path fill="#FFDA88" d="M106.041,150.456c0.107,0.188,0.222,0.372,0.344,0.551c1.146,1.705,3.021,2.841,5.141,3.129
				c0.423,0.058,0.839,0.085,1.245,0.085c2.485,0.004,4.64-1.073,5.844-3.015c0.623-1.001,0.933-2.136,0.933-3.271
				c0-1.218-0.356-2.436-1.067-3.486c-0.782-1.157-2.048-1.933-3.475-2.143c-0.311-0.044-0.616-0.067-0.915-0.067
				c-1.702-0.003-3.198,0.739-4.044,2.089c-0.442,0.706-0.663,1.506-0.663,2.307c0,0.852,0.25,1.704,0.749,2.442
				c0.713,1.054,1.881,1.624,3.063,1.624c0.706,0,1.422-0.203,2.05-0.625c0.297-0.199,0.457-0.528,0.457-0.859
				c0-0.198-0.058-0.4-0.177-0.578c-0.198-0.294-0.526-0.455-0.858-0.455c-0.198,0-0.399,0.058-0.577,0.178
				c-0.274,0.185-0.585,0.273-0.896,0.273c-0.522,0-1.035-0.25-1.351-0.717c-0.262-0.387-0.393-0.834-0.393-1.283
				c0-0.418,0.116-0.838,0.348-1.208c0.228-0.362,0.536-0.637,0.917-0.827c0.381-0.188,0.84-0.293,1.361-0.293
				c0.2,0,0.411,0.016,0.628,0.047c0.862,0.125,1.611,0.588,2.06,1.253c0.475,0.702,0.714,1.516,0.714,2.329
				c0,0.757-0.208,1.514-0.621,2.18c-0.41,0.662-0.969,1.166-1.652,1.512c-0.684,0.345-1.495,0.528-2.406,0.528
				c-0.319,0-0.651-0.022-0.994-0.07c-1.575-0.215-2.878-1.008-3.704-2.234l0,0c-0.094-0.139-0.183-0.28-0.266-0.425l0,0
				c-0.543-0.945-0.813-1.972-0.813-3.013c0-0.966,0.233-1.944,0.707-2.876c1.044-2.049,3.016-3.416,5.278-3.662l0.273-0.03h0.003
				l0.007-0.002c0.432-0.059,0.92-0.088,1.446-0.088c1.555-0.001,3.435,0.26,5.19,0.742h-0.002c1.563,0.438,2.979,0.616,4.239,0.616
				c2.353,0,4.172-0.616,5.44-1.28c1.262-0.657,1.98-1.356,2.166-1.55c0.086-0.075,0.169-0.152,0.248-0.23l-0.254-0.256l0.255,0.256
				c0.842-0.841,1.351-1.948,1.443-3.146c0.011-0.131,0.017-0.263,0.017-0.394c0-1.192-0.422-2.343-1.207-3.26
				c-0.835-0.977-2.027-1.481-3.223-1.479c-0.953-0.002-1.915,0.319-2.699,0.978l0,0c-0.76,0.642-1.21,1.616-1.23,2.634v0.001v0.08
				c0,0.7,0.165,1.348,0.48,1.891c0.313,0.545,0.777,0.982,1.356,1.255c0.419,0.198,0.868,0.295,1.313,0.295
				c0.717,0,1.427-0.251,1.992-0.732l0.003-0.002c0.236-0.206,0.362-0.495,0.362-0.786c0-0.237-0.084-0.478-0.249-0.67
				c-0.204-0.239-0.496-0.363-0.786-0.362c-0.237,0-0.478,0.081-0.672,0.246l0,0c-0.184,0.157-0.414,0.239-0.65,0.239
				c-0.146,0-0.292-0.032-0.43-0.096c-0.203-0.097-0.356-0.248-0.472-0.458c-0.114-0.212-0.183-0.486-0.183-0.818l0.001-0.046v0.002
				c0.007-0.432,0.2-0.843,0.491-1.087c0.398-0.333,0.884-0.494,1.371-0.495c0.614,0.001,1.223,0.258,1.65,0.758
				c0.463,0.544,0.71,1.212,0.711,1.916c0,0.077-0.003,0.154-0.01,0.233c-0.062,0.786-0.422,1.496-1.02,2.006l-0.008,0.007
				l-0.067,0.064l-0.007,0.006l-0.003,0.003c-0.083,0.084-2.095,2.209-6.131,2.211c-1.08-0.001-2.307-0.153-3.684-0.54l-0.003-0.002
				c-1.954-0.534-3.98-0.817-5.727-0.818c-0.609,0-1.184,0.036-1.714,0.107v-0.001l-0.255,0.029
				c-2.959,0.322-5.54,2.111-6.897,4.783c-0.621,1.223-0.935,2.523-0.935,3.813C104.949,147.813,105.315,149.195,106.041,150.456z"
				/>
		</g>
		<g>
			<path fill="#FFDA88" d="M148.211,115.953L148.211,115.953L148.211,115.953z"/>
			<polygon fill="#FFDA88" points="149.647,115.674 149.647,115.674 149.647,115.676 			"/>
			<path fill="#FFDA88" d="M130.827,132.7c0.918,0.783,2.065,1.207,3.259,1.207c0.132,0,0.262-0.006,0.394-0.017
				c1.198-0.092,2.305-0.604,3.146-1.443l-0.255-0.257l0.255,0.257c0.08-0.08,0.156-0.163,0.23-0.249
				c0.199-0.191,0.896-0.911,1.553-2.167c0.662-1.269,1.278-3.086,1.278-5.436c0-1.262-0.179-2.676-0.616-4.239v0.003
				c-0.481-1.758-0.742-3.635-0.742-5.197c0-0.531,0.03-1.024,0.09-1.464l0.001-0.005l0.027-0.259l0,0
				c0.249-2.265,1.615-4.236,3.664-5.278c0.932-0.473,1.908-0.707,2.875-0.707c1.04,0,2.068,0.271,3.015,0.814
				c0.144,0.083,0.284,0.171,0.423,0.265l0.002,0.001c1.226,0.824,2.019,2.128,2.234,3.703c0.046,0.341,0.069,0.671,0.069,0.988
				c-0.002,0.912-0.185,1.724-0.53,2.409c-0.347,0.685-0.851,1.245-1.511,1.656c-0.665,0.414-1.422,0.618-2.18,0.618
				c-0.813,0-1.626-0.237-2.329-0.711c-0.665-0.449-1.127-1.199-1.252-2.061c-0.031-0.217-0.048-0.428-0.048-0.628
				c0-0.521,0.104-0.979,0.293-1.362c0.19-0.382,0.466-0.688,0.828-0.918c0.369-0.229,0.787-0.346,1.208-0.346
				c0.447,0,0.894,0.131,1.283,0.393c0.465,0.315,0.715,0.828,0.717,1.35c-0.002,0.312-0.089,0.621-0.275,0.896v0.001
				c-0.117,0.177-0.177,0.378-0.176,0.578c-0.001,0.33,0.16,0.657,0.455,0.855c0.177,0.12,0.38,0.179,0.577,0.178
				c0.331,0.001,0.659-0.159,0.858-0.456c0.423-0.628,0.626-1.344,0.626-2.051c0-1.184-0.57-2.35-1.624-3.063
				c-0.736-0.497-1.588-0.749-2.441-0.749c-0.8,0-1.602,0.219-2.307,0.664c-1.349,0.845-2.092,2.34-2.088,4.045
				c0,0.298,0.021,0.604,0.066,0.913c0.208,1.425,0.984,2.691,2.142,3.476c1.051,0.711,2.269,1.066,3.485,1.066
				c1.136,0,2.271-0.311,3.273-0.933c1.939-1.203,3.017-3.36,3.014-5.845c0-0.407-0.029-0.822-0.086-1.244
				c-0.287-2.119-1.424-3.996-3.128-5.14c-0.18-0.122-0.364-0.237-0.55-0.345h0.001c-1.263-0.725-2.646-1.091-4.043-1.091
				c-1.29,0-2.59,0.313-3.814,0.936c-2.671,1.355-4.459,3.936-4.783,6.896l-0.024,0.236l0,0c-0.072,0.536-0.109,1.116-0.109,1.731
				c0,1.752,0.285,3.777,0.82,5.731v0.003c0.387,1.375,0.538,2.598,0.538,3.675c0,2.021-0.533,3.531-1.076,4.551
				c-0.271,0.51-0.545,0.896-0.755,1.159c-0.105,0.133-0.193,0.234-0.26,0.305c-0.064,0.07-0.104,0.107-0.119,0.123l-0.063,0.064
				l-0.009,0.01l-0.009,0.01c-0.508,0.598-1.216,0.957-2.004,1.018h-0.001c-0.076,0.007-0.152,0.01-0.23,0.01
				c-0.704,0-1.375-0.248-1.918-0.711c-0.5-0.427-0.758-1.035-0.758-1.648c0-0.489,0.162-0.974,0.496-1.372
				c0.242-0.289,0.656-0.485,1.086-0.492h-0.003h0.047c0.333,0,0.608,0.069,0.818,0.182c0.212,0.114,0.36,0.269,0.457,0.472
				c0.064,0.138,0.097,0.284,0.097,0.432c0,0.234-0.081,0.465-0.237,0.648h-0.002c-0.164,0.193-0.247,0.435-0.247,0.671
				c0,0.291,0.124,0.583,0.363,0.786c0.193,0.166,0.434,0.246,0.668,0.246c0.292,0,0.583-0.123,0.788-0.357l0.002-0.003
				c0.482-0.565,0.732-1.275,0.732-1.991c0-0.446-0.097-0.896-0.295-1.314c-0.272-0.58-0.712-1.045-1.254-1.357
				c-0.545-0.315-1.192-0.48-1.891-0.48l-0.081,0.001c-1.021,0.02-1.994,0.472-2.635,1.229v0.002
				c-0.656,0.783-0.979,1.745-0.979,2.698C129.345,130.672,129.849,131.865,130.827,132.7z"/>
		</g>
		<path fill="#FFDA88" d="M117.945,119.607c0.022,0.099,0.26,1.153,0.789,2.395c0.534,1.24,1.348,2.676,2.593,3.517
			c0.482,0.325,1.021,0.489,1.556,0.489c0.69,0,1.37-0.276,1.895-0.802l0,0l0,0l0,0l0,0c0.524-0.523,0.801-1.203,0.8-1.894
			c0-0.534-0.163-1.075-0.487-1.557c-0.842-1.245-2.277-2.058-3.517-2.592c-1.242-0.529-2.297-0.769-2.396-0.791
			c-0.068-0.015-0.138-0.021-0.203-0.021c-0.291,0.001-0.549,0.13-0.736,0.316c-0.185,0.185-0.314,0.442-0.315,0.734
			C117.922,119.469,117.929,119.537,117.945,119.607z M122.483,123.805l-0.002-0.002c-0.521-0.348-0.982-0.945-1.354-1.605
			c-0.226-0.398-0.413-0.816-0.572-1.213c0.419,0.17,0.854,0.371,1.261,0.605c0.655,0.374,1.231,0.83,1.559,1.319
			c0.105,0.158,0.135,0.284,0.136,0.396c0.001,0.167-0.08,0.325-0.194,0.439c-0.113,0.115-0.271,0.195-0.438,0.193
			C122.765,123.938,122.639,123.908,122.483,123.805z"/>
		<g>
			<path fill="#FFDA88" d="M141.862,145.659c0,0.534,0.164,1.073,0.488,1.557c0.842,1.245,2.277,2.058,3.517,2.591
				c1.234,0.526,2.283,0.766,2.394,0.79c0.069,0.016,0.14,0.022,0.207,0.022c0.292-0.001,0.549-0.129,0.735-0.316
				c0.186-0.186,0.313-0.443,0.315-0.734c0-0.068-0.008-0.137-0.023-0.206l0.002,0.002c-0.023-0.101-0.261-1.154-0.792-2.397
				c-0.533-1.238-1.346-2.675-2.59-3.516c-0.482-0.323-1.022-0.487-1.558-0.487c-0.69-0.001-1.37,0.275-1.894,0.8l0.256,0.256
				l-0.256-0.256C142.137,144.289,141.861,144.969,141.862,145.659z M144.957,145.167l0.004,0.002
				c0.52,0.348,0.983,0.945,1.354,1.605c0.225,0.399,0.414,0.816,0.572,1.214c-0.419-0.172-0.854-0.372-1.262-0.606
				c-0.654-0.374-1.231-0.829-1.558-1.319c-0.104-0.156-0.135-0.283-0.136-0.396c0-0.167,0.081-0.325,0.193-0.438
				c0.114-0.115,0.273-0.195,0.439-0.194C144.674,145.034,144.801,145.064,144.957,145.167z"/>
			<polygon fill="#FFDA88" points="148.264,150.597 148.262,150.597 148.26,150.597 			"/>
		</g>
		<g>
			<path fill="#FFDA88" d="M154.287,17.749c0.212,11.377,0.302,22.753,0.457,34.13l0.261,34.129
				c0.113,11.376,0.092,22.752,0.135,34.129l0.084,34.13l0.003,0.941l-0.941-0.004l-34.129-0.084
				c-11.377-0.044-22.753-0.017-34.129-0.131l-34.13-0.261c-11.377-0.156-22.753-0.248-34.131-0.461
				c11.377-0.213,22.754-0.305,34.131-0.46l34.13-0.262c11.376-0.114,22.752-0.088,34.129-0.133l34.129-0.083l-0.938,0.938
				l0.085-34.13c0.043-11.376,0.021-22.753,0.133-34.129l0.263-34.13C153.983,40.502,154.075,29.125,154.287,17.749z"/>
		</g>
	</g>
</g>
</svg>
