<?xml version="1.0" encoding="utf-8"?>
<!-- Generator: Adobe Illustrator 15.1.0, SVG Export Plug-In . SVG Version: 6.00 Build 0)  -->
<!DOCTYPE svg PUBLIC "-//W3C//DTD SVG 1.1//EN" "http://www.w3.org/Graphics/SVG/1.1/DTD/svg11.dtd">
<svg version="1.1" id="圖層_1" xmlns="http://www.w3.org/2000/svg" xmlns:xlink="http://www.w3.org/1999/xlink" x="0px" y="0px"
	 width="177.665px" height="177.49px" viewBox="0 0 177.665 177.49" enable-background="new 0 0 177.665 177.49"
	 xml:space="preserve">
<g>
	<g>
		<path fill="#FFDA88" d="M145.593,79.576c-0.258-0.515-0.437-1.075-0.524-1.663c-0.265-1.774,0.336-3.46,1.649-4.628
			c0.098-0.087,0.202-0.174,0.31-0.256c1.019-0.787,2.362-1.096,3.687-0.847c1.892,0.356,3.254,1.54,3.644,3.165
			c0.358,1.504-0.203,3.085-1.435,4.031c-0.706,0.543-1.635,0.761-2.544,0.599c-1.347-0.24-2.318-1.079-2.602-2.242
			c-0.263-1.08,0.14-2.216,1.023-2.895c1.054-0.81,2.572-0.613,3.382,0.438c0.274,0.353,0.209,0.869-0.148,1.145
			c-0.356,0.274-0.869,0.209-1.145-0.149c-0.261-0.339-0.753-0.4-1.097-0.139c-0.371,0.286-0.541,0.762-0.43,1.214
			c0.127,0.522,0.602,0.896,1.302,1.021c0.459,0.082,0.92-0.023,1.264-0.286c0.722-0.554,1.051-1.48,0.841-2.359
			c-0.24-0.993-1.097-1.703-2.358-1.941c-0.879-0.166-1.726,0.024-2.387,0.535c-0.076,0.059-0.15,0.119-0.221,0.183
			c-0.895,0.797-1.303,1.951-1.121,3.17c0.195,1.302,1.02,2.405,2.207,2.949l0.141,0.063c0.95,0.468,2.422,0.801,3.863,0.879
			c4.655,0.22,6.291,3.162,6.496,3.612c0.423,0.72,0.549,1.573,0.344,2.394c-0.207,0.831-0.727,1.534-1.462,1.979
			c-1.284,0.771-2.961,0.367-3.742-0.902c-0.342-0.554-0.422-1.261-0.222-1.897c0.287-0.917,0.969-1.524,1.824-1.628
			c0.629-0.076,1.25,0.146,1.688,0.58c-0.365-0.594-1.714-2.35-5.009-2.505c-1.679-0.091-3.351-0.479-4.481-1.035l-0.119-0.054
			C147.057,81.576,146.145,80.679,145.593,79.576z M158.197,86.775c-0.06,0.175-0.179,0.331-0.35,0.434
			c-0.385,0.233-0.887,0.11-1.121-0.276c-0.082-0.137-0.239-0.213-0.399-0.194c-0.207,0.025-0.371,0.202-0.463,0.496
			c-0.06,0.191-0.045,0.389,0.053,0.554c0.316,0.512,0.991,0.674,1.512,0.361c0.361-0.218,0.619-0.566,0.721-0.976
			C158.183,87.042,158.199,86.909,158.197,86.775z"/>
		<path fill="#FFDA88" d="M96.554,29.299L96.5,29.18c-0.556-1.13-0.944-2.804-1.034-4.482c-0.156-3.296-1.911-4.644-2.507-5.009
			c0.436,0.438,0.656,1.058,0.579,1.688c-0.102,0.856-0.711,1.538-1.627,1.824c-0.636,0.201-1.342,0.119-1.896-0.221
			c-1.271-0.781-1.676-2.459-0.903-3.742c0.443-0.736,1.146-1.255,1.979-1.463c0.82-0.206,1.673-0.079,2.394,0.343
			c0.45,0.206,3.391,1.842,3.612,6.498c0.078,1.441,0.411,2.915,0.878,3.863l0.064,0.14c0.544,1.187,1.647,2.012,2.95,2.207
			c1.217,0.182,2.373-0.226,3.169-1.121c0.064-0.071,0.124-0.144,0.184-0.221c0.511-0.66,0.7-1.508,0.534-2.387
			c-0.237-1.261-0.946-2.118-1.94-2.357c-0.88-0.21-1.806,0.119-2.359,0.84c-0.263,0.346-0.368,0.806-0.286,1.264
			c0.125,0.701,0.499,1.175,1.021,1.302c0.452,0.111,0.928-0.059,1.214-0.43c0.263-0.343,0.201-0.835-0.14-1.096
			c-0.356-0.276-0.424-0.786-0.148-1.145c0.276-0.357,0.792-0.423,1.146-0.149c1.05,0.81,1.247,2.326,0.438,3.382
			c-0.679,0.883-1.814,1.286-2.895,1.022c-1.163-0.282-2.001-1.254-2.241-2.601c-0.163-0.91,0.056-1.838,0.598-2.545
			c0.945-1.23,2.528-1.792,4.033-1.433c1.623,0.388,2.809,1.75,3.165,3.644c0.249,1.323-0.061,2.667-0.847,3.686
			c-0.083,0.108-0.17,0.212-0.258,0.311c-1.168,1.313-2.854,1.913-4.628,1.649c-0.589-0.088-1.148-0.268-1.663-0.525
			C97.978,31.362,97.082,30.45,96.554,29.299z M91.484,19.358c-0.41,0.103-0.756,0.359-0.976,0.723
			c-0.313,0.518-0.151,1.194,0.36,1.51c0.164,0.097,0.362,0.113,0.553,0.053c0.296-0.092,0.471-0.255,0.496-0.462
			c0.02-0.161-0.057-0.317-0.194-0.401c-0.386-0.231-0.509-0.734-0.275-1.119c0.103-0.172,0.259-0.291,0.435-0.351
			C91.75,19.31,91.615,19.325,91.484,19.358z"/>
		<path fill="#FFDA88" d="M137.667,45.18c-0.233-0.631-0.369-1.306-0.397-2.001c-0.081-2.098,0.835-3.982,2.511-5.172
			c0.125-0.09,0.257-0.178,0.393-0.26c1.287-0.785,2.889-0.972,4.396-0.513c2.156,0.657,3.587,2.209,3.833,4.148
			c0.225,1.795-0.633,3.564-2.184,4.506c-0.892,0.541-1.999,0.677-3.035,0.371c-1.535-0.451-2.559-1.551-2.738-2.94
			c-0.168-1.29,0.445-2.56,1.56-3.235c1.33-0.806,3.07-0.383,3.878,0.943c0.274,0.445,0.131,1.036-0.32,1.311
			c-0.449,0.274-1.038,0.132-1.311-0.318c-0.262-0.428-0.823-0.564-1.258-0.302c-0.47,0.285-0.727,0.816-0.656,1.356
			c0.082,0.624,0.586,1.119,1.384,1.354c0.524,0.153,1.074,0.092,1.507-0.171c0.909-0.552,1.412-1.586,1.279-2.637
			c-0.151-1.185-1.058-2.12-2.493-2.559c-1-0.305-2.011-0.192-2.846,0.317c-0.095,0.058-0.188,0.12-0.279,0.185
			c-1.145,0.812-1.767,2.103-1.71,3.543c0.059,1.54,0.878,2.927,2.188,3.713l0.154,0.091c1.045,0.667,2.715,1.242,4.381,1.517
			c5.387,0.852,6.914,4.483,7.095,5.033c0.398,0.891,0.437,1.899,0.093,2.827c-0.349,0.941-1.043,1.691-1.955,2.114
			c-1.59,0.734-3.49,0.049-4.237-1.529c-0.325-0.688-0.33-1.52-0.015-2.235c0.45-1.028,1.322-1.648,2.33-1.659
			c0.742-0.009,1.436,0.331,1.888,0.89c-0.348-0.739-1.689-2.953-5.503-3.555c-1.94-0.321-3.837-0.985-5.08-1.778l-0.132-0.078
			C139.115,47.692,138.167,46.534,137.667,45.18z M151.405,55.167c-0.093,0.196-0.251,0.362-0.462,0.461
			c-0.479,0.221-1.046,0.014-1.268-0.466c-0.08-0.17-0.253-0.279-0.444-0.277c-0.242,0.003-0.454,0.187-0.6,0.517
			c-0.094,0.215-0.102,0.448-0.009,0.651c0.301,0.635,1.068,0.911,1.71,0.614c0.451-0.209,0.794-0.579,0.966-1.043
			C151.354,55.476,151.39,55.321,151.405,55.167z"/>
		<path fill="#FFDA88" d="M129.601,37.079l-0.078-0.135c-0.781-1.274-1.423-3.207-1.717-5.176c-0.547-3.874-2.768-5.271-3.51-5.635
			c0.559,0.469,0.891,1.176,0.871,1.928c-0.028,1.021-0.671,1.893-1.721,2.333c-0.729,0.307-1.572,0.289-2.264-0.052
			c-1.586-0.782-2.249-2.719-1.479-4.318c0.442-0.917,1.214-1.608,2.174-1.945c0.945-0.332,1.965-0.279,2.862,0.141
			c0.555,0.193,4.208,1.8,4.981,7.271c0.251,1.693,0.806,3.394,1.464,4.464l0.091,0.157c0.773,1.34,2.165,2.193,3.725,2.28
			c1.458,0.081,2.776-0.529,3.616-1.674c0.068-0.09,0.132-0.183,0.192-0.281c0.529-0.837,0.66-1.857,0.369-2.876
			c-0.422-1.462-1.353-2.397-2.551-2.571c-1.063-0.15-2.119,0.341-2.694,1.253c-0.273,0.435-0.346,0.99-0.198,1.522
			c0.225,0.813,0.718,1.332,1.35,1.425c0.547,0.081,1.09-0.172,1.387-0.643c0.271-0.434,0.144-1.008-0.286-1.279
			c-0.452-0.285-0.586-0.882-0.302-1.334c0.286-0.452,0.888-0.586,1.334-0.301c1.33,0.839,1.73,2.609,0.891,3.944
			c-0.703,1.118-2,1.717-3.305,1.526c-1.402-0.205-2.5-1.26-2.933-2.823c-0.292-1.055-0.138-2.175,0.427-3.069
			c0.979-1.556,2.786-2.395,4.602-2.137c1.959,0.28,3.508,1.756,4.138,3.951c0.44,1.534,0.225,3.153-0.593,4.445
			c-0.086,0.136-0.176,0.268-0.269,0.393c-1.234,1.679-3.158,2.575-5.281,2.457c-0.705-0.039-1.386-0.188-2.021-0.436
			C131.511,39.357,130.352,38.381,129.601,37.079z M122.519,25.903c-0.472,0.167-0.852,0.508-1.071,0.96
			c-0.312,0.646-0.046,1.429,0.591,1.744c0.207,0.097,0.442,0.093,0.661,0.002c0.338-0.142,0.528-0.355,0.534-0.601
			c0.005-0.192-0.103-0.37-0.273-0.452c-0.48-0.231-0.683-0.811-0.45-1.292c0.104-0.213,0.274-0.37,0.475-0.46
			C122.828,25.816,122.67,25.85,122.519,25.903z"/>
		<path fill="#FFDA88" d="M153.219,99.801c-0.265-1.45-0.505-2.909-0.802-4.356l-1.035-4.313c-0.078-0.362-0.188-0.715-0.296-1.068
			l-0.322-1.062l-0.653-2.123l-0.328-1.062l-0.385-1.042l-0.771-2.083c-2.097-5.545-4.816-10.851-7.979-15.872
			c-3.188-5.008-6.875-9.696-10.937-14.022c-4.093-4.298-8.554-8.244-13.334-11.751c-4.795-3.486-9.863-6.599-15.198-9.172
			c-5.318-2.596-10.883-4.688-16.6-6.183c-0.358-0.09-0.711-0.198-1.072-0.276l-1.083-0.237l-2.164-0.472l-2.182-0.373
			c-0.728-0.125-1.453-0.25-2.189-0.316c-2.923-0.398-5.878-0.49-8.81-0.422l2.193,0.157c0.366,0.032,0.731,0.041,1.096,0.09
			l1.088,0.143c0.725,0.099,1.452,0.165,2.172,0.288l2.157,0.385c0.721,0.113,1.431,0.29,2.144,0.45l2.133,0.486l2.108,0.583
			l1.051,0.292c0.351,0.094,0.693,0.221,1.042,0.33l2.08,0.668c0.697,0.207,1.372,0.488,2.056,0.732l2.048,0.755l2.014,0.843
			c0.669,0.288,1.351,0.543,2.005,0.857l1.981,0.914l0.99,0.456c0.33,0.154,0.649,0.329,0.975,0.491l1.94,0.992
			c5.138,2.717,10.077,5.807,14.696,9.322c4.632,3.493,8.987,7.355,12.951,11.584c3.995,4.2,7.604,8.764,10.771,13.615
			c0.839,1.184,1.551,2.447,2.305,3.686c0.365,0.625,0.762,1.233,1.104,1.872l1.02,1.92l1.021,1.921l0.921,1.969l0.927,1.969
			l0.233,0.492l0.206,0.503l0.409,1.008c2.224,5.359,4.01,10.927,5.164,16.642c1.206,5.707,1.87,11.527,2.18,17.393
			C154.476,111.537,154.121,105.637,153.219,99.801z"/>
		<g>
			<polygon fill="#FFDA88" points="150.166,62.332 150.166,62.333 150.166,62.333 			"/>
			<polygon fill="#FFDA88" points="150.544,71.536 150.544,71.536 150.543,71.536 			"/>
			<path fill="#FFDA88" d="M150.544,71.536c0.187-0.107,0.371-0.222,0.551-0.343c1.705-1.145,2.841-3.02,3.128-5.141
				c0.058-0.422,0.086-0.838,0.086-1.246c0.003-2.485-1.073-4.639-3.014-5.843c-1.002-0.623-2.137-0.933-3.272-0.933
				c-1.217,0-2.436,0.357-3.485,1.067c-1.157,0.782-1.933,2.049-2.143,3.475c-0.045,0.311-0.067,0.616-0.067,0.915
				c-0.004,1.702,0.738,3.198,2.089,4.044c0.705,0.443,1.506,0.663,2.306,0.663c0.853,0,1.706-0.25,2.443-0.748
				c1.054-0.713,1.624-1.881,1.624-3.064c0-0.707-0.203-1.422-0.626-2.05c-0.198-0.297-0.527-0.457-0.859-0.456
				c-0.198,0-0.399,0.057-0.576,0.176c-0.295,0.199-0.456,0.527-0.456,0.858c0,0.199,0.058,0.401,0.177,0.578
				c0.186,0.275,0.273,0.585,0.273,0.896c0,0.521-0.25,1.035-0.716,1.35c-0.387,0.262-0.835,0.393-1.284,0.393
				c-0.418,0-0.838-0.116-1.207-0.347c-0.363-0.228-0.637-0.536-0.827-0.917c-0.189-0.382-0.293-0.84-0.293-1.361
				c0-0.201,0.016-0.412,0.047-0.629c0.125-0.861,0.588-1.611,1.253-2.059c0.702-0.475,1.516-0.714,2.328-0.714
				c0.758,0,1.515,0.207,2.18,0.621c0.663,0.411,1.166,0.969,1.512,1.652c0.345,0.684,0.529,1.496,0.529,2.407
				c0,0.319-0.022,0.651-0.07,0.993c-0.215,1.576-1.008,2.879-2.234,3.705v0c-0.139,0.094-0.28,0.182-0.425,0.265l0,0
				c-0.945,0.542-1.972,0.813-3.013,0.813c-0.966,0-1.944-0.233-2.876-0.707c-2.049-1.043-3.416-3.015-3.663-5.277l-0.029-0.274
				v-0.002l-0.002-0.007c-0.06-0.432-0.089-0.92-0.089-1.445c0-1.556,0.261-3.436,0.743-5.191l-0.001,0.002
				c0.438-1.563,0.617-2.978,0.617-4.24c0-2.352-0.617-4.172-1.28-5.441c-0.657-1.26-1.357-1.979-1.551-2.166
				c-0.075-0.085-0.151-0.168-0.23-0.247l-0.255,0.253l0.255-0.255c-0.84-0.841-1.947-1.35-3.146-1.443
				c-0.131-0.01-0.263-0.016-0.394-0.016c-1.192-0.001-2.342,0.421-3.26,1.206c-0.977,0.834-1.48,2.027-1.479,3.223
				c-0.001,0.954,0.32,1.916,0.979,2.699l0,0c0.641,0.76,1.615,1.21,2.633,1.23h0.001l0.081,0.001c0.699,0,1.348-0.166,1.891-0.48
				c0.544-0.314,0.982-0.778,1.255-1.357c0.197-0.418,0.294-0.868,0.294-1.314c0-0.717-0.25-1.426-0.732-1.992l-0.002-0.002
				c-0.205-0.237-0.495-0.363-0.786-0.362c-0.237-0.001-0.477,0.084-0.67,0.249c-0.239,0.204-0.362,0.496-0.362,0.787
				c0,0.237,0.082,0.478,0.247,0.672l0,0c0.157,0.182,0.238,0.415,0.238,0.65c0,0.146-0.031,0.292-0.095,0.43
				c-0.098,0.202-0.248,0.356-0.458,0.471c-0.211,0.114-0.487,0.182-0.819,0.182l-0.045,0h0.002c-0.432-0.006-0.843-0.2-1.087-0.491
				c-0.333-0.397-0.495-0.883-0.496-1.371c0.001-0.614,0.259-1.223,0.758-1.649c0.544-0.463,1.212-0.711,1.917-0.711
				c0.076,0,0.154,0.003,0.232,0.01c0.787,0.061,1.496,0.422,2.007,1.02l0.006,0.007l0.065,0.068l0.006,0.007l0.002,0.002
				c0.085,0.083,2.21,2.095,2.211,6.132c-0.001,1.079-0.152,2.306-0.54,3.683l-0.001,0.002c-0.534,1.954-0.818,3.981-0.819,5.728
				c0,0.609,0.036,1.184,0.108,1.713h-0.001l0.028,0.256c0.322,2.959,2.111,5.54,4.783,6.896c1.224,0.622,2.523,0.936,3.813,0.935
				C147.9,72.628,149.284,72.262,150.544,71.536z"/>
		</g>
		<g>
			<path fill="#FFDA88" d="M116.041,29.366L116.041,29.366L116.041,29.366z"/>
			<polygon fill="#FFDA88" points="115.762,27.93 115.762,27.93 115.764,27.93 			"/>
			<path fill="#FFDA88" d="M132.788,46.751c0.784-0.918,1.208-2.066,1.208-3.26c0-0.131-0.007-0.262-0.017-0.393
				c-0.093-1.199-0.604-2.306-1.444-3.146l-0.256,0.255l0.256-0.255c-0.08-0.08-0.163-0.156-0.249-0.23
				c-0.19-0.199-0.91-0.896-2.167-1.553c-1.268-0.663-3.086-1.279-5.436-1.279c-1.262,0-2.676,0.179-4.238,0.617l0.002-0.001
				c-1.758,0.481-3.635,0.743-5.197,0.743c-0.531,0-1.024-0.03-1.463-0.09l-0.006,0l-0.259-0.027l0,0
				c-2.265-0.249-4.235-1.615-5.277-3.664c-0.473-0.931-0.707-1.909-0.707-2.875c0-1.041,0.271-2.069,0.814-3.015
				c0.082-0.144,0.17-0.284,0.264-0.423l0.001-0.001c0.824-1.226,2.129-2.019,3.703-2.234c0.341-0.046,0.672-0.069,0.989-0.069
				c0.911,0.001,1.724,0.184,2.408,0.53c0.685,0.346,1.245,0.85,1.656,1.51c0.415,0.666,0.62,1.422,0.62,2.18
				c0,0.814-0.238,1.627-0.713,2.329c-0.449,0.666-1.199,1.127-2.06,1.252c-0.218,0.032-0.428,0.048-0.629,0.048
				c-0.521,0-0.979-0.103-1.361-0.293c-0.382-0.189-0.688-0.464-0.918-0.827c-0.23-0.37-0.346-0.788-0.346-1.208
				c0-0.448,0.131-0.894,0.392-1.283c0.316-0.466,0.828-0.716,1.351-0.717c0.311,0,0.62,0.089,0.896,0.274v0.001
				c0.177,0.118,0.378,0.176,0.578,0.176c0.33,0,0.658-0.16,0.856-0.455c0.12-0.177,0.178-0.38,0.178-0.578
				c0-0.332-0.16-0.659-0.457-0.858c-0.627-0.423-1.344-0.626-2.05-0.626c-1.184,0-2.351,0.57-3.064,1.625
				c-0.497,0.737-0.749,1.588-0.749,2.441c0,0.8,0.22,1.602,0.664,2.307c0.846,1.349,2.341,2.092,4.046,2.088
				c0.297,0,0.603-0.021,0.912-0.066c1.426-0.208,2.692-0.984,3.476-2.142c0.711-1.05,1.066-2.269,1.066-3.485
				c0-1.135-0.311-2.271-0.933-3.272c-1.203-1.94-3.359-3.017-5.845-3.014c-0.406,0-0.822,0.029-1.244,0.085
				c-2.119,0.287-3.995,1.424-5.139,3.128c-0.122,0.18-0.238,0.364-0.345,0.55v-0.001c-0.725,1.263-1.092,2.646-1.092,4.042
				c0,1.29,0.313,2.59,0.937,3.815c1.355,2.67,3.936,4.458,6.896,4.783l0.236,0.025v0c0.535,0.073,1.116,0.108,1.73,0.108
				c1.753,0,3.778-0.285,5.731-0.819L121,39.5c1.375-0.386,2.598-0.538,3.676-0.538c2.021,0,3.531,0.533,4.551,1.075
				c0.51,0.271,0.896,0.545,1.159,0.755c0.132,0.105,0.233,0.193,0.304,0.26c0.072,0.065,0.107,0.104,0.123,0.119l0.065,0.064
				l0.009,0.008l0.011,0.009c0.599,0.508,0.957,1.217,1.018,2.004v0.002c0.007,0.076,0.01,0.152,0.01,0.23
				c0,0.704-0.248,1.375-0.711,1.918c-0.427,0.499-1.035,0.757-1.649,0.757c-0.489,0-0.974-0.162-1.372-0.495
				c-0.289-0.242-0.485-0.657-0.492-1.086v0.003v-0.048c0-0.332,0.069-0.607,0.183-0.818c0.114-0.211,0.269-0.359,0.472-0.457
				c0.138-0.065,0.283-0.097,0.431-0.097c0.234,0,0.466,0.082,0.649,0.237v0.001c0.194,0.165,0.435,0.248,0.671,0.247
				c0.29,0.001,0.583-0.123,0.786-0.362c0.166-0.193,0.246-0.435,0.246-0.668c0-0.292-0.123-0.583-0.357-0.788l-0.003-0.002
				c-0.566-0.482-1.275-0.732-1.992-0.732c-0.445,0-0.896,0.097-1.314,0.294c-0.579,0.273-1.045,0.711-1.357,1.254
				c-0.314,0.545-0.48,1.191-0.48,1.89l0.002,0.083c0.02,1.019,0.471,1.993,1.229,2.633l0.002,0.001
				c0.782,0.656,1.745,0.979,2.698,0.979C130.761,48.232,131.954,47.728,132.788,46.751z"/>
		</g>
		<path fill="#FFDA88" d="M119.695,59.632c0.101-0.021,1.154-0.26,2.395-0.789c1.24-0.534,2.676-1.348,3.517-2.592
			c0.325-0.482,0.489-1.021,0.489-1.556c0-0.69-0.276-1.371-0.802-1.895l0,0l0,0l0,0l0,0c-0.523-0.524-1.203-0.801-1.894-0.8
			c-0.534,0-1.075,0.163-1.556,0.487c-1.246,0.842-2.059,2.277-2.592,3.517c-0.53,1.243-0.769,2.297-0.79,2.397
			c-0.016,0.068-0.021,0.137-0.021,0.203c0.001,0.292,0.129,0.549,0.315,0.735c0.186,0.186,0.442,0.315,0.734,0.316
			C119.557,59.654,119.626,59.648,119.695,59.632z M123.894,55.094l-0.004,0.002c-0.348,0.521-0.945,0.983-1.605,1.354
			c-0.398,0.225-0.816,0.414-1.213,0.572c0.171-0.418,0.372-0.854,0.606-1.261c0.374-0.654,0.829-1.231,1.318-1.558
			c0.158-0.105,0.284-0.135,0.397-0.136c0.165,0,0.324,0.08,0.438,0.194c0.116,0.114,0.195,0.272,0.195,0.439
			C124.027,54.812,123.996,54.938,123.894,55.094z"/>
		<g>
			<path fill="#FFDA88" d="M145.747,35.715c0.535,0,1.074-0.164,1.557-0.488c1.245-0.843,2.058-2.278,2.591-3.518
				c0.526-1.234,0.766-2.283,0.79-2.393c0.016-0.07,0.023-0.139,0.022-0.207c0-0.292-0.129-0.549-0.314-0.735
				c-0.188-0.186-0.444-0.313-0.736-0.315c-0.067,0-0.137,0.008-0.205,0.022l0.002,0c-0.102,0.022-1.154,0.261-2.397,0.791
				c-1.239,0.533-2.675,1.346-3.517,2.59c-0.323,0.482-0.487,1.022-0.487,1.557c-0.001,0.691,0.275,1.371,0.8,1.895l0.257-0.256
				l-0.257,0.256C144.377,35.439,145.056,35.716,145.747,35.715z M145.255,32.62l0.002-0.003c0.348-0.52,0.944-0.983,1.605-1.354
				c0.399-0.225,0.816-0.414,1.214-0.573c-0.172,0.419-0.372,0.854-0.606,1.262c-0.375,0.654-0.83,1.231-1.32,1.559
				c-0.156,0.104-0.283,0.134-0.396,0.135c-0.166,0.001-0.325-0.081-0.438-0.193c-0.114-0.115-0.195-0.273-0.194-0.439
				C145.122,32.902,145.152,32.776,145.255,32.62z"/>
			<polygon fill="#FFDA88" points="150.685,29.313 150.685,29.315 150.685,29.316 			"/>
		</g>
		<g>
			<path fill="#FFDA88" d="M17.836,23.29c11.377-0.211,22.754-0.302,34.131-0.457l34.129-0.261
				c11.377-0.113,22.753-0.092,34.13-0.134l34.129-0.085l0.941-0.002l-0.003,0.941l-0.084,34.129
				c-0.044,11.377-0.018,22.754-0.132,34.13l-0.261,34.129c-0.156,11.377-0.248,22.754-0.461,34.131
				c-0.212-11.377-0.305-22.754-0.459-34.131l-0.263-34.129c-0.114-11.376-0.087-22.752-0.133-34.13l-0.083-34.129l0.938,0.938
				l-34.13-0.084c-11.376-0.042-22.753-0.021-34.129-0.134l-34.13-0.262C40.59,23.594,29.213,23.502,17.836,23.29z"/>
		</g>
	</g>
</g>
</svg>
